<svg width="30" height="30" viewBox="0 0 30 30" fill="none" xmlns="http://www.w3.org/2000/svg">
<path d="M24.3467 12.216C25.0303 11.8654 25.6213 11.3583 26.0716 10.7359C26.5219 10.1134 26.8188 9.39342 26.9379 8.63448C27.0571 7.87555 26.9952 7.0992 26.7573 6.36873C26.5195 5.63826 26.1123 4.97434 25.5691 4.43112C25.0259 3.8879 24.3619 3.48075 23.6315 3.24287C22.901 3.00499 22.1247 2.94311 21.3657 3.06228C20.6068 3.18145 19.8868 3.47829 19.2644 3.9286C18.6419 4.37892 18.1348 4.96996 17.7842 5.65353C19.3366 6.11712 20.7493 6.9597 21.8949 8.10532C23.0405 9.25094 23.8831 10.6636 24.3467 12.216Z" fill="url(#paint0_linear_57_953)"/>
<path d="M24.3467 12.216C25.0303 11.8654 25.6213 11.3583 26.0716 10.7359C26.5219 10.1134 26.8188 9.39342 26.9379 8.63448C27.0571 7.87555 26.9952 7.0992 26.7573 6.36873C26.5195 5.63826 26.1123 4.97434 25.5691 4.43112C25.0259 3.8879 24.3619 3.48075 23.6315 3.24287C22.901 3.00499 22.1247 2.94311 21.3657 3.06228C20.6068 3.18145 19.8868 3.47829 19.2644 3.9286C18.6419 4.37892 18.1348 4.96996 17.7842 5.65353C19.3366 6.11712 20.7493 6.9597 21.8949 8.10532C23.0405 9.25094 23.8831 10.6636 24.3467 12.216Z" fill="url(#paint1_radial_57_953)"/>
<path d="M12.2162 5.65353C10.6638 6.11712 9.2511 6.9597 8.10547 8.10532C6.95985 9.25094 6.11728 10.6636 5.65368 12.216C4.97011 11.8654 4.37907 11.3583 3.92876 10.7359C3.47844 10.1134 3.1816 9.39342 3.06243 8.63448C2.94326 7.87555 3.00514 7.0992 3.24302 6.36873C3.4809 5.63826 3.88805 4.97434 4.43127 4.43112C4.97449 3.8879 5.63841 3.48075 6.36888 3.24287C7.09935 3.00499 7.87571 2.94311 8.63464 3.06228C9.39357 3.18145 10.1136 3.47829 10.736 3.9286C11.3584 4.37892 11.8656 4.96996 12.2162 5.65353Z" fill="url(#paint2_linear_57_953)"/>
<path d="M12.2162 5.65353C10.6638 6.11712 9.2511 6.9597 8.10547 8.10532C6.95985 9.25094 6.11728 10.6636 5.65368 12.216C4.97011 11.8654 4.37907 11.3583 3.92876 10.7359C3.47844 10.1134 3.1816 9.39342 3.06243 8.63448C2.94326 7.87555 3.00514 7.0992 3.24302 6.36873C3.4809 5.63826 3.88805 4.97434 4.43127 4.43112C4.97449 3.8879 5.63841 3.48075 6.36888 3.24287C7.09935 3.00499 7.87571 2.94311 8.63464 3.06228C9.39357 3.18145 10.1136 3.47829 10.736 3.9286C11.3584 4.37892 11.8656 4.96996 12.2162 5.65353Z" fill="url(#paint3_radial_57_953)"/>
<path d="M5.78093 25.281L8.78093 22.281L7.71893 21.2205L4.71893 24.2205C4.6493 24.2903 4.59408 24.373 4.55643 24.4641C4.51878 24.5552 4.49944 24.6528 4.49951 24.7513C4.49958 24.8498 4.51906 24.9474 4.55684 25.0384C4.59461 25.1294 4.64995 25.2121 4.71968 25.2818C4.78941 25.3514 4.87218 25.4066 4.96325 25.4443C5.05432 25.4819 5.15191 25.5013 5.25046 25.5012C5.34901 25.5011 5.44657 25.4816 5.53759 25.4439C5.62861 25.4061 5.7113 25.3508 5.78093 25.281Z" fill="url(#paint4_linear_57_953)"/>
<path d="M25.2812 24.2205L22.2812 21.2205L21.2192 22.281L24.2192 25.281C24.3599 25.4218 24.5507 25.501 24.7497 25.5012C24.9487 25.5013 25.1397 25.4224 25.2805 25.2818C25.4213 25.1411 25.5005 24.9503 25.5007 24.7513C25.5008 24.5523 25.4219 24.3613 25.2812 24.2205Z" fill="url(#paint5_linear_57_953)"/>
<path d="M25.5 15C25.5 16.3789 25.2284 17.7443 24.7007 19.0182C24.1731 20.2921 23.3996 21.4496 22.4246 22.4246C21.4496 23.3996 20.2921 24.1731 19.0182 24.7007C17.7443 25.2284 16.3789 25.5 15 25.5C13.6211 25.5 12.2557 25.2284 10.9818 24.7007C9.70791 24.1731 8.55039 23.3996 7.57538 22.4246C6.60036 21.4496 5.82694 20.2921 5.29927 19.0182C4.77159 17.7443 4.5 16.3789 4.5 15C4.5 12.2152 5.60625 9.54451 7.57538 7.57538C9.54451 5.60625 12.2152 4.5 15 4.5C17.7848 4.5 20.4555 5.60625 22.4246 7.57538C24.3938 9.54451 25.5 12.2152 25.5 15Z" fill="url(#paint6_linear_57_953)"/>
<path d="M23.625 15C23.625 16.1327 23.4019 17.2542 22.9685 18.3006C22.535 19.3471 21.8997 20.2979 21.0988 21.0988C20.2979 21.8997 19.3471 22.535 18.3006 22.9685C17.2542 23.4019 16.1327 23.625 15 23.625C13.8673 23.625 12.7458 23.4019 11.6994 22.9685C10.6529 22.535 9.70211 21.8997 8.9012 21.0988C8.1003 20.2979 7.46499 19.3471 7.03154 18.3006C6.59809 17.2542 6.375 16.1327 6.375 15C6.375 12.7125 7.2837 10.5187 8.9012 8.9012C10.5187 7.2837 12.7125 6.375 15 6.375C17.2875 6.375 19.4813 7.2837 21.0988 8.9012C22.7163 10.5187 23.625 12.7125 23.625 15Z" fill="url(#paint7_linear_57_953)"/>
<path fill-rule="evenodd" clip-rule="evenodd" d="M14.25 9C14.4489 9 14.6397 9.07902 14.7803 9.21967C14.921 9.36032 15 9.55109 15 9.75V15H18.75C18.9489 15 19.1397 15.079 19.2803 15.2197C19.421 15.3603 19.5 15.5511 19.5 15.75C19.5 15.9489 19.421 16.1397 19.2803 16.2803C19.1397 16.421 18.9489 16.5 18.75 16.5H14.25C14.0511 16.5 13.8603 16.421 13.7197 16.2803C13.579 16.1397 13.5 15.9489 13.5 15.75V9.75C13.5 9.55109 13.579 9.36032 13.7197 9.21967C13.8603 9.07902 14.0511 9 14.25 9Z" fill="url(#paint8_linear_57_953)"/>
<defs>
<linearGradient id="paint0_linear_57_953" x1="27.0137" y1="12.2115" x2="18.2612" y2="5.05202" gradientUnits="userSpaceOnUse">
<stop stop-color="#FF6F47"/>
<stop offset="1" stop-color="#FFCD0F"/>
</linearGradient>
<radialGradient id="paint1_radial_57_953" cx="0" cy="0" r="1" gradientUnits="userSpaceOnUse" gradientTransform="translate(15.0002 15) rotate(-45) scale(13.7886)">
<stop offset="0.644" stop-color="#FF6F47"/>
<stop offset="0.942" stop-color="#FF6F47" stop-opacity="0"/>
</radialGradient>
<linearGradient id="paint2_linear_57_953" x1="12.2282" y1="12.2115" x2="3.47568" y2="5.05203" gradientUnits="userSpaceOnUse">
<stop stop-color="#FF6F47"/>
<stop offset="1" stop-color="#FFCD0F"/>
</linearGradient>
<radialGradient id="paint3_radial_57_953" cx="0" cy="0" r="1" gradientUnits="userSpaceOnUse" gradientTransform="translate(15.0002 15) rotate(-135) scale(13.7886)">
<stop offset="0.659" stop-color="#FF6F47"/>
<stop offset="0.949" stop-color="#FF6F47" stop-opacity="0"/>
</radialGradient>
<linearGradient id="paint4_linear_57_953" x1="4.49993" y1="19.3815" x2="5.32043" y2="26.919" gradientUnits="userSpaceOnUse">
<stop stop-color="#CAD2D9"/>
<stop offset="1" stop-color="#70777D"/>
</linearGradient>
<linearGradient id="paint5_linear_57_953" x1="4.50023" y1="19.3815" x2="5.32073" y2="26.919" gradientUnits="userSpaceOnUse">
<stop stop-color="#CAD2D9"/>
<stop offset="1" stop-color="#70777D"/>
</linearGradient>
<linearGradient id="paint6_linear_57_953" x1="7.9995" y1="3.333" x2="18.4995" y2="26.667" gradientUnits="userSpaceOnUse">
<stop stop-color="#1EC8B0"/>
<stop offset="1" stop-color="#2764E7"/>
</linearGradient>
<linearGradient id="paint7_linear_57_953" x1="9" y1="4.5" x2="20.25" y2="28.5" gradientUnits="userSpaceOnUse">
<stop stop-color="#FDFDFD"/>
<stop offset="1" stop-color="#DEDEFF"/>
</linearGradient>
<linearGradient id="paint8_linear_57_953" x1="15" y1="9.417" x2="18.537" y2="15.3105" gradientUnits="userSpaceOnUse">
<stop stop-color="#1EC8B0"/>
<stop offset="1" stop-color="#2764E7"/>
</linearGradient>
</defs>
</svg>
