<svg width="35" height="35" viewBox="0 0 35 35" fill="none" xmlns="http://www.w3.org/2000/svg">
<path d="M5.41353 24.0078C5.24947 24.0078 5.14009 23.9531 5.03072 23.8984C4.92134 23.7891 1.85884 21.7109 1.20259 18.3203C0.874468 16.4063 1.31197 14.4922 2.56978 12.6875C4.64791 9.67969 5.35884 7.16407 4.70259 5.30469C3.99166 3.28125 1.80416 2.625 1.80416 2.57032C1.42134 2.46094 1.20259 2.02344 1.31197 1.64063C1.42134 1.25782 1.80416 0.984378 2.18697 1.14844C2.29634 1.20313 5.08541 2.02344 6.06978 4.75782C6.89009 7.10938 6.12447 10.0625 3.77291 13.5078C2.73384 14.9844 2.35103 16.5156 2.62447 17.9922C3.11666 20.7813 5.79634 22.5859 5.79634 22.5859C6.12447 22.8047 6.23384 23.2969 6.01509 23.625C5.90572 23.8984 5.68697 24.0078 5.41353 24.0078ZM29.5854 24.0078C29.3667 24.0078 29.0932 23.8984 28.9838 23.6797C28.7651 23.3516 28.8745 22.8594 29.2026 22.6406C29.2026 22.6406 31.8823 20.7813 32.3745 18.0469C32.6479 16.5703 32.2651 15.0938 31.226 13.5625C28.8745 10.1172 28.1088 7.16407 28.9292 4.8125C29.9135 2.02344 32.7026 1.20313 32.812 1.20313C33.1948 1.09375 33.6323 1.3125 33.7417 1.69532C33.851 2.07813 33.6323 2.51563 33.2495 2.625C33.2495 2.625 31.062 3.28125 30.351 5.35938C29.6948 7.21875 30.4057 9.73438 32.4838 12.7422C33.7417 14.6016 34.1792 16.4609 33.851 18.375C33.1948 21.7656 30.1323 23.8438 30.0229 23.9531C29.8588 23.9531 29.6948 24.0078 29.5854 24.0078Z" fill="#592F5D"/>
<path d="M17.5004 3.39064C13.6175 3.39064 3.11755 9.13283 3.22692 22.8047C3.22692 24.9922 3.3363 30.461 4.43005 31.336C5.5238 32.2656 8.20348 29.9141 9.51598 30.5156C10.8285 31.1719 11.266 33.5235 12.7425 33.8516C14.2191 34.1797 16.0238 32.2656 17.5004 32.2656C18.9769 32.2656 20.8363 34.1797 22.2582 33.8516C23.68 33.5235 24.1722 31.1719 25.4847 30.5156C26.7425 29.9141 29.4769 32.211 30.5707 31.336C31.6644 30.4063 31.7738 24.9375 31.7738 22.8047C31.8832 10.4453 22.5863 3.39064 17.5004 3.39064Z" fill="#917DBC"/>
<path d="M26.6872 16.7344C28.6559 18.8672 28.6559 22.3125 26.6872 24.4453C24.7184 26.5781 21.4918 26.5781 19.5231 24.4453C19.4684 24.4453 24.6637 14.6016 26.6872 16.7344ZM7.43716 19.8516C5.63247 24.2266 8.5856 23.0781 11.1559 24.3359C13.7262 25.5391 15.5856 27.0703 16.734 24.3359C16.6793 24.2812 8.53091 17.1172 7.43716 19.8516Z" fill="white"/>
<path d="M11.4302 23.0781C11.4302 24.1719 12.2505 25.1016 13.2896 25.1016C14.3286 25.1016 15.1489 24.2266 15.1489 23.0781C14.438 22.5313 13.563 21.8203 12.6333 21.2188C11.9771 21.4922 11.4302 22.2031 11.4302 23.0781ZM22.313 25.0469C23.3521 25.0469 24.1724 24.1719 24.1724 23.0235C24.1724 21.9297 23.3521 21 22.313 21C21.9302 21 21.6021 21.1094 21.2739 21.3281C21.0005 21.8203 20.7271 22.2578 20.4536 22.6406C20.4536 22.75 20.3989 22.8594 20.3989 22.9688C20.4536 24.1719 21.2739 25.0469 22.313 25.0469Z" fill="#592F5D"/>
<path d="M17.5002 14.2187C13.0705 14.2187 12.5783 15.2578 11.8674 13.9453C11.5392 13.3437 13.0705 12.1953 17.5002 12.1953C21.9299 12.1953 23.4611 13.3437 23.133 13.9453C22.4221 15.2578 21.9299 14.2187 17.5002 14.2187ZM17.5002 10.3906C13.0705 10.3906 12.5783 11.4297 11.8674 10.1172C11.5392 9.51561 13.0705 8.36717 17.5002 8.36717C21.9299 8.36717 23.4611 9.51561 23.133 10.1172C22.4221 11.4297 21.9299 10.3906 17.5002 10.3906ZM9.40643 28.0547C9.02362 28.8203 7.60174 28.9297 6.17987 28.2187C4.758 27.5078 3.93768 26.3047 4.32049 25.539C4.70331 24.7734 6.12518 24.664 7.54706 25.375C8.96893 26.0859 9.73456 27.2344 9.40643 28.0547ZM25.5939 28.0547C25.9767 28.8203 27.3986 28.9297 28.8205 28.2187C30.2424 27.5078 31.0627 26.3047 30.6799 25.539C30.2971 24.7734 28.8752 24.664 27.4533 25.375C26.0861 26.0312 25.2658 27.2344 25.5939 28.0547Z" fill="#62FBF6"/>
</svg>
