<svg width="29" height="30" viewBox="0 0 29 30" fill="none" xmlns="http://www.w3.org/2000/svg">
<g clip-path="url(#clip0_38_1308)">
<path d="M14.3796 20.8C17.5817 20.7964 20.176 18.2021 20.1796 15V6.3C20.1796 3.09671 17.5829 0.5 14.3796 0.5C11.1763 0.5 8.57959 3.09671 8.57959 6.3V15C8.58321 18.2021 11.1775 20.7964 14.3796 20.8Z" fill="#181820"/>
<path d="M24.5288 15V12.1C24.5288 11.2989 23.8799 10.65 23.0788 10.65C22.2776 10.65 21.6288 11.2989 21.6288 12.1V15C21.6288 19.0044 18.3832 22.25 14.3788 22.25C10.3743 22.25 7.12876 19.0044 7.12876 15V12.1C7.12876 11.2989 6.47988 10.65 5.67876 10.65C4.87763 10.65 4.22876 11.2989 4.22876 12.1V15C4.23722 20.0883 7.98668 24.2982 12.8732 25.0268L12.9288 25.034V26.6H8.57876C7.77763 26.6 7.12876 27.2489 7.12876 28.05C7.12876 28.8512 7.77763 29.5 8.57876 29.5H20.1788C20.9799 29.5 21.6288 28.8512 21.6288 28.05C21.6288 27.2489 20.9799 26.6 20.1788 26.6H15.8288V25.034C20.7708 24.2982 24.5203 20.0883 24.5288 15.0012V15Z" fill="#181820"/>
</g>
<defs>
<clipPath id="clip0_38_1308">
<rect width="29" height="29" fill="white" transform="translate(0 0.5)"/>
</clipPath>
</defs>
</svg>
