<svg width="31" height="33" viewBox="0 0 31 33" fill="none" xmlns="http://www.w3.org/2000/svg">
<path d="M8.18078 20.9202C8.18078 21.936 7.77722 22.9103 7.05889 23.6286C6.34055 24.347 5.36628 24.7505 4.3504 24.7505C3.33452 24.7505 2.36025 24.347 1.64191 23.6286C0.923576 22.9103 0.52002 21.936 0.52002 20.9202C0.52002 19.9043 0.923576 18.93 1.64191 18.2117C2.36025 17.4933 3.33452 17.0898 4.3504 17.0898C5.36628 17.0898 6.34055 17.4933 7.05889 18.2117C7.77722 18.93 8.18078 19.9043 8.18078 20.9202ZM30.5738 20.9202C30.5738 21.936 30.1702 22.9103 29.4519 23.6286C28.7335 24.347 27.7593 24.7505 26.7434 24.7505C25.7275 24.7505 24.7532 24.347 24.0349 23.6286C23.3166 22.9103 22.913 21.936 22.913 20.9202C22.913 19.9043 23.3166 18.93 24.0349 18.2117C24.7532 17.4933 25.7275 17.0898 26.7434 17.0898C27.7593 17.0898 28.7335 17.4933 29.4519 18.2117C30.1702 18.93 30.5738 19.9043 30.5738 20.9202Z" fill="#F4C6AD"/>
<path d="M24.0445 4.46723C22.2423 3.10596 20.0472 2.36573 17.7886 2.35757H13.303C11.066 2.35757 8.8774 3.10008 7.04943 4.46723C3.93444 6.8126 2.25026 10.7137 2.63565 14.7103L3.69401 24.2685C4.04287 27.9704 6.4955 31.0819 9.89923 32.1426C13.5799 33.2858 17.5128 33.2858 21.1924 32.1426C24.5949 31.0819 27.0499 27.9704 27.3976 24.2697L28.4559 14.7103C28.8402 10.7149 27.1571 6.81378 24.0422 4.46841" fill="#FFD7C2"/>
<path d="M15.5373 25.8855C14.3031 25.8918 13.0862 25.5952 11.9933 25.0216C11.6409 24.833 11.2661 25.2349 11.4889 25.5779C11.9247 26.2595 12.525 26.8205 13.2345 27.2092C13.9441 27.5978 14.7401 27.8017 15.5491 27.8019C16.3579 27.8006 17.1535 27.5963 17.8629 27.2077C18.5722 26.8192 19.1727 26.2588 19.6093 25.5779C19.8214 25.2479 19.4561 24.8448 19.1049 25.0216C18.0024 25.5922 16.7787 25.8886 15.5373 25.8855Z" fill="#990839"/>
<path d="M15.5491 24.3381C16.1184 24.3381 16.6263 24.0493 16.9163 23.6156C16.977 23.526 17.0122 23.4216 17.0179 23.3135C17.0237 23.2054 16.9997 23.0979 16.9488 23.0024C16.8978 22.9069 16.8218 22.8272 16.7288 22.7718C16.6358 22.7164 16.5295 22.6874 16.4213 22.6881H14.6781C14.1949 22.6881 13.9038 23.2302 14.182 23.6156C14.4719 24.0611 14.981 24.3381 15.5491 24.3381Z" fill="#E5AF93"/>
<path d="M5.37586 20.8C5.81194 19.0062 7.4148 17.6791 9.31231 17.6791C11.2805 17.6791 12.9305 19.1134 13.2959 21.0027C13.3784 21.4211 13.0484 21.8041 12.6359 21.8041H6.15372C6.03123 21.8038 5.91042 21.7755 5.8005 21.7214C5.69058 21.6674 5.59445 21.5889 5.51943 21.4921C5.44441 21.3953 5.39249 21.2826 5.36761 21.1626C5.34273 21.0427 5.34555 20.9186 5.37586 20.8ZM25.0345 20.8C24.5985 19.0062 22.9956 17.6791 21.0981 17.6791C19.1181 17.6791 17.4799 19.1134 17.1145 21.0027C17.032 21.4211 17.362 21.8041 17.7745 21.8041H24.2567C24.7753 21.8041 25.1642 21.3138 25.0345 20.8Z" fill="white"/>
<path d="M7.32031 21.1206C7.32031 19.6945 8.47532 18.5277 9.91318 18.5277C11.351 18.5277 12.5061 19.6945 12.5178 21.1206C12.5178 21.3563 12.4825 21.5802 12.4236 21.8042H7.4146C7.35567 21.592 7.32031 21.3563 7.32031 21.1206ZM23.0897 21.1206C23.0897 20.4329 22.8165 19.7734 22.3303 19.2871C21.844 18.8009 21.1845 18.5277 20.4968 18.5277C19.0589 18.5277 17.8922 19.6945 17.8922 21.1206C17.8922 21.3563 17.9275 21.5802 17.9864 21.8042H22.9954C23.0543 21.592 23.0897 21.3563 23.0897 21.1206Z" fill="#7D4533"/>
<path d="M9.91372 19.6356C10.7387 19.6356 11.3987 20.2956 11.3987 21.1206C11.3987 21.3681 11.328 21.6038 11.2219 21.8041H8.59371C8.48764 21.6038 8.42871 21.3681 8.42871 21.1206C8.42871 20.2956 9.08871 19.6356 9.91372 19.6356ZM20.4974 19.6356C19.6723 19.6356 19.0123 20.2956 19.0123 21.1206C19.0123 21.3681 19.0713 21.6038 19.1891 21.8041H21.8174C21.9234 21.6038 21.9824 21.3681 21.9824 21.1206C21.9824 20.2956 21.3224 19.6356 20.4974 19.6356Z" fill="black"/>
<path d="M9.09995 20.107C9.09995 20.2289 9.05153 20.3458 8.96533 20.432C8.87913 20.5182 8.76222 20.5666 8.64031 20.5666C8.5184 20.5666 8.40149 20.5182 8.31529 20.432C8.22909 20.3458 8.18066 20.2289 8.18066 20.107C8.18066 19.985 8.22909 19.8681 8.31529 19.7819C8.40149 19.6957 8.5184 19.6473 8.64031 19.6473C8.76222 19.6473 8.87913 19.6957 8.96533 19.7819C9.05153 19.8681 9.09995 19.985 9.09995 20.107ZM20.1432 20.107C20.1432 20.2289 20.0948 20.3458 20.0086 20.432C19.9224 20.5182 19.8055 20.5666 19.6836 20.5666C19.5617 20.5666 19.4448 20.5182 19.3586 20.432C19.2724 20.3458 19.2239 20.2289 19.2239 20.107C19.2239 19.985 19.2724 19.8681 19.3586 19.7819C19.4448 19.6957 19.5617 19.6473 19.6836 19.6473C19.8055 19.6473 19.9224 19.6957 20.0086 19.7819C20.0948 19.8681 20.1432 19.985 20.1432 20.107Z" fill="white"/>
<path d="M8.06056 15.9713C8.6746 15.7533 9.555 15.5871 10.7183 15.6967C10.7967 15.7068 10.8763 15.701 10.9524 15.6797C11.0286 15.6583 11.0996 15.6219 11.1614 15.5725C11.2231 15.5232 11.2743 15.4619 11.3119 15.3923C11.3495 15.3228 11.3727 15.2464 11.3801 15.1677C11.3876 15.0889 11.3791 15.0095 11.3552 14.9342C11.3313 14.8588 11.2925 14.789 11.2411 14.729C11.1897 14.6689 11.1267 14.6198 11.0559 14.5846C10.9851 14.5494 10.908 14.5288 10.829 14.524C9.49371 14.3979 8.44124 14.5853 7.66456 14.8611C7.51733 14.9136 7.397 15.0225 7.33003 15.1637C7.26306 15.3049 7.25494 15.467 7.30745 15.6142C7.35996 15.7614 7.46881 15.8818 7.61005 15.9487C7.75128 16.0157 7.91334 16.0238 8.06056 15.9713ZM22.8753 14.8623C22.0986 14.5853 21.0461 14.3979 19.7108 14.524C19.6319 14.5288 19.5547 14.5494 19.484 14.5846C19.4132 14.6198 19.3502 14.6689 19.2988 14.729C19.2473 14.789 19.2085 14.8588 19.1847 14.9342C19.1608 15.0095 19.1523 15.0889 19.1597 15.1677C19.1672 15.2464 19.1904 15.3228 19.2279 15.3923C19.2655 15.4619 19.3167 15.5232 19.3785 15.5725C19.4402 15.6219 19.5113 15.6583 19.5874 15.6797C19.6635 15.701 19.7432 15.7068 19.8216 15.6967C20.9848 15.5871 21.8652 15.7533 22.4793 15.9713C22.6265 16.0238 22.7886 16.0157 22.9298 15.9487C23.071 15.8818 23.1799 15.7614 23.2324 15.6142C23.2849 15.467 23.2768 15.3049 23.2098 15.1637C23.1428 15.0225 23.0225 14.9148 22.8753 14.8623ZM15.3347 0.000403976C14.421 -0.0111724 13.5214 0.22625 12.7324 0.687196C11.9434 1.14814 11.2948 1.81522 10.8561 2.61685C11.5869 2.45185 12.3294 2.35756 13.0719 2.35756H13.2487C15.3819 2.35756 17.1733 4.10186 17.1615 6.23508C17.1498 7.20152 16.7962 8.07366 16.2069 8.74545C16.1118 8.84977 16.0539 8.98266 16.0423 9.12336C16.0307 9.26406 16.066 9.40464 16.1428 9.52312C16.2195 9.64161 16.3334 9.73134 16.4665 9.77829C16.5996 9.82523 16.7446 9.82675 16.8787 9.7826C17.8731 9.44487 18.7365 8.80383 19.3475 7.94969C19.9585 7.09555 20.2863 6.07132 20.2848 5.02115C20.2966 2.28685 18.069 0.0357613 15.3347 0.000403976Z" fill="#212121"/>
</svg>
