<svg width="41" height="41" viewBox="0 0 41 41" fill="none" xmlns="http://www.w3.org/2000/svg">
<path d="M12.4922 25.3047C12.4922 26.4091 12.0535 27.4682 11.2726 28.2491C10.4916 29.03 9.4325 29.4688 8.32812 29.4688C7.22375 29.4688 6.1646 29.03 5.38369 28.2491C4.60277 27.4682 4.16406 26.4091 4.16406 25.3047C4.16406 24.2003 4.60277 23.1412 5.38369 22.3602C6.1646 21.5793 7.22375 21.1406 8.32812 21.1406C9.4325 21.1406 10.4916 21.5793 11.2726 22.3602C12.0535 23.1412 12.4922 24.2003 12.4922 25.3047ZM36.8359 25.3047C36.8359 26.4091 36.3972 27.4682 35.6163 28.2491C34.8354 29.03 33.7763 29.4688 32.6719 29.4688C31.5675 29.4688 30.5084 29.03 29.7274 28.2491C28.9465 27.4682 28.5078 26.4091 28.5078 25.3047C28.5078 24.2003 28.9465 23.1412 29.7274 22.3602C30.5084 21.5793 31.5675 21.1406 32.6719 21.1406C33.7763 21.1406 34.8354 21.5793 35.6163 22.3602C36.3972 23.1412 36.8359 24.2003 36.8359 25.3047Z" fill="#F4C6AD"/>
<path d="M29.7378 7.41844C27.7785 5.93858 25.3922 5.13387 22.9369 5.125H18.0605C15.6287 5.125 13.2494 5.93219 11.2622 7.41844C7.87581 9.96812 6.0449 14.2091 6.46387 18.5538L7.61444 28.9447C7.99369 32.9691 10.66 36.3516 14.3602 37.5047C18.3616 38.7476 22.6371 38.7476 26.6372 37.5047C30.3361 36.3516 33.005 32.9691 33.3829 28.946L34.5335 18.5538C34.9512 14.2103 33.1216 9.96941 29.7352 7.41972" fill="#FFD7C2"/>
<path d="M20.4896 30.7026C19.1478 30.7095 17.8249 30.387 16.6369 29.7634C16.2538 29.5584 15.8463 29.9953 16.0885 30.3682C16.5622 31.1092 17.2148 31.7191 17.9862 32.1416C18.7576 32.5641 19.6229 32.7857 20.5024 32.7859C21.3817 32.7845 22.2465 32.5624 23.0177 32.14C23.7889 31.7176 24.4417 31.1084 24.9163 30.3682C25.1469 30.0094 24.7497 29.5712 24.3679 29.7634C23.1695 30.3838 21.8391 30.7059 20.4896 30.7026Z" fill="#990839"/>
<path d="M20.5023 29.0203C21.1212 29.0203 21.6734 28.7064 21.9886 28.2349C22.0547 28.1376 22.0929 28.024 22.0991 27.9065C22.1053 27.789 22.0794 27.6721 22.024 27.5683C21.9686 27.4645 21.8859 27.3778 21.7848 27.3176C21.6837 27.2573 21.5681 27.2259 21.4505 27.2266H19.5555C19.0302 27.2266 18.7137 27.8159 19.0161 28.2349C19.3313 28.7192 19.8848 29.0203 20.5023 29.0203Z" fill="#E5AF93"/>
<path d="M9.44274 25.174C9.9168 23.2239 11.6593 21.7812 13.7221 21.7812C15.8618 21.7812 17.6556 23.3405 18.0527 25.3944C18.1424 25.8492 17.7837 26.2656 17.3352 26.2656H10.2884C10.1552 26.2653 10.0239 26.2346 9.90437 26.1758C9.78487 26.117 9.68037 26.0317 9.59882 25.9264C9.51726 25.8212 9.46081 25.6987 9.43377 25.5683C9.40672 25.4379 9.40979 25.303 9.44274 25.174ZM30.814 25.174C30.3399 23.2239 28.5974 21.7812 26.5346 21.7812C24.3821 21.7812 22.6012 23.3405 22.204 25.3944C22.1143 25.8492 22.4731 26.2656 22.9215 26.2656H29.9684C30.5321 26.2656 30.9549 25.7326 30.814 25.174Z" fill="white"/>
<path d="M11.5566 25.5225C11.5566 23.9722 12.8123 22.7038 14.3754 22.7038C15.9385 22.7038 17.1941 23.9722 17.207 25.5225C17.207 25.7788 17.1685 26.0222 17.1045 26.2656H11.6591C11.5951 26.035 11.5566 25.7788 11.5566 25.5225ZM28.6998 25.5225C28.6998 24.7749 28.4028 24.058 27.8742 23.5293C27.3456 23.0007 26.6286 22.7038 25.881 22.7038C24.3179 22.7038 23.0495 23.9722 23.0495 25.5225C23.0495 25.7788 23.0879 26.0222 23.152 26.2656H28.5973C28.6613 26.035 28.6998 25.7788 28.6998 25.5225Z" fill="#7D4533"/>
<path d="M14.3756 23.9081C15.2725 23.9081 15.99 24.6256 15.99 25.5225C15.99 25.7916 15.9131 26.0478 15.7978 26.2656H12.9406C12.8253 26.0478 12.7612 25.7916 12.7612 25.5225C12.7612 24.6256 13.4787 23.9081 14.3756 23.9081ZM25.8812 23.9081C24.9844 23.9081 24.2669 24.6256 24.2669 25.5225C24.2669 25.7916 24.3309 26.0478 24.459 26.2656H27.3162C27.4315 26.0478 27.4956 25.7916 27.4956 25.5225C27.4956 24.6256 26.7781 23.9081 25.8812 23.9081Z" fill="black"/>
<path d="M13.4916 24.4206C13.4916 24.5531 13.4389 24.6802 13.3452 24.774C13.2515 24.8677 13.1244 24.9203 12.9919 24.9203C12.8594 24.9203 12.7323 24.8677 12.6385 24.774C12.5448 24.6802 12.4922 24.5531 12.4922 24.4206C12.4922 24.2881 12.5448 24.161 12.6385 24.0673C12.7323 23.9736 12.8594 23.9209 12.9919 23.9209C13.1244 23.9209 13.2515 23.9736 13.3452 24.0673C13.4389 24.161 13.4916 24.2881 13.4916 24.4206ZM25.4969 24.4206C25.4969 24.5531 25.4442 24.6802 25.3505 24.774C25.2568 24.8677 25.1297 24.9203 24.9972 24.9203C24.8647 24.9203 24.7376 24.8677 24.6439 24.774C24.5501 24.6802 24.4975 24.5531 24.4975 24.4206C24.4975 24.2881 24.5501 24.161 24.6439 24.0673C24.7376 23.9736 24.8647 23.9209 24.9972 23.9209C25.1297 23.9209 25.2568 23.9736 25.3505 24.0673C25.4442 24.161 25.4969 24.2881 25.4969 24.4206Z" fill="white"/>
<path d="M12.3608 19.9247C13.0284 19.6877 13.9855 19.507 15.2501 19.6262C15.3353 19.6372 15.4219 19.6309 15.5046 19.6077C15.5874 19.5845 15.6647 19.5449 15.7318 19.4912C15.7989 19.4375 15.8546 19.3709 15.8954 19.2953C15.9363 19.2197 15.9615 19.1366 15.9696 19.0511C15.9777 18.9655 15.9685 18.8792 15.9425 18.7972C15.9165 18.7153 15.8743 18.6394 15.8184 18.5742C15.7625 18.5089 15.6941 18.4555 15.6171 18.4172C15.5402 18.3789 15.4563 18.3565 15.3705 18.3513C13.9188 18.2142 12.7747 18.418 11.9303 18.7178C11.7703 18.7749 11.6395 18.8932 11.5667 19.0467C11.4939 19.2003 11.485 19.3764 11.5421 19.5365C11.5992 19.6966 11.7175 19.8274 11.8711 19.9002C12.0246 19.973 12.2008 19.9818 12.3608 19.9247ZM28.4662 18.7191C27.6218 18.418 26.4777 18.2142 25.026 18.3513C24.9402 18.3565 24.8563 18.3789 24.7794 18.4172C24.7024 18.4555 24.634 18.5089 24.5781 18.5742C24.5222 18.6394 24.48 18.7153 24.454 18.7972C24.428 18.8792 24.4188 18.9655 24.4269 19.0511C24.435 19.1366 24.4602 19.2197 24.5011 19.2953C24.5419 19.3709 24.5976 19.4375 24.6647 19.4912C24.7318 19.5449 24.8091 19.5845 24.8918 19.6077C24.9746 19.6309 25.0612 19.6372 25.1464 19.6262C26.411 19.507 27.3681 19.6877 28.0357 19.9247C28.1957 19.9818 28.3719 19.973 28.5254 19.9002C28.679 19.8274 28.7973 19.6966 28.8544 19.5365C28.9115 19.3764 28.9026 19.2003 28.8298 19.0467C28.757 18.8932 28.6262 18.7761 28.4662 18.7191ZM20.2687 2.5625C19.2754 2.54992 18.2974 2.80802 17.4397 3.30912C16.5819 3.81023 15.8768 4.53541 15.4 5.40688C16.1943 5.2275 17.0015 5.125 17.8087 5.125H18.0009C20.32 5.125 22.2675 7.02125 22.2547 9.34031C22.2418 10.3909 21.8575 11.3391 21.2168 12.0694C21.1134 12.1828 21.0505 12.3273 21.0379 12.4802C21.0253 12.6332 21.0637 12.786 21.1471 12.9148C21.2306 13.0436 21.3543 13.1412 21.4991 13.1922C21.6438 13.2432 21.8014 13.2449 21.9472 13.1969C23.0282 12.8297 23.9668 12.1328 24.6311 11.2043C25.2953 10.2757 25.6517 9.16229 25.65 8.02063C25.6628 5.04813 23.2412 2.60094 20.2687 2.5625Z" fill="#212121"/>
</svg>
