<svg width="29" height="29" viewBox="0 0 29 29" fill="none" xmlns="http://www.w3.org/2000/svg">
<mask id="mask0_60_1933" style="mask-type:luminance" maskUnits="userSpaceOnUse" x="0" y="0" width="29" height="29">
<path d="M0 0H29V29H0V0Z" fill="white"/>
</mask>
<g mask="url(#mask0_60_1933)">
<path d="M20.6322 20.7401C20.6322 24.2127 17.8171 27.0278 14.3446 27.0278C10.872 27.0278 8.05688 24.2127 8.05688 20.7401C8.05688 17.2675 10.872 14.4524 14.3446 14.4524C17.8171 14.4524 20.6322 17.2675 20.6322 20.7401Z" fill="#B5BCC9"/>
<path d="M20.6322 20.7401C20.6322 24.2127 17.8171 27.0278 14.3446 27.0278C10.872 27.0278 8.05688 24.2127 8.05688 20.7401C8.05688 17.2675 10.872 14.4524 14.3446 14.4524C17.8171 14.4524 20.6322 17.2675 20.6322 20.7401Z" stroke="black" stroke-width="1.13281" stroke-miterlimit="10" stroke-linecap="round" stroke-linejoin="round"/>
<path d="M18.3547 20.7401C18.3547 22.9551 16.5591 24.7506 14.3442 24.7506C12.1293 24.7506 10.3337 22.9551 10.3337 20.7401C10.3337 18.5252 12.1293 16.7297 14.3442 16.7297C16.5591 16.7297 18.3547 18.5252 18.3547 20.7401Z" fill="#F6F6F6"/>
<path d="M18.3547 20.7401C18.3547 22.9551 16.5591 24.7506 14.3442 24.7506C12.1293 24.7506 10.3337 22.9551 10.3337 20.7401C10.3337 18.5252 12.1293 16.7297 14.3442 16.7297C16.5591 16.7297 18.3547 18.5252 18.3547 20.7401Z" stroke="black" stroke-width="1.13281" stroke-miterlimit="10" stroke-linecap="round" stroke-linejoin="round"/>
<path d="M9.91247 6.4263C11.53 6.4263 12.8413 6.86713 12.8413 7.41099C12.8413 7.95486 11.53 8.39569 9.91247 8.39569C8.29493 8.39569 6.98364 7.95486 6.98364 7.41099C6.98364 6.86713 8.29493 6.4263 9.91247 6.4263Z" fill="#F6F6F6"/>
<path d="M9.91247 6.4263C11.53 6.4263 12.8413 6.86713 12.8413 7.41099C12.8413 7.95486 11.53 8.39569 9.91247 8.39569C8.29493 8.39569 6.98364 7.95486 6.98364 7.41099C6.98364 6.86713 8.29493 6.4263 9.91247 6.4263Z" stroke="black" stroke-width="1.13281" stroke-miterlimit="10" stroke-linecap="round" stroke-linejoin="round"/>
<path d="M6.98364 9.62645V7.41101C6.98364 7.95487 8.29493 8.3957 9.91247 8.3957C11.53 8.3957 12.8413 7.95487 12.8413 7.41101V10.4753C12.8413 11.0191 11.53 11.46 9.91247 11.46C9.79596 11.46 9.6811 11.4576 9.56815 11.4532" fill="#BDD9FF"/>
<path d="M6.98364 9.62645V7.41101C6.98364 7.95487 8.29493 8.3957 9.91247 8.3957C11.53 8.3957 12.8413 7.95487 12.8413 7.41101V10.4753C12.8413 11.0191 11.53 11.46 9.91247 11.46C9.79596 11.46 9.6811 11.4576 9.56815 11.4532" stroke="black" stroke-width="1.13281" stroke-miterlimit="10" stroke-linecap="round" stroke-linejoin="round"/>
<path d="M19.2296 6.4263C20.8472 6.4263 22.1584 6.86713 22.1584 7.41099C22.1584 7.95486 20.8472 8.39569 19.2296 8.39569C17.6121 8.39569 16.3008 7.95486 16.3008 7.41099C16.3008 6.86713 17.6121 6.4263 19.2296 6.4263Z" fill="#F6F6F6"/>
<path d="M19.2296 6.4263C20.8472 6.4263 22.1584 6.86713 22.1584 7.41099C22.1584 7.95486 20.8472 8.39569 19.2296 8.39569C17.6121 8.39569 16.3008 7.95486 16.3008 7.41099C16.3008 6.86713 17.6121 6.4263 19.2296 6.4263Z" stroke="black" stroke-width="1.13281" stroke-miterlimit="10" stroke-linecap="round" stroke-linejoin="round"/>
<path d="M19.1968 11.46C19.1596 11.46 19.1554 11.4597 19.1186 11.4593C17.5525 11.4396 16.3008 11.0066 16.3008 10.4753V7.41101C16.3008 7.95487 17.6121 8.3957 19.2297 8.3957C20.8472 8.3957 22.1585 7.95487 22.1585 7.41101V9.5979" fill="#BDD9FF"/>
<path d="M19.1968 11.46C19.1596 11.46 19.1554 11.4597 19.1186 11.4593C17.5525 11.4396 16.3008 11.0066 16.3008 10.4753V7.41101C16.3008 7.95487 17.6121 8.3957 19.2297 8.3957C20.8472 8.3957 22.1585 7.95487 22.1585 7.41101V9.5979" stroke="black" stroke-width="1.13281" stroke-miterlimit="10" stroke-linecap="round" stroke-linejoin="round"/>
<path d="M6.62024 9.64599C5.00269 9.64599 3.69141 10.0868 3.69141 10.6307C3.69141 11.1746 5.00269 11.6154 6.62024 11.6154C8.23778 11.6154 9.54907 11.1746 9.54907 10.6307C9.54907 10.0868 8.23778 9.64599 6.62024 9.64599Z" fill="#F6F6F6"/>
<path d="M6.62024 9.64599C5.00269 9.64599 3.69141 10.0868 3.69141 10.6307C3.69141 11.1746 5.00269 11.6154 6.62024 11.6154C8.23778 11.6154 9.54907 11.1746 9.54907 10.6307C9.54907 10.0868 8.23778 9.64599 6.62024 9.64599Z" stroke="black" stroke-width="1.13281" stroke-miterlimit="10" stroke-linecap="round" stroke-linejoin="round"/>
<path d="M6.62024 11.6154C5.00269 11.6154 3.69141 11.1745 3.69141 10.6307V13.695C3.69141 14.2388 5.00269 14.6797 6.62024 14.6797C8.23778 14.6797 9.54907 14.2388 9.54907 13.695V10.6307C9.54907 11.1745 8.23778 11.6154 6.62024 11.6154Z" fill="#79B2FF"/>
<path d="M6.62024 11.6154C5.00269 11.6154 3.69141 11.1745 3.69141 10.6307V13.695C3.69141 14.2388 5.00269 14.6797 6.62024 14.6797C8.23778 14.6797 9.54907 14.2388 9.54907 13.695V10.6307C9.54907 11.1745 8.23778 11.6154 6.62024 11.6154Z" stroke="black" stroke-width="1.13281" stroke-miterlimit="10" stroke-linecap="round" stroke-linejoin="round"/>
<path d="M6.62012 14.6797C6.62012 15.7913 7.52127 16.6925 8.6329 16.6925H9.54895" stroke="black" stroke-width="1.13281" stroke-miterlimit="10" stroke-linecap="round" stroke-linejoin="round"/>
<path d="M22.1256 9.64599C23.7432 9.64599 25.0544 10.0868 25.0544 10.6307C25.0544 11.1746 23.7432 11.6154 22.1256 11.6154C20.5081 11.6154 19.1968 11.1746 19.1968 10.6307C19.1968 10.0868 20.5081 9.64599 22.1256 9.64599Z" fill="#F6F6F6"/>
<path d="M22.1256 9.64599C23.7432 9.64599 25.0544 10.0868 25.0544 10.6307C25.0544 11.1746 23.7432 11.6154 22.1256 11.6154C20.5081 11.6154 19.1968 11.1746 19.1968 10.6307C19.1968 10.0868 20.5081 9.64599 22.1256 9.64599Z" stroke="black" stroke-width="1.13281" stroke-miterlimit="10" stroke-linecap="round" stroke-linejoin="round"/>
<path d="M22.1256 11.6154C23.7432 11.6154 25.0544 11.1745 25.0544 10.6307V13.695C25.0544 14.2388 23.7432 14.6797 22.1256 14.6797C20.5081 14.6797 19.1968 14.2388 19.1968 13.695V10.6307C19.1968 11.1745 20.5081 11.6154 22.1256 11.6154Z" fill="#79B2FF"/>
<path d="M22.1256 11.6154C23.7432 11.6154 25.0544 11.1745 25.0544 10.6307V13.695C25.0544 14.2388 23.7432 14.6797 22.1256 14.6797C20.5081 14.6797 19.1968 14.2388 19.1968 13.695V10.6307C19.1968 11.1745 20.5081 11.6154 22.1256 11.6154Z" stroke="black" stroke-width="1.13281" stroke-miterlimit="10" stroke-linecap="round" stroke-linejoin="round"/>
<path d="M22.1256 14.6797C22.1256 15.7913 21.2245 16.6925 20.1128 16.6925H19.1968" stroke="black" stroke-width="1.13281" stroke-miterlimit="10" stroke-linecap="round" stroke-linejoin="round"/>
<path d="M17.7066 11.3891C16.9159 12.2763 16.479 13.4232 16.479 14.6116V14.6797" stroke="black" stroke-width="1.13281" stroke-miterlimit="10" stroke-linecap="round" stroke-linejoin="round"/>
<path d="M11.2688 11.3891C12.0594 12.2763 12.4964 13.4232 12.4964 14.6116V14.6797" stroke="black" stroke-width="1.13281" stroke-miterlimit="10" stroke-linecap="round" stroke-linejoin="round"/>
<path d="M8.56584 2.84146C8.8223 3.38985 7.26978 4.65775 5.09818 5.67343C2.92658 6.68911 0.958263 7.06792 0.701794 6.51953C0.445268 5.97113 1.99779 4.70323 4.16939 3.68755C6.34099 2.67188 8.30937 2.29306 8.56584 2.84146Z" fill="#FFCB7C"/>
<path d="M8.56584 2.84146C8.8223 3.38985 7.26978 4.65775 5.09818 5.67343C2.92658 6.68911 0.958263 7.06792 0.701794 6.51953C0.445268 5.97113 1.99779 4.70323 4.16939 3.68755C6.34099 2.67188 8.30937 2.29306 8.56584 2.84146Z" stroke="black" stroke-width="1.13281" stroke-miterlimit="10" stroke-linecap="round" stroke-linejoin="round"/>
<path d="M4.63403 5.98362V9.90723V5.98362Z" fill="#FFCB7C"/>
<path d="M4.63403 5.98362V9.90723" stroke="black" stroke-width="1.13281" stroke-miterlimit="10" stroke-linecap="round" stroke-linejoin="round"/>
<path d="M4.63403 1.96845V3.46246V1.96845Z" fill="#FFCB7C"/>
<path d="M4.63403 1.96845V3.46246" stroke="black" stroke-width="1.13281" stroke-miterlimit="10" stroke-linecap="round" stroke-linejoin="round"/>
<path d="M4.63403 14.4508V26.0804V14.4508Z" fill="#FFCB7C"/>
<path d="M4.63403 14.4508V26.0804" stroke="black" stroke-width="1.13281" stroke-miterlimit="10" stroke-linecap="round" stroke-linejoin="round"/>
<path d="M4.59299 23.5714L1.79517 27.0901L4.59299 23.5714Z" fill="#FFCB7C"/>
<path d="M4.59299 23.5714L1.79517 27.0901" stroke="black" stroke-width="1.13281" stroke-miterlimit="10" stroke-linecap="round" stroke-linejoin="round"/>
<path d="M4.62109 23.5091L7.41891 27.0278L4.62109 23.5091Z" fill="#FFCB7C"/>
<path d="M4.62109 23.5091L7.41891 27.0278" stroke="black" stroke-width="1.13281" stroke-miterlimit="10" stroke-linecap="round" stroke-linejoin="round"/>
<path d="M20.4337 2.84146C20.1772 3.38985 21.7298 4.65775 23.9014 5.67343C26.073 6.68911 28.0413 7.06792 28.2978 6.51953C28.5543 5.97113 27.0018 4.70323 24.8302 3.68755C22.6586 2.67188 20.6902 2.29306 20.4337 2.84146Z" fill="#FFCB7C"/>
<path d="M20.4337 2.84146C20.1772 3.38985 21.7298 4.65775 23.9014 5.67343C26.073 6.68911 28.0413 7.06792 28.2978 6.51953C28.5543 5.97113 27.0018 4.70323 24.8302 3.68755C22.6586 2.67188 20.6902 2.29306 20.4337 2.84146Z" stroke="black" stroke-width="1.13281" stroke-miterlimit="10" stroke-linecap="round" stroke-linejoin="round"/>
<path d="M24.366 5.98362V9.90723" stroke="black" stroke-width="1.13281" stroke-miterlimit="10" stroke-linecap="round" stroke-linejoin="round"/>
<path d="M24.366 1.96845V3.46246" stroke="black" stroke-width="1.13281" stroke-miterlimit="10" stroke-linecap="round" stroke-linejoin="round"/>
<path d="M24.366 21.2969V26.0804" stroke="black" stroke-width="1.13281" stroke-miterlimit="10" stroke-linecap="round" stroke-linejoin="round"/>
<path d="M24.366 14.3885V16.7863" stroke="black" stroke-width="1.13281" stroke-miterlimit="10" stroke-linecap="round" stroke-linejoin="round"/>
<path d="M24.4072 23.5714L27.205 27.0901" stroke="black" stroke-width="1.13281" stroke-miterlimit="10" stroke-linecap="round" stroke-linejoin="round"/>
<path d="M24.3786 23.5091L21.5808 27.0278" stroke="black" stroke-width="1.13281" stroke-miterlimit="10" stroke-linecap="round" stroke-linejoin="round"/>
<path d="M9.91224 25.2684L9.11938 27.0901" stroke="black" stroke-width="1.13281" stroke-miterlimit="10" stroke-linecap="round" stroke-linejoin="round"/>
<path d="M18.7437 25.2684L19.5365 27.0901" stroke="black" stroke-width="1.13281" stroke-miterlimit="10" stroke-linecap="round" stroke-linejoin="round"/>
<path d="M17.8315 22.2775C17.8315 23.0245 17.2259 23.63 16.4789 23.63C15.732 23.63 15.1265 23.0245 15.1265 22.2775C15.1265 21.5305 15.732 20.925 16.4789 20.925C17.2259 20.925 17.8315 21.5305 17.8315 22.2775Z" fill="#79B2FF"/>
<path d="M17.8315 22.2775C17.8315 23.0245 17.2259 23.63 16.4789 23.63C15.732 23.63 15.1265 23.0245 15.1265 22.2775C15.1265 21.5305 15.732 20.925 16.4789 20.925C17.2259 20.925 17.8315 21.5305 17.8315 22.2775Z" stroke="black" stroke-width="1.13281" stroke-miterlimit="10" stroke-linecap="round" stroke-linejoin="round"/>
</g>
</svg>
