<svg width="35" height="35" viewBox="0 0 35 35" fill="none" xmlns="http://www.w3.org/2000/svg">
<path d="M31.5435 19.0531L34.5021 18.6758L32.6674 20.9727L31.5435 19.0531ZM7.51113 12.4441C7.29238 12.4441 7.0791 12.3402 6.94511 12.1461C4.27363 8.22227 1.49551 9.45273 1.46816 9.46641C1.12637 9.625 0.718943 9.47734 0.56035 9.13555C0.483942 8.97127 0.475871 8.78339 0.537909 8.61317C0.599947 8.44295 0.727019 8.30432 0.891209 8.22773C0.92949 8.21133 4.75761 6.50508 8.07441 11.3777C8.14435 11.4802 8.18502 11.5998 8.19202 11.7237C8.19903 11.8476 8.17211 11.971 8.11416 12.0807C8.05621 12.1904 7.96944 12.2822 7.86318 12.3463C7.75692 12.4103 7.6352 12.4441 7.51113 12.4441ZM11.7768 10.8582C11.4377 10.8582 11.1424 10.6066 11.0986 10.2594C10.5107 5.62734 7.63144 5.53984 7.5084 5.53711C7.13379 5.53164 6.82754 5.22539 6.83027 4.85078C6.83027 4.47617 7.13105 4.17266 7.50566 4.16992C7.57402 4.16992 11.7084 4.22734 12.4549 10.0844C12.5014 10.459 12.2389 10.8008 11.8615 10.85C11.8342 10.8582 11.8068 10.8582 11.7768 10.8582Z" fill="#424242"/>
<path d="M16.5837 4.34765C17.5681 3.46445 18.9325 3.19374 20.2341 3.62851C20.7919 3.81171 21.2813 4.08515 21.6942 4.44335C25.1505 7.44843 23.2856 13.043 21.6013 17.5355C21.5903 17.5629 20.8329 19.8516 20.0181 20.0293C19.3536 20.1742 18.5825 19.1844 18.5825 19.1844C18.547 19.1516 17.7267 18.0961 17.6364 17.9539C16.1735 15.8156 15.1974 13.4394 14.727 10.8883C14.6231 10.3223 14.5739 9.69609 14.5985 9.04257C14.6067 8.79101 14.6259 8.53671 14.6614 8.28242C14.6915 8.04453 14.7325 7.80664 14.7845 7.57148C15.0415 6.43671 15.5665 5.32382 16.477 4.44609L16.5837 4.34765Z" fill="#BDBDBD"/>
<path d="M27.0728 4.95742C28.5385 4.78516 29.9549 5.4168 30.8627 6.65C31.2537 7.175 31.5217 7.74102 31.6693 8.33164C32.8889 13.2891 27.5924 17.191 23.1682 20.2016C23.1408 20.2207 20.9807 21.8203 20.1221 21.4566C19.4248 21.1613 19.3564 19.7613 19.3564 19.7613C19.3455 19.7094 19.2771 18.2191 19.2853 18.0332C19.3264 15.1457 19.9635 12.3512 21.1748 9.72617C21.4428 9.14375 21.801 8.53946 22.2439 7.9625C22.4135 7.73828 22.5939 7.51953 22.7908 7.30899C22.9713 7.11211 23.16 6.92071 23.3596 6.74024C24.3221 5.87071 25.517 5.19532 26.9115 4.9793L27.0728 4.95742Z" fill="#ECEFF1"/>
<path d="M28.8867 27.4296C32.0879 25.9258 33.7053 22.6258 32.4995 20.0589C31.2936 17.4919 27.721 16.6301 24.5198 18.1339C21.3187 19.6378 19.7012 22.9378 20.9071 25.5047C22.113 28.0716 25.6856 28.9334 28.8867 27.4296Z" fill="#FCC21B"/>
<mask id="mask0_65_1317" style="mask-type:luminance" maskUnits="userSpaceOnUse" x="20" y="17" width="13" height="12">
<path d="M28.8867 27.4296C32.0879 25.9258 33.7053 22.6258 32.4995 20.0589C31.2936 17.4919 27.721 16.6301 24.5198 18.1339C21.3187 19.6378 19.7012 22.9378 20.9071 25.5047C22.113 28.0716 25.6856 28.9334 28.8867 27.4296Z" fill="white"/>
</mask>
<g mask="url(#mask0_65_1317)">
<path d="M29.2353 28.6053C31.8022 27.3994 32.664 23.8268 31.1602 20.6257C29.6564 17.4245 26.3564 15.8071 23.7894 17.0129C21.2225 18.2188 20.3607 21.7914 21.8645 24.9926C23.3683 28.1937 26.6683 29.8112 29.2353 28.6053Z" fill="#424242"/>
</g>
<mask id="mask1_65_1317" style="mask-type:luminance" maskUnits="userSpaceOnUse" x="20" y="17" width="13" height="12">
<path d="M28.8867 27.4296C32.0879 25.9258 33.7053 22.6258 32.4995 20.0589C31.2936 17.4919 27.721 16.6301 24.5198 18.1339C21.3187 19.6378 19.7012 22.9378 20.9071 25.5047C22.113 28.0716 25.6856 28.9334 28.8867 27.4296Z" fill="white"/>
</mask>
<g mask="url(#mask1_65_1317)">
<path d="M26.9003 29.4948C29.4672 28.2889 30.329 24.7163 28.8252 21.5151C27.3214 18.314 24.0214 16.6965 21.4545 17.9024C18.8875 19.1083 18.0257 22.6809 19.5295 25.882C21.0334 29.0832 24.3334 30.7007 26.9003 29.4948Z" fill="#FCC21B"/>
</g>
<mask id="mask2_65_1317" style="mask-type:luminance" maskUnits="userSpaceOnUse" x="20" y="17" width="13" height="12">
<path d="M28.8867 27.4296C32.0879 25.9258 33.7053 22.6258 32.4995 20.0589C31.2936 17.4919 27.721 16.6301 24.5198 18.1339C21.3187 19.6378 19.7012 22.9378 20.9071 25.5047C22.113 28.0716 25.6856 28.9334 28.8867 27.4296Z" fill="white"/>
</mask>
<g mask="url(#mask2_65_1317)">
<path d="M24.1767 30.9078C26.7436 29.7019 27.6054 26.1293 26.1016 22.9281C24.5978 19.727 21.2978 18.1095 18.7308 19.3154C16.1639 20.5213 15.3021 24.0939 16.8059 27.295C18.3097 30.4962 21.6097 32.1137 24.1767 30.9078Z" fill="#424242"/>
</g>
<mask id="mask3_65_1317" style="mask-type:luminance" maskUnits="userSpaceOnUse" x="20" y="17" width="13" height="12">
<path d="M28.8867 27.4296C32.0879 25.9258 33.7053 22.6258 32.4995 20.0589C31.2936 17.4919 27.721 16.6301 24.5198 18.1339C21.3187 19.6378 19.7012 22.9378 20.9071 25.5047C22.113 28.0716 25.6856 28.9334 28.8867 27.4296Z" fill="white"/>
</mask>
<g mask="url(#mask3_65_1317)">
<path d="M21.5214 31.9798C24.0883 30.7739 24.9501 27.2013 23.4463 24.0001C21.9425 20.799 18.6425 19.1815 16.0756 20.3874C13.5086 21.5933 12.6468 25.1659 14.1506 28.367C15.6545 31.5682 18.9545 33.1856 21.5214 31.9798Z" fill="#FCC21B"/>
</g>
<path d="M11.5937 26.7859C10.921 26.7859 10.4999 26.7066 10.4534 26.6984C10.2754 26.6632 10.1187 26.5587 10.0177 26.4079C9.91674 26.2572 9.8797 26.0726 9.91476 25.8945C9.95026 25.7172 10.0544 25.5611 10.2044 25.4602C10.3545 25.3593 10.5383 25.3218 10.7159 25.3559C10.7597 25.3641 13.423 25.8316 16.1573 23.9914C16.4691 23.7809 16.8956 23.8629 17.1062 24.1773C17.3167 24.4918 17.2347 24.9156 16.9202 25.1262C14.8366 26.5289 12.8105 26.7859 11.5937 26.7859Z" fill="#424242"/>
<path d="M12.7262 29.6023C12.4008 29.6023 12.1137 29.3699 12.0536 29.0391C11.9879 28.6672 12.234 28.3145 12.6032 28.2461C12.6469 28.2379 15.2965 27.7047 17.175 25.0004C17.2261 24.9264 17.2912 24.8633 17.3667 24.8146C17.4422 24.7659 17.5266 24.7325 17.615 24.7165C17.7035 24.7005 17.7942 24.7022 17.882 24.7213C17.9697 24.7404 18.0529 24.7768 18.1266 24.8281C18.4356 25.0441 18.5149 25.468 18.2989 25.7797C16.0786 28.9789 12.9778 29.5695 12.8465 29.5914C12.8082 29.5996 12.7672 29.6023 12.7262 29.6023Z" fill="#424242"/>
<path d="M18.8535 31.5738C18.7499 31.5741 18.6476 31.5507 18.5544 31.5056C18.4612 31.4604 18.3795 31.3946 18.3154 31.3132C18.2514 31.2318 18.2067 31.1369 18.1848 31.0356C18.1629 30.9344 18.1644 30.8295 18.189 30.7289C18.1972 30.6906 18.8043 28.1012 18.0742 24.9156C18.0539 24.828 18.0512 24.7373 18.0661 24.6486C18.081 24.5599 18.1132 24.475 18.161 24.3988C18.2087 24.3226 18.2711 24.2566 18.3444 24.2045C18.4177 24.1524 18.5006 24.1153 18.5882 24.0953C18.6759 24.0751 18.7666 24.0723 18.8553 24.0872C18.944 24.1021 19.0289 24.1344 19.1051 24.1821C19.1813 24.2299 19.2473 24.2922 19.2994 24.3655C19.3515 24.4388 19.3886 24.5217 19.4086 24.6094C20.2179 28.134 19.548 30.9367 19.5207 31.0543C19.4827 31.2026 19.3966 31.3341 19.2759 31.4281C19.1551 31.5221 19.0065 31.5734 18.8535 31.5738ZM21.3937 31.5547C21.3609 31.5547 21.3281 31.552 21.2953 31.5465C21.1159 31.5206 20.9541 31.4245 20.8454 31.2794C20.7367 31.1344 20.69 30.9521 20.7156 30.7727C20.7211 30.7398 21.071 28.1012 20.0293 24.9977C19.9089 24.6395 20.1031 24.2512 20.4613 24.1309C20.8222 24.0105 21.2078 24.2047 21.3281 24.5629C22.4793 27.9918 22.0882 30.8465 22.0718 30.9641C22.0483 31.1274 21.9668 31.2769 21.8424 31.3852C21.7179 31.4936 21.5587 31.5538 21.3937 31.5547Z" fill="#424242"/>
<path d="M22.9277 20.0457C22.7773 19.8406 23.0999 19.209 22.9195 19.0422C22.7335 18.8726 22.1347 19.2582 21.9214 19.1324C21.7054 19.0039 21.7628 18.2957 21.5277 18.2109C21.2925 18.1262 20.8824 18.7059 20.6335 18.6648C20.3874 18.6238 20.1906 17.9402 19.939 17.9402C19.6902 17.9402 19.4988 18.6266 19.2499 18.6703C19.0066 18.7113 18.5992 18.1289 18.3585 18.2109C18.1261 18.2902 18.1589 19.0012 17.932 19.1215C17.7132 19.2363 17.1472 18.8043 16.9421 18.9547C16.737 19.1051 16.9804 19.775 16.8081 19.95C16.6277 20.1305 15.9577 19.8871 15.8128 20.0867C15.6624 20.2918 16.0999 20.8551 15.9878 21.0738C15.873 21.3008 15.162 21.2789 15.0855 21.5168C15.0089 21.7574 15.605 22.1484 15.5722 22.3945C15.5394 22.6434 14.8613 22.8648 14.8722 23.1137C14.8831 23.3652 15.5777 23.5184 15.6351 23.7617C15.6925 24.0051 15.1484 24.459 15.255 24.6887C15.3589 24.9129 16.0589 24.7898 16.2093 24.9949C16.3597 25.2 16.037 25.8316 16.2175 25.9984C16.4035 26.168 17.0023 25.7824 17.2156 25.9082C17.4316 26.0367 17.3742 26.7449 17.6093 26.8297C17.8445 26.9144 18.2546 26.3348 18.5035 26.3758C18.7495 26.4168 18.9464 27.1004 19.198 27.1004C19.4468 27.1004 19.6382 26.4141 19.887 26.3703C20.1304 26.3293 20.5378 26.9117 20.7785 26.8297C21.0109 26.7504 20.9781 26.0394 21.205 25.9191C21.4238 25.8043 21.9898 26.2363 22.1949 26.0859C22.3999 25.9355 22.1566 25.2656 22.3288 25.0906C22.5093 24.9101 23.1792 25.1535 23.3242 24.9539C23.4745 24.7488 23.037 24.1855 23.1492 23.9668C23.264 23.7398 23.9749 23.7617 24.0515 23.5238C24.1281 23.2832 23.532 22.8922 23.5648 22.6461C23.5976 22.3973 24.2757 22.1758 24.2648 21.9269C24.2538 21.6754 23.5593 21.5223 23.5019 21.2789C23.4445 21.0355 23.9886 20.5816 23.882 20.3519C23.7781 20.125 23.0781 20.2508 22.9277 20.0457Z" fill="#FFB300"/>
<path d="M13.7052 24.4564C18.1131 23.2859 20.8239 19.0891 19.7599 15.0825C18.696 11.076 14.2602 8.77704 9.85228 9.94758C5.44439 11.1181 2.7336 15.3149 3.79755 19.3215C4.8615 23.328 9.29731 25.627 13.7052 24.4564Z" fill="#FCC21B"/>
<path d="M10.2266 21.3294C10.2266 21.3294 12.6082 22.4395 13.5242 20.077" stroke="#424242" stroke-width="1.36719" stroke-miterlimit="10" stroke-linecap="round"/>
<path d="M13.7637 15.3794C13.9551 15.3055 14.152 15.2973 14.3461 15.3329C14.6414 15.3876 14.9258 15.5544 15.15 15.8114C15.2867 15.9727 15.4043 16.1641 15.4863 16.3829C15.5492 16.5634 15.5793 16.7438 15.5875 16.9216C15.6039 17.2688 15.5164 17.5942 15.3441 17.8512C15.2129 18.0508 15.0324 18.2122 14.8055 18.2997C14.1465 18.5458 13.3781 18.1001 13.0883 17.2934C12.8012 16.4923 13.1074 15.6282 13.7637 15.3794ZM8.11993 20.2384C7.42266 20.3395 6.7336 19.7434 6.58868 18.8958C6.44649 18.0563 6.89766 17.2825 7.60039 17.1813C8.29766 17.0747 8.98672 17.6762 9.12618 18.5212C9.2711 19.3634 8.81719 20.129 8.11993 20.2384Z" fill="#424242"/>
</svg>
