<svg width="35" height="35" viewBox="0 0 35 35" fill="none" xmlns="http://www.w3.org/2000/svg">
<path d="M28.8149 6.48157C28.2133 6.24094 27.7299 5.77063 27.4608 5.16907C26.7302 3.46172 25.0764 2.24657 23.1427 2.18094C22.1396 2.14957 21.1518 2.43256 20.3175 2.99032C19.8341 3.31844 19.1997 3.31844 18.7163 2.99032C17.886 2.43274 16.9017 2.14966 15.9021 2.18094C14.6298 2.22558 13.426 2.76799 12.5497 3.69141C12.1527 4.10704 11.6266 4.38047 11.0677 4.51172C9.92762 4.75775 8.88976 5.34575 8.09268 6.19719L8.08175 6.20813C6.38315 8.00297 5.46987 10.3556 5.48081 12.8406V12.8625C5.49175 12.95 5.48081 19.6798 5.48081 19.6798H6.568L28.4364 19.7017L29.5302 19.6842C29.5302 19.6842 29.5783 17.617 29.6089 16.9881C29.6341 16.4456 29.6516 15.5991 29.6516 15.5991C29.6735 14.8652 29.9732 14.1652 30.4566 13.6183C31.1622 12.8229 31.5623 11.8026 31.5853 10.7395C31.6111 9.83233 31.3595 8.93885 30.8643 8.17827C30.3691 7.4177 29.6538 6.8262 28.8138 6.48266" fill="#212121"/>
<path d="M28.5709 15.8802L28.4374 19.7006C29.028 19.7006 29.5093 19.1909 29.5312 18.5894L29.6099 16.987C29.6209 16.7409 29.6318 16.4325 29.6384 16.1689C30.4552 16.534 31.1043 17.1938 31.4561 18.0165C31.8079 18.8392 31.8366 19.7643 31.5363 20.6072C31.236 21.45 30.6288 22.1486 29.8361 22.5635C29.0434 22.9784 28.1233 23.0791 27.2596 22.8455C26.3959 22.6119 25.652 22.0611 25.1765 21.3032C24.701 20.5452 24.5289 19.6358 24.6944 18.7565C24.86 17.8772 25.351 17.0926 26.0696 16.5595C26.7881 16.0263 27.6813 15.7837 28.5709 15.8802ZM5.48508 16.1252C5.48398 17.4103 5.4807 18.5861 5.4807 18.5861C5.50258 19.1877 5.97836 19.6798 6.56898 19.6798V15.8692C6.65648 15.8627 6.74544 15.8594 6.83586 15.8594C7.71875 15.8599 8.56985 16.189 9.22346 16.7825C9.87707 17.3761 10.2864 18.1916 10.3718 19.0704C10.4571 19.9491 10.2124 20.8282 9.68529 21.5364C9.15814 22.2447 8.38629 22.7314 7.52001 22.9019C6.65373 23.0723 5.75501 22.9143 4.99884 22.4586C4.24266 22.0028 3.68315 21.282 3.42924 20.4364C3.17532 19.5908 3.24517 18.681 3.62519 17.884C4.00521 17.0871 4.6682 16.4601 5.48508 16.1252Z" fill="#F4C6AD"/>
<path d="M28.4881 18.2481L28.4378 19.7006H28.4597L28.4094 22.1112C28.1479 28.5119 23.3453 32.8125 17.5058 32.8125C11.6662 32.8125 6.86357 28.513 6.60107 22.1112L6.51904 19.6776L6.56936 19.6787V15.3037C6.53654 14.3631 6.9642 13.638 7.60842 12.9708C8.31535 12.2325 8.7834 11.2983 8.95154 10.29C8.95717 10.2506 8.97461 10.2138 9.00155 10.1845C9.0285 10.1552 9.06369 10.1348 9.10248 10.1259C9.20967 10.0931 9.30592 10.1587 9.33873 10.2462C10.0048 11.9306 11.6159 13.1348 13.5059 13.1348C13.9894 13.1348 14.3875 12.7301 14.3875 12.238V10.3447C14.3875 10.2244 14.4629 10.1369 14.5592 10.115H14.6992C14.7475 10.1297 14.7892 10.1606 14.8173 10.2025C15.4905 11.1103 16.3664 11.8482 17.3754 12.3573C18.3843 12.8664 19.4983 13.1327 20.6284 13.1348H26.1825C27.5365 13.1348 28.6215 14.2723 28.5778 15.6625L28.5428 16.6742L28.5012 17.593L28.4881 18.2481Z" fill="#FFD7C2"/>
<path d="M17.5024 25.3466C16.3542 25.3496 15.2224 25.0746 14.2037 24.5449C14.133 24.5061 14.0514 24.4923 13.972 24.5056C13.8925 24.5188 13.8198 24.5585 13.7656 24.6181C13.7114 24.6777 13.6789 24.7538 13.6732 24.8342C13.6676 24.9146 13.6892 24.9945 13.7345 25.0611C14.1396 25.693 14.6969 26.2131 15.3552 26.5737C16.0135 26.9343 16.7518 27.1238 17.5024 27.125C18.253 27.1238 18.9913 26.9343 19.6496 26.5737C20.308 26.2131 20.8652 25.693 21.2704 25.0611C21.4673 24.7538 21.1282 24.3808 20.8001 24.5449C19.7841 25.0807 18.651 25.3561 17.5024 25.3466Z" fill="#990838"/>
<path d="M17.4922 24.0625C18.236 24.0625 18.8813 23.6852 19.2751 23.1077C19.6251 22.5859 19.2532 21.875 18.6297 21.875H16.3657C15.7422 21.875 15.3704 22.5859 15.7204 23.1077C16.1032 23.6852 16.7594 24.0625 17.4922 24.0625Z" fill="#E5AF93"/>
<path d="M8.95772 19.5453C9.14464 18.8138 9.5696 18.1653 10.1656 17.702C10.7617 17.2386 11.4949 16.9867 12.2499 16.9859C13.9015 16.9859 15.2687 18.1562 15.5749 19.7094C15.6405 20.0484 15.3671 20.3656 15.0171 20.3656H9.61397C9.17647 20.3656 8.84835 19.9609 8.95772 19.5453ZM26.064 19.5453C25.8771 18.8138 25.4521 18.1653 24.8561 17.702C24.26 17.2386 23.5268 16.9867 22.7718 16.9859C21.1202 16.9859 19.753 18.1562 19.4468 19.7094C19.3812 20.0484 19.6546 20.3656 20.0046 20.3656H25.4077C25.8452 20.3656 26.1733 19.9609 26.064 19.5453Z" fill="white"/>
<path d="M10.5876 19.7969C10.5876 18.6047 11.5611 17.6313 12.7533 17.6313C13.087 17.632 13.416 17.7096 13.7148 17.8582C14.0137 18.0067 14.2742 18.2221 14.4763 18.4876C14.6784 18.7532 14.8165 19.0618 14.88 19.3894C14.9435 19.717 14.9306 20.0548 14.8423 20.3766H10.6642C10.6205 20.1907 10.5876 19.9938 10.5876 19.7969ZM24.4345 19.7969C24.4345 18.6047 23.4611 17.6313 22.2689 17.6313C21.9352 17.632 21.6062 17.7096 21.3073 17.8582C21.0085 18.0067 20.7479 18.2221 20.5459 18.4876C20.3438 18.7532 20.2056 19.0618 20.1422 19.3894C20.0787 19.717 20.0916 20.0548 20.1798 20.3766H24.358C24.4017 20.1907 24.4345 19.9938 24.4345 19.7969Z" fill="#7D4533"/>
<path d="M12.7533 18.5609C12.9667 18.5606 13.1766 18.6155 13.3625 18.7203C13.5484 18.8251 13.704 18.9763 13.8141 19.1591C13.9243 19.3419 13.9852 19.5502 13.9909 19.7635C13.9967 19.9769 13.9471 20.1881 13.847 20.3766H11.6595C11.5594 20.1881 11.5098 19.9769 11.5156 19.7635C11.5213 19.5502 11.5823 19.3419 11.6924 19.1591C11.8025 18.9763 11.9581 18.8251 12.144 18.7203C12.3299 18.6155 12.5398 18.5606 12.7533 18.5609ZM22.2689 18.5609C22.0555 18.5606 21.8456 18.6155 21.6597 18.7203C21.4737 18.8251 21.3182 18.9763 21.208 19.1591C21.0979 19.3419 21.037 19.5502 21.0312 19.7635C21.0255 19.9769 21.075 20.1881 21.1751 20.3766H23.3626C23.4627 20.1881 23.5123 19.9769 23.5066 19.7635C23.5008 19.5502 23.4399 19.3419 23.3298 19.1591C23.2196 18.9763 23.064 18.8251 22.8781 18.7203C22.6922 18.6155 22.4823 18.5606 22.2689 18.5609Z" fill="black"/>
<path d="M12.3923 18.9438C12.3923 19.0453 12.352 19.1427 12.2802 19.2144C12.2084 19.2862 12.111 19.3266 12.0095 19.3266C11.908 19.3266 11.8106 19.2862 11.7388 19.2144C11.667 19.1427 11.6267 19.0453 11.6267 18.9438C11.6267 18.8422 11.667 18.7449 11.7388 18.6731C11.8106 18.6013 11.908 18.5609 12.0095 18.5609C12.111 18.5609 12.2084 18.6013 12.2802 18.6731C12.352 18.7449 12.3923 18.8422 12.3923 18.9438ZM21.9845 18.9438C21.9845 18.994 21.9746 19.0438 21.9554 19.0903C21.9361 19.1367 21.9079 19.1789 21.8724 19.2144C21.8369 19.25 21.7947 19.2782 21.7482 19.2974C21.7018 19.3167 21.652 19.3266 21.6017 19.3266C21.5514 19.3266 21.5017 19.3167 21.4552 19.2974C21.4088 19.2782 21.3666 19.25 21.331 19.2144C21.2955 19.1789 21.2673 19.1367 21.248 19.0903C21.2288 19.0438 21.2189 18.994 21.2189 18.9438C21.2189 18.8422 21.2592 18.7449 21.331 18.6731C21.4028 18.6013 21.5002 18.5609 21.6017 18.5609C21.7032 18.5609 21.8006 18.6013 21.8724 18.6731C21.9442 18.7449 21.9845 18.8422 21.9845 18.9438Z" fill="white"/>
<path d="M10.5085 15.9283C11.0784 15.726 11.8954 15.5717 12.9749 15.6735C13.0465 15.6802 13.1186 15.6728 13.1873 15.6517C13.256 15.6305 13.3198 15.5961 13.3751 15.5503C13.4305 15.5045 13.4763 15.4482 13.5099 15.3847C13.5435 15.3212 13.5643 15.2517 13.571 15.1802C13.5778 15.1086 13.5704 15.0365 13.5492 14.9678C13.5281 14.8991 13.4936 14.8353 13.4478 14.78C13.402 14.7246 13.3458 14.6788 13.2823 14.6452C13.2188 14.6116 13.1493 14.5908 13.0777 14.5841C11.8385 14.4681 10.8618 14.642 10.141 14.898C10.0734 14.9221 10.0111 14.9593 9.95787 15.0075C9.90461 15.0557 9.86135 15.1139 9.83058 15.1788C9.76843 15.3099 9.76089 15.4603 9.80962 15.5969C9.85836 15.7335 9.95937 15.8452 10.0904 15.9073C10.2215 15.9695 10.3719 15.977 10.5085 15.9283ZM24.257 14.898C23.5351 14.642 22.5595 14.4681 21.3202 14.5841C21.2487 14.5908 21.1792 14.6116 21.1157 14.6452C21.0522 14.6788 20.996 14.7246 20.9502 14.78C20.9043 14.8353 20.8699 14.8991 20.8488 14.9678C20.8276 15.0365 20.8202 15.1086 20.827 15.1802C20.8337 15.2517 20.8545 15.3212 20.8881 15.3847C20.9217 15.4482 20.9675 15.5045 21.0229 15.5503C21.0782 15.5961 21.142 15.6305 21.2107 15.6517C21.2794 15.6728 21.3515 15.6802 21.4231 15.6735C22.5026 15.5717 23.3196 15.726 23.8895 15.9283C24.0261 15.977 24.1765 15.9695 24.3076 15.9073C24.4386 15.8452 24.5396 15.7335 24.5884 15.5969C24.6371 15.4603 24.6296 15.3099 24.5674 15.1788C24.5053 15.0477 24.3936 14.9467 24.257 14.898Z" fill="#212121"/>
</svg>
