<svg width="37" height="36" viewBox="0 0 37 36" fill="none" xmlns="http://www.w3.org/2000/svg">
<path d="M33.2464 13.999C33.2464 13.999 36.7871 5.18701 34.9433 2.00101C34.3225 0.928008 26.721 3.99901 23.9224 7.44301C23.9224 7.44301 21.2646 6.58301 18.4999 6.58301C15.7351 6.58301 13.0773 7.44301 13.0773 7.44301C10.2787 3.99901 2.67721 0.928008 2.05644 2.00101C0.212603 5.18701 3.7533 13.999 3.7533 13.999C2.83138 15.721 2.48605 18.344 2.1551 21.159C1.79127 24.245 2.51482 26.705 2.83138 27.248C3.1911 27.865 5.01335 29.853 7.43994 31.554C11.1266 34.137 16.656 34.999 18.4999 34.999C20.3437 34.999 25.8731 34.138 29.5598 31.554C31.9864 29.853 33.8086 27.865 34.1683 27.248C34.4849 26.705 35.2084 24.245 34.8456 21.159C34.5126 18.345 34.1683 15.721 33.2464 13.999Z" fill="#FFCC4D"/>
<path d="M2.42468 2.97097C2.63023 2.37197 7.92123 5.14397 9.12373 8.37497C9.12373 8.37497 5.20995 10.999 4.46995 12.999C4.46995 12.999 1.3969 5.97097 2.42468 2.97097Z" fill="#F18F26"/>
<path d="M6.14648 7.26101C6.14648 5.84701 11.7551 9.99401 10.7273 10.994C9.69951 11.994 9.43743 11.714 8.40965 12.714C7.38187 13.714 6.14648 8.26101 6.14648 7.26101Z" fill="#FFCC4D"/>
<path d="M34.5755 2.97097C34.37 2.37197 29.079 5.14397 27.8765 8.37497C27.8765 8.37497 31.7902 10.999 32.5302 12.999C32.5302 12.999 35.6033 5.97097 34.5755 2.97097Z" fill="#F18F26"/>
<path d="M30.8536 7.26101C30.8536 5.84701 25.245 9.99401 26.2728 10.994C27.3005 11.994 27.5626 11.714 28.5904 12.714C29.6182 13.714 30.8536 8.26101 30.8536 7.26101Z" fill="#FFCC4D"/>
<path d="M14.3899 20.001C14.3986 20.2688 14.3519 20.5356 14.2525 20.7856C14.1532 21.0355 14.0033 21.2635 13.8116 21.4559C13.62 21.6484 13.3906 21.8014 13.137 21.9059C12.8834 22.0104 12.6108 22.0642 12.3353 22.0642C12.0599 22.0642 11.7873 22.0104 11.5337 21.9059C11.2801 21.8014 11.0507 21.6484 10.859 21.4559C10.6674 21.2635 10.5175 21.0355 10.4181 20.7856C10.3188 20.5356 10.2721 20.2688 10.2808 20.001C10.3013 19.4844 10.5265 18.9955 10.9094 18.637C11.2923 18.2784 11.8029 18.0781 12.3343 18.0779C12.8657 18.0778 13.3765 18.2779 13.7596 18.6363C14.1426 18.9946 14.3681 19.4834 14.3888 20M26.7201 20C26.7288 20.2678 26.6821 20.5346 26.5828 20.7846C26.4835 21.0345 26.3335 21.2625 26.1419 21.4549C25.9502 21.6474 25.7208 21.8004 25.4672 21.9049C25.2136 22.0094 24.941 22.0632 24.6656 22.0632C24.3902 22.0632 24.1176 22.0094 23.864 21.9049C23.6104 21.8004 23.3809 21.6474 23.1893 21.4549C22.9977 21.2625 22.8477 21.0345 22.7484 20.7846C22.6491 20.5346 22.6024 20.2678 22.6111 20C22.6279 19.4808 22.8518 18.9883 23.2353 18.6268C23.6187 18.2654 24.1317 18.0632 24.6656 18.0632C25.1995 18.0632 25.7125 18.2654 26.0959 18.6268C26.4794 18.9883 26.7032 19.4808 26.7201 20Z" fill="#292F33"/>
<path d="M2.26172 30.458C2.15504 30.4579 2.05104 30.4256 1.96413 30.3654C1.87722 30.3052 1.81172 30.2202 1.7767 30.1222C1.74168 30.0241 1.73889 29.9179 1.7687 29.8183C1.79852 29.7186 1.85947 29.6304 1.94311 29.566C2.10961 29.439 6.07477 26.446 12.8869 26.961C13.0226 26.9712 13.1486 27.0334 13.2372 27.1339C13.3258 27.2344 13.3699 27.365 13.3597 27.497C13.3381 27.772 13.0955 27.998 12.8077 27.957C6.40161 27.483 2.61733 30.323 2.58033 30.352C2.48937 30.4212 2.37714 30.4585 2.26172 30.458ZM11.3761 25.795C11.3242 25.7953 11.2725 25.7878 11.2229 25.773C6.29986 24.276 2.24322 25.426 2.20211 25.437C2.13752 25.4559 2.06974 25.4623 2.00264 25.4557C1.93554 25.4491 1.87042 25.4298 1.81101 25.3987C1.7516 25.3676 1.69906 25.3255 1.65639 25.2747C1.61372 25.2239 1.58175 25.1654 1.56231 25.1025C1.54288 25.0397 1.53635 24.9737 1.54311 24.9084C1.54987 24.8432 1.56978 24.7798 1.6017 24.722C1.63363 24.6642 1.67694 24.6131 1.72917 24.5715C1.7814 24.53 1.84152 24.4989 1.90611 24.48C2.08391 24.428 6.31116 23.233 11.5282 24.818C11.6451 24.8538 11.7451 24.9291 11.81 25.0303C11.875 25.1315 11.9006 25.252 11.8822 25.3699C11.8638 25.4879 11.8027 25.5956 11.7099 25.6735C11.6171 25.7515 11.4987 25.7946 11.3761 25.795ZM34.7374 30.458C34.8441 30.4579 34.9481 30.4256 35.035 30.3654C35.1219 30.3052 35.1874 30.2202 35.2225 30.1222C35.2575 30.0241 35.2603 29.9179 35.2304 29.8183C35.2006 29.7186 35.1397 29.6304 35.0561 29.566C34.8896 29.439 30.9244 26.446 24.1123 26.961C23.9766 26.9712 23.8506 27.0334 23.762 27.1339C23.6733 27.2344 23.6293 27.365 23.6395 27.497C23.6621 27.772 23.9036 27.998 24.1914 27.957C30.5976 27.483 34.3818 30.323 34.4188 30.352C34.5144 30.422 34.6264 30.458 34.7374 30.458ZM25.6231 25.795C25.6745 25.795 25.7255 25.7877 25.7762 25.773C30.6993 24.276 34.7559 25.426 34.7971 25.437C34.8616 25.4559 34.9294 25.4623 34.9965 25.4557C35.0636 25.4491 35.1287 25.4298 35.1881 25.3987C35.2476 25.3676 35.3001 25.3255 35.3428 25.2747C35.3854 25.2239 35.4174 25.1654 35.4368 25.1025C35.4563 25.0397 35.4628 24.9737 35.456 24.9084C35.4493 24.8432 35.4294 24.7798 35.3975 24.722C35.3655 24.6642 35.3222 24.6131 35.27 24.5715C35.2178 24.53 35.1576 24.4989 35.0931 24.48C34.9152 24.428 30.688 23.233 25.471 24.818C25.354 24.8538 25.254 24.9291 25.1891 25.0303C25.1242 25.1315 25.0986 25.252 25.117 25.3699C25.1353 25.4879 25.1964 25.5956 25.2893 25.6735C25.3821 25.7515 25.5005 25.7946 25.6231 25.795Z" fill="#FEE7B8"/>
<path d="M25.4233 30.898C25.3757 30.7738 25.2794 30.673 25.1554 30.6179C25.0315 30.5627 24.8902 30.5577 24.7624 30.604C24.1951 30.81 23.6566 30.915 23.1601 30.915C21.9761 30.915 21.5558 30.609 21.0707 30.256C20.6071 29.918 20.0881 29.541 19.0254 29.453V27.114C19.0254 26.9814 18.9712 26.8542 18.8749 26.7605C18.7785 26.6667 18.6478 26.614 18.5115 26.614C18.3752 26.614 18.2445 26.6667 18.1481 26.7605C18.0518 26.8542 17.9976 26.9814 17.9976 27.114V29.487C17.1651 29.602 16.6142 29.926 16.1312 30.23C15.5474 30.597 15.0428 30.915 13.9903 30.915C13.4949 30.915 12.9564 30.811 12.389 30.604C12.2627 30.5638 12.1252 30.5726 12.0055 30.6287C11.8857 30.6848 11.7928 30.7838 11.7464 30.905C11.6999 31.0262 11.7034 31.1602 11.7561 31.2789C11.8089 31.3976 11.9067 31.4919 12.0293 31.542C12.7118 31.789 13.3716 31.915 13.9893 31.915C15.3449 31.915 16.0592 31.466 16.6893 31.07C17.2278 30.731 17.6965 30.439 18.5886 30.435C19.6081 30.443 19.9843 30.713 20.454 31.056C21.0069 31.459 21.6329 31.915 23.1601 31.915C23.7778 31.915 24.4387 31.789 25.1211 31.542C25.1845 31.5191 25.2426 31.4842 25.2921 31.4395C25.3415 31.3947 25.3815 31.3408 25.4095 31.281C25.4376 31.2212 25.4533 31.1566 25.4556 31.0908C25.458 31.0251 25.447 30.9596 25.4233 30.898Z" fill="#67757F"/>
<path d="M19.9388 24.807H17.061C16.4033 24.807 15.8657 25.33 15.8657 25.97C15.8657 26.609 16.4033 27.133 17.061 27.133H17.3046V27.478C17.3046 28.117 17.8421 28.641 18.4999 28.641C19.1577 28.641 19.6952 28.118 19.6952 27.478V27.133H19.9388C20.5956 27.133 21.1341 26.61 21.1341 25.97C21.1341 25.33 20.5956 24.807 19.9388 24.807Z" fill="#E75A70"/>
<path d="M18.5231 17.154C18.3868 17.154 18.2561 17.1013 18.1597 17.0075C18.0633 16.9138 18.0092 16.7866 18.0092 16.654V8.37C18.0092 8.23739 18.0633 8.11021 18.1597 8.01644C18.2561 7.92267 18.3868 7.87 18.5231 7.87C18.6594 7.87 18.7901 7.92267 18.8864 8.01644C18.9828 8.11021 19.037 8.23739 19.037 8.37V16.654C19.037 16.931 18.8078 17.154 18.5231 17.154ZM21.5838 15.572C21.4475 15.572 21.3168 15.5193 21.2204 15.4255C21.124 15.3318 21.0699 15.2046 21.0699 15.072C21.0699 12.19 22.3361 9.862 22.3906 9.764C22.4559 9.64862 22.5653 9.56296 22.6951 9.52563C22.8249 9.48829 22.9646 9.50229 23.0839 9.56459C23.2031 9.62689 23.2923 9.73245 23.332 9.85835C23.3718 9.98425 23.3588 10.1203 23.2961 10.237C23.2837 10.258 22.0977 12.45 22.0977 15.072C22.0977 15.2046 22.0435 15.3318 21.9472 15.4255C21.8508 15.5193 21.7201 15.572 21.5838 15.572ZM15.4171 15.572C15.2808 15.572 15.1501 15.5193 15.0537 15.4255C14.9574 15.3318 14.9032 15.2046 14.9032 15.072C14.9032 12.449 13.7161 10.258 13.7038 10.237C13.6494 10.1212 13.6424 9.98959 13.6841 9.86892C13.7259 9.74825 13.8133 9.64757 13.9286 9.58735C14.0439 9.52712 14.1784 9.51186 14.3048 9.54467C14.4313 9.57748 14.5401 9.6559 14.6093 9.764C14.6638 9.862 15.93 12.19 15.93 15.072C15.93 15.2044 15.876 15.3315 15.7798 15.4252C15.6837 15.5189 15.5532 15.5717 15.4171 15.572Z" fill="#F18F26"/>
</svg>
