<svg width="112" height="281" viewBox="0 0 112 281" fill="none" xmlns="http://www.w3.org/2000/svg">
<path d="M71.6234 2.90696C71.6234 2.90696 60.0113 -3.88233 47.6928 7.99855C35.3744 19.8794 40.3571 33.9503 41.3322 45.5884C42.3073 57.2264 40.5615 65.0293 47.8616 70.1453C55.1618 75.2613 64.7038 90.0349 66.1964 95.7506C67.689 101.466 82.5707 105.992 87.3624 102.111C92.1541 98.2309 94.2901 91.3143 93.6838 83.2508C93.0774 75.1866 98.0676 77.6061 100.164 69.4893C102.261 61.3718 93.1996 50.1173 87.6097 41.8909C82.0206 33.6638 84.0092 26.6865 85.8594 18.3691C87.7096 10.0516 86.7634 7.4403 81.7274 4.57429C76.6913 1.7068 71.6234 2.90696 71.6234 2.90696Z" fill="#263238" stroke="#263238" stroke-width="0.74038" stroke-miterlimit="10" stroke-linecap="round" stroke-linejoin="round"/>
<path d="M80.6153 183.739C80.6153 183.739 79.9075 199.31 77.5487 213.229C75.1898 227.148 73.538 254.515 73.538 258.525C73.538 262.536 75.1891 265.131 75.1891 265.131C75.1891 265.131 77.0763 268.434 80.1437 270.086C83.2103 271.737 87.4572 272.681 86.5139 274.096C85.5699 275.512 82.2671 276.22 78.9643 276.22C75.6614 276.22 70.7068 275.04 68.348 275.04C65.9891 275.04 62.4501 275.748 61.7423 274.804C61.0345 273.86 59.8551 271.737 60.7983 268.435C61.7423 265.132 65.0451 260.885 64.1011 254.515C63.1572 248.146 61.0345 222.902 61.0345 217.712C61.0345 212.522 58.4395 204.501 58.4395 197.659C58.4395 190.817 58.4395 184.683 58.4395 184.683L80.6153 183.739Z" fill="#FFB9AE" stroke="#263238" stroke-width="0.74038" stroke-miterlimit="10" stroke-linecap="round" stroke-linejoin="round"/>
<path d="M86.5132 274.096C87.4572 272.68 83.2104 271.737 80.143 270.085C80.143 270.085 78.9635 271.264 76.1323 271.736C73.3011 272.208 68.3472 270.792 64.8082 268.905C61.9659 267.388 61.4076 267.091 61.2973 267.032C61.0989 267.518 60.9257 267.985 60.7976 268.433C59.8536 271.736 61.0338 273.859 61.7416 274.803C62.4494 275.747 65.9884 275.039 68.3472 275.039C70.7068 275.039 75.6607 276.218 78.9635 276.218C82.2671 276.219 85.5699 275.511 86.5132 274.096Z" fill="#263238" stroke="#263238" stroke-width="0.74038" stroke-miterlimit="10" stroke-linecap="round" stroke-linejoin="round"/>
<path d="M44.5196 183.974C44.5196 183.974 41.9245 193.647 40.9805 202.14C40.0366 210.633 44.755 228.327 46.8784 237.057C49.0018 245.786 49.0018 254.515 48.0578 261.592C47.1138 268.669 46.406 276.691 48.294 278.106C50.1812 279.522 56.5515 280.937 57.9663 277.635C59.382 274.332 56.0791 265.603 56.0791 260.413C56.0791 255.223 58.2025 236.82 59.382 227.856C60.5614 218.891 61.033 204.264 61.033 199.074C61.033 193.884 61.2692 190.581 61.5046 189.873C61.7408 189.165 62.9202 185.391 62.9202 185.391L44.5196 183.974Z" fill="#FFB9AE" stroke="#263238" stroke-width="0.74038" stroke-miterlimit="10" stroke-linecap="round" stroke-linejoin="round"/>
<path d="M57.967 277.635C58.5727 276.222 58.3128 273.814 57.8197 271.118C56.8698 272.006 55.6585 272.871 54.1926 273.388C51.5879 274.307 48.7915 272.443 47.1457 271.021C47.0057 274.543 47.256 277.327 48.2947 278.106C50.182 279.522 56.5514 280.937 57.967 277.635Z" fill="#263238" stroke="#263238" stroke-width="0.74038" stroke-miterlimit="10" stroke-linecap="round" stroke-linejoin="round"/>
<path d="M79.9075 53.9828C79.9075 53.9828 84.3897 55.6339 85.5692 57.7573C86.7486 59.8807 103.499 80.4055 106.33 85.1239C109.161 89.8424 106.33 94.0892 104.443 95.0324C102.556 95.9764 99.2529 95.5041 97.8372 94.7963C96.4216 94.0885 93.8266 91.0218 93.8266 91.0218C93.8266 91.0218 92.411 91.258 91.2316 91.0218C90.0522 90.7856 89.816 87.9552 89.816 87.9552C89.816 87.9552 88.1649 87.0112 87.2209 86.7757C86.277 86.5395 81.0869 77.1034 81.0869 77.1034L79.9075 53.9828Z" fill="#E0A4EF"/>
<path d="M100.309 77.2966L100.506 77.3744L100.571 77.2093C100.521 77.1441 100.471 77.0782 100.42 77.0131L100.309 77.2966Z" fill="#FFB9AE"/>
<path d="M102.79 92.9712L102.587 93.0327L103.26 95.2686H103.481L102.79 92.9712Z" fill="#FFB9AE"/>
<path d="M104.146 92.5647L103.942 92.6255L104.632 94.9214C104.695 94.8844 104.756 94.8518 104.82 94.8081L104.146 92.5647Z" fill="#FFB9AE"/>
<path d="M105.817 85.3046L105.664 85.4519L107.187 87.0386C107.137 86.8779 107.077 86.7158 107.016 86.5529L105.817 85.3046Z" fill="#FFB9AE"/>
<path d="M101.881 85.463L101.933 85.2572L99.2529 84.5768V84.7959L101.881 85.463Z" fill="#FFB9AE"/>
<path d="M102.282 83.886L99.2529 83.116V83.3352L102.229 84.0918L102.282 83.886Z" fill="#FFB9AE"/>
<path d="M99.2529 90.6205V90.8448L102.576 89.7483L102.51 89.547L99.2529 90.6205Z" fill="#FFB9AE"/>
<path d="M99.2529 89.3537L102.131 88.4046L102.065 88.2024L99.2529 89.1301V89.3537Z" fill="#FFB9AE"/>
<path d="M103.481 95.2686H103.26L103.303 95.4108C103.373 95.396 103.441 95.3789 103.51 95.3619L103.481 95.2686Z" fill="#FFB9AE"/>
<path d="M97.0783 84.2436L99.2528 84.7959V84.5768L97.1309 84.0378L97.0783 84.2436Z" fill="#FFB9AE"/>
<path d="M97.4812 82.6659L97.4286 82.8717L99.2529 83.3352V83.116L97.4812 82.6659Z" fill="#FFB9AE"/>
<path d="M97.8047 91.0988L97.8706 91.3002L99.2529 90.8448V90.6205L97.8047 91.0988Z" fill="#FFB9AE"/>
<path d="M97.3604 89.755L97.427 89.9564L99.2528 89.3537V89.1301L97.3604 89.755Z" fill="#FFB9AE"/>
<path d="M81.4422 55.85L81.6066 55.7153L80.3235 54.1479C80.0807 54.0479 79.937 53.9946 79.9178 53.9872L81.4422 55.85Z" fill="#FFB9AE"/>
<path d="M88.2085 85.5743L88.1255 85.7699L92.686 87.7044L92.769 87.5088L88.2085 85.5743Z" fill="#FFB9AE"/>
<path d="M87.6481 86.9119C88.5914 87.257 89.8167 87.9559 89.8167 87.9559C89.8167 87.9559 89.8197 87.9885 89.8241 88.0344L92.1371 89.0154L92.22 88.8199L87.66 86.8853L87.6481 86.9119Z" fill="#FFB9AE"/>
<path d="M92.7704 74.879L91.4178 79.6454L91.6222 79.7034L92.9748 74.9371L92.7704 74.879Z" fill="#FFB9AE"/>
<path d="M94.1321 75.266L92.7801 80.0302L92.9845 80.0882L94.3365 75.324L94.1321 75.266Z" fill="#FFB9AE"/>
<path d="M85.3981 71.1463L86.8248 75.8914L87.0284 75.8307L85.6017 71.0856L85.3981 71.1463Z" fill="#FFB9AE"/>
<path d="M86.7545 70.7384L88.1812 75.482L88.3841 75.4213L86.9581 70.6769L86.7545 70.7384Z" fill="#FFB9AE"/>
<path d="M91.5647 67.2297L91.8646 66.048C91.8083 65.9762 91.7543 65.9074 91.6987 65.8363L91.3582 67.1771L91.5647 67.2297Z" fill="#FFB9AE"/>
<path d="M92.7301 67.5251L92.9359 67.5777L92.967 67.454C92.9122 67.3837 92.856 67.3126 92.8012 67.243L92.7301 67.5251Z" fill="#FFB9AE"/>
<path d="M81.5179 64.8808L81.4349 65.0765L85.9948 67.0102L86.0778 66.8145L81.5179 64.8808Z" fill="#FFB9AE"/>
<path d="M82.0728 63.5635L81.9898 63.7591L86.5504 65.6936L86.6333 65.498L82.0728 63.5635Z" fill="#FFB9AE"/>
<path d="M83.1585 78.4709L82.9519 78.4235L82.6284 79.8376C82.6802 79.9272 82.7313 80.0168 82.7838 80.1086L83.1585 78.4709Z" fill="#FFB9AE"/>
<path d="M83.6694 81.6286C83.7219 81.7167 83.7738 81.8056 83.8263 81.8937L84.5378 78.7863L84.3313 78.7389L83.6694 81.6286Z" fill="#FFB9AE"/>
<path d="M87.6577 61.7168L88.0834 61.1911C88.0383 61.1327 87.9946 61.0756 87.9502 61.0179L87.4926 61.5835L87.6577 61.7168Z" fill="#FFB9AE"/>
<path d="M86.5576 60.8276L87.1995 60.0339C87.1543 59.974 87.1114 59.9177 87.0677 59.8592L86.3925 60.6944L86.5576 60.8276Z" fill="#FFB9AE"/>
<path d="M79.9075 53.9828C79.9075 53.9828 84.3897 55.6339 85.5692 57.7573C86.7486 59.8807 103.499 80.4055 106.33 85.1239C109.161 89.8424 106.33 94.0892 104.443 95.0324C102.556 95.9764 99.2529 95.5041 97.8372 94.7963C96.4216 94.0885 93.8266 91.0218 93.8266 91.0218C93.8266 91.0218 92.411 91.258 91.2316 91.0218C90.0522 90.7856 89.816 87.9551 89.816 87.9551C89.816 87.9551 88.1649 87.0112 87.2209 86.7757C86.277 86.5395 81.0869 77.1034 81.0869 77.1034L79.9075 53.9828Z" stroke="#263238" stroke-width="0.74038" stroke-miterlimit="10" stroke-linecap="round" stroke-linejoin="round"/>
<path d="M84.611 62.181L81.5303 68.3425L86.5545 65.7008" stroke="#263238" stroke-width="0.74038" stroke-miterlimit="10" stroke-linecap="round" stroke-linejoin="round"/>
<path d="M40.1166 52.4776C40.1166 52.4776 29.9704 53.509 30.6782 58.4629C31.386 63.4167 39.8019 96.4488 40.2735 97.392C40.7451 98.336 32.2522 113.671 29.6572 130.657C27.0622 147.642 36.4991 174.066 36.9707 175.245C37.4423 176.425 39.8019 184.918 39.8019 184.918C39.8019 184.918 51.3622 190.344 66.4608 187.984C81.5593 185.625 84.3905 184.21 84.3905 184.21C84.3905 184.21 87.4572 151.181 85.57 134.666C83.6827 118.152 81.0877 105.413 80.8515 102.581C80.6153 99.7501 79.4359 93.3807 80.8515 90.5494C82.2671 87.7182 84.1544 80.8771 82.9749 74.7431C81.7955 68.609 81.5593 66.4856 82.0309 64.1268C82.5026 61.7672 82.9749 57.5211 81.5593 55.3977C80.1437 53.2743 70.9645 48.5625 70.9645 48.5625C70.9645 48.5625 47.9016 47.0514 40.1166 52.4776Z" fill="#E0A4EF"/>
<path d="M49.3499 77.2966L49.5475 77.3736L51.36 72.7625L51.1623 72.6848L49.3499 77.2966Z" fill="#FFB9AE"/>
<path d="M52.4794 73.2023L50.6669 77.8134L50.8646 77.8912L52.6771 73.2793L52.4794 73.2023Z" fill="#FFB9AE"/>
<path d="M80.177 95.2679L80.0607 94.9473L79.8608 95.0191L79.9512 95.2686H80.177V95.2679Z" fill="#FFB9AE"/>
<path d="M74.0289 92.8624L73.8231 92.8098L73.1982 95.2686H73.4173L74.0289 92.8624Z" fill="#FFB9AE"/>
<path d="M74.8781 95.2686L75.4015 93.2104L75.1957 93.1585L74.6589 95.2686H74.8781Z" fill="#FFB9AE"/>
<path d="M58.9082 92.4885L58.7038 92.43L57.9012 95.2686H58.1219L58.9082 92.4885Z" fill="#FFB9AE"/>
<path d="M60.2711 92.8742L60.0668 92.8157L59.373 95.2686H59.5937L60.2711 92.8742Z" fill="#FFB9AE"/>
<path d="M51.628 93.0327L52.301 95.2686H52.5224L51.8309 92.9712L51.628 93.0327Z" fill="#FFB9AE"/>
<path d="M53.1872 92.5647L52.9844 92.6255L53.7788 95.2686H54.0002L53.1872 92.5647Z" fill="#FFB9AE"/>
<path d="M61.2492 77.612L58.7861 81.91L58.9705 82.0157L61.4336 77.7177L61.2492 77.612Z" fill="#FFB9AE"/>
<path d="M62.486 78.3165L60.0226 82.6162L60.207 82.7218L62.6703 78.4221L62.486 78.3165Z" fill="#FFB9AE"/>
<path d="M81.6067 55.7153L80.4206 54.2664C80.197 54.0857 79.9519 53.8991 79.6884 53.7074L81.4416 55.85L81.6067 55.7153Z" fill="#FFB9AE"/>
<path d="M74.0523 53.5399L73.8524 53.6121L75.5348 58.2717L75.7346 58.1995L74.0523 53.5399Z" fill="#FFB9AE"/>
<path d="M75.3893 53.061L75.1895 53.1331L76.8706 57.7925L77.0704 57.7204L75.3893 53.061Z" fill="#FFB9AE"/>
<path d="M74.0359 63.0122L71.5726 67.312L71.7569 67.4176L74.2203 63.1179L74.0359 63.0122Z" fill="#FFB9AE"/>
<path d="M72.8029 62.3183L70.3402 66.6156L70.5246 66.7213L72.9873 62.4239L72.8029 62.3183Z" fill="#FFB9AE"/>
<path d="M61.4819 62.4956L61.3174 62.6302L64.4552 66.4646L64.6197 66.33L61.4819 62.4956Z" fill="#FFB9AE"/>
<path d="M62.5786 61.5912L62.4142 61.7258L65.551 65.559L65.7154 65.4245L62.5786 61.5912Z" fill="#FFB9AE"/>
<path d="M56.0036 63.8042L55.8038 63.8764L57.4861 68.536L57.686 68.4638L56.0036 63.8042Z" fill="#FFB9AE"/>
<path d="M57.3397 63.3271L57.1398 63.3992L58.8209 68.0586L59.0208 67.9865L57.3397 63.3271Z" fill="#FFB9AE"/>
<path d="M81.4415 65.0707L81.8628 65.2492C81.8702 65.1751 81.8769 65.1011 81.8857 65.0278L81.5245 64.8745L81.4415 65.0707Z" fill="#FFB9AE"/>
<path d="M81.9946 63.7662L82.0916 63.8076C82.1049 63.7366 82.1175 63.667 82.1309 63.5937L82.0776 63.5707L81.9946 63.7662Z" fill="#FFB9AE"/>
<path d="M71.1037 91.0477L69.677 86.3026L69.4741 86.3633L70.9008 91.1084L71.1037 91.0477Z" fill="#FFB9AE"/>
<path d="M72.46 90.6383L71.0333 85.8939L70.8304 85.9546L72.2564 90.699L72.46 90.6383Z" fill="#FFB9AE"/>
<path d="M78.0617 87.8892L82.0724 87.3251C82.0946 87.251 82.1168 87.177 82.139 87.1015L78.0321 87.679L78.0617 87.8892Z" fill="#FFB9AE"/>
<path d="M78.2594 89.29L81.5785 88.8236C81.6067 88.7466 81.6348 88.6763 81.6622 88.5978L78.2298 89.0798L78.2594 89.29Z" fill="#FFB9AE"/>
<path d="M83.1585 78.4709L82.9512 78.4235L81.8458 83.2522L82.0524 83.2996L83.1585 78.4709Z" fill="#FFB9AE"/>
<path d="M69.7747 76.4296L69.5948 76.3164L66.9449 80.5025L67.1249 80.6158L69.7747 76.4296Z" fill="#FFB9AE"/>
<path d="M70.9719 77.1871L70.792 77.0738L68.1407 81.2599L68.3206 81.3732L70.9719 77.1871Z" fill="#FFB9AE"/>
<path d="M70.8152 70.1911L66.2731 72.1718L66.3581 72.3666L70.9001 70.3859L70.8152 70.1911Z" fill="#FFB9AE"/>
<path d="M71.3858 71.4961L66.8451 73.4767L66.93 73.6715L71.4708 71.6909L71.3858 71.4961Z" fill="#FFB9AE"/>
<path d="M62.541 69.4544L61.1934 74.2222L61.3978 74.28L62.7455 69.5122L62.541 69.4544Z" fill="#FFB9AE"/>
<path d="M61.1793 69.0711L59.8316 73.839L60.0361 73.8968L61.3837 69.1289L61.1793 69.0711Z" fill="#FFB9AE"/>
<path d="M77.8485 67.146L79.2745 71.8904L79.4781 71.8297L78.0514 67.0853L77.8485 67.146Z" fill="#FFB9AE"/>
<path d="M76.4922 67.5532L77.9189 72.2976L78.1218 72.2361L76.6951 67.4925L76.4922 67.5532Z" fill="#FFB9AE"/>
<path d="M69.5988 55.3784L65.6456 58.3636L65.7737 58.5332L69.7269 55.548L69.5988 55.3784Z" fill="#FFB9AE"/>
<path d="M70.4506 56.5084L66.4968 59.494L66.6248 59.6636L70.5786 56.678L70.4506 56.5084Z" fill="#FFB9AE"/>
<path d="M61.8427 50.813L61.6385 50.872L63.014 55.6305L63.2182 55.5715L61.8427 50.813Z" fill="#FFB9AE"/>
<path d="M60.4779 51.2036L60.2737 51.2626L61.6489 56.0218L61.8531 55.9628L60.4779 51.2036Z" fill="#FFB9AE"/>
<path d="M55.5576 50.9719L55.2657 55.9189L55.4779 55.9314L55.7697 50.9845L55.5576 50.9719Z" fill="#FFB9AE"/>
<path d="M56.9597 51.0508L56.6697 55.9984L56.8819 56.0109L57.1718 51.0632L56.9597 51.0508Z" fill="#FFB9AE"/>
<path d="M64.6722 84.7782L61.6597 88.7111L61.8284 88.8403L64.8409 84.9074L64.6722 84.7782Z" fill="#FFB9AE"/>
<path d="M65.7905 85.639L62.7757 89.5727L62.9443 89.7019L65.9591 85.7683L65.7905 85.639Z" fill="#FFB9AE"/>
<path d="M55.8779 84.3329L55.7246 84.48L59.1542 88.0547L59.3075 87.9076L55.8779 84.3329Z" fill="#FFB9AE"/>
<path d="M54.8551 85.3083L54.7018 85.4555L58.1329 89.0297L58.2862 88.8826L54.8551 85.3083Z" fill="#FFB9AE"/>
<path d="M73.5009 79.0923L73.418 79.2879L77.9785 81.2224L78.0615 81.0268L73.5009 79.0923Z" fill="#FFB9AE"/>
<path d="M74.0533 77.7893L73.9703 77.9849L78.5309 79.9194L78.6139 79.7238L74.0533 77.7893Z" fill="#FFB9AE"/>
<path d="M48.3836 49.5479L50.6344 50.7584L50.7351 50.5711L48.7212 49.488C48.6087 49.5079 48.4954 49.5272 48.3836 49.5479Z" fill="#FFB9AE"/>
<path d="M51.3045 49.5116L51.4051 49.3243L51.0335 49.1244C50.9135 49.1407 50.7928 49.1555 50.6736 49.1726L51.3045 49.5116Z" fill="#FFB9AE"/>
<path d="M50.1731 55.3718L50.0346 55.2118L48.2947 56.7148V56.9947L50.1731 55.3718Z" fill="#FFB9AE"/>
<path d="M48.2947 54.8431V55.1237L49.2483 54.2989L49.1099 54.139L48.2947 54.8431Z" fill="#FFB9AE"/>
<path d="M48.2947 62.7378V62.9658L52.7563 61.2185L52.6793 61.0209L48.2947 62.7378Z" fill="#FFB9AE"/>
<path d="M48.2947 61.2178V61.4458L52.241 59.9014L52.1632 59.7037L48.2947 61.2178Z" fill="#FFB9AE"/>
<path d="M50.9749 70.0046L48.2947 69.3997V69.6174L50.9275 70.2119L50.9749 70.0046Z" fill="#FFB9AE"/>
<path d="M48.2947 68.1655L51.24 68.8311L51.2873 68.6238L48.2947 67.9478V68.1655Z" fill="#FFB9AE"/>
<path d="M50.9223 85.463L50.9749 85.2572L48.2947 84.5768V84.7959L50.9223 85.463Z" fill="#FFB9AE"/>
<path d="M51.2703 84.0918L51.3229 83.886L48.2947 83.116V83.3352L51.2703 84.0918Z" fill="#FFB9AE"/>
<path d="M51.6176 89.7483L51.5509 89.547L48.2947 90.6205V90.8448L51.6176 89.7483Z" fill="#FFB9AE"/>
<path d="M51.1726 88.4046L51.106 88.2024L48.2947 89.1301V89.3537L51.1726 88.4046Z" fill="#FFB9AE"/>
<path d="M51.1623 123.644L49.3499 128.255L49.5475 128.333L51.36 123.721L51.1623 123.644Z" fill="#FFB9AE"/>
<path d="M52.4824 124.169L50.67 128.78L50.8678 128.858L52.6802 124.246L52.4824 124.169Z" fill="#FFB9AE"/>
<path d="M65.5608 95.8354L65.4778 96.031L70.0383 97.9655L70.1213 97.7699L65.5608 95.8354Z" fill="#FFB9AE"/>
<path d="M65.0093 97.1431L64.9263 97.3387L69.4869 99.2732L69.5698 99.0776L65.0093 97.1431Z" fill="#FFB9AE"/>
<path d="M84.4846 144.243L84.3202 144.377L85.8343 146.227H86.1089L84.4846 144.243Z" fill="#FFB9AE"/>
<path d="M85.5811 143.347L85.4167 143.481L86.1445 144.371C86.1423 144.255 86.1393 144.141 86.1363 144.026L85.5811 143.347Z" fill="#FFB9AE"/>
<path d="M80.0607 145.905L79.8608 145.977L79.9519 146.227H80.177L80.0607 145.905Z" fill="#FFB9AE"/>
<path d="M81.1936 145.497L81.4572 146.227H81.683L81.3935 145.425L81.1936 145.497Z" fill="#FFB9AE"/>
<path d="M74.0289 143.821L73.8231 143.769L73.1982 146.227H73.4173L74.0289 143.821Z" fill="#FFB9AE"/>
<path d="M75.1957 144.117L74.6589 146.227H74.8781L75.4015 144.169L75.1957 144.117Z" fill="#FFB9AE"/>
<path d="M58.9082 143.447L58.7038 143.389L57.9012 146.227H58.1219L58.9082 143.447Z" fill="#FFB9AE"/>
<path d="M60.2711 143.832L60.0668 143.775L59.373 146.227H59.5937L60.2711 143.832Z" fill="#FFB9AE"/>
<path d="M51.628 143.991L52.301 146.227H52.5224L51.8309 143.93L51.628 143.991Z" fill="#FFB9AE"/>
<path d="M52.9844 143.584L53.7788 146.227H54.0002L53.1872 143.523L52.9844 143.584Z" fill="#FFB9AE"/>
<path d="M58.977 132.975L61.4402 128.677L61.2558 128.572L58.7926 132.87L58.977 132.975Z" fill="#FFB9AE"/>
<path d="M62.6693 129.379L62.4842 129.274L60.0209 133.574L60.206 133.68L62.6693 129.379Z" fill="#FFB9AE"/>
<path d="M79.4004 102.078L81.0426 104.085C81.0211 103.941 81.0018 103.807 80.9833 103.677L79.5648 101.944L79.4004 102.078Z" fill="#FFB9AE"/>
<path d="M78.3046 102.974L81.4424 106.808L81.4749 106.782C81.4564 106.669 81.4372 106.553 81.4187 106.444L78.469 102.839L78.3046 102.974Z" fill="#FFB9AE"/>
<path d="M74.0538 104.499L73.8539 104.571L75.5363 109.231L75.7361 109.159L74.0538 104.499Z" fill="#FFB9AE"/>
<path d="M75.3917 104.022L75.1918 104.094L76.8729 108.754L77.0728 108.682L75.3917 104.022Z" fill="#FFB9AE"/>
<path d="M74.0365 113.971L71.5732 118.271L71.7576 118.376L74.2209 114.077L74.0365 113.971Z" fill="#FFB9AE"/>
<path d="M72.8014 113.277L70.3384 117.575L70.5227 117.681L72.9858 113.383L72.8014 113.277Z" fill="#FFB9AE"/>
<path d="M61.4822 113.454L61.3177 113.589L64.4555 117.423L64.62 117.288L61.4822 113.454Z" fill="#FFB9AE"/>
<path d="M62.5805 112.547L62.416 112.682L65.5528 116.515L65.7173 116.381L62.5805 112.547Z" fill="#FFB9AE"/>
<path d="M56.0057 114.762L55.8058 114.835L57.4881 119.494L57.688 119.422L56.0057 114.762Z" fill="#FFB9AE"/>
<path d="M57.3414 114.288L57.1415 114.36L58.8226 119.02L59.0225 118.948L57.3414 114.288Z" fill="#FFB9AE"/>
<path d="M81.5245 115.833L81.4415 116.029L83.1111 116.737C83.0978 116.653 83.0852 116.572 83.0718 116.489L81.5245 115.833Z" fill="#FFB9AE"/>
<path d="M81.9946 114.725L82.849 115.088C82.8357 115.006 82.8224 114.922 82.8091 114.841L82.0776 114.53L81.9946 114.725Z" fill="#FFB9AE"/>
<path d="M71.1037 142.006L69.677 137.261L69.4741 137.321L70.9008 142.067L71.1037 142.006Z" fill="#FFB9AE"/>
<path d="M72.46 141.596L71.0333 136.853L70.8304 136.914L72.2564 141.658L72.46 141.596Z" fill="#FFB9AE"/>
<path d="M82.9412 137.955L78.0358 138.648L78.0656 138.858L82.9709 138.165L82.9412 137.955Z" fill="#FFB9AE"/>
<path d="M83.1652 139.56L83.1356 139.35L78.2291 140.039L78.2594 140.249L83.1652 139.56Z" fill="#FFB9AE"/>
<path d="M82.0524 134.258L83.1585 129.429L82.9512 129.382L81.8458 134.211L82.0524 134.258Z" fill="#FFB9AE"/>
<path d="M83.4318 134.573L84.5379 129.745L84.3313 129.698L83.2252 134.526L83.4318 134.573Z" fill="#FFB9AE"/>
<path d="M69.7747 127.389L69.5948 127.275L66.9449 131.461L67.1249 131.574L69.7747 127.389Z" fill="#FFB9AE"/>
<path d="M70.9719 128.146L70.792 128.033L68.1407 132.218L68.3206 132.331L70.9719 128.146Z" fill="#FFB9AE"/>
<path d="M70.836 121.152L66.2934 123.133L66.3783 123.327L70.9209 121.347L70.836 121.152Z" fill="#FFB9AE"/>
<path d="M71.3995 122.454L66.8583 124.434L66.9432 124.629L71.4844 122.649L71.3995 122.454Z" fill="#FFB9AE"/>
<path d="M62.5412 120.411L61.1935 125.179L61.398 125.237L62.7457 120.469L62.5412 120.411Z" fill="#FFB9AE"/>
<path d="M61.1793 120.029L59.8317 124.797L60.0361 124.854L61.3838 120.086L61.1793 120.029Z" fill="#FFB9AE"/>
<path d="M77.8485 118.105L79.2745 122.849L79.4781 122.788L78.0514 118.043L77.8485 118.105Z" fill="#FFB9AE"/>
<path d="M78.1218 123.195L76.6951 118.451L76.4922 118.511L77.9189 123.256L78.1218 123.195Z" fill="#FFB9AE"/>
<path d="M69.6148 106.343L65.6597 109.326L65.7876 109.495L69.7428 106.512L69.6148 106.343Z" fill="#FFB9AE"/>
<path d="M70.4497 107.466L66.4959 110.451L66.624 110.621L70.5777 107.635L70.4497 107.466Z" fill="#FFB9AE"/>
<path d="M61.8417 101.773L61.6375 101.832L63.013 106.59L63.2171 106.531L61.8417 101.773Z" fill="#FFB9AE"/>
<path d="M60.4766 102.163L60.2725 102.222L61.6477 106.981L61.8518 106.922L60.4766 102.163Z" fill="#FFB9AE"/>
<path d="M55.5478 101.926L55.2579 106.873L55.47 106.885L55.7599 101.938L55.5478 101.926Z" fill="#FFB9AE"/>
<path d="M56.972 102.015L56.6801 106.963L56.8922 106.975L57.1841 102.027L56.972 102.015Z" fill="#FFB9AE"/>
<path d="M61.8237 139.807L64.8341 135.873L64.6653 135.744L61.6549 139.678L61.8237 139.807Z" fill="#FFB9AE"/>
<path d="M65.9595 136.732L65.7907 136.603L62.7789 140.539L62.9469 140.668L65.9595 136.732Z" fill="#FFB9AE"/>
<path d="M59.1576 139.003L59.3109 138.856L55.8785 135.284L55.7252 135.431L59.1576 139.003Z" fill="#FFB9AE"/>
<path d="M54.705 136.41L58.1359 139.985L58.2892 139.838L54.8583 136.263L54.705 136.41Z" fill="#FFB9AE"/>
<path d="M73.5015 130.05L73.4188 130.245L77.9793 132.179L78.062 131.984L73.5015 130.05Z" fill="#FFB9AE"/>
<path d="M74.0542 128.746L73.9715 128.941L78.532 130.876L78.6147 130.681L74.0542 128.746Z" fill="#FFB9AE"/>
<path d="M50.6343 101.717L50.735 101.53L48.2947 100.217V100.459L50.6343 101.717Z" fill="#FFB9AE"/>
<path d="M51.4051 100.283L48.2947 98.6092V98.8506L51.3044 100.471L51.4051 100.283Z" fill="#FFB9AE"/>
<path d="M50.1731 106.331L50.0346 106.17L48.2947 107.673V107.954L50.1731 106.331Z" fill="#FFB9AE"/>
<path d="M49.2483 105.258L49.1099 105.097L48.2947 105.802V106.082L49.2483 105.258Z" fill="#FFB9AE"/>
<path d="M52.6793 111.98L48.2947 113.696V113.924L52.7563 112.177L52.6793 111.98Z" fill="#FFB9AE"/>
<path d="M48.2947 112.177V112.405L52.241 110.86L52.1632 110.662L48.2947 112.177Z" fill="#FFB9AE"/>
<path d="M50.9275 121.171L50.9749 120.963L48.2947 120.358V120.576L50.9275 121.171Z" fill="#FFB9AE"/>
<path d="M48.2947 119.124L51.24 119.79L51.2873 119.582L48.2947 118.906V119.124Z" fill="#FFB9AE"/>
<path d="M50.9223 136.422L50.9749 136.216L48.2947 135.535V135.754L50.9223 136.422Z" fill="#FFB9AE"/>
<path d="M48.2947 134.294L51.2703 135.051L51.3229 134.845L48.2947 134.075V134.294Z" fill="#FFB9AE"/>
<path d="M51.6176 140.707L51.5509 140.505L48.2947 141.579V141.803L51.6176 140.707Z" fill="#FFB9AE"/>
<path d="M51.1726 139.363L51.106 139.161L48.2947 140.089V140.313L51.1726 139.363Z" fill="#FFB9AE"/>
<path d="M80.177 95.2686H79.952L80.2007 95.9579C80.1896 95.7269 80.1822 95.4981 80.177 95.2686Z" fill="#FFB9AE"/>
<path d="M72.8095 97.663L73.4173 95.2686H73.1982L72.6036 97.6104L72.8095 97.663Z" fill="#FFB9AE"/>
<path d="M73.9749 97.9592L74.1807 98.0117L74.8781 95.2686H74.659L73.9749 97.9592Z" fill="#FFB9AE"/>
<path d="M57.5606 97.2558L58.1218 95.2686H57.9012L57.3555 97.198L57.5606 97.2558Z" fill="#FFB9AE"/>
<path d="M59.5937 95.2686H59.3731L58.7186 97.5838L58.9237 97.6415L59.5937 95.2686Z" fill="#FFB9AE"/>
<path d="M53.0562 97.7778L53.259 97.7163L52.5223 95.2686H52.301L53.0562 97.7778Z" fill="#FFB9AE"/>
<path d="M54.6139 97.3091L54.0001 95.2686H53.7787L54.4103 97.3698L54.6139 97.3091Z" fill="#FFB9AE"/>
<path d="M49.3499 179.214L49.5475 179.291L51.36 174.68L51.1623 174.602L49.3499 179.214Z" fill="#FFB9AE"/>
<path d="M52.4823 175.128L50.6699 179.739L50.8677 179.817L52.6801 175.205L52.4823 175.128Z" fill="#FFB9AE"/>
<path d="M65.5624 146.795L65.4797 146.99L70.0403 148.925L70.123 148.73L65.5624 146.795Z" fill="#FFB9AE"/>
<path d="M64.9282 148.301L69.4882 150.236L69.5711 150.04L65.0111 148.106L64.9282 148.301Z" fill="#FFB9AE"/>
<path d="M61.4402 179.635L61.2558 179.53L58.7926 183.828L58.977 183.934L61.4402 179.635Z" fill="#FFB9AE"/>
<path d="M62.6693 180.338L62.4842 180.233L60.0209 184.533L60.206 184.638L62.6693 180.338Z" fill="#FFB9AE"/>
<path d="M82.7017 156.736L79.5648 152.902L79.4004 153.036L82.5374 156.87L82.7017 156.736Z" fill="#FFB9AE"/>
<path d="M81.6067 157.632L78.469 153.798L78.3046 153.932L81.4424 157.766L81.6067 157.632Z" fill="#FFB9AE"/>
<path d="M74.0558 155.459L73.856 155.531L75.5383 160.19L75.7382 160.118L74.0558 155.459Z" fill="#FFB9AE"/>
<path d="M75.393 154.983L75.1931 155.056L76.8742 159.715L77.0741 159.643L75.393 154.983Z" fill="#FFB9AE"/>
<path d="M74.2199 165.035L74.0356 164.931L71.5723 169.23L71.7567 169.335L74.2199 165.035Z" fill="#FFB9AE"/>
<path d="M72.8065 164.228L70.3447 168.526L70.5291 168.631L72.9908 164.333L72.8065 164.228Z" fill="#FFB9AE"/>
<path d="M64.6209 168.249L61.4824 164.414L61.3181 164.548L64.4558 168.383L64.6209 168.249Z" fill="#FFB9AE"/>
<path d="M65.7152 167.352L62.5789 163.518L62.4146 163.652L65.5508 167.486L65.7152 167.352Z" fill="#FFB9AE"/>
<path d="M56.0075 165.722L55.8076 165.794L57.49 170.454L57.6898 170.382L56.0075 165.722Z" fill="#FFB9AE"/>
<path d="M57.343 165.25L57.1431 165.322L58.8242 169.981L59.0241 169.909L57.343 165.25Z" fill="#FFB9AE"/>
<path d="M85.5321 168.492L81.5245 166.793L81.4415 166.988L85.5188 168.717C85.5232 168.641 85.5277 168.568 85.5321 168.492Z" fill="#FFB9AE"/>
<path d="M85.6158 166.989L82.0776 165.488L81.9946 165.683L85.6032 167.214C85.6077 167.14 85.6114 167.064 85.6158 166.989Z" fill="#FFB9AE"/>
<path d="M82.9512 180.341L81.8821 185.008C81.962 184.986 82.0383 184.966 82.1138 184.946L83.1577 180.388L82.9512 180.341Z" fill="#FFB9AE"/>
<path d="M84.3313 180.657L83.4377 184.558C83.5221 184.531 83.6013 184.506 83.6731 184.481L84.5386 180.703L84.3313 180.657Z" fill="#FFB9AE"/>
<path d="M66.9449 182.419L67.1249 182.533L69.7747 178.347L69.5948 178.233L66.9449 182.419Z" fill="#FFB9AE"/>
<path d="M70.9719 179.105L70.792 178.991L68.1407 183.177L68.3206 183.29L70.9719 179.105Z" fill="#FFB9AE"/>
<path d="M70.8288 172.094L66.2872 174.076L66.3722 174.271L70.9137 172.288L70.8288 172.094Z" fill="#FFB9AE"/>
<path d="M71.3819 173.415L66.8412 175.395L66.9261 175.59L71.4669 173.609L71.3819 173.415Z" fill="#FFB9AE"/>
<path d="M62.5432 171.372L61.1955 176.14L61.4 176.198L62.7476 171.43L62.5432 171.372Z" fill="#FFB9AE"/>
<path d="M61.1799 170.986L59.8323 175.754L60.0368 175.812L61.3844 171.044L61.1799 170.986Z" fill="#FFB9AE"/>
<path d="M79.4781 173.747L78.0514 169.002L77.8485 169.063L79.2745 173.807L79.4781 173.747Z" fill="#FFB9AE"/>
<path d="M76.4922 169.47L77.9189 174.215L78.1218 174.154L76.6951 169.41L76.4922 169.47Z" fill="#FFB9AE"/>
<path d="M69.7331 157.466L69.6058 157.297L65.6507 160.28L65.7788 160.449L69.7331 157.466Z" fill="#FFB9AE"/>
<path d="M66.6303 161.58L70.5862 158.597L70.4589 158.427L66.5023 161.41L66.6303 161.58Z" fill="#FFB9AE"/>
<path d="M63.215 157.481L61.8393 152.723L61.6357 152.783L63.0114 157.54L63.215 157.481Z" fill="#FFB9AE"/>
<path d="M61.8548 157.875L60.4792 153.116L60.2756 153.175L61.6512 157.934L61.8548 157.875Z" fill="#FFB9AE"/>
<path d="M55.5408 152.887L55.2534 157.834L55.4655 157.846L55.7529 152.899L55.5408 152.887Z" fill="#FFB9AE"/>
<path d="M56.9522 152.969L56.6648 157.916L56.8769 157.928L57.1643 152.981L56.9522 152.969Z" fill="#FFB9AE"/>
<path d="M64.6654 186.703L63.3942 188.363C63.4897 188.354 63.5837 188.348 63.68 188.339L64.8342 186.831L64.6654 186.703Z" fill="#FFB9AE"/>
<path d="M65.7907 187.562L65.3465 188.143C65.4457 188.129 65.5464 188.114 65.6456 188.1L65.9588 187.691L65.7907 187.562Z" fill="#FFB9AE"/>
<path d="M55.8785 186.243L55.7252 186.389L57.8175 188.567C57.9175 188.569 58.0167 188.571 58.1174 188.573L55.8785 186.243Z" fill="#FFB9AE"/>
<path d="M54.8583 187.222L54.705 187.369L55.783 188.492C55.8859 188.498 55.9896 188.503 56.0932 188.509L54.8583 187.222Z" fill="#FFB9AE"/>
<path d="M73.5022 181.011L73.4195 181.205L77.98 183.14L78.0627 182.945L73.5022 181.011Z" fill="#FFB9AE"/>
<path d="M74.055 179.703L73.9723 179.898L78.5328 181.833L78.6155 181.638L74.055 179.703Z" fill="#FFB9AE"/>
<path d="M50.6343 152.675L50.735 152.489L48.2947 151.175V151.417L50.6343 152.675Z" fill="#FFB9AE"/>
<path d="M51.4051 151.242L48.2947 149.568V149.809L51.3044 151.429L51.4051 151.242Z" fill="#FFB9AE"/>
<path d="M48.2947 158.912L50.1731 157.289L50.0346 157.129L48.2947 158.632V158.912Z" fill="#FFB9AE"/>
<path d="M49.2483 156.217L49.1099 156.056L48.2947 156.76V157.041L49.2483 156.217Z" fill="#FFB9AE"/>
<path d="M52.6793 162.938L48.2947 164.655V164.883L52.7563 163.136L52.6793 162.938Z" fill="#FFB9AE"/>
<path d="M52.241 161.818L52.1632 161.621L48.2947 163.135V163.363L52.241 161.818Z" fill="#FFB9AE"/>
<path d="M50.9275 172.129L50.9749 171.922L48.2947 171.317V171.534L50.9275 172.129Z" fill="#FFB9AE"/>
<path d="M48.2947 170.083L51.24 170.748L51.2873 170.541L48.2947 169.865V170.083Z" fill="#FFB9AE"/>
<path d="M50.9223 187.381L50.9749 187.174L48.2947 186.494V186.713L50.9223 187.381Z" fill="#FFB9AE"/>
<path d="M51.3229 185.803L48.2947 185.033V185.252L51.2703 186.01L51.3229 185.803Z" fill="#FFB9AE"/>
<path d="M86.1733 146.307L86.1089 146.228H85.835L86.1763 146.645C86.1748 146.532 86.1741 146.418 86.1733 146.307Z" fill="#FFB9AE"/>
<path d="M81.7429 150.565L80.177 146.227H79.952L81.5438 150.637L81.7429 150.565Z" fill="#FFB9AE"/>
<path d="M82.8749 150.156L83.0741 150.084L81.6829 146.227H81.4571L82.8749 150.156Z" fill="#FFB9AE"/>
<path d="M73.4173 146.227H73.1982L72.6036 148.569L72.8095 148.622L73.4173 146.227Z" fill="#FFB9AE"/>
<path d="M73.9749 148.917L74.1807 148.97L74.8781 146.227H74.659L73.9749 148.917Z" fill="#FFB9AE"/>
<path d="M57.5606 148.215L58.1218 146.227H57.9012L57.3555 148.157L57.5606 148.215Z" fill="#FFB9AE"/>
<path d="M59.5937 146.227H59.3731L58.7186 148.542L58.9237 148.6L59.5937 146.227Z" fill="#FFB9AE"/>
<path d="M53.0562 148.736L53.259 148.675L52.5223 146.227H52.301L53.0562 148.736Z" fill="#FFB9AE"/>
<path d="M54.4103 148.329L54.6139 148.268L54.0001 146.227H53.7787L54.4103 148.329Z" fill="#FFB9AE"/>
<path d="M48.2947 56.7148L46.2853 58.4495L46.4245 58.6102L48.2947 56.9947V56.7148Z" fill="#FFB9AE"/>
<path d="M45.3607 57.3775L45.4999 57.5381L48.2948 55.1237V54.8431L45.3607 57.3775Z" fill="#FFB9AE"/>
<path d="M48.066 62.8266L48.1437 63.0243L48.2948 62.9658V62.7378L48.066 62.8266Z" fill="#FFB9AE"/>
<path d="M47.5493 61.5095L47.627 61.7072L48.2948 61.4458V61.2178L47.5493 61.5095Z" fill="#FFB9AE"/>
<path d="M46.1425 68.9133L46.0951 69.1206L48.2948 69.6174V69.3997L46.1425 68.9133Z" fill="#FFB9AE"/>
<path d="M46.4542 67.5325L46.4076 67.7398L48.2948 68.1655V67.9478L46.4542 67.5325Z" fill="#FFB9AE"/>
<path d="M48.2947 84.5768L46.1728 84.0378L46.1202 84.2436L48.2947 84.7959V84.5768Z" fill="#FFB9AE"/>
<path d="M48.2948 83.3352V83.116L46.5223 82.6659L46.4697 82.8717L48.2948 83.3352Z" fill="#FFB9AE"/>
<path d="M48.2947 90.8448V90.6205L46.8458 91.0988L46.9117 91.3002L48.2947 90.8448Z" fill="#FFB9AE"/>
<path d="M48.2948 89.3537V89.1301L46.4023 89.755L46.4682 89.9564L48.2948 89.3537Z" fill="#FFB9AE"/>
<path d="M42.5695 95.2686H42.8145L43.7459 93.6427L43.5616 93.5369L42.5695 95.2686Z" fill="#FFB9AE"/>
<path d="M44.2012 95.2686H44.4463L44.9749 94.3461L44.7906 94.2402L44.2012 95.2686Z" fill="#FFB9AE"/>
<path d="M37.2519 85.5745L37.1689 85.7701L41.7295 87.7046L41.8125 87.509L37.2519 85.5745Z" fill="#FFB9AE"/>
<path d="M37.6097 87.5013L41.1783 89.0154L41.2612 88.8199L37.543 87.2429C37.5652 87.328 37.5874 87.4154 37.6097 87.5013Z" fill="#FFB9AE"/>
<path d="M41.8056 74.88L40.4535 79.6463L40.6579 79.7043L42.01 74.9379L41.8056 74.88Z" fill="#FFB9AE"/>
<path d="M43.1721 75.2639L41.8201 80.0281L42.0245 80.0861L43.3766 75.3219L43.1721 75.2639Z" fill="#FFB9AE"/>
<path d="M34.4401 71.1463L35.8668 75.8914L36.0696 75.8307L34.6429 71.0856L34.4401 71.1463Z" fill="#FFB9AE"/>
<path d="M37.426 75.4213L35.9993 70.6769L35.7964 70.7383L37.2224 75.482L37.426 75.4213Z" fill="#FFB9AE"/>
<path d="M40.4008 67.1771L40.6066 67.2297L41.8261 62.4291L41.6195 62.3765L40.4008 67.1771Z" fill="#FFB9AE"/>
<path d="M42.9959 62.7318L41.7703 67.5316L41.9762 67.5842L43.2018 62.7844L42.9959 62.7318Z" fill="#FFB9AE"/>
<path d="M35.1264 66.8091L32.1893 65.5638C32.2093 65.6497 32.2285 65.7334 32.2492 65.82L35.0434 67.0046L35.1264 66.8091Z" fill="#FFB9AE"/>
<path d="M31.8547 64.1134L35.5966 65.7008L35.6795 65.5053L31.7962 63.858C31.8147 63.9417 31.8347 64.0283 31.8547 64.1134Z" fill="#FFB9AE"/>
<path d="M39.6385 57.7295L36.526 61.5832L36.6913 61.7167L39.8038 57.8631L39.6385 57.7295Z" fill="#FFB9AE"/>
<path d="M38.5419 56.8386L35.4308 60.6926L35.5962 60.8261L38.7073 56.9721L38.5419 56.8386Z" fill="#FFB9AE"/>
<path d="M38.866 54.467L39.074 52.6235C39.0037 52.6353 38.9326 52.6464 38.8564 52.6598L38.655 54.4433L38.866 54.467Z" fill="#FFB9AE"/>
<path d="M37.4601 54.3093L37.6185 52.9048C37.546 52.9211 37.4741 52.9366 37.3994 52.9537L37.2498 54.2856L37.4601 54.3093Z" fill="#FFB9AE"/>
<path d="M46.2698 99.3696L48.2948 100.459V100.217L46.3713 99.1823L46.2698 99.3696Z" fill="#FFB9AE"/>
<path d="M47.0428 97.9362L46.9421 98.1228L48.2948 98.8506V98.6092L47.0428 97.9362Z" fill="#FFB9AE"/>
<path d="M48.2947 107.673L46.2853 109.408L46.4245 109.568L48.2947 107.954V107.673Z" fill="#FFB9AE"/>
<path d="M45.4999 108.496L48.2948 106.082V105.802L45.3607 108.336L45.4999 108.496Z" fill="#FFB9AE"/>
<path d="M48.066 113.786L48.1437 113.983L48.2948 113.924V113.696L48.066 113.786Z" fill="#FFB9AE"/>
<path d="M47.5493 112.468L47.627 112.666L48.2948 112.405V112.177L47.5493 112.468Z" fill="#FFB9AE"/>
<path d="M48.2948 120.358L46.1425 119.872L46.0951 120.079L48.2948 120.576V120.358Z" fill="#FFB9AE"/>
<path d="M46.4542 118.491L46.4076 118.698L48.2948 119.124V118.906L46.4542 118.491Z" fill="#FFB9AE"/>
<path d="M48.2947 135.535L46.1728 134.996L46.1202 135.202L48.2947 135.754V135.535Z" fill="#FFB9AE"/>
<path d="M46.5223 133.624L46.4697 133.83L48.2948 134.294V134.075L46.5223 133.624Z" fill="#FFB9AE"/>
<path d="M48.2947 141.803V141.579L46.8458 142.057L46.9117 142.259L48.2947 141.803Z" fill="#FFB9AE"/>
<path d="M48.2948 140.313V140.089L46.4023 140.713L46.4682 140.915L48.2948 140.313Z" fill="#FFB9AE"/>
<path d="M43.7459 144.601L43.5616 144.496L42.5695 146.227H42.8145L43.7459 144.601Z" fill="#FFB9AE"/>
<path d="M44.9749 145.304L44.7906 145.199L44.2012 146.227H44.4463L44.9749 145.304Z" fill="#FFB9AE"/>
<path d="M33.3621 144.377L34.8761 146.227H35.1501L33.5264 144.243L33.3621 144.377Z" fill="#FFB9AE"/>
<path d="M34.4578 143.481L36.7049 146.227H36.9788L34.6222 143.347L34.4578 143.481Z" fill="#FFB9AE"/>
<path d="M30.2354 145.497L30.499 146.227H30.7248L30.4353 145.425L30.2354 145.497Z" fill="#FFB9AE"/>
<path d="M37.2522 136.535L37.1695 136.73L41.73 138.664L41.8127 138.469L37.2522 136.535Z" fill="#FFB9AE"/>
<path d="M36.6991 137.836L36.6165 138.03L41.177 139.965L41.2597 139.77L36.6991 137.836Z" fill="#FFB9AE"/>
<path d="M41.8071 125.822L40.4595 130.59L40.6639 130.648L42.0116 125.88L41.8071 125.822Z" fill="#FFB9AE"/>
<path d="M43.1708 126.224L41.8188 130.989L42.0232 131.047L43.3752 126.282L43.1708 126.224Z" fill="#FFB9AE"/>
<path d="M36.0696 126.789L34.6429 122.044L34.4401 122.105L35.8668 126.85L36.0696 126.789Z" fill="#FFB9AE"/>
<path d="M37.426 126.38L35.9993 121.636L35.7964 121.696L37.2224 126.441L37.426 126.38Z" fill="#FFB9AE"/>
<path d="M41.6163 113.343L40.3914 118.142L40.5973 118.195L41.8222 113.396L41.6163 113.343Z" fill="#FFB9AE"/>
<path d="M42.9942 113.694L41.7706 118.494L41.9765 118.547L43.2001 113.746L42.9942 113.694Z" fill="#FFB9AE"/>
<path d="M35.1264 117.767L32.9637 116.85C32.9422 116.918 32.9208 116.985 32.8993 117.054L35.0434 117.963L35.1264 117.767Z" fill="#FFB9AE"/>
<path d="M35.6795 116.464L33.4006 115.497C33.3784 115.565 33.3562 115.632 33.334 115.7L35.5966 116.66L35.6795 116.464Z" fill="#FFB9AE"/>
<path d="M31.9791 137.948L29.2249 138.335C29.2263 138.406 29.2271 138.477 29.2293 138.549L32.0087 138.158L31.9791 137.948Z" fill="#FFB9AE"/>
<path d="M32.1767 139.35L29.2692 139.759C29.2722 139.83 29.2759 139.901 29.2796 139.971L32.2063 139.56L32.1767 139.35Z" fill="#FFB9AE"/>
<path d="M31.9931 129.382L30.887 134.211L31.0935 134.258L32.1997 129.429L31.9931 129.382Z" fill="#FFB9AE"/>
<path d="M32.4736 134.573L33.579 129.745L33.3724 129.698L32.2663 134.526L32.4736 134.573Z" fill="#FFB9AE"/>
<path d="M39.6555 108.691L36.5435 112.546L36.7088 112.679L39.8208 108.825L39.6555 108.691Z" fill="#FFB9AE"/>
<path d="M38.541 107.795L35.427 111.647L35.5922 111.78L38.7063 107.929L38.541 107.795Z" fill="#FFB9AE"/>
<path d="M38.655 105.402L38.866 105.426L39.422 100.503L39.228 100.482C39.2199 100.501 39.2132 100.518 39.2051 100.537L38.655 105.402Z" fill="#FFB9AE"/>
<path d="M37.5504 104.467C37.4542 104.699 37.3564 104.935 37.2572 105.176L37.2498 105.244L37.4608 105.268L37.5504 104.467Z" fill="#FFB9AE"/>
<path d="M41.0983 97.8355L41.2826 97.9414L42.8145 95.2686H42.5694L41.0983 97.8355Z" fill="#FFB9AE"/>
<path d="M42.3273 98.5396L42.5117 98.6455L44.4463 95.2686H44.2012L42.3273 98.5396Z" fill="#FFB9AE"/>
<path d="M46.2698 150.328L48.2948 151.417V151.175L46.3713 150.141L46.2698 150.328Z" fill="#FFB9AE"/>
<path d="M47.0428 148.895L46.9421 149.082L48.2948 149.809V149.568L47.0428 148.895Z" fill="#FFB9AE"/>
<path d="M46.2853 160.367L46.4245 160.527L48.2947 158.912V158.632L46.2853 160.367Z" fill="#FFB9AE"/>
<path d="M48.2948 157.041V156.76L45.3607 159.295L45.4999 159.455L48.2948 157.041Z" fill="#FFB9AE"/>
<path d="M48.066 164.744L48.1437 164.941L48.2948 164.883V164.655L48.066 164.744Z" fill="#FFB9AE"/>
<path d="M48.2948 163.135L47.5493 163.427L47.627 163.624L48.2948 163.363V163.135Z" fill="#FFB9AE"/>
<path d="M48.2948 171.317L46.1425 170.83L46.0951 171.038L48.2948 171.534V171.317Z" fill="#FFB9AE"/>
<path d="M46.4542 169.45L46.4076 169.657L48.2948 170.083V169.865L46.4542 169.45Z" fill="#FFB9AE"/>
<path d="M48.2947 186.494L46.1728 185.955L46.1202 186.161L48.2947 186.713V186.494Z" fill="#FFB9AE"/>
<path d="M46.5223 184.583L46.4697 184.789L48.2948 185.252V185.033L46.5223 184.583Z" fill="#FFB9AE"/>
<path d="M31.6533 156.625C31.6644 156.677 31.6754 156.729 31.6872 156.78L31.7432 156.734L31.6533 156.625Z" fill="#FFB9AE"/>
<path d="M41.8007 176.799L40.4485 181.565L40.653 181.623L42.0051 176.857L41.8007 176.799Z" fill="#FFB9AE"/>
<path d="M43.1661 177.18L41.8126 181.944L42.017 182.002L43.3705 177.238L43.1661 177.18Z" fill="#FFB9AE"/>
<path d="M41.6206 164.307L40.3972 169.106L40.6031 169.159L41.8265 164.359L41.6206 164.307Z" fill="#FFB9AE"/>
<path d="M42.9925 164.654L41.7689 169.455L41.9748 169.507L43.1984 164.707L42.9925 164.654Z" fill="#FFB9AE"/>
<path d="M35.1265 168.726L34.7755 168.577C34.8022 168.665 34.8288 168.755 34.8547 168.841L35.0435 168.921L35.1265 168.726Z" fill="#FFB9AE"/>
<path d="M35.6794 167.423L34.2549 166.819C34.2809 166.908 34.306 166.994 34.3319 167.082L35.5965 167.619L35.6794 167.423Z" fill="#FFB9AE"/>
<path d="M39.6494 159.649L36.5339 163.501L36.699 163.635L39.8152 159.784L39.6494 159.649Z" fill="#FFB9AE"/>
<path d="M35.5988 162.745L38.7135 158.893L38.5477 158.759L35.4337 162.611L35.5988 162.745Z" fill="#FFB9AE"/>
<path d="M39.4213 151.462L39.211 151.438L38.655 156.361L38.866 156.384L39.4213 151.462Z" fill="#FFB9AE"/>
<path d="M37.8036 151.279L37.2491 156.203L37.4601 156.226L38.0146 151.303L37.8036 151.279Z" fill="#FFB9AE"/>
<path d="M41.2826 148.9L42.8145 146.227H42.5694L41.0983 148.794L41.2826 148.9Z" fill="#FFB9AE"/>
<path d="M44.2012 146.227L42.3273 149.498L42.5117 149.604L44.4463 146.227H44.2012Z" fill="#FFB9AE"/>
<path d="M36.4998 148.212L36.6642 148.078L35.1501 146.227H34.8762L36.4998 148.212Z" fill="#FFB9AE"/>
<path d="M37.5948 147.315L37.7592 147.18L36.9788 146.227H36.7049L37.5948 147.315Z" fill="#FFB9AE"/>
<path d="M30.3917 150.102L30.5849 150.637L30.7848 150.565L30.2192 148.999C30.2762 149.367 30.331 149.735 30.3917 150.102Z" fill="#FFB9AE"/>
<path d="M31.9161 150.156L32.116 150.084L30.7248 146.227H30.499L31.9161 150.156Z" fill="#FFB9AE"/>
<path d="M40.1166 52.4776C40.1166 52.4776 29.9704 53.509 30.6782 58.4629C31.386 63.4167 39.8019 96.4488 40.2735 97.392C40.7451 98.336 32.2522 113.671 29.6572 130.657C27.0622 147.642 36.4991 174.066 36.9707 175.245C37.4423 176.425 39.8019 184.918 39.8019 184.918C39.8019 184.918 51.3622 190.344 66.4608 187.984C81.5593 185.625 84.3905 184.21 84.3905 184.21C84.3905 184.21 87.4572 151.181 85.57 134.666C83.6827 118.152 81.0877 105.413 80.8515 102.581C80.6153 99.7501 79.4359 93.3807 80.8515 90.5494C82.2671 87.7182 84.1544 80.8771 82.9749 74.7431C81.7955 68.609 81.5593 66.4856 82.0309 64.1268C82.5026 61.7672 82.9749 57.5211 81.5593 55.3977C80.1437 53.2743 70.9645 48.5625 70.9645 48.5625C70.9645 48.5625 47.9016 47.0514 40.1166 52.4776Z" stroke="#263238" stroke-width="0.74038" stroke-miterlimit="10" stroke-linecap="round" stroke-linejoin="round"/>
<path d="M57.3985 94.4475C58.1574 94.7755 58.8941 95.0546 59.5937 95.2694" stroke="#263238" stroke-width="0.74038" stroke-miterlimit="10" stroke-linecap="round" stroke-linejoin="round"/>
<path d="M42.5087 85.0292C42.5087 85.0292 48.9145 90.1045 54.9523 93.2703" stroke="#263238" stroke-width="0.74038" stroke-miterlimit="10" stroke-linecap="round" stroke-linejoin="round"/>
<path d="M58.9222 64.2474C59.4338 64.9478 59.9543 65.6319 60.48 66.2887C65.6145 72.707 67.4114 73.477 68.6953 71.1663C69.9791 68.8556 72.8029 58.8434 72.8029 53.4527" stroke="#263238" stroke-width="0.74038" stroke-miterlimit="10" stroke-linecap="round" stroke-linejoin="round"/>
<path d="M50.6344 50.7585C50.6344 50.7585 53.8987 57.0717 57.9538 62.8903" stroke="#263238" stroke-width="0.74038" stroke-miterlimit="10" stroke-linecap="round" stroke-linejoin="round"/>
<path d="M46.8459 91.0988C46.8459 91.0988 55.8585 96.069 60.7362 98.1228" stroke="#263238" stroke-width="0.74038" stroke-miterlimit="10" stroke-linecap="round" stroke-linejoin="round"/>
<path d="M77.3058 12.4786C77.3058 12.4786 82.1671 18.5882 82.022 22.3049C81.8769 26.0224 82.4981 32.0402 80.7826 35.9198C79.0672 39.7994 81.3223 41.1528 78.8139 42.4692C76.3055 43.7856 69.9449 43.6486 69.9449 43.6486C69.9449 43.6486 70.709 53.6185 69.9057 56.0818C69.5037 57.313 68.3346 68.1655 66.1305 68.5912C63.9264 69.017 58.994 59.6134 57.6124 56.62C56.2849 53.7437 54.3896 49.7138 54.3896 49.7138L56.0251 36.8867C56.0251 36.8867 49.4942 32.5362 50.6047 27.9259C51.7153 23.3155 57.3888 29.6058 57.3888 29.6058C57.3888 29.6058 59.4093 31.2487 60.4481 28.4967C61.4861 25.7455 61.4054 24.9599 61.4054 24.9599C61.4054 24.9599 74.9677 18.0085 77.3058 12.4786Z" fill="#FFB9AE" stroke="#263238" stroke-width="0.74038" stroke-miterlimit="10" stroke-linecap="round" stroke-linejoin="round"/>
<path d="M75.5089 21.2262C75.5089 21.2262 72.2268 19.2138 69.8013 21.9962" stroke="#263238" stroke-width="0.74038" stroke-miterlimit="10" stroke-linecap="round" stroke-linejoin="round"/>
<path d="M79.7164 21.6963C79.7164 21.6963 78.8457 23.7753 78.8517 25.5833C78.8576 27.3913 81.1209 30.0508 80.6952 31.1798C80.2695 32.3089 76.9748 31.9254 76.9748 31.9254" stroke="#263238" stroke-width="0.74038" stroke-miterlimit="10" stroke-linecap="round" stroke-linejoin="round"/>
<path d="M79.2937 35.1224C79.2937 35.1224 77.8618 35.2704 76.6098 35.3993C75.3571 35.5288 72.976 35.2319 72.976 35.2319C72.976 35.2319 74.7396 38.3053 76.19 38.3364C77.6397 38.3675 77.4183 36.2203 77.4183 36.2203L79.2937 35.1224Z" fill="#263238" stroke="#263238" stroke-width="0.74038" stroke-miterlimit="10" stroke-linecap="round" stroke-linejoin="round"/>
<path d="M74.3871 26.1342C74.4841 27.073 74.242 27.8674 73.8466 27.9081C73.4513 27.9488 73.0522 27.221 72.9552 26.2822C72.8582 25.3434 73.1003 24.549 73.4957 24.5083C73.8911 24.4676 74.2901 25.1954 74.3871 26.1342Z" fill="#263238"/>
<path d="M80.9713 25.0932C81.0683 26.032 80.8262 26.8264 80.4309 26.8671C80.0355 26.9079 79.6364 26.1801 79.5395 25.2413C79.4425 24.3025 79.6846 23.508 80.0799 23.4673C80.4753 23.4266 80.8743 24.1544 80.9713 25.0932Z" fill="#263238"/>
<path d="M79.9637 20.5858C79.9637 20.5858 81.1239 19.5618 81.9139 20.2037" stroke="#263238" stroke-width="0.74038" stroke-miterlimit="10" stroke-linecap="round" stroke-linejoin="round"/>
<path d="M69.9448 43.6493L64.8732 41.1402L69.9108 48.695L69.9448 43.6493Z" fill="#263238" stroke="#263238" stroke-width="0.74038" stroke-miterlimit="10" stroke-linecap="round" stroke-linejoin="round"/>
<path d="M85.5699 134.667C85.2922 132.236 84.9991 129.89 84.6999 127.641C80.3946 129.658 73.2307 131.97 63.1578 131.836C49.1336 131.649 36.0081 125.686 31.1631 123.219C30.5641 125.634 30.0444 128.126 29.6579 130.657C27.0628 147.643 36.4997 174.066 36.9713 175.245C37.443 176.425 39.8026 184.918 39.8026 184.918C39.8026 184.918 51.3629 190.344 66.4614 187.984C81.56 185.625 84.3912 184.21 84.3912 184.21C84.3912 184.21 87.4571 151.182 85.5699 134.667Z" fill="#263238" stroke="#263238" stroke-width="0.74038" stroke-miterlimit="10" stroke-linecap="round" stroke-linejoin="round"/>
<path d="M16.9174 108.481L9.36775 152.598L1.11029 162.035C1.11029 162.035 1.34647 163.686 2.76134 165.337C4.17695 166.988 6.77198 166.753 6.77198 166.753L11.0188 166.281C11.0188 166.281 8.65995 170.764 10.311 170.292C11.962 169.82 13.3776 166.518 14.7933 164.158C16.2089 161.799 15.2649 152.126 15.2649 152.126L27.7684 110.369C27.7684 110.369 19.7479 111.311 16.9174 108.481Z" fill="#FFB9AE" stroke="#263238" stroke-width="0.74038" stroke-miterlimit="10" stroke-linecap="round" stroke-linejoin="round"/>
<path d="M3.40546 162.097C3.40546 162.097 4.75295 166.147 5.76283 166.449" stroke="#263238" stroke-width="0.74038" stroke-miterlimit="10" stroke-linecap="round" stroke-linejoin="round"/>
<path d="M6.12567 162.097C6.12567 162.097 7.03264 165.543 8.30165 166.631" stroke="#263238" stroke-width="0.74038" stroke-miterlimit="10" stroke-linecap="round" stroke-linejoin="round"/>
<path d="M8.48309 161.553C8.48309 161.553 10.2911 165.568 11.0189 166.281C11.8644 165.999 12.4345 165.208 12.4345 164.316V160.147" stroke="#263238" stroke-width="0.74038" stroke-miterlimit="10" stroke-linecap="round" stroke-linejoin="round"/>
<path d="M42.3961 51.3878C42.3961 51.3878 27.533 54.4544 26.1174 58.2296C24.7018 62.0041 19.7479 89.8431 19.7479 89.8431C19.7479 89.8431 15.7373 93.146 16.9167 95.5055C18.0961 97.8644 18.3323 99.7524 18.3323 99.7524C18.3323 99.7524 16.4451 101.64 17.1529 103.055C17.8607 104.471 17.8607 105.65 17.8607 105.65L16.9167 108.481C16.9167 108.481 18.3323 111.548 22.1067 111.548C25.8812 111.548 27.7684 110.369 27.7684 110.369L30.3635 103.999C30.3635 103.999 32.2507 101.64 32.4869 99.2807C32.7231 96.9212 32.4869 95.2701 32.4869 94.3261C32.4869 93.3821 33.6663 93.1467 33.9025 91.7311C34.1387 90.3155 34.1387 87.4843 34.1387 87.4843L40.0365 70.0261" fill="#E0A4EF"/>
<path d="M29.1025 94.9473L28.9026 95.0191L28.9929 95.2686H29.2187L29.1025 94.9473Z" fill="#FFB9AE"/>
<path d="M30.2353 94.5386L30.4989 95.2686H30.7247L30.4352 94.4668L30.2353 94.5386Z" fill="#FFB9AE"/>
<path d="M22.4591 95.2686L23.07 92.8624L22.8641 92.8098L22.2393 95.2686H22.4591Z" fill="#FFB9AE"/>
<path d="M24.2368 93.1585L23.7 95.2686H23.9192L24.4426 93.2104L24.2368 93.1585Z" fill="#FFB9AE"/>
<path d="M31.5784 54.9527L31.7427 54.818L31.5251 54.5522C31.4562 54.5796 31.3866 54.607 31.3177 54.6351L31.5784 54.9527Z" fill="#FFB9AE"/>
<path d="M30.6485 55.7153L30.1702 55.1304C30.1035 55.1608 30.0354 55.1911 29.9703 55.2215L30.4841 55.85L30.6485 55.7153Z" fill="#FFB9AE"/>
<path d="M34.4399 71.1463L35.8667 75.8914L36.0695 75.8307L34.6428 71.0856L34.4399 71.1463Z" fill="#FFB9AE"/>
<path d="M37.426 75.4213L35.9993 70.6769L35.7964 70.7384L37.2224 75.482L37.426 75.4213Z" fill="#FFB9AE"/>
<path d="M30.5599 64.8783L30.477 65.074L35.0369 67.0077L35.1198 66.8121L30.5599 64.8783Z" fill="#FFB9AE"/>
<path d="M31.1165 63.5648L31.0336 63.7604L35.5941 65.6949L35.6771 65.4993L31.1165 63.5648Z" fill="#FFB9AE"/>
<path d="M19.5998 89.9705L19.9419 91.1084L20.1455 91.0477L19.7612 89.7706C19.7531 89.8172 19.7479 89.8431 19.7479 89.8431C19.7479 89.8431 19.6909 89.8905 19.5998 89.9705Z" fill="#FFB9AE"/>
<path d="M21.2983 90.699L21.5011 90.6383L20.315 86.6943C20.2862 86.8527 20.2588 87.006 20.2321 87.1541L21.2983 90.699Z" fill="#FFB9AE"/>
<path d="M31.9767 86.9998L27.0709 87.6893L27.1005 87.8998L32.0063 87.2102L31.9767 86.9998Z" fill="#FFB9AE"/>
<path d="M32.1796 88.3937L27.2738 89.0828L27.3034 89.2932L32.2092 88.6041L32.1796 88.3937Z" fill="#FFB9AE"/>
<path d="M30.8869 83.2523L31.0935 83.2996L32.1996 78.4709L31.993 78.4235L30.8869 83.2523Z" fill="#FFB9AE"/>
<path d="M32.2662 83.5669L32.4735 83.615L33.5789 78.787L33.3723 78.7396L32.2662 83.5669Z" fill="#FFB9AE"/>
<path d="M26.8895 67.146L28.3162 71.8904L28.5191 71.8297L27.0924 67.0853L26.8895 67.146Z" fill="#FFB9AE"/>
<path d="M25.5331 67.5532L26.9599 72.2976L27.1635 72.2361L25.7367 67.4925L25.5331 67.5532Z" fill="#FFB9AE"/>
<path d="M39.6385 57.7295L36.5259 61.5832L36.6912 61.7167L39.8038 57.8631L39.6385 57.7295Z" fill="#FFB9AE"/>
<path d="M38.5419 56.8386L35.4308 60.6926L35.5961 60.8261L38.7072 56.9721L38.5419 56.8386Z" fill="#FFB9AE"/>
<path d="M38.8659 54.467L39.1265 52.1585C39.0525 52.177 38.9822 52.1948 38.9066 52.2148L38.6549 54.4441L38.8659 54.467Z" fill="#FFB9AE"/>
<path d="M37.46 54.3093L37.6584 52.5465C37.5858 52.5665 37.5118 52.5872 37.4378 52.6079L37.249 54.2856L37.46 54.3093Z" fill="#FFB9AE"/>
<path d="M22.5439 79.0933L22.4609 79.2889L27.0215 81.2234L27.1045 81.0278L22.5439 79.0933Z" fill="#FFB9AE"/>
<path d="M23.097 77.7919L23.014 77.9875L27.5746 79.922L27.6576 79.7264L23.097 77.7919Z" fill="#FFB9AE"/>
<path d="M19.166 97.7785L17.6201 97.1225C17.6549 97.2158 17.6867 97.3054 17.7178 97.395L19.0823 97.974L19.166 97.7785Z" fill="#FFB9AE"/>
<path d="M18.6129 99.0816L18.1627 98.8905C18.1849 98.9824 18.2042 99.0675 18.2212 99.146L18.5299 99.277L18.6129 99.0816Z" fill="#FFB9AE"/>
<path d="M30.3391 104.061L28.6066 101.943L28.4422 102.078L30.248 104.285L30.3391 104.061Z" fill="#FFB9AE"/>
<path d="M27.5099 102.839L27.3456 102.974L29.6393 105.777L29.7311 105.552L27.5099 102.839Z" fill="#FFB9AE"/>
<path d="M22.8864 104.574L24.5692 109.234L24.7691 109.162L23.0863 104.502L22.8864 104.574Z" fill="#FFB9AE"/>
<path d="M24.4306 104.024L24.2307 104.096L25.9118 108.756L26.1117 108.684L24.4306 104.024Z" fill="#FFB9AE"/>
<path d="M18.6469 106.339L17.2898 107.362L17.1713 107.717L18.775 106.508L18.6469 106.339Z" fill="#FFB9AE"/>
<path d="M17.4372 109.29L19.6272 107.639L19.4991 107.469L17.3091 109.12C17.3491 109.174 17.392 109.231 17.4372 109.29Z" fill="#FFB9AE"/>
<path d="M30.7847 99.6065L29.2188 95.2686H28.993L30.5848 99.6783L30.7847 99.6065Z" fill="#FFB9AE"/>
<path d="M31.916 99.1978L32.1159 99.126L30.7247 95.2686H30.4989L31.916 99.1978Z" fill="#FFB9AE"/>
<path d="M21.6448 97.6104L21.8506 97.663L22.4592 95.2686H22.2393L21.6448 97.6104Z" fill="#FFB9AE"/>
<path d="M23.0159 97.9592L23.2224 98.0117L23.9191 95.2686H23.7L23.0159 97.9592Z" fill="#FFB9AE"/>
<path d="M42.3961 51.3878C42.3961 51.3878 27.533 54.4544 26.1174 58.2296C24.7018 62.0041 19.7479 89.8431 19.7479 89.8431C19.7479 89.8431 15.7373 93.146 16.9167 95.5055C18.0961 97.8644 18.3323 99.7524 18.3323 99.7524C18.3323 99.7524 16.4451 101.64 17.1529 103.055C17.8607 104.471 17.8607 105.65 17.8607 105.65L16.9167 108.481C16.9167 108.481 18.3323 111.548 22.1067 111.548C25.8812 111.548 27.7684 110.369 27.7684 110.369L30.3635 103.999C30.3635 103.999 32.2507 101.64 32.4869 99.2807C32.7231 96.9211 32.4869 95.2701 32.4869 94.3261C32.4869 93.3821 33.6663 93.1467 33.9025 91.7311C34.1387 90.3155 34.1387 87.4843 34.1387 87.4843L40.0365 70.0261" stroke="#263238" stroke-width="0.74038" stroke-miterlimit="10" stroke-linecap="round" stroke-linejoin="round"/>
<path d="M97.7536 42.5136C97.7536 42.5136 98.6191 41.4852 100.405 40.8359C102.191 40.1866 102.786 40.7818 102.732 41.323C102.678 41.8643 101.92 42.5136 101.92 42.5136H97.7536Z" fill="#FFB9AE" stroke="#263238" stroke-width="0.74038" stroke-miterlimit="10" stroke-linecap="round" stroke-linejoin="round"/>
<path d="M111.183 43.4191L105.732 45.5691L85.1693 44.3593L85.0346 43.4183L94.7114 42.0745L111.317 42.3433C111.317 42.3433 111.855 42.478 111.183 43.4191Z" fill="#FFB9AE" stroke="#263238" stroke-width="0.74038" stroke-miterlimit="10" stroke-linecap="round" stroke-linejoin="round"/>
<path d="M99.6704 49.2858C99.6704 49.2858 102.776 48.3915 103.447 47.9887C104.119 47.5852 106.269 45.3011 105.597 45.0324C104.925 44.7636 103.447 45.5699 103.447 45.5699L93.988 44.8487L90.9036 46.8507L90.3083 50.0432L99.6704 49.2858Z" fill="#FFB9AE" stroke="#263238" stroke-width="0.74038" stroke-miterlimit="10" stroke-linecap="round" stroke-linejoin="round"/>
<path d="M107.746 85.8325L93.5905 55.6346C93.5905 55.6346 97.9639 52.6871 98.4748 51.8853C98.939 51.1568 100.625 48.5255 100.625 47.5844C100.625 46.6434 99.8186 45.8372 98.8775 45.0309C97.9365 44.2246 95.9212 42.0745 94.7114 42.0745C93.5016 42.0745 94.4427 43.4183 95.1149 44.6281C95.7872 45.8379 96.7275 47.1817 96.5935 47.8539C96.4587 48.5262 95.2497 48.5262 95.2497 48.5262C95.2497 48.5262 94.9809 46.2414 94.7122 45.5699C94.4434 44.8976 92.0246 43.2851 90.4113 42.21C88.7987 41.135 87.9925 41.0002 87.9925 41.6725C87.9925 42.3448 91.3523 45.5699 91.3523 45.5699L91.8898 48.2574C91.8898 48.2574 91.4863 49.0637 90.9488 48.5262C90.4113 47.9887 87.1855 42.2093 86.1104 42.0753C85.0354 41.9405 89.0668 50.4075 89.0668 50.4075C89.0668 50.4075 86.9167 53.9021 87.1855 55.2459C87.4542 56.5897 97.8373 93.3821 97.8373 93.3821C97.8373 93.3821 100.196 95.5055 102.556 95.9772C104.915 96.4488 108.454 95.0332 109.161 92.4381C109.869 89.8431 107.746 85.8325 107.746 85.8325Z" fill="#FFB9AE" stroke="#263238" stroke-width="0.74038" stroke-miterlimit="10" stroke-linecap="round" stroke-linejoin="round"/>
<path d="M103.448 45.5691L101.727 46.5798L100.537 46.6338" fill="#FFB9AE"/>
<path d="M103.448 45.5691L101.727 46.5798L100.537 46.6338" stroke="#263238" stroke-width="0.74038" stroke-miterlimit="10" stroke-linecap="round" stroke-linejoin="round"/>
<path d="M98.1557 52.1363C98.1557 52.1363 94.4338 53.2136 92.7687 53.5075C91.1036 53.8014 90.3203 52.9196 90.3203 52.9196" fill="#FFB9AE"/>
<path d="M98.1557 52.1363C98.1557 52.1363 94.4338 53.2136 92.7687 53.5075C91.1036 53.8014 90.3203 52.9196 90.3203 52.9196" stroke="#263238" stroke-width="0.74038" stroke-miterlimit="10" stroke-linecap="round" stroke-linejoin="round"/>
<path d="M95.2496 48.5255L95.8049 50.0795" stroke="#263238" stroke-width="0.74038" stroke-miterlimit="10" stroke-linecap="round" stroke-linejoin="round"/>
</svg>
