<svg width="28" height="29" viewBox="0 0 28 29" fill="none" xmlns="http://www.w3.org/2000/svg">
<path d="M1.36092 21.0039C1.92 20.6261 2.33737 20.0383 2.73346 19.5044C3.13616 18.9612 3.61191 18.3742 3.88123 17.7409C3.89321 17.807 3.91112 17.8718 3.92903 17.9363C3.88941 17.7822 3.86022 17.6249 3.84837 17.4696C3.76349 16.3651 4.39942 15.1235 5.29423 15.3017C5.29789 15.3027 5.30156 15.3035 5.30537 15.3044C6.3206 13.3696 8.26237 11.1767 10.672 9.56592C10.7422 9.4266 10.7838 9.3499 10.7838 9.3499C13.0344 7.90602 15.2143 7.3107 17.0987 7.17857C20.4118 6.72821 24.3268 6.8671 25.9605 6.95551C25.9412 6.94014 25.9223 6.92477 25.9035 6.90898C25.8866 6.84891 25.8697 6.78898 25.8526 6.72933C25.8457 6.70551 25.8326 6.68563 25.8155 6.67237C25.7985 6.62626 25.7777 6.57832 25.7535 6.52855C25.745 6.51135 25.727 6.49823 25.707 6.4885C25.2575 4.62936 23.6376 3.04603 22.1246 2.03305C20.3285 0.830146 18.1614 0.15615 16.0115 0.0193764C11.3774 -0.275181 7.19877 2.8231 5.37192 6.9627C4.85655 8.1305 4.50672 9.43295 4.50701 10.714C4.50729 11.2134 4.57144 11.7052 4.67889 12.189C4.66874 12.19 4.65887 12.1927 4.65026 12.1996C3.47824 13.107 2.51222 14.1469 1.71865 15.4025C0.925216 16.6574 0.194255 18.1144 0.0271651 19.6063C-0.0302236 20.1201 -0.03347 20.799 0.397438 21.1598C0.692842 21.4072 1.09879 21.1807 1.36092 21.0039Z" fill="#325405"/>
<path d="M22.932 8.55295C23.8513 9.54308 24.1641 10.6603 24.6023 10.357C25.4503 9.76981 25.0215 8.53955 25.0215 8.53955L25.6745 8.88699C26.0449 8.91758 26.4654 8.84581 26.7454 8.75232C27.4437 8.51868 28.1831 7.89812 27.9592 7.09158C27.959 7.09003 27.9578 7.08876 27.9572 7.08735C27.9569 7.07889 27.9572 7.07156 27.9565 7.06324C27.954 7.0208 27.8966 6.9761 27.8515 6.98484C27.7845 6.962 27.7157 6.984 27.7196 7.07706C27.4193 7.30802 27.1285 7.4486 26.7216 7.35498C26.4482 7.29251 26.1865 7.13825 25.9605 6.95551C24.3268 6.8671 20.4118 6.72821 17.0986 7.17858C20.1113 6.96764 22.3667 7.94367 22.932 8.55295Z" fill="#8C4606"/>
<path d="M5.30566 15.3045C6.19314 15.486 6.70118 16.126 6.70118 16.126C6.72177 15.9973 6.75434 15.7904 6.75434 15.7904C7.61771 16.7379 8.92313 17.9072 8.84402 17.3894C8.3835 14.3675 10.1977 10.5095 10.6721 9.56606C8.26252 11.1768 6.32089 13.3698 5.30566 15.3045Z" fill="#8C4606"/>
<path d="M20.4975 28.0179C21.5833 27.2564 19.3479 25.4698 19.3479 25.4698C23.9785 24.7 25.3393 20.4686 25.3393 20.4686L25.4383 20.3479C25.4193 20.3496 25.3997 20.353 25.3811 20.3549C25.4957 20.0389 25.5914 19.7137 25.6612 19.378C25.8887 18.2824 25.7526 17.116 25.6092 16.0202C25.4253 14.6147 26.0838 13.4028 26.3589 12.061C26.5905 10.9303 26.2381 9.86288 25.6742 8.88699L25.0212 8.53955C25.0212 8.53955 25.45 9.76981 24.602 10.357C24.1639 10.6603 23.851 9.54323 22.9317 8.55295C22.0126 7.56282 16.6325 5.5975 10.7833 9.34991C10.7833 9.34991 8.31505 13.921 8.84339 17.3894C8.92236 17.9072 7.61708 16.738 6.75372 15.7904C6.75372 15.7904 6.72114 15.9973 6.70056 16.126C6.70056 16.126 6.18857 15.4802 5.29376 15.3017C4.39895 15.1235 3.76316 16.3651 3.8479 17.4696C3.85975 17.6249 3.88893 17.7824 3.92856 17.9364C3.92983 17.9417 3.93081 17.9472 3.93237 17.9523C3.93871 17.9767 3.94618 18.0006 3.95295 18.0249C4.14077 18.6143 4.5659 19.1215 5.13034 19.4062C5.68871 19.6878 6.50132 19.6274 6.87272 19.1381C7.42546 20.8921 8.58212 22.4881 10.0167 23.6298C13.1466 26.0358 16.7643 25.7883 16.7643 25.7883C17.622 26.9936 19.4122 28.7793 20.4975 28.0179Z" fill="#9B5D42"/>
<path d="M3.95369 18.0249C3.94678 18.0006 3.93931 17.9767 3.93311 17.9523C3.93973 17.9768 3.94565 18.0008 3.95369 18.0249Z" fill="#4B1E0A"/>
<path d="M26.7788 7.7134C27.1029 7.80153 27.4231 7.72863 27.6561 7.53531C27.3912 8.2323 26.3677 8.60709 25.6038 8.51262C25.365 8.51445 25.1378 8.48667 24.9159 8.43957C24.887 8.30999 24.8386 8.1828 24.765 8.05562C24.583 7.7409 24.3062 7.56393 23.9947 7.39106C23.9528 7.36794 23.9374 7.42378 23.9714 7.44676C24.24 7.62767 24.4737 7.81845 24.6224 8.11329C24.7107 8.28827 24.7503 8.49724 24.7835 8.7041C24.8086 9.02502 24.7722 9.34256 24.667 9.65559C24.6274 9.77389 24.4579 10.1961 24.3371 9.91927C24.2524 9.72524 24.1223 9.5411 24.0088 9.36386C23.7814 9.00782 23.5067 8.68577 23.2104 8.38641C22.5797 7.74851 21.805 7.43139 20.9637 7.17124C20.5284 7.03672 20.0852 6.94859 19.6299 6.93492C19.6097 6.93421 19.5885 6.93308 19.5679 6.93238C20.3588 6.87992 21.1574 6.84721 21.9565 6.84129C22.4988 6.81577 23.8997 6.90672 24.2027 7.09228C24.257 7.10116 24.3117 7.11258 24.366 7.12288C24.6516 7.13557 24.9376 7.14544 25.2235 7.13388C25.4078 7.1264 25.6006 7.12231 25.7664 7.17434C25.794 7.15361 25.8159 7.12936 25.8325 7.10116C26.0838 7.3905 26.394 7.60892 26.7788 7.7134Z" fill="#FFB05A"/>
<path d="M4.87549 10.6531C4.87492 9.40828 5.27735 8.14812 5.77524 7.01995C6.73886 4.83565 8.4147 2.97863 10.458 1.75528C14.521 -0.677327 20.032 0.254006 23.4095 3.47355C24.4146 4.43224 24.9758 5.55858 25.5113 6.8028C25.3521 6.95593 25.043 6.81648 24.7571 6.82099C24.7032 6.82198 24.6496 6.82142 24.5958 6.82226C24.4354 6.7973 24.2748 6.77121 24.1144 6.7495C24.095 6.73653 24.0726 6.7347 24.0543 6.74062C22.4354 6.527 20.8207 6.48808 19.1653 6.59835C17.2125 6.72863 15.3194 6.99711 13.4669 7.65235C11.7368 8.26445 10.1056 9.1704 8.73111 10.3915C7.99746 11.0428 7.35166 11.8151 6.71954 12.5637C6.36492 12.9841 5.95812 13.4593 5.63719 13.9695C5.1919 12.9138 4.87577 11.8152 4.87549 10.6531Z" fill="#BDD81E"/>
<path d="M6.35422 15.1216C6.41655 15.3049 6.52103 15.4929 6.64497 15.6722C6.63665 15.6861 6.62932 15.7009 6.62565 15.7207C6.61071 15.8042 6.5983 15.8876 6.58632 15.9707C6.2386 15.629 5.74692 15.3682 5.29443 15.3017C5.3146 15.2976 5.33335 15.2886 5.34731 15.2692C5.38454 15.2176 5.4188 15.1641 5.45335 15.111C5.50862 14.8499 5.67317 14.6529 5.85521 14.4628C5.85253 14.4579 5.85056 14.4528 5.84802 14.4478C5.9157 14.3296 5.98465 14.2124 6.05839 14.0978C6.34675 13.6508 6.67966 13.233 7.01877 12.8241C7.61423 12.1071 8.23973 11.3912 8.91923 10.7526C9.40457 10.2967 9.93572 9.89079 10.4962 9.52728C10.2843 9.76107 10.1066 10.0199 9.95871 10.3616C9.64004 11.0972 9.21604 11.8185 8.99932 12.5919C8.57969 14.0875 8.37932 15.6009 8.53668 17.1469C8.08716 16.8938 7.72393 16.5085 7.36762 16.1399C7.05417 15.8162 6.88792 15.2123 6.469 15.0256C6.39596 14.9927 6.32659 15.0412 6.35422 15.1216Z" fill="#FFB05A"/>
<path d="M2.73247 19.0363C2.37925 19.5531 2.00686 20.0735 1.5603 20.5149C1.39815 20.6751 1.2202 20.8078 1.02195 20.9182C0.570874 21.169 0.429591 20.7059 0.388559 20.3453C0.306777 19.6256 0.517434 18.8822 0.756436 18.2136C1.55508 15.9806 3.03915 14.0098 4.72133 12.3633C4.88786 13.0429 5.13589 13.7054 5.42283 14.344C5.28775 14.6051 5.18129 14.8736 5.12249 15.1477C5.10938 15.2068 5.16281 15.2693 5.22359 15.2938C5.18707 15.2901 5.14998 15.2825 5.11445 15.2817C4.22161 15.2592 3.93142 16.4256 3.85726 17.1277C3.84527 17.2425 3.84273 17.3565 3.84894 17.4696C3.82158 17.4677 3.79423 17.4779 3.77773 17.509C3.48797 18.0415 3.07497 18.5355 2.73247 19.0363Z" fill="#BDD81E"/>
<path d="M5.14411 19.0407C4.42541 18.6775 4.16201 17.8365 4.23688 17.0893C4.28821 16.5758 4.54244 15.6345 5.16356 15.5852C5.6097 15.5503 6.1771 15.7925 6.56726 16.1158C6.53286 16.406 6.51974 16.6957 6.52299 16.985C6.23224 16.8283 5.93274 16.6612 5.59518 16.6572C5.20911 16.6522 5.01875 16.9736 5.06557 17.3307C5.08037 17.443 5.20347 17.5257 5.31218 17.503C5.36393 17.492 5.39185 17.4754 5.43711 17.4452C5.49774 17.4053 5.47871 17.3288 5.43331 17.2855C5.42964 17.2822 5.42668 17.2804 5.42358 17.277C5.4491 17.051 5.55457 16.9765 5.826 16.981C5.92104 16.9829 6.01523 16.9944 6.10914 17.0112C6.03807 17.1538 6.00804 17.3113 5.9381 17.4585C5.86238 17.6185 6.14185 17.7841 6.22913 17.6139C6.3198 17.4368 6.36633 17.2549 6.34151 17.0638C6.40327 17.082 6.46433 17.102 6.52411 17.1242C6.54146 17.6817 6.62634 18.2346 6.76889 18.7752C6.30048 19.2037 5.77468 19.3592 5.14411 19.0407Z" fill="#FFD9C0"/>
<path opacity="0.9" d="M5.14411 19.0407C4.42541 18.6775 4.16201 17.8365 4.23688 17.0893C4.28821 16.5758 4.54244 15.6345 5.16356 15.5852C5.6097 15.5503 6.1771 15.7925 6.56726 16.1158C6.53286 16.406 6.51974 16.6957 6.52299 16.985C6.23224 16.8283 5.93274 16.6612 5.59518 16.6572C5.20911 16.6522 5.01875 16.9736 5.06557 17.3307C5.08037 17.443 5.20347 17.5257 5.31218 17.503C5.36393 17.492 5.39185 17.4754 5.43711 17.4452C5.49774 17.4053 5.47871 17.3288 5.43331 17.2855C5.42964 17.2822 5.42668 17.2804 5.42358 17.277C5.4491 17.051 5.55457 16.9765 5.826 16.981C5.92104 16.9829 6.01523 16.9944 6.10914 17.0112C6.03807 17.1538 6.00804 17.3113 5.9381 17.4585C5.86238 17.6185 6.14185 17.7841 6.22913 17.6139C6.3198 17.4368 6.36633 17.2549 6.34151 17.0638C6.40327 17.082 6.46433 17.102 6.52411 17.1242C6.54146 17.6817 6.62634 18.2346 6.76889 18.7752C6.30048 19.2037 5.77468 19.3592 5.14411 19.0407Z" fill="#F2CAB3"/>
<path d="M6.87851 16.4112C6.89909 16.4105 6.917 16.3986 6.90361 16.3744C6.89768 16.3639 6.88894 16.3536 6.88259 16.3431C6.88612 16.2296 6.8919 16.1157 6.89909 16.0011C7.00076 16.1188 7.10567 16.2286 7.20705 16.3235C7.63641 16.7264 8.07563 17.1284 8.61131 17.384C8.67574 17.4149 8.74779 17.3829 8.74032 17.3052C8.59241 15.7718 8.89655 14.2244 9.29151 12.7482C9.47199 12.0752 9.83424 11.4706 10.08 10.8218C10.2054 10.4901 10.2898 10.1534 10.4414 9.83045C10.5295 9.64249 10.6505 9.49162 10.7835 9.34991C11.6784 8.80253 12.6392 8.35724 13.6148 8.00149C15.0885 7.46483 16.6005 7.20199 18.1445 7.0483C19.4905 6.98767 20.7613 7.15109 21.986 7.75586C22.5639 8.04125 23.0483 8.4871 23.4554 8.97991C23.6188 9.17717 23.7599 9.39178 23.8962 9.60822C24.0088 9.7873 24.1 10.1353 24.2621 10.2763C24.8465 10.7846 25.1254 9.29816 25.1257 9.00191C25.1257 8.89714 25.1174 8.78843 25.1024 8.67901C25.1185 8.7051 25.1378 8.72864 25.1641 8.74486C25.2062 8.77052 25.254 8.7904 25.3027 8.80887C25.3709 8.93563 25.438 9.06367 25.5006 9.1941C26.1019 10.4547 26.0091 11.5831 25.5716 12.8757C25.2976 13.6845 25.0018 14.4177 24.9971 15.2819C24.9915 16.3826 25.4383 17.429 25.4352 18.5463C25.4262 21.79 22.3452 23.9561 19.5433 24.7745C13.7694 26.4605 6.72298 22.8639 6.87851 16.4112Z" fill="#FFD9C0"/>
<path d="M19.2451 25.4935C19.512 25.8138 19.7187 26.2196 19.979 26.5317C20.1798 26.7722 20.4809 27.1213 20.273 27.4517C20.1024 27.7229 19.6496 27.7334 19.3771 27.6807C18.2902 27.4684 17.7275 26.5002 16.9971 25.7808C17.7568 25.7553 18.5116 25.658 19.2451 25.4935Z" fill="#FFD9C0"/>
<path opacity="0.9" d="M23.3011 18.126C23.0865 19.2843 20.9415 20.1621 18.0343 19.2485C16.5977 18.7976 15.8685 18.2583 15.7362 18.484C15.6037 18.7099 16.3613 19.299 16.4583 19.4786C16.555 19.658 16.9676 21.3462 19.761 21.7638C22.554 22.1813 23.1446 20.4832 23.0597 19.647C23.0597 19.647 24.1124 18.8873 23.7844 18.0627C23.4565 17.2378 23.3415 17.9098 23.3011 18.126Z" fill="#F2CAB3"/>
<path d="M20.6391 10.1013C20.7068 10.019 20.7782 9.94451 20.8512 9.87627C21.1125 9.71919 21.434 9.61654 21.724 9.5913C22.2934 9.54181 22.6999 9.96299 23.0699 10.3297C23.2013 10.4603 23.4217 10.2932 23.2913 10.1456C23.14 9.97455 22.9805 9.81423 22.8081 9.67759C22.6413 9.44607 22.1052 9.18352 21.9195 9.1532C21.3109 9.05337 20.5949 9.36838 20.5017 10.0307C20.4919 10.1029 20.5875 10.1639 20.6391 10.1013Z" fill="#FFB05A"/>
<path d="M13.6384 12.2728C13.7247 12.1914 13.7982 12.0993 13.8654 12.0032C14.2856 11.7333 14.538 11.2735 14.9997 11.0256C15.6 10.7024 16.3577 11.0749 16.8964 11.3553C17.0142 11.4163 17.1008 11.2684 16.9998 11.1887C16.7442 10.9865 16.4726 10.8251 16.1838 10.7195C16.0036 10.6394 15.7999 10.5771 15.7058 10.5561C15.3336 10.4724 15.0116 10.4967 14.6636 10.6531C14.1263 10.8946 13.8814 11.3193 13.6738 11.8052C13.6204 11.8874 13.5716 11.9676 13.5287 12.0441C13.5156 12.0669 13.5274 12.0943 13.5476 12.1132C13.5372 12.1391 13.5269 12.1655 13.5163 12.1917C13.4925 12.2509 13.593 12.3161 13.6384 12.2728Z" fill="#FFB05A"/>
<path d="M22.0586 17.3608C22.418 17.0112 22.6483 16.3633 22.3945 15.895C22.1046 15.3606 21.3778 15.2877 20.9292 14.9265C20.2984 14.419 19.9396 13.6287 19.6824 12.8823C19.6701 12.8486 19.6081 12.8486 19.6202 12.8905C19.9063 13.8696 20.3558 14.7984 21.2487 15.355C21.2975 15.3854 21.3503 15.4108 21.4049 15.4344C21.2374 15.4545 21.073 15.5239 20.9356 15.6552C20.8856 15.7037 20.97 15.7877 21.0232 15.7456C21.2879 15.5355 21.6301 15.5111 21.9104 15.6518C22.2471 15.857 22.3537 16.1807 22.2241 16.5998C21.9937 17.3472 21.268 17.4991 20.5923 17.4999C20.4901 17.5005 20.4949 17.615 20.5782 17.6491C21.1216 17.8705 21.6367 17.7717 22.0586 17.3608Z" fill="#9B5D42"/>
<path d="M21.9217 21.2498C22.5313 20.8629 22.7284 20.2095 22.858 19.54C23.3759 19.2688 23.7498 18.8557 23.6642 18.2264C23.6575 18.1744 23.5641 18.1469 23.565 18.213C23.5689 19.3808 21.8663 19.6457 20.9884 19.7474C20.1771 19.8415 19.353 19.7867 18.5508 19.6452C18.1053 19.5664 17.6765 19.4648 17.2607 19.2831C17.049 19.1904 16.8396 19.1142 16.6412 19.0184C16.6329 19.0105 16.6232 19.0062 16.6132 19.0039C16.4239 18.91 16.2447 18.7975 16.0844 18.6329C16.0566 18.6047 15.9981 18.6256 16.0241 18.6672C16.1676 18.8974 16.3763 19.0441 16.607 19.1703C17.2185 20.4481 18.5404 21.2907 19.9225 21.5069C20.5545 21.6065 21.3628 21.6047 21.9217 21.2498Z" fill="#9B5D42"/>
<path d="M19.7818 21.2647C18.5542 21.0891 17.3956 20.3257 16.7725 19.2567C17.1973 19.4703 17.6323 19.6581 18.0944 19.7741C19.0477 20.0133 20.088 20.1177 21.068 20.0138C21.5329 19.9645 22.1994 19.8502 22.7424 19.5968C22.556 20.1292 22.3248 20.6727 21.861 21.0039C21.2873 21.4134 20.4396 21.3589 19.7818 21.2647Z" fill="white"/>
<path d="M21.4604 22.3922C21.8539 22.2856 21.9842 22.0246 22.2586 21.7597C22.3082 21.7115 22.2307 21.6419 22.1788 21.6751C21.9213 21.8402 21.6326 22.0346 21.3339 22.1057C21.0199 22.1803 20.6506 22.1838 20.3278 22.1911C20.239 22.1933 20.2915 22.3021 20.3486 22.3161C20.7369 22.4093 21.0619 22.5005 21.4604 22.3922Z" fill="#9B5D42"/>
<path d="M13.3392 17.4031C13.6608 16.9177 13.9571 16.4724 14.4753 16.178C14.9636 15.9002 15.5851 15.8416 16.1324 15.8792C16.1635 15.8815 16.1566 15.8342 16.1305 15.8303C15.5452 15.7417 14.9859 15.7082 14.4334 15.9496C13.8578 16.201 13.4454 16.7674 13.2713 17.356C13.2612 17.3898 13.3147 17.4406 13.3392 17.4031Z" fill="#9B5D42"/>
<path d="M22.6551 13.884C23.0273 13.7647 24.1691 13.6686 24.343 14.1244C24.3551 14.156 24.4191 14.1589 24.4083 14.1173C24.2419 13.4723 23.0471 13.5424 22.6079 13.8011C22.5634 13.8276 22.6126 13.8977 22.6551 13.884Z" fill="#9B5D42"/>
<path d="M14.9519 6.17731C14.9934 6.27657 15.0505 6.35821 15.1296 6.37951C15.1976 6.33735 15.2679 6.30068 15.3449 6.28278C16.0778 6.06648 16.8114 5.88232 17.586 5.78122C18.8545 5.61597 20.1946 5.71369 21.4614 5.92491C21.4713 5.94775 21.4816 5.96918 21.4916 5.9916C21.5239 5.98272 21.5511 5.97003 21.5748 5.95494C21.5735 5.95142 21.5722 5.94775 21.5718 5.94395C21.5762 5.94451 21.5803 5.94521 21.5846 5.94606C21.5858 5.92716 21.5865 5.90799 21.587 5.88952C21.5763 5.8867 21.5653 5.88444 21.5547 5.88218C21.3087 4.98963 21.0239 4.10624 20.3386 3.4469C19.6042 2.73991 18.4388 2.38796 17.4359 2.46918C16.5592 2.54011 15.7397 3.02093 15.2554 3.75246C14.8303 4.39544 14.7339 5.39262 14.9669 6.17082C14.9618 6.17265 14.9569 6.17491 14.9519 6.17731Z" fill="#4C7007"/>
<path d="M6.71954 12.5638C7.35152 11.8151 7.99746 11.0429 8.73111 10.3916C10.1056 9.17055 11.7368 8.26459 13.4669 7.65249C15.3195 6.99725 17.2125 6.72878 19.1653 6.59849C20.8207 6.48822 22.4353 6.52714 24.0543 6.74076C24.0726 6.7347 24.095 6.73667 24.1144 6.74965C24.2748 6.77122 24.4354 6.79744 24.5958 6.8224C24.6498 6.82156 24.7033 6.82212 24.7571 6.82113C25.0429 6.81662 25.3521 6.95607 25.5113 6.80294C24.9758 5.55872 24.4146 4.43224 23.4095 3.4737C20.0322 0.254151 14.5212 -0.677182 10.458 1.75542C8.4147 2.97877 6.73886 4.8358 5.77524 7.02009C5.27735 8.14826 4.87492 9.40828 4.87549 10.6532C4.87577 11.8154 5.1919 12.9139 5.63719 13.9698C5.95798 13.4593 6.36492 12.9843 6.71954 12.5638ZM13.6791 0.869209C18.3597 -0.427041 22.0986 2.41588 22.9976 3.33368C24.8242 5.19818 25.2562 6.59948 24.0939 6.4149C22.9315 6.23019 22.4055 6.14671 22.1541 6.10681C21.9026 6.06676 21.2658 1.95706 17.6248 2.15221C13.9836 2.3475 14.5526 6.23555 14.623 6.41081C14.6935 6.58608 11.4928 6.95903 8.66229 9.43309C5.83135 11.9067 6.76805 2.78292 13.6791 0.869209Z" fill="#BDD81E"/>
<path d="M15.5014 4.07916C15.8981 3.30547 16.7947 2.87766 17.6271 2.8104C18.5185 2.73849 19.4566 3.12428 20.1284 3.68787C20.7722 4.22778 21.0956 5.0786 21.4301 5.85342C20.1942 5.57874 18.9504 5.37654 17.6777 5.49428C16.8717 5.56915 16.043 5.75767 15.2667 6.05124C15.1668 5.38401 15.1963 4.67589 15.5014 4.07916Z" fill="#FFB05A"/>
<path opacity="0.6" d="M22.195 5.30393C21.1303 2.3647 17.4512 0.53531 15.0093 2.70579C13.8019 3.77925 14.2878 5.76896 13.9821 5.84736C12.9069 6.12288 11.1871 6.71792 9.93541 7.7103C8.68372 8.70269 9.37436 2.03559 14.6076 0.922786C19.573 -0.13263 22.3252 3.49978 22.195 5.30393Z" fill="#BDD81E"/>
<path opacity="0.6" d="M17.6777 5.4943C18.9504 5.37656 20.1943 5.57876 21.4301 5.85343C21.0956 5.07862 20.7721 4.2278 20.1283 3.68789C19.4566 3.1243 18.5185 2.73865 17.627 2.81042C16.7947 2.87768 15.8979 3.30549 15.5014 4.07918C15.1963 4.67591 15.1668 5.38403 15.2668 6.05126C16.043 5.75769 16.8717 5.56931 17.6777 5.4943ZM18.9411 3.1556C20.2022 3.46821 21.2104 5.2677 20.7967 5.46285C20.3823 5.65828 18.976 4.59511 16.5955 5.33228C14.7714 5.89728 15.6206 2.33298 18.9411 3.1556Z" fill="#E0954B"/>
<path opacity="0.6" d="M24.6671 9.65545C24.7723 9.34242 24.8087 9.02489 24.7836 8.70396C24.7506 8.49711 24.7109 8.28828 24.6226 8.11315C24.4737 7.81817 24.2402 7.62754 23.9716 7.44663C23.9376 7.42379 23.953 7.3678 23.9948 7.39093C24.3063 7.5638 24.5831 7.74062 24.7651 8.05548C24.8387 8.18253 24.8871 8.30985 24.916 8.43943C25.138 8.48653 25.3651 8.51431 25.604 8.51247C26.3678 8.60694 27.3913 8.2323 27.6563 7.53518C27.4233 7.72849 27.103 7.80139 26.779 7.71327C26.3942 7.60892 26.084 7.39036 25.8325 7.1013C25.8159 7.12936 25.7941 7.15362 25.7664 7.17449C25.6006 7.12246 25.4078 7.12655 25.2235 7.13402C24.9376 7.14558 24.6516 7.13571 24.366 7.12302C24.3115 7.11273 24.257 7.10145 24.2027 7.09242C23.8998 6.90686 22.4988 6.81591 21.9565 6.84144C21.1574 6.84736 20.3588 6.87993 19.5679 6.93252C19.5886 6.93323 19.6097 6.93436 19.6299 6.93506C20.0852 6.94874 20.5284 7.03687 20.9637 7.17138C21.805 7.43154 22.5797 7.74865 23.2104 8.38655C23.5068 8.68591 23.7814 9.00782 24.0088 9.364C24.1223 9.54124 24.2526 9.72539 24.3371 9.91941C24.458 10.1959 24.6275 9.77376 24.6671 9.65545ZM21.8238 7.24978C19.644 6.80054 22.8306 6.84693 23.6697 7.03503C24.5084 7.22313 24.6717 7.27883 25.1045 7.25853C25.5374 7.2378 25.7853 7.22652 25.9191 7.39206C26.2563 7.80872 26.8555 7.994 27.2928 7.79786C27.7302 7.60173 26.9397 8.44522 26.1055 8.38303C25.2716 8.32085 24.5641 7.36456 23.8633 7.30012C23.1623 7.23568 24.8059 7.61371 24.7302 9.02403C24.6547 10.4344 24.2073 7.74076 21.8238 7.24978Z" fill="#E0954B"/>
<path opacity="0.6" d="M7.36762 16.1398C7.72393 16.5083 8.08716 16.8936 8.53668 17.1467C8.37932 15.6008 8.57983 14.0875 8.99932 12.5917C9.21604 11.8183 9.64004 11.0969 9.95871 10.3615C10.1066 10.0198 10.2843 9.76093 10.4962 9.52715C9.93572 9.89065 9.40471 10.2966 8.91923 10.7525C8.23987 11.3911 7.61423 12.107 7.01877 12.824C6.67966 13.2329 6.34661 13.6507 6.05839 14.0977C5.98465 14.2124 5.9157 14.3296 5.84802 14.4476C5.85056 14.4527 5.85253 14.4578 5.85521 14.4627C5.67317 14.6528 5.50862 14.8496 5.45335 15.1109C5.4188 15.1639 5.38454 15.2175 5.34731 15.2691C5.33335 15.2884 5.3146 15.2973 5.29443 15.3015C5.74692 15.3681 6.2386 15.6288 6.58632 15.9706C6.5983 15.8873 6.61071 15.8039 6.62565 15.7206C6.62918 15.7007 6.63665 15.6859 6.64497 15.6721C6.52103 15.4926 6.41669 15.3048 6.35422 15.1215C6.32659 15.0412 6.39596 14.9927 6.46886 15.0253C6.88778 15.2121 7.05417 15.8161 7.36762 16.1398ZM6.48437 14.7298C6.40273 15.2464 5.97985 14.3248 7.44954 12.5387C8.91923 10.7525 9.9494 10.0339 9.16443 11.5831C8.48239 12.928 8.13102 14.9913 8.26342 15.9266C8.39625 16.8619 7.32405 15.496 7.01638 14.627C6.70913 13.7574 6.56686 14.2089 6.48437 14.7298Z" fill="#E0954B"/>
<path opacity="0.9" d="M19.5433 24.7748C22.3452 23.9564 25.4262 21.7903 25.4352 18.5466C25.4383 17.4293 24.9915 16.3828 24.9971 15.2822C25.0018 14.418 25.2976 13.6848 25.5715 12.876C26.0092 11.5834 26.1019 10.4549 25.5006 9.19437C25.438 9.0638 25.3709 8.93591 25.3027 8.80915C25.2539 8.79067 25.2061 8.77065 25.1641 8.74513C25.138 8.72906 25.1186 8.70537 25.1024 8.67929C25.1174 8.78871 25.1257 8.89742 25.1257 9.00218C25.1254 9.29857 24.8465 10.785 24.262 10.2766C24.1002 10.1356 24.0088 9.78743 23.8961 9.6085C23.7599 9.39206 23.6188 9.17745 23.4554 8.98019C23.0483 8.48752 22.5639 8.04167 21.986 7.75613C20.7612 7.15137 19.4905 6.98808 18.1444 7.04857C16.6004 7.20226 15.0885 7.46509 13.6148 8.00175C12.6392 8.35751 11.6784 8.80281 10.7835 9.35018C10.6506 9.49189 10.5295 9.64276 10.4414 9.83072C10.29 10.1536 10.2054 10.4905 10.08 10.8221C9.83423 11.471 9.47199 12.0755 9.29151 12.7485C8.89655 14.2248 8.59241 15.7721 8.74032 17.3055C8.74779 17.3832 8.67574 17.415 8.6113 17.3843C8.07562 17.1287 7.6364 16.7267 7.20704 16.3238C7.10566 16.2289 7.00075 16.1191 6.89909 16.0013C6.8919 16.116 6.88611 16.2299 6.88259 16.3434C6.88893 16.3537 6.89768 16.364 6.9036 16.3747C6.91713 16.3988 6.89908 16.4108 6.8785 16.4115C6.72325 22.8639 13.7697 26.4605 19.5433 24.7748ZM10.0865 19.3543C8.57774 14.6309 10.9768 8.13318 16.2517 7.84172C19.382 7.66885 22.6742 8.68041 23.6648 10.0238C24.8218 11.5941 24.9999 11.3578 25.1508 10.2598C25.302 9.16208 26.2702 10.8864 25.245 13.2086C24.2202 15.5307 24.938 17.1958 25.1797 18.0507C25.421 18.9055 25.4394 21.7255 21.9823 23.5678C18.9851 25.1644 14.0297 25.3054 10.8087 22.1789C7.47156 18.9392 10.2238 19.7848 10.0865 19.3543Z" fill="#F2CAB3"/>
<path d="M19.4474 12.5687C19.4474 12.5687 19.5124 12.7652 19.6093 13.0597C19.6585 13.2052 19.7146 13.3739 19.7792 13.5513C19.8115 13.6402 19.846 13.7312 19.8827 13.8224C19.9165 13.9149 19.9557 14.0068 19.9991 14.0961C20.0351 14.1894 20.0829 14.2755 20.126 14.3629C20.1696 14.4497 20.2202 14.5297 20.2652 14.6109C20.3164 14.687 20.3663 14.7608 20.4134 14.8309C20.4677 14.8939 20.519 14.9552 20.5657 15.0142C20.6195 15.0654 20.6686 15.1123 20.7127 15.1543C20.7549 15.2006 20.8023 15.2244 20.8375 15.253C20.9095 15.3061 20.9522 15.3398 20.9522 15.3398C20.9522 15.3398 20.9023 15.3282 20.813 15.3023C20.7696 15.2866 20.7092 15.2784 20.6547 15.2435C20.598 15.2126 20.5306 15.1793 20.462 15.135C20.3987 15.0853 20.3291 15.0314 20.259 14.9692C20.1968 14.9011 20.126 14.8313 20.0647 14.7509C20.0093 14.6675 19.9392 14.5869 19.8917 14.493C19.8418 14.4005 19.7869 14.3078 19.7459 14.2098C19.7025 14.1125 19.6638 14.0135 19.6311 13.9149C19.5933 13.8175 19.5723 13.7172 19.5457 13.6222C19.4979 13.4306 19.4687 13.2491 19.4544 13.0924C19.4221 12.7793 19.4474 12.5687 19.4474 12.5687Z" fill="#FFD0B0"/>
<path d="M20.8694 15.8579C20.8694 15.8579 20.9225 15.8137 21.0312 15.7581C21.1401 15.7057 21.3089 15.6392 21.5287 15.6367C21.6377 15.6374 21.7601 15.649 21.8812 15.6947C21.9407 15.7175 22.0033 15.7422 22.0614 15.7771C22.0934 15.797 22.1129 15.8065 22.1557 15.8369C22.1806 15.8588 22.2009 15.8699 22.2354 15.9112C22.3582 16.0455 22.3799 16.2392 22.3412 16.3946C22.3015 16.5513 22.2227 16.6871 22.1295 16.8039C21.9366 17.0336 21.6885 17.1973 21.4385 17.2982C21.1882 17.4003 20.9373 17.4386 20.7262 17.4414C20.5147 17.4431 20.3417 17.4115 20.2254 17.3791C20.1663 17.3663 20.1223 17.3464 20.0914 17.3372C20.0613 17.3268 20.0449 17.3213 20.0449 17.3213C20.0449 17.3213 20.1144 17.3245 20.2323 17.3243C20.2917 17.3252 20.363 17.321 20.4437 17.3168C20.5249 17.31 20.615 17.298 20.7119 17.2825C20.9048 17.2456 21.1236 17.1823 21.3379 17.0752C21.5494 16.9667 21.7618 16.819 21.9145 16.6288C21.9923 16.5366 22.053 16.432 22.081 16.3302C22.107 16.2299 22.1002 16.133 22.0518 16.0723C22.0493 16.061 22.0186 16.0346 21.9975 16.0139C21.9887 16.0091 21.9569 15.9841 21.9383 15.9696C21.8956 15.9355 21.8479 15.9104 21.802 15.8857C21.7085 15.8385 21.611 15.8123 21.518 15.7956C21.3305 15.7667 21.1638 15.788 21.0491 15.8103C20.9342 15.8336 20.8694 15.8579 20.8694 15.8579Z" fill="#FFD0B0"/>
<path d="M16.127 16.0267C16.127 16.0267 16.0662 16.0287 15.9632 16.0415C15.8606 16.0546 15.7151 16.0743 15.5469 16.1166C15.4622 16.1336 15.3736 16.1656 15.2794 16.1916C15.1882 16.2267 15.0901 16.2587 14.995 16.3047C14.9474 16.3269 14.8984 16.3501 14.8498 16.3732C14.8031 16.4005 14.756 16.428 14.7084 16.4557C14.6094 16.5053 14.5244 16.5806 14.433 16.644C14.3444 16.7119 14.2638 16.7907 14.1811 16.8636C14.1099 16.9485 14.0311 17.0243 13.9613 17.1051C13.9 17.192 13.8363 17.2735 13.776 17.352C13.7202 17.4335 13.6742 17.5156 13.626 17.5885C13.5788 17.6621 13.5346 17.7298 13.5043 17.7951C13.4702 17.8584 13.4402 17.9137 13.4158 17.9592C13.365 18.0501 13.333 18.1026 13.333 18.1026C13.333 18.1026 13.3423 18.0438 13.3639 17.9407C13.3755 17.8893 13.3896 17.8267 13.406 17.7547C13.42 17.6813 13.4475 17.603 13.4826 17.5188C13.5169 17.4347 13.549 17.3399 13.5977 17.2466C13.6493 17.155 13.704 17.0572 13.7652 16.9589C13.8346 16.8664 13.9086 16.7708 13.9877 16.6772C14.0774 16.5936 14.1649 16.5033 14.2622 16.4255C14.3666 16.3558 14.4639 16.276 14.5757 16.2232C14.6301 16.1938 14.6837 16.1645 14.7387 16.1404C14.7949 16.1192 14.8508 16.0984 14.9053 16.0779C15.0138 16.0339 15.1263 16.0155 15.2291 15.9915C15.3343 15.975 15.4327 15.9599 15.5252 15.9589C15.6167 15.9517 15.7013 15.9583 15.7755 15.9622C15.8492 15.9681 15.9131 15.9768 15.9653 15.987C16.0698 16.0054 16.127 16.0267 16.127 16.0267Z" fill="#FFD0B0"/>
<path d="M24.4858 14.4475C24.4858 14.4475 24.372 14.3507 24.1948 14.2543C24.1501 14.2312 24.101 14.2076 24.0496 14.1851C23.9977 14.1628 23.9424 14.1433 23.8842 14.1258C23.8283 14.1037 23.7646 14.0968 23.7051 14.0789C23.6418 14.0716 23.5797 14.0562 23.5152 14.0525C23.45 14.0501 23.3863 14.0386 23.3216 14.0428C23.2571 14.0462 23.1932 14.0381 23.1309 14.047C23.0675 14.0511 23.0067 14.0554 22.9486 14.0587C22.8912 14.0682 22.8357 14.074 22.7834 14.079C22.6789 14.0875 22.5927 14.1078 22.5288 14.1122C22.4655 14.1189 22.4277 14.1208 22.4277 14.1208C22.4277 14.1208 22.4561 14.0975 22.5087 14.0607C22.5624 14.0271 22.6361 13.9676 22.7382 13.9259C22.8378 13.8771 22.9595 13.8323 23.0981 13.803C23.1655 13.7831 23.2401 13.7814 23.3142 13.7735C23.3885 13.7628 23.4652 13.7743 23.5418 13.776C23.6184 13.7825 23.6944 13.8008 23.7681 13.8173C23.8402 13.8433 23.9129 13.8619 23.9767 13.898C24.0427 13.9283 24.1008 13.9679 24.1542 14.007C24.2079 14.0448 24.2532 14.0882 24.2921 14.1294C24.372 14.2109 24.4196 14.2939 24.4486 14.3516C24.4775 14.4111 24.4858 14.4475 24.4858 14.4475Z" fill="#9B5D42"/>
<path d="M25.3756 12.8885C25.3756 12.8885 25.321 13.0405 25.2194 13.3041C25.1646 13.4346 25.1123 13.5975 25.052 13.7831C24.9849 13.9662 24.933 14.1801 24.8738 14.4114C24.8598 14.4693 24.8416 14.5274 24.8302 14.5882C24.8212 14.6495 24.8114 14.7117 24.8018 14.7752C24.7868 14.9018 24.7526 15.0308 24.747 15.1662C24.7416 15.3011 24.7366 15.4397 24.7309 15.5812C24.7291 15.7227 24.7526 15.8663 24.7615 16.0125C24.7704 16.0851 24.7687 16.1596 24.7858 16.2323C24.8021 16.3052 24.8189 16.3785 24.8355 16.4523C24.8733 16.5988 24.8903 16.7519 24.95 16.8962C25.0011 17.0421 25.0525 17.1894 25.104 17.3374C25.1584 17.5028 25.2201 17.6356 25.2614 17.8051C25.3573 18.1383 25.3777 18.4695 25.3797 18.7993C25.3729 19.1285 25.3165 19.4479 25.2397 19.7484C25.157 20.0473 25.0518 20.3285 24.9269 20.5814C24.867 20.7095 24.8048 20.8314 24.736 20.9448C24.6721 21.0607 24.6019 21.1679 24.5339 21.2695C24.4684 21.3729 24.3994 21.4676 24.331 21.5558C24.2653 21.6456 24.1992 21.7279 24.1341 21.8024C24.0087 21.9557 23.8891 22.0799 23.7921 22.1832C23.6961 22.2873 23.6098 22.3584 23.5559 22.4115C23.5008 22.4634 23.4712 22.4909 23.4712 22.4909C23.4712 22.4909 23.5754 22.367 23.7511 22.1472C23.8372 22.0358 23.943 21.9022 24.0517 21.7392C24.1085 21.6603 24.1651 21.5734 24.2212 21.4796C24.2793 21.3869 24.3417 21.2913 24.3983 21.1856C24.4575 21.082 24.5181 20.9733 24.5721 20.8567C24.6003 20.7993 24.6293 20.7411 24.6587 20.6817C24.6847 20.6206 24.7108 20.5592 24.7375 20.4963C24.8457 20.2468 24.9306 19.9733 25.0025 19.6886C25.0686 19.4019 25.1054 19.1008 25.1115 18.7952C25.1074 18.4925 25.0816 18.1742 24.996 17.8864C24.9647 17.7419 24.8942 17.5783 24.8508 17.438C24.7982 17.2824 24.7456 17.1271 24.6937 16.9734C24.6322 16.8224 24.6173 16.6584 24.5824 16.5026C24.5674 16.4244 24.5526 16.3464 24.5376 16.2693C24.5225 16.1916 24.5255 16.1123 24.5186 16.0349C24.5143 15.8797 24.4925 15.7271 24.5035 15.5782C24.5165 15.4294 24.5294 15.2842 24.542 15.1428C24.5559 15.0019 24.5951 14.8688 24.6204 14.7384C24.6352 14.6742 24.6494 14.6106 24.6638 14.5479C24.6795 14.486 24.7024 14.4276 24.7209 14.3691C24.7598 14.2537 24.7973 14.1422 24.8331 14.0366C24.8697 13.9317 24.918 13.8368 24.956 13.7457C25.0355 13.5639 25.1036 13.4064 25.1704 13.2821C25.2986 13.0308 25.3756 12.8885 25.3756 12.8885Z" fill="#FFD0B0"/>
<path d="M16.6307 13.622C16.7239 14.6445 16.2582 15.5232 15.5905 15.5833C14.9234 15.6446 14.3064 14.8653 14.2133 13.8433C14.121 12.8211 14.5862 11.9425 15.2535 11.8814C15.9218 11.8204 16.5382 12.6005 16.6307 13.622Z" fill="white"/>
<path d="M15.6725 15.6221C15.6467 15.6266 15.6211 15.6301 15.5948 15.6323C15.2553 15.6636 14.9187 15.492 14.6479 15.1501C14.3816 14.8138 14.2099 14.3513 14.1641 13.8475C14.0697 12.8052 14.5544 11.8971 15.2487 11.8324C15.5889 11.8015 15.9252 11.9726 16.1962 12.3151C16.462 12.6514 16.6333 13.114 16.679 13.6174C16.7708 14.6205 16.3285 15.5012 15.6725 15.6221ZM15.1897 11.9394C14.583 12.0513 14.1759 12.8853 14.2621 13.8389C14.3061 14.3237 14.4706 14.7674 14.7249 15.0886C14.9746 15.4045 15.2804 15.5627 15.5857 15.5346C16.2303 15.4788 16.6714 14.6151 16.5816 13.6263C16.5376 13.1415 16.3732 12.6976 16.1192 12.3761C15.8695 12.0608 15.5637 11.9025 15.2576 11.9301C15.2346 11.9324 15.212 11.9356 15.1897 11.9394Z" fill="#D8906E"/>
<path d="M14.517 13.7863C14.541 14.5651 14.9787 15.1872 15.4944 15.1783C16.0099 15.1691 16.4096 14.5317 16.3856 13.7534C16.3615 12.9751 15.9246 12.353 15.4092 12.3622C14.893 12.371 14.4942 13.0088 14.517 13.7863Z" fill="#7B92A6"/>
<path d="M14.517 13.7863C14.541 14.5651 14.9787 15.1872 15.4944 15.1783C16.0099 15.1691 16.4096 14.5317 16.3856 13.7534C16.3615 12.9751 15.9246 12.353 15.4092 12.3622C14.893 12.371 14.4942 13.0088 14.517 13.7863Z" fill="#9F693D"/>
<path opacity="0.6" d="M14.7405 13.8357C14.7594 14.4289 15.0934 14.9046 15.4868 14.8973C15.8807 14.89 16.1842 14.4024 16.167 13.8087C16.1481 13.2155 15.8144 12.7408 15.421 12.7474C15.0267 12.7543 14.7226 13.2412 14.7405 13.8357Z" fill="#FF9C05"/>
<path d="M14.859 13.7774C14.8734 14.2464 15.1371 14.6209 15.4473 14.6157C15.7595 14.6102 15.9993 14.2255 15.9848 13.7561C15.9705 13.2876 15.7057 12.9117 15.3954 12.9173C15.0849 12.9234 14.8448 13.3079 14.859 13.7774Z" fill="#5E4627"/>
<path d="M16.3648 13.5295C16.3759 13.6026 16.3829 13.677 16.3857 13.7536C16.4096 14.5317 16.0099 15.1693 15.4944 15.1784C14.9789 15.1873 14.5411 14.5652 14.5171 13.7865C14.5153 13.7143 14.5189 13.6445 14.5233 13.5754C15.0976 13.9875 15.9202 14.0707 16.3648 13.5295Z" fill="#9F693D"/>
<path d="M15.5783 13.4275C15.6069 13.6687 15.7589 13.8479 15.9187 13.8279C16.078 13.808 16.1842 13.5962 16.1563 13.3553C16.1281 13.1143 15.9752 12.9356 15.815 12.9551C15.6562 12.9751 15.5501 13.1868 15.5783 13.4275Z" fill="white"/>
<path d="M15.7787 14.176C15.7921 14.291 15.8638 14.3757 15.9394 14.3665C16.016 14.3571 16.0665 14.256 16.0535 14.1418C16.0394 14.0274 15.9669 13.9416 15.8913 13.9513C15.8158 13.9607 15.7647 14.0617 15.7787 14.176Z" fill="white"/>
<path d="M15.4493 14.76C14.6786 14.7358 14.2733 13.5937 14.2103 13.401C14.2009 13.5442 14.1985 13.6911 14.2128 13.8433C14.3058 14.8653 14.9229 15.6445 15.59 15.5833C16.2577 15.5232 16.7234 14.6445 16.6302 13.622C16.6256 13.5693 16.6139 13.5202 16.6062 13.4675C16.5525 13.8557 16.2298 14.7835 15.4493 14.76Z" fill="#CECECE"/>
<path d="M23.1736 12.6494C23.3858 13.5834 23.0631 14.4533 22.4532 14.5912C21.8435 14.7302 21.1771 14.0844 20.9652 13.1504C20.7527 12.2164 21.0759 11.3465 21.686 11.2086C22.2957 11.0701 22.962 11.7149 23.1736 12.6494Z" fill="white"/>
<path d="M22.4892 14.6306L22.4634 14.6367C22.1528 14.7075 21.8205 14.5903 21.5276 14.3068C21.24 14.0284 21.0241 13.6212 20.9196 13.161C20.7029 12.2079 21.0239 11.333 21.6499 11.1693L21.6757 11.1632C21.9863 11.0929 22.3189 11.2096 22.6116 11.4932C22.8994 11.7715 23.115 12.1782 23.2194 12.6392C23.4358 13.5923 23.115 14.4671 22.4892 14.6306ZM21.6735 11.2595C21.1057 11.4079 20.8085 12.2516 21.0104 13.1402C21.1112 13.5834 21.3178 13.9738 21.5923 14.2396C21.8619 14.5008 22.164 14.6095 22.4427 14.5459L22.4653 14.5407C23.0328 14.3923 23.3303 13.5486 23.1286 12.6597C23.0279 12.2165 22.8213 11.8261 22.5466 11.5604C22.2775 11.2993 21.9749 11.1909 21.6964 11.2543L21.6735 11.2595Z" fill="#D8906E"/>
<path d="M22.2589 13.7687C21.5332 13.9534 20.9653 13.1505 20.9653 13.1505C21.1773 14.0845 21.8437 14.7303 22.4534 14.5913C23.0632 14.4534 23.3859 13.5835 23.1737 12.6495C23.1737 12.6495 22.9847 13.5833 22.2589 13.7687Z" fill="#CECECE"/>
<path d="M21.2817 13.0552C21.41 13.7389 21.8802 14.2292 22.3357 14.1505C22.7901 14.072 23.0544 13.4542 22.927 12.7705C22.7996 12.0864 22.3275 11.5962 21.874 11.6748C21.4203 11.7536 21.1549 12.3711 21.2817 13.0552Z" fill="#7B92A6"/>
<path d="M21.2817 13.0552C21.41 13.7389 21.8802 14.2292 22.3357 14.1505C22.7901 14.072 23.0544 13.4542 22.927 12.7705C22.7996 12.0864 22.3275 11.5962 21.874 11.6748C21.4203 11.7536 21.1549 12.3711 21.2817 13.0552Z" fill="#9F693D"/>
<path opacity="0.6" d="M21.4853 13.0669C21.583 13.589 21.9424 13.9635 22.2893 13.9031C22.636 13.8433 22.8389 13.3712 22.7405 12.8498C22.644 12.3282 22.2835 11.9538 21.9375 12.0135C21.5905 12.0738 21.3881 12.5449 21.4853 13.0669Z" fill="#FF9C05"/>
<path d="M21.5832 12.9998C21.6591 13.4125 21.9445 13.7078 22.2172 13.6608C22.4919 13.6129 22.6516 13.2398 22.5739 12.8278C22.4977 12.4159 22.2128 12.1202 21.9397 12.1672C21.6649 12.2148 21.5053 12.5874 21.5832 12.9998Z" fill="#5E4627"/>
<path d="M22.8784 12.5752C22.8983 12.6383 22.9147 12.7034 22.9269 12.7705C23.0541 13.4544 22.7898 14.0721 22.3355 14.1505C21.8802 14.2294 21.41 13.7389 21.2815 13.0552C21.2695 12.9918 21.2635 12.9292 21.2578 12.8677C21.8214 13.1532 22.5587 13.1143 22.8784 12.5752Z" fill="#9F693D"/>
<path d="M22.1697 12.5929C22.2281 12.8017 22.3868 12.939 22.5251 12.8993C22.6633 12.8602 22.7282 12.6589 22.6701 12.4497C22.6121 12.2408 22.4535 12.1033 22.3143 12.1425C22.1764 12.183 22.1117 12.3842 22.1697 12.5929Z" fill="white"/>
<path d="M22.4484 13.2265C22.4764 13.3262 22.5506 13.3914 22.6177 13.3725C22.683 13.3539 22.7136 13.2583 22.6865 13.1589C22.6595 13.0589 22.5828 12.9942 22.5175 13.0125C22.4519 13.0314 22.4212 13.1277 22.4484 13.2265Z" fill="white"/>
</svg>
