<svg width="24" height="24" viewBox="0 0 24 24" fill="none" xmlns="http://www.w3.org/2000/svg">
<path d="M18 20.289L21.288 17L20.6 16.312L18.5 18.412V13.525H17.5V18.412L15.4 16.312L14.712 17L18 20.289ZM14.5 23.5V22.5H21.5V23.5H14.5ZM6.116 19.5C5.68133 19.5 5.30333 19.3393 4.982 19.018C4.66067 18.6967 4.5 18.3187 4.5 17.884V4.116C4.5 3.68133 4.66067 3.30333 4.982 2.982C5.30333 2.66067 5.68133 2.5 6.116 2.5H13L18.5 8V11.14H17.5V8.5H12.5V3.5H6.116C5.962 3.5 5.82067 3.564 5.692 3.692C5.56333 3.82 5.49933 3.961 5.5 4.115V17.885C5.5 18.0383 5.564 18.1793 5.692 18.308C5.82 18.4367 5.961 18.5007 6.115 18.5H12.115V19.5H6.116Z" fill="black"/>
</svg>
