<svg width="137" height="271" viewBox="0 0 137 271" fill="none" xmlns="http://www.w3.org/2000/svg">
<path d="M130.695 270.304H10.0919C7.33323 270.304 5.09656 268.067 5.09656 265.309V5.95154C5.09656 3.19288 7.33323 0.956192 10.0919 0.956192H130.695C133.453 0.956192 135.69 3.19288 135.69 5.95154V265.309C135.691 268.068 133.454 270.304 130.695 270.304Z" fill="#EAFCFC" stroke="#EAFCFC" stroke-width="0.74038" stroke-miterlimit="10" stroke-linecap="round" stroke-linejoin="round"/>
<path d="M126.189 270.304H5.58519C2.82654 270.304 0.589844 268.067 0.589844 265.309V5.95152C0.589844 3.19287 2.82654 0.956177 5.58519 0.956177H126.188C128.947 0.956177 131.183 3.19287 131.183 5.95152V265.309C131.184 268.068 128.947 270.304 126.189 270.304Z" fill="#355389" stroke="#EAFCFC" stroke-width="0.74038" stroke-miterlimit="10" stroke-linecap="round" stroke-linejoin="round"/>
<path d="M74.9151 15.0153H58.6578C57.7368 15.0153 56.9905 14.269 56.9905 13.3479C56.9905 12.4269 57.7368 11.6806 58.6578 11.6806H74.9151C75.8361 11.6806 76.5824 12.4269 76.5824 13.3479C76.5824 14.2682 75.8361 15.0153 74.9151 15.0153Z" fill="#EAFCFC"/>
<path d="M69.5318 255.432C69.5318 254 68.3709 252.839 66.939 252.839C65.5071 252.839 64.3462 254 64.3462 255.432C64.3462 256.864 65.5071 258.025 66.939 258.025C68.3709 258.025 69.5318 256.864 69.5318 255.432Z" fill="#EAFCFC"/>
<path d="M134.818 29.3127H132.244V45.7906H134.818V29.3127Z" fill="#355389" stroke="#EAFCFC" stroke-width="0.74038" stroke-miterlimit="10" stroke-linecap="round" stroke-linejoin="round"/>
<path d="M134.818 58.1491H132.244V74.627H134.818V58.1491Z" fill="#355389" stroke="#EAFCFC" stroke-width="0.74038" stroke-miterlimit="10" stroke-linecap="round" stroke-linejoin="round"/>
<path d="M134.818 76.6874H132.244V93.1653H134.818V76.6874Z" fill="#355389" stroke="#EAFCFC" stroke-width="0.74038" stroke-miterlimit="10" stroke-linecap="round" stroke-linejoin="round"/>
<path d="M115.9 249.266H15.8743C11.991 249.266 8.84363 246.118 8.84363 242.236V22.2384C8.84363 18.3551 11.9917 15.2078 15.8743 15.2078H35.8853L38.9275 17.7325C39.9907 18.6142 41.3285 19.097 42.7093 19.097H90.4209C91.8595 19.097 93.2492 18.5735 94.3301 17.6236L97.0799 15.2078H115.9C119.784 15.2078 122.931 18.3559 122.931 22.2384V242.236C122.931 246.119 119.784 249.266 115.9 249.266Z" fill="#EAFCFC" stroke="#EAFCFC" stroke-width="0.74038" stroke-miterlimit="10" stroke-linecap="round" stroke-linejoin="round"/>
<path d="M92.5157 124.478C107.089 109.905 107.089 86.2778 92.5157 71.7048C77.9428 57.1319 54.3154 57.1319 39.7425 71.7048C25.1696 86.2778 25.1696 109.905 39.7425 124.478C54.3154 139.051 77.9428 139.051 92.5157 124.478Z" stroke="#95D9E1" stroke-width="0.74038" stroke-miterlimit="10" stroke-linecap="round" stroke-linejoin="round"/>
<path d="M66.132 128.852C83.121 128.852 96.8933 115.079 96.8933 98.0903C96.8933 81.1013 83.121 67.329 66.132 67.329C49.143 67.329 35.3707 81.1013 35.3707 98.0903C35.3707 115.079 49.143 128.852 66.132 128.852Z" fill="#95D9E1"/>
<path d="M114.515 171.68C114.523 171.677 114.534 171.675 114.543 171.673H114.488C112.93 171.287 109.946 170.607 107.608 170.428C104.301 170.175 101.655 171.439 100.332 171.439C99.0086 171.439 97.4657 168.153 92.3941 166.131C87.3224 164.109 83.354 170.681 78.9443 170.681C76.8468 170.681 75.4971 169.192 74.137 167.578C73.5247 166.655 72.757 165.807 71.8574 165.126C70.9475 164.34 69.9065 163.741 68.5805 163.603C68.2421 163.567 67.9127 163.561 67.5891 163.57C67.2656 163.561 66.9361 163.567 66.5977 163.603C65.2717 163.741 64.2307 164.34 63.3216 165.126C62.422 165.807 61.6542 166.656 61.0419 167.579C59.6818 169.193 58.3321 170.681 56.2346 170.681C51.8249 170.681 47.8557 164.109 42.7849 166.131C37.7133 168.153 36.1703 171.439 34.8473 171.439C33.5242 171.439 30.8781 170.175 27.5708 170.428C25.2334 170.606 22.249 171.287 20.6912 171.673H20.6364C20.6446 171.675 20.6557 171.677 20.6638 171.68C20.6557 171.682 20.6446 171.684 20.6364 171.686H20.6912C22.249 172.072 25.2334 172.753 27.5708 172.932C30.8781 173.184 33.5242 171.92 34.8473 171.92C36.1703 171.92 37.714 175.207 42.7849 177.229C47.8557 179.251 51.8249 172.678 56.2346 172.678C58.3321 172.678 59.6818 174.167 61.0419 175.781C61.6542 176.703 62.422 177.552 63.3216 178.233C64.2315 179.019 65.2724 179.617 66.5977 179.756C66.9361 179.791 67.2656 179.798 67.5891 179.788C67.9127 179.798 68.2421 179.791 68.5805 179.756C69.9065 179.617 70.9475 179.019 71.8574 178.233C72.757 177.552 73.524 176.703 74.137 175.781C75.4971 174.167 76.8468 172.678 78.9443 172.678C83.354 172.678 87.3232 179.25 92.3941 177.228C97.4657 175.206 99.0086 171.92 100.332 171.92C101.655 171.92 104.301 173.183 107.608 172.931C109.946 172.752 112.93 172.071 114.488 171.686H114.543C114.534 171.684 114.524 171.682 114.515 171.68Z" fill="#95D9E1"/>
<path opacity="0.7" d="M109.358 171.675H109.325C108.386 171.42 106.588 170.969 105.18 170.85C103.187 170.683 101.592 171.52 100.795 171.52C99.9977 171.52 99.0678 169.344 96.0122 168.004C92.9559 166.665 90.5645 171.019 87.9073 171.019C86.6435 171.019 85.8298 170.032 85.0102 168.963C84.6415 168.352 84.1787 167.79 83.6368 167.339C83.0889 166.818 82.4611 166.421 81.6622 166.33C81.4579 166.307 81.2594 166.302 81.0647 166.308C80.87 166.302 80.6716 166.306 80.4672 166.33C79.6683 166.421 79.0413 166.818 78.4926 167.339C77.9507 167.79 77.4879 168.352 77.1192 168.963C76.2996 170.032 75.4867 171.019 74.2221 171.019C73.1693 171.019 72.1572 170.334 71.1295 169.592C70.495 169.046 69.6954 168.475 68.6234 168.004C68.1932 167.816 67.7771 167.749 67.3699 167.759C66.9634 167.75 66.5473 167.816 66.1164 168.004C65.0444 168.475 64.2455 169.046 63.6102 169.592C62.5826 170.334 61.5712 171.019 60.5177 171.019C59.2538 171.019 58.4409 170.032 57.6206 168.963C57.2519 168.352 56.7891 167.79 56.2472 167.339C55.6986 166.818 55.0714 166.421 54.2726 166.33C54.0682 166.307 53.8698 166.302 53.6751 166.308C53.4804 166.302 53.282 166.306 53.0776 166.33C52.2787 166.421 51.6516 166.818 51.103 167.339C50.5611 167.79 50.0983 168.352 49.7296 168.963C48.91 170.032 48.0963 171.019 46.8325 171.019C44.1753 171.019 41.7838 166.665 38.7276 168.004C35.6713 169.344 34.7413 171.52 33.944 171.52C33.1466 171.52 31.5525 170.683 29.5594 170.85C28.1512 170.969 26.3521 171.42 25.414 171.675H25.3807C25.3859 171.677 25.3926 171.678 25.397 171.68C25.3918 171.681 25.3852 171.683 25.3807 171.684H25.414C26.3528 171.94 28.1512 172.39 29.5594 172.509C31.5525 172.676 33.1466 171.839 33.944 171.839C34.7413 171.839 35.6713 174.016 38.7276 175.355C41.7838 176.694 44.1753 172.341 46.8325 172.341C48.0963 172.341 48.91 173.327 49.7296 174.396C50.0983 175.007 50.5611 175.57 51.103 176.021C51.6516 176.541 52.2787 176.938 53.0776 177.029C53.282 177.053 53.4804 177.057 53.6751 177.05C53.8698 177.057 54.0682 177.053 54.2726 177.029C55.0714 176.937 55.6986 176.541 56.2472 176.02C56.7891 175.569 57.2519 175.006 57.6206 174.395C58.4402 173.326 59.2531 172.34 60.5177 172.34C61.5712 172.34 62.5826 173.025 63.6102 173.767C64.2447 174.312 65.0444 174.884 66.1164 175.354C66.5466 175.543 66.9627 175.61 67.3699 175.6C67.7764 175.609 68.1932 175.543 68.6234 175.354C69.6954 174.885 70.4943 174.312 71.1295 173.767C72.1572 173.025 73.1686 172.34 74.2221 172.34C75.4859 172.34 76.2989 173.326 77.1192 174.395C77.4879 175.006 77.9507 175.569 78.4926 176.02C79.0413 176.54 79.6683 176.937 80.4672 177.028C80.6716 177.052 80.8693 177.056 81.0647 177.05C81.2594 177.056 81.4579 177.052 81.6622 177.028C82.4611 176.936 83.0882 176.54 83.6368 176.019C84.1787 175.568 84.6415 175.005 85.0102 174.395C85.8298 173.326 86.6435 172.339 87.9073 172.339C90.5645 172.339 92.9559 176.693 96.0122 175.353C99.0685 174.014 99.9984 171.837 100.795 171.837C101.592 171.837 103.187 172.675 105.18 172.507C106.588 172.389 108.387 171.938 109.325 171.683H109.358C109.353 171.681 109.346 171.68 109.342 171.678C109.346 171.678 109.353 171.677 109.358 171.675Z" fill="#C7EEF1"/>
<path d="M65.8795 106.035C62.456 106.035 59.6804 103.259 59.6804 99.8354V80.1798C59.6804 76.7563 62.456 73.9806 65.8795 73.9806C69.3031 73.9806 72.0788 76.7563 72.0788 80.1798V99.8354C72.0788 103.259 69.3038 106.035 65.8795 106.035Z" fill="#EAFCFC"/>
<path d="M65.9299 110.495C59.8854 110.495 54.9686 105.577 54.9686 99.5326V90.3097C54.9686 89.6833 55.4765 89.1754 56.1028 89.1754C56.7292 89.1754 57.2371 89.6833 57.2371 90.3097V99.5326C57.2371 104.327 61.1367 108.227 65.9306 108.227C70.7246 108.227 74.6249 104.327 74.6249 99.5326V90.3097C74.6249 89.6833 75.1328 89.1754 75.7592 89.1754C76.3855 89.1754 76.8934 89.6833 76.8934 90.3097V99.5326C76.892 105.578 71.9751 110.495 65.9299 110.495Z" fill="#EAFCFC"/>
<path d="M65.9298 122.288C65.3035 122.288 64.7956 121.78 64.7956 121.154V109.36C64.7956 108.734 65.3035 108.226 65.9298 108.226C66.5562 108.226 67.0641 108.734 67.0641 109.36V121.154C67.0641 121.781 66.5562 122.288 65.9298 122.288Z" fill="#EAFCFC"/>
<path d="M73.4899 122.893H58.3706C57.7442 122.893 57.2363 122.385 57.2363 121.759C57.2363 121.132 57.7442 120.625 58.3706 120.625H73.4899C74.1163 120.625 74.6241 121.132 74.6241 121.759C74.6241 122.385 74.1163 122.893 73.4899 122.893Z" fill="#EAFCFC"/>
<path opacity="0.15" d="M115.9 15.2078H97.0798L94.3301 17.6236C93.2491 18.5735 91.8594 19.097 90.4209 19.097H42.7093C41.3277 19.097 39.9899 18.6142 38.9274 17.7325L35.8852 15.2078H29.3758L122.932 133.358V22.2384C122.931 18.3559 119.784 15.2078 115.9 15.2078Z" fill="#95D9E1"/>
</svg>
