<svg width="42" height="42" viewBox="0 0 42 42" fill="none" xmlns="http://www.w3.org/2000/svg">
<path d="M20.9222 6.55263C11.3771 6.30654 8.28615 13.6959 8.0499 16.4686C7.86615 18.6244 6.94084 26.5092 11.4362 31.8051C13.756 34.5384 17.4737 35.9001 21.4144 35.8083C25.388 35.7164 28.9777 34.9256 31.3927 31.7428C35.4582 26.3845 35.0251 18.3783 34.4738 15.7894C33.9554 13.3809 31.944 6.83482 20.9222 6.55263Z" fill="#FFEAC8"/>
<path d="M31.7693 21.1411C32.1073 23.7038 30.9949 26.1483 28.0648 26.3222C25.384 26.483 23.7302 24.7735 23.599 22.2567C23.4645 19.6777 24.8754 17.2791 27.1165 17.033C29.4823 16.7738 31.4346 18.5785 31.7693 21.1411ZM6.20181 8.76752C6.20181 8.76752 2.97634 10.0308 2.19869 11.9077C1.15197 14.4342 1.63431 19.448 2.19869 21.3938C2.75322 23.3035 4.22978 25.2755 6.51025 25.2131C8.79072 25.1508 10.7923 22.8408 11.4978 19.8253C12.2065 16.8066 12.3607 11.6353 12.574 10.71C12.7873 9.7847 13.1581 9.04642 13.1581 9.04642C13.1581 9.04642 10.3263 6.3033 6.20181 8.76752ZM33.2098 8.36721C33.2098 8.36721 37.5837 8.52142 38.6304 8.98408C39.6771 9.44674 40.632 11.5402 40.5401 14.3424C40.4482 17.1445 40.2645 21.676 38.847 23.2411C37.6756 24.5339 35.3065 24.6258 33.9809 23.0245C32.6553 21.4233 31.8251 18.713 31.5167 16.9575C31.2082 15.202 30.6865 12.9249 30.3453 11.9077C30.0073 10.8905 29.1738 8.85939 28.744 8.39674C28.3109 7.93736 29.1738 7.50424 33.2098 8.36721Z" fill="#D27856"/>
<path d="M9.83455 7.32046C7.4622 7.16952 3.55095 9.0464 2.75033 10.9856C1.9497 12.9248 2.41892 19.2183 3.09158 21.0558C3.80033 22.995 5.27689 25.4297 7.83298 23.3362C10.3891 21.2428 11.065 15.9764 11.3144 14.2833C11.5605 12.5901 11.8985 10.5262 12.2692 10.0964C12.64 9.66655 13.1617 9.04968 13.1617 9.04968C13.1617 9.04968 12.7614 7.50421 9.83455 7.32046ZM33.7319 6.92015C35.9599 7.07436 38.3814 7.90452 39.2739 9.84702C40.1664 11.7862 39.8285 16.3767 39.4905 18.562C39.1525 20.7473 38.3519 23.0278 36.3503 22.7817C34.3488 22.5356 33.3316 19.8253 32.718 17.2692C32.1011 14.7131 31.4547 12.157 30.6541 10.3097C30.1717 9.19405 28.4983 8.37046 28.4983 8.37046C28.4983 8.37046 29.2366 6.61171 33.7319 6.92015Z" fill="#865B51"/>
<path d="M16.5703 22.2108C16.439 23.333 15.8615 24.2386 14.6081 24.1074C13.7189 24.0122 13.1217 22.9524 13.2529 21.8269C13.3842 20.7047 13.7747 19.8975 14.8247 19.9172C16.4554 19.9467 16.7015 21.0853 16.5703 22.2108ZM29.4459 21.8958C29.4984 23.0246 29.0522 23.9892 27.7495 24.0844C26.6175 24.1664 26.0367 23.1853 25.9875 22.0566C25.935 20.9278 26.4961 20.0222 27.5756 19.8877C28.9767 19.7072 29.3934 20.7671 29.4459 21.8958ZM24.6487 27.5855C24.7012 28.7142 23.94 29.7708 21.5676 29.7413C19.2576 29.7117 18.4176 28.7766 18.3651 27.6478C18.3126 26.5191 19.6251 25.5052 21.5053 25.4625C24.0942 25.3969 24.5962 26.4535 24.6487 27.5855Z" fill="#2F2F2F"/>
<path d="M19.4121 32.1432C19.4121 32.1432 19.691 34.8239 19.9666 35.6246C20.5507 37.3177 23.0116 37.0355 23.448 35.4408C23.8188 34.0857 23.5727 31.7461 23.5727 31.7461L21.3874 31.4377L19.4121 32.1432Z" fill="#E94B8C"/>
<path d="M21.6423 33.0356C21.2584 33.052 21.2715 33.4064 21.2715 34.2201C21.2715 35.0372 21.3175 35.5294 21.6883 35.513C22.059 35.4966 22.0131 34.8666 22.0131 34.2825C22.0131 33.6984 22.0426 33.0192 21.6423 33.0356Z" fill="#EF87B2"/>
<path d="M16.4554 29.6002C16.0124 30.2531 16.8721 30.8306 17.5808 31.3097C18.2896 31.7855 19.1493 32.5106 20.1665 32.4942C21.3051 32.4778 21.6135 31.71 21.6135 31.71C21.6135 31.71 21.9843 32.6189 23.5986 32.4483C24.4616 32.3564 25.5247 31.3884 25.8463 31.1719C26.4632 30.7552 27.2015 30.2334 26.8766 29.8003C26.5058 29.3048 25.7216 29.9709 24.921 30.3844C24.1204 30.8011 23.8447 31.0013 23.2443 31.0013C22.6438 31.0013 22.2271 30.7552 22.1976 29.7544C22.1713 28.9373 22.1811 28.7831 22.1811 28.7831H20.8096C20.8096 28.7831 20.8555 29.6461 20.8555 29.8922C20.8555 30.5386 20.5176 30.8175 19.8712 30.847C19.2247 30.8766 18.5324 30.3384 18.1911 30.1383C17.8565 29.9414 16.8097 29.0784 16.4554 29.6002Z" fill="#2F2F30"/>
</svg>
