<svg width="33" height="33" viewBox="0 0 33 33" fill="none" xmlns="http://www.w3.org/2000/svg">
<path d="M18.0981 16.036C17.3247 15.4172 17.0153 14.5922 13.9731 15.9328C11.9622 16.8094 12.4263 17.1703 9.79658 16.3453C6.13564 15.211 4.79502 17.1703 3.91846 17.4282C3.91846 17.4282 5.98096 16.861 7.68252 18.2016C9.89971 19.9547 16.6028 19.0266 17.5825 19.336C17.9435 19.4391 18.8716 16.6547 18.0981 16.036Z" fill="#ED4C5C"/>
<path d="M17.2222 16.0359C14.2315 16.0359 14.3347 17.9953 9.74561 17.4797C9.74561 17.4797 12.2206 18.8203 14.7987 18.0984C16.3456 17.6344 17.4284 18.0984 17.4284 18.0984L17.2222 16.0359Z" fill="#FFD93B"/>
<path d="M28.6687 14.1281C31.2984 15.3141 31.9688 11.6016 31.9688 11.6016C28.6172 11.9625 27.6891 10.6219 27.6891 10.6219C30.0094 11.6016 30.9375 7.57969 30.9375 7.57969C27.4312 8.92031 27.9984 6.34219 24.2344 6.34219C24.2344 5.05313 25.8328 3.45469 25.8328 3.45469C21.6047 2.42344 20.0062 5.3625 20.0062 5.3625C18.4078 4.02187 19.6453 2.0625 19.6453 2.0625C15.2109 2.0625 13.4062 8.92031 13.4062 8.92031C14.3344 7.99219 27.4313 31.9688 27.4313 31.9688H30.0609C30.2156 30.0609 29.5969 27.6891 29.5969 27.6891C30.4219 26.8641 31.35 28.7719 31.35 28.7719C31.35 25.7812 30.0609 23.5641 30.0609 23.5641C30.7312 22.8938 31.6078 24.1828 31.6078 24.1828C31.6078 21.7078 30.0609 20.4187 30.0609 20.4187C30.8859 19.5938 31.4016 20.2125 31.4016 20.2125C31.4016 18.3563 29.5453 17.7375 29.5453 17.7375C31.35 17.8406 31.7625 16.0875 31.7625 16.0875C29.4422 16.3453 28.6687 14.1281 28.6687 14.1281Z" fill="#64892F"/>
<path d="M12.1685 21.914C18.9747 24.0797 17.9435 31.9687 17.9435 31.9687H27.895C27.895 31.9687 30.4731 17.0672 25.2653 11.3953L19.181 20.2125L12.1685 21.914Z" fill="#8CC63E"/>
<path d="M12.1685 21.9141C18.9747 24.0797 17.4278 31.9688 17.4278 31.9688H20.3669C20.3669 31.9688 20.7278 23.4609 17.531 22.5328L12.1685 21.9141Z" fill="#FFDD7D"/>
<path d="M12.788 22.275C19.3365 23.1516 26.9677 24.75 26.6583 13.3547L19.1818 19.8516L12.788 22.275ZM4.17708 14.2313C3.86771 14.3344 3.55833 13.8703 3.71302 13.0453C3.86771 12.2203 4.48646 10.9828 6.75521 10.6219C9.07552 10.261 10.6224 10.1578 10.8286 8.14689C10.9833 6.13596 11.8599 5.62033 12.5302 5.36252C12.5302 5.36252 11.3958 6.18752 11.3958 7.52814C11.3958 8.86877 10.8802 10.7766 9.07552 11.1375C7.27083 11.4469 5.31146 11.8594 4.79583 12.5813C4.33177 13.3031 4.74427 14.0766 4.17708 14.2313Z" fill="#64892F"/>
<path d="M18.7172 6.23904C15.0047 6.23904 11.9109 8.81717 10.9828 12.2719C10.3641 11.3437 9.28125 10.725 8.09531 10.725C7.32188 10.725 6.65156 10.9828 6.08437 11.3953C5.67188 10.4672 4.74375 9.84842 3.7125 9.84842C2.21719 9.79686 1.03125 11.0344 1.03125 12.4781C1.03125 13.9734 2.21719 15.1594 3.7125 15.1594H16.0875C17.0672 15.1594 17.8406 15.9328 17.8406 16.964C17.8406 17.9437 17.0672 18.7687 16.0875 18.7687H2.78438C1.80469 18.7687 1.03125 19.5937 1.03125 20.5734C1.03125 21.5531 1.80469 22.3781 2.78438 22.3781H18.7172C23.1 22.3781 26.7094 18.7687 26.7094 14.3859C26.7094 9.84842 23.1516 6.23904 18.7172 6.23904Z" fill="#8CC63E"/>
<path d="M4.43409 12.0141C4.12472 12.4781 3.50597 12.6328 2.99034 12.375C2.47472 12.1172 3.24816 12.0141 3.50597 11.6016C3.81534 11.1375 3.50597 10.5703 4.02159 10.8281C4.53722 11.0344 4.74347 11.6016 4.43409 12.0141Z" fill="#3E4347"/>
<path d="M2.37158 15.1593L3.24814 16.9125L4.12471 15.1593H2.37158ZM3.24814 18.7171L4.12471 16.9125L5.00127 18.7171H3.24814Z" fill="white"/>
<path d="M4.12461 18.7172V17.4797L8.19805 18.7172H4.12461ZM3.24805 14.7984V16.0359L7.32148 14.7984H3.24805Z" fill="white"/>
<path d="M15.6234 14.2828H1.49531C1.2375 14.2828 1.03125 14.4375 1.03125 14.6953C1.03125 14.9531 1.2375 15.1593 1.49531 15.1593H15.675C16.3969 15.1593 17.0156 15.7781 17.0156 16.5V17.3765C17.0156 18.0984 16.3969 18.7172 15.675 18.7172H1.49531C1.2375 18.7172 1.03125 18.9234 1.03125 19.1812C1.03125 19.3875 1.2375 19.5937 1.49531 19.5937H15.675C16.9125 19.5937 17.8922 18.614 17.8922 17.3765V16.5C17.8406 15.2625 16.8609 14.2828 15.6234 14.2828Z" fill="#FFDD7D"/>
<path d="M1.2373 21.9141C1.6498 20.8313 4.07324 21.6563 4.58886 22.7906C5.3623 24.6469 6.29043 24.8016 6.29043 24.8016C6.29043 24.8016 4.27949 25.0594 3.55761 23.6156C3.55761 23.6156 4.5373 25.575 6.39355 26.0391C6.39355 26.0391 3.7123 26.7094 2.26855 24.6985C2.26855 24.6985 2.16543 25.3688 2.57793 26.761C2.57793 26.7094 0.360738 24.2344 1.2373 21.9141Z" fill="#64892F"/>
<path d="M13.4062 13.0453C14.6877 13.0453 15.7266 12.0065 15.7266 10.725C15.7266 9.44356 14.6877 8.40472 13.4062 8.40472C12.1248 8.40472 11.0859 9.44356 11.0859 10.725C11.0859 12.0065 12.1248 13.0453 13.4062 13.0453Z" fill="#8CC63E"/>
<path d="M13.4062 12.5297C14.403 12.5297 15.2109 11.7217 15.2109 10.725C15.2109 9.72834 14.403 8.92035 13.4062 8.92035C12.4095 8.92035 11.6016 9.72834 11.6016 10.725C11.6016 11.7217 12.4095 12.5297 13.4062 12.5297Z" fill="white"/>
<path d="M14.4375 10.725C14.4375 11.2922 13.9734 11.7563 13.4062 11.7563C12.8391 11.7563 12.375 11.2922 12.375 10.725C12.375 10.1578 12.8391 9.69379 13.4062 9.69379C13.9734 9.69379 14.4375 10.1578 14.4375 10.725Z" fill="#3E4347"/>
<path d="M13.8192 6.23904C13.8192 6.23904 11.138 7.68279 11.7567 9.02342C12.427 10.364 16.3458 7.88904 18.7177 9.79686C18.7177 9.79686 18.3052 8.66248 17.5317 8.45623C17.5317 8.45623 17.8927 8.19842 18.6661 8.14686C18.6661 8.14686 17.8411 7.11561 16.3458 8.09529C16.3458 8.09529 16.4489 7.42498 17.0161 7.01248C17.0161 7.01248 15.7786 7.01248 14.9536 7.83748C14.9536 7.83748 14.5927 7.68279 15.0567 6.75467C15.0567 6.75467 14.2317 7.06404 13.613 7.78592C13.5614 7.88904 13.3036 7.37342 13.8192 6.23904ZM5.77548 13.7672C5.4661 13.664 5.46611 13.0969 6.08486 12.5297C6.70361 12.014 7.9411 11.4469 10.0036 12.5812C12.0661 13.7672 13.4583 14.6953 14.7989 13.2C16.1395 11.7562 17.1192 11.9109 17.8411 12.1172C17.8411 12.1172 16.4489 12.014 15.6239 13.0969C14.8505 14.1797 13.252 15.2625 11.602 14.3859C9.95204 13.5094 8.09579 12.5297 7.27079 12.7875C6.44579 13.1484 6.34267 13.9734 5.77548 13.7672ZM20.677 29.4422H17.5317L17.377 28.05H20.677V29.4422Z" fill="#64892F"/>
<path d="M2.32041 18.6656C1.75323 18.7688 1.28916 18.6141 1.18604 18.2531C1.13448 17.8922 1.49541 17.5312 2.0626 17.3766C2.62979 17.2734 3.7126 17.6344 3.7126 17.6344C3.7126 17.6344 2.8876 18.5109 2.32041 18.6656Z" fill="#ED4C5C"/>
<path d="M2.372 18.3563C2.06263 18.4594 1.75325 18.3047 1.70169 18.0985C1.65013 17.8922 1.85638 17.6344 2.21731 17.5828C2.52669 17.5313 3.24856 17.7375 3.24856 17.7375C3.24856 17.7375 2.73294 18.3047 2.372 18.3563Z" fill="#FFD93B"/>
<path d="M3.19687 16.6547C2.83594 16.6031 2.57812 16.3453 2.57812 16.0875C2.62969 15.8297 2.93906 15.7265 3.35156 15.7781C3.76406 15.8297 4.33125 16.3968 4.33125 16.3968C4.33125 16.3968 3.55781 16.7578 3.19687 16.6547Z" fill="#ED4C5C"/>
</svg>
