<svg width="40" height="40" viewBox="0 0 40 40" fill="none" xmlns="http://www.w3.org/2000/svg">
<path d="M14.1658 19.7222C15.528 22.1611 16.228 18.21 24.5125 16.8056C32.7969 15.4011 39.7669 21.7544 39.9114 22.82C40.058 23.8844 34.9703 33.3333 29.398 33.3333H11.9436C7.34025 33.3333 4.14137 25.3067 7.49914 20.6244C7.49914 20.6244 12.4991 16.7356 14.1658 19.7222Z" fill="#D99E82"/>
<path d="M14.4532 20.1511C8.91101 27.8589 7.74323 33.3333 11.9443 33.3333C7.34101 33.3333 4.63546 26.4578 6.9799 21.0767C7.49434 19.8944 8.93323 18.3078 8.93323 18.3078L13.5766 18.2989C13.7566 18.6544 14.2421 19.8156 14.4532 20.1511Z" fill="#C1694F"/>
<path d="M22.2911 25.2778C29.7045 22.2978 39.7678 21.7545 39.9123 22.82C40.0589 23.8845 34.9711 33.3334 29.3989 33.3334H13.1256C8.52225 33.3334 14.4945 28.4122 22.2911 25.2778Z" fill="#E1E8ED"/>
<path d="M28.1768 23.4722C34.8434 22.0145 39.8079 22.0478 39.9134 22.82C40.0012 23.4622 38.1812 27.1611 35.499 29.9911C37.9479 26.8756 37.0768 23.1989 28.1768 23.4722Z" fill="#292F33"/>
<path d="M7.91727 6.80554C9.65283 1.31887 19.5173 2.2022 19.0973 7.56998C18.6773 12.9355 11.9273 16.3022 14.4539 20.1511C12.6917 21.6844 8.8806 21.1655 6.97949 21.0766C7.63498 19.8069 8.30614 18.5453 8.99283 17.2922C12.2328 11.4755 6.62505 10.8878 7.91727 6.80554Z" fill="#3E721D"/>
<path d="M2.10367 10.05C2.73478 8.82778 2.71367 10.1678 5.82812 10.2078C7.55478 10.2311 7.45367 9.58556 7.67701 8.40667C7.72256 8.15889 8.53923 10.2022 9.96701 10.4144C13.9159 11.0044 12.0548 12.57 9.96701 12.9267C8.9659 13.0978 7.73367 13.28 5.59145 13.0989C2.79256 12.8633 1.40478 11.4011 2.10367 10.05Z" fill="#FFCC4D"/>
<path d="M13.8911 18.4722C13.94 19.1667 14.4533 20.1511 14.4533 20.1511C13.3244 21.7889 8.18334 23.5033 6.28223 23.4067C6.40232 22.6008 6.63691 21.8162 6.97889 21.0767C9.02778 20.5533 12.1578 19.8867 13.8911 18.4722Z" fill="#F5F8FA"/>
<path d="M13.0084 6.83445C13.0137 7.02685 12.9804 7.21836 12.9105 7.39768C12.8405 7.57699 12.7354 7.74047 12.6012 7.87844C12.467 8.01642 12.3065 8.12609 12.1292 8.20098C11.9519 8.27586 11.7614 8.31445 11.5689 8.31445C11.3764 8.31445 11.1859 8.27586 11.0086 8.20098C10.8313 8.12609 10.6708 8.01642 10.5366 7.87844C10.4024 7.74047 10.2973 7.57699 10.2273 7.39768C10.1574 7.21836 10.1241 7.02685 10.1295 6.83445C10.1399 6.45961 10.2961 6.10362 10.5649 5.84217C10.8337 5.58072 11.1939 5.43445 11.5689 5.43445C11.9439 5.43445 12.3041 5.58072 12.5729 5.84217C12.8417 6.10362 12.9979 6.45961 13.0084 6.83445Z" fill="#292F33"/>
</svg>
