<svg width="35" height="27" viewBox="0 0 35 27" fill="none" xmlns="http://www.w3.org/2000/svg">
<path fill-rule="evenodd" clip-rule="evenodd" d="M0.69463 10.1679C0.604589 10.5769 0.773311 10.9617 1.0713 11.0273C1.3695 11.0929 1.68411 10.8145 1.77416 10.4055C1.86408 9.99651 1.69547 9.61179 1.39748 9.54611C1.09928 9.48049 0.78467 9.7589 0.69463 10.1679Z" fill="black"/>
<path fill-rule="evenodd" clip-rule="evenodd" d="M2.25208 8.54344C2.25208 8.54344 2.47821 8.70836 2.7147 8.92921C3.03054 9.22415 3.36488 9.61916 3.20332 9.85439C2.92054 10.2657 1.63518 9.21181 1.6095 8.87762C1.58372 8.54344 1.9951 8.36354 2.25208 8.54344Z" fill="#BA8955"/>
<path fill-rule="evenodd" clip-rule="evenodd" d="M26.7963 10.2318C27.3955 10.5962 28.42 11.0752 29.3426 10.8031C30.7544 10.3869 31.7705 10.2972 32.3091 11.8813C32.5366 12.4488 32.6234 14.3111 31.2603 13.7772C30.8228 14.2379 30.222 14.0132 30.032 13.6695C30.032 13.6695 28.7778 14.3342 27.161 14.4039C25.5444 14.4734 23.9952 13.6685 23.6968 12.4279C23.3667 11.0558 24.7861 9.00893 26.7963 10.2318Z" fill="#DBAA77"/>
<path fill-rule="evenodd" clip-rule="evenodd" d="M26.7963 10.2318C27.3955 10.5963 28.42 11.0752 29.3426 10.8031C30.7544 10.3869 31.7705 10.2972 32.3091 11.8813C32.5366 12.4488 32.6234 14.3111 31.2603 13.7772C30.8234 14.2372 30.2237 14.0138 30.0328 13.6709L30.0421 13.6649C30.5402 13.3418 30.858 12.797 30.5676 12.2842C30.3687 11.8845 30.8768 12.25 30.3721 11.8816C29.546 11.2786 29.5825 11.531 28.6478 11.4263C28.6095 11.3591 27.0819 11.5213 26.1138 9.93021C26.3319 9.99 26.56 10.0881 26.7963 10.2318Z" fill="#C79865"/>
<path fill-rule="evenodd" clip-rule="evenodd" d="M31.3047 13.7937C31.2899 13.7883 31.2754 13.7832 31.2602 13.7772C31.2469 13.7912 31.2335 13.8046 31.2198 13.8173C31.0792 13.654 31.0943 13.4641 31.0943 13.4635C31.0953 13.442 31.1135 13.4254 31.1352 13.4263C31.1568 13.4273 31.1732 13.4455 31.1724 13.4671C31.1722 13.4676 31.1577 13.6497 31.3047 13.7937Z" fill="#A3692A"/>
<path fill-rule="evenodd" clip-rule="evenodd" d="M30.0534 13.705C30.046 13.6938 30.039 13.6824 30.0327 13.6709L30.042 13.6649C30.1171 13.6177 30.1846 13.5634 30.2449 13.5035C30.4239 13.4016 30.6524 13.3337 30.8884 13.4364C30.6302 13.3919 30.2657 13.5338 30.0534 13.705Z" fill="#BA8955"/>
<path fill-rule="evenodd" clip-rule="evenodd" d="M10.5388 15.5598C12.0565 15.4277 13.1475 16.5316 12.6436 17.8743C12.2718 18.8657 10.6589 18.71 8.61779 19.9774C6.1308 21.5214 6.01025 23.0479 5.12665 22.8813C4.24329 22.7147 4.21242 21.9235 4.21242 21.9235C3.5164 22.1151 3.20607 21.5683 3.33546 20.9694C3.33546 20.9694 2.6336 20.8592 2.89619 20.1357C3.15892 19.4121 7.06485 15.763 10.5388 15.5598Z" fill="#C79865"/>
<path fill-rule="evenodd" clip-rule="evenodd" d="M8.3501 20.1495C6.12096 21.6325 5.97716 23.0417 5.12653 22.8813C4.24295 22.7147 4.2123 21.9235 4.2123 21.9235C3.51628 22.1151 3.20596 21.5682 3.33534 20.9694C3.33534 20.9694 2.63358 20.8592 2.89607 20.1358C2.91448 20.085 2.9514 20.0194 3.0044 19.9421C3.15746 20.2688 3.44134 20.4944 3.8126 20.2823C3.75519 20.2823 3.49258 21.2153 4.17637 21.2153C4.62114 21.2153 4.74874 20.9936 4.74874 21.0848C4.74874 21.9152 5.52081 21.8996 5.80357 21.7105C7.09116 20.849 5.62879 20.8019 5.7628 19.8076C5.81328 19.4333 4.99448 18.7333 6.9437 18.7104C7.47093 18.7042 7.99791 19.3164 8.3501 20.1495Z" fill="#BA8955"/>
<path fill-rule="evenodd" clip-rule="evenodd" d="M4.2297 22.0424C4.21449 21.9699 4.21251 21.9234 4.21251 21.9234C4.19454 21.9284 4.17679 21.9327 4.15939 21.9367C4.16203 21.9274 4.16467 21.9184 4.16744 21.9095C4.39852 21.1636 5.00947 20.8418 5.01124 20.8408C5.03415 20.8286 5.06282 20.8374 5.07494 20.8602C5.08727 20.8832 5.07868 20.9117 5.05554 20.9239C5.054 20.9249 4.47722 21.2286 4.25758 21.9373C4.24754 21.9697 4.23829 22.0049 4.2297 22.0424ZM3.31481 21.0951C3.31944 21.0536 3.32639 21.0116 3.33552 20.9693C3.33552 20.9693 3.31028 20.9654 3.27116 20.954C3.33795 20.7841 3.54447 20.3505 4.00058 20.0627C4.02261 20.0488 4.05172 20.0555 4.0657 20.0774C4.07936 20.0993 4.07275 20.1284 4.05082 20.1423C3.50369 20.4874 3.33616 21.0518 3.33572 21.0535L3.3322 21.0618C3.332 21.0623 3.32583 21.0739 3.31481 21.0951Z" fill="#A3692A"/>
<path fill-rule="evenodd" clip-rule="evenodd" d="M13.0553 11.6522C15.202 10.8299 17.6707 10.0402 19.908 9.53156C20.0619 9.4721 20.2946 9.40897 20.47 9.33838C21.0154 9.11898 21.803 9.07945 22.0587 8.97946C22.3687 8.85797 22.1201 9.06128 22.2734 9.00319C22.5508 8.88561 23.1183 8.85228 23.2429 8.87469C22.9188 9.02022 23.9336 8.78433 23.8077 8.92319C23.8031 8.92804 24.2118 8.95955 24.4504 8.99696C30.4156 9.41612 31.6589 15.9786 26.1028 19.0675C24.1487 20.1539 21.7291 20.9661 18.8361 21.6569C14.6501 22.6565 10.6408 23.003 7.90204 21.5194C0.0917168 17.2884 9.30325 13.0895 13.0553 11.6522Z" fill="#E8BB8B"/>
<path fill-rule="evenodd" clip-rule="evenodd" d="M21.4208 9.10623C21.6978 9.06056 21.9378 9.02677 22.0587 8.97946C22.3687 8.85797 22.1201 9.06128 22.2734 9.00319C22.5508 8.88561 23.1183 8.85228 23.2429 8.87469C22.9188 9.02022 23.9336 8.78433 23.8077 8.92319C23.8031 8.92804 24.2118 8.95955 24.4504 8.99696C30.4156 9.41612 31.6589 15.9786 26.1028 19.0675C24.1487 20.1539 21.7291 20.9661 18.8361 21.6569C14.6501 22.6565 10.6408 23.003 7.90204 21.5194C4.16704 19.496 4.32582 17.4802 5.91789 15.77C7.019 14.7268 8.76038 13.6498 11.7034 13.0321C12.6729 12.8286 13.0861 12.6994 13.6232 12.5224C13.7239 12.0625 13.9399 11.5801 14.1822 11.2344C16.0312 10.5711 18.0349 9.9589 19.8824 9.53733C19.078 10.5721 17.543 12.2841 15.7195 13.0064C15.6019 13.053 15.3244 13.2702 14.8492 13.4471C14.8107 14.8504 14.5385 15.4279 13.7507 16.816C13.5393 17.1881 12.7339 18.2614 13.0448 18.0728C13.2976 17.9194 10.8522 20.2487 10.0663 20.2797C9.58537 20.2986 10.4112 20.8015 9.96358 20.6354C9.53271 20.4754 10.3268 21.1192 10.3971 21.1227C12.3203 21.2187 16.6549 20.9191 18.1973 19.9682C19.3601 19.2509 18.2228 20.0288 18.5907 19.884C19.8712 19.3797 20.3019 18.748 20.2975 18.755C19.7214 19.6781 21.6459 18.1307 21.8529 17.8398C22.5533 16.8541 21.8581 17.912 22.1289 17.6712C23.0906 16.8156 23.9522 15.0507 24.2413 13.7836C24.3328 13.3826 24.3101 12.6864 24.4333 12.866C24.7855 13.3798 24.3852 11.2838 24.3978 11.2899C25.0313 11.5925 23.6018 10.0315 24.0864 10.4468C23.166 9.06633 22.0965 9.29268 21.4208 9.10623Z" fill="#DBAA77"/>
<path fill-rule="evenodd" clip-rule="evenodd" d="M6.4139 20.5623C5.21018 19.6178 4.77765 18.6853 4.86228 17.7957C5.85144 16.2239 7.48096 15.1345 9.02057 13.8326C9.78259 13.5233 10.6686 13.2493 11.7033 13.0321C12.6728 12.8286 13.0859 12.6994 13.6231 12.5224C13.7238 12.0625 13.9398 11.5801 14.1821 11.2344C16.0311 10.5711 18.0348 9.95891 19.8823 9.53733C19.0779 10.5721 17.5429 12.2841 15.7194 13.0064C15.6017 13.053 15.3242 13.2703 14.8491 13.4471C14.8106 14.8504 14.5384 15.4279 13.7506 16.816C13.5392 17.1881 12.7338 18.2614 13.0446 18.0728C13.2974 17.9194 10.8521 20.2487 10.0662 20.2797C9.96037 20.2839 9.38908 20.5518 9.11535 20.5921C8.46141 20.6881 7.31434 20.7441 6.4139 20.5623Z" fill="#C79865"/>
<path fill-rule="evenodd" clip-rule="evenodd" d="M27.1396 9.73202C29.5179 11.0073 30.3012 13.6807 29.1235 16.0633C28.7654 15.7382 28.5166 15.229 28.4861 14.7977C28.1067 14.665 27.6692 14.361 27.3699 14.2582C27.095 14.164 25.5688 13.9041 25.5763 13.8979C26.1921 13.3879 26.3715 13.2179 27.0193 13.2387C27.1949 11.3942 25.0534 11.1515 25.1044 10.1414L25.2613 10.2531C25.288 10.0815 25.5136 10.0238 25.608 9.92944C26.2865 9.25092 26.7613 9.94745 27.1396 9.73202ZM26.2421 18.9884C26.2201 19.0012 26.1982 19.0138 26.1762 19.0263L26.1744 19.0273L26.1455 19.0436L26.1347 19.0496L26.1028 19.0675L26.0117 19.1178L26.0105 19.1185C25.9494 19.1519 25.8881 19.185 25.8261 19.2179L25.8242 19.2189C25.7936 19.2351 25.7627 19.2513 25.7321 19.2675L25.7297 19.2687L25.6411 19.3147L25.6303 19.3203L25.5518 19.3604L25.5287 19.3722L25.4474 19.4131L25.4411 19.4162C25.3781 19.4477 25.3148 19.4789 25.2512 19.5099L25.2503 19.5102C25.2186 19.5257 25.1864 19.5411 25.1544 19.5564L25.1504 19.5583L25.0579 19.6022L25.0458 19.608L24.9629 19.6468L24.9462 19.6545L24.8578 19.6953L24.8485 19.6995L24.7708 19.7349L24.7383 19.7495L24.6636 19.783L24.6372 19.7947L24.5739 19.8227L24.5316 19.8412L24.4698 19.8681L24.4223 19.8887L24.3669 19.9125L24.3241 19.9306L24.321 19.932C22.7331 20.6064 20.9058 21.1628 18.8361 21.657C17.6855 21.9317 16.5485 22.1569 15.4475 22.3085C15.6512 21.5982 17.551 20.9115 18.3022 21.2009C19.0622 21.4935 20.4197 20.8859 20.4824 20.8567C22.987 19.6917 24.4571 16.6084 24.1898 17.3852C24.1888 17.3881 24.2061 17.3776 24.2323 17.3619C24.1168 16.5783 24.3308 15.4553 24.3308 15.4553L26.8417 15.3677C26.8417 15.3677 27.8475 16.1323 28.0558 17.5778C27.5818 18.0777 26.9999 18.5426 26.3053 18.9517L26.2941 18.9582L26.2779 18.9676L26.2548 18.9811L26.2421 18.9884Z" fill="#C79865"/>
<path fill-rule="evenodd" clip-rule="evenodd" d="M29.5632 14.7955C29.4753 15.221 29.3295 15.6466 29.1235 16.0633C28.7655 15.7382 28.5167 15.229 28.4861 14.7977C28.1067 14.665 27.6692 14.361 27.3699 14.2582C27.0951 14.164 25.5688 13.9041 25.5763 13.8979C26.1921 13.3879 26.3715 13.2179 27.0194 13.2387L27.0206 13.2246C27.0444 13.2387 27.0684 13.2528 27.0925 13.2669C27.0926 13.2669 28.4267 13.3954 29.5632 14.7955ZM27.6249 16.3201C26.8601 16.1028 26.0582 15.7827 25.4068 15.4178L26.8417 15.3677C26.8417 15.3677 27.2695 15.693 27.6249 16.3201Z" fill="#BA8955"/>
<path fill-rule="evenodd" clip-rule="evenodd" d="M28.5573 8.06364C28.2585 7.4663 27.8161 7.13465 27.3347 7.00472C27.3363 7.00242 27.338 7.00126 27.3398 7.0013C27.1579 6.94455 26.8223 6.77765 26.616 6.89662C26.6072 6.89303 26.6828 6.69462 26.2008 6.94609C25.9102 7.09767 26.409 6.71083 25.7716 7.07353C25.6698 7.1315 25.2729 7.41697 25.2755 7.3572C25.2828 7.18661 24.9423 7.69122 24.7831 8.2047C24.615 8.55943 24.5632 8.9631 24.6853 9.38175C24.8938 10.0964 25.2528 10.5206 25.6264 10.7707C26.1783 11.1402 26.8068 11.1843 27.3583 11.003C27.5203 10.9918 27.6964 10.9612 27.8833 10.9064C28.159 10.8255 28.0076 10.7861 28.0128 10.7837C28.1801 10.7069 28.7918 10.1731 28.6576 10.156C28.5584 10.1433 28.7272 9.96554 28.7839 9.82008C29.0724 9.07926 28.687 9.86416 28.87 9.27034C29.0098 8.81653 28.8581 8.64947 28.8581 8.76898C28.8581 8.77146 28.7689 8.53944 28.6561 8.28801C28.6274 8.21363 28.5948 8.13885 28.5573 8.06364Z" fill="#E8BB8B"/>
<path fill-rule="evenodd" clip-rule="evenodd" d="M28.5575 8.06363C28.3645 7.67771 28.1116 7.40282 27.8269 7.22138C27.8181 7.22396 27.8137 7.2216 27.8143 7.21345L27.8074 7.2091C27.9719 7.63226 28.2425 7.97521 28.1425 8.51882C28.1003 8.74814 27.9428 8.01411 28.0043 8.5079C28.0724 9.05714 27.9492 9.4019 27.6869 9.83862C27.6371 9.92177 27.4641 9.24574 27.4229 9.71795C27.384 10.1644 26.5373 10.8505 26.6487 10.4148C26.6497 10.4116 26.5841 10.6735 25.8649 10.5257C25.2293 10.395 24.7012 9.41638 24.6577 8.77672C24.6538 8.71781 24.6494 8.67022 24.6445 8.6322C24.601 8.87111 24.6102 9.12359 24.6855 9.38173C24.894 10.0964 25.2531 10.5205 25.6266 10.7706C26.1785 11.1402 26.807 11.1843 27.3585 11.003C27.5205 10.9918 27.6966 10.9612 27.8835 10.9063C28.1593 10.8255 28.0079 10.7861 28.013 10.7836C28.1803 10.7069 28.792 10.1731 28.6578 10.1559C28.5586 10.1433 28.7275 9.96552 28.7841 9.82005C29.0726 9.07924 28.6872 9.86414 28.8703 9.27031C29.01 8.81651 28.8584 8.64945 28.8584 8.76895C28.8584 8.77144 28.7691 8.53941 28.6564 8.28798C28.6276 8.21363 28.5951 8.13885 28.5575 8.06363Z" fill="#DBAA77"/>
<path fill-rule="evenodd" clip-rule="evenodd" d="M7.9614 6.91023C7.9614 6.91023 10.1857 0.896234 12.9867 0.0723692C15.788 -0.751436 15.2937 5.6745 10.5153 8.31078C5.73711 10.947 7.9614 6.91023 7.9614 6.91023Z" fill="#DBAA77"/>
<path fill-rule="evenodd" clip-rule="evenodd" d="M7.96131 6.91023C7.96131 6.91023 8.15339 6.3908 8.49578 5.63677C8.96535 5.62959 9.44019 5.65037 9.77994 5.65037C10.6749 5.65037 9.67095 5.80735 10.0711 5.85337C10.3258 5.88267 11.9819 6.60217 12.7508 5.93453C12.8792 5.91254 13.4469 5.25521 13.7808 5.04626C13.0944 6.28029 12.0165 7.48257 10.5152 8.31078C10.3198 8.41855 10.1372 8.51415 9.96453 8.60039C9.07665 8.26869 8.2377 7.81775 7.95988 7.59927C7.87645 7.53352 7.79865 7.47033 7.72548 7.40889C7.84669 7.1184 7.96131 6.91023 7.96131 6.91023Z" fill="#C79865"/>
<path fill-rule="evenodd" clip-rule="evenodd" d="M14.3049 12.9242C14.3049 13.2671 14.2831 13.5986 14.2421 13.9191C14.2445 13.932 14.2466 13.9464 14.2487 13.9626C14.2672 14.1117 14.1619 14.943 14.1665 14.9416C14.3713 14.8776 14.0856 15.1698 14.0499 15.3391C13.9649 15.7432 13.7779 16.0308 13.3618 16.609C13.3473 16.629 12.5144 17.7745 12.8536 17.4687C13.0096 17.3282 12.6177 17.9757 12.0759 18.3033C12.0106 18.3429 12.2419 18.4426 11.6247 18.681C11.5755 18.7 11.151 18.9146 11.2085 18.9351C11.4881 19.0347 9.12884 19.9075 8.51823 19.903L8.44946 19.9023C7.65216 20.0755 6.81972 20.1408 5.98417 20.0916C1.78258 19.8445 -0.935959 15.7253 0.299829 11.8533C1.13349 9.24028 3.42356 6.80669 6.27048 6.14692C7.59399 5.84028 8.88906 5.98613 10.04 6.46392C10.2154 6.5048 10.3189 6.54512 10.3078 6.57719L10.3012 6.57868C10.3942 6.62214 10.4857 6.66821 10.5765 6.71599C10.9689 6.7853 11.5198 6.8641 11.3333 6.96349C11.0182 7.13144 12.7374 7.58833 12.3078 7.64321C11.8497 7.70185 12.6892 7.73798 12.5816 7.99823C12.4544 8.02451 12.3886 8.04783 12.3618 8.07509C13.5551 9.33628 14.3049 11.0574 14.3049 12.9242Z" fill="#E8BB8B"/>
<path fill-rule="evenodd" clip-rule="evenodd" d="M14.3049 12.9242C14.3049 13.2671 14.2831 13.5986 14.2421 13.9191C14.2445 13.932 14.2466 13.9464 14.2487 13.9626C14.2672 14.1117 14.1619 14.943 14.1665 14.9416C14.3713 14.8776 14.0856 15.1698 14.0499 15.3391C13.9649 15.7432 13.7779 16.0308 13.3618 16.609C13.3473 16.629 12.5144 17.7745 12.8536 17.4687C13.0096 17.3282 12.6177 17.9758 12.0759 18.3033C12.0106 18.3429 12.2419 18.4426 11.6247 18.681C11.5755 18.7 11.151 18.9146 11.2085 18.9351C11.4881 19.0347 9.12884 19.9075 8.51823 19.903L8.44946 19.9023C7.65216 20.0755 6.81972 20.1408 5.98417 20.0917C4.67555 20.0147 3.51084 19.5619 2.56456 18.8581C5.38139 20.5576 10.0817 19.3994 11.3333 16.5721C11.9711 15.1316 11.9068 15.2741 11.9889 12.627C12.0171 11.7137 11.7598 10.9151 12.0168 10.6409C12.5336 10.0885 11.4139 8.3497 12.0201 8.89497C12.6824 9.49054 11.6764 7.6306 11.6888 7.27045C12.0714 7.4401 12.5602 7.61097 12.3078 7.64322C11.8497 7.70185 12.6892 7.73798 12.5817 7.99823C12.4545 8.02451 12.3886 8.04783 12.3618 8.07509C13.5551 9.33628 14.3049 11.0574 14.3049 12.9242Z" fill="#DBAA77"/>
<path fill-rule="evenodd" clip-rule="evenodd" d="M13.4345 8.71541C13.4345 8.71541 16.1519 5.28532 18.6489 4.32008C20.5023 3.60356 22.3305 4.45551 21.6252 6.46021C20.6865 9.12887 16.7494 12.9757 14.0356 13.0667C10.4529 13.1869 13.1872 9.20966 13.4345 8.71541Z" fill="#DBAA77"/>
<path fill-rule="evenodd" clip-rule="evenodd" d="M13.6814 8.4161C14.4056 7.56018 16.6011 5.11158 18.6487 4.32007C19.8138 3.86951 20.9691 4.03927 21.491 4.72538C18.3784 3.8661 15.7864 6.93705 13.4816 8.73606C13.4816 8.73606 13.5528 8.61711 13.6814 8.4161Z" fill="#E8BB8B"/>
<path fill-rule="evenodd" clip-rule="evenodd" d="M20.4567 5.34864C21.1172 5.49421 21.3094 6.17597 20.5755 7.37714C19.111 9.77422 15.2748 12.9775 13.3906 13.081C10.5922 13.2349 18.2815 4.86921 20.4567 5.34864Z" fill="#D98477"/>
<path fill-rule="evenodd" clip-rule="evenodd" d="M20.4568 5.34864C20.8635 5.43828 21.0927 5.73158 21.0372 6.22428C20.9259 6.13509 19.8007 5.36312 16.9132 7.99404C15.1402 9.60946 14.4441 11.4652 14.3785 12.8291C14.0138 12.9764 13.6793 13.0652 13.3906 13.0811C10.5922 13.2349 18.2815 4.86921 20.4568 5.34864Z" fill="#CF7465"/>
<path fill-rule="evenodd" clip-rule="evenodd" d="M13.4431 10.4826C13.9479 10.1842 14.8155 9.97881 14.282 10.2572C13.9292 10.4793 13.7197 10.7699 14.1583 10.6375C14.1628 10.636 14.7278 9.9717 14.3151 10.8812C14.5379 10.6586 14.3714 10.7945 14.3035 11.1456C14.2965 11.1824 14.1064 11.4447 14.2165 11.4779C14.2077 11.3477 14.3612 11.2529 14.3369 11.82C14.3355 11.857 14.3437 11.9158 14.3501 11.9773C14.3851 11.9882 14.4225 11.9771 14.4606 11.9369C14.4622 11.9352 14.6762 11.6369 14.5687 12.0714C14.2996 12.5081 14.814 13.4907 13.1482 13.3915C12.0678 13.337 11.0462 10.9604 13.5164 10.4575C13.5719 10.4463 13.2216 10.5611 13.4431 10.4826Z" fill="#DBAA77"/>
<path fill-rule="evenodd" clip-rule="evenodd" d="M28.4412 14.2232C29.1163 14.775 30.2953 15.5411 31.4782 15.3648C33.2885 15.0952 34.5549 15.1596 34.9456 17.2027C35.1279 17.9407 34.9146 20.2487 33.3279 19.3567C32.7098 19.8487 32.0088 19.4686 31.834 19.0128C31.834 19.0128 30.1753 19.6156 28.1725 19.423C26.1699 19.2305 24.4009 17.973 24.247 16.3939C24.0766 14.6477 26.1766 12.3715 28.4412 14.2232Z" fill="#DBAA77"/>
<path fill-rule="evenodd" clip-rule="evenodd" d="M28.4412 14.2232C29.1163 14.775 30.2953 15.5411 31.4782 15.3648C33.2885 15.0952 34.5549 15.1596 34.9456 17.2027C35.1279 17.9407 34.9146 20.2487 33.3279 19.3567C32.7107 19.848 32.0108 19.4697 31.8347 19.0147L31.8473 19.0089C32.6523 18.6475 32.966 17.6427 32.3522 16.8851C32.3086 16.8507 32.2578 16.8031 32.1995 16.7398C32.1336 16.668 31.5676 16.4495 31.5676 16.4392C31.8725 16.3535 31.086 16.3162 31.3124 16.2703C31.5773 16.2163 30.5932 16.1277 30.5422 16.1161C30.335 16.0693 29.9833 16.0394 30.2335 15.9364C29.9712 15.8592 29.7329 15.7639 29.517 15.656C29.2566 15.5562 28.9258 15.3966 28.9398 15.3155L28.9636 15.3278L28.9651 15.324C28.1398 14.7339 27.7664 13.9969 27.6529 13.7343C27.9112 13.8455 28.175 14.0055 28.4412 14.2232Z" fill="#C79865"/>
<path fill-rule="evenodd" clip-rule="evenodd" d="M31.8543 19.0602C31.8472 19.0452 31.8406 19.03 31.8346 19.0147L31.8472 19.0089C31.9477 18.9638 32.0405 18.9084 32.1247 18.8449C32.3627 18.7504 32.6559 18.7062 32.9287 18.8732C32.6183 18.7739 32.1452 18.8858 31.8543 19.0602Z" fill="#BA8955"/>
<path fill-rule="evenodd" clip-rule="evenodd" d="M9.57814 12.1421C9.57814 12.1421 9.80415 12.307 10.0408 12.5278C10.3565 12.8228 10.6909 13.2179 10.5292 13.4531C10.2464 13.8644 8.96124 12.8105 8.93544 12.4764C8.90968 12.1421 9.32094 11.9622 9.57814 12.1421Z" fill="#BA8955"/>
<path fill-rule="evenodd" clip-rule="evenodd" d="M8.46549 14.1556C8.0366 14.3381 7.79669 14.7395 7.92969 15.0521C8.06282 15.3647 8.51827 15.4702 8.94718 15.2877C9.37619 15.1052 9.61608 14.7038 9.48308 14.3912C9.35017 14.0786 8.8945 13.9731 8.46549 14.1556Z" fill="#DBAA77"/>
<path fill-rule="evenodd" clip-rule="evenodd" d="M8.37228 14.1913C7.9868 14.3552 7.77125 14.7159 7.89093 14.9967C8.01028 15.2776 8.41968 15.3724 8.80494 15.2084C9.19032 15.0444 9.40598 14.6838 9.28629 14.4029C9.16682 14.1221 8.75755 14.0273 8.37228 14.1913Z" fill="black"/>
<path fill-rule="evenodd" clip-rule="evenodd" d="M8.76505 14.2665C8.66411 14.2665 8.58223 14.3483 8.58223 14.4492C8.58223 14.5501 8.66411 14.6319 8.76505 14.6319C8.86599 14.6319 8.94775 14.5501 8.94775 14.4492C8.94775 14.3483 8.86599 14.2665 8.76505 14.2665Z" fill="#FEFEFE"/>
<path fill-rule="evenodd" clip-rule="evenodd" d="M9.09818 14.4787C9.03801 14.4787 8.9891 14.5275 8.9891 14.5878C8.9891 14.6479 9.03803 14.6968 9.09818 14.6968C9.15834 14.6968 9.20728 14.6479 9.20728 14.5878C9.2073 14.5275 9.15836 14.4787 9.09818 14.4787Z" fill="#FEFEFE"/>
<path fill-rule="evenodd" clip-rule="evenodd" d="M1.26982 17.3967C1.25329 17.3693 1.2176 17.3605 1.19004 17.377C1.16259 17.3936 1.1539 17.4294 1.17042 17.4568C1.18849 17.4865 1.2058 17.5144 1.22244 17.5401C1.47514 17.9306 1.79802 18.2443 2.16708 18.3957C2.5411 18.549 2.96029 18.5364 3.39934 18.2704L3.4486 18.2396C3.4756 18.2222 3.48319 18.1861 3.46568 18.1591C3.44815 18.1322 3.41212 18.1245 3.38514 18.142L3.33919 18.171C2.93552 18.4154 2.55214 18.4278 2.21138 18.288C1.86558 18.1464 1.56077 17.8485 1.3201 17.4767C1.30199 17.4488 1.28512 17.4219 1.26982 17.3967Z" fill="#A3692A"/>
<path fill-rule="evenodd" clip-rule="evenodd" d="M2.11093 17.0261C1.78254 17.3854 1.21455 17.5972 0.952506 17.3814C0.819599 17.2722 0.543229 16.9144 0.42851 16.6174C0.338249 16.3833 0.392251 16.2564 0.651656 16.2488C1.01192 16.2382 2.42855 16.6785 2.11093 17.0261Z" fill="#D98477"/>
<path fill-rule="evenodd" clip-rule="evenodd" d="M2.11093 17.0261C1.78254 17.3854 1.21455 17.5972 0.952502 17.3814C0.819595 17.2723 0.543225 16.9144 0.428506 16.6174C0.418471 16.5911 0.410097 16.5662 0.403707 16.5426C0.51456 16.8432 0.926282 17.2364 1.36288 17.0603C1.72621 16.9137 1.5175 16.5777 1.37698 16.4057C1.84491 16.5631 2.30643 16.8121 2.11093 17.0261Z" fill="#CF7465"/>
<path fill-rule="evenodd" clip-rule="evenodd" d="M17.0358 22.0175C16.1322 22.2018 15.6805 22.2905 14.8166 22.3878C14.6463 22.2451 14.5377 22.0871 14.5203 21.9371C14.4329 21.178 16.389 18.4918 17.3525 19.0466C18.5684 19.5649 18.4078 21.7377 17.0358 22.0175Z" fill="#BA8955"/>
<path fill-rule="evenodd" clip-rule="evenodd" d="M15.4278 18.7047C16.971 18.408 18.2077 19.4247 17.8335 20.856C17.5573 21.9127 15.8858 21.9245 13.9258 23.4417C11.5382 25.2902 11.5765 26.8693 10.6523 26.7923C9.72805 26.7153 9.61255 25.9066 9.61255 25.9066C8.9185 26.1773 8.54195 25.649 8.61104 25.0208C8.61104 25.0208 7.87932 24.9823 8.07194 24.212C8.26456 23.4417 11.8846 19.2824 15.4278 18.7047Z" fill="#E8BB8B"/>
<path fill-rule="evenodd" clip-rule="evenodd" d="M16.7493 18.7856C17.5884 19.0868 18.1356 19.8737 17.8789 20.856C17.6027 21.9126 15.8855 21.9244 13.9255 23.4417C11.5379 25.2902 11.5763 26.8693 10.652 26.7923C9.72781 26.7153 9.61231 25.9065 9.61231 25.9065C8.91826 26.1773 8.54172 25.649 8.6108 25.0208C8.6108 25.0208 7.87908 24.9822 8.0717 24.212C8.0933 24.126 8.15766 23.9974 8.25992 23.8366C8.27093 23.8347 8.28229 23.8332 8.29353 23.8325C8.19842 24.1077 8.36857 24.8991 8.97776 24.3147C8.75779 24.4614 8.82027 25.2392 9.29381 25.2974C9.95766 25.3791 9.95732 24.8846 9.90442 25.1756C9.76855 25.9227 10.3585 26.0208 10.7462 25.7405C11.2148 25.4017 11.5223 24.7097 11.6445 24.4968C12.0148 23.8515 12.611 23.2023 12.9143 23.2879C13.1839 23.3637 14.5304 21.6869 14.5202 21.9663C14.499 22.548 14.9981 21.6128 15.311 21.4826C15.1902 22.0464 15.5528 21.6575 16.2061 21.3241C17.2307 20.8008 17.236 19.4315 16.7685 18.8131C16.7614 18.8036 16.755 18.7945 16.7493 18.7856Z" fill="#C79865"/>
<path fill-rule="evenodd" clip-rule="evenodd" d="M9.64246 26.0269C9.6191 25.954 9.61237 25.9065 9.61237 25.9065C9.5943 25.9136 9.57655 25.9199 9.55903 25.9258C9.56079 25.916 9.56255 25.9064 9.56453 25.897C9.72256 25.107 10.3152 24.7121 10.3168 24.7109C10.339 24.6959 10.3692 24.7017 10.3842 24.724C10.3993 24.7462 10.3934 24.7765 10.3712 24.7915C10.3696 24.7925 9.81008 25.1655 9.65998 25.916C9.65303 25.9503 9.6473 25.9874 9.64246 26.0269ZM8.60293 25.1521C8.60337 25.109 8.60602 25.0651 8.61087 25.0207C8.61087 25.0207 8.58465 25.0193 8.54342 25.0119C8.5939 24.8304 8.75952 24.3635 9.19712 24.0198C9.21828 24.0033 9.2487 24.0068 9.26545 24.0279C9.28197 24.0489 9.27823 24.0795 9.25707 24.0961C8.73242 24.5084 8.62056 25.1054 8.62012 25.107L8.61748 25.116C8.61726 25.1165 8.61197 25.1291 8.60293 25.1521Z" fill="#A3692A"/>
</svg>
