<svg width="34" height="34" viewBox="0 0 34 34" fill="none" xmlns="http://www.w3.org/2000/svg">
<path d="M18.6803 1.21393C16.0839 3.43123 20.128 5.72823 18.3749 6.35377C16.5753 6.99924 15.1475 4.83573 14.2112 2.64897C12.4448 4.23674 11.6612 7.69651 11.8139 10.3992C10.3729 9.82151 10.1339 9.18401 10.2667 7.15862C5.53854 9.84807 10.9971 15.4063 7.6569 16.0106C6.47686 16.2231 4.16327 14.8817 3.89499 12.7899C1.95194 15.6188 2.94671 19.5766 5.42167 22.8438C3.26346 23.2223 2.40682 22.1863 1.64913 21.2832C0.265952 25.3141 1.97452 28.216 5.22378 30.0688C7.11237 28.5414 9.09128 27.1469 10.5257 24.8559C8.87878 25.4934 8.00221 25.1547 6.52135 25.2012C8.51354 23.4414 10.3331 21.1504 11.6612 19.0918C10.1471 19.5367 9.6026 19.8489 8.30768 19.4172C9.86159 18.1024 11.2561 16.8008 12.2655 15.0211C11.7342 15.4063 11.0503 15.5922 10.0674 15.3531C11.8405 13.8922 12.7635 13.1485 13.6003 11.1231C13.9987 12.6172 14.5964 13.952 16.1171 15.3731C15.5792 15.5457 14.9616 15.3664 14.0319 15.0477C14.9483 16.5285 16.801 18.2285 18.6206 19.3309C17.5846 19.7094 16.2897 19.6031 15.1077 19.1649C15.9444 21.3828 18.5807 23.1426 20.3471 25.0153C18.9858 25.4535 17.4784 25.0551 16.1901 24.9223C17.0999 26.7153 18.8596 27.9637 20.5995 29.2321C21.3432 28.6875 22.0139 28.0965 22.4257 27.3528C21.5491 27.4324 20.5198 27.6781 19.5901 27.4059C20.7921 26.2371 22.6714 25.3074 23.2424 23.9262C22.4389 24.1985 21.476 24.2117 20.7655 23.9793C22.0073 23.2887 23.1495 22.0668 23.7737 21.1438C23.1428 21.343 22.7643 21.4028 22.2331 21.3496C23.0831 20.6391 24.046 19.6297 24.3116 18.6934C25.0155 19.5699 25.3874 20.4465 26.596 21.3629C25.9253 21.5156 25.4936 21.3762 25.0952 21.2633C25.7858 22.3723 27.4194 23.4281 28.4753 24.2516C27.4194 24.2317 26.5694 24.3047 25.5069 23.7004C26.4167 24.9887 27.6518 26.4231 29.0132 27.5188C28.037 27.7711 27.6319 27.6516 26.5096 27.2531C27.2335 28.309 28.0303 29.0926 28.9202 29.8164C31.6628 27.7778 32.8581 24.5305 32.7319 19.8422C31.6694 22.0535 30.2549 21.9539 28.8339 21.6817C29.9827 20.9578 31.51 15.0211 30.4874 13.4871C30.2085 15.5524 27.4924 19.2844 25.5667 17.5711C28.5284 13.4672 28.4221 11.7074 27.2003 9.50276C26.5628 10.8309 25.5202 13.8125 23.3952 13.0555C27.5589 5.6917 19.6964 5.14252 18.6803 1.21393ZM5.32073 30.1219C7.23854 31.1977 9.68229 31.9082 12.3385 32.2801L12.478 31.1711C10.1206 31.0449 7.72995 30.6531 5.32073 30.1219ZM19.2382 30.6C17.6444 30.9918 16.0241 31.1778 14.3839 31.2043L14.4702 32.4992C15.2339 32.559 16.0042 32.5856 16.7811 32.5856C19.6565 32.5922 22.1069 32.3731 24.1655 31.8883L24.1854 31.2774C22.4987 31.2973 20.8452 31.1113 19.2382 30.6Z" fill="black"/>
</svg>
