<svg width="39" height="39" viewBox="0 0 39 39" fill="none" xmlns="http://www.w3.org/2000/svg">
<path d="M37.385 21.6633C36.7147 20.9625 35.9835 20.5664 35.4655 20.3531C35.1913 20.2312 36.0444 20.2922 36.7147 19.957C36.928 19.8351 37.1108 19.6828 37.2022 19.5304C37.3546 19.3476 37.2327 19.0429 36.989 19.0429C36.7147 19.0429 36.3491 18.982 36.0444 18.8601C35.2827 18.5554 35.039 17.9765 35.039 17.9765V17.7328C35.039 17.7328 36.6538 14.625 36.989 9.99372C37.3241 5.36247 35.7397 1.31013 34.6429 0.761692C33.546 0.243723 31.1694 0.670285 28.4882 2.83357C26.4163 4.50935 24.771 6.55075 24.3749 7.46482C24.314 7.61716 24.1311 7.6781 23.9788 7.61716C23.4608 7.40388 21.9983 7.00779 19.6522 6.97732H19.3475C17.0015 7.00779 15.539 7.40388 15.021 7.61716C14.8686 7.6781 14.6858 7.61716 14.6249 7.46482C14.1983 6.55075 12.5835 4.50935 10.5421 2.86404C7.86083 0.700754 5.48427 0.274192 4.35692 0.79216C3.26005 1.31013 1.67567 5.36247 2.01083 10.0242C2.34599 14.6554 3.96083 17.7633 3.96083 17.7633V18.007C3.96083 18.007 3.71708 18.5859 2.95536 18.8906C2.65067 19.0125 2.28505 19.0429 2.01083 19.0734C1.76708 19.0734 1.6452 19.3781 1.79755 19.5609C1.91942 19.7133 2.07177 19.8656 2.28505 19.9875C2.92489 20.3226 3.77802 20.2617 3.53427 20.3836C3.0163 20.5968 2.28505 20.9929 1.61474 21.6937C0.944423 22.364 0.670204 23.4609 0.609267 24.2531C0.578798 24.4968 0.853017 24.6492 1.0663 24.5578C1.52333 24.314 2.25458 24.0093 2.98583 24.0398C4.17411 24.0703 5.69755 26.0508 6.39833 27.4218C7.09911 28.7625 14.564 36.2578 19.3475 36.5929V36.6234H19.6522V36.5625C24.4358 36.2578 31.9007 28.732 32.6015 27.3914C33.3327 26.0203 34.8561 24.0398 36.014 24.0093C36.7452 23.9789 37.4765 24.2836 37.9335 24.5273C38.1468 24.6492 38.3905 24.4664 38.3905 24.2226C38.3296 23.4609 38.0554 22.364 37.385 21.6633Z" fill="#FE9040"/>
<path d="M37.7199 26.782C36.8363 25.5632 35.4957 25.4718 35.4957 25.4718C35.648 25.35 35.8613 25.289 36.0746 25.289C36.3184 25.2586 36.4402 24.9539 36.2574 24.7711C35.9223 24.4359 35.5262 24.314 35.3738 24.2531C35.3434 24.2531 35.2824 24.2226 35.252 24.1922C31.3824 20.475 20.7793 29.3718 19.591 30.3773C19.5605 30.4078 19.4996 30.4382 19.4387 30.4992L19.3168 30.3773C18.159 29.3718 7.52539 20.5054 3.65586 24.1922C3.62539 24.2226 3.59492 24.2531 3.53398 24.2531C3.38164 24.2836 2.98555 24.4359 2.65039 24.7711C2.46758 24.9539 2.58945 25.2586 2.8332 25.289C3.04648 25.3195 3.25977 25.3804 3.41211 25.4718C3.41211 25.4718 2.07148 25.5632 1.18789 26.782C1.15394 26.8273 1.13327 26.8811 1.12818 26.9374C1.1231 26.9938 1.13381 27.0505 1.15912 27.1011C1.18443 27.1517 1.22332 27.1942 1.27146 27.224C1.31959 27.2537 1.37506 27.2695 1.43164 27.2695C2.01055 27.239 2.92461 27.3914 3.50352 28.2445C4.44805 29.6156 4.99648 31.0476 7.09883 32.2664C9.29258 33.5156 10.6027 33.7593 12.827 35.1C14.8684 36.3187 16.4832 38.3601 19.3168 38.4211H19.4387C22.2723 38.3601 23.948 36.3492 25.9895 35.1C28.2441 33.7593 29.5543 33.5156 31.7176 32.2664C33.8199 31.0476 34.3684 29.6156 35.3129 28.2445C35.8918 27.3914 36.8059 27.239 37.3848 27.2695C37.7199 27.2695 37.8723 26.9953 37.7199 26.782Z" fill="#FE9040"/>
<path d="M36.4403 26.2641C36.1356 26.0813 35.77 25.9289 35.3434 25.8985C35.0387 25.868 34.7645 25.868 34.5208 25.8985C34.1856 25.9594 34.0333 25.5024 34.338 25.3196C34.3684 25.2891 34.3989 25.2891 34.4294 25.2586C34.4903 25.2281 34.5512 25.1977 34.6122 25.1977C34.9169 25.1063 34.8864 24.6797 34.5817 24.6188C34.1247 24.5274 33.5458 24.4969 32.9364 24.6797C32.0223 24.9235 31.2911 25.5633 31.1083 25.5938C30.7122 25.6547 30.8036 25.2891 30.8036 25.2891C30.8036 25.2891 30.8645 24.9844 31.2911 24.6492C31.5348 24.4664 31.352 24.0703 31.0778 24.1008C30.377 24.1617 29.4934 24.3141 28.7012 24.6797C26.7208 25.5328 23.9481 27.5133 21.8762 29.5242C21.0536 30.3164 20.0481 30.6211 19.5606 30.7125C19.0426 30.6211 18.0372 30.3164 17.2755 29.5242C15.234 27.4524 12.3395 25.5328 10.359 24.6492C9.56686 24.3141 8.68327 24.1617 7.98249 24.0703C7.6778 24.0399 7.52545 24.4055 7.7692 24.6188C8.1653 24.9539 8.2567 25.2586 8.2567 25.2586C8.2567 25.2586 8.34811 25.6242 7.95202 25.5633C7.7692 25.5328 7.03795 24.893 6.12389 24.6492C5.51452 24.4969 4.93561 24.5274 4.47858 24.5883C4.17389 24.6492 4.14342 25.0758 4.44811 25.1672C4.50905 25.1977 4.56999 25.2281 4.63092 25.2281C4.66139 25.2586 4.69186 25.2586 4.72233 25.2891C5.02702 25.4719 4.87467 25.8985 4.53952 25.868C4.29577 25.8375 4.02155 25.8071 3.71686 25.868C3.2903 25.9289 2.92467 26.0813 2.61999 26.2336C2.37624 26.386 2.43717 26.7516 2.71139 26.7821C2.92467 26.843 3.16842 26.9039 3.41217 27.0563C4.78327 27.8789 4.99655 29.5547 6.58092 30.8649C8.77467 32.693 11.9739 33.0586 14.8075 35.3742C17.4278 37.5071 18.6161 37.7203 19.4083 37.7203H19.5911C20.3833 37.6899 21.663 37.5071 24.2833 35.3742C27.1169 33.0586 30.3161 32.6625 32.5098 30.8649C34.0942 29.5547 34.3075 27.9094 35.6786 27.0563C35.9223 26.9039 36.1661 26.8125 36.3794 26.7821C36.6231 26.7516 36.684 26.386 36.4403 26.2641Z" fill="#FAFAFA"/>
<path d="M19.5004 28.5797C17.916 28.5797 16.6668 29.1891 16.8496 30.1336C17.0934 31.261 18.5254 32.236 19.5309 32.236C20.5059 32.236 21.877 31.3219 22.1207 30.1336C22.3035 29.3414 21.2067 28.5797 19.5004 28.5797ZM27.7879 20.4445C27.6051 19.8656 26.1731 19.1039 24.7106 20.1094C23.2785 21.0844 23.4004 23.3391 23.5528 23.4305C23.766 23.5524 23.827 23.1867 24.5278 23.0953C24.9848 23.0344 25.8379 23.3695 26.9043 22.6078C27.8184 21.968 27.9098 20.8406 27.7879 20.4445ZM11.2129 20.4445C11.3957 19.8656 12.8278 19.1039 14.2903 20.1094C15.7223 21.0844 15.6004 23.3391 15.4481 23.4305C15.2348 23.5524 15.1738 23.1867 14.4731 23.0953C14.016 23.0344 13.1629 23.3695 12.0965 22.6078C11.1824 21.968 11.091 20.8406 11.2129 20.4445Z" fill="#2F2F2F"/>
<path d="M4.93633 2.16323C5.48477 1.55386 7.67852 2.40698 10.1465 6.06323C11.4262 7.95229 11.5785 10.4507 11.5785 10.4507C11.5785 10.4507 10.9996 9.59761 9.8418 9.74995C9.75039 9.74995 9.65898 9.87182 9.71992 9.96323C9.87227 10.3289 10.2074 11.2429 9.87227 11.7609C9.87227 11.7609 9.4457 10.5421 7.92227 10.6335C7.80039 10.6335 7.73945 10.7859 7.80039 10.8773C8.04414 11.2125 8.50117 11.9437 8.62305 12.7968C8.62305 12.7968 8.01367 12.7664 7.43477 12.1875C7.34336 12.096 7.19102 12.157 7.16055 12.2789C7.13008 12.6445 7.19102 13.1929 7.4957 13.5585C7.4957 13.5585 7.25195 13.6804 6.94727 13.5281C6.82539 13.4671 6.70352 13.5585 6.73398 13.6804C6.76445 13.8632 6.79492 14.107 6.9168 14.3203C6.9168 14.3203 6.76445 14.3812 6.49023 14.2898C6.39883 14.2593 6.30742 14.2898 6.27695 14.4117C6.24648 14.564 6.21602 14.7773 6.27695 14.9296C6.27695 14.9296 5.60664 15.996 4.75352 17.3976C4.75352 17.3976 2.98633 14.564 2.98633 9.47573C3.04727 4.99682 4.05273 3.10776 4.93633 2.16323ZM34.0645 2.16323C33.516 1.55386 31.3223 2.40698 28.8543 6.06323C27.5746 7.98276 27.4223 10.4507 27.4223 10.4507C27.4223 10.4507 28.0012 9.59761 29.159 9.74995C29.2504 9.74995 29.3418 9.87182 29.2809 9.96323C29.1285 10.3289 28.7934 11.2429 29.1285 11.7609C29.1285 11.7609 29.5551 10.5421 31.0785 10.6335C31.2004 10.6335 31.2613 10.7859 31.2004 10.8773C30.9566 11.2125 30.4996 11.9437 30.3777 12.7968C30.3777 12.7968 30.9871 12.7664 31.566 12.1875C31.6574 12.096 31.8098 12.157 31.8402 12.2789C31.8707 12.6445 31.8098 13.1929 31.5051 13.5585C31.5051 13.5585 31.7488 13.6804 32.0535 13.5281C32.1754 13.4671 32.2973 13.5585 32.2668 13.6804C32.2363 13.8632 32.2059 14.107 32.084 14.3203C32.084 14.3203 32.2363 14.3812 32.5105 14.2898C32.602 14.2593 32.6934 14.2898 32.7238 14.4117C32.7543 14.564 32.7848 14.7773 32.7238 14.9296C32.7238 14.9296 33.3941 15.996 34.2473 17.3976C34.2473 17.3976 36.0145 14.564 36.0145 9.47573C35.9535 4.99682 34.948 3.10776 34.0645 2.16323Z" fill="#FFE0B2"/>
<path d="M19.5308 33.7593V31.657" stroke="#2F2F2F" stroke-width="0.914062" stroke-miterlimit="10"/>
<path d="M16.1484 35.0695C16.6664 35.1 18.0375 35.2828 19.5609 33.5156" stroke="#2F2F2F" stroke-width="0.914062" stroke-miterlimit="10" stroke-linecap="round"/>
<path d="M22.9433 35.0695C22.4253 35.1 21.0542 35.2828 19.5308 33.5156" stroke="#2F2F2F" stroke-width="0.914062" stroke-miterlimit="10" stroke-linecap="round"/>
<path d="M18.1895 35.2219C18.1895 35.2219 18.7684 34.9782 19.5605 34.9782C20.3527 34.9782 21.023 35.2524 21.023 35.2524L19.5605 33.8813L18.1895 35.2219Z" fill="#2F2F2F"/>
<path d="M13.3457 20.7188C13.514 20.7188 13.6504 20.5823 13.6504 20.4141C13.6504 20.2458 13.514 20.1094 13.3457 20.1094C13.1774 20.1094 13.041 20.2458 13.041 20.4141C13.041 20.5823 13.1774 20.7188 13.3457 20.7188Z" fill="#E1E1E1"/>
<path d="M25.6543 20.7188C25.8226 20.7188 25.959 20.5823 25.959 20.4141C25.959 20.2458 25.8226 20.1094 25.6543 20.1094C25.486 20.1094 25.3496 20.2458 25.3496 20.4141C25.3496 20.5823 25.486 20.7188 25.6543 20.7188Z" fill="#E1E1E1"/>
</svg>
