<svg width="36" height="36" viewBox="0 0 36 36" fill="none" xmlns="http://www.w3.org/2000/svg">
<path d="M32.1191 13.275C25.7066 3.825 10.2941 3.825 3.88157 13.275C1.63157 16.5938 1.06907 20.3062 1.12532 21.0938C1.29407 23.3438 6.35657 32.6812 18.0003 32.625C29.5878 32.5688 34.6503 23.4 34.8753 21.0938C34.9316 20.3062 34.3691 16.5938 32.1191 13.275Z" fill="#83BF4F"/>
<path d="M1.125 21.0938C1.29375 23.3438 4.8375 33.2437 18 33.1875C31.1062 33.1313 34.65 23.4 34.875 21.0938C34.875 21.0938 28.0687 26.7188 18.0562 26.7188C7.93125 26.7188 1.125 21.0938 1.125 21.0938Z" fill="#FFDF99"/>
<path d="M14.7937 18C14.0062 18 12.375 20.25 12.375 20.25C12.375 20.25 14.0062 19.5188 14.7937 19.5188C15.5812 19.5188 17.2125 20.25 17.2125 20.25C17.2125 20.25 15.5812 18 14.7937 18ZM21.2063 18C20.4188 18 18.7875 20.25 18.7875 20.25C18.7875 20.25 20.4188 19.5188 21.2063 19.5188C21.9938 19.5188 23.625 20.25 23.625 20.25C23.625 20.25 21.9938 18 21.2063 18Z" fill="#3E4347"/>
<path d="M28.125 16.3125C31.8529 16.3125 34.875 13.2904 34.875 9.5625C34.875 5.83458 31.8529 2.8125 28.125 2.8125C24.3971 2.8125 21.375 5.83458 21.375 9.5625C21.375 13.2904 24.3971 16.3125 28.125 16.3125Z" fill="#83BF4F"/>
<path d="M28.125 14.0625C30.6103 14.0625 32.625 12.0478 32.625 9.5625C32.625 7.07722 30.6103 5.0625 28.125 5.0625C25.6397 5.0625 23.625 7.07722 23.625 9.5625C23.625 12.0478 25.6397 14.0625 28.125 14.0625Z" fill="#FFE655"/>
<path d="M30.375 9.67499C30.375 10.9125 29.3625 11.925 28.125 11.925C26.8875 11.925 25.875 10.9125 25.875 9.67499C25.875 8.43749 26.8875 7.42499 28.125 7.42499C29.3625 7.42499 30.375 8.43749 30.375 9.67499Z" fill="#3E4347"/>
<path d="M14.625 9.5625C14.625 13.275 11.5875 16.3125 7.875 16.3125C4.1625 16.3125 1.125 13.275 1.125 9.5625C1.125 5.85 4.1625 2.8125 7.875 2.8125C11.5875 2.8125 14.625 5.85 14.625 9.5625Z" fill="#83BF4F"/>
<path d="M7.875 14.0625C10.3603 14.0625 12.375 12.0478 12.375 9.5625C12.375 7.07722 10.3603 5.0625 7.875 5.0625C5.38972 5.0625 3.375 7.07722 3.375 9.5625C3.375 12.0478 5.38972 14.0625 7.875 14.0625Z" fill="#FFE655"/>
<path d="M10.125 9.67499C10.125 10.9125 9.1125 11.925 7.875 11.925C6.6375 11.925 5.625 10.9125 5.625 9.67499C5.625 8.43749 6.6375 7.42499 7.875 7.42499C9.1125 7.42499 10.125 8.43749 10.125 9.67499Z" fill="#3E4347"/>
<path d="M7.87568 9.56246C10.8891 9.56246 13.3319 8.20252 13.3319 6.52496C13.3319 4.84739 10.8891 3.48746 7.87568 3.48746C4.86228 3.48746 2.41943 4.84739 2.41943 6.52496C2.41943 8.20252 4.86228 9.56246 7.87568 9.56246Z" fill="#83BF4F"/>
<path d="M28.1257 9.56246C31.1391 9.56246 33.5819 8.20252 33.5819 6.52496C33.5819 4.84739 31.1391 3.48746 28.1257 3.48746C25.1123 3.48746 22.6694 4.84739 22.6694 6.52496C22.6694 8.20252 25.1123 9.56246 28.1257 9.56246Z" fill="#83BF4F"/>
</svg>
