<svg width="35" height="34" viewBox="0 0 35 34" fill="none" xmlns="http://www.w3.org/2000/svg">
<path d="M4.89094 32.8897L5.31063 30.9028L1.64766 31.8166C1.64766 31.8166 1.39001 28.2838 4.54298 26.2438C7.99876 24.0072 11.9778 26.3899 11.9778 26.3899C11.9778 26.3899 11.5874 29.0567 9.22063 31.3544C7.62688 32.8977 4.89094 32.8897 4.89094 32.8897ZM30.1094 32.8897L29.6897 30.9028L33.3527 31.8166C33.3527 31.8166 33.6103 28.2838 30.4574 26.2438C27.0016 24.0072 23.0225 26.3899 23.0225 26.3899C23.0225 26.3899 23.413 29.0567 25.7797 31.3544C27.3734 32.8977 30.1094 32.8897 30.1094 32.8897Z" fill="#543930"/>
<path d="M4.89094 32.8897L5.31063 30.9028L1.64766 31.8166C1.64766 31.8166 1.39001 28.2838 4.54298 26.2438C7.99876 24.0072 11.9778 26.3899 11.9778 26.3899C11.9778 26.3899 11.5874 29.0567 9.22063 31.3544C7.62688 32.8977 4.89094 32.8897 4.89094 32.8897Z" fill="url(#paint0_radial_42_1038)"/>
<path d="M4.89094 32.8897L5.31063 30.9028L1.64766 31.8165C1.64766 31.8165 1.39001 28.2837 4.54298 26.2437C7.99876 24.0072 11.5874 29.0567 9.22063 31.3544C7.62688 32.8976 4.89094 32.8897 4.89094 32.8897Z" fill="url(#paint1_radial_42_1038)"/>
<path d="M30.1096 32.8897L29.6899 30.9028L33.3529 31.8166C33.3529 31.8166 33.6105 28.2838 30.4575 26.2438C27.0018 24.0072 23.0227 26.3899 23.0227 26.3899C23.0227 26.3899 23.4132 29.0567 25.7799 31.3544C27.3736 32.8977 30.1096 32.8897 30.1096 32.8897Z" fill="url(#paint2_radial_42_1038)"/>
<path d="M30.1092 32.8897L29.6895 30.9028L33.3525 31.8165C33.3525 31.8165 33.6101 28.2837 30.4572 26.2437C27.0014 24.0072 23.4128 29.0567 25.7795 31.3544C27.3733 32.8976 30.1092 32.8897 30.1092 32.8897Z" fill="url(#paint3_radial_42_1038)"/>
<path d="M7.61609 25.1919C5.66906 25.1919 4.08594 23.6752 4.08594 21.8105C4.08594 19.9458 5.66906 18.4291 7.61609 18.4291H27.6522C29.5116 18.4291 30.9167 19.8821 30.9167 21.8105C30.9167 23.739 29.5142 25.1919 27.6522 25.1919H7.61609Z" fill="#E59600"/>
<path d="M17.5004 32.5205C12.7058 32.5205 5.9563 28.2253 5.9563 18.6761C5.9563 9.7936 11.0271 2.83423 17.5004 2.83423C23.9736 2.83423 29.0444 9.7936 29.0444 18.6761C29.0444 28.2253 22.2949 32.5205 17.5004 32.5205Z" fill="#FFCA28"/>
<path d="M18.8466 23.1333C18.811 23.1185 18.7734 23.1087 18.7351 23.1041H16.2648C16.2276 23.1094 16.1904 23.1173 16.1532 23.1333C15.9301 23.2236 15.8052 23.4573 15.9115 23.7017C16.0177 23.9488 16.5091 24.642 17.4999 24.642C18.4907 24.642 18.9821 23.9488 19.0884 23.7017C19.1946 23.4573 19.0724 23.2236 18.8466 23.1333Z" fill="#E59600"/>
<path d="M9.11933 18.1634C10.2004 16.6175 12.684 16.559 14.0281 17.765C14.2884 17.9987 14.6257 18.3414 14.4557 18.7239C14.3017 19.0719 13.9351 19.0878 13.627 18.9683C12.7664 18.6362 11.9217 18.445 10.9973 18.6123C10.7582 18.6548 10.5271 18.7239 10.2987 18.7983C10.1154 18.8567 9.95074 18.963 9.76745 19.0187C9.26542 19.1755 8.81917 18.615 9.11933 18.1634ZM25.2056 19.0028C24.4432 18.6655 23.649 18.4689 22.8096 18.5645C22.3581 18.615 21.9225 18.7398 21.5028 18.9125C21.2159 19.032 20.8918 19.1409 20.6475 18.8673C20.0073 18.1555 21.5293 17.3241 22.0287 17.1355C22.9717 16.7795 24.0634 16.8672 24.9453 17.3453C25.3145 17.5445 25.7315 17.8367 25.9228 18.2219C26.1512 18.6787 25.6837 19.1967 25.2056 19.0028Z" fill="#6D4C41"/>
<path d="M11.7625 23.112C12.7131 23.112 13.4838 22.314 13.4838 21.3297C13.4838 20.3453 12.7131 19.5473 11.7625 19.5473C10.8119 19.5473 10.0413 20.3453 10.0413 21.3297C10.0413 22.314 10.8119 23.112 11.7625 23.112Z" fill="#404040"/>
<path d="M23.2376 23.112C24.1882 23.112 24.9589 22.314 24.9589 21.3297C24.9589 20.3453 24.1882 19.5473 23.2376 19.5473C22.287 19.5473 21.5164 20.3453 21.5164 21.3297C21.5164 22.314 22.287 23.112 23.2376 23.112Z" fill="#404040"/>
<path d="M20.4249 26.0232C19.3119 26.6847 15.6676 26.6847 14.5546 26.0232C13.9171 25.6434 13.2636 26.2251 13.5293 26.8042C13.7896 27.3753 15.7791 28.6981 17.5004 28.6981C19.219 28.6981 21.1846 27.3753 21.4449 26.8042C21.7079 26.2225 21.0651 25.6434 20.4249 26.0232Z" fill="#795548"/>
<path d="M28.0879 4.91141C26.5021 3.25922 24.9987 2.56063 24.8526 2.54203C23.0118 1.7 20.6424 1.05984 17.5691 1.05984C4.0621 1.05984 3.12444 12.1178 3.66898 16.9655C4.1471 21.2394 6.72101 22.3098 6.72101 22.3098L6.35444 18.1077C6.35444 18.1077 11.1888 16.8353 13.7388 14.8617C16.2888 12.8881 17.4655 11.1988 17.4655 11.1988C17.4655 11.1988 18.3262 12.4738 21.1604 14.8298C23.9946 17.1859 28.6669 18.1741 28.6669 18.1741L28.6855 22.2992C28.6855 22.2992 30.9327 21.2527 31.3099 16.9681C31.7774 11.5998 31.1346 8.38844 28.0879 4.91141Z" fill="#543930"/>
<path d="M28.0879 4.91141C26.5021 3.25922 24.9987 2.56063 24.8526 2.54203C23.0118 1.7 20.6424 1.05984 17.5691 1.05984C4.0621 1.05984 3.12444 12.1178 3.66898 16.9655C4.1471 21.2394 6.72101 22.3098 6.72101 22.3098L6.35444 18.1077C6.35444 18.1077 11.1888 16.8353 13.7388 14.8617C16.2888 12.8881 17.4655 11.1988 17.4655 11.1988C17.4655 11.1988 18.3262 12.4738 21.1604 14.8298C23.9946 17.1859 28.6669 18.1741 28.6669 18.1741L28.6855 22.2992C28.6855 22.2992 30.9327 21.2527 31.3099 16.9681C31.7774 11.5998 31.1346 8.38844 28.0879 4.91141Z" fill="url(#paint4_radial_42_1038)"/>
<defs>
<radialGradient id="paint0_radial_42_1038" cx="0" cy="0" r="1" gradientUnits="userSpaceOnUse" gradientTransform="translate(6.5356 29.087) rotate(-27.0903) scale(6.11476 3.56794)">
<stop offset="0.525" stop-color="#6D4C41" stop-opacity="0"/>
<stop offset="1" stop-color="#6D4C41"/>
</radialGradient>
<radialGradient id="paint1_radial_42_1038" cx="0" cy="0" r="1" gradientUnits="userSpaceOnUse" gradientTransform="translate(4.09526 31.7483) rotate(-33.064) scale(4.09878 2.07707)">
<stop stop-color="#6D4C41"/>
<stop offset="0.699" stop-color="#6D4C41" stop-opacity="0"/>
</radialGradient>
<radialGradient id="paint2_radial_42_1038" cx="0" cy="0" r="1" gradientUnits="userSpaceOnUse" gradientTransform="translate(28.4652 29.0867) rotate(-152.91) scale(6.11476 3.56794)">
<stop offset="0.525" stop-color="#6D4C41" stop-opacity="0"/>
<stop offset="1" stop-color="#6D4C41"/>
</radialGradient>
<radialGradient id="paint3_radial_42_1038" cx="0" cy="0" r="1" gradientUnits="userSpaceOnUse" gradientTransform="translate(30.9048 31.7482) rotate(-146.936) scale(4.09878 2.07707)">
<stop stop-color="#6D4C41"/>
<stop offset="0.699" stop-color="#6D4C41" stop-opacity="0"/>
</radialGradient>
<radialGradient id="paint4_radial_42_1038" cx="0" cy="0" r="1" gradientUnits="userSpaceOnUse" gradientTransform="translate(17.5055 14.3397) rotate(1.11735) scale(13.7231 13.3621)">
<stop offset="0.699" stop-color="#6D4C41" stop-opacity="0"/>
<stop offset="1" stop-color="#6D4C41"/>
</radialGradient>
</defs>
</svg>
