<svg width="25" height="23" viewBox="0 0 25 23" fill="none" xmlns="http://www.w3.org/2000/svg">
<path d="M1.46924 12.7763C1.46924 14.5763 2.73261 16.1446 4.51461 16.4067C5.73711 16.5867 6.97199 16.7251 8.21924 16.8218V22.0463L12.8047 17.4608C13.116 17.1522 13.5332 16.974 13.9714 16.9625C16.1105 16.904 18.2443 16.7184 20.3614 16.4067C22.1434 16.1446 23.4067 14.5775 23.4067 12.7752V6.00495C23.4067 4.2027 22.1434 2.63558 20.3614 2.37345C17.7378 1.98841 15.0896 1.79552 12.438 1.79633C9.74699 1.79633 7.10099 1.9932 4.51461 2.37345C2.73261 2.63558 1.46924 4.20383 1.46924 6.00495V12.7763Z" stroke="black" stroke-width="1.6875" stroke-linecap="round" stroke-linejoin="round"/>
<path d="M13.3248 5.16715C13.3383 4.96121 13.1457 4.78095 12.8946 4.76454C12.6436 4.74813 12.4292 4.90178 12.4157 5.10772L11.8307 14.0572C11.8172 14.2631 12.0098 14.4434 12.2609 14.4598C12.5119 14.4762 12.7263 14.3225 12.7398 14.1166L13.3248 5.16715Z" fill="black"/>
<path d="M9.55833 6.9182C9.5718 6.71226 9.3792 6.53201 9.12815 6.5156C8.8771 6.49919 8.66268 6.65283 8.64921 6.85878L8.32421 11.8307C8.31075 12.0366 8.50335 12.2169 8.7544 12.2333C9.00544 12.2497 9.21987 12.0961 9.23333 11.8901L9.55833 6.9182Z" fill="black"/>
<path d="M7.21241 7.88832C7.46346 7.90473 7.65606 8.08498 7.64259 8.29092L7.51259 10.2797C7.49913 10.4856 7.2847 10.6393 7.03366 10.6229C6.78261 10.6065 6.59001 10.4262 6.60347 10.2203L6.73347 8.23149C6.74694 8.02555 6.96136 7.8719 7.21241 7.88832Z" fill="black"/>
<path d="M18.1218 8.60144C18.3729 8.61785 18.5655 8.79811 18.552 9.00405L18.422 10.9928C18.4086 11.1988 18.1941 11.3524 17.9431 11.336C17.692 11.3196 17.4994 11.1393 17.5129 10.9334L17.6429 8.94462C17.6564 8.73868 17.8708 8.58503 18.1218 8.60144Z" fill="black"/>
<path d="M11.2791 8.52863C11.2925 8.32269 11.0999 8.14243 10.8489 8.12602C10.5978 8.10961 10.3834 8.26326 10.37 8.4692L10.24 10.458C10.2265 10.6639 10.4191 10.8442 10.6701 10.8606C10.9212 10.877 11.1356 10.7233 11.1491 10.5174L11.2791 8.52863Z" fill="black"/>
<path d="M14.4854 8.36373C14.7364 8.38014 14.929 8.5604 14.9155 8.76634L14.7855 10.7551C14.7721 10.961 14.5577 11.1147 14.3066 11.0983C14.0556 11.0819 13.863 10.9016 13.8764 10.6957L14.0064 8.70691C14.0199 8.50097 14.2343 8.34732 14.4854 8.36373Z" fill="black"/>
<path d="M16.4011 6.99101C16.6522 7.00742 16.8448 7.18768 16.8313 7.39362L16.5063 12.3655C16.4928 12.5715 16.2784 12.7251 16.0274 12.7087C15.7763 12.6923 15.5837 12.512 15.5972 12.3061L15.9222 7.33419C15.9356 7.12825 16.1501 6.9746 16.4011 6.99101Z" fill="black"/>
</svg>
