<svg width="323" height="296" viewBox="0 0 323 296" fill="none" xmlns="http://www.w3.org/2000/svg">
<path d="M190.157 42.1846L195.126 47.8578C195.494 47.9982 195.794 47.7733 196.542 47.2232C197.88 46.2393 199.219 45.2549 200.591 44.3187C200.807 44.1714 201.25 44.1664 201.496 44.2854C202.96 44.994 204.381 45.7913 205.851 46.4847C206.307 46.6997 206.506 46.882 206.507 47.4128C206.511 49.5351 206.574 51.6572 206.615 53.7561C208.446 54.3834 213.21 54.7547 214.842 54.3803C215.166 52.3843 215.529 50.35 215.81 48.3046C215.898 47.668 216.1 47.441 216.755 47.2748C218.274 46.8891 219.763 46.3632 221.233 45.8106C221.828 45.5869 222.227 45.5189 222.73 46.0267C224.031 47.3423 225.413 48.579 226.737 49.8729C227.093 50.2207 227.4 50.3036 227.781 49.9755C229.572 48.4321 231.361 46.8861 233.151 45.3419C233.591 44.9623 233.25 44.6476 233.046 44.3564C232.015 42.8837 230.992 41.4043 229.914 39.9675C229.508 39.428 229.505 39.0426 229.85 38.4514C230.762 36.8869 231.573 35.2629 232.489 33.5394C234.582 33.4908 236.893 33.4373 239.268 33.3822C239.924 30.6974 240.075 28.0042 239.804 25.1945C237.529 24.816 235.253 24.4374 233.247 24.1038C232.519 22.067 231.886 20.1655 231.146 18.3072C230.931 17.7692 231.008 17.5012 231.376 17.1257C232.654 15.8227 233.891 14.4799 235.159 13.168C235.433 12.8844 235.596 12.6523 235.344 12.2611C234.068 10.2842 232.643 8.44136 230.824 6.91921C230.418 6.57985 230.143 6.62956 229.764 6.90074C228.234 7.99202 226.684 9.05425 225.16 10.1519C224.79 10.4177 224.545 10.4725 224.089 10.2323C222.507 9.39897 220.888 8.63278 219.252 7.90957C218.835 7.72487 218.762 7.50977 218.753 7.12894C218.704 5.0065 218.639 2.88439 218.578 0.707549C215.901 0.117161 213.247 -0.160065 210.487 0.0948294C210.101 2.41558 209.717 4.72138 209.35 6.92778C207.204 7.63705 205.125 8.32365 202.901 9.05844C201.72 7.94215 200.368 6.64602 198.994 5.37322C197.867 4.32846 198.15 4.25055 196.806 5.19826C196.678 5.28876 196.517 5.33259 196.371 5.39807C195.305 6.33134 194.24 7.26461 193.174 8.19788C192.975 8.44757 192.81 8.73655 192.571 8.93939C191.951 9.46715 191.868 9.93143 192.409 10.635C193.536 12.1011 194.572 13.6385 195.608 15.1715C195.744 15.3724 195.769 15.7683 195.666 15.9908C194.994 17.4429 194.194 18.8406 193.601 20.3222C193.31 21.047 192.961 21.2097 192.252 21.2133C190.241 21.2233 188.23 21.3162 186.017 21.3825C185.809 24.1229 185.606 26.7963 185.401 29.4995C185.907 29.5936 186.197 29.6523 186.489 29.7008C188.288 29.9999 190.085 30.3154 191.89 30.5822C192.402 30.658 192.572 30.8892 192.727 31.3692C193.259 33.0192 193.897 34.6345 194.44 36.2811C194.525 36.5365 194.423 36.9734 194.24 37.1766C193.241 38.2904 192.18 39.3487 191.159 40.4427C190.332 41.3278 190.028 41.6596 190.157 42.1846ZM203.572 35.2002C199.131 30.1294 199.642 22.4186 204.713 17.9781L204.713 17.9779C209.783 13.5372 217.494 14.048 221.935 19.1189C226.375 24.1897 225.865 31.9005 220.794 36.341V36.3412C215.723 40.782 208.012 40.2711 203.572 35.2002Z" fill="#F7CC7F"/>
<path d="M209.737 63.1855L200.291 72.8012C200.09 73.476 200.531 73.9804 201.612 75.2403C203.545 77.494 205.479 79.7488 207.331 82.068C207.623 82.4331 207.691 83.2225 207.512 83.6772C206.445 86.3809 205.214 89.0207 204.176 91.7342C203.854 92.5751 203.555 92.9554 202.609 93.0282C198.827 93.3193 195.053 93.7163 191.318 94.0702C190.445 97.4173 190.422 105.96 191.308 108.818C194.909 109.128 198.584 109.501 202.267 109.729C203.413 109.8 203.845 110.129 204.229 111.274C205.121 113.931 206.257 116.514 207.439 119.06C207.918 120.091 208.092 120.793 207.255 121.757C205.084 124.253 203.066 126.881 200.937 129.415C200.364 130.096 200.258 130.654 200.894 131.289C203.885 134.274 206.88 137.256 209.873 140.24C210.608 140.974 211.123 140.323 211.615 139.92C214.102 137.886 216.601 135.865 219.018 133.749C219.925 132.955 220.612 132.897 221.712 133.432C224.623 134.849 227.626 136.075 230.82 137.477C231.187 141.202 231.593 145.313 232.009 149.54C236.882 150.348 241.703 150.257 246.675 149.397C247.044 145.291 247.414 141.183 247.74 137.564C251.273 135.993 254.577 134.611 257.79 133.042C258.72 132.587 259.208 132.689 259.927 133.295C262.421 135.397 264.98 137.421 267.488 139.506C268.03 139.957 268.466 140.216 269.129 139.714C272.482 137.174 275.576 134.387 278.045 130.941C278.595 130.173 278.47 129.69 277.936 129.049C275.785 126.47 273.685 123.849 271.524 121.279C271 120.656 270.87 120.226 271.237 119.382C272.51 116.451 273.659 113.462 274.729 110.449C275.002 109.68 275.375 109.521 276.053 109.455C279.83 109.082 283.604 108.682 287.475 108.282C288.168 103.432 288.307 98.6639 287.483 93.7791C283.294 93.4019 279.133 93.0272 275.151 92.6685C273.6 88.9374 272.097 85.3249 270.489 81.4593C272.32 79.2036 274.449 76.6204 276.534 74.0019C278.245 71.853 278.422 72.3471 276.552 70.0781C276.374 69.8617 276.274 69.5804 276.138 69.3294C274.331 67.5548 272.525 65.7805 270.719 64.006C270.247 63.6853 269.71 63.4294 269.316 63.0312C268.292 61.9957 267.454 61.9112 266.272 62.9696C263.81 65.175 261.209 67.2271 258.615 69.2798C258.275 69.5487 257.573 69.6461 257.163 69.4923C254.484 68.4891 251.885 67.2513 249.165 66.392C247.834 65.9716 247.498 65.3703 247.396 64.1071C247.109 60.5239 246.674 56.9529 246.259 53.0176C241.347 53.0141 236.555 53.0109 231.709 53.0074C231.609 53.921 231.543 54.4459 231.496 54.9725C231.204 58.22 230.883 61.4654 230.649 64.7171C230.582 65.6406 230.193 65.9743 229.358 66.3148C226.489 67.4845 223.695 68.8386 220.833 70.0277C220.389 70.2123 219.597 70.089 219.21 69.791C217.091 68.1592 215.062 66.4107 212.975 64.7362C211.287 63.3818 210.655 62.8848 209.737 63.1855ZM223.984 86.1588C232.427 77.5639 246.239 77.441 254.834 85.8839C263.428 94.327 263.551 108.139 255.108 116.734C246.665 125.329 232.854 125.452 224.259 117.009C215.664 108.565 215.541 94.7536 223.984 86.1588Z" fill="#EEADFE"/>
<path d="M229.299 33.0775C229.288 33.0736 229.277 33.0702 229.266 33.0664C228.96 32.9561 228.649 32.8578 228.335 32.767C228.227 32.7359 228.12 32.7038 228.012 32.6751C227.898 32.6449 227.783 32.6182 227.668 32.5907C227.552 32.5628 227.435 32.5349 227.318 32.5096C227.207 32.4857 227.095 32.4641 226.983 32.4426C226.858 32.4186 226.732 32.3959 226.606 32.3751C226.499 32.3574 226.391 32.3405 226.283 32.325C226.147 32.3054 226.01 32.2886 225.872 32.2726C225.772 32.2611 225.672 32.249 225.571 32.2394C225.414 32.2245 225.256 32.2135 225.098 32.2033C225.014 32.1979 224.931 32.1907 224.848 32.1868C224.604 32.1753 224.359 32.1682 224.113 32.1682H111.103C110.84 32.1682 110.579 32.1749 110.319 32.1882C109.8 32.2145 109.287 32.2671 108.783 32.3445C108.53 32.3831 108.28 32.4281 108.032 32.479C101.584 33.8028 96.6198 39.2132 95.9435 45.8954C95.8914 46.4094 95.8649 46.9309 95.8649 47.4588V236.155V279.205C95.8649 285.822 100.055 291.457 105.918 293.586C105.944 293.595 105.97 293.603 105.996 293.613C106.287 293.716 106.582 293.81 106.881 293.896C106.988 293.927 107.096 293.959 107.204 293.988C107.318 294.018 107.433 294.045 107.548 294.072C107.664 294.101 107.781 294.128 107.899 294.154C108.01 294.178 108.121 294.199 108.233 294.221C108.358 294.245 108.484 294.267 108.61 294.288C108.718 294.306 108.825 294.323 108.933 294.338C109.069 294.358 109.207 294.375 109.344 294.391C109.444 294.402 109.544 294.414 109.645 294.424C109.802 294.439 109.96 294.45 110.119 294.46C110.202 294.465 110.285 294.473 110.369 294.477C110.612 294.488 110.857 294.495 111.103 294.495H224.113C224.639 294.495 225.159 294.469 225.671 294.416C232.843 293.685 238.544 287.964 239.273 280.768C239.325 280.254 239.351 279.733 239.351 279.205V90.5084V47.4585C239.351 40.841 235.161 35.2064 229.299 33.0775Z" fill="#355389"/>
<path d="M231.964 53.0077H103.252V273.655H231.964V53.0077Z" fill="#EAFCFC"/>
<path opacity="0.2" d="M200.523 161.066C218.569 143.02 218.569 113.761 200.523 95.7147C182.477 77.6684 153.218 77.6684 135.172 95.7147C117.125 113.761 117.125 143.02 135.172 161.066C153.218 179.112 182.477 179.112 200.523 161.066Z" fill="#3CB4C5"/>
<path opacity="0.3" d="M193.869 46.0737H141.556C140.793 46.0737 140.174 45.4548 140.174 44.6913C140.174 43.9278 140.793 43.3088 141.556 43.3088H193.869C194.632 43.3088 195.251 43.9278 195.251 44.6913C195.251 45.4548 194.632 46.0737 193.869 46.0737Z" fill="#DAEEF7"/>
<path opacity="0.2" d="M196.625 157.168C212.518 141.274 212.518 115.506 196.625 99.6129C180.731 83.7196 154.963 83.7196 139.07 99.6129C123.177 115.506 123.177 141.274 139.07 157.168C154.963 173.061 180.731 173.061 196.625 157.168Z" fill="#3CB4C5"/>
<path opacity="0.2" d="M191.495 152.038C204.555 138.978 204.555 117.803 191.495 104.743C178.435 91.6823 157.26 91.6823 144.2 104.743C131.139 117.803 131.139 138.978 144.2 152.038C157.26 165.098 178.435 165.098 191.495 152.038Z" fill="#3CB4C5"/>
<path opacity="0.3" d="M173.855 284.286C173.855 287.789 171.025 290.629 167.534 290.629C164.043 290.629 161.213 287.789 161.213 284.286C161.213 280.783 164.043 277.943 167.534 277.943C171.025 277.943 173.855 280.783 173.855 284.286Z" fill="#DAEEF7"/>
<path opacity="0.2" d="M231.964 264.398H103.252V273.655H231.964V264.398Z" fill="#3CB4C5"/>
<path opacity="0.2" d="M231.964 53.0077H103.252V64.7172H231.964V53.0077Z" fill="#3CB4C5"/>
<path d="M76.9236 177.824L77.3748 178.23C77.607 178.438 77.9565 178.43 78.1553 178.21L86.1646 169.375C86.3636 169.156 86.3364 168.809 86.1043 168.601L85.653 168.195C85.4209 167.987 85.0715 167.996 84.8725 168.215L76.8632 177.05C76.6645 177.269 76.6916 177.616 76.9236 177.824Z" fill="#13375B"/>
<path d="M49.7692 170.647C50.8396 169.773 59.1186 173.418 59.0137 174.687C58.9087 175.956 64.7906 188.257 64.7906 188.257L74.9552 180.125L74.9592 180.127C75.0492 179.833 76.0127 176.67 76.0597 176.105C76.1087 175.511 77.8263 174.473 78.6241 174.625C79.4217 174.778 77.9419 175.783 77.8446 175.967C77.5802 176.468 78.6028 176.657 78.6028 176.657C78.6028 176.657 81.5398 175.039 81.6021 174.088C81.6645 173.137 82.2707 171.143 82.9052 171.56C83.2327 171.776 83.2297 173.19 83.1274 173.861C83.316 173.099 83.5831 172.239 83.8432 172.154C84.3184 171.998 84.5547 172.604 84.4684 172.902C84.3821 173.2 83.615 176.435 83.3818 176.798C83.1541 177.154 78.4112 180.988 77.7279 181.821C77.7279 181.821 64.5804 196.901 63.6441 197.296C62.8228 197.642 59.8941 192.445 57.1273 188.995C54.3604 185.545 46.4238 173.376 49.7692 170.647Z" fill="#F7A491"/>
<path d="M23.2407 281.539C23.2407 281.539 21.4339 283.307 21.393 283.957C21.352 284.606 21.2329 291.56 21.9704 292.209C22.7079 292.858 24.8743 293.319 24.1778 294.049C23.6516 294.601 19.6017 294.483 16.9175 294.335C16.1341 294.292 15.1514 288.019 14.8411 287.097C14.3904 285.758 13.2944 282.742 13.7042 281.809C13.9038 281.354 14.8589 280.42 16.2049 279.547C17.6206 278.63 18.975 276.587 18.975 276.587L23.2407 281.539Z" fill="#F48C7F"/>
<path d="M41.956 285.658C41.956 285.658 40.3391 290.241 40.3371 290.252C40.2169 290.978 39.7435 292.772 39.7435 293.432C39.7435 295.912 50.8885 291.327 48.3906 290.228C48.1646 290.129 47.4553 289.334 47.3809 288.49C47.2664 287.19 48.3198 285.559 48.3198 285.559L41.956 285.658Z" fill="#F7A491"/>
<path d="M59.4396 200.318C59.4396 200.318 60.2522 208.534 60.2522 208.656C60.2522 221.947 62.8777 247.907 62.3783 250.405C61.1603 256.5 48.05 287.589 48.05 287.589L40.9642 286.739L50.1976 249.516L46.7999 234.534L41.9918 204.919L59.4396 200.318Z" fill="#355389"/>
<path d="M35.659 207.585L34.3145 215.372L30.677 247.419L16.8235 278.741C16.8235 278.741 18.7722 283.298 21.6471 283.938L43.6958 251.78L57.3919 210.632L56.911 201.49L35.659 207.585Z" fill="#13375B"/>
<path d="M62.2654 180.757L52.44 181.763C52.44 181.763 51.9893 173.681 51.9893 169.825C51.9893 165.148 52.3863 159.123 52.9493 159.253C54.5294 159.617 56.6572 160.492 57.9239 162.239C62.3073 168.282 62.2654 180.757 62.2654 180.757Z" fill="#BC5CD3" fill-opacity="0.92"/>
<path d="M57.4385 169.001C57.6444 170.427 61.4215 209.197 61.4215 209.197C43.5313 217.867 33.6596 210.741 33.6596 210.741C33.6596 210.741 34.245 183.516 33.5434 179.811C33.0792 177.359 32.5004 161.068 34.0838 160.611C36.1157 160.026 38.4454 159.404 40.9847 159.14C43.1524 158.914 51.5728 158.783 53.0791 159.291C53.0791 159.291 56.5731 163.003 57.4385 169.001Z" fill="#EEADFE"/>
<path d="M16.2927 279.503C16.2927 279.503 20.4566 291.267 22.0864 291.835C22.5191 291.986 24.5959 292.369 24.9876 293.29C25.1057 293.568 24.9876 294.495 24.9876 294.495H16.3085C16.3085 294.495 15.2106 289.312 14.7768 287.034C14.7768 287.034 12.4793 281.47 12.7346 280.964C12.99 280.459 16.2927 279.503 16.2927 279.503Z" fill="#13375B"/>
<path d="M39.1098 294.25L40.3861 290.205C40.3861 290.205 43.0664 291.343 44.4065 291.153C45.7466 290.964 48.3632 290.205 48.3632 290.205C53.7125 291.972 58.0947 292.829 57.2976 294.25H39.1098Z" fill="#13375B"/>
<path d="M63.6443 197.297C63.6848 197.28 63.8304 197.165 63.9141 197.095C63.596 193.297 63.6534 189.617 64.8414 188.372C64.813 188.313 64.5531 187.759 64.282 187.184C62.9051 188.253 62.2509 191.092 62.5077 195.7C62.5255 196.017 62.6162 196.259 62.6892 196.654C63.088 197.094 63.4504 197.379 63.6443 197.297Z" fill="#F7A491"/>
<path d="M15.941 209.608C15.9299 209.525 15.9284 209.442 15.9366 209.358C16.2003 206.673 18.4219 184.127 18.7961 183.169C19.1339 182.304 29.0981 168.004 29.0981 168.004L33.9957 174.699L24.4128 187.525C24.198 188.34 20.7407 203.559 20.7407 203.559C20.7407 203.559 20.0319 206.334 19.7145 207.996C19.8593 208.396 20.0013 208.774 20.1273 209.084C20.445 209.747 20.8194 210.291 21.1598 210.749C21.5881 211.325 22.2962 212.584 22.3836 212.921C22.485 213.312 22.6678 214.126 22.7716 214.617C22.8752 215.108 23.0171 215.68 23.0409 215.947C23.0554 216.109 23.2221 216.433 23.3506 216.661C23.5418 217.001 23.2154 217.403 22.846 217.28C22.4977 217.164 22.2267 216.712 22.0596 216.43C21.5881 215.635 21.3366 214.182 21.2194 214.259C21.102 214.336 20.689 216.8 20.6236 217.079C20.5583 217.357 20.0625 220.218 19.7829 220.741C19.5033 221.264 19.1331 221.177 19.0348 220.849C18.9504 220.567 19.3436 216.564 19.3436 216.564C19.3436 216.564 19.3927 216.053 19.1698 216.213C18.947 216.372 18.5826 220.006 18.4276 220.538C18.2727 221.07 17.9194 221.352 17.6195 220.924C17.2548 220.405 17.8819 216.55 17.8819 216.55C17.8819 216.55 17.9521 216.066 17.7457 216.111C17.5394 216.156 17.281 219.253 17.1206 219.521C16.9599 219.789 16.5549 219.885 16.3616 219.438C16.1341 218.912 16.7235 215.476 16.7235 215.476C16.7235 215.476 16.6944 215.203 16.5658 215.293C16.4372 215.384 16.0288 218.009 15.7627 218.252C15.5392 218.456 15.353 218.257 15.353 218.257C14.8645 217.923 15.6134 215.427 15.6058 214.186C15.5985 212.945 16.1722 211.55 16.0011 210.072C15.9902 209.979 15.9601 209.751 15.941 209.608Z" fill="#F8A492"/>
<path d="M21.3135 177.06L29.8251 182.794C29.8251 182.794 34.6224 175.632 37.1976 173.081C40.4234 169.887 36.0223 160.1 33.9441 160.654C29.2949 161.893 21.3135 177.06 21.3135 177.06Z" fill="#EEADFE"/>
<path d="M41.6102 150.758L40.337 159.178C40.337 159.178 44.9864 169.203 47.762 168.333C50.091 167.604 48.6582 158.733 48.6582 158.733C48.6582 158.733 47.3888 153.97 47.7694 151.586C48.1501 149.202 41.6102 150.758 41.6102 150.758Z" fill="#F7A491"/>
<path d="M47.7695 151.586C48.1504 149.202 41.6103 150.758 41.6103 150.758L41.5048 151.456C41.6962 151.923 41.93 152.323 42.2141 152.629C43.6749 154.207 45.9582 155.154 47.9324 155.226C47.7348 153.941 47.6136 152.563 47.7695 151.586Z" fill="#EEADFE"/>
<path d="M40.537 138.846C40.3523 138.779 39.0555 148.436 41.5164 151.093C43.9772 153.75 48.7718 154.62 50.4916 152.527C52.3939 150.212 52.2984 139.833 48.4723 137.1C44.6463 134.366 40.537 138.846 40.537 138.846Z" fill="#F7A491"/>
<path d="M47.0159 131.934C44.0585 132.539 42.143 134.352 41.4392 135.125C40.0966 135.284 38.2714 136.029 36.3867 139.16C34.0693 143.01 35.7807 147.275 38.4784 149.368C41.1759 151.461 41.1385 153.878 41.1385 153.878L41.5648 152.628C41.8795 151.68 42.008 150.676 41.9027 149.683C41.8395 149.086 41.7123 148.442 41.4663 147.912C40.8175 146.514 42.86 145.586 43.4327 144.423C43.8737 143.527 43.895 141.479 44.5898 139.999L45.4195 138.869C45.4195 138.869 47.3339 137.375 49.2066 137.796C51.0797 138.219 50.8102 131.158 47.0159 131.934Z" fill="#184655"/>
<path d="M43.3069 146.142C43.3264 147.32 42.7926 148.284 42.1147 148.296C41.4367 148.307 40.8713 147.362 40.8518 146.184C40.8324 145.005 41.3662 144.041 42.044 144.029C42.7219 144.018 43.2873 144.963 43.3069 146.142Z" fill="#F7A491"/>
<path d="M47.3034 148.864L51.0126 148.671C51.0126 148.671 51 150.089 49.3713 150.222C47.3853 150.382 47.3034 148.864 47.3034 148.864Z" fill="white"/>
<path d="M160.433 124.441C161.723 124.441 162.925 124.441 164.127 124.441C164.324 124.441 164.546 124.497 164.712 124.424C164.925 124.331 165.094 124.134 165.282 123.982C165.09 123.836 164.902 123.57 164.705 123.562C163.597 123.52 162.488 123.541 161.379 123.54C161.09 123.539 160.801 123.54 160.47 123.54C160.47 122.713 160.47 121.964 160.47 121.118C161.752 121.118 163 121.128 164.248 121.111C164.636 121.106 165.235 121.273 165.25 120.675C165.266 120.046 164.659 120.231 164.276 120.226C163.024 120.209 161.772 120.219 160.476 120.219C160.476 119.392 160.476 118.639 160.476 117.776C161.722 117.776 162.969 117.79 164.215 117.768C164.616 117.761 165.273 117.974 165.254 117.31C165.235 116.671 164.584 116.891 164.181 116.884C162.957 116.861 161.732 116.876 160.473 116.876C160.473 116.04 160.473 115.289 160.473 114.443C161.689 114.443 162.865 114.444 164.04 114.443C164.262 114.443 164.505 114.492 164.7 114.418C164.917 114.337 165.091 114.14 165.283 113.993C165.092 113.845 164.905 113.576 164.707 113.568C163.65 113.523 162.589 113.543 161.53 113.541C161.264 113.54 160.997 113.541 160.728 113.541C160.905 110.724 164.118 108.028 167.474 107.812C170.95 107.588 174.36 110.134 175.007 113.541C173.894 113.541 172.799 113.54 171.705 113.542C171.434 113.542 171.147 113.497 170.898 113.575C170.705 113.634 170.561 113.851 170.396 113.999C170.566 114.143 170.726 114.394 170.909 114.412C171.495 114.469 172.089 114.442 172.681 114.443C173.491 114.445 174.302 114.444 175.181 114.444C175.181 115.26 175.181 116.026 175.181 116.875C174.016 116.875 172.865 116.875 171.714 116.875C171.517 116.875 171.299 116.822 171.127 116.888C170.866 116.987 170.635 117.169 170.392 117.316C170.628 117.469 170.859 117.744 171.102 117.754C172.209 117.802 173.319 117.776 174.428 117.777C174.669 117.777 174.91 117.777 175.2 117.777C175.2 118.592 175.2 119.344 175.2 120.219C174.034 120.219 172.863 120.219 171.691 120.219C171.445 120.219 171.177 120.159 170.958 120.237C170.747 120.312 170.586 120.529 170.402 120.684C170.576 120.824 170.741 121.067 170.926 121.084C171.512 121.14 172.107 121.115 172.698 121.116C173.509 121.118 174.321 121.117 175.192 121.117C175.192 121.914 175.192 122.665 175.192 123.539C174.171 123.539 173.123 123.539 172.074 123.539C171.705 123.539 171.325 123.49 170.97 123.562C170.759 123.605 170.588 123.842 170.399 123.992C170.59 124.141 170.777 124.411 170.973 124.418C172.105 124.46 173.239 124.44 174.373 124.441C174.638 124.441 174.903 124.441 175.241 124.441C175.241 126.305 175.272 128.096 175.231 129.886C175.201 131.208 175.258 132.57 174.961 133.841C174.314 136.602 172.501 138.416 169.766 139.156C167.06 139.889 164.628 139.223 162.622 137.257C161.172 135.836 160.429 134.074 160.433 132.02C160.436 129.533 160.433 127.046 160.433 124.441Z" fill="#EAFCFC"/>
<path d="M163.579 144.523C164.429 144.817 165.319 144.996 166.187 145.228C166.187 148.323 166.187 154.425 166.187 157.483H169.481C169.481 154.407 169.481 148.299 169.481 145.173C169.893 145.093 170.235 145.042 170.569 144.958C175.771 143.646 179.148 140.453 180.547 135.238C181.236 132.67 180.897 130.044 180.948 127.441C180.969 126.405 180.314 125.741 179.406 125.738C178.482 125.735 177.88 126.365 177.86 127.424C177.838 128.531 177.846 129.639 177.873 130.746C177.938 133.446 177.483 135.98 175.782 138.195C173.285 141.447 169.002 142.892 165.091 141.743C161.066 140.561 158.17 137.055 157.905 132.931C157.798 131.262 157.861 129.582 157.83 127.908C157.822 127.493 157.82 127.056 157.69 126.672C157.462 125.997 156.745 125.644 156.018 125.754C155.287 125.865 154.745 126.48 154.732 127.327C154.705 128.953 154.709 130.58 154.725 132.206C154.783 137.802 158.295 142.699 163.579 144.523Z" fill="#EAFCFC"/>
<path d="M244.98 40.8942L245.416 44.7813C245.531 44.95 245.726 44.9432 246.207 44.9304C247.069 44.9077 247.93 44.8849 248.792 44.8924C248.927 44.8936 249.117 45.0227 249.187 45.1463C249.6 45.8815 249.969 46.6418 250.39 47.3724C250.521 47.5989 250.552 47.7356 250.395 47.9619C249.768 48.8668 249.167 49.7892 248.562 50.6951C249.156 51.5043 251.075 53.0732 251.881 53.397C252.61 52.643 253.367 51.8839 254.092 51.0962C254.318 50.8511 254.471 50.8143 254.8 50.9374C255.561 51.223 256.351 51.4399 257.14 51.6399C257.46 51.7209 257.65 51.8102 257.713 52.1751C257.878 53.1208 258.1 54.0564 258.281 54.9997C258.33 55.2531 258.436 55.3794 258.695 55.3523C259.915 55.2254 261.134 55.0966 262.354 54.9693C262.654 54.9381 262.602 54.7029 262.601 54.5185C262.598 53.5862 262.601 52.6533 262.567 51.7219C262.554 51.3721 262.667 51.207 262.989 51.0573C263.841 50.6611 264.667 50.2095 265.567 49.747C266.473 50.3461 267.473 51.0076 268.501 51.6874C269.575 50.7382 270.436 49.636 271.153 48.3594C270.296 47.5245 269.439 46.6893 268.684 45.9533C268.977 44.8703 269.271 43.8734 269.505 42.8627C269.573 42.57 269.686 42.4788 269.954 42.428C270.883 42.2513 271.808 42.0458 272.736 41.8626C272.937 41.823 273.075 41.7724 273.083 41.531C273.125 40.3112 273.064 39.1044 272.74 37.9179C272.668 37.6533 272.536 37.593 272.294 37.5961C271.32 37.608 270.345 37.6014 269.371 37.6172C269.135 37.6211 269.015 37.5717 268.891 37.3344C268.465 36.5112 268.002 35.7053 267.52 34.9131C267.396 34.7108 267.429 34.5976 267.538 34.4329C268.146 33.5144 268.746 32.5915 269.365 31.6465C268.4 30.6024 267.352 29.6985 266.101 28.9899C265.249 29.8639 264.403 30.732 263.593 31.5631C262.469 31.2294 261.381 30.9063 260.216 30.5608C260.044 29.7355 259.852 28.7832 259.644 27.8345C259.473 27.0559 259.617 27.1064 258.764 27.1121C258.682 27.1126 258.601 27.0838 258.519 27.0685C257.789 27.1503 257.059 27.2322 256.329 27.314C256.17 27.3615 256.014 27.4355 255.853 27.4513C255.432 27.4923 255.259 27.6656 255.281 28.1253C255.327 29.0835 255.313 30.0448 255.3 31.0046C255.299 31.1303 255.192 31.3061 255.082 31.3705C254.366 31.7899 253.612 32.1484 252.92 32.6035C252.582 32.8263 252.385 32.792 252.082 32.5835C251.223 31.9922 250.339 31.4364 249.377 30.8095C248.477 31.9148 247.599 32.9932 246.711 34.0838C246.899 34.2735 247.005 34.3844 247.115 34.4915C247.792 35.1517 248.464 35.8182 249.154 36.466C249.35 36.65 249.353 36.7986 249.277 37.049C249.015 37.9092 248.809 38.7861 248.553 39.6481C248.513 39.7818 248.34 39.9376 248.202 39.9702C247.447 40.1487 246.682 40.2852 245.923 40.4486C245.308 40.5811 245.081 40.6323 244.98 40.8942ZM252.761 41.892C252.371 38.4177 254.872 35.2854 258.346 34.8957C261.82 34.5061 264.953 37.0068 265.342 40.4812C265.732 43.9555 263.231 47.0878 259.757 47.4773C256.283 47.8671 253.15 45.3663 252.761 41.892Z" fill="#96D9C9"/>
<path d="M59.6904 22.6362L61.1938 32.0461L66.22 25.43L82.8937 9.49757L68.0895 15.4391C68.0895 15.4391 60.8986 19.6396 60.5925 20.1449C60.2863 20.6501 59.6904 22.6362 59.6904 22.6362Z" fill="#50BFA5"/>
<path d="M51.3176 19.1844L82.8937 9.49757L59.6905 22.6362L51.3176 19.1844Z" fill="#96D9C9"/>
<path d="M72.584 28.7021L62.3021 24.5194L82.8937 9.49757L72.584 28.7021Z" fill="#96D9C9"/>
<path d="M25.3055 68.3488C25.186 67.5999 25.1064 66.831 25.0691 66.0636C25.0347 65.357 25.0355 64.635 25.0713 63.9175L25.8482 63.9563C25.8135 64.6484 25.813 65.3446 25.8461 66.0258C25.882 66.7648 25.9586 67.5051 26.0738 68.2262C26.1075 68.4381 26.1446 68.6495 26.1853 68.8601L25.4212 69.0065C25.3786 68.7843 25.3396 68.563 25.3055 68.3488ZM25.8694 58.889C26.2887 57.3064 26.8717 55.6994 27.6026 54.1126L28.3089 54.438C27.5967 55.9842 27.029 57.5487 26.6212 59.0881L25.8694 58.889ZM49.0569 50.3408C49.0053 50.3263 48.9541 50.3112 48.9031 50.2956L49.1316 49.5521C49.1763 49.5657 49.2209 49.5791 49.2584 49.5897C49.2584 49.5897 49.2824 49.5937 49.3405 49.5909C49.7746 49.5697 50.8417 49.2503 51.3333 48.7148C51.7465 48.2648 52.0149 47.6837 52.1306 46.9877L52.8978 47.1151C52.7591 47.9507 52.416 48.686 51.9061 49.2411C51.2242 49.9836 49.9232 50.3414 49.3781 50.3678C49.2495 50.3742 49.144 50.3651 49.0569 50.3408ZM30.0585 49.6741C30.9607 48.2831 31.9778 46.9146 33.0818 45.6066L33.6763 46.1083C32.593 47.3915 31.5955 48.7335 30.7111 50.0973L30.0585 49.6741ZM44.3435 45.416C44.1281 44.7015 43.9993 43.9382 43.9609 43.1466C43.9402 42.721 43.9454 42.28 43.9761 41.8356L44.7521 41.8893C44.7235 42.3034 44.7187 42.7137 44.738 43.1088C44.7734 43.8369 44.8913 44.5376 45.0884 45.1913C45.2283 45.6554 45.4177 46.109 45.6511 46.5393L44.9673 46.9101C44.7084 46.4334 44.4987 45.9307 44.3435 45.416ZM46.789 40.5512L46.6809 40.5344L46.7961 39.765L46.9135 39.7833C48.6735 40.0686 50.3121 40.9266 51.4092 42.1371L50.8329 42.6593C49.8521 41.5773 48.3782 40.8088 46.789 40.5512ZM37.0404 42.3643C37.7923 41.8644 39.1701 40.9849 39.9511 40.7104C40.5576 40.4971 41.1196 40.3223 41.669 40.1762L41.8688 40.928C41.3392 41.0689 40.7962 41.2378 40.2088 41.4443C39.6967 41.6243 38.6987 42.1957 37.4708 43.0121L37.0404 42.3643ZM45.2662 36.87C45.9577 35.3059 46.8785 33.8514 48.0032 32.5465L48.5924 33.0543C47.5178 34.3009 46.6381 35.6906 45.9775 37.1843L45.2662 36.87Z" fill="#9BC1F9"/>
<path d="M52.2968 29.8681C53.0163 29.4183 53.7632 29.0324 54.5171 28.7213L54.2203 28.0023C53.4265 28.3299 52.6405 28.7357 51.8844 29.2086L52.2968 29.8681Z" fill="#9BC1F9"/>
<path opacity="0.2" d="M199.737 246.365H135.251C131.08 246.365 127.699 242.984 127.699 238.813C127.699 234.642 131.08 231.26 135.251 231.26H199.737C203.908 231.26 207.289 234.642 207.289 238.813C207.289 242.984 203.908 246.365 199.737 246.365Z" fill="#3CB4C5"/>
<g opacity="0.5">
<path d="M118.802 195.921H116.225V209.17H118.802V195.921Z" fill="#3CB4C5"/>
<path d="M123.445 197.577H120.868V207.514H123.445V197.577Z" fill="#3CB4C5"/>
<path d="M128.088 195.921H125.511V209.17H128.088V195.921Z" fill="#3CB4C5"/>
<path d="M132.731 189.819H130.154V214.865H132.731V189.819Z" fill="#3CB4C5"/>
<path d="M137.374 193.393H134.797V211.698H137.374V193.393Z" fill="#3CB4C5"/>
<path d="M179.335 189.819H176.757V214.865H179.335V189.819Z" fill="#3CB4C5"/>
<path d="M183.977 194.701H181.4V210.391H183.977V194.701Z" fill="#3CB4C5"/>
<path d="M188.298 198.884H185.721V206.206H188.298V198.884Z" fill="#3CB4C5"/>
<path d="M192.48 196.705H189.902V208.386H192.48V196.705Z" fill="#3CB4C5"/>
<path d="M196.752 190.549H194.175V214.543H196.752V190.549Z" fill="#3CB4C5"/>
<path d="M201.157 197.577H198.58V207.514H201.157V197.577Z" fill="#3CB4C5"/>
<path d="M205.72 194.701H203.143V210.391H205.72V194.701Z" fill="#3CB4C5"/>
<path d="M209.968 189.819H207.391V215.272H209.968V189.819Z" fill="#3CB4C5"/>
<path d="M214.144 194.701H211.566V209.606H214.144V194.701Z" fill="#3CB4C5"/>
<path d="M218.501 198.342H215.923V205.964H218.501V198.342Z" fill="#3CB4C5"/>
<path d="M222.713 199.901H220.135V204.406H222.713V199.901Z" fill="#3CB4C5"/>
<path d="M114.366 198.884H111.788V205.422H114.366V198.884Z" fill="#3CB4C5"/>
<path d="M160.323 189.819H157.746V214.865H160.323V189.819Z" fill="#3CB4C5"/>
<path d="M164.966 193.393H162.389V211.698H164.966V193.393Z" fill="#3CB4C5"/>
<path d="M142.017 197.577H139.44V207.514H142.017V197.577Z" fill="#3CB4C5"/>
<path d="M146.66 198.884H144.083V206.206H146.66V198.884Z" fill="#3CB4C5"/>
<path d="M169.988 197.577H167.411V207.514H169.988V197.577Z" fill="#3CB4C5"/>
<path d="M174.631 194.701H172.054V210.391H174.631V194.701Z" fill="#3CB4C5"/>
<path d="M151.303 196.705H148.725V208.386H151.303V196.705Z" fill="#3CB4C5"/>
<path d="M155.946 194.701H153.368V210.391H155.946V194.701Z" fill="#3CB4C5"/>
</g>
<path d="M320.284 138.172L299.22 145.628C298.198 145.99 297.077 145.455 296.715 144.434L291.942 130.95C291.581 129.929 292.115 128.808 293.137 128.446L314.201 120.989C315.222 120.628 316.343 121.162 316.705 122.184L321.478 135.668C321.84 136.689 321.305 137.81 320.284 138.172Z" fill="#50BFA5"/>
<path d="M295.057 137.339L290.413 147.514L298.883 142.525L295.057 137.339Z" fill="#50BFA5"/>
<path d="M301.318 133.873L303.52 133.03C303.52 133.03 305.557 129.932 305.375 129.164C305.193 128.396 304.17 127.002 304.532 126.649C304.894 126.296 305.756 125.809 306.689 126.575C307.367 127.131 307.954 129.844 308.277 129.923C308.479 129.972 309.758 129.523 310.687 129.18C311.299 128.954 311.983 129.087 312.467 129.524L312.468 129.525C312.794 129.821 312.87 130.304 312.649 130.685L312.304 131.277L312.88 131.653C313.31 131.933 313.432 132.507 313.155 132.938L312.873 133.377L313.25 133.584C313.737 133.852 313.883 134.482 313.564 134.936L313.305 135.305L313.392 135.382C313.753 135.703 313.81 136.246 313.522 136.634L313.257 136.991L307.392 139.235C306.843 139.446 306.256 139.542 305.668 139.517L303.475 139.965C303.239 140.013 303.004 139.882 302.921 139.656L301.035 134.494C300.944 134.244 301.07 133.968 301.318 133.873Z" fill="white"/>
<path d="M51.8859 74.8469H103.386C106.107 74.8469 108.312 77.0597 108.312 79.7893V112.4C108.312 115.13 106.107 117.343 103.386 117.343H68.6372C66.1279 120.856 61.5781 127.148 61.1764 127.148C60.8004 127.148 61.5243 121.205 62.0344 117.343H51.8857C49.1653 117.343 46.9601 115.13 46.9601 112.4V79.7893C46.9603 77.0597 49.1655 74.8469 51.8859 74.8469Z" fill="#EEADFE"/>
<path d="M102.579 91.6108H89.7481H77.5417C77.4577 91.6108 77.3899 91.6788 77.3899 91.7626V93.6924C77.3899 93.7764 77.4579 93.8442 77.5417 93.8442H89.7481H90.373H102.579C102.663 93.8442 102.731 93.7762 102.731 93.6924V91.7626C102.731 91.6788 102.663 91.6108 102.579 91.6108Z" fill="white"/>
<path d="M52.7738 93.8444H73.6644C73.7438 93.8444 73.8083 93.7799 73.8083 93.7005V91.7549C73.8083 91.6754 73.744 91.6109 73.6644 91.6109H52.7738C52.6942 91.6109 52.6299 91.6754 52.6299 91.7549V93.7006C52.6299 93.7801 52.6944 93.8444 52.7738 93.8444Z" fill="white"/>
<path d="M52.6848 86.5493H80.5284C80.6078 86.5493 80.6723 86.4849 80.6723 86.4054V84.4596C80.6723 84.38 80.6078 84.3157 80.5284 84.3157H52.6848C52.6054 84.3157 52.5409 84.38 52.5409 84.4596V86.4053C52.5409 86.4849 52.6054 86.5493 52.6848 86.5493Z" fill="white"/>
<path d="M85.5769 86.5493H102.587C102.667 86.5493 102.731 86.4849 102.731 86.4054V84.4596C102.731 84.38 102.667 84.3157 102.587 84.3157H85.5769C85.4975 84.3157 85.433 84.38 85.433 84.4596V86.4053C85.4332 86.4849 85.4975 86.5493 85.5769 86.5493Z" fill="white"/>
<path d="M52.5409 108.133H102.731V105.899H52.5409V108.133Z" fill="white"/>
<path d="M78.862 101.073H102.731V98.8392H78.862V101.073Z" fill="white"/>
<path d="M52.63 101.073H76.4992V98.8392H52.63V101.073Z" fill="white"/>
<path d="M323 294H0V296H323V294Z" fill="#F7CC7F"/>
<path d="M287.589 181.394C287.589 181.394 294.734 197.075 296.249 199.99C297.764 202.905 300.583 211.889 300.712 212.333C300.841 212.778 297.107 217.794 297.813 218.051C298.519 218.307 299.512 215.522 300.254 215.952C300.996 216.382 302.753 223.556 303.213 223.261C304.074 222.711 302.305 218.832 302.756 218.651C303.208 218.47 304.231 222.866 305.095 222.837C305.958 222.809 303.74 218.761 304.002 218.455C304.264 218.15 306.593 221.99 307.111 221.286C307.393 220.904 304.959 217.92 305.479 217.725C306 217.53 308.211 219.528 308.493 219.056C308.774 218.584 306.419 217.627 305.794 216.197C305.169 214.767 303.986 214.046 303.651 211.491C303.317 208.936 303.185 199.811 300.895 195.007C298.605 190.204 293.574 179.576 293.574 179.576L287.589 181.394Z" fill="#F7A491"/>
<path d="M289.861 163.934C290.021 160.064 289.454 156.243 287.73 152.64C286.247 149.541 282.577 147.782 279.231 147.778C268.604 147.764 267.252 161.865 260.488 167.304C258.421 168.966 256.111 170.32 254.155 172.112C246.932 178.73 250.186 190.981 256.817 196.784C261.419 200.81 268.652 203.098 274.324 199.95C277.284 198.307 279.532 195.576 281.133 192.583C283.406 188.337 284.871 183.436 286.487 178.91C288.208 174.092 289.649 169.077 289.861 163.934Z" fill="#13375B"/>
<path d="M251.887 148.876C252.377 148.52 253.619 151.052 254.216 151.027C254.812 151.003 253.804 147.485 254.253 147.213C255.08 146.713 255.594 150.998 255.99 150.792C256.385 150.586 256.072 146.141 256.927 146.375C257.782 146.609 256.77 151.018 257.293 150.986C257.815 150.953 257.864 146.801 258.955 146.548C259.538 146.412 257.971 153.634 258.498 154.259C259.024 154.884 261.266 152.586 261.837 153.038C262.408 153.49 257.447 156.865 257.369 157.318C257.292 157.77 256.266 167.467 256.4 170.672C257.506 170.734 263.761 171.972 264.799 172.008C264.112 174.035 265.803 176.131 265.236 178.18C261.731 177.87 251.303 177.075 250.649 176.322C248.657 174.032 252.307 159.876 253.148 157.394C253.99 154.91 253.166 153.879 253.211 152.357C253.255 150.835 251.396 149.232 251.887 148.876Z" fill="#F7A491"/>
<path d="M268.138 293.66C269.022 293.009 269.735 292.579 272.557 291.21C272.741 291.121 273.411 290.694 273.653 290.546C274.266 290.171 274.881 289.581 275.411 288.989C275.917 288.425 276.158 286.616 276.272 285.173C275.981 281.953 271.314 230.296 270.329 224.704C269.313 218.931 270.861 210.126 270.861 210.126L274.464 208.767L281.304 232.474L280.764 250.52C280.764 250.52 282.373 255.721 282.576 258.829C282.779 261.938 280.251 287.168 280.251 287.168L280.251 287.168C280.251 288.071 280.286 288.886 280.386 289.396C280.572 290.34 281.606 292.283 281.132 293.171C280.658 294.059 280.115 294.281 280.115 294.281L267.825 294.479C267.156 294.49 267.598 294.058 268.138 293.66Z" fill="#F48C7F"/>
<path d="M286.791 208.275C286.791 208.275 291.059 214.713 292.075 220.041C293.091 225.37 291.329 241.745 293.284 248.728C294.342 252.507 298.353 258.344 298.962 263.229C299.572 268.113 301.694 282.211 301.694 282.211L301.693 282.211C302.014 283.691 302.517 285.521 303.17 286.372C303.569 286.893 304.299 287.552 304.778 288.493C305.523 289.959 305.111 292.141 304.561 293.342C304.279 293.959 304.581 293.957 303.938 294.156C302.035 294.744 300.01 293.753 299.199 291.926C298.746 290.905 298.349 289.544 298.269 287.828C298.185 286.009 297.9 284.564 297.597 283.496L283.955 250.031L274.079 221.151L271.549 206.277L286.791 208.275Z" fill="#F79C8D"/>
<path d="M298.83 290.965C301.783 291.504 303.747 289.773 304.77 288.477C305.52 289.945 305.886 292.136 305.334 293.342C304.848 294.405 303.427 294.374 302.308 294.416C301.126 294.46 300.21 293.801 299.624 292.769C299.35 292.287 299.067 291.686 298.83 290.965Z" fill="#13375B"/>
<path d="M273.654 290.545C276.905 291.381 279.308 290.813 280.652 290.269C280.998 291.254 281.458 292.489 281.214 293.202C280.916 294.074 280.491 294.271 280.116 294.281C277.147 294.359 269.24 294.465 266.976 294.495C266.66 294.499 266.486 294.129 266.689 293.885C267.25 293.213 273.412 290.694 273.654 290.545Z" fill="#13375B"/>
<path d="M284.024 249.4C283.768 249.417 283.512 249.434 283.253 249.449C283.24 249.45 283.227 249.451 283.214 249.452C282.961 249.467 282.706 249.481 282.451 249.495C282.436 249.496 282.42 249.496 282.405 249.497C282.149 249.51 281.893 249.522 281.636 249.534C281.623 249.534 281.61 249.535 281.597 249.535C281.336 249.546 281.074 249.556 280.812 249.565C277.899 249.661 274.301 249.624 271.992 249.231C270.815 237.447 270.376 226.693 269.94 224.313C268.884 218.541 270.861 209.43 270.861 209.43L270.702 207.266L271.208 205.886L287.059 207.884C287.059 207.884 291.497 214.323 292.554 219.651C293.61 224.979 291.778 241.354 293.811 248.337C293.811 248.337 289.285 249.042 284.024 249.4Z" fill="#13375B"/>
<path d="M262.437 171.127C262.437 171.127 274.305 169.885 277.807 171.057C281.309 172.228 283.769 177.232 281.9 180.032C280.03 182.832 263.188 179.165 263.188 179.165L262.437 171.127Z" fill="#EAB054"/>
<path d="M283.368 170.023C283.368 170.023 289.239 169.66 291.561 172.119C293.883 174.579 286.409 194.038 285.987 197.168C285.565 200.299 288.14 208.623 288.14 208.623C288.14 208.623 274.35 211.32 270.408 208.785C270.408 208.785 269.684 186.055 270.107 183.819C270.529 181.583 274.35 172.706 275.194 171.812C276.039 170.917 283.368 170.023 283.368 170.023Z" fill="#F7CC7F"/>
<path d="M281.414 162.4C281.414 162.4 281.445 162.568 281.499 162.854C281.761 164.226 282.769 168.775 283.45 170.026C284.272 171.538 280.633 176.358 277.129 175.77C276.086 175.595 278.011 171.34 277.918 170.89C277.741 170.027 277.501 168.85 277.255 167.644C277.117 166.963 276.977 166.273 276.845 165.624C276.47 163.781 276.164 162.273 276.164 162.273L281.414 162.4Z" fill="#F7A491"/>
<path opacity="0.5" d="M281.499 162.854C281.445 162.568 281.414 162.4 281.414 162.4L276.164 162.273C276.164 162.273 276.47 163.781 276.845 165.624C276.976 166.269 277.115 166.955 277.253 167.632C278.064 167.517 278.911 167.134 279.76 166.411C280.686 165.624 281.292 164.678 281.658 163.667C281.594 163.345 281.54 163.067 281.499 162.854Z" fill="#EEADFE"/>
<path d="M277.881 150.805C277.881 150.805 280.355 150.527 281.906 152.476C283.457 154.425 285.129 160.454 281.276 163.731C277.423 167.009 273.616 163.299 273.052 159.365C272.487 155.432 272.268 150.663 277.881 150.805Z" fill="#F7A491"/>
<path d="M271.912 159.307C272.372 160.176 273.144 160.657 273.636 160.382C274.128 160.106 274.155 159.179 273.695 158.31C273.235 157.441 272.463 156.96 271.971 157.236C271.478 157.511 271.452 158.439 271.912 159.307Z" fill="#F7A491"/>
<path d="M277.604 150.16C277.604 150.16 280.91 155.893 283.275 156.158C285.64 156.423 285.95 159.469 285.95 159.469C285.95 159.469 285.105 152.45 282.763 151.096C280.422 149.742 277.604 150.16 277.604 150.16Z" fill="#13375B"/>
<path d="M282.654 157.598C282.462 158.616 282.849 159.55 283.519 159.684C284.188 159.817 284.887 159.1 285.079 158.082C285.271 157.064 284.885 156.13 284.215 155.997C283.545 155.863 282.847 156.58 282.654 157.598Z" fill="#F7A491"/>
<path d="M279.406 160.248L276.028 160.732C276.028 160.732 276.29 162.004 277.781 161.834C279.6 161.627 279.406 160.248 279.406 160.248Z" fill="white"/>
<path d="M291.307 192.484C291.307 192.484 284.677 182.564 284.081 178.919C283.485 175.275 286.765 170.766 290.113 171.115C293.462 171.464 299.185 188.06 299.185 188.06L291.307 192.484Z" fill="#F7CC7F"/>
</svg>
