<svg width="23" height="23" viewBox="0 0 23 23" fill="none" xmlns="http://www.w3.org/2000/svg">
<path fill-rule="evenodd" clip-rule="evenodd" d="M11.5 7.59375C10.464 7.59375 9.47043 8.0053 8.73786 8.73786C8.0053 9.47043 7.59375 10.464 7.59375 11.5C7.59375 12.536 8.0053 13.5296 8.73786 14.2621C9.47043 14.9947 10.464 15.4062 11.5 15.4062C12.536 15.4062 13.5296 14.9947 14.2621 14.2621C14.9947 13.5296 15.4062 12.536 15.4062 11.5C15.4062 10.464 14.9947 9.47043 14.2621 8.73786C13.5296 8.0053 12.536 7.59375 11.5 7.59375ZM9.15625 11.5C9.15625 10.8784 9.40318 10.2823 9.84272 9.84272C10.2823 9.40318 10.8784 9.15625 11.5 9.15625C12.1216 9.15625 12.7177 9.40318 13.1573 9.84272C13.5968 10.2823 13.8438 10.8784 13.8438 11.5C13.8438 12.1216 13.5968 12.7177 13.1573 13.1573C12.7177 13.5968 12.1216 13.8438 11.5 13.8438C10.8784 13.8438 10.2823 13.5968 9.84272 13.1573C9.40318 12.7177 9.15625 12.1216 9.15625 11.5Z" fill="black"/>
<path fill-rule="evenodd" clip-rule="evenodd" d="M11.4738 0.302094C11.0102 0.302094 10.6238 0.302093 10.3071 0.322927C9.98336 0.335965 9.66406 0.402853 9.36231 0.520844C9.01465 0.664687 8.69874 0.875607 8.4326 1.14156C8.16647 1.40751 7.95534 1.72328 7.81126 2.07084C7.66022 2.43543 7.6196 2.82084 7.60293 3.23959C7.60107 3.3927 7.56045 3.54284 7.48485 3.676C7.40926 3.80915 7.30116 3.92098 7.17064 4.00105C7.03608 4.0743 6.88515 4.11225 6.73195 4.11134C6.57875 4.11042 6.42828 4.07069 6.2946 3.99584C5.92376 3.80001 5.5696 3.64272 5.17793 3.59064C4.80496 3.54158 4.42597 3.56646 4.06261 3.66387C3.69926 3.76128 3.35864 3.9293 3.06022 4.15834C2.80751 4.36092 2.5903 4.60418 2.41751 4.87814C2.24043 5.14272 2.04668 5.47709 1.81543 5.87814L1.78939 5.92397C1.5571 6.32501 1.36439 6.65938 1.22481 6.9448C1.07897 7.24272 0.964389 7.53647 0.922723 7.86147C0.823348 8.61458 1.02718 9.37633 1.48939 9.97918C1.73001 10.2927 2.04356 10.5208 2.39772 10.7438C2.52963 10.822 2.63954 10.9324 2.71715 11.0646C2.79476 11.1969 2.83753 11.3467 2.84147 11.5C2.83753 11.6533 2.79476 11.8031 2.71715 11.9354C2.63954 12.0676 2.52963 12.178 2.39772 12.2563C2.04356 12.4792 1.73106 12.7073 1.48939 13.0208C1.26034 13.3193 1.09232 13.6599 0.994913 14.0232C0.897506 14.3866 0.872621 14.7656 0.921681 15.1386C0.96439 15.4636 1.07793 15.7573 1.22376 16.0552C1.36439 16.3406 1.5571 16.675 1.78939 17.0761L1.81543 17.1219C2.04668 17.5229 2.24043 17.8573 2.41751 18.1219C2.60189 18.3958 2.79981 18.6427 3.06022 18.8406C3.35857 19.0699 3.69914 19.2381 4.0625 19.3357C4.42586 19.4332 4.80489 19.4583 5.17793 19.4094C5.5696 19.3573 5.92376 19.2011 6.2946 19.0042C6.42815 18.9295 6.57843 18.8899 6.73143 18.889C6.88443 18.8881 7.03517 18.9259 7.1696 18.999C7.30118 19.078 7.41023 19.1896 7.48629 19.3229C7.56235 19.4563 7.60288 19.6069 7.60397 19.7604C7.6196 20.1792 7.66022 20.5646 7.81231 20.9292C7.95615 21.2768 8.16707 21.5927 8.43302 21.8589C8.69897 22.125 9.01475 22.3361 9.36231 22.4802C9.66439 22.6052 9.97689 22.6542 10.3071 22.6761C10.6238 22.6979 11.0102 22.6979 11.4738 22.6979H11.5258C11.9894 22.6979 12.3758 22.6979 12.6925 22.6771C13.0238 22.6542 13.3352 22.6052 13.6373 22.4792C13.985 22.3353 14.3009 22.1244 14.567 21.8585C14.8331 21.5925 15.0443 21.2767 15.1883 20.9292C15.3394 20.5646 15.38 20.1792 15.3967 19.7604C15.3984 19.6071 15.4389 19.4568 15.5145 19.3234C15.5901 19.1901 15.6983 19.0781 15.829 18.9979C15.9636 18.9248 16.1146 18.8871 16.2678 18.8882C16.421 18.8893 16.5714 18.9292 16.705 19.0042C17.0758 19.2 17.43 19.3573 17.8217 19.4083C18.5748 19.5077 19.3365 19.3039 19.9394 18.8417C20.1998 18.6417 20.3977 18.3958 20.5821 18.1219C20.7592 17.8573 20.9529 17.5229 21.1842 17.1219L21.2102 17.0761C21.4425 16.675 21.6352 16.3406 21.7748 16.0552C21.9206 15.7573 22.0352 15.4625 22.0769 15.1386C22.1763 14.3854 21.9724 13.6237 21.5102 13.0208C21.2696 12.7073 20.9561 12.4792 20.6019 12.2563C20.47 12.178 20.3601 12.0676 20.2825 11.9354C20.2049 11.8031 20.1621 11.6533 20.1581 11.5C20.1581 11.2104 20.3165 10.9229 20.6019 10.7438C20.9561 10.5208 21.2686 10.2927 21.5102 9.97918C21.7393 9.68076 21.9073 9.34014 22.0047 8.97679C22.1021 8.61343 22.127 8.23444 22.0779 7.86147C22.0288 7.54126 21.9268 7.23146 21.7758 6.9448C21.5979 6.59874 21.4093 6.25829 21.2102 5.92397L21.1842 5.87814C20.9939 5.53863 20.7931 5.20514 20.5821 4.87814C20.4092 4.60455 20.192 4.36165 19.9394 4.15939C19.641 3.93016 19.3005 3.76195 18.9371 3.66436C18.5737 3.56677 18.1947 3.54172 17.8217 3.59064C17.43 3.64272 17.0758 3.79897 16.705 3.99584C16.5715 4.0705 16.4212 4.11014 16.2682 4.11105C16.1152 4.11196 15.9644 4.07412 15.83 4.00105C15.6991 3.92124 15.5906 3.80951 15.5146 3.67634C15.4387 3.54317 15.3977 3.3929 15.3956 3.23959C15.38 2.82084 15.3394 2.43543 15.1873 2.07084C15.0435 1.72319 14.8325 1.40727 14.5666 1.14114C14.3006 0.875011 13.9849 0.663879 13.6373 0.519802C13.3352 0.394802 13.0227 0.345844 12.6925 0.323969C12.3758 0.302094 11.9894 0.302094 11.5258 0.302094H11.4738ZM9.96022 1.96355C10.0404 1.93022 10.1623 1.90001 10.4133 1.8823C10.6706 1.86459 11.004 1.86459 11.4998 1.86459C11.9956 1.86459 12.329 1.86459 12.5863 1.8823C12.8373 1.90001 12.9592 1.93022 13.0394 1.96355C13.3592 2.09584 13.6123 2.34897 13.7446 2.66876C13.7863 2.76876 13.8206 2.92605 13.8342 3.29793C13.8654 4.12293 14.2915 4.91772 15.0477 5.35418C15.804 5.79063 16.705 5.76251 17.4352 5.37709C17.7644 5.20314 17.9175 5.15418 18.0258 5.14064C18.3681 5.09541 18.7143 5.18796 18.9883 5.39793C19.0571 5.45105 19.1446 5.54168 19.2852 5.75001C19.43 5.96459 19.5967 6.25313 19.8446 6.6823C20.0925 7.11147 20.2581 7.40105 20.3717 7.6323C20.4831 7.85834 20.5175 7.97918 20.5279 8.06563C20.5732 8.40789 20.4806 8.7541 20.2706 9.02813C20.204 9.11459 20.0852 9.22293 19.7706 9.42084C19.0706 9.86043 18.5956 10.6271 18.5956 11.5C18.5956 12.3729 19.0706 13.1396 19.7706 13.5792C20.0852 13.7771 20.204 13.8854 20.2706 13.9719C20.4811 14.2458 20.5727 14.5917 20.5279 14.9344C20.5175 15.0208 20.4821 15.1427 20.3717 15.3677C20.2581 15.6 20.0925 15.8886 19.8446 16.3177C19.5967 16.7469 19.429 17.0354 19.2852 17.25C19.1446 17.4583 19.0571 17.549 18.9883 17.6021C18.7143 17.8121 18.3681 17.9046 18.0258 17.8594C17.9175 17.8458 17.7654 17.7969 17.4352 17.6229C16.7061 17.2375 15.804 17.2083 15.0477 17.6448C14.2915 18.0813 13.8654 18.8771 13.8342 19.7021C13.8206 20.074 13.7863 20.2313 13.7446 20.3313C13.6792 20.4894 13.5832 20.6331 13.4622 20.7541C13.3412 20.8751 13.1975 20.971 13.0394 21.0365C12.9592 21.0698 12.8373 21.1 12.5863 21.1177C12.329 21.1354 11.9956 21.1354 11.4998 21.1354C11.004 21.1354 10.6706 21.1354 10.4133 21.1177C10.1623 21.1 10.0404 21.0698 9.96022 21.0365C9.8021 20.971 9.65843 20.8751 9.53742 20.7541C9.41642 20.6331 9.32045 20.4894 9.25501 20.3313C9.21335 20.2313 9.17897 20.074 9.16543 19.7021C9.13418 18.8771 8.70814 18.0823 7.95189 17.6458C7.19564 17.2094 6.2946 17.2375 5.56439 17.6229C5.23522 17.7969 5.0821 17.8458 4.97376 17.8594C4.63151 17.9046 4.2853 17.8121 4.01126 17.6021C3.94251 17.549 3.85501 17.4583 3.71439 17.25C3.51843 16.945 3.33189 16.6341 3.15501 16.3177C2.9071 15.8886 2.74147 15.599 2.62793 15.3677C2.51647 15.1417 2.4821 15.0208 2.47168 14.9344C2.42646 14.5921 2.519 14.2459 2.72897 13.9719C2.79564 13.8854 2.91439 13.7771 3.22897 13.5792C3.92897 13.1396 4.40397 12.3729 4.40397 11.5C4.40397 10.6271 3.92897 9.86043 3.22897 9.42084C2.91439 9.22293 2.79564 9.11459 2.72897 9.02813C2.519 8.7541 2.42646 8.40789 2.47168 8.06563C2.4821 7.97918 2.51751 7.8573 2.62793 7.6323C2.74147 7.40001 2.9071 7.11147 3.15501 6.6823C3.40293 6.25313 3.57064 5.96459 3.71439 5.75001C3.85501 5.54168 3.94251 5.45105 4.01126 5.39793C4.2853 5.18796 4.63151 5.09541 4.97376 5.14064C5.0821 5.15418 5.23418 5.20314 5.56439 5.37709C6.29356 5.76251 7.19564 5.79168 7.95189 5.35418C8.70814 4.91772 9.13418 4.12293 9.16543 3.29793C9.17897 2.92605 9.21335 2.76876 9.25501 2.66876C9.38731 2.34897 9.64043 2.09584 9.96022 1.96355Z" fill="black"/>
</svg>
