<svg width="35" height="35" viewBox="0 0 35 35" fill="none" xmlns="http://www.w3.org/2000/svg">
<path d="M18.9277 11.2163V14.4457" stroke="black" stroke-width="0.995976" stroke-miterlimit="10" stroke-linecap="round" stroke-linejoin="round"/>
<path d="M26.4408 4.88856C26.7768 2.80205 25.175 1 23.1518 1C22.1179 1 21.1943 1.47096 20.5829 2.20984C20.4489 2.37172 20.203 2.37172 20.069 2.20984C19.4576 1.47096 18.5341 1 17.5001 1C16.4662 1 15.5426 1.47096 14.9312 2.20984C14.7972 2.37172 14.5513 2.37172 14.4173 2.20984C13.8059 1.47103 12.8824 1.00007 11.8484 1.00007C9.8252 1.00007 8.2234 2.80212 8.55938 4.88862" stroke="black" stroke-width="0.995976" stroke-miterlimit="10" stroke-linecap="round" stroke-linejoin="round"/>
<path d="M16.0723 13.5825V15.2425" stroke="black" stroke-width="0.995976" stroke-miterlimit="10" stroke-linecap="round" stroke-linejoin="round"/>
<path d="M5.60791 28.9369C8.60985 32.0576 12.8279 34 17.5001 34C26.6128 34 34.0001 26.6127 34.0001 17.5C34.0001 16.9084 33.9686 16.3242 33.9076 15.7489C33.855 15.2539 33.2921 14.9942 32.8783 15.2709L28.6638 18.0894C28.4403 18.2388 28.1489 18.2388 27.9255 18.0894L26.9329 17.4256" stroke="black" stroke-width="0.995976" stroke-miterlimit="10" stroke-linecap="round" stroke-linejoin="round"/>
<path d="M24.9968 16.1308L23.8632 15.3727C23.6398 15.2233 23.3484 15.2233 23.125 15.3727L17.8692 18.8876C17.6458 19.037 17.3543 19.037 17.131 18.8876L11.8751 15.3727C11.6516 15.2233 11.3603 15.2233 11.1368 15.3727L7.07459 18.0894C6.85123 18.2388 6.55974 18.2388 6.33637 18.0894L2.1218 15.2709C1.70807 14.9942 1.14501 15.2539 1.09256 15.7488C1.03147 16.3242 1 16.9084 1 17.5C1 21.1046 2.15666 24.4385 4.11787 27.1527" stroke="black" stroke-width="0.995976" stroke-miterlimit="10" stroke-linecap="round" stroke-linejoin="round"/>
<path d="M32.3246 13.0177C32.0199 12.2651 31.6838 11.5222 31.3158 10.7912C31.192 10.5453 30.8386 10.55 30.7198 10.7984L29.0606 14.2681C28.9255 14.5506 29.2208 14.8459 29.5034 14.7108L32.1594 13.4407C32.3171 13.3652 32.3903 13.1799 32.3246 13.0177Z" stroke="black" stroke-width="0.995976" stroke-miterlimit="10" stroke-linecap="round" stroke-linejoin="round"/>
<path d="M4.16024 11.496C3.8548 12.1073 3.57454 12.7279 3.3191 13.3563C3.25324 13.5184 3.32641 13.7038 3.48424 13.7792L5.69557 14.8367C5.97809 14.9718 6.27343 14.6765 6.13831 14.394L4.75583 11.503C4.63704 11.2546 4.28327 11.2497 4.16024 11.496Z" stroke="black" stroke-width="0.995976" stroke-miterlimit="10" stroke-linecap="round" stroke-linejoin="round"/>
<path d="M29.5865 1.18207C29.2811 1.7934 29.0008 2.41402 28.7454 3.04242C28.6795 3.20449 28.7527 3.38988 28.9105 3.46531L31.1218 4.52277C31.4044 4.65789 31.6997 4.36255 31.5646 4.08002L30.1822 1.18904C30.0632 0.940642 29.7095 0.935728 29.5865 1.18207Z" stroke="black" stroke-width="0.995976" stroke-miterlimit="10" stroke-linecap="round" stroke-linejoin="round"/>
<path d="M5.77214 2.31582C5.0893 2.28846 4.40831 2.28793 3.73045 2.31316C3.55563 2.31967 3.41666 2.46256 3.41267 2.63745L3.35703 5.08795C3.34992 5.40102 3.74048 5.54896 3.94253 5.30972L6.01038 2.86168C6.18812 2.65133 6.04729 2.32684 5.77214 2.31582Z" stroke="black" stroke-width="0.995976" stroke-miterlimit="10" stroke-linecap="round" stroke-linejoin="round"/>
<path d="M17.5 31.1117C15.3271 31.1117 13.5493 29.3339 13.5493 27.161V25.6338C13.5493 23.4609 15.3271 21.6831 17.5 21.6831C19.6729 21.6831 21.4507 23.4609 21.4507 25.6338V27.161C21.4507 29.3339 19.6729 31.1117 17.5 31.1117Z" stroke="black" stroke-width="0.995976" stroke-miterlimit="10" stroke-linecap="round" stroke-linejoin="round"/>
<path d="M9.99679 22.7625C10.8863 22.7625 11.6073 22.0414 11.6073 21.1519C11.6073 20.2624 10.8863 19.5414 9.99679 19.5414C9.1073 19.5414 8.38623 20.2624 8.38623 21.1519C8.38623 22.0414 9.1073 22.7625 9.99679 22.7625Z" stroke="black" stroke-width="0.995976" stroke-miterlimit="10" stroke-linecap="round" stroke-linejoin="round"/>
<path d="M25.0031 22.7625C25.8926 22.7625 26.6137 22.0414 26.6137 21.1519C26.6137 20.2624 25.8926 19.5414 25.0031 19.5414C24.1137 19.5414 23.3926 20.2624 23.3926 21.1519C23.3926 22.0414 24.1137 22.7625 25.0031 22.7625Z" stroke="black" stroke-width="0.995976" stroke-miterlimit="10" stroke-linecap="round" stroke-linejoin="round"/>
<path d="M20.926 29.1197C20.2427 27.9323 18.9611 27.1278 17.4999 27.1278C16.0387 27.1278 14.7572 27.9323 14.0737 29.1197" stroke="black" stroke-width="0.995976" stroke-miterlimit="10" stroke-linejoin="round"/>
<path d="M14.5801 22.9796L14.9624 23.6419C15.2589 24.1554 15.8069 24.4718 16.4 24.4718H18.5999C19.193 24.4718 19.741 24.1554 20.0375 23.6419L20.4198 22.9796" stroke="black" stroke-width="0.995976" stroke-miterlimit="10" stroke-linejoin="round"/>
<path d="M12.8521 10.9808V16.0262" stroke="black" stroke-width="0.995976" stroke-miterlimit="10" stroke-linecap="round" stroke-linejoin="round"/>
<path d="M22.1479 16.0262V10.9808" stroke="black" stroke-width="0.995976" stroke-miterlimit="10" stroke-linecap="round" stroke-linejoin="round"/>
<path d="M5.92007 6.96596C5.75547 7.38275 5.67221 7.84056 5.69047 8.31996C5.75627 10.0505 7.16823 11.4595 8.89884 11.522C9.98199 11.5611 10.9545 11.0829 11.5902 10.3155C11.7247 10.1532 11.9708 10.1522 12.1051 10.3145C12.7165 11.0532 13.64 11.5241 14.6739 11.5241C15.7079 11.5241 16.6314 11.0532 17.2428 10.3144C17.3768 10.1525 17.6227 10.1525 17.7566 10.3144C18.3681 11.0532 19.2916 11.5241 20.3256 11.5241C21.3595 11.5241 22.283 11.0532 22.8944 10.3144C23.0288 10.1521 23.2749 10.1531 23.4093 10.3154C24.045 11.0829 25.0176 11.561 26.1008 11.5219C27.8315 11.4594 29.2434 10.0504 29.3091 8.31989C29.3813 6.41924 27.862 4.85569 25.9774 4.85569C24.9434 4.85569 24.0199 5.32665 23.4084 6.06547C23.2744 6.22735 23.0285 6.22735 22.8946 6.06547C22.2832 5.32665 21.3596 4.85569 20.3257 4.85569C19.2918 4.85569 18.3682 5.32665 17.7567 6.06547C17.6227 6.22735 17.3768 6.22735 17.2429 6.06547C16.6314 5.32665 15.7079 4.85569 14.674 4.85569C13.64 4.85569 12.7165 5.32665 12.105 6.06547C11.971 6.22735 11.7252 6.22735 11.5912 6.06547C10.9797 5.32665 10.0562 4.85569 9.0222 4.85569C8.46419 4.85569 7.93872 4.99367 7.47658 5.23595" stroke="black" stroke-width="0.995976" stroke-miterlimit="10" stroke-linecap="round" stroke-linejoin="round"/>
</svg>
