<svg width="22" height="22" viewBox="0 0 22 22" fill="none" xmlns="http://www.w3.org/2000/svg">
<path d="M16.2456 3.74861C16.6649 3.5458 16.9554 3.11783 16.9554 2.62111C16.9554 2.28926 16.8236 1.971 16.5889 1.73634C16.3543 1.50169 16.036 1.36986 15.7042 1.36986C15.3723 1.36986 15.054 1.50169 14.8194 1.73634C14.5847 1.971 14.4529 2.28926 14.4529 2.62111C14.4529 3.1247 14.7503 3.55611 15.1782 3.75548C14.6832 6.43673 13.9235 8.4322 11.0962 8.85845C11.0962 8.85845 11.8576 12.6655 15.4188 12.6655C18.9801 12.6655 19.341 8.89626 19.341 8.89626C16.4518 9.04408 16.2078 5.41236 16.2456 3.74861Z" fill="#F19534"/>
<path d="M5.97119 3.74861C5.55182 3.5458 5.26135 3.11783 5.26135 2.62111C5.26135 2.28926 5.39318 1.971 5.62783 1.73634C5.86249 1.50169 6.18075 1.36986 6.5126 1.36986C6.84445 1.36986 7.16271 1.50169 7.39737 1.73634C7.63202 1.971 7.76385 2.28926 7.76385 2.62111C7.76385 3.1247 7.4665 3.55611 7.03854 3.75548C7.53354 6.43673 8.29322 8.4322 11.1206 8.85845C11.1206 8.85845 10.3592 12.6655 6.79791 12.6655C3.23666 12.6655 2.87744 8.89798 2.87744 8.89798C5.76494 9.04408 6.009 5.41236 5.97119 3.74861Z" fill="#F19534"/>
<path d="M15.3708 12.6655C15.3863 12.6655 15.4018 12.6672 15.4173 12.6672C16.3987 12.6672 17.136 12.3801 17.6894 11.9659L15.3708 12.6655Z" fill="#FFCA28"/>
<path d="M20.4945 2.89783C19.9221 2.82049 19.3755 3.36533 19.2759 4.11127C19.214 4.57705 19.3395 5.0119 19.5818 5.29205L19.1693 7.00221C19.1693 7.00221 18.5385 11.043 15.352 11.8405C12.8048 12.4781 11.8818 7.81518 11.6584 6.37486C12.143 6.13424 12.4782 5.6358 12.4782 5.05658C12.4782 4.24361 11.8199 3.58533 11.007 3.58533C10.194 3.58533 9.5357 4.24361 9.5357 5.05658C9.5357 5.63924 9.87601 6.14283 10.3693 6.38002C10.1923 7.80143 9.41195 12.3097 6.66195 11.8388C3.8707 11.3592 2.65211 6.65846 2.37023 5.37971C2.70539 5.10471 2.89273 4.62002 2.82398 4.09924C2.7243 3.35158 2.13305 2.81533 1.50398 2.89955C0.874921 2.98377 0.446952 3.65752 0.54664 4.40346C0.618827 4.94658 0.952265 5.37799 1.36992 5.54127L3.55617 19.1246C3.55617 19.1246 5.46398 20.6319 11.007 20.6319C16.5499 20.6319 18.4577 19.1246 18.4577 19.1246L20.6491 5.50518C21.0032 5.31955 21.2816 4.9019 21.3504 4.38971C21.4518 3.64205 21.0685 2.97518 20.4945 2.89783Z" fill="#FFCA28"/>
<path d="M11.0754 17.172C12 17.172 12.7495 16.2786 12.7495 15.1766C12.7495 14.0745 12 13.1811 11.0754 13.1811C10.1509 13.1811 9.40137 14.0745 9.40137 15.1766C9.40137 16.2786 10.1509 17.172 11.0754 17.172Z" fill="#26A69A"/>
<path d="M11.0757 13.6744C11.141 13.7466 11.1994 13.8789 11.0757 14.1367C10.9519 14.3945 10.285 14.7434 10.163 14.8139C10.041 14.8861 9.96018 14.8534 9.92237 14.8242C9.7419 14.6798 9.81065 14.3533 9.92753 14.1539C10.1785 13.7225 10.7096 13.2773 11.0757 13.6744Z" fill="#69F0AE"/>
<path d="M10.9518 15.9208C10.7627 16.0119 10.1422 16.2886 10.3468 16.6169C10.4671 16.8111 10.7163 16.8936 10.9449 16.9039C11.1735 16.9142 11.3986 16.842 11.6014 16.7372C12.5639 16.2387 12.6413 14.9291 12.4539 14.8294C12.2614 14.7262 12.1308 14.9927 12.0311 15.1061C11.7279 15.4455 11.3612 15.7222 10.9518 15.9208Z" fill="#00796B"/>
<path d="M20.2968 13.5437C20.5649 12.0605 19.568 11.6892 19.568 11.6892C19.568 11.6892 18.9252 11.5723 18.6227 13.2412C18.3202 14.9084 18.963 15.0253 18.963 15.0253C18.963 15.0253 20.0269 15.027 20.2968 13.5437Z" fill="#26A69A"/>
<path d="M19.8532 12.1962C20.087 12.5091 19.8103 12.9714 19.3617 13.2791C19.2293 13.3702 19.054 13.3358 19.0282 13.2602C18.956 13.0436 18.987 12.7978 19.0832 12.5898C19.3685 11.9659 19.7346 12.0381 19.8532 12.1962Z" fill="#69F0AE"/>
<path d="M1.67762 13.5884C1.40777 12.1069 2.40637 11.7339 2.40637 11.7339C2.40637 11.7339 3.04918 11.617 3.35168 13.2859C3.65418 14.9531 3.01137 15.07 3.01137 15.07C3.01137 15.07 1.94574 15.0717 1.67762 13.5884Z" fill="#26A69A"/>
<path d="M2.71239 12.2375C2.9427 12.4094 2.84817 12.6345 2.67458 12.7909C2.47692 12.9714 2.32567 13.1691 2.15723 13.3736C2.13145 13.4045 2.10223 13.4389 2.06098 13.4475C1.98192 13.4647 1.91833 13.3839 1.89255 13.3066C1.81864 13.09 1.83239 12.8356 1.94239 12.6362C2.2552 12.0673 2.62301 12.1705 2.71239 12.2375Z" fill="#69F0AE"/>
<path d="M17.186 14.9806C17.0674 15.6561 16.526 16.1253 15.9743 16.0291C15.4226 15.9328 15.347 15.357 15.4656 14.6816C15.5841 14.0061 15.8506 13.4887 16.4006 13.585C16.9523 13.6812 17.3046 14.3069 17.186 14.9806ZM5.2304 14.9806C5.34899 15.6561 5.8904 16.1253 6.44212 16.0291C6.99383 15.9328 7.06946 15.357 6.95087 14.6816C6.83227 14.0061 6.56587 13.4887 6.01587 13.585C5.46587 13.6812 5.11352 14.3069 5.2304 14.9806Z" fill="#F44336"/>
<path d="M6.02941 14.5303C5.90394 14.6713 5.59801 14.9549 5.48972 14.7383C5.34191 14.4427 5.54644 13.9958 5.78019 13.848C6.01394 13.7002 6.20472 13.817 6.23738 13.9494C6.27691 14.1178 6.14113 14.4031 6.02941 14.5303ZM15.8091 14.9617C15.6389 14.9359 15.62 14.3499 16.0772 13.8892C16.2955 13.6692 16.6083 13.9305 16.5293 14.2828C16.4536 14.618 16.1202 15.0099 15.8091 14.9617Z" fill="#FFA8A4"/>
<path d="M18.7604 16.8798C17.7308 17.3954 15.3693 18.7687 11.0088 18.7687C6.64832 18.7687 4.28676 17.3954 3.25723 16.8798C3.25723 16.8798 2.8877 17.0775 2.8877 17.2837V18.8667C2.8877 19.0781 2.99941 19.2723 3.1816 19.3806C3.98598 19.855 6.43691 20.9756 11.0105 20.9756C15.5841 20.9756 18.035 19.855 18.8394 19.3806C18.9288 19.3278 19.0029 19.2527 19.0544 19.1626C19.1059 19.0725 19.1331 18.9705 19.1333 18.8667V17.2837C19.1299 17.0775 18.7604 16.8798 18.7604 16.8798Z" fill="#FFCA28"/>
<path d="M6.80609 19.0506C7.28734 19.1452 7.43344 19.1864 7.40078 19.4545C7.33375 19.9822 6.23891 19.8567 5.59094 19.6866C4.25203 19.3342 3.98047 18.963 3.98047 18.6313C3.98047 18.327 4.21422 18.2909 4.57516 18.4181C5.00656 18.5711 5.67344 18.8289 6.80609 19.0506Z" fill="#FFF59D"/>
<path d="M18.76 17.227C18.76 17.227 15.912 18.8392 11.0084 18.8392C6.10481 18.8392 3.25684 17.227 3.25684 17.227" stroke="#F19534" stroke-width="0.6875" stroke-miterlimit="10" stroke-linecap="round"/>
<path d="M4.63532 8.51984C5.5497 7.86672 6.04126 6.69625 6.08423 4.83313C6.08767 4.66469 6.13579 4.61485 6.22689 4.60453C6.37298 4.58906 6.39704 4.72141 6.39532 4.81594C6.35407 6.82688 6.09798 8.08328 5.08392 8.79141C5.03407 8.82578 4.67829 9.04235 4.52704 8.89281C4.34657 8.7175 4.57689 8.56109 4.63532 8.51984ZM5.47235 2.67094C5.44314 2.35985 5.51532 1.79953 6.33173 1.54516C6.57064 1.47125 6.71845 1.58813 6.74595 1.67922C6.8147 1.9061 6.61532 1.99547 6.52423 2.02469C5.89689 2.2275 5.86595 2.54031 5.73704 2.73969C5.60814 2.93906 5.48267 2.76547 5.47235 2.67094ZM13.4439 8.10734C14.2706 7.37344 14.8189 6.5536 15.1799 4.68703C15.2125 4.52203 15.2606 4.47735 15.35 4.48078C15.4961 4.48422 15.503 4.62 15.4875 4.71281C15.1816 6.70313 14.8911 7.27031 13.8719 8.39953C13.7567 8.52672 13.4766 8.64188 13.3184 8.50953C13.1758 8.39094 13.3408 8.20016 13.4439 8.10734ZM14.6608 2.68641C14.6316 2.37531 14.7038 1.815 15.5202 1.56063C15.7591 1.48672 15.9069 1.6036 15.9344 1.69469C16.0031 1.92156 15.8038 2.01094 15.7127 2.04016C15.0853 2.24297 15.0544 2.55578 14.9255 2.75516C14.7983 2.95453 14.6711 2.78094 14.6608 2.68641Z" fill="#FFCA28"/>
<path d="M5.42937 12.3097C3.43218 11.4039 2.84437 9.04063 2.53156 8.01453C2.49031 7.87875 2.51093 7.74985 2.64671 7.7086C2.7825 7.66735 2.86328 7.755 2.90625 7.89078C3.13312 8.635 4.01484 11.1203 5.835 11.8267C5.96734 11.8783 6.17359 12.0038 6.06187 12.2186C5.98796 12.3578 5.75078 12.4558 5.42937 12.3097ZM2.17921 4.23328C2.08296 4.03391 2.04343 3.84485 1.51921 3.62656C1.38687 3.57156 1.29921 3.44953 1.33531 3.31203C1.3714 3.17453 1.5089 3.07141 1.70828 3.10578C2.35625 3.2175 2.49718 3.87578 2.52468 4.10438C2.55046 4.32438 2.27718 4.43266 2.17921 4.23328ZM16.6494 12.3097C18.6466 11.4039 19.2344 9.04063 19.5472 8.01453C19.5884 7.87875 19.5678 7.74985 19.432 7.7086C19.2962 7.66735 19.2155 7.755 19.1725 7.89078C18.9456 8.635 18.0639 11.1203 16.2437 11.8267C16.1114 11.8783 15.9052 12.0038 16.0169 12.2186C16.0908 12.3578 16.328 12.4558 16.6494 12.3097ZM19.8995 4.23328C19.9958 4.03391 20.0353 3.84485 20.5595 3.62656C20.6919 3.57156 20.7795 3.44953 20.7434 3.31203C20.7073 3.17453 20.5698 3.07141 20.3705 3.10578C19.7225 3.2175 19.5816 3.87578 19.5541 4.10438C19.5283 4.32438 19.8033 4.43266 19.8995 4.23328ZM10.2058 5.07891C10.3106 4.86406 10.4945 4.57016 11.0944 4.44641C11.3247 4.39828 11.3917 4.2986 11.3711 4.14735C11.3298 3.83281 10.938 3.85516 10.7266 3.905C10.0219 4.07 9.86546 4.69563 9.83624 4.94313C9.80703 5.1786 10.1027 5.29375 10.2058 5.07891Z" fill="#FFF59D"/>
</svg>
