<svg width="259" height="259" viewBox="0 0 259 259" fill="none" xmlns="http://www.w3.org/2000/svg">
<rect width="258.281" height="258.281" rx="7.17447" fill="#FEFBFF"/>
<circle cx="44.2798" cy="57.1939" r="30.6483" fill="#C1E0FF" fill-opacity="0.7"/>
<circle cx="129.219" cy="57.1939" r="30.6483" fill="#CFF0D2" fill-opacity="0.7"/>
<circle cx="213.284" cy="57.1939" r="30.6483" fill="#EEADFE" fill-opacity="0.42"/>
<path d="M207.86 49.8517C207.86 50.5825 207.569 51.2834 207.052 51.8002C206.536 52.317 205.835 52.6074 205.104 52.6074C204.373 52.6074 203.672 52.317 203.155 51.8002C202.638 51.2834 202.348 50.5825 202.348 49.8517C202.348 49.1208 202.638 48.4199 203.155 47.9031C203.672 47.3863 204.373 47.096 205.104 47.096C205.835 47.096 206.536 47.3863 207.052 47.9031C207.569 48.4199 207.86 49.1208 207.86 49.8517ZM223.97 49.8517C223.97 50.5825 223.679 51.2834 223.163 51.8002C222.646 52.317 221.945 52.6074 221.214 52.6074C220.483 52.6074 219.782 52.317 219.266 51.8002C218.749 51.2834 218.458 50.5825 218.458 49.8517C218.458 49.1208 218.749 48.4199 219.266 47.9031C219.782 47.3863 220.483 47.096 221.214 47.096C221.945 47.096 222.646 47.3863 223.163 47.9031C223.679 48.4199 223.97 49.1208 223.97 49.8517Z" fill="#F4C6AD"/>
<path d="M219.272 38.0148C217.976 37.0355 216.396 36.503 214.772 36.4971H211.544C209.935 36.4971 208.361 37.0313 207.045 38.0148C204.804 39.7022 203.593 42.5088 203.87 45.384L204.631 52.2606C204.882 54.9238 206.647 57.1623 209.096 57.9254C211.744 58.7479 214.573 58.7479 217.22 57.9254C219.668 57.1623 221.434 54.9238 221.685 52.2614L222.446 45.384C222.722 42.5096 221.512 39.703 219.271 38.0157" fill="#FFD7C2"/>
<path d="M213.152 53.4239C212.264 53.4284 211.389 53.215 210.602 52.8024C210.349 52.6667 210.079 52.9559 210.24 53.2026C210.553 53.693 210.985 54.0966 211.495 54.3762C212.006 54.6558 212.579 54.8025 213.161 54.8026C213.742 54.8017 214.315 54.6547 214.825 54.3752C215.335 54.0956 215.768 53.6924 216.082 53.2026C216.234 52.9652 215.971 52.6752 215.719 52.8024C214.926 53.2129 214.045 53.4261 213.152 53.4239Z" fill="#990839"/>
<path d="M213.161 52.3106C213.57 52.3106 213.936 52.1029 214.144 51.7908C214.188 51.7264 214.213 51.6513 214.217 51.5735C214.221 51.4958 214.204 51.4183 214.168 51.3497C214.131 51.281 214.076 51.2236 214.009 51.1837C213.942 51.1439 213.866 51.1231 213.788 51.1235H212.534C212.186 51.1235 211.977 51.5136 212.177 51.7908C212.386 52.1113 212.752 52.3106 213.161 52.3106Z" fill="#E5AF93"/>
<path d="M205.841 49.7652C206.155 48.4747 207.308 47.5199 208.673 47.5199C210.089 47.5199 211.276 48.5518 211.539 49.911C211.599 50.212 211.361 50.4876 211.064 50.4876H206.401C206.313 50.4874 206.226 50.467 206.147 50.4281C206.068 50.3892 205.999 50.3328 205.945 50.2631C205.891 50.1935 205.853 50.1124 205.835 50.0261C205.817 49.9398 205.819 49.8506 205.841 49.7652ZM219.984 49.7652C219.671 48.4747 218.517 47.5199 217.152 47.5199C215.728 47.5199 214.549 48.5518 214.286 49.911C214.227 50.212 214.464 50.4876 214.761 50.4876H219.425C219.798 50.4876 220.078 50.1349 219.984 49.7652Z" fill="white"/>
<path d="M207.24 49.9958C207.24 48.9698 208.071 48.1304 209.106 48.1304C210.14 48.1304 210.971 48.9698 210.98 49.9958C210.98 50.1654 210.954 50.3265 210.912 50.4876H207.308C207.266 50.335 207.24 50.1654 207.24 49.9958ZM218.585 49.9958C218.585 49.5011 218.389 49.0266 218.039 48.6768C217.689 48.3269 217.215 48.1304 216.72 48.1304C215.685 48.1304 214.846 48.9698 214.846 49.9958C214.846 50.1654 214.871 50.3265 214.914 50.4876H218.517C218.56 50.335 218.585 50.1654 218.585 49.9958Z" fill="#7D4533"/>
<path d="M209.106 48.9274C209.699 48.9274 210.174 49.4023 210.174 49.9958C210.174 50.1739 210.123 50.3434 210.047 50.4876H208.156C208.08 50.3434 208.037 50.1739 208.037 49.9958C208.037 49.4023 208.512 48.9274 209.106 48.9274ZM216.72 48.9274C216.127 48.9274 215.652 49.4023 215.652 49.9958C215.652 50.1739 215.694 50.3434 215.779 50.4876H217.67C217.746 50.3434 217.788 50.1739 217.788 49.9958C217.788 49.4023 217.314 48.9274 216.72 48.9274Z" fill="black"/>
<path d="M208.521 49.2666C208.521 49.3543 208.486 49.4384 208.424 49.5004C208.362 49.5624 208.278 49.5973 208.19 49.5973C208.102 49.5973 208.018 49.5624 207.956 49.5004C207.894 49.4384 207.859 49.3543 207.859 49.2666C207.859 49.1789 207.894 49.0948 207.956 49.0328C208.018 48.9708 208.102 48.9359 208.19 48.9359C208.278 48.9359 208.362 48.9708 208.424 49.0328C208.486 49.0948 208.521 49.1789 208.521 49.2666ZM216.466 49.2666C216.466 49.3543 216.431 49.4384 216.369 49.5004C216.307 49.5624 216.223 49.5973 216.135 49.5973C216.047 49.5973 215.963 49.5624 215.901 49.5004C215.839 49.4384 215.804 49.3543 215.804 49.2666C215.804 49.1789 215.839 49.0948 215.901 49.0328C215.963 48.9708 216.047 48.9359 216.135 48.9359C216.223 48.9359 216.307 48.9708 216.369 49.0328C216.431 49.0948 216.466 49.1789 216.466 49.2666Z" fill="white"/>
<path d="M207.773 46.2913C208.215 46.1344 208.848 46.0149 209.685 46.0937C209.741 46.101 209.799 46.0968 209.853 46.0815C209.908 46.0661 209.959 46.0399 210.004 46.0044C210.048 45.9689 210.085 45.9248 210.112 45.8747C210.139 45.8247 210.156 45.7697 210.161 45.7131C210.166 45.6565 210.16 45.5994 210.143 45.5451C210.126 45.4909 210.098 45.4407 210.061 45.3975C210.024 45.3543 209.979 45.319 209.928 45.2936C209.877 45.2683 209.821 45.2535 209.764 45.2501C208.804 45.1593 208.047 45.2941 207.488 45.4926C207.382 45.5303 207.295 45.6086 207.247 45.7103C207.199 45.8119 207.193 45.9285 207.231 46.0344C207.269 46.1403 207.347 46.2269 207.449 46.275C207.55 46.3232 207.667 46.3291 207.773 46.2913ZM218.431 45.4934C217.872 45.2941 217.115 45.1593 216.154 45.2501C216.098 45.2535 216.042 45.2683 215.991 45.2936C215.94 45.319 215.895 45.3543 215.858 45.3975C215.821 45.4407 215.793 45.4909 215.776 45.5451C215.759 45.5994 215.753 45.6565 215.758 45.7131C215.763 45.7697 215.78 45.8247 215.807 45.8747C215.834 45.9248 215.871 45.9689 215.915 46.0044C215.96 46.0399 216.011 46.0661 216.066 46.0815C216.12 46.0968 216.178 46.101 216.234 46.0937C217.071 46.0149 217.704 46.1344 218.146 46.2913C218.252 46.3291 218.369 46.3232 218.47 46.275C218.572 46.2269 218.65 46.1403 218.688 46.0344C218.726 45.9285 218.72 45.8119 218.672 45.7103C218.623 45.6086 218.537 45.5312 218.431 45.4934ZM213.006 34.8013C212.349 34.7929 211.701 34.9638 211.134 35.2954C210.566 35.627 210.1 36.1069 209.784 36.6836C210.31 36.5649 210.844 36.4971 211.378 36.4971H211.505C213.04 36.4971 214.329 37.752 214.32 39.2867C214.312 39.982 214.057 40.6094 213.634 41.0928C213.565 41.1678 213.523 41.2634 213.515 41.3646C213.507 41.4659 213.532 41.567 213.587 41.6522C213.643 41.7375 213.724 41.802 213.82 41.8358C213.916 41.8696 214.02 41.8707 214.117 41.8389C214.832 41.5959 215.453 41.1348 215.893 40.5203C216.333 39.9058 216.568 39.1689 216.567 38.4134C216.576 36.4462 214.973 34.8267 213.006 34.8013Z" fill="#212121"/>
<path d="M53.0365 49.6852L54.9944 49.4355L53.7802 50.9555L53.0365 49.6852ZM37.1322 45.3115C36.9875 45.3115 36.8463 45.2427 36.7576 45.1142C34.9897 42.5175 33.1512 43.3318 33.1331 43.3409C32.9069 43.4458 32.6373 43.3481 32.5323 43.1219C32.4817 43.0132 32.4764 42.8889 32.5175 42.7762C32.5585 42.6636 32.6426 42.5718 32.7513 42.5211C32.7766 42.5103 35.31 41.3811 37.505 44.6058C37.5513 44.6736 37.5782 44.7527 37.5828 44.8347C37.5875 44.9167 37.5696 44.9984 37.5313 45.071C37.4929 45.1436 37.4355 45.2043 37.3652 45.2467C37.2949 45.2891 37.2143 45.3115 37.1322 45.3115ZM39.9551 44.2619C39.7307 44.2619 39.5353 44.0955 39.5064 43.8656C39.1173 40.8002 37.2118 40.7423 37.1304 40.7405C36.8825 40.7369 36.6798 40.5342 36.6816 40.2863C36.6816 40.0384 36.8807 39.8376 37.1286 39.8357C37.1738 39.8357 39.9099 39.8737 40.4039 43.7498C40.4347 43.9977 40.261 44.2239 40.0112 44.2565C39.9931 44.2619 39.975 44.2619 39.9551 44.2619Z" fill="#424242"/>
<path d="M43.1364 39.9534C43.7878 39.3689 44.6908 39.1897 45.5521 39.4774C45.9213 39.5987 46.2452 39.7796 46.5184 40.0167C48.8057 42.0054 47.5716 45.7078 46.4569 48.6809C46.4497 48.699 45.9484 50.2136 45.4092 50.3312C44.9694 50.4271 44.4591 49.772 44.4591 49.772C44.4356 49.7503 43.8928 49.0518 43.833 48.9577C42.8649 47.5427 42.2189 45.9702 41.9077 44.2818C41.8389 43.9073 41.8063 43.4929 41.8226 43.0604C41.828 42.8939 41.8407 42.7256 41.8642 42.5573C41.8841 42.3999 41.9113 42.2425 41.9457 42.0868C42.1158 41.3359 42.4632 40.5994 43.0658 40.0185L43.1364 39.9534Z" fill="#BDBDBD"/>
<path d="M50.0775 40.3569C51.0475 40.2429 51.9848 40.6609 52.5856 41.477C52.8444 41.8245 53.0217 42.199 53.1194 42.5899C53.9265 45.8706 50.4214 48.4529 47.4935 50.4452C47.4754 50.4579 46.0458 51.5165 45.4776 51.2758C45.0162 51.0804 44.971 50.1539 44.971 50.1539C44.9637 50.1195 44.9185 49.1333 44.9239 49.0102C44.9511 47.0993 45.3727 45.25 46.1743 43.5128C46.3517 43.1273 46.5887 42.7274 46.8819 42.3456C46.9941 42.1972 47.1135 42.0525 47.2438 41.9131C47.3632 41.7828 47.4881 41.6562 47.6202 41.5367C48.2571 40.9613 49.0479 40.5143 49.9708 40.3714L50.0775 40.3569Z" fill="#ECEFF1"/>
<path d="M51.2782 55.2286C53.3967 54.2334 54.4671 52.0495 53.6691 50.3508C52.8711 48.652 50.5068 48.0817 48.3883 49.0769C46.2698 50.0721 45.1994 52.256 45.9975 53.9547C46.7955 55.6535 49.1598 56.2238 51.2782 55.2286Z" fill="#FCC21B"/>
<mask id="mask0_81_1541" style="mask-type:luminance" maskUnits="userSpaceOnUse" x="45" y="48" width="9" height="8">
<path d="M51.2785 55.2286C53.3969 54.2334 54.4674 52.0495 53.6693 50.3508C52.8713 48.652 50.507 48.0817 48.3886 49.0769C46.2701 50.0721 45.1997 52.256 45.9977 53.9547C46.7957 55.6535 49.16 56.2238 51.2785 55.2286Z" fill="white"/>
</mask>
<g mask="url(#mask0_81_1541)">
<path d="M51.509 56.0067C53.2078 55.2086 53.7781 52.8443 52.7829 50.7259C51.7877 48.6074 49.6038 47.537 47.9051 48.335C46.2063 49.1331 45.636 51.4974 46.6312 53.6158C47.6264 55.7343 49.8103 56.8047 51.509 56.0067Z" fill="#424242"/>
</g>
<mask id="mask1_81_1541" style="mask-type:luminance" maskUnits="userSpaceOnUse" x="45" y="48" width="9" height="8">
<path d="M51.2785 55.2286C53.3969 54.2334 54.4674 52.0495 53.6693 50.3508C52.8713 48.652 50.507 48.0817 48.3886 49.0769C46.2701 50.0721 45.1997 52.256 45.9977 53.9547C46.7957 55.6535 49.16 56.2238 51.2785 55.2286Z" fill="white"/>
</mask>
<g mask="url(#mask1_81_1541)">
<path d="M49.9635 56.5953C51.6622 55.7973 52.2326 53.433 51.2374 51.3145C50.2422 49.1961 48.0583 48.1256 46.3596 48.9237C44.6608 49.7217 44.0905 52.086 45.0857 54.2044C46.0809 56.3229 48.2647 57.3933 49.9635 56.5953Z" fill="#FCC21B"/>
</g>
<mask id="mask2_81_1541" style="mask-type:luminance" maskUnits="userSpaceOnUse" x="45" y="48" width="9" height="8">
<path d="M51.2785 55.2286C53.3969 54.2334 54.4674 52.0495 53.6693 50.3508C52.8713 48.652 50.507 48.0817 48.3886 49.0769C46.2701 50.0721 45.1997 52.256 45.9977 53.9547C46.7957 55.6535 49.16 56.2238 51.2785 55.2286Z" fill="white"/>
</mask>
<g mask="url(#mask2_81_1541)">
<path d="M48.1615 57.5304C49.8602 56.7324 50.4306 54.3681 49.4354 52.2496C48.4402 50.1312 46.2563 49.0607 44.5575 49.8588C42.8588 50.6568 42.2885 53.0211 43.2837 55.1395C44.2789 57.258 46.4627 58.3284 48.1615 57.5304Z" fill="#424242"/>
</g>
<mask id="mask3_81_1541" style="mask-type:luminance" maskUnits="userSpaceOnUse" x="45" y="48" width="9" height="8">
<path d="M51.2785 55.2286C53.3969 54.2334 54.4674 52.0495 53.6693 50.3508C52.8713 48.652 50.507 48.0817 48.3886 49.0769C46.2701 50.0721 45.1997 52.256 45.9977 53.9547C46.7957 55.6535 49.16 56.2238 51.2785 55.2286Z" fill="white"/>
</mask>
<g mask="url(#mask3_81_1541)">
<path d="M46.4038 58.2398C48.1026 57.4418 48.6729 55.0775 47.6777 52.959C46.6825 50.8406 44.4986 49.7702 42.7999 50.5682C41.1011 51.3662 40.5308 53.7305 41.526 55.849C42.5212 57.9674 44.7051 59.0379 46.4038 58.2398Z" fill="#FCC21B"/>
</g>
<path d="M39.8337 54.8026C39.3886 54.8026 39.1099 54.7502 39.0791 54.7447C38.9613 54.7214 38.8576 54.6522 38.7908 54.5525C38.724 54.4527 38.6995 54.3305 38.7227 54.2127C38.7461 54.0954 38.815 53.9921 38.9144 53.9253C39.0137 53.8585 39.1353 53.8337 39.2529 53.8562C39.2818 53.8617 41.0443 54.1711 42.8539 52.9533C43.0602 52.8139 43.3425 52.8682 43.4818 53.0763C43.6211 53.2844 43.5668 53.5649 43.3587 53.7042C41.9799 54.6325 40.639 54.8026 39.8337 54.8026Z" fill="#424242"/>
<path d="M40.5833 56.6665C40.3679 56.6665 40.1779 56.5127 40.1381 56.2937C40.0947 56.0476 40.2575 55.8142 40.5018 55.7689C40.5308 55.7635 42.2843 55.4106 43.5274 53.621C43.5612 53.572 43.6043 53.5303 43.6543 53.498C43.7042 53.4658 43.7601 53.4437 43.8186 53.4331C43.8771 53.4225 43.9371 53.4236 43.9952 53.4363C44.0533 53.449 44.1084 53.473 44.1572 53.507C44.3616 53.6499 44.4141 53.9304 44.2712 54.1367C42.8018 56.2539 40.7497 56.6448 40.6629 56.6592C40.6376 56.6647 40.6104 56.6665 40.5833 56.6665Z" fill="#424242"/>
<path d="M44.6384 57.9712C44.5699 57.9713 44.5022 57.9559 44.4405 57.926C44.3788 57.8961 44.3247 57.8526 44.2823 57.7987C44.24 57.7448 44.2104 57.682 44.1959 57.615C44.1814 57.548 44.1824 57.4786 44.1987 57.412C44.2041 57.3867 44.6058 55.673 44.1227 53.5649C44.1093 53.5069 44.1075 53.4468 44.1173 53.3882C44.1272 53.3295 44.1485 53.2733 44.1801 53.2229C44.2117 53.1724 44.253 53.1287 44.3015 53.0943C44.35 53.0598 44.4049 53.0353 44.4629 53.022C44.5209 53.0086 44.5809 53.0068 44.6396 53.0167C44.6983 53.0265 44.7545 53.0479 44.8049 53.0795C44.8553 53.1111 44.899 53.1523 44.9335 53.2008C44.968 53.2494 44.9925 53.3042 45.0058 53.3622C45.5414 55.6947 45.098 57.5495 45.0799 57.6274C45.0548 57.7255 44.9979 57.8125 44.9179 57.8747C44.838 57.937 44.7397 57.9709 44.6384 57.9712ZM46.3195 57.9585C46.2978 57.9585 46.2761 57.9567 46.2544 57.9531C46.1356 57.9359 46.0286 57.8724 45.9566 57.7764C45.8847 57.6804 45.8538 57.5597 45.8707 57.441C45.8743 57.4193 46.106 55.673 45.4165 53.6192C45.3369 53.3821 45.4654 53.1252 45.7024 53.0455C45.9413 52.9659 46.1964 53.0944 46.2761 53.3315C47.0379 55.6007 46.7791 57.4898 46.7683 57.5676C46.7527 57.6757 46.6988 57.7746 46.6164 57.8464C46.5341 57.9181 46.4287 57.9579 46.3195 57.9585Z" fill="#424242"/>
<path d="M47.3345 50.3421C47.2349 50.2063 47.4485 49.7883 47.329 49.6779C47.206 49.5658 46.8097 49.8209 46.6686 49.7377C46.5256 49.6526 46.5636 49.1839 46.408 49.1278C46.2524 49.0717 45.9809 49.4554 45.8163 49.4282C45.6534 49.4011 45.5231 48.9487 45.3566 48.9487C45.192 48.9487 45.0653 49.4029 44.9006 49.4318C44.7396 49.459 44.4699 49.0736 44.3107 49.1278C44.1569 49.1803 44.1786 49.6508 44.0284 49.7304C43.8836 49.8064 43.5091 49.5205 43.3733 49.62C43.2376 49.7196 43.3987 50.1629 43.2847 50.2787C43.1652 50.3982 42.7219 50.2371 42.626 50.3692C42.5265 50.5049 42.816 50.8777 42.7418 51.0225C42.6658 51.1726 42.1953 51.1582 42.1447 51.3156C42.094 51.4748 42.4885 51.7336 42.4668 51.8965C42.445 52.0611 41.9963 52.2077 42.0035 52.3724C42.0107 52.5389 42.4704 52.6402 42.5084 52.8013C42.5464 52.9623 42.1863 53.2627 42.2568 53.4147C42.3256 53.5631 42.7889 53.4816 42.8884 53.6174C42.9879 53.7531 42.7744 54.1711 42.8938 54.2815C43.0169 54.3937 43.4132 54.1385 43.5543 54.2218C43.6973 54.3068 43.6593 54.7755 43.8149 54.8316C43.9705 54.8877 44.2419 54.5041 44.4066 54.5312C44.5695 54.5583 44.6998 55.0107 44.8662 55.0107C45.0309 55.0107 45.1576 54.5565 45.3222 54.5276C45.4833 54.5004 45.7529 54.8859 45.9122 54.8316C46.066 54.7791 46.0443 54.3086 46.1945 54.229C46.3392 54.153 46.7138 54.4389 46.8495 54.3394C46.9852 54.2399 46.8242 53.7965 46.9382 53.6807C47.0576 53.5613 47.501 53.7223 47.5969 53.5902C47.6964 53.4545 47.4069 53.0817 47.481 52.937C47.5571 52.7868 48.0275 52.8013 48.0782 52.6438C48.1289 52.4846 47.7344 52.2258 47.7561 52.063C47.7778 51.8983 48.2266 51.7517 48.2193 51.587C48.2121 51.4206 47.7525 51.3192 47.7145 51.1582C47.6765 50.9971 48.0366 50.6967 47.966 50.5447C47.8972 50.3945 47.434 50.4778 47.3345 50.3421Z" fill="#FFB300"/>
<path d="M41.2311 53.261C44.1482 52.4864 45.9422 49.709 45.2381 47.0575C44.534 44.4061 41.5984 42.8847 38.6813 43.6593C35.7643 44.4339 33.9703 47.2113 34.6744 49.8628C35.3785 52.5142 38.3141 54.0356 41.2311 53.261Z" fill="#FCC21B"/>
<path d="M38.929 51.1916C38.929 51.1916 40.5051 51.9263 41.1113 50.3628" stroke="#424242" stroke-width="0.904781" stroke-miterlimit="10" stroke-linecap="round"/>
<path d="M41.2699 47.254C41.3966 47.2051 41.5268 47.1997 41.6553 47.2232C41.8508 47.2594 42.0389 47.3698 42.1873 47.5399C42.2778 47.6466 42.3556 47.7733 42.4099 47.9181C42.4515 48.0375 42.4714 48.1569 42.4769 48.2746C42.4877 48.5044 42.4298 48.7197 42.3158 48.8898C42.229 49.0219 42.1095 49.1287 41.9593 49.1866C41.5232 49.3494 41.0147 49.0545 40.8229 48.5207C40.6329 47.9905 40.8356 47.4186 41.2699 47.254ZM37.5349 50.4696C37.0735 50.5365 36.6175 50.142 36.5216 49.5811C36.4275 49.0255 36.7261 48.5134 37.1911 48.4465C37.6526 48.3759 38.1086 48.774 38.2009 49.3332C38.2968 49.8905 37.9964 50.3972 37.5349 50.4696Z" fill="#424242"/>
<path d="M40.4587 69.1525C40.7799 69.2099 41.0523 69.3791 41.276 69.6601C41.4997 69.9412 41.6115 70.2595 41.6115 70.6151C41.6115 70.9191 41.5312 71.1944 41.3706 71.441C41.2158 71.6819 40.9892 71.874 40.691 72.0174C40.3927 72.1551 40.0457 72.2239 39.65 72.2239H37.2583V66.2447H39.5381C39.9454 66.2447 40.2952 66.3135 40.5877 66.4511C40.8802 66.5888 41.101 66.7752 41.2502 67.0104C41.3993 67.2398 41.4739 67.4979 41.4739 67.7846C41.4739 68.1288 41.3821 68.4155 41.1985 68.645C41.015 68.8744 40.7684 69.0436 40.4587 69.1525ZM38.2391 68.7568H39.4521C39.7733 68.7568 40.0228 68.6851 40.2006 68.5417C40.3841 68.3926 40.4759 68.1804 40.4759 67.9051C40.4759 67.6355 40.3841 67.4262 40.2006 67.2771C40.0228 67.1222 39.7733 67.0448 39.4521 67.0448H38.2391V68.7568ZM39.5639 71.4238C39.8966 71.4238 40.1576 71.3435 40.3468 71.1829C40.5361 71.0223 40.6307 70.7986 40.6307 70.5118C40.6307 70.2193 40.5304 69.9871 40.3296 69.815C40.1289 69.6429 39.8622 69.5569 39.5295 69.5569H38.2391V71.4238H39.5639ZM47.0219 69.7376C47.0219 69.9154 47.0104 70.076 46.9875 70.2193H43.3655C43.3942 70.5979 43.5347 70.9019 43.7871 71.1313C44.0395 71.3607 44.3492 71.4754 44.7162 71.4754C45.2439 71.4754 45.6167 71.2546 45.8347 70.813H46.8928C46.7495 71.2489 46.4885 71.6073 46.11 71.8884C45.7371 72.1637 45.2726 72.3013 44.7162 72.3013C44.2631 72.3013 43.8559 72.2009 43.4946 72.0002C43.139 71.7937 42.858 71.5069 42.6515 71.1399C42.4507 70.7671 42.3504 70.3369 42.3504 69.8494C42.3504 69.3619 42.4479 68.9346 42.6429 68.5675C42.8436 68.1947 43.1218 67.908 43.4774 67.7072C43.8387 67.5065 44.2517 67.4061 44.7162 67.4061C45.1636 67.4061 45.5622 67.5036 45.9121 67.6986C46.2619 67.8936 46.5344 68.1689 46.7294 68.5245C46.9244 68.8744 47.0219 69.2787 47.0219 69.7376ZM45.9981 69.4278C45.9924 69.0665 45.8633 68.7769 45.611 68.5589C45.3586 68.341 45.046 68.232 44.6732 68.232C44.3348 68.232 44.0452 68.341 43.8043 68.5589C43.5634 68.7711 43.42 69.0608 43.3741 69.4278H45.9981ZM52.3317 69.7376C52.3317 69.9154 52.3202 70.076 52.2972 70.2193H48.6753C48.704 70.5979 48.8445 70.9019 49.0969 71.1313C49.3492 71.3607 49.6589 71.4754 50.026 71.4754C50.5537 71.4754 50.9265 71.2546 51.1444 70.813H52.2026C52.0592 71.2489 51.7983 71.6073 51.4197 71.8884C51.0469 72.1637 50.5823 72.3013 50.026 72.3013C49.5729 72.3013 49.1657 72.2009 48.8044 72.0002C48.4488 71.7937 48.1677 71.5069 47.9612 71.1399C47.7605 70.7671 47.6601 70.3369 47.6601 69.8494C47.6601 69.3619 47.7576 68.9346 47.9526 68.5675C48.1534 68.1947 48.4316 67.908 48.7872 67.7072C49.1485 67.5065 49.5614 67.4061 50.026 67.4061C50.4734 67.4061 50.872 67.5036 51.2219 67.6986C51.5717 67.8936 51.8441 68.1689 52.0392 68.5245C52.2342 68.8744 52.3317 69.2787 52.3317 69.7376ZM51.3079 69.4278C51.3021 69.0665 51.1731 68.7769 50.9207 68.5589C50.6684 68.341 50.3558 68.232 49.983 68.232C49.6446 68.232 49.355 68.341 49.1141 68.5589C48.8732 68.7711 48.7298 69.0608 48.6839 69.4278H51.3079Z" fill="black" fill-opacity="0.63"/>
<path d="M124.555 66.2447V72.2239H123.574V69.6085H120.761V72.2239H119.78V66.2447H120.761V68.8084H123.574V66.2447H124.555ZM127.902 72.3013C127.455 72.3013 127.05 72.2009 126.689 72.0002C126.328 71.7937 126.044 71.5069 125.837 71.1399C125.631 70.7671 125.527 70.3369 125.527 69.8494C125.527 69.3676 125.634 68.9403 125.846 68.5675C126.058 68.1947 126.348 67.908 126.715 67.7072C127.082 67.5065 127.492 67.4061 127.945 67.4061C128.398 67.4061 128.808 67.5065 129.175 67.7072C129.542 67.908 129.832 68.1947 130.044 68.5675C130.256 68.9403 130.362 69.3676 130.362 69.8494C130.362 70.3312 130.253 70.7585 130.036 71.1313C129.818 71.5041 129.519 71.7937 129.141 72.0002C128.768 72.2009 128.355 72.3013 127.902 72.3013ZM127.902 71.4496C128.154 71.4496 128.389 71.3894 128.607 71.2689C128.831 71.1485 129.012 70.9678 129.149 70.7269C129.287 70.486 129.356 70.1935 129.356 69.8494C129.356 69.5053 129.29 69.2156 129.158 68.9805C129.026 68.7396 128.851 68.5589 128.633 68.4385C128.415 68.318 128.18 68.2578 127.928 68.2578C127.675 68.2578 127.44 68.318 127.222 68.4385C127.01 68.5589 126.841 68.7396 126.715 68.9805C126.589 69.2156 126.525 69.5053 126.525 69.8494C126.525 70.3599 126.654 70.7556 126.913 71.0366C127.176 71.3119 127.506 71.4496 127.902 71.4496ZM132.313 68.1718C132.456 67.9309 132.645 67.7445 132.881 67.6126C133.121 67.4749 133.405 67.4061 133.732 67.4061V68.4213H133.483C133.099 68.4213 132.806 68.5188 132.605 68.7138C132.41 68.9088 132.313 69.2472 132.313 69.729V72.2239H131.332V67.4835H132.313V68.1718ZM137.025 67.4061C137.398 67.4061 137.731 67.4835 138.023 67.6384C138.322 67.7932 138.554 68.0227 138.72 68.3266C138.887 68.6306 138.97 68.9977 138.97 69.4278V72.2239H137.998V69.5741C137.998 69.1497 137.892 68.8256 137.679 68.6019C137.467 68.3725 137.177 68.2578 136.81 68.2578C136.443 68.2578 136.151 68.3725 135.933 68.6019C135.721 68.8256 135.615 69.1497 135.615 69.5741V72.2239H134.634V67.4835H135.615V68.0255C135.775 67.8305 135.979 67.6785 136.225 67.5696C136.478 67.4606 136.744 67.4061 137.025 67.4061Z" fill="black" fill-opacity="0.63"/>
<path d="M206.542 69.1525C206.863 69.2099 207.135 69.3791 207.359 69.6601C207.583 69.9412 207.694 70.2595 207.694 70.6151C207.694 70.9191 207.614 71.1944 207.453 71.441C207.299 71.6819 207.072 71.874 206.774 72.0174C206.476 72.1551 206.129 72.2239 205.733 72.2239H203.341V66.2447H205.621C206.028 66.2447 206.378 66.3135 206.671 66.4511C206.963 66.5888 207.184 66.7752 207.333 67.0104C207.482 67.2398 207.557 67.4979 207.557 67.7846C207.557 68.1288 207.465 68.4155 207.281 68.645C207.098 68.8744 206.851 69.0436 206.542 69.1525ZM204.322 68.7568H205.535C205.856 68.7568 206.106 68.6851 206.283 68.5417C206.467 68.3926 206.559 68.1804 206.559 67.9051C206.559 67.6355 206.467 67.4262 206.283 67.2771C206.106 67.1222 205.856 67.0448 205.535 67.0448H204.322V68.7568ZM205.647 71.4238C205.979 71.4238 206.24 71.3435 206.43 71.1829C206.619 71.0223 206.714 70.7986 206.714 70.5118C206.714 70.2193 206.613 69.9871 206.412 69.815C206.212 69.6429 205.945 69.5569 205.612 69.5569H204.322V71.4238H205.647ZM208.433 69.8322C208.433 69.3562 208.531 68.9346 208.726 68.5675C208.926 68.2005 209.196 67.9166 209.534 67.7158C209.879 67.5093 210.257 67.4061 210.67 67.4061C211.043 67.4061 211.367 67.4807 211.642 67.6298C211.923 67.7732 212.147 67.9538 212.313 68.1718V67.4835H213.303V72.2239H212.313V71.5184C212.147 71.7421 211.92 71.9285 211.634 72.0776C211.347 72.2267 211.02 72.3013 210.653 72.3013C210.246 72.3013 209.873 72.1981 209.534 71.9916C209.196 71.7794 208.926 71.4869 208.726 71.1141C208.531 70.7355 208.433 70.3082 208.433 69.8322ZM212.313 69.8494C212.313 69.5225 212.244 69.2386 212.107 68.9977C211.975 68.7568 211.8 68.5733 211.582 68.4471C211.364 68.3209 211.129 68.2578 210.877 68.2578C210.624 68.2578 210.389 68.3209 210.171 68.4471C209.953 68.5675 209.775 68.7482 209.638 68.9891C209.506 69.2242 209.44 69.5053 209.44 69.8322C209.44 70.1591 209.506 70.4459 209.638 70.6925C209.775 70.9391 209.953 71.1284 210.171 71.2603C210.395 71.3865 210.63 71.4496 210.877 71.4496C211.129 71.4496 211.364 71.3865 211.582 71.2603C211.8 71.1341 211.975 70.9506 212.107 70.7097C212.244 70.4631 212.313 70.1763 212.313 69.8494ZM215.572 68.189C215.738 67.9596 215.964 67.7732 216.251 67.6298C216.544 67.4807 216.868 67.4061 217.223 67.4061C217.642 67.4061 218.021 67.5065 218.359 67.7072C218.697 67.908 218.964 68.1947 219.159 68.5675C219.354 68.9346 219.452 69.3562 219.452 69.8322C219.452 70.3082 219.354 70.7355 219.159 71.1141C218.964 71.4869 218.695 71.7794 218.35 71.9916C218.012 72.1981 217.636 72.3013 217.223 72.3013C216.856 72.3013 216.529 72.2296 216.243 72.0862C215.962 71.9428 215.738 71.7593 215.572 71.5356V72.2239H214.591V65.8575H215.572V68.189ZM218.454 69.8322C218.454 69.5053 218.385 69.2242 218.247 68.9891C218.115 68.7482 217.937 68.5675 217.714 68.4471C217.496 68.3209 217.261 68.2578 217.008 68.2578C216.762 68.2578 216.527 68.3209 216.303 68.4471C216.085 68.5733 215.907 68.7568 215.769 68.9977C215.638 69.2386 215.572 69.5225 215.572 69.8494C215.572 70.1763 215.638 70.4631 215.769 70.7097C215.907 70.9506 216.085 71.1341 216.303 71.2603C216.527 71.3865 216.762 71.4496 217.008 71.4496C217.261 71.4496 217.496 71.3865 217.714 71.2603C217.937 71.1284 218.115 70.9391 218.247 70.6925C218.385 70.4459 218.454 70.1591 218.454 69.8322ZM224.689 67.4835L221.781 74.4521H220.766L221.729 72.1464L219.862 67.4835H220.955L222.288 71.0969L223.673 67.4835H224.689Z" fill="black" fill-opacity="0.63"/>
<circle cx="44.2798" cy="129.386" r="30.6483" fill="#CFF0D2" fill-opacity="0.7"/>
<circle cx="129.219" cy="129.386" r="30.6483" fill="#EEADFE" fill-opacity="0.42"/>
<circle cx="213.284" cy="129.386" r="30.6483" fill="#C1E0FF" fill-opacity="0.7"/>
<path d="M227.889 96.5647C214.253 96.2131 209.837 106.769 209.5 110.73C209.237 113.81 207.915 125.074 214.337 132.64C217.651 136.544 222.962 138.49 228.592 138.358C234.268 138.227 239.397 137.098 242.847 132.551C248.654 124.896 248.036 113.458 247.248 109.76C246.508 106.319 243.634 96.9678 227.889 96.5647Z" fill="#FFEAC8"/>
<path d="M243.385 117.405C243.868 121.066 242.279 124.559 238.093 124.807C234.263 125.037 231.9 122.594 231.713 118.999C231.521 115.315 233.536 111.888 236.738 111.537C240.118 111.166 242.907 113.744 243.385 117.405ZM206.86 99.7288C206.86 99.7288 202.252 101.534 201.141 104.215C199.646 107.824 200.335 114.987 201.141 117.766C201.933 120.494 204.043 123.312 207.3 123.223C210.558 123.133 213.418 119.834 214.425 115.526C215.438 111.213 215.658 103.826 215.963 102.504C216.268 101.182 216.797 100.127 216.797 100.127C216.797 100.127 212.752 96.2085 206.86 99.7288ZM245.443 99.1569C245.443 99.1569 251.691 99.3773 253.186 100.038C254.682 100.699 256.046 103.69 255.914 107.693C255.783 111.696 255.521 118.169 253.496 120.405C251.822 122.252 248.438 122.384 246.544 120.096C244.65 117.809 243.464 113.937 243.024 111.429C242.583 108.921 241.838 105.668 241.35 104.215C240.868 102.762 239.677 99.8601 239.063 99.1991C238.444 98.5429 239.677 97.9241 245.443 99.1569Z" fill="#D27856"/>
<path d="M212.049 97.6616C208.66 97.446 203.072 100.127 201.929 102.898C200.785 105.668 201.455 114.658 202.416 117.283C203.429 120.054 205.538 123.532 209.19 120.541C212.841 117.551 213.807 110.027 214.163 107.608C214.515 105.19 214.997 102.241 215.527 101.627C216.057 101.013 216.802 100.132 216.802 100.132C216.802 100.132 216.23 97.9241 212.049 97.6616ZM246.188 97.0897C249.371 97.31 252.83 98.496 254.105 101.271C255.38 104.041 254.897 110.599 254.415 113.721C253.932 116.843 252.788 120.101 249.929 119.749C247.069 119.398 245.616 115.526 244.74 111.874C243.858 108.223 242.935 104.571 241.791 101.932C241.102 100.338 238.711 99.1616 238.711 99.1616C238.711 99.1616 239.766 96.6491 246.188 97.0897Z" fill="#865B51"/>
<path d="M221.672 118.934C221.484 120.537 220.659 121.83 218.869 121.643C217.599 121.507 216.745 119.993 216.933 118.385C217.12 116.782 217.678 115.629 219.178 115.657C221.508 115.699 221.859 117.326 221.672 118.934ZM240.066 118.484C240.141 120.096 239.503 121.474 237.642 121.61C236.025 121.727 235.195 120.326 235.125 118.713C235.05 117.101 235.852 115.807 237.394 115.615C239.395 115.357 239.991 116.871 240.066 118.484ZM233.213 126.612C233.288 128.224 232.2 129.734 228.811 129.691C225.511 129.649 224.311 128.313 224.236 126.701C224.161 125.088 226.036 123.64 228.722 123.579C232.42 123.485 233.138 124.994 233.213 126.612Z" fill="#2F2F2F"/>
<path d="M225.731 133.123C225.731 133.123 226.13 136.952 226.523 138.096C227.358 140.515 230.873 140.112 231.497 137.834C232.027 135.898 231.675 132.555 231.675 132.555L228.553 132.115L225.731 133.123Z" fill="#E94B8C"/>
<path d="M228.918 134.398C228.369 134.421 228.388 134.927 228.388 136.09C228.388 137.257 228.454 137.96 228.983 137.937C229.513 137.913 229.448 137.013 229.448 136.179C229.448 135.344 229.49 134.374 228.918 134.398Z" fill="#EF87B2"/>
<path d="M221.508 129.49C220.875 130.423 222.103 131.248 223.116 131.932C224.128 132.612 225.356 133.648 226.81 133.624C228.436 133.601 228.877 132.504 228.877 132.504C228.877 132.504 229.406 133.802 231.713 133.558C232.945 133.427 234.464 132.044 234.924 131.735C235.805 131.14 236.86 130.394 236.396 129.776C235.866 129.068 234.745 130.019 233.602 130.61C232.458 131.205 232.064 131.491 231.206 131.491C230.349 131.491 229.753 131.14 229.711 129.71C229.674 128.543 229.688 128.323 229.688 128.323H227.728C227.728 128.323 227.794 129.555 227.794 129.907C227.794 130.83 227.311 131.229 226.388 131.271C225.464 131.313 224.475 130.544 223.988 130.258C223.51 129.977 222.014 128.744 221.508 129.49Z" fill="#2F2F30"/>
<path d="M35.7441 123.113C35.6355 123.113 35.5632 123.077 35.4908 123.041C35.4184 122.968 33.3917 121.593 32.9574 119.349C32.7402 118.082 33.0298 116.816 33.8622 115.621C35.2374 113.631 35.7079 111.966 35.2736 110.736C34.8031 109.397 33.3555 108.962 33.3555 108.926C33.1021 108.854 32.9574 108.564 33.0298 108.311C33.1021 108.058 33.3555 107.877 33.6088 107.985C33.6812 108.021 35.527 108.564 36.1784 110.374C36.7213 111.93 36.2146 113.884 34.6584 116.164C33.9707 117.142 33.7174 118.155 33.8984 119.132C34.2241 120.978 35.9974 122.172 35.9974 122.172C36.2146 122.317 36.287 122.643 36.1422 122.86C36.0698 123.041 35.9251 123.113 35.7441 123.113ZM51.7406 123.113C51.5959 123.113 51.4149 123.041 51.3425 122.896C51.1978 122.679 51.2702 122.353 51.4873 122.208C51.4873 122.208 53.2607 120.978 53.5864 119.168C53.7673 118.191 53.514 117.214 52.8264 116.201C51.2702 113.92 50.7635 111.966 51.3063 110.41C51.9578 108.564 53.8035 108.021 53.8759 108.021C54.1293 107.949 54.4188 108.094 54.4912 108.347C54.5636 108.6 54.4188 108.89 54.1655 108.962C54.1655 108.962 52.7178 109.397 52.2473 110.772C51.813 112.002 52.2835 113.667 53.6588 115.658C54.4912 116.888 54.7807 118.119 54.5636 119.385C54.1293 121.629 52.1026 123.004 52.0302 123.077C51.9216 123.077 51.813 123.113 51.7406 123.113Z" fill="#592F5D"/>
<path d="M43.7426 109.469C41.173 109.469 34.2243 113.269 34.2967 122.317C34.2967 123.765 34.3691 127.384 35.0929 127.963C35.8167 128.578 37.5901 127.022 38.4587 127.42C39.3273 127.854 39.6168 129.41 40.594 129.628C41.5711 129.845 42.7655 128.578 43.7426 128.578C44.7198 128.578 45.9503 129.845 46.8913 129.628C47.8322 129.41 48.1579 127.854 49.0265 127.42C49.8589 127.022 51.6685 128.542 52.3923 127.963C53.1161 127.347 53.1885 123.728 53.1885 122.317C53.2609 114.138 47.1084 109.469 43.7426 109.469Z" fill="#917DBC"/>
<path d="M49.8225 118.3C51.1254 119.711 51.1254 121.991 49.8225 123.403C48.5196 124.814 46.3844 124.814 45.0815 123.403C45.0453 123.403 48.4834 116.888 49.8225 118.3ZM37.0832 120.363C35.8889 123.258 37.8432 122.498 39.5442 123.33C41.2452 124.126 42.4757 125.14 43.2357 123.33C43.1995 123.294 37.807 118.553 37.0832 120.363Z" fill="white"/>
<path d="M39.7257 122.498C39.7257 123.222 40.2686 123.837 40.9562 123.837C41.6438 123.837 42.1867 123.258 42.1867 122.498C41.7162 122.136 41.1372 121.665 40.5219 121.267C40.0876 121.448 39.7257 121.919 39.7257 122.498ZM46.9278 123.801C47.6154 123.801 48.1583 123.222 48.1583 122.462C48.1583 121.738 47.6154 121.123 46.9278 121.123C46.6744 121.123 46.4573 121.195 46.2401 121.34C46.0592 121.665 45.8782 121.955 45.6973 122.208C45.6973 122.281 45.6611 122.353 45.6611 122.425C45.6973 123.222 46.2401 123.801 46.9278 123.801Z" fill="#592F5D"/>
<path d="M43.7426 116.635C40.8111 116.635 40.4854 117.322 40.0149 116.454C39.7978 116.056 40.8111 115.296 43.7426 115.296C46.6741 115.296 47.6875 116.056 47.4703 116.454C46.9998 117.322 46.6741 116.635 43.7426 116.635ZM43.7426 114.101C40.8111 114.101 40.4854 114.789 40.0149 113.92C39.7978 113.522 40.8111 112.762 43.7426 112.762C46.6741 112.762 47.6875 113.522 47.4703 113.92C46.9998 114.789 46.6741 114.101 43.7426 114.101ZM38.3863 125.791C38.133 126.298 37.192 126.37 36.251 125.9C35.3101 125.429 34.7672 124.633 35.0205 124.126C35.2739 123.62 36.2148 123.547 37.1558 124.018C38.0968 124.488 38.6035 125.248 38.3863 125.791ZM49.0989 125.791C49.3523 126.298 50.2932 126.37 51.2342 125.9C52.1752 125.429 52.7181 124.633 52.4647 124.126C52.2114 123.62 51.2704 123.547 50.3294 124.018C49.4247 124.452 48.8818 125.248 49.0989 125.791Z" fill="#62FBF6"/>
<path d="M138.522 114.898C139.934 113.957 139.97 112.581 139.97 112.581C138.558 112.509 138.595 111.061 137.292 109.758C135.555 108.021 133.347 109.107 133.347 109.107C133.455 108.564 133.166 108.238 133.383 107.949C130.415 107.949 129.112 109.216 129.112 109.216C129.112 109.216 127.81 107.949 124.842 107.949C125.023 108.238 124.77 108.564 124.878 109.107C124.878 109.107 122.634 107.985 120.933 109.758C119.63 111.098 119.667 112.545 118.255 112.581C118.255 112.581 118.291 113.957 119.703 114.898C119.703 114.898 118.219 116.309 118.472 119.277C118.472 119.277 119.051 118.553 120.463 118.3C118.834 119.675 119.775 121.702 118.581 123.077C118.581 123.077 120.246 123.439 120.933 122.968C120.68 125.104 121.983 125.936 121.983 126.986C123.467 126.515 123.684 125.031 123.684 125.031C123.684 127.746 124.625 127.637 124.625 129.085C124.625 129.085 126.253 128.831 126.941 127.456C127.194 128.723 128.497 128.867 129.185 129.664C129.873 128.867 131.139 128.723 131.429 127.456C132.116 128.795 133.745 129.085 133.745 129.085C133.745 127.637 134.686 127.746 134.686 125.031C134.686 125.031 134.903 126.479 136.387 126.986C136.387 125.936 137.69 125.104 137.436 122.968C138.124 123.439 139.789 123.077 139.789 123.077C138.595 121.665 139.536 119.639 137.907 118.3C139.282 118.589 139.897 119.277 139.897 119.277C140.006 116.273 138.522 114.898 138.522 114.898Z" fill="#8F6B51"/>
<path d="M137.689 109.795C136.748 109.035 134.034 109.867 132.984 111.17C134.251 111.604 135.735 112.69 136.857 115.296C139.209 114.138 138.667 110.591 137.689 109.795Z" fill="#E5BC5E"/>
<path d="M136.351 114.282C137.726 113.703 137.437 111.749 136.894 111.315C136.423 110.917 135.048 111.315 134.469 111.966C135.121 112.473 135.772 113.233 136.351 114.282Z" fill="#3E4347"/>
<path d="M125.24 111.17C124.19 109.867 121.476 109.035 120.535 109.795C119.558 110.591 118.979 114.138 121.367 115.296C122.526 112.726 123.973 111.604 125.24 111.17Z" fill="#E5BC5E"/>
<path d="M121.874 114.282C122.453 113.233 123.105 112.473 123.756 111.966C123.141 111.315 121.802 110.917 121.332 111.315C120.789 111.749 120.499 113.703 121.874 114.282Z" fill="#3E4347"/>
<path d="M135.229 117.612C135.41 116.816 134.65 114.97 133.962 114.608C133.854 114.536 133.419 114.608 133.419 114.608C133.275 114.427 132.587 112.437 130.777 112.075C129.692 111.894 129.113 112.799 129.113 112.799C129.113 112.799 128.534 111.858 127.448 112.075C125.638 112.4 124.914 114.427 124.806 114.608C124.806 114.608 124.372 114.536 124.263 114.608C123.575 115.006 122.852 116.816 122.996 117.612C123.213 118.589 124.914 119.566 124.914 121.231H133.383C133.347 119.566 135.048 118.589 135.229 117.612Z" fill="#E5BC5E"/>
<path d="M129.112 113.16L128.642 114.101L129.112 117.033L129.583 114.101L129.112 113.16Z" fill="white"/>
<path d="M133.057 116.635C133.057 117.25 132.659 117.721 132.189 117.721C131.718 117.721 131.32 117.25 131.32 116.635C131.32 116.02 131.718 115.549 132.189 115.549C132.659 115.549 133.057 116.056 133.057 116.635ZM125.168 116.635C125.168 117.25 125.566 117.721 126.036 117.721C126.507 117.721 126.905 117.25 126.905 116.635C126.905 116.02 126.507 115.549 126.036 115.549C125.566 115.549 125.168 116.056 125.168 116.635Z" fill="#3E4347"/>
<path d="M124.95 122.353C124.95 124.669 127.737 126.443 127.737 126.443C127.701 125.972 127.846 125.61 127.846 125.61C127.954 126.298 128.28 126.805 128.28 126.805C128.28 126.226 128.57 125.972 128.57 125.972C128.859 126.768 129.149 127.094 129.149 127.094C129.149 127.094 129.438 126.768 129.728 125.972C129.728 125.972 130.017 126.226 130.017 126.805C130.017 126.805 130.343 126.298 130.452 125.61C130.452 125.61 130.596 126.008 130.56 126.443C130.56 126.443 133.347 124.669 133.347 122.353H124.95Z" fill="white"/>
<path d="M133.203 120.435C133.094 120.218 131.248 118.734 131.248 118.734H126.978C126.978 118.734 125.168 120.182 125.023 120.435C124.842 120.797 124.806 121.955 124.951 122.317C124.951 122.317 126.724 124.995 129.113 122.679C131.502 124.995 133.275 122.317 133.275 122.317C133.42 121.955 133.383 120.797 133.203 120.435Z" fill="#FFDA87"/>
<path d="M129.474 122.679V120.543L130.85 119.964C131.067 119.856 131.248 119.603 131.248 119.385V118.77H126.977V119.385C126.977 119.603 127.158 119.856 127.375 119.964L128.751 120.543V122.679C126.941 124.344 125.168 122.534 124.987 122.353C125.204 122.679 126.941 125.574 129.149 123.294C131.32 125.574 133.094 122.643 133.311 122.353C133.094 122.57 131.284 124.38 129.474 122.679Z" fill="#3E4347"/>
<path d="M131.247 118.77C130.668 117.721 130.596 117.648 130.089 117.395C129.655 117.214 128.605 117.214 128.171 117.395C127.664 117.612 127.592 117.721 127.013 118.77H131.247Z" fill="#FFDA87"/>
<path d="M129.112 118.191C127.737 118.191 126.977 118.77 126.977 118.77C126.977 118.77 127.05 118.734 127.81 119.277C128.28 119.639 128.678 120.58 129.112 120.58C129.547 120.58 129.945 119.639 130.415 119.277C131.175 118.698 131.248 118.77 131.248 118.77C131.248 118.77 130.488 118.191 129.112 118.191Z" fill="#AF7751"/>
<path d="M38.0188 143.137H35.5153L35.0851 144.358H34.0613L36.2035 138.37H37.3391L39.4813 144.358H38.449L38.0188 143.137ZM37.7435 142.336L36.7713 139.558L35.7906 142.336H37.7435ZM41.3935 137.992V144.358H40.4128V137.992H41.3935ZM43.1802 138.99C43.0024 138.99 42.8532 138.93 42.7328 138.809C42.6123 138.689 42.5521 138.54 42.5521 138.362C42.5521 138.184 42.6123 138.035 42.7328 137.914C42.8532 137.794 43.0024 137.734 43.1802 137.734C43.3522 137.734 43.4985 137.794 43.6189 137.914C43.7394 138.035 43.7996 138.184 43.7996 138.362C43.7996 138.54 43.7394 138.689 43.6189 138.809C43.4985 138.93 43.3522 138.99 43.1802 138.99ZM43.6619 139.618V144.358H42.6812V139.618H43.6619ZM49.2942 141.872C49.2942 142.05 49.2827 142.21 49.2598 142.354H45.6378C45.6665 142.732 45.807 143.036 46.0594 143.266C46.3118 143.495 46.6215 143.61 46.9885 143.61C47.5162 143.61 47.889 143.389 48.107 142.947H49.1651C49.0218 143.383 48.7608 143.742 48.3823 144.023C48.0095 144.298 47.5449 144.436 46.9885 144.436C46.5354 144.436 46.1282 144.335 45.7669 144.135C45.4113 143.928 45.1303 143.641 44.9238 143.274C44.723 142.901 44.6227 142.471 44.6227 141.984C44.6227 141.496 44.7202 141.069 44.9152 140.702C45.1159 140.329 45.3941 140.042 45.7497 139.842C46.111 139.641 46.524 139.54 46.9885 139.54C47.4359 139.54 47.8345 139.638 48.1844 139.833C48.5342 140.028 48.8067 140.303 49.0017 140.659C49.1967 141.009 49.2942 141.413 49.2942 141.872ZM48.2704 141.562C48.2647 141.201 48.1356 140.911 47.8833 140.693C47.6309 140.475 47.3183 140.366 46.9455 140.366C46.6071 140.366 46.3175 140.475 46.0766 140.693C45.8357 140.905 45.6923 141.195 45.6464 141.562H48.2704ZM52.651 139.54C53.0238 139.54 53.3565 139.618 53.649 139.773C53.9473 139.928 54.1795 140.157 54.3459 140.461C54.5122 140.765 54.5954 141.132 54.5954 141.562V144.358H53.6232V141.708C53.6232 141.284 53.5171 140.96 53.3049 140.736C53.0927 140.507 52.803 140.392 52.436 140.392C52.0689 140.392 51.7764 140.507 51.5584 140.736C51.3462 140.96 51.2401 141.284 51.2401 141.708V144.358H50.2594V139.618H51.2401V140.16C51.4007 139.965 51.6043 139.813 51.8509 139.704C52.1033 139.595 52.37 139.54 52.651 139.54Z" fill="black" fill-opacity="0.63"/>
<path d="M122.661 137.992V144.358H121.68V137.992H122.661ZM124.448 138.99C124.27 138.99 124.121 138.93 124 138.809C123.88 138.689 123.82 138.54 123.82 138.362C123.82 138.184 123.88 138.035 124 137.914C124.121 137.794 124.27 137.734 124.448 137.734C124.62 137.734 124.766 137.794 124.886 137.914C125.007 138.035 125.067 138.184 125.067 138.362C125.067 138.54 125.007 138.689 124.886 138.809C124.766 138.93 124.62 138.99 124.448 138.99ZM124.929 139.618V144.358H123.949V139.618H124.929ZM128.273 144.436C127.826 144.436 127.421 144.335 127.06 144.135C126.699 143.928 126.415 143.641 126.208 143.274C126.002 142.901 125.899 142.471 125.899 141.984C125.899 141.502 126.005 141.075 126.217 140.702C126.429 140.329 126.719 140.042 127.086 139.842C127.453 139.641 127.863 139.54 128.316 139.54C128.769 139.54 129.179 139.641 129.546 139.842C129.914 140.042 130.203 140.329 130.415 140.702C130.628 141.075 130.734 141.502 130.734 141.984C130.734 142.465 130.625 142.893 130.407 143.266C130.189 143.638 129.891 143.928 129.512 144.135C129.139 144.335 128.726 144.436 128.273 144.436ZM128.273 143.584C128.526 143.584 128.761 143.524 128.979 143.403C129.202 143.283 129.383 143.102 129.521 142.861C129.658 142.62 129.727 142.328 129.727 141.984C129.727 141.64 129.661 141.35 129.529 141.115C129.397 140.874 129.222 140.693 129.004 140.573C128.786 140.452 128.551 140.392 128.299 140.392C128.047 140.392 127.811 140.452 127.594 140.573C127.381 140.693 127.212 140.874 127.086 141.115C126.96 141.35 126.897 141.64 126.897 141.984C126.897 142.494 127.026 142.89 127.284 143.171C127.548 143.446 127.877 143.584 128.273 143.584ZM134.095 139.54C134.468 139.54 134.8 139.618 135.093 139.773C135.391 139.928 135.623 140.157 135.79 140.461C135.956 140.765 136.039 141.132 136.039 141.562V144.358H135.067V141.708C135.067 141.284 134.961 140.96 134.749 140.736C134.537 140.507 134.247 140.392 133.88 140.392C133.513 140.392 133.22 140.507 133.002 140.736C132.79 140.96 132.684 141.284 132.684 141.708V144.358H131.703V139.618H132.684V140.16C132.845 139.965 133.048 139.813 133.295 139.704C133.547 139.595 133.814 139.54 134.095 139.54Z" fill="black" fill-opacity="0.63"/>
<path d="M207.115 138.379C207.751 138.379 208.308 138.502 208.784 138.749C209.265 138.99 209.635 139.34 209.893 139.799C210.157 140.252 210.289 140.782 210.289 141.39C210.289 141.998 210.157 142.526 209.893 142.973C209.635 143.42 209.265 143.765 208.784 144.005C208.308 144.241 207.751 144.358 207.115 144.358H205.162V138.379H207.115ZM207.115 143.558C207.814 143.558 208.351 143.369 208.723 142.99C209.096 142.612 209.283 142.078 209.283 141.39C209.283 140.696 209.096 140.154 208.723 139.764C208.351 139.374 207.814 139.179 207.115 139.179H206.142V143.558H207.115ZM213.317 144.436C212.87 144.436 212.466 144.335 212.104 144.135C211.743 143.928 211.459 143.641 211.253 143.274C211.046 142.901 210.943 142.471 210.943 141.984C210.943 141.502 211.049 141.075 211.261 140.702C211.473 140.329 211.763 140.042 212.13 139.842C212.497 139.641 212.907 139.54 213.36 139.54C213.813 139.54 214.224 139.641 214.591 139.842C214.958 140.042 215.247 140.329 215.46 140.702C215.672 141.075 215.778 141.502 215.778 141.984C215.778 142.465 215.669 142.893 215.451 143.266C215.233 143.638 214.935 143.928 214.556 144.135C214.183 144.335 213.77 144.436 213.317 144.436ZM213.317 143.584C213.57 143.584 213.805 143.524 214.023 143.403C214.246 143.283 214.427 143.102 214.565 142.861C214.702 142.62 214.771 142.328 214.771 141.984C214.771 141.64 214.705 141.35 214.573 141.115C214.441 140.874 214.267 140.693 214.049 140.573C213.831 140.452 213.595 140.392 213.343 140.392C213.091 140.392 212.856 140.452 212.638 140.573C212.425 140.693 212.256 140.874 212.13 141.115C212.004 141.35 211.941 141.64 211.941 141.984C211.941 142.494 212.07 142.89 212.328 143.171C212.592 143.446 212.922 143.584 213.317 143.584ZM218.657 139.54C219.024 139.54 219.348 139.615 219.629 139.764C219.916 139.907 220.14 140.088 220.3 140.306V139.618H221.29V144.436C221.29 144.872 221.198 145.259 221.015 145.597C220.831 145.941 220.564 146.211 220.214 146.406C219.87 146.601 219.457 146.698 218.976 146.698C218.333 146.698 217.8 146.546 217.375 146.242C216.951 145.944 216.71 145.537 216.653 145.021H217.625C217.699 145.267 217.857 145.465 218.098 145.614C218.345 145.769 218.637 145.847 218.976 145.847C219.371 145.847 219.69 145.726 219.931 145.485C220.177 145.244 220.3 144.894 220.3 144.436V143.644C220.134 143.868 219.908 144.057 219.621 144.212C219.34 144.361 219.019 144.436 218.657 144.436C218.244 144.436 217.866 144.332 217.522 144.126C217.183 143.914 216.914 143.621 216.713 143.248C216.518 142.87 216.42 142.443 216.42 141.967C216.42 141.49 216.518 141.069 216.713 140.702C216.914 140.335 217.183 140.051 217.522 139.85C217.866 139.644 218.244 139.54 218.657 139.54ZM220.3 141.984C220.3 141.657 220.232 141.373 220.094 141.132C219.962 140.891 219.787 140.708 219.569 140.581C219.351 140.455 219.116 140.392 218.864 140.392C218.611 140.392 218.376 140.455 218.158 140.581C217.94 140.702 217.763 140.883 217.625 141.123C217.493 141.359 217.427 141.64 217.427 141.967C217.427 142.293 217.493 142.58 217.625 142.827C217.763 143.073 217.94 143.263 218.158 143.395C218.382 143.521 218.617 143.584 218.864 143.584C219.116 143.584 219.351 143.521 219.569 143.395C219.787 143.268 219.962 143.085 220.094 142.844C220.232 142.597 220.3 142.311 220.3 141.984Z" fill="black" fill-opacity="0.63"/>
<circle cx="44.2798" cy="201.405" r="30.6483" fill="#EEADFE" fill-opacity="0.42"/>
<circle cx="129.219" cy="201.405" r="30.6483" fill="#C1E0FF" fill-opacity="0.7"/>
<circle cx="213.284" cy="201.405" r="30.6483" fill="#CFF0D2" fill-opacity="0.7"/>
<path d="M48.184 182.019C48.184 182.019 48.9541 167.548 37.4878 164.683C24.2307 161.37 21.6204 174.049 21.6204 174.049C21.6204 174.049 16.4492 173.069 13.23 176.565C10.5302 179.498 10.7854 182.368 10.7854 182.368C10.7854 182.368 7.22154 181.598 4.42325 184.047C1.62496 186.496 2.04582 188.797 2.04582 188.797L10.3646 192.012C10.3646 192.012 52.3747 192.222 52.5852 192.084C52.7956 191.945 55.3834 187.888 55.3834 187.888C55.3834 187.888 54.9626 184.392 52.518 182.995C50.0689 181.598 48.184 182.019 48.184 182.019Z" fill="#E2EBEE"/>
<path d="M6.38024 194.179C8.4756 194.251 22.1805 194.528 30.4948 194.457C38.8091 194.385 51.4528 194.519 53.2079 193.691C54.5824 193.042 55.4018 191.967 55.5316 190.463C55.657 189.026 55.3794 187.888 55.3794 187.888C55.3794 187.888 53.4228 189.303 49.7157 189.357C47.4099 189.388 42.7267 189.008 43.6355 188.17C43.8907 187.933 47.5129 185.189 47.3382 182.65C47.2979 182.05 44.0519 185.027 40.976 186.286C37.9002 187.544 34.981 188.515 30.9156 188.256C27.4905 188.032 26.0041 186.639 26.0041 186.639C26.0041 186.639 24.352 188.578 19.3867 188.994C14.4214 189.415 13.3513 187.548 13.3513 187.548C13.3513 187.548 10.9471 189.366 6.90856 189.312C2.87902 189.249 2.08655 187.799 2.08655 187.799C2.08655 187.799 1.70598 190.382 2.54771 191.891C3.40734 193.427 4.9699 194.134 6.38024 194.179Z" fill="#B9CED2"/>
<path d="M31.3354 197.815C30.5698 197.546 27.8386 199.708 26.6074 201.844C25.3717 203.989 26.1776 205.556 27.4984 206.2C28.9848 206.926 31.125 206.478 31.7339 204.365C32.3338 202.274 32.1592 198.106 31.3354 197.815ZM16.8604 196.749C16.1664 196.503 13.9144 198.594 12.9025 199.722C11.5459 201.24 10.4982 204.069 13.0726 205.215C15.665 206.366 17.3484 204.481 17.4783 201.875C17.6036 199.449 17.4335 196.955 16.8604 196.749ZM22.3271 206.805C21.5884 206.406 18.4857 209.16 17.4962 210.803C16.5112 212.446 16.5739 214.555 18.5886 215.419C20.6034 216.283 22.3809 215.177 22.7525 212.299C23.0122 210.257 23.039 207.19 22.3271 206.805ZM37.3304 207.042C36.7977 206.742 33.1084 209.59 32.2801 211.663C30.6369 215.777 36.2514 217.613 37.5274 213.745C38.2707 211.488 37.9886 207.414 37.3304 207.042ZM46.5044 198.173C45.7746 197.725 42.7076 200.25 41.6868 202.149C40.3974 204.548 41.4003 206.357 42.8061 206.93C44.2657 207.521 46.1417 206.953 46.7775 204.79C47.6953 201.674 47.2118 198.612 46.5044 198.173Z" fill="#4FC4F8"/>
<path d="M43.16 202.077C42.6765 202.135 42.0765 202.825 41.9825 204.002C41.8885 205.18 42.6317 205.775 43.3839 205.475C44.0913 205.193 44.2077 204.186 44.2077 203.55C44.2077 202.914 43.9077 201.983 43.16 202.077ZM28.206 201.705C27.6955 201.562 26.7464 202.35 26.5807 203.626C26.4509 204.611 26.8314 205.207 27.597 205.265C28.6626 205.345 28.9984 204.033 28.9716 203.232C28.9537 202.775 28.8731 201.893 28.206 201.705ZM19.0052 210.449C18.5306 210.414 17.7336 211.211 17.7336 212.451C17.7336 213.691 18.3784 214.228 19.1395 214.063C19.9006 213.892 20.0529 212.437 20.0036 211.86C19.9544 211.282 19.7081 210.503 19.0052 210.449ZM13.8384 200.89C13.1982 200.707 12.3788 201.517 12.2803 202.431C12.1774 203.344 12.6027 204.007 13.2788 204.11C13.9548 204.213 14.5324 203.398 14.5996 202.449C14.6712 201.499 14.4339 201.056 13.8384 200.89ZM34.2055 210.978C33.6145 210.928 32.7683 211.802 32.7907 213.122C32.8131 214.443 33.4981 214.667 33.9503 214.694C34.5995 214.734 35.0517 213.969 35.1099 212.769C35.1591 211.761 34.9308 211.036 34.2055 210.978Z" fill="#AEE6FD"/>
<path d="M130.739 189.649C130.928 189.838 130.928 190.144 130.739 190.334L129.469 191.603L127.805 189.939L129.074 188.669C129.264 188.479 129.569 188.479 129.759 188.669L130.739 189.649Z" fill="#FF8596"/>
<path d="M141.111 185.582L139.283 188.727L135.2 190.502L128.9 184.207L130.681 180.125L133.825 178.297L134.658 179.129L132.366 181.421C132.108 181.679 132.055 182.047 132.245 182.242L137.165 187.162C137.36 187.352 137.729 187.299 137.987 187.041L140.278 184.745L141.111 185.582Z" fill="#7981E3"/>
<path d="M133.772 191.935L129.8 195.907L129.332 195.438C129.074 195.18 129.074 194.753 129.332 194.495L132.361 191.466C132.619 191.208 133.045 191.208 133.304 191.466L133.772 191.935Z" fill="#7981E3"/>
<path d="M129.469 191.603L128.199 192.873C128.01 193.062 127.704 193.062 127.514 192.873L126.535 191.893C126.345 191.703 126.345 191.398 126.535 191.208L127.804 189.939L129.469 191.603Z" fill="#E3F5FF"/>
<path d="M127.946 186.104C128.204 186.362 128.204 186.788 127.946 187.047L124.917 190.076C124.659 190.334 124.232 190.334 123.974 190.076L123.505 189.607L127.477 185.635L127.946 186.104Z" fill="#7981E3"/>
<path d="M126.519 195.48L125.102 197.93L125.666 200.037L125.392 200.311C124.538 201.164 123.137 201.164 122.284 200.311L119.091 197.118C118.238 196.265 118.238 194.864 119.091 194.011L119.365 193.737L121.472 194.3L123.922 192.883L126.519 195.48Z" fill="#7981E3"/>
<path d="M135.201 190.507L133.773 191.935L133.304 191.466C133.046 191.208 132.62 191.208 132.361 191.466L129.332 194.495C129.074 194.753 129.074 195.18 129.332 195.438L129.801 195.907L125.671 200.037L125.108 197.93L126.525 195.48L123.928 192.888L121.478 194.305L119.371 193.742L123.501 189.612L123.97 190.081C124.228 190.339 124.655 190.339 124.913 190.081L127.942 187.052C128.2 186.794 128.2 186.367 127.942 186.109L127.473 185.64L128.901 184.213L135.201 190.507ZM130.739 190.334C130.929 190.144 130.929 189.838 130.739 189.649L129.759 188.669C129.57 188.479 129.264 188.479 129.074 188.669L127.805 189.939L126.535 191.208C126.346 191.398 126.346 191.703 126.535 191.893L127.515 192.873C127.705 193.062 128.01 193.062 128.2 192.873L129.469 191.603L130.739 190.334Z" fill="#B2B6ED"/>
<path d="M123.843 201.217C123.211 201.217 122.584 200.974 122.104 200.5L118.912 197.308C117.953 196.349 117.953 194.79 118.912 193.831L128.715 184.028C128.821 183.923 128.984 183.923 129.089 184.028L135.39 190.328C135.495 190.434 135.495 190.597 135.39 190.702L125.581 200.495C125.102 200.974 124.475 201.217 123.843 201.217ZM128.9 184.581L119.286 194.195C118.533 194.948 118.533 196.175 119.286 196.929L122.478 200.121C123.232 200.874 124.459 200.874 125.212 200.121L134.831 190.502L128.9 184.581Z" fill="black"/>
<path d="M125.67 200.3C125.555 200.3 125.449 200.221 125.418 200.105L124.854 197.998C124.838 197.93 124.843 197.861 124.88 197.798L126.192 195.522L123.885 193.215L121.609 194.527C121.551 194.564 121.477 194.569 121.409 194.553L119.302 193.989C119.16 193.952 119.075 193.805 119.117 193.668C119.154 193.526 119.302 193.442 119.439 193.484L121.441 194.021L123.795 192.662C123.901 192.604 124.027 192.62 124.111 192.704L126.708 195.301C126.793 195.385 126.808 195.517 126.75 195.617L125.391 197.972L125.929 199.974C125.965 200.116 125.881 200.258 125.744 200.295C125.713 200.295 125.692 200.3 125.67 200.3Z" fill="black"/>
<path d="M135.2 190.771C135.1 190.771 135 190.713 134.958 190.613C134.9 190.481 134.963 190.323 135.094 190.265L139.098 188.522L140.784 185.624L140.278 185.119L138.171 187.226C137.807 187.589 137.275 187.642 136.98 187.347L132.06 182.427C131.765 182.132 131.818 181.594 132.181 181.236L134.289 179.129L133.783 178.623L130.886 180.309L129.142 184.313C129.084 184.444 128.931 184.508 128.794 184.45C128.663 184.392 128.599 184.239 128.657 184.102L130.433 180.019C130.454 179.967 130.49 179.925 130.543 179.898L133.688 178.07C133.793 178.012 133.92 178.028 134.004 178.113L134.836 178.945C134.884 178.992 134.915 179.061 134.915 179.129C134.915 179.198 134.889 179.266 134.836 179.314L132.54 181.605C132.382 181.763 132.345 181.979 132.418 182.053L137.339 186.973C137.412 187.047 137.628 187.015 137.786 186.852L140.078 184.56C140.125 184.513 140.194 184.481 140.262 184.481C140.331 184.481 140.399 184.508 140.446 184.56L141.279 185.392C141.363 185.477 141.379 185.608 141.321 185.709L139.493 188.853C139.467 188.901 139.419 188.938 139.372 188.964L135.289 190.739C135.274 190.76 135.237 190.771 135.2 190.771Z" fill="black"/>
<path d="M136.712 186.973C136.644 186.973 136.575 186.946 136.528 186.894C136.422 186.788 136.422 186.625 136.528 186.52C137.449 185.598 138.371 184.676 139.293 183.754C139.399 183.649 139.562 183.649 139.667 183.754C139.773 183.86 139.773 184.023 139.667 184.128C138.745 185.05 137.823 185.972 136.902 186.894C136.849 186.946 136.78 186.973 136.712 186.973Z" fill="black"/>
<path d="M135.912 186.172C135.843 186.172 135.775 186.146 135.727 186.093C135.622 185.988 135.622 185.824 135.727 185.719L138.493 182.954C138.598 182.848 138.762 182.848 138.867 182.954C138.972 183.059 138.972 183.222 138.867 183.328L136.096 186.093C136.043 186.146 135.975 186.172 135.912 186.172Z" fill="black"/>
<path d="M135.106 185.366C135.037 185.366 134.969 185.34 134.921 185.287C134.816 185.182 134.816 185.018 134.921 184.913L137.687 182.153C137.792 182.047 137.956 182.047 138.061 182.153C138.166 182.258 138.166 182.421 138.061 182.527L135.295 185.292C135.243 185.34 135.174 185.366 135.106 185.366Z" fill="black"/>
<path d="M134.305 184.566C134.236 184.566 134.168 184.539 134.12 184.486C134.015 184.381 134.015 184.218 134.12 184.112L136.881 181.352C136.986 181.247 137.149 181.247 137.255 181.352C137.36 181.458 137.36 181.621 137.255 181.726L134.489 184.492C134.436 184.539 134.373 184.566 134.305 184.566Z" fill="black"/>
<path d="M133.499 183.759C133.43 183.759 133.362 183.733 133.314 183.68C133.209 183.575 133.209 183.412 133.314 183.306L136.08 180.541C136.185 180.436 136.348 180.436 136.454 180.541C136.559 180.646 136.559 180.81 136.454 180.915L133.688 183.68C133.636 183.733 133.567 183.759 133.499 183.759Z" fill="black"/>
<path d="M132.698 182.959C132.63 182.959 132.561 182.932 132.514 182.88C132.409 182.774 132.409 182.611 132.514 182.506L132.651 182.369C133.525 181.494 134.4 180.62 135.274 179.745C135.38 179.64 135.543 179.64 135.648 179.745C135.754 179.851 135.754 180.014 135.648 180.119C134.774 180.994 133.899 181.868 133.025 182.743L132.888 182.88C132.835 182.932 132.767 182.959 132.698 182.959Z" fill="black"/>
<path d="M121.615 196.892C121.546 196.892 121.478 196.866 121.43 196.813C121.325 196.708 121.325 196.544 121.43 196.439L122.953 194.911C123.058 194.806 123.221 194.806 123.327 194.911C123.432 195.017 123.432 195.18 123.327 195.285L121.804 196.813C121.752 196.871 121.683 196.892 121.615 196.892Z" fill="black"/>
<path d="M122.778 198.056C122.71 198.056 122.641 198.03 122.594 197.977C122.489 197.872 122.489 197.708 122.594 197.603L124.122 196.075C124.227 195.97 124.39 195.97 124.496 196.075C124.601 196.181 124.601 196.344 124.496 196.449L122.973 197.977C122.91 198.03 122.841 198.056 122.778 198.056Z" fill="black"/>
<path d="M127.857 193.273C127.667 193.273 127.472 193.199 127.33 193.057L126.35 192.077C126.061 191.788 126.061 191.313 126.35 191.024L128.889 188.485C129.032 188.342 129.216 188.269 129.416 188.269C129.616 188.269 129.801 188.348 129.943 188.485L130.923 189.464C131.065 189.607 131.139 189.791 131.139 189.991C131.139 190.191 131.06 190.381 130.923 190.518L128.384 193.057C128.241 193.199 128.047 193.273 127.857 193.273ZM129.416 188.79C129.358 188.79 129.3 188.811 129.263 188.853L127.994 190.123L126.724 191.392C126.64 191.477 126.64 191.619 126.724 191.703L127.704 192.683C127.788 192.767 127.931 192.767 128.015 192.683L130.554 190.144C130.596 190.102 130.617 190.049 130.617 189.986C130.617 189.928 130.596 189.87 130.554 189.833L129.574 188.859C129.532 188.817 129.474 188.79 129.416 188.79Z" fill="black"/>
<path d="M129.468 191.867C129.4 191.867 129.332 191.84 129.284 191.787L127.625 190.128C127.519 190.023 127.519 189.86 127.625 189.754C127.73 189.649 127.893 189.649 127.999 189.754L129.658 191.413C129.763 191.519 129.763 191.682 129.658 191.787C129.6 191.84 129.537 191.867 129.468 191.867Z" fill="black"/>
<path d="M124.443 190.534C124.206 190.534 123.969 190.444 123.785 190.265L123.316 189.796C123.21 189.691 123.216 189.528 123.316 189.422C123.421 189.317 123.584 189.322 123.69 189.422L124.159 189.891C124.317 190.049 124.57 190.049 124.728 189.891L127.757 186.862C127.83 186.788 127.872 186.683 127.872 186.578C127.872 186.472 127.83 186.367 127.757 186.293L127.288 185.824C127.182 185.719 127.188 185.556 127.288 185.45C127.393 185.345 127.556 185.35 127.662 185.45L128.131 185.919C128.304 186.093 128.404 186.325 128.404 186.578C128.404 186.825 128.31 187.062 128.131 187.236L125.102 190.265C124.917 190.444 124.68 190.534 124.443 190.534Z" fill="black"/>
<path d="M129.801 196.17C129.733 196.17 129.664 196.144 129.617 196.091L129.148 195.622C128.974 195.449 128.874 195.212 128.874 194.964C128.874 194.716 128.969 194.479 129.148 194.305L132.177 191.277C132.351 191.103 132.583 191.003 132.835 191.003C133.083 191.003 133.32 191.097 133.494 191.277L133.963 191.745C134.068 191.851 134.068 192.014 133.963 192.119C133.857 192.225 133.694 192.225 133.589 192.119L133.12 191.651C133.046 191.577 132.941 191.535 132.835 191.535C132.73 191.535 132.625 191.577 132.551 191.651L129.517 194.679C129.359 194.838 129.359 195.09 129.517 195.248L129.986 195.717C130.091 195.823 130.091 195.986 129.986 196.091C129.938 196.144 129.87 196.17 129.801 196.17Z" fill="black"/>
<path d="M135.474 188.385C135.406 188.385 135.337 188.358 135.29 188.306L131.102 184.118C130.997 184.012 130.997 183.849 131.102 183.744C131.208 183.638 131.371 183.638 131.476 183.744L135.664 187.932C135.769 188.037 135.769 188.2 135.664 188.306C135.606 188.358 135.543 188.385 135.474 188.385Z" fill="black"/>
<path d="M214.217 189.972C213.705 189.562 213.5 189.016 211.487 189.904C210.156 190.484 210.463 190.722 208.723 190.176C206.3 189.426 205.413 190.722 204.833 190.893C204.833 190.893 206.198 190.518 207.324 191.405C208.791 192.565 213.227 191.951 213.876 192.156C214.115 192.224 214.729 190.381 214.217 189.972Z" fill="#ED4C5C"/>
<path d="M213.637 189.972C211.658 189.972 211.726 191.268 208.689 190.927C208.689 190.927 210.327 191.814 212.033 191.337C213.057 191.03 213.773 191.337 213.773 191.337L213.637 189.972Z" fill="#FFD93B"/>
<path d="M221.212 188.709C222.953 189.494 223.396 187.037 223.396 187.037C221.178 187.276 220.564 186.389 220.564 186.389C222.099 187.037 222.714 184.376 222.714 184.376C220.393 185.263 220.769 183.557 218.278 183.557C218.278 182.704 219.335 181.646 219.335 181.646C216.537 180.963 215.48 182.908 215.48 182.908C214.422 182.021 215.241 180.724 215.241 180.724C212.306 180.724 211.112 185.263 211.112 185.263C211.726 184.649 220.393 200.516 220.393 200.516H222.134C222.236 199.253 221.826 197.684 221.826 197.684C222.372 197.138 222.987 198.4 222.987 198.4C222.987 196.421 222.134 194.954 222.134 194.954C222.577 194.51 223.157 195.363 223.157 195.363C223.157 193.725 222.134 192.872 222.134 192.872C222.68 192.326 223.021 192.736 223.021 192.736C223.021 191.507 221.792 191.098 221.792 191.098C222.987 191.166 223.26 190.006 223.26 190.006C221.724 190.176 221.212 188.709 221.212 188.709Z" fill="#64892F"/>
<path d="M210.293 193.862C214.797 195.295 214.115 200.516 214.115 200.516H220.7C220.7 200.516 222.406 190.654 218.96 186.901L214.933 192.736L210.293 193.862Z" fill="#8CC63E"/>
<path d="M210.293 193.862C214.797 195.295 213.773 200.516 213.773 200.516H215.718C215.718 200.516 215.957 194.885 213.842 194.271L210.293 193.862Z" fill="#FFDD7D"/>
<path d="M210.703 194.101C215.036 194.681 220.086 195.739 219.882 188.197L214.934 192.497L210.703 194.101ZM205.004 188.777C204.799 188.846 204.595 188.539 204.697 187.993C204.799 187.447 205.209 186.628 206.71 186.389C208.246 186.15 209.269 186.082 209.406 184.751C209.508 183.42 210.088 183.079 210.532 182.908C210.532 182.908 209.781 183.454 209.781 184.341C209.781 185.229 209.44 186.491 208.246 186.73C207.051 186.935 205.755 187.208 205.413 187.685C205.106 188.163 205.379 188.675 205.004 188.777Z" fill="#64892F"/>
<path d="M214.626 183.488C212.17 183.488 210.122 185.194 209.508 187.481C209.099 186.867 208.382 186.457 207.597 186.457C207.085 186.457 206.642 186.628 206.266 186.901C205.993 186.286 205.379 185.877 204.697 185.877C203.707 185.843 202.922 186.662 202.922 187.617C202.922 188.607 203.707 189.392 204.697 189.392H212.886C213.535 189.392 214.046 189.903 214.046 190.586C214.046 191.234 213.535 191.78 212.886 191.78H204.082C203.434 191.78 202.922 192.326 202.922 192.975C202.922 193.623 203.434 194.169 204.082 194.169H214.626C217.527 194.169 219.916 191.78 219.916 188.88C219.916 185.877 217.561 183.488 214.626 183.488Z" fill="#8CC63E"/>
<path d="M205.174 187.31C204.969 187.617 204.56 187.72 204.219 187.549C203.877 187.378 204.389 187.31 204.56 187.037C204.765 186.73 204.56 186.355 204.901 186.525C205.242 186.662 205.379 187.037 205.174 187.31Z" fill="#3E4347"/>
<path d="M203.809 189.392L204.389 190.552L204.97 189.392H203.809ZM204.389 191.746L204.97 190.552L205.55 191.746H204.389Z" fill="white"/>
<path d="M204.969 191.746V190.927L207.665 191.746H204.969ZM204.389 189.153V189.972L207.085 189.153H204.389Z" fill="white"/>
<path d="M212.579 188.812H203.229C203.059 188.812 202.922 188.914 202.922 189.085C202.922 189.255 203.059 189.392 203.229 189.392H212.613C213.091 189.392 213.5 189.801 213.5 190.279V190.859C213.5 191.337 213.091 191.746 212.613 191.746H203.229C203.059 191.746 202.922 191.883 202.922 192.053C202.922 192.19 203.059 192.326 203.229 192.326H212.613C213.432 192.326 214.081 191.678 214.081 190.859V190.279C214.046 189.46 213.398 188.812 212.579 188.812Z" fill="#FFDD7D"/>
<path d="M203.059 193.862C203.332 193.145 204.935 193.691 205.277 194.442C205.788 195.67 206.403 195.773 206.403 195.773C206.403 195.773 205.072 195.943 204.594 194.988C204.594 194.988 205.242 196.285 206.471 196.592C206.471 196.592 204.696 197.035 203.741 195.704C203.741 195.704 203.673 196.148 203.946 197.069C203.946 197.035 202.478 195.397 203.059 193.862Z" fill="#64892F"/>
<path d="M211.112 187.993C211.96 187.993 212.647 187.305 212.647 186.457C212.647 185.609 211.96 184.922 211.112 184.922C210.264 184.922 209.576 185.609 209.576 186.457C209.576 187.305 210.264 187.993 211.112 187.993Z" fill="#8CC63E"/>
<path d="M211.112 187.651C211.771 187.651 212.306 187.117 212.306 186.457C212.306 185.797 211.771 185.263 211.112 185.263C210.452 185.263 209.917 185.797 209.917 186.457C209.917 187.117 210.452 187.651 211.112 187.651Z" fill="white"/>
<path d="M211.794 186.457C211.794 186.832 211.487 187.14 211.112 187.14C210.736 187.14 210.429 186.832 210.429 186.457C210.429 186.082 210.736 185.775 211.112 185.775C211.487 185.775 211.794 186.082 211.794 186.457Z" fill="#3E4347"/>
<path d="M211.385 183.488C211.385 183.488 209.611 184.444 210.02 185.331C210.464 186.218 213.057 184.58 214.627 185.843C214.627 185.843 214.354 185.092 213.842 184.956C213.842 184.956 214.081 184.785 214.593 184.751C214.593 184.751 214.047 184.068 213.057 184.717C213.057 184.717 213.125 184.273 213.501 184C213.501 184 212.682 184 212.136 184.546C212.136 184.546 211.897 184.444 212.204 183.83C212.204 183.83 211.658 184.034 211.248 184.512C211.214 184.58 211.044 184.239 211.385 183.488ZM206.062 188.47C205.857 188.402 205.857 188.027 206.266 187.651C206.676 187.31 207.495 186.935 208.86 187.685C210.225 188.47 211.146 189.085 212.033 188.095C212.92 187.14 213.569 187.242 214.047 187.378C214.047 187.378 213.125 187.31 212.579 188.027C212.067 188.743 211.01 189.46 209.918 188.88C208.826 188.3 207.597 187.651 207.051 187.822C206.505 188.061 206.437 188.607 206.062 188.47ZM215.923 198.844H213.842L213.739 197.922H215.923V198.844Z" fill="#64892F"/>
<path d="M203.775 191.712C203.4 191.78 203.093 191.678 203.025 191.439C202.991 191.2 203.229 190.961 203.605 190.859C203.98 190.791 204.697 191.03 204.697 191.03C204.697 191.03 204.151 191.61 203.775 191.712Z" fill="#ED4C5C"/>
<path d="M203.81 191.507C203.605 191.576 203.4 191.473 203.366 191.337C203.332 191.2 203.468 191.03 203.707 190.995C203.912 190.961 204.39 191.098 204.39 191.098C204.39 191.098 204.048 191.473 203.81 191.507Z" fill="#FFD93B"/>
<path d="M204.355 190.381C204.117 190.347 203.946 190.176 203.946 190.006C203.98 189.835 204.185 189.767 204.458 189.801C204.731 189.835 205.106 190.211 205.106 190.211C205.106 190.211 204.594 190.449 204.355 190.381Z" fill="#ED4C5C"/>
<path d="M38.9988 216.493L37.6222 214.101H36.8738V216.493H35.893V210.513H37.9578C38.4166 210.513 38.8037 210.594 39.1192 210.754C39.4404 210.915 39.6784 211.13 39.8333 211.399C39.9939 211.669 40.0741 211.97 40.0741 212.303C40.0741 212.693 39.9594 213.048 39.73 213.37C39.5063 213.685 39.1593 213.9 38.689 214.015L40.1688 216.493H38.9988ZM36.8738 213.318H37.9578C38.3248 213.318 38.6001 213.226 38.7837 213.043C38.9729 212.859 39.0676 212.613 39.0676 212.303C39.0676 211.993 38.9758 211.752 38.7923 211.58C38.6087 211.402 38.3306 211.313 37.9578 211.313H36.8738V213.318ZM41.0019 214.101C41.0019 213.625 41.0994 213.203 41.2944 212.836C41.4951 212.469 41.7647 212.185 42.1031 211.984C42.4472 211.778 42.8258 211.675 43.2387 211.675C43.6115 211.675 43.9356 211.749 44.2109 211.898C44.4919 212.042 44.7156 212.223 44.8819 212.44V211.752H45.8713V216.493H44.8819V215.787C44.7156 216.011 44.489 216.197 44.2023 216.346C43.9155 216.495 43.5886 216.57 43.2215 216.57C42.8143 216.57 42.4415 216.467 42.1031 216.26C41.7647 216.048 41.4951 215.756 41.2944 215.383C41.0994 215.004 41.0019 214.577 41.0019 214.101ZM44.8819 214.118C44.8819 213.791 44.8131 213.507 44.6754 213.266C44.5435 213.025 44.3686 212.842 44.1506 212.716C43.9327 212.59 43.6975 212.526 43.4452 212.526C43.1928 212.526 42.9577 212.59 42.7397 212.716C42.5218 212.836 42.344 213.017 42.2063 213.258C42.0744 213.493 42.0085 213.774 42.0085 214.101C42.0085 214.428 42.0744 214.715 42.2063 214.961C42.344 215.208 42.5218 215.397 42.7397 215.529C42.9634 215.655 43.1986 215.718 43.4452 215.718C43.6975 215.718 43.9327 215.655 44.1506 215.529C44.3686 215.403 44.5435 215.219 44.6754 214.978C44.8131 214.732 44.8819 214.445 44.8819 214.118ZM47.6584 211.124C47.4807 211.124 47.3315 211.064 47.2111 210.944C47.0906 210.823 47.0304 210.674 47.0304 210.496C47.0304 210.318 47.0906 210.169 47.2111 210.049C47.3315 209.928 47.4807 209.868 47.6584 209.868C47.8305 209.868 47.9768 209.928 48.0972 210.049C48.2177 210.169 48.2779 210.318 48.2779 210.496C48.2779 210.674 48.2177 210.823 48.0972 210.944C47.9768 211.064 47.8305 211.124 47.6584 211.124ZM48.1402 211.752V216.493H47.1595V211.752H48.1402ZM51.8196 211.675C52.1924 211.675 52.525 211.752 52.8175 211.907C53.1158 212.062 53.3481 212.291 53.5144 212.595C53.6807 212.899 53.7639 213.266 53.7639 213.697V216.493H52.7917V213.843C52.7917 213.418 52.6856 213.094 52.4734 212.871C52.2612 212.641 51.9716 212.526 51.6045 212.526C51.2374 212.526 50.9449 212.641 50.727 212.871C50.5147 213.094 50.4086 213.418 50.4086 213.843V216.493H49.4279V211.752H50.4086V212.294C50.5692 212.099 50.7728 211.947 51.0195 211.838C51.2718 211.729 51.5385 211.675 51.8196 211.675Z" fill="black" fill-opacity="0.63"/>
<path d="M113.734 212.552V215.176C113.734 215.354 113.775 215.483 113.855 215.563C113.941 215.638 114.084 215.675 114.285 215.675H114.887V216.493H114.113C113.671 216.493 113.333 216.389 113.098 216.183C112.863 215.976 112.745 215.641 112.745 215.176V212.552H112.186V211.752H112.745V210.574H113.734V211.752H114.887V212.552H113.734ZM116.772 212.44C116.915 212.2 117.105 212.013 117.34 211.881C117.581 211.744 117.865 211.675 118.191 211.675V212.69H117.942C117.558 212.69 117.265 212.787 117.064 212.982C116.869 213.177 116.772 213.516 116.772 213.998V216.493H115.791V211.752H116.772V212.44ZM119.592 211.124C119.414 211.124 119.265 211.064 119.145 210.944C119.024 210.823 118.964 210.674 118.964 210.496C118.964 210.318 119.024 210.169 119.145 210.049C119.265 209.928 119.414 209.868 119.592 209.868C119.764 209.868 119.91 209.928 120.031 210.049C120.151 210.169 120.211 210.318 120.211 210.496C120.211 210.674 120.151 210.823 120.031 210.944C119.91 211.064 119.764 211.124 119.592 211.124ZM120.074 211.752V216.493H119.093V211.752H120.074ZM127.1 211.675C127.472 211.675 127.805 211.752 128.098 211.907C128.396 212.062 128.628 212.291 128.795 212.595C128.967 212.899 129.053 213.266 129.053 213.697V216.493H128.08V213.843C128.08 213.418 127.974 213.094 127.762 212.871C127.55 212.641 127.26 212.526 126.893 212.526C126.526 212.526 126.234 212.641 126.016 212.871C125.803 213.094 125.697 213.418 125.697 213.843V216.493H124.725V213.843C124.725 213.418 124.619 213.094 124.407 212.871C124.195 212.641 123.905 212.526 123.538 212.526C123.171 212.526 122.878 212.641 122.66 212.871C122.448 213.094 122.342 213.418 122.342 213.843V216.493H121.361V211.752H122.342V212.294C122.503 212.099 122.706 211.947 122.953 211.838C123.2 211.729 123.463 211.675 123.744 211.675C124.123 211.675 124.461 211.755 124.76 211.916C125.058 212.076 125.287 212.309 125.448 212.613C125.591 212.326 125.815 212.099 126.119 211.933C126.423 211.761 126.75 211.675 127.1 211.675ZM136.039 211.675C136.412 211.675 136.744 211.752 137.037 211.907C137.335 212.062 137.567 212.291 137.734 212.595C137.906 212.899 137.992 213.266 137.992 213.697V216.493H137.02V213.843C137.02 213.418 136.914 213.094 136.701 212.871C136.489 212.641 136.2 212.526 135.832 212.526C135.465 212.526 135.173 212.641 134.955 212.871C134.743 213.094 134.637 213.418 134.637 213.843V216.493H133.664V213.843C133.664 213.418 133.558 213.094 133.346 212.871C133.134 212.641 132.844 212.526 132.477 212.526C132.11 212.526 131.818 212.641 131.6 212.871C131.387 213.094 131.281 213.418 131.281 213.843V216.493H130.301V211.752H131.281V212.294C131.442 212.099 131.646 211.947 131.892 211.838C132.139 211.729 132.403 211.675 132.684 211.675C133.062 211.675 133.401 211.755 133.699 211.916C133.997 212.076 134.227 212.309 134.387 212.613C134.531 212.326 134.754 212.099 135.058 211.933C135.362 211.761 135.689 211.675 136.039 211.675ZM143.584 214.006C143.584 214.184 143.573 214.345 143.55 214.488H139.928C139.957 214.867 140.097 215.171 140.35 215.4C140.602 215.629 140.912 215.744 141.279 215.744C141.806 215.744 142.179 215.523 142.397 215.082H143.455C143.312 215.518 143.051 215.876 142.673 216.157C142.3 216.432 141.835 216.57 141.279 216.57C140.826 216.57 140.418 216.47 140.057 216.269C139.702 216.062 139.421 215.776 139.214 215.409C139.013 215.036 138.913 214.606 138.913 214.118C138.913 213.631 139.01 213.203 139.205 212.836C139.406 212.463 139.684 212.177 140.04 211.976C140.401 211.775 140.814 211.675 141.279 211.675C141.726 211.675 142.125 211.772 142.475 211.967C142.825 212.162 143.097 212.438 143.292 212.793C143.487 213.143 143.584 213.547 143.584 214.006ZM142.561 213.697C142.555 213.335 142.426 213.046 142.174 212.828C141.921 212.61 141.609 212.501 141.236 212.501C140.897 212.501 140.608 212.61 140.367 212.828C140.126 213.04 139.983 213.329 139.937 213.697H142.561ZM145.53 212.44C145.674 212.2 145.863 212.013 146.098 211.881C146.339 211.744 146.623 211.675 146.95 211.675V212.69H146.7C146.316 212.69 146.024 212.787 145.823 212.982C145.628 213.177 145.53 213.516 145.53 213.998V216.493H144.55V211.752H145.53V212.44Z" fill="black" fill-opacity="0.63"/>
<path d="M199.975 210.513C200.612 210.513 201.168 210.637 201.644 210.883C202.126 211.124 202.496 211.474 202.754 211.933C203.018 212.386 203.15 212.917 203.15 213.524C203.15 214.132 203.018 214.66 202.754 215.107C202.496 215.555 202.126 215.899 201.644 216.14C201.168 216.375 200.612 216.493 199.975 216.493H198.022V210.513H199.975ZM199.975 215.692C200.675 215.692 201.211 215.503 201.584 215.125C201.957 214.746 202.143 214.213 202.143 213.524C202.143 212.83 201.957 212.288 201.584 211.898C201.211 211.508 200.675 211.313 199.975 211.313H199.003V215.692H199.975ZM205.103 212.44C205.246 212.2 205.435 212.013 205.67 211.881C205.911 211.744 206.195 211.675 206.522 211.675V212.69H206.273C205.888 212.69 205.596 212.787 205.395 212.982C205.2 213.177 205.103 213.516 205.103 213.998V216.493H204.122V211.752H205.103V212.44ZM207.097 214.101C207.097 213.625 207.194 213.203 207.389 212.836C207.59 212.469 207.86 212.185 208.198 211.984C208.542 211.778 208.921 211.675 209.334 211.675C209.706 211.675 210.03 211.749 210.306 211.898C210.587 212.042 210.81 212.223 210.977 212.44V211.752H211.966V216.493H210.977V215.787C210.81 216.011 210.584 216.197 210.297 216.346C210.01 216.495 209.683 216.57 209.316 216.57C208.909 216.57 208.536 216.467 208.198 216.26C207.86 216.048 207.59 215.756 207.389 215.383C207.194 215.004 207.097 214.577 207.097 214.101ZM210.977 214.118C210.977 213.791 210.908 213.507 210.77 213.266C210.638 213.025 210.463 212.842 210.246 212.716C210.028 212.59 209.792 212.526 209.54 212.526C209.288 212.526 209.053 212.59 208.835 212.716C208.617 212.836 208.439 213.017 208.301 213.258C208.169 213.493 208.103 213.774 208.103 214.101C208.103 214.428 208.169 214.715 208.301 214.961C208.439 215.208 208.617 215.397 208.835 215.529C209.058 215.655 209.293 215.718 209.54 215.718C209.792 215.718 210.028 215.655 210.246 215.529C210.463 215.403 210.638 215.219 210.77 214.978C210.908 214.732 210.977 214.445 210.977 214.118ZM215.164 211.675C215.531 211.675 215.855 211.749 216.136 211.898C216.423 212.042 216.647 212.223 216.807 212.44V211.752H217.797V216.57C217.797 217.006 217.705 217.393 217.522 217.731C217.338 218.076 217.071 218.345 216.721 218.54C216.377 218.735 215.964 218.833 215.483 218.833C214.84 218.833 214.307 218.681 213.882 218.377C213.458 218.078 213.217 217.671 213.16 217.155H214.132C214.206 217.402 214.364 217.599 214.605 217.749C214.852 217.903 215.144 217.981 215.483 217.981C215.878 217.981 216.197 217.86 216.438 217.62C216.684 217.379 216.807 217.029 216.807 216.57V215.778C216.641 216.002 216.415 216.191 216.128 216.346C215.847 216.495 215.526 216.57 215.164 216.57C214.751 216.57 214.373 216.467 214.029 216.26C213.69 216.048 213.421 215.756 213.22 215.383C213.025 215.004 212.927 214.577 212.927 214.101C212.927 213.625 213.025 213.203 213.22 212.836C213.421 212.469 213.69 212.185 214.029 211.984C214.373 211.778 214.751 211.675 215.164 211.675ZM216.807 214.118C216.807 213.791 216.739 213.507 216.601 213.266C216.469 213.025 216.294 212.842 216.076 212.716C215.858 212.59 215.623 212.526 215.371 212.526C215.118 212.526 214.883 212.59 214.665 212.716C214.447 212.836 214.27 213.017 214.132 213.258C214 213.493 213.934 213.774 213.934 214.101C213.934 214.428 214 214.715 214.132 214.961C214.27 215.208 214.447 215.397 214.665 215.529C214.889 215.655 215.124 215.718 215.371 215.718C215.623 215.718 215.858 215.655 216.076 215.529C216.294 215.403 216.469 215.219 216.601 214.978C216.739 214.732 216.807 214.445 216.807 214.118ZM221.141 216.57C220.694 216.57 220.289 216.47 219.928 216.269C219.567 216.062 219.283 215.776 219.076 215.409C218.87 215.036 218.767 214.606 218.767 214.118C218.767 213.636 218.873 213.209 219.085 212.836C219.297 212.463 219.587 212.177 219.954 211.976C220.321 211.775 220.731 211.675 221.184 211.675C221.637 211.675 222.047 211.775 222.414 211.976C222.782 212.177 223.071 212.463 223.283 212.836C223.496 213.209 223.602 213.636 223.602 214.118C223.602 214.6 223.493 215.027 223.275 215.4C223.057 215.773 222.759 216.062 222.38 216.269C222.007 216.47 221.594 216.57 221.141 216.57ZM221.141 215.718C221.394 215.718 221.629 215.658 221.847 215.538C222.07 215.417 222.251 215.236 222.389 214.996C222.526 214.755 222.595 214.462 222.595 214.118C222.595 213.774 222.529 213.484 222.397 213.249C222.265 213.008 222.09 212.828 221.872 212.707C221.655 212.587 221.419 212.526 221.167 212.526C220.915 212.526 220.679 212.587 220.462 212.707C220.249 212.828 220.08 213.008 219.954 213.249C219.828 213.484 219.765 213.774 219.765 214.118C219.765 214.629 219.894 215.024 220.152 215.305C220.416 215.581 220.745 215.718 221.141 215.718ZM226.963 211.675C227.336 211.675 227.668 211.752 227.961 211.907C228.259 212.062 228.491 212.291 228.658 212.595C228.824 212.899 228.907 213.266 228.907 213.697V216.493H227.935V213.843C227.935 213.418 227.829 213.094 227.617 212.871C227.405 212.641 227.115 212.526 226.748 212.526C226.381 212.526 226.088 212.641 225.87 212.871C225.658 213.094 225.552 213.418 225.552 213.843V216.493H224.571V211.752H225.552V212.294C225.713 212.099 225.916 211.947 226.163 211.838C226.415 211.729 226.682 211.675 226.963 211.675Z" fill="black" fill-opacity="0.63"/>
<path d="M161.318 31.6068C160.129 30.4179 158.876 29.7432 158.517 30.0966C158.517 30.0966 158.11 30.5358 158.003 31.2748C157.896 31.9977 157.639 33.3473 156.943 34.006C155.438 35.3287 153.971 36.4908 152.584 37.4869C152.75 36.7586 152.889 36.0195 152.964 35.2537C153.912 25.5768 146.838 16.9708 137.161 16.023C127.489 15.0751 118.878 22.1494 117.93 31.8264C117.887 32.2173 117.887 32.6029 117.876 32.9885C117.373 32.394 116.982 31.8585 116.762 31.4247C115.193 28.3294 116.805 21.1962 116.805 21.1962L116.794 21.2015C116.891 20.6285 116.827 20.1465 116.559 19.8038C115.209 18.074 109.42 20.35 103.631 24.8752C97.8315 29.4004 94.2327 34.4719 95.5823 36.2016C95.8661 36.5658 96.3588 36.7425 97.0014 36.7693L96.9853 36.78C96.9853 36.78 100.905 36.6086 105.688 38.8418C108.055 39.945 115.584 45.9268 120.2 47.935C130.627 52.4763 136.427 51.1268 136.427 51.1268L136.405 51.1053C139.726 50.9233 142.843 49.8201 145.456 48.01L145.461 48.0154C145.461 48.0154 152.016 44.3363 159.476 35.9767C160.145 35.468 161.125 35.1841 161.704 35.0395C162.437 34.8575 162.834 34.413 162.834 34.413C163.187 34.0488 162.507 32.7957 161.318 31.6068ZM107.053 29.4647C103.562 32.1691 100.375 33.8292 99.9254 33.1759C99.4809 32.5226 101.95 29.7967 105.447 27.0923C108.933 24.3879 112.119 22.7278 112.564 23.3811C113.014 24.0345 110.54 26.7603 107.053 29.4647ZM134.344 44.7379C128.158 44.1328 123.639 38.6276 124.244 32.4422C124.849 26.2569 130.349 21.737 136.539 22.3422C142.725 22.9473 147.245 28.4525 146.634 34.6379C146.029 40.8232 140.529 45.3431 134.344 44.7379Z" fill="#FCC21B"/>
<path d="M144.761 46.9282C144.739 46.4998 144.654 46.0553 144.525 45.6698C144.359 45.161 144.113 44.5023 143.775 44.0846C143.363 43.5758 142.854 43.0189 142.201 42.7726C141.815 42.628 141.398 42.6494 141.028 42.8315C140.841 42.9225 140.664 43.0189 140.487 43.1206C138.677 44.1328 136.519 44.2453 134.495 44.0792C133.895 44.031 133.311 43.8704 132.711 43.8543C132.54 43.849 132.363 43.849 132.192 43.8972C132.101 43.9239 131.801 44.0418 131.887 44.181C131.924 44.2399 132.031 44.2667 132.085 44.3095C132.535 44.6951 132.695 45.6001 132.781 46.1464C133.033 47.7583 132.556 49.8415 131.164 50.8322C131.067 50.9019 130.96 50.9447 130.848 50.9875C130.687 51.0518 130.382 50.9608 130.5 51.2125C130.575 51.3785 130.725 51.5177 130.869 51.6195C131.656 52.1711 132.861 52.2085 133.788 52.2567C135.823 52.3638 137.906 52.1389 139.861 51.5659C140.434 51.3999 140.996 51.2018 141.542 50.9715C143.036 50.3396 144.595 49.1132 144.755 47.3727C144.761 47.2335 144.766 47.0782 144.761 46.9282ZM132.213 55.1861C132.197 54.4256 131.822 53.7509 130.848 53.3921C129.659 52.9529 128.529 54.0454 127.715 54.7577C127.158 55.2396 126.446 55.7055 126.135 56.3964C125.98 56.7337 126.007 57.039 126.301 57.28C126.371 57.3335 126.558 57.3817 126.596 57.4567C126.644 57.5585 126.531 57.6495 126.531 57.7566C126.537 58.0351 126.746 58.2654 126.981 58.3778C127.147 58.4581 127.302 58.4528 127.426 58.5867C127.527 58.6991 127.56 58.9133 127.688 59.0097C127.817 59.1061 128.02 59.1383 128.17 59.1704C128.341 59.2132 128.39 59.2132 128.545 59.3203C129.048 59.6524 130.141 59.888 130.596 59.3525C130.816 59.0954 130.96 58.6884 131.105 58.3778C131.56 57.4139 132.229 56.2786 132.213 55.1861Z" fill="#ED6C30"/>
<path d="M132.785 50.2271C132.769 50.377 132.759 50.5163 132.742 50.6287C132.689 51.0304 132.566 51.4427 132.378 51.8069C131.971 52.5941 131.409 53.3064 130.681 53.8151C130.456 53.9704 129.77 54.1364 129.776 54.4095C129.776 54.7791 130.317 55.1218 130.627 55.1218C131.87 55.1272 132.705 54.1793 133.257 53.1832C133.744 52.2996 134.52 50.6876 133.926 49.6969C133.739 49.381 133.251 49.4773 132.994 49.6755C132.86 49.7772 132.812 50.0022 132.785 50.2271ZM144.246 55.2771C143.956 54.5702 144.047 53.8044 144.803 53.0975C145.734 52.23 147.202 52.7976 148.225 53.1404C148.921 53.376 149.762 53.5259 150.313 54.04C150.586 54.2917 150.677 54.5863 150.495 54.9183C150.452 54.9933 150.297 55.1111 150.297 55.1914C150.292 55.3039 150.431 55.3467 150.468 55.4431C150.576 55.6948 150.474 55.9947 150.297 56.1875C150.174 56.3267 150.029 56.3856 149.97 56.5517C149.917 56.6962 149.97 56.9051 149.89 57.0443C149.81 57.1836 149.633 57.2907 149.504 57.3817C149.36 57.4835 149.322 57.5049 149.215 57.6656C148.878 58.169 147.962 58.8062 147.341 58.4903C147.036 58.3403 146.747 58.019 146.489 57.7887C145.708 57.0765 144.653 56.2893 144.246 55.2771Z" fill="#ED6C30"/>
<path d="M143.121 49.3649C143.127 49.5148 143.116 49.6594 143.127 49.7665C143.148 50.1735 143.239 50.5966 143.394 50.9715C143.737 51.7855 144.235 52.5459 144.926 53.1082C145.135 53.2796 145.804 53.5045 145.778 53.7723C145.745 54.1418 145.178 54.4363 144.867 54.4149C143.63 54.3185 142.88 53.3117 142.404 52.2728C141.986 51.3517 141.333 49.6808 142.007 48.7437C142.227 48.4438 142.698 48.5777 142.945 48.7972C143.078 48.9097 143.111 49.14 143.121 49.3649Z" fill="#ED6C30"/>
</svg>
