<svg width="42" height="42" viewBox="0 0 42 42" fill="none" xmlns="http://www.w3.org/2000/svg">
<path opacity="0.15" d="M3.75391 38.6837C3.75391 39.0991 5.18189 39.4975 7.72371 39.7912C10.2655 40.085 13.713 40.25 17.3077 40.25C20.9023 40.25 24.3498 40.085 26.8916 39.7912C29.4334 39.4975 30.8614 39.0991 30.8614 38.6837C30.8614 38.2683 29.4334 37.87 26.8916 37.5762C24.3498 37.2825 20.9023 37.1175 17.3077 37.1175C13.713 37.1175 10.2655 37.2825 7.72371 37.5762C5.18189 37.87 3.75391 38.2683 3.75391 38.6837Z" fill="#45413C"/>
<path d="M36.0408 17.2025L13.9033 20.5275V13.125L36.0408 14.14V17.2025Z" fill="#FF6242"/>
<path d="M13.9033 13.125V14.9975L36.0408 16.0125V14.14L13.9033 13.125Z" fill="#FF866E"/>
<path d="M36.0408 17.2025L13.9033 20.5275V13.125L36.0408 14.14V17.2025Z" stroke="#45413C" stroke-width="0.875" stroke-linecap="round" stroke-linejoin="round"/>
<path d="M14.9446 11.0862H21.3496C21.6257 11.0862 21.8906 11.1959 22.0858 11.3912C22.2811 11.5865 22.3908 11.8513 22.3908 12.1275V15.8025H13.9033V12.1275C13.9033 11.8513 14.013 11.5865 14.2083 11.3912C14.4036 11.1959 14.6684 11.0862 14.9446 11.0862Z" fill="#FF866E" stroke="#45413C" stroke-width="0.875" stroke-linecap="round" stroke-linejoin="round"/>
<path d="M27.6242 20.7987C27.6242 27.3175 21.0529 33.3287 15.0942 33.3287C13.7707 33.3729 12.4521 33.1473 11.2185 32.6659C9.98498 32.1844 8.86222 31.4571 7.91854 30.5282C6.97486 29.5992 6.22998 28.488 5.72918 27.2622C5.22838 26.0364 4.98214 24.7215 5.00542 23.3975C5.00542 17.9112 9.84417 13.4662 15.8029 13.4662C22.7504 13.4662 27.6242 16.2137 27.6242 20.7987Z" fill="#FF6242"/>
<path d="M15.8024 15.8112C22.1899 15.8112 26.8449 18.1475 27.5361 22.1025C27.5923 21.6702 27.6216 21.2347 27.6236 20.7987C27.6236 16.2137 22.7324 13.4662 15.8024 13.4662C9.84363 13.4662 5.00488 17.9112 5.00488 23.3975C5.00647 23.8039 5.02984 24.2099 5.07488 24.6137C5.68738 19.6612 10.2549 15.8112 15.8024 15.8112Z" fill="#FF866E"/>
<path d="M27.6242 20.7987C27.6242 27.3175 21.0529 33.3287 15.0942 33.3287C13.7707 33.3729 12.4521 33.1473 11.2185 32.6659C9.98498 32.1844 8.86222 31.4571 7.91854 30.5282C6.97486 29.5992 6.22998 28.488 5.72918 27.2622C5.22838 26.0364 4.98214 24.7215 5.00542 23.3975C5.00542 17.9112 9.84417 13.4662 15.8029 13.4662C22.7504 13.4662 27.6242 16.2137 27.6242 20.7987Z" stroke="#45413C" stroke-width="0.875" stroke-linecap="round" stroke-linejoin="round"/>
<path d="M40.2498 15.8112C40.2481 16.6433 39.9998 17.4561 39.5363 18.1471C39.0728 18.8381 38.4149 19.3762 37.6457 19.6934C36.8765 20.0106 36.0305 20.0927 35.2147 19.9293C34.3988 19.7659 33.6497 19.3644 33.062 18.7754C32.4743 18.1865 32.0743 17.4366 31.9126 16.6204C31.7509 15.8042 31.8348 14.9584 32.1536 14.1899C32.4724 13.4213 33.0118 12.7645 33.7038 12.3024C34.3957 11.8404 35.2091 11.5938 36.0411 11.5937C36.5945 11.5937 37.1425 11.7029 37.6537 11.915C38.1649 12.127 38.6293 12.4378 39.0202 12.8296C39.4112 13.2213 39.721 13.6863 39.932 14.1979C40.143 14.7096 40.251 15.2578 40.2498 15.8112ZM17.0273 8.37375H18.9961V11.0862H17.0273V8.37375Z" fill="#DAEDF7" stroke="#45413C" stroke-width="0.875" stroke-linecap="round" stroke-linejoin="round"/>
<path d="M2.36279 8.37375H33.6615" stroke="#45413C" stroke-width="0.875" stroke-linecap="round" stroke-linejoin="round"/>
<path d="M16.9578 6.8775H19.0665C19.2824 6.8775 19.4893 6.96324 19.642 7.11584C19.7946 7.26845 19.8803 7.47543 19.8803 7.69125V8.37375H16.144V7.69125C16.144 7.47543 16.2298 7.26845 16.3824 7.11584C16.535 6.96324 16.742 6.8775 16.9578 6.8775Z" fill="#DAEDF7" stroke="#45413C" stroke-width="0.875" stroke-linecap="round" stroke-linejoin="round"/>
<path d="M10.6925 32.41L7.455 38.0625M21.0263 31.5L22.3913 38.0625M27.265 38.0625H4.655C1.8025 38.0625 1.75 36.0237 1.75 36.0237" stroke="#45413C" stroke-width="0.875" stroke-linecap="round" stroke-linejoin="round"/>
<path d="M13.8249 13.6325C8.80238 14.5075 5.00488 18.5325 5.00488 23.3975C5.00458 24.4202 5.15494 25.4374 5.45113 26.4163H16.1436C16.5822 24.3618 16.6415 22.2445 16.3186 20.1688C15.8374 17.7625 15.0149 14 13.8249 13.6325Z" fill="#00B8F0"/>
<path d="M12.5301 26.4163L16.1701 19.4163C15.6714 17.08 14.8751 14 13.8251 13.6325C13.5539 13.6763 13.2914 13.7375 13.0289 13.7988L6.37012 26.4163H12.5301Z" fill="#4ACFFF"/>
<path d="M13.8249 13.6325C8.80238 14.5075 5.00488 18.5325 5.00488 23.3975C5.00458 24.4202 5.15494 25.4374 5.45113 26.4163H16.1436C16.5822 24.3618 16.6415 22.2445 16.3186 20.1688C15.8374 17.7625 15.0149 14 13.8249 13.6325Z" stroke="#45413C" stroke-width="0.875" stroke-linecap="round" stroke-linejoin="round"/>
<path d="M17.876 16.38C18.4882 17.9008 18.8658 19.5057 18.996 21.14C19.0839 22.8969 18.9724 24.6582 18.6635 26.39H21.7085C21.7085 26.39 22.7672 24.955 22.391 21.3762C22.2877 20.1645 21.7903 19.02 20.975 18.1177C20.1596 17.2154 19.0711 16.605 17.876 16.38Z" fill="#00B8F0"/>
<path d="M22.3916 21.4025C22.3066 20.4272 21.9787 19.4886 21.4378 18.6725L18.9616 24.08C18.9028 24.8634 18.8035 25.6432 18.6641 26.4163H21.7091C21.7091 26.4163 22.7503 24.9813 22.3916 21.4025Z" fill="#4ACFFF"/>
<path d="M17.876 16.38C18.4882 17.9008 18.8658 19.5057 18.996 21.14C19.0839 22.8969 18.9724 24.6582 18.6635 26.39H21.7085C21.7085 26.39 22.7672 24.955 22.391 21.3762C22.2877 20.1645 21.7903 19.02 20.975 18.1177C20.1596 17.2154 19.0711 16.605 17.876 16.38Z" stroke="#45413C" stroke-width="0.875" stroke-linecap="round" stroke-linejoin="round"/>
<path d="M33.0664 18.7862L36.0414 15.8112L33.0664 12.8275C32.2772 13.6182 31.834 14.6897 31.834 15.8069C31.834 16.924 32.2772 17.9955 33.0664 18.7862ZM39.0164 12.8275L36.0414 15.8112L39.0164 18.7862C39.8056 17.9955 40.2488 16.924 40.2488 15.8069C40.2488 14.6897 39.8056 13.6182 39.0164 12.8275Z" fill="white"/>
<path d="M36.0414 15.8112L33.0664 18.7862C32.2772 17.9955 31.834 16.924 31.834 15.8069C31.834 14.6897 32.2772 13.6182 33.0664 12.8275L36.0414 15.8112ZM36.0414 15.8112L39.0164 12.8275C39.8056 13.6182 40.2488 14.6897 40.2488 15.8069C40.2488 16.924 39.8056 17.9955 39.0164 18.7862L36.0414 15.8112Z" stroke="#45413C" stroke-width="0.875" stroke-linecap="round" stroke-linejoin="round"/>
</svg>
