<svg width="49" height="49" viewBox="0 0 49 49" fill="none" xmlns="http://www.w3.org/2000/svg">
<path d="M47.5219 22.5936C46.6721 21.7437 45.7763 21.2614 45.5198 21.5141C45.5198 21.5141 45.2289 21.828 45.1523 22.3562C45.0758 22.873 44.892 23.8377 44.3944 24.3086C43.3187 25.2541 42.2698 26.0848 41.2783 26.7969C41.3969 26.2762 41.4965 25.748 41.5501 25.2005C42.2276 18.2831 37.1707 12.1313 30.2533 11.4537C23.3397 10.7762 17.1841 15.8331 16.5065 22.7505C16.4759 23.03 16.4759 23.3056 16.4682 23.5812C16.1084 23.1563 15.8289 22.7735 15.6719 22.4634C14.5503 20.2508 15.7026 15.1517 15.7026 15.1517L15.6949 15.1555C15.7638 14.7459 15.7179 14.4014 15.5265 14.1564C14.5618 12.9199 10.4236 14.5469 6.28538 17.7816C2.13952 21.0164 -0.432978 24.6416 0.53171 25.8781C0.734601 26.1384 1.08679 26.2648 1.54616 26.2839L1.53468 26.2916C1.53468 26.2916 4.33687 26.1691 7.75538 27.7654C9.44741 28.554 14.8298 32.83 18.1296 34.2655C25.583 37.5118 29.7288 36.5471 29.7288 36.5471L29.7135 36.5318C32.0869 36.4016 34.3149 35.613 36.183 34.3191L36.1869 34.323C36.1869 34.323 40.8725 31.693 46.2051 25.7173C46.6836 25.3537 47.3841 25.1508 47.7976 25.0474C48.322 24.9173 48.6053 24.5995 48.6053 24.5995C48.858 24.3392 48.3718 23.4434 47.5219 22.5936ZM8.73155 21.0623C6.23562 22.9955 3.95788 24.1823 3.63632 23.7152C3.31858 23.2482 5.08335 21.2997 7.58312 19.3665C10.0752 17.4333 12.353 16.2466 12.6707 16.7136C12.9923 17.1806 11.2237 19.1291 8.73155 21.0623ZM28.2397 31.9802C23.8182 31.5476 20.5873 27.6123 21.0198 23.1908C21.4524 18.7693 25.3839 15.5384 29.8092 15.9709C34.2307 16.4035 37.4616 20.3388 37.0252 24.7603C36.5926 29.1818 32.6612 32.4127 28.2397 31.9802Z" fill="#FCC21B"/>
<path d="M35.6858 33.5459C35.6705 33.2396 35.6092 32.9219 35.5173 32.6463C35.3987 32.2826 35.2226 31.8117 34.9814 31.5131C34.6866 31.1495 34.323 30.7513 33.8559 30.5752C33.5803 30.4719 33.2817 30.4872 33.0176 30.6173C32.8836 30.6824 32.7573 30.7513 32.6309 30.8241C31.337 31.5476 29.7943 31.628 28.3473 31.5093C27.9185 31.4748 27.5012 31.36 27.0725 31.3485C26.95 31.3447 26.8237 31.3447 26.7012 31.3791C26.6361 31.3983 26.4217 31.4825 26.483 31.582C26.5098 31.6241 26.5863 31.6433 26.6246 31.6739C26.9462 31.9495 27.061 32.5965 27.1223 32.987C27.3022 34.1392 26.9615 35.6284 25.9662 36.3366C25.8973 36.3863 25.8207 36.417 25.7403 36.4476C25.6255 36.4935 25.4073 36.4284 25.4915 36.6084C25.5451 36.727 25.6523 36.8266 25.7556 36.8993C26.3183 37.2936 27.1797 37.3204 27.8419 37.3548C29.2966 37.4314 30.7858 37.2706 32.183 36.861C32.5926 36.7423 32.9946 36.6007 33.3851 36.4361C34.4531 35.9844 35.5671 35.1077 35.6819 33.8636C35.6858 33.7641 35.6896 33.653 35.6858 33.5459ZM26.7165 39.4488C26.705 38.9052 26.437 38.4229 25.7403 38.1664C24.8905 37.8525 24.0827 38.6334 23.5008 39.1426C23.1027 39.4871 22.5936 39.8202 22.3716 40.314C22.2605 40.5552 22.2797 40.7734 22.4902 40.9456C22.54 40.9839 22.674 41.0184 22.7008 41.072C22.7352 41.1447 22.6548 41.2098 22.6548 41.2863C22.6587 41.4854 22.808 41.65 22.9764 41.7304C23.0951 41.7878 23.2061 41.784 23.2941 41.8797C23.3669 41.9601 23.3898 42.1132 23.4817 42.1821C23.5736 42.251 23.7191 42.274 23.8262 42.297C23.9487 42.3276 23.9832 42.3276 24.0942 42.4041C24.4541 42.6415 25.235 42.8099 25.5604 42.4271C25.7173 42.2434 25.8207 41.9524 25.9241 41.7304C26.2494 41.0413 26.728 40.2298 26.7165 39.4488Z" fill="#ED6C30"/>
<path d="M27.1256 35.904C27.1141 36.0112 27.1064 36.1107 27.0949 36.1911C27.0566 36.4782 26.9686 36.773 26.8346 37.0333C26.5437 37.596 26.1417 38.1051 25.6211 38.4688C25.4603 38.5798 24.9703 38.6985 24.9741 38.8937C24.9741 39.1579 25.3608 39.4029 25.5828 39.4029C26.4709 39.4067 27.0681 38.7291 27.4624 38.0171C27.8108 37.3855 28.3659 36.2332 27.9409 35.525C27.807 35.2991 27.4586 35.368 27.2748 35.5097C27.1791 35.5824 27.1447 35.7432 27.1256 35.904ZM35.3177 39.5139C35.111 39.0086 35.1761 38.4612 35.7159 37.9558C36.382 37.3357 37.4309 37.7415 38.162 37.9865C38.6597 38.1549 39.2607 38.2621 39.655 38.6296C39.8502 38.8095 39.9153 39.0201 39.7852 39.2574C39.7545 39.311 39.6435 39.3952 39.6435 39.4526C39.6397 39.533 39.7392 39.5637 39.766 39.6326C39.8426 39.8125 39.7698 40.0269 39.6435 40.1647C39.5555 40.2642 39.4521 40.3063 39.41 40.425C39.3717 40.5283 39.41 40.6776 39.3526 40.7772C39.2952 40.8767 39.1688 40.9533 39.077 41.0183C38.9736 41.0911 38.9468 41.1064 38.8702 41.2212C38.6291 41.5811 37.9745 42.0366 37.5304 41.8108C37.3122 41.7036 37.1055 41.4739 36.9217 41.3093C36.3628 40.8001 35.6087 40.2374 35.3177 39.5139Z" fill="#ED6C30"/>
<path d="M34.5142 35.2876C34.518 35.3948 34.5104 35.4982 34.518 35.5748C34.5333 35.8657 34.5984 36.1681 34.7094 36.4361C34.9544 37.018 35.3104 37.5616 35.8043 37.9635C35.9536 38.086 36.4321 38.2468 36.4129 38.4382C36.39 38.7023 35.9842 38.9129 35.7622 38.8976C34.8779 38.8287 34.3419 38.109 34.0012 37.3663C33.7026 36.7079 33.2356 35.5135 33.7179 34.8436C33.8749 34.6292 34.2118 34.7249 34.3879 34.8819C34.4836 34.9623 34.5065 35.1269 34.5142 35.2876Z" fill="#ED6C30"/>
</svg>
