<svg width="164" height="164" viewBox="0 0 164 164" fill="none" xmlns="http://www.w3.org/2000/svg">
<rect width="164" height="164" rx="22" fill="url(#paint0_linear_124_9737)"/>
<path d="M72.5237 86.2146C72.5237 83.7012 73.5222 81.2907 75.2994 79.5134C77.0767 77.7362 79.4871 76.7378 82.0005 76.7378C84.5139 76.7378 86.9244 77.7362 88.7016 79.5134C90.4789 81.2907 91.4773 83.7012 91.4773 86.2146V107.063C91.4773 109.577 90.4789 111.987 88.7016 113.765C86.9244 115.542 84.5139 116.54 82.0005 116.54C79.4871 116.54 77.0767 115.542 75.2994 113.765C73.5222 111.987 72.5237 109.577 72.5237 107.063V86.2146Z" fill="white"/>
<path d="M66.8376 101.377C67.3403 101.377 67.8224 101.577 68.1779 101.933C68.5333 102.288 68.733 102.77 68.733 103.273V107.063C68.733 110.582 70.1308 113.957 72.619 116.445C75.1071 118.933 78.4818 120.331 82.0005 120.331C85.5193 120.331 88.8939 118.933 91.3821 116.445C93.8702 113.957 95.268 110.582 95.268 107.063V103.273C95.268 102.77 95.4677 102.288 95.8232 101.933C96.1786 101.577 96.6607 101.377 97.1634 101.377C97.6661 101.377 98.1482 101.577 98.5036 101.933C98.859 102.288 99.0587 102.77 99.0587 103.273V107.063C99.0592 111.26 97.513 115.309 94.7156 118.437C91.9183 121.565 88.0662 123.552 83.8959 124.018V129.808H91.4773C91.98 129.808 92.4621 130.007 92.8175 130.363C93.173 130.718 93.3727 131.2 93.3727 131.703C93.3727 132.206 93.173 132.688 92.8175 133.043C92.4621 133.399 91.98 133.598 91.4773 133.598H72.5237C72.021 133.598 71.539 133.399 71.1835 133.043C70.8281 132.688 70.6284 132.206 70.6284 131.703C70.6284 131.2 70.8281 130.718 71.1835 130.363C71.539 130.007 72.021 129.808 72.5237 129.808H80.1052V124.018C75.9349 123.552 72.0827 121.565 69.2854 118.437C66.4881 115.309 64.9418 111.26 64.9423 107.063V103.273C64.9423 102.77 65.142 102.288 65.4974 101.933C65.8529 101.577 66.335 101.377 66.8376 101.377Z" fill="white"/>
<path d="M89.2691 91.5287C89.3091 91.5495 89.3416 91.5823 89.3621 91.6225C89.3826 91.6628 89.39 91.7084 89.3833 91.753C89.3766 91.7976 89.3561 91.839 89.3247 91.8714C89.2933 91.9038 89.2526 91.9256 89.2082 91.9338C88.2123 92.0827 87.1575 92.2519 86.1568 92.804C87.6429 93.0505 88.836 93.8124 89.4838 94.5888C89.6298 94.7638 89.447 95.0007 89.2836 94.9417C87.5201 94.3016 85.7062 93.9545 83.4274 94.1895C83.2475 94.2078 83.0928 94.1034 83.1305 93.939C83.7397 91.2783 87.1643 90.2737 89.2691 91.5287Z" fill="#C66CDC"/>
<path d="M74.7314 91.5287C74.6913 91.5496 74.6588 91.5825 74.6384 91.6228C74.618 91.663 74.6107 91.7087 74.6175 91.7533C74.6244 91.798 74.645 91.8394 74.6765 91.8717C74.708 91.9041 74.7488 91.9258 74.7933 91.9338C75.7881 92.0827 76.843 92.2519 77.8437 92.804C76.3576 93.0505 75.1645 93.8124 74.5177 94.5888C74.3707 94.7638 74.5544 95.0007 74.7178 94.9417C76.4814 94.3016 78.2952 93.9545 80.5741 94.1895C80.7539 94.2078 80.9077 94.1034 80.8699 93.939C80.2608 91.2783 76.8372 90.2737 74.7314 91.5287Z" fill="#C66CDC"/>
<path d="M88.6397 101.296C88.6397 100.982 88.4538 100.59 87.9247 100.489C85.0509 101.296 83.9872 101.657 82.0004 101.669C80.0135 101.657 78.7704 101.22 76.076 100.489C75.549 100.591 75.361 100.982 75.361 101.296C75.361 104.134 77.552 106.992 82.0004 106.992C86.4518 106.996 88.6397 104.136 88.6397 101.296Z" fill="#C66CDC"/>
<path d="M64.8175 83.8888H64.8249L66.9171 78.0271L66.9266 78.0081H66.9177L60.9684 76.7455L59.3144 81.3767C59.102 81.2159 58.8591 81.1 58.6005 81.0361C57.7371 80.8201 56.8995 81.1945 56.729 81.8705C56.5584 82.5464 57.1203 83.2725 57.9831 83.4885C58.846 83.7045 59.6841 83.3301 59.8541 82.6541C59.8573 82.6425 59.8583 82.6309 59.861 82.6198H59.8678L61.3021 78.6022L65.4211 79.4244L64.2715 82.6441C64.059 82.4831 63.8158 82.3672 63.557 82.3035C62.6941 82.0875 61.856 82.4619 61.686 83.1384C61.516 83.8149 62.0768 84.5399 62.9397 84.7559C63.8025 84.9719 64.6411 84.5975 64.8112 83.9215C64.8143 83.9115 64.8149 83.9004 64.8175 83.8888Z" fill="white"/>
<path d="M104.661 84.0237L104.668 84.0267L107.111 78.4771L107.122 78.4593H107.12H107.113L101.421 76.8163L99.4902 81.2012C99.2951 81.0302 99.0671 80.9007 98.8202 80.8208C97.9968 80.5501 97.1564 80.8546 96.9434 81.5002C96.7303 82.1459 97.2255 82.8908 98.0489 83.1605C98.8723 83.4302 99.7127 83.1267 99.9252 82.4806C99.9292 82.4697 99.9307 82.4582 99.9342 82.4473L99.9406 82.4503L101.615 78.6465L105.559 79.7337L104.218 82.7801C104.023 82.609 103.795 82.4795 103.548 82.3996C102.724 82.129 101.884 82.4334 101.671 83.0796C101.458 83.7257 101.953 84.4702 102.776 84.7393C103.6 85.0085 104.44 84.7056 104.653 84.0594C104.657 84.046 104.658 84.0346 104.661 84.0237Z" fill="white"/>
<circle cx="82.0005" cy="41.8251" r="13.6376" fill="white"/>
<circle cx="44.8556" cy="54.386" r="13.6376" fill="white"/>
<circle cx="119.145" cy="54.386" r="13.6376" fill="white"/>
<circle cx="31.577" cy="121.856" r="13.6376" fill="white"/>
<circle cx="27.0907" cy="86.8651" r="13.6376" fill="white"/>
<circle cx="136.909" cy="86.8651" r="13.6376" fill="white"/>
<circle cx="132.423" cy="121.856" r="13.6376" fill="white"/>
<path d="M39.2988 119.87C35.7509 114.642 27.2235 114.642 23.6755 119.87C22.4307 121.706 22.1194 123.76 22.1506 124.196C22.2439 125.441 25.0449 130.607 31.4872 130.576C37.8983 130.545 40.6993 125.472 40.8238 124.196C40.8549 123.76 40.5437 121.706 39.2988 119.87Z" fill="#83BF4F"/>
<path d="M22.1503 124.196C22.2437 125.441 24.2044 130.918 31.4869 130.887C38.7383 130.856 40.699 125.472 40.8235 124.196C40.8235 124.196 37.0578 127.308 31.518 127.308C25.9161 127.308 22.1503 124.196 22.1503 124.196Z" fill="#FFDF99"/>
<path d="M29.713 122.484C29.2773 122.484 28.3747 123.729 28.3747 123.729C28.3747 123.729 29.2773 123.325 29.713 123.325C30.1487 123.325 31.0512 123.729 31.0512 123.729C31.0512 123.729 30.1487 122.484 29.713 122.484ZM33.2609 122.484C32.8252 122.484 31.9226 123.729 31.9226 123.729C31.9226 123.729 32.8252 123.325 33.2609 123.325C33.6966 123.325 34.5991 123.729 34.5991 123.729C34.5991 123.729 33.6966 122.484 33.2609 122.484Z" fill="#3E4347"/>
<path d="M37.0889 121.551C39.1515 121.551 40.8235 119.879 40.8235 117.816C40.8235 115.753 39.1515 114.081 37.0889 114.081C35.0263 114.081 33.3542 115.753 33.3542 117.816C33.3542 119.879 35.0263 121.551 37.0889 121.551Z" fill="#83BF4F"/>
<path d="M37.0889 120.306C38.4639 120.306 39.5786 119.191 39.5786 117.816C39.5786 116.441 38.4639 115.326 37.0889 115.326C35.7138 115.326 34.5991 116.441 34.5991 117.816C34.5991 119.191 35.7138 120.306 37.0889 120.306Z" fill="#FFE655"/>
<path d="M38.3338 117.878C38.3338 118.563 37.7736 119.123 37.0889 119.123C36.4042 119.123 35.844 118.563 35.844 117.878C35.844 117.194 36.4042 116.633 37.0889 116.633C37.7736 116.633 38.3338 117.194 38.3338 117.878Z" fill="#3E4347"/>
<path d="M29.6196 117.816C29.6196 119.87 27.939 121.551 25.885 121.551C23.8309 121.551 22.1503 119.87 22.1503 117.816C22.1503 115.762 23.8309 114.081 25.885 114.081C27.939 114.081 29.6196 115.762 29.6196 117.816Z" fill="#83BF4F"/>
<path d="M25.885 120.306C27.26 120.306 28.3747 119.191 28.3747 117.816C28.3747 116.441 27.26 115.326 25.885 115.326C24.5099 115.326 23.3952 116.441 23.3952 117.816C23.3952 119.191 24.5099 120.306 25.885 120.306Z" fill="#FFE655"/>
<path d="M27.1298 117.878C27.1298 118.563 26.5696 119.123 25.885 119.123C25.2003 119.123 24.6401 118.563 24.6401 117.878C24.6401 117.194 25.2003 116.633 25.885 116.633C26.5696 116.633 27.1298 117.194 27.1298 117.878Z" fill="#3E4347"/>
<path d="M25.8853 117.816C27.5526 117.816 28.9042 117.064 28.9042 116.135C28.9042 115.207 27.5526 114.455 25.8853 114.455C24.2181 114.455 22.8665 115.207 22.8665 116.135C22.8665 117.064 24.2181 117.816 25.8853 117.816Z" fill="#83BF4F"/>
<path d="M37.0893 117.816C38.7565 117.816 40.1081 117.064 40.1081 116.135C40.1081 115.207 38.7565 114.455 37.0893 114.455C35.422 114.455 34.0704 115.207 34.0704 116.135C34.0704 117.064 35.422 117.816 37.0893 117.816Z" fill="#83BF4F"/>
<path d="M75.9271 45.0947C75.8447 45.0947 75.7897 45.0672 75.7348 45.0397C75.6798 44.9848 74.1411 43.9406 73.8114 42.237C73.6465 41.2753 73.8663 40.3137 74.4983 39.4069C75.5424 37.8957 75.8996 36.6317 75.5699 35.6975C75.2127 34.6808 74.1136 34.3511 74.1136 34.3236C73.9213 34.2687 73.8114 34.0489 73.8663 33.8565C73.9213 33.6642 74.1136 33.5268 74.3059 33.6092C74.3609 33.6367 75.7622 34.0489 76.2568 35.4227C76.669 36.6042 76.2843 38.088 75.1028 39.8191C74.5807 40.5609 74.3884 41.3303 74.5258 42.0722C74.7731 43.4735 76.1194 44.3803 76.1194 44.3803C76.2843 44.4902 76.3393 44.7375 76.2293 44.9023C76.1744 45.0397 76.0645 45.0947 75.9271 45.0947ZM88.072 45.0947C87.9621 45.0947 87.8247 45.0397 87.7697 44.9298C87.6598 44.7649 87.7148 44.5176 87.8796 44.4077C87.8796 44.4077 89.226 43.4735 89.4733 42.0997C89.6107 41.3578 89.4183 40.6159 88.8963 39.8465C87.7148 38.1155 87.3301 36.6317 87.7422 35.4502C88.2368 34.0489 89.6382 33.6367 89.6931 33.6367C89.8855 33.5818 90.1053 33.6917 90.1602 33.884C90.2152 34.0764 90.1053 34.2962 89.9129 34.3511C89.9129 34.3511 88.8138 34.6808 88.4566 35.725C88.1269 36.6592 88.4841 37.9231 89.5283 39.4344C90.1602 40.3686 90.38 41.3028 90.2152 42.2645C89.8855 43.9681 88.3467 45.0122 88.2918 45.0672C88.2094 45.0672 88.1269 45.0947 88.072 45.0947Z" fill="#592F5D"/>
<path d="M81.9998 34.7358C80.0489 34.7358 74.7733 37.6209 74.8282 44.4902C74.8282 45.5893 74.8832 48.337 75.4327 48.7766C75.9823 49.2437 77.3287 48.0622 77.9881 48.3644C78.6476 48.6942 78.8674 49.8757 79.6093 50.0406C80.3511 50.2054 81.2579 49.2437 81.9998 49.2437C82.7416 49.2437 83.6759 50.2054 84.3903 50.0406C85.1047 49.8757 85.352 48.6942 86.0114 48.3644C86.6434 48.0622 88.0172 49.2162 88.5668 48.7766C89.1163 48.3095 89.1713 45.5618 89.1713 44.4902C89.2262 38.2804 84.5551 34.7358 81.9998 34.7358Z" fill="#917DBC"/>
<path d="M86.6157 41.4402C87.6049 42.5118 87.6049 44.2429 86.6157 45.3145C85.6265 46.3861 84.0054 46.3861 83.0162 45.3145C82.9887 45.3145 85.5991 40.3686 86.6157 41.4402ZM76.9438 43.0064C76.037 45.2046 77.5208 44.6275 78.8122 45.2595C80.1036 45.864 81.0379 46.6334 81.6149 45.2595C81.5874 45.232 77.4933 41.6325 76.9438 43.0064Z" fill="white"/>
<path d="M78.95 44.6276C78.95 45.1771 79.3621 45.6442 79.8842 45.6442C80.4063 45.6442 80.8184 45.2046 80.8184 44.6276C80.4612 44.3528 80.0216 43.9956 79.5545 43.6933C79.2248 43.8307 78.95 44.1879 78.95 44.6276ZM84.4179 45.6167C84.94 45.6167 85.3521 45.1771 85.3521 44.6001C85.3521 44.0505 84.94 43.5834 84.4179 43.5834C84.2256 43.5834 84.0607 43.6384 83.8959 43.7483C83.7585 43.9956 83.6211 44.2154 83.4837 44.4077C83.4837 44.4627 83.4562 44.5177 83.4562 44.5726C83.4837 45.1771 83.8959 45.6167 84.4179 45.6167Z" fill="#592F5D"/>
<path d="M81.9998 40.1763C79.7741 40.1763 79.5268 40.6983 79.1696 40.0389C79.0048 39.7366 79.7741 39.1596 81.9998 39.1596C84.2254 39.1596 84.9948 39.7366 84.8299 40.0389C84.4727 40.6983 84.2254 40.1763 81.9998 40.1763ZM81.9998 38.2529C79.7741 38.2529 79.5268 38.7749 79.1696 38.1155C79.0048 37.8132 79.7741 37.2362 81.9998 37.2362C84.2254 37.2362 84.9948 37.8132 84.8299 38.1155C84.4727 38.7749 84.2254 38.2529 81.9998 38.2529ZM77.9331 47.128C77.7408 47.5126 77.0264 47.5676 76.312 47.2104C75.5976 46.8532 75.1854 46.2487 75.3778 45.864C75.5701 45.4793 76.2845 45.4244 76.9989 45.7816C77.7133 46.1388 78.098 46.7158 77.9331 47.128ZM86.0664 47.128C86.2587 47.5126 86.9731 47.5676 87.6875 47.2104C88.4019 46.8532 88.8141 46.2487 88.6217 45.864C88.4294 45.4793 87.715 45.4244 87.0006 45.7816C86.3137 46.1113 85.9015 46.7158 86.0664 47.128Z" fill="#62FBF6"/>
<path d="M132.703 89.3884C132.703 89.9684 132.473 90.5247 132.063 90.9348C131.653 91.3449 131.096 91.5753 130.516 91.5753C129.936 91.5753 129.38 91.3449 128.97 90.9348C128.56 90.5247 128.329 89.9684 128.329 89.3884C128.329 88.8084 128.56 88.2521 128.97 87.842C129.38 87.4319 129.936 87.2014 130.516 87.2014C131.096 87.2014 131.653 87.4319 132.063 87.842C132.473 88.2521 132.703 88.8084 132.703 89.3884ZM145.489 89.3884C145.489 89.9684 145.258 90.5247 144.848 90.9348C144.438 91.3449 143.882 91.5753 143.302 91.5753C142.722 91.5753 142.165 91.3449 141.755 90.9348C141.345 90.5247 141.115 89.9684 141.115 89.3884C141.115 88.8084 141.345 88.2521 141.755 87.842C142.165 87.4319 142.722 87.2014 143.302 87.2014C143.882 87.2014 144.438 87.4319 144.848 87.842C145.258 88.2521 145.489 88.8084 145.489 89.3884Z" fill="#F4C6AD"/>
<path d="M141.761 79.9946C140.732 79.2174 139.478 78.7948 138.189 78.7901H135.628C134.351 78.7901 133.101 79.214 132.057 79.9946C130.279 81.3337 129.317 83.561 129.537 85.8429L130.141 91.3001C130.341 93.4137 131.741 95.1902 133.684 95.7958C135.786 96.4486 138.031 96.4486 140.132 95.7958C142.075 95.1902 143.477 93.4137 143.675 91.3008L144.279 85.8429C144.499 83.5617 143.538 81.3344 141.759 79.9953" fill="#FFD7C2"/>
<path d="M136.904 92.2234C136.199 92.227 135.504 92.0576 134.88 91.7301C134.679 91.6225 134.465 91.8519 134.592 92.0477C134.841 92.4369 135.184 92.7572 135.589 92.9791C135.994 93.201 136.448 93.3174 136.91 93.3175C137.372 93.3168 137.826 93.2001 138.231 92.9783C138.636 92.7564 138.979 92.4365 139.228 92.0477C139.35 91.8593 139.141 91.6292 138.94 91.7301C138.311 92.0559 137.612 92.2251 136.904 92.2234Z" fill="#990839"/>
<path d="M136.91 91.3398C137.235 91.3398 137.525 91.175 137.691 90.9273C137.725 90.8762 137.746 90.8166 137.749 90.7549C137.752 90.6932 137.738 90.6317 137.709 90.5772C137.68 90.5227 137.637 90.4772 137.584 90.4455C137.531 90.4139 137.47 90.3974 137.408 90.3978H136.413C136.137 90.3978 135.971 90.7073 136.13 90.9273C136.295 91.1817 136.586 91.3398 136.91 91.3398Z" fill="#E5AF93"/>
<path d="M131.102 89.3198C131.351 88.2956 132.266 87.5379 133.349 87.5379C134.473 87.5379 135.415 88.3568 135.624 89.4355C135.671 89.6744 135.482 89.8931 135.247 89.8931H131.546C131.476 89.8929 131.407 89.8768 131.344 89.8459C131.281 89.815 131.226 89.7702 131.184 89.7149C131.141 89.6597 131.111 89.5953 131.097 89.5268C131.083 89.4583 131.084 89.3875 131.102 89.3198ZM142.326 89.3198C142.077 88.2956 141.162 87.5379 140.078 87.5379C138.948 87.5379 138.012 88.3568 137.804 89.4355C137.757 89.6744 137.945 89.8931 138.181 89.8931H141.882C142.178 89.8931 142.4 89.6132 142.326 89.3198Z" fill="white"/>
<path d="M132.212 89.5028C132.212 88.6886 132.871 88.0224 133.692 88.0224C134.513 88.0224 135.173 88.6886 135.179 89.5028C135.179 89.6374 135.159 89.7652 135.126 89.8931H132.266C132.232 89.772 132.212 89.6374 132.212 89.5028ZM141.215 89.5028C141.215 89.1102 141.059 88.7336 140.782 88.456C140.504 88.1784 140.128 88.0224 139.735 88.0224C138.914 88.0224 138.248 88.6886 138.248 89.5028C138.248 89.6374 138.268 89.7652 138.302 89.8931H141.161C141.195 89.772 141.215 89.6374 141.215 89.5028Z" fill="#7D4533"/>
<path d="M133.692 88.6549C134.163 88.6549 134.54 89.0318 134.54 89.5028C134.54 89.6441 134.5 89.7787 134.439 89.8931H132.939C132.878 89.7787 132.845 89.6441 132.845 89.5028C132.845 89.0318 133.221 88.6549 133.692 88.6549ZM139.735 88.6549C139.264 88.6549 138.887 89.0318 138.887 89.5028C138.887 89.6441 138.921 89.7787 138.988 89.8931H140.489C140.549 89.7787 140.583 89.6441 140.583 89.5028C140.583 89.0318 140.206 88.6549 139.735 88.6549Z" fill="black"/>
<path d="M133.228 88.9241C133.228 88.9937 133.201 89.0604 133.151 89.1097C133.102 89.1589 133.035 89.1865 132.966 89.1865C132.896 89.1865 132.829 89.1589 132.78 89.1097C132.731 89.0604 132.703 88.9937 132.703 88.9241C132.703 88.8545 132.731 88.7877 132.78 88.7385C132.829 88.6893 132.896 88.6617 132.966 88.6617C133.035 88.6617 133.102 88.6893 133.151 88.7385C133.201 88.7877 133.228 88.8545 133.228 88.9241ZM139.533 88.9241C139.533 88.9937 139.506 89.0604 139.456 89.1097C139.407 89.1589 139.34 89.1865 139.271 89.1865C139.201 89.1865 139.135 89.1589 139.085 89.1097C139.036 89.0604 139.008 88.9937 139.008 88.9241C139.008 88.8545 139.036 88.7877 139.085 88.7385C139.135 88.6893 139.201 88.6617 139.271 88.6617C139.34 88.6617 139.407 88.6893 139.456 88.7385C139.506 88.7877 139.533 88.8545 139.533 88.9241Z" fill="white"/>
<path d="M132.634 86.5629C132.985 86.4384 133.488 86.3435 134.152 86.4061C134.197 86.4118 134.242 86.4085 134.286 86.3963C134.329 86.3842 134.37 86.3634 134.405 86.3352C134.44 86.307 134.469 86.272 134.491 86.2323C134.512 86.1926 134.525 86.1489 134.53 86.104C134.534 86.0591 134.529 86.0137 134.515 85.9707C134.502 85.9277 134.48 85.8878 134.45 85.8535C134.421 85.8193 134.385 85.7912 134.345 85.7711C134.304 85.751 134.26 85.7393 134.215 85.7365C133.453 85.6645 132.852 85.7715 132.408 85.929C132.324 85.959 132.256 86.0211 132.217 86.1017C132.179 86.1824 132.174 86.2749 132.204 86.359C132.234 86.443 132.297 86.5117 132.377 86.55C132.458 86.5882 132.55 86.5928 132.634 86.5629ZM141.093 85.9296C140.649 85.7715 140.049 85.6645 139.286 85.7365C139.241 85.7393 139.197 85.751 139.157 85.7711C139.116 85.7912 139.08 85.8193 139.051 85.8535C139.022 85.8878 138.999 85.9277 138.986 85.9707C138.972 86.0137 138.967 86.0591 138.971 86.104C138.976 86.1489 138.989 86.1926 139.01 86.2323C139.032 86.272 139.061 86.307 139.096 86.3352C139.132 86.3634 139.172 86.3842 139.216 86.3963C139.259 86.4085 139.305 86.4118 139.349 86.4061C140.014 86.3435 140.516 86.4384 140.867 86.5629C140.951 86.5928 141.043 86.5882 141.124 86.55C141.205 86.5117 141.267 86.443 141.297 86.359C141.327 86.2749 141.322 86.1824 141.284 86.1017C141.246 86.0211 141.177 85.9596 141.093 85.9296ZM136.788 77.4443C136.266 77.4377 135.752 77.5732 135.302 77.8364C134.851 78.0996 134.481 78.4804 134.231 78.9381C134.648 78.8439 135.072 78.7901 135.496 78.7901H135.597C136.815 78.7901 137.837 79.786 137.831 81.004C137.824 81.5557 137.622 82.0537 137.286 82.4373C137.231 82.4968 137.198 82.5727 137.192 82.653C137.185 82.7334 137.205 82.8136 137.249 82.8813C137.293 82.9489 137.358 83.0001 137.434 83.027C137.51 83.0538 137.593 83.0546 137.669 83.0294C138.237 82.8366 138.73 82.4706 139.079 81.9829C139.428 81.4952 139.615 80.9105 139.614 80.3109C139.621 78.7497 138.349 77.4645 136.788 77.4443Z" fill="#212121"/>
<path d="M53.3701 55.4074L55.1448 55.181L54.0442 56.5588L53.3701 55.4074ZM38.9542 51.443C38.823 51.443 38.6951 51.3806 38.6147 51.2642C37.0122 48.9105 35.3458 49.6486 35.3294 49.6568C35.1243 49.7519 34.88 49.6633 34.7848 49.4583C34.739 49.3598 34.7341 49.2471 34.7714 49.145C34.8086 49.0429 34.8848 48.9597 34.9833 48.9138C35.0062 48.9039 37.3025 47.8804 39.2921 50.8033C39.3341 50.8648 39.3585 50.9365 39.3627 51.0108C39.3669 51.0851 39.3507 51.1592 39.316 51.225C39.2812 51.2908 39.2292 51.3458 39.1654 51.3843C39.1017 51.4227 39.0287 51.443 38.9542 51.443ZM41.513 50.4917C41.3096 50.4917 41.1324 50.3408 41.1062 50.1324C40.7536 47.3539 39.0264 47.3014 38.9526 47.2998C38.7279 47.2965 38.5442 47.1128 38.5458 46.8881C38.5458 46.6634 38.7263 46.4813 38.951 46.4797C38.992 46.4797 41.472 46.5141 41.9197 50.0275C41.9476 50.2522 41.7902 50.4572 41.5638 50.4867C41.5474 50.4917 41.531 50.4917 41.513 50.4917Z" fill="#424242"/>
<path d="M44.3965 46.5863C44.987 46.0565 45.8054 45.8941 46.5862 46.1549C46.9208 46.2648 47.2144 46.4288 47.462 46.6437C49.5353 48.4463 48.4166 51.8022 47.4063 54.497C47.3997 54.5135 46.9454 55.8863 46.4566 55.9929C46.058 56.0799 45.5955 55.4861 45.5955 55.4861C45.5741 55.4664 45.0821 54.8333 45.028 54.748C44.1504 53.4654 43.5649 52.04 43.2828 50.5097C43.2204 50.1702 43.1909 49.7946 43.2057 49.4025C43.2106 49.2516 43.2221 49.0991 43.2434 48.9466C43.2614 48.8039 43.2861 48.6612 43.3172 48.5201C43.4714 47.8394 43.7863 47.1719 44.3325 46.6453L44.3965 46.5863Z" fill="#BDBDBD"/>
<path d="M50.6882 46.9521C51.5673 46.8487 52.4169 47.2276 52.9615 47.9674C53.196 48.2823 53.3568 48.6218 53.4454 48.9761C54.1769 51.9498 50.9998 54.2904 48.3459 56.0963C48.3295 56.1077 47.0338 57.0673 46.5187 56.8491C46.1005 56.672 46.0595 55.8322 46.0595 55.8322C46.0529 55.801 46.0119 54.9071 46.0168 54.7956C46.0414 53.0635 46.4236 51.3872 47.1502 49.8126C47.311 49.4632 47.5258 49.1008 47.7915 48.7547C47.8932 48.6202 48.0015 48.489 48.1196 48.3627C48.2278 48.2446 48.341 48.1298 48.4607 48.0215C49.0381 47.4999 49.7549 47.0948 50.5914 46.9652L50.6882 46.9521Z" fill="#ECEFF1"/>
<path d="M51.7764 60.432C53.6966 59.5299 54.6669 57.5504 53.9435 56.0107C53.2202 54.4709 51.0771 53.9539 49.1569 54.856C47.2367 55.7581 46.2665 57.7376 46.9898 59.2773C47.7132 60.8171 49.8562 61.3341 51.7764 60.432Z" fill="#FCC21B"/>
<mask id="mask0_124_9737" style="mask-type:luminance" maskUnits="userSpaceOnUse" x="46" y="54" width="9" height="7">
<path d="M51.7765 60.432C53.6967 59.5299 54.667 57.5504 53.9436 56.0107C53.2203 54.4709 51.0773 53.9539 49.1571 54.856C47.2369 55.7581 46.2666 57.7376 46.99 59.2773C47.7133 60.8171 49.8563 61.3341 51.7765 60.432Z" fill="white"/>
</mask>
<g mask="url(#mask0_124_9737)">
<path d="M51.9856 61.1372C53.5254 60.4139 54.0424 58.2709 53.1403 56.3507C52.2382 54.4305 50.2587 53.4602 48.719 54.1836C47.1792 54.9069 46.6622 57.0499 47.5643 58.9701C48.4664 60.8903 50.4459 61.8606 51.9856 61.1372Z" fill="#424242"/>
</g>
<mask id="mask1_124_9737" style="mask-type:luminance" maskUnits="userSpaceOnUse" x="46" y="54" width="9" height="7">
<path d="M51.7765 60.432C53.6967 59.5299 54.667 57.5504 53.9436 56.0107C53.2203 54.4709 51.0773 53.9539 49.1571 54.856C47.2369 55.7581 46.2666 57.7376 46.99 59.2773C47.7133 60.8171 49.8563 61.3341 51.7765 60.432Z" fill="white"/>
</mask>
<g mask="url(#mask1_124_9737)">
<path d="M50.5847 61.6708C52.1245 60.9474 52.6414 58.8044 51.7394 56.8842C50.8373 54.964 48.8578 53.9938 47.318 54.7171C45.7782 55.4405 45.2613 57.5835 46.1633 59.5037C47.0654 61.4239 49.0449 62.3941 50.5847 61.6708Z" fill="#FCC21B"/>
</g>
<mask id="mask2_124_9737" style="mask-type:luminance" maskUnits="userSpaceOnUse" x="46" y="54" width="9" height="7">
<path d="M51.7765 60.432C53.6967 59.5299 54.667 57.5504 53.9436 56.0107C53.2203 54.4709 51.0773 53.9539 49.1571 54.856C47.2369 55.7581 46.2666 57.7376 46.99 59.2773C47.7133 60.8171 49.8563 61.3341 51.7765 60.432Z" fill="white"/>
</mask>
<g mask="url(#mask2_124_9737)">
<path d="M48.9512 62.5184C50.491 61.795 51.008 59.652 50.1059 57.7318C49.2038 55.8116 47.2243 54.8414 45.6846 55.5647C44.1448 56.288 43.6278 58.4311 44.5299 60.3513C45.432 62.2715 47.4115 63.2417 48.9512 62.5184Z" fill="#424242"/>
</g>
<mask id="mask3_124_9737" style="mask-type:luminance" maskUnits="userSpaceOnUse" x="46" y="54" width="9" height="7">
<path d="M51.7765 60.432C53.6967 59.5299 54.667 57.5504 53.9436 56.0107C53.2203 54.4709 51.0773 53.9539 49.1571 54.856C47.2369 55.7581 46.2666 57.7376 46.99 59.2773C47.7133 60.8171 49.8563 61.3341 51.7765 60.432Z" fill="white"/>
</mask>
<g mask="url(#mask3_124_9737)">
<path d="M47.3582 63.1614C48.8979 62.4381 49.4149 60.295 48.5128 58.3748C47.6108 56.4546 45.6313 55.4844 44.0915 56.2077C42.5517 56.9311 42.0348 59.0741 42.9368 60.9943C43.8389 62.9145 45.8184 63.8848 47.3582 63.1614Z" fill="#FCC21B"/>
</g>
<path d="M41.4029 60.0459C40.9994 60.0459 40.7469 59.9983 40.719 59.9934C40.6122 59.9722 40.5182 59.9096 40.4576 59.8192C40.397 59.7287 40.3748 59.618 40.3958 59.5112C40.4171 59.4048 40.4796 59.3112 40.5696 59.2507C40.6596 59.1902 40.7699 59.1677 40.8764 59.1881C40.9027 59.193 42.5002 59.4735 44.1405 58.3696C44.3274 58.2433 44.5833 58.2925 44.7096 58.4811C44.8359 58.6698 44.7867 58.924 44.5981 59.0503C43.3482 59.8917 42.1328 60.0459 41.4029 60.0459Z" fill="#424242"/>
<path d="M42.0823 61.7353C41.8872 61.7353 41.7149 61.5959 41.6789 61.3974C41.6395 61.1744 41.7871 60.9628 42.0085 60.9218C42.0348 60.9168 43.6241 60.597 44.751 58.9748C44.7816 58.9305 44.8207 58.8926 44.866 58.8634C44.9112 58.8342 44.9619 58.8142 45.0149 58.8046C45.0679 58.795 45.1223 58.7959 45.175 58.8074C45.2277 58.8189 45.2775 58.8407 45.3218 58.8715C45.5071 59.0011 45.5547 59.2553 45.4251 59.4423C44.0932 61.3613 42.2332 61.7156 42.1545 61.7288C42.1316 61.7337 42.107 61.7353 42.0823 61.7353Z" fill="#424242"/>
<path d="M45.7579 62.9179C45.6958 62.9181 45.6345 62.9041 45.5785 62.877C45.5226 62.8499 45.4736 62.8104 45.4352 62.7616C45.3968 62.7128 45.37 62.6558 45.3569 62.5951C45.3437 62.5344 45.3446 62.4714 45.3594 62.4111C45.3643 62.3881 45.7284 60.8348 45.2905 58.924C45.2783 58.8714 45.2767 58.817 45.2856 58.7638C45.2946 58.7106 45.3139 58.6597 45.3426 58.614C45.3712 58.5683 45.4086 58.5287 45.4526 58.4974C45.4965 58.4662 45.5463 58.4439 45.5988 58.4319C45.6514 58.4198 45.7058 58.4181 45.759 58.4271C45.8122 58.436 45.8632 58.4554 45.9089 58.484C45.9546 58.5127 45.9942 58.55 46.0254 58.594C46.0567 58.638 46.0789 58.6877 46.0909 58.7403C46.5764 60.8545 46.1746 62.5357 46.1582 62.6063C46.1354 62.6952 46.0838 62.7741 46.0113 62.8305C45.9389 62.8869 45.8498 62.9177 45.7579 62.9179ZM47.2817 62.9064C47.262 62.9064 47.2423 62.9048 47.2227 62.9015C47.115 62.886 47.018 62.8284 46.9528 62.7413C46.8876 62.6543 46.8596 62.545 46.8749 62.4373C46.8782 62.4177 47.0882 60.8348 46.4632 58.9732C46.3911 58.7583 46.5075 58.5254 46.7224 58.4533C46.9389 58.3811 47.1702 58.4975 47.2423 58.7124C47.9329 60.7692 47.6983 62.4816 47.6885 62.5522C47.6743 62.6501 47.6255 62.7398 47.5509 62.8048C47.4762 62.8698 47.3807 62.9059 47.2817 62.9064Z" fill="#424242"/>
<path d="M48.2017 56.0028C48.1115 55.8798 48.3051 55.5009 48.1968 55.4008C48.0853 55.2991 47.7261 55.5304 47.5981 55.4549C47.4686 55.3779 47.503 54.953 47.3619 54.9022C47.2209 54.8513 46.9749 55.1991 46.8256 55.1745C46.678 55.1499 46.5599 54.7398 46.409 54.7398C46.2597 54.7398 46.1449 55.1515 45.9956 55.1777C45.8497 55.2023 45.6053 54.853 45.4609 54.9022C45.3215 54.9498 45.3412 55.3762 45.2051 55.4484C45.0738 55.5173 44.7343 55.2581 44.6113 55.3483C44.4883 55.4385 44.6343 55.8404 44.5309 55.9454C44.4227 56.0536 44.0208 55.9076 43.9339 56.0274C43.8437 56.1504 44.1061 56.4883 44.0389 56.6195C43.97 56.7556 43.5435 56.7425 43.4976 56.8852C43.4517 57.0295 43.8092 57.2641 43.7896 57.4117C43.7699 57.561 43.3631 57.6938 43.3697 57.8431C43.3762 57.994 43.7928 58.0858 43.8273 58.2318C43.8617 58.3778 43.5353 58.6501 43.5993 58.7879C43.6616 58.9224 44.0815 58.8485 44.1717 58.9716C44.2619 59.0946 44.0684 59.4735 44.1766 59.5735C44.2882 59.6752 44.6474 59.4439 44.7753 59.5194C44.9049 59.5965 44.8705 60.0213 45.0115 60.0721C45.1526 60.123 45.3986 59.7753 45.5479 59.7999C45.6955 59.8245 45.8136 60.2345 45.9645 60.2345C46.1137 60.2345 46.2286 59.8228 46.3778 59.7966C46.5238 59.772 46.7682 60.1213 46.9125 60.0721C47.0519 60.0246 47.0323 59.5981 47.1684 59.5259C47.2996 59.4571 47.6391 59.7162 47.7622 59.626C47.8852 59.5358 47.7392 59.1339 47.8425 59.029C47.9508 58.9207 48.3526 59.0667 48.4396 58.947C48.5298 58.8239 48.2673 58.4861 48.3346 58.3548C48.4035 58.2187 48.8299 58.2318 48.8759 58.0891C48.9218 57.9448 48.5642 57.7102 48.5839 57.5626C48.6036 57.4134 49.0104 57.2805 49.0038 57.1312C48.9972 56.9803 48.5806 56.8885 48.5462 56.7425C48.5117 56.5965 48.8381 56.3243 48.7742 56.1865C48.7118 56.0503 48.2919 56.1258 48.2017 56.0028Z" fill="#FFB300"/>
<path d="M42.6696 58.6485C45.3137 57.9464 46.9398 55.4289 46.3016 53.0256C45.6634 50.6223 43.0026 49.2433 40.3585 49.9454C37.7144 50.6476 36.0883 53.165 36.7266 55.5683C37.3648 57.9716 40.0256 59.3507 42.6696 58.6485Z" fill="#FCC21B"/>
<path d="M40.5829 56.7728C40.5829 56.7728 42.0115 57.4387 42.561 56.0216" stroke="#424242" stroke-width="0.820107" stroke-miterlimit="10" stroke-linecap="round"/>
<path d="M42.7047 53.2037C42.8196 53.1594 42.9376 53.1545 43.0541 53.1758C43.2312 53.2086 43.4018 53.3086 43.5363 53.4628C43.6183 53.5596 43.6889 53.6744 43.7381 53.8056C43.7758 53.9139 43.7938 54.0221 43.7988 54.1287C43.8086 54.3371 43.7561 54.5322 43.6528 54.6864C43.5741 54.8062 43.4658 54.9029 43.3297 54.9554C42.9344 55.103 42.4735 54.8357 42.2996 54.3518C42.1274 53.8712 42.3111 53.3529 42.7047 53.2037ZM39.3193 56.1183C38.9011 56.179 38.4877 55.8214 38.4008 55.313C38.3155 54.8094 38.5862 54.3453 39.0077 54.2846C39.426 54.2206 39.8393 54.5814 39.9229 55.0883C40.0099 55.5935 39.7376 56.0527 39.3193 56.1183Z" fill="#424242"/>
<path d="M135.839 124.952L125.237 129.734C125.167 129.766 125.09 129.775 125.015 129.762C124.94 129.748 124.871 129.712 124.817 129.658C124.763 129.604 124.727 129.535 124.713 129.46C124.7 129.385 124.709 129.308 124.741 129.238L129.485 118.708L135.839 124.952Z" fill="#FFDF40"/>
<path d="M135.839 124.952L125.237 129.734C125.159 129.77 125.071 129.778 124.988 129.757C124.905 129.736 124.832 129.687 124.782 129.618L135.279 124.401L135.839 124.952Z" fill="#FFBE40"/>
<path d="M129.343 127.882L127.762 128.596C127.4 128.427 126.967 128.183 126.638 127.854C126.314 127.53 126.07 127.119 125.879 126.711L126.595 125.123C126.853 125.72 127.147 126.37 127.635 126.858C128.127 127.35 128.79 127.673 129.343 127.882Z" fill="#FF5959"/>
<path d="M128.77 127.636C128.966 127.731 129.16 127.813 129.343 127.882L127.762 128.596C127.619 128.529 127.465 128.451 127.312 128.361L128.77 127.636Z" fill="#E63A57"/>
<path d="M126.964 115.687L127.436 115.047C127.458 115.017 127.489 114.995 127.524 114.982C127.558 114.969 127.596 114.967 127.632 114.976C127.669 114.984 127.701 115.003 127.727 115.031C127.752 115.058 127.769 115.092 127.775 115.128L127.905 115.913L128.659 116.164C128.694 116.176 128.725 116.198 128.748 116.227C128.771 116.256 128.785 116.291 128.788 116.328C128.791 116.365 128.783 116.403 128.765 116.435C128.747 116.467 128.719 116.494 128.686 116.511L127.981 116.877L127.975 117.672C127.975 117.709 127.963 117.746 127.943 117.776C127.922 117.807 127.893 117.831 127.858 117.845C127.824 117.86 127.786 117.863 127.75 117.856C127.713 117.849 127.68 117.831 127.653 117.805L127.087 117.247L126.329 117.487C126.294 117.499 126.256 117.499 126.22 117.489C126.184 117.479 126.152 117.458 126.128 117.43C126.104 117.402 126.089 117.367 126.084 117.33C126.08 117.293 126.086 117.256 126.103 117.223L126.459 116.512L125.996 115.865C125.975 115.835 125.962 115.799 125.961 115.762C125.96 115.725 125.969 115.688 125.989 115.656C126.008 115.625 126.036 115.6 126.07 115.584C126.104 115.568 126.141 115.563 126.178 115.568L126.964 115.687Z" fill="#FF5959"/>
<path d="M138.503 126.341C138.538 126.336 138.574 126.341 138.606 126.356C138.638 126.371 138.665 126.395 138.684 126.425C138.702 126.455 138.711 126.49 138.71 126.526C138.709 126.561 138.697 126.595 138.677 126.624L138.236 127.24L138.575 127.917C138.591 127.949 138.597 127.984 138.593 128.02C138.588 128.055 138.574 128.088 138.551 128.115C138.528 128.141 138.497 128.161 138.463 128.171C138.429 128.18 138.393 128.18 138.36 128.169L137.638 127.94L137.098 128.472C137.073 128.497 137.041 128.514 137.007 128.52C136.972 128.527 136.936 128.524 136.903 128.51C136.87 128.496 136.843 128.474 136.823 128.444C136.803 128.415 136.792 128.38 136.792 128.345L136.787 127.588L136.114 127.239C136.083 127.223 136.057 127.198 136.04 127.167C136.023 127.136 136.015 127.1 136.018 127.065C136.021 127.03 136.034 126.996 136.056 126.968C136.077 126.941 136.107 126.92 136.141 126.909L136.859 126.669L136.983 125.922C136.989 125.887 137.005 125.855 137.029 125.829C137.053 125.803 137.084 125.785 137.118 125.777C137.153 125.768 137.189 125.771 137.222 125.783C137.255 125.795 137.284 125.816 137.305 125.845L137.755 126.455L138.503 126.341Z" fill="#94E671"/>
<path d="M140.029 115.774C140.053 115.77 140.077 115.774 140.099 115.784C140.12 115.794 140.139 115.81 140.151 115.83C140.163 115.851 140.17 115.874 140.169 115.898C140.168 115.922 140.16 115.945 140.146 115.964L139.695 116.594L140.042 117.287C140.053 117.309 140.057 117.333 140.054 117.356C140.051 117.38 140.041 117.402 140.026 117.42C140.01 117.439 139.99 117.452 139.967 117.458C139.944 117.465 139.92 117.464 139.897 117.457L139.158 117.223L138.606 117.767C138.59 117.784 138.568 117.795 138.545 117.8C138.521 117.804 138.497 117.802 138.475 117.793C138.453 117.784 138.434 117.768 138.421 117.748C138.407 117.728 138.4 117.705 138.4 117.681L138.395 116.907L137.707 116.55C137.686 116.539 137.668 116.522 137.657 116.501C137.645 116.48 137.64 116.457 137.642 116.433C137.644 116.409 137.652 116.386 137.667 116.368C137.682 116.349 137.702 116.335 137.724 116.327L138.459 116.083L138.586 115.318C138.59 115.295 138.601 115.273 138.617 115.255C138.633 115.238 138.654 115.226 138.677 115.22C138.701 115.214 138.725 115.216 138.747 115.224C138.77 115.232 138.789 115.247 138.803 115.266L139.263 115.89L140.029 115.774Z" fill="#FFDF40"/>
<path d="M133.172 124.053L128.227 127.33C127.793 127.045 127.458 126.721 127.226 126.356L130.399 121.261L133.172 124.053Z" fill="#FCA338"/>
<path d="M131.692 122.8C129.921 121.029 129.02 119.057 129.681 118.396C130.341 117.736 132.313 118.637 134.084 120.408C135.856 122.18 136.756 124.151 136.096 124.812C135.436 125.473 133.464 124.572 131.692 122.8Z" fill="#C47641"/>
<path d="M127.64 114.978L127.087 117.247L126.329 117.487C126.294 117.499 126.256 117.499 126.22 117.489C126.184 117.479 126.152 117.458 126.128 117.43C126.104 117.402 126.089 117.367 126.084 117.33C126.08 117.293 126.086 117.256 126.103 117.223L126.459 116.512L125.996 115.865C125.975 115.835 125.962 115.799 125.961 115.762C125.96 115.725 125.969 115.688 125.989 115.656C126.008 115.625 126.036 115.599 126.07 115.584C126.104 115.568 126.141 115.563 126.178 115.568L126.964 115.687L127.436 115.047C127.459 115.016 127.491 114.992 127.527 114.98C127.563 114.968 127.603 114.967 127.64 114.978Z" fill="#E63A57"/>
<path d="M139.158 117.223L138.607 117.767C138.59 117.783 138.568 117.795 138.545 117.799C138.521 117.804 138.497 117.802 138.475 117.792C138.453 117.783 138.434 117.768 138.421 117.748C138.408 117.728 138.4 117.705 138.4 117.681L138.395 116.906L137.707 116.55C137.686 116.539 137.668 116.522 137.657 116.501C137.645 116.48 137.64 116.457 137.642 116.433C137.644 116.409 137.652 116.386 137.667 116.368C137.682 116.349 137.702 116.335 137.724 116.327L138.46 116.083L138.586 115.318C138.59 115.295 138.6 115.273 138.616 115.256C138.632 115.239 138.652 115.227 138.675 115.221L139.158 117.223Z" fill="#FFBE40"/>
<path d="M137.114 125.778L137.638 127.94L137.098 128.472C137.073 128.497 137.041 128.514 137.007 128.52C136.972 128.527 136.936 128.524 136.903 128.51C136.87 128.497 136.843 128.474 136.823 128.444C136.803 128.415 136.792 128.38 136.792 128.345L136.787 127.588L136.114 127.239C136.083 127.223 136.057 127.198 136.04 127.167C136.023 127.136 136.015 127.1 136.018 127.065C136.021 127.03 136.034 126.996 136.056 126.968C136.077 126.941 136.107 126.92 136.141 126.909L136.859 126.67L136.983 125.922C136.988 125.888 137.004 125.856 137.027 125.831C137.05 125.805 137.081 125.787 137.114 125.778Z" fill="#52CC7B"/>
<path d="M131.419 116.394C131.419 116.325 131.447 116.258 131.496 116.209C131.545 116.16 131.611 116.132 131.681 116.132H131.963V115.851C131.963 115.781 131.99 115.715 132.039 115.666C132.088 115.617 132.155 115.589 132.224 115.589C132.294 115.589 132.36 115.617 132.409 115.666C132.458 115.715 132.486 115.781 132.486 115.851V116.132H132.767C132.837 116.132 132.903 116.16 132.953 116.209C133.002 116.258 133.029 116.325 133.029 116.394C133.029 116.464 133.002 116.53 132.953 116.579C132.903 116.628 132.837 116.656 132.767 116.656H132.486V116.938C132.486 117.007 132.458 117.074 132.409 117.123C132.36 117.172 132.294 117.199 132.224 117.199C132.155 117.199 132.088 117.172 132.039 117.123C131.99 117.074 131.963 117.007 131.963 116.938V116.656H131.681C131.611 116.656 131.545 116.628 131.496 116.579C131.447 116.53 131.419 116.464 131.419 116.394ZM126.575 120.316V120.034H126.294C126.224 120.034 126.158 120.007 126.109 119.958C126.06 119.909 126.032 119.842 126.032 119.773C126.032 119.703 126.06 119.637 126.109 119.587C126.158 119.538 126.224 119.511 126.294 119.511H126.575V119.229C126.575 119.16 126.603 119.093 126.652 119.044C126.701 118.995 126.768 118.968 126.837 118.968C126.907 118.968 126.973 118.995 127.022 119.044C127.071 119.093 127.099 119.16 127.099 119.229V119.511H127.38C127.45 119.511 127.516 119.538 127.566 119.587C127.615 119.637 127.642 119.703 127.642 119.773C127.642 119.842 127.615 119.909 127.566 119.958C127.516 120.007 127.45 120.034 127.38 120.034H127.099V120.316C127.099 120.385 127.071 120.452 127.022 120.501C126.973 120.55 126.907 120.578 126.837 120.578C126.768 120.578 126.701 120.55 126.652 120.501C126.603 120.452 126.575 120.385 126.575 120.316V120.316Z" fill="#80EAFF"/>
<path d="M132.916 122.694C132.916 122.624 132.944 122.558 132.993 122.509C133.042 122.46 133.108 122.432 133.178 122.432H133.459V122.15C133.459 122.081 133.487 122.014 133.536 121.965C133.585 121.916 133.652 121.889 133.721 121.889C133.791 121.889 133.857 121.916 133.906 121.965C133.955 122.014 133.983 122.081 133.983 122.15V122.432H134.264C134.334 122.432 134.4 122.46 134.45 122.509C134.499 122.558 134.526 122.624 134.526 122.694C134.526 122.763 134.499 122.83 134.45 122.879C134.4 122.928 134.334 122.956 134.264 122.956H133.983V123.237C133.983 123.307 133.955 123.373 133.906 123.422C133.857 123.471 133.791 123.499 133.721 123.499C133.652 123.499 133.585 123.471 133.536 123.422C133.487 123.373 133.459 123.307 133.459 123.237V122.956H133.178C133.108 122.956 133.042 122.928 132.993 122.879C132.944 122.83 132.916 122.763 132.916 122.694ZM131.021 119.964C131.021 119.894 131.048 119.828 131.097 119.778C131.146 119.729 131.213 119.702 131.282 119.702H131.564V119.42C131.564 119.351 131.592 119.284 131.641 119.235C131.69 119.186 131.756 119.158 131.826 119.158C131.895 119.158 131.962 119.186 132.011 119.235C132.06 119.284 132.088 119.351 132.088 119.42V119.702H132.369C132.438 119.702 132.505 119.729 132.554 119.778C132.603 119.828 132.631 119.894 132.631 119.964C132.631 120.033 132.603 120.1 132.554 120.149C132.505 120.198 132.438 120.225 132.369 120.225H132.088V120.507C132.088 120.576 132.06 120.643 132.011 120.692C131.962 120.741 131.895 120.769 131.826 120.769C131.756 120.769 131.69 120.741 131.641 120.692C131.592 120.643 131.564 120.576 131.564 120.507V120.225H131.282C131.213 120.225 131.146 120.198 131.097 120.149C131.048 120.1 131.021 120.033 131.021 119.964Z" fill="#CBF3F9"/>
<path d="M137.25 121.424V121.706H137.531C137.601 121.706 137.667 121.733 137.716 121.782C137.765 121.832 137.793 121.898 137.793 121.968C137.793 122.037 137.765 122.104 137.716 122.153C137.667 122.202 137.601 122.229 137.531 122.229H137.25V122.511C137.25 122.58 137.222 122.647 137.173 122.696C137.124 122.745 137.057 122.773 136.988 122.773C136.918 122.773 136.852 122.745 136.803 122.696C136.754 122.647 136.726 122.58 136.726 122.511V122.229H136.444C136.375 122.229 136.308 122.202 136.259 122.153C136.21 122.104 136.183 122.037 136.183 121.968C136.183 121.898 136.21 121.832 136.259 121.782C136.308 121.733 136.375 121.706 136.444 121.706H136.726V121.424C136.726 121.355 136.754 121.288 136.803 121.239C136.852 121.19 136.918 121.162 136.988 121.162C137.057 121.162 137.124 121.19 137.173 121.239C137.222 121.288 137.25 121.355 137.25 121.424ZM134.292 128.133C134.292 128.203 134.264 128.269 134.215 128.318C134.166 128.368 134.099 128.395 134.03 128.395H133.748V128.677C133.748 128.746 133.721 128.813 133.672 128.862C133.623 128.911 133.556 128.938 133.487 128.938C133.417 128.938 133.351 128.911 133.302 128.862C133.252 128.813 133.225 128.746 133.225 128.677V128.395H132.943C132.874 128.395 132.807 128.368 132.758 128.318C132.709 128.269 132.681 128.203 132.681 128.133C132.681 128.064 132.709 127.997 132.758 127.948C132.807 127.899 132.874 127.872 132.943 127.872H133.225V127.59C133.225 127.521 133.252 127.454 133.302 127.405C133.351 127.356 133.417 127.328 133.487 127.328C133.556 127.328 133.623 127.356 133.672 127.405C133.721 127.454 133.748 127.521 133.748 127.59V127.872H134.03C134.099 127.872 134.166 127.899 134.215 127.948C134.264 127.997 134.292 128.064 134.292 128.133Z" fill="#94E671"/>
<path d="M138.686 123.363C138.67 123.394 138.648 123.421 138.621 123.443C138.594 123.464 138.563 123.481 138.53 123.49C138.497 123.5 138.462 123.503 138.428 123.5C138.393 123.496 138.36 123.485 138.33 123.469C138.299 123.452 138.273 123.43 138.251 123.403C138.23 123.376 138.214 123.344 138.204 123.311C138.195 123.278 138.192 123.243 138.196 123.209C138.2 123.174 138.211 123.141 138.228 123.111C138.713 122.228 138.617 121.378 137.971 120.837C137.382 120.343 136.326 120.165 135.532 120.807C135.478 120.851 135.409 120.871 135.34 120.864C135.271 120.856 135.207 120.822 135.164 120.768C135.12 120.714 135.1 120.645 135.107 120.576C135.114 120.507 135.149 120.443 135.203 120.4C135.657 120.035 136.227 119.847 136.808 119.87C137.357 119.887 137.884 120.086 138.307 120.435C138.966 120.987 139.411 122.045 138.686 123.363Z" fill="#DF6B57"/>
<path d="M132.92 115.389C132.927 115.32 132.961 115.257 133.014 115.213C133.068 115.169 133.137 115.148 133.206 115.155C134.286 115.264 135.094 115.904 135.315 116.825C135.534 117.736 135.1 118.67 134.181 119.261C134.123 119.299 134.052 119.311 133.985 119.296C133.917 119.282 133.858 119.241 133.821 119.182C133.783 119.124 133.77 119.054 133.785 118.986C133.799 118.918 133.84 118.859 133.898 118.821C134.634 118.347 134.974 117.646 134.806 116.947C134.638 116.249 134.005 115.762 133.154 115.676C133.085 115.669 133.021 115.635 132.977 115.581C132.933 115.527 132.913 115.458 132.92 115.389Z" fill="#CBF3F9"/>
<path d="M140.317 118.712C140.312 118.746 140.301 118.779 140.283 118.809C140.266 118.839 140.243 118.865 140.216 118.885C140.188 118.906 140.157 118.922 140.124 118.93C140.091 118.939 140.056 118.941 140.022 118.937C138.574 118.741 137.141 118.945 135.76 119.543C135.729 119.556 135.695 119.564 135.66 119.564C135.626 119.565 135.592 119.558 135.56 119.546C135.528 119.533 135.499 119.514 135.474 119.49C135.449 119.467 135.43 119.438 135.416 119.406C135.402 119.375 135.395 119.341 135.394 119.307C135.394 119.272 135.4 119.238 135.413 119.206C135.425 119.174 135.444 119.145 135.468 119.12C135.492 119.096 135.521 119.076 135.552 119.062C137.021 118.426 138.549 118.209 140.092 118.418C140.161 118.427 140.223 118.463 140.265 118.519C140.307 118.574 140.326 118.643 140.317 118.712Z" fill="#FFDF40"/>
<path d="M135.729 118.019C136.67 116.939 136.974 115.655 136.659 114.095C136.645 114.027 136.659 113.956 136.697 113.898C136.736 113.841 136.795 113.8 136.863 113.787C136.932 113.773 137.002 113.787 137.06 113.825C137.118 113.863 137.158 113.923 137.172 113.991C137.517 115.698 137.164 117.169 136.124 118.363C136.078 118.415 136.013 118.448 135.944 118.452C135.875 118.457 135.807 118.434 135.754 118.389C135.702 118.343 135.67 118.278 135.665 118.209C135.66 118.14 135.683 118.072 135.729 118.019Z" fill="#80EAFF"/>
<path d="M23.5829 80.2436H20.6263C19.4398 80.2436 18.478 81.2054 18.478 82.3919L20.6832 82.9002L23.5829 82.3919V80.2436Z" fill="#8B5E5E"/>
<path d="M30.0975 94.9903V96.3496C29.2634 96.5748 28.3866 96.6946 27.4816 96.6946C27.2829 96.6946 27.0856 96.6888 26.8898 96.6774C26.0197 96.6267 25.5605 95.5044 24.7639 95.2458C24.605 95.1942 24.0669 96.0994 23.9116 96.0402C22.7551 95.5993 21.7012 94.9504 20.7955 94.1393C21.1852 92.3438 22.7834 90.9986 24.696 90.9986H26.1054C28.3102 90.9986 30.0975 92.7859 30.0975 94.9903Z" fill="#6B696F"/>
<path d="M26.7257 91.0467C24.8158 91.3444 23.3543 92.997 23.3543 94.9903V95.808C22.4153 95.3835 21.5537 94.8184 20.7955 94.1393C21.1852 92.3434 22.7838 90.9986 24.696 90.9986H26.1054C26.3165 90.9986 26.5237 91.015 26.7257 91.0467Z" fill="#545058"/>
<path d="M28.4791 91.6526V92.5098C28.4791 93.082 28.1768 93.5829 27.7237 93.8633V96.6915C27.6431 96.6938 27.562 96.6946 27.4809 96.6946C27.2823 96.6946 27.085 96.6888 26.8892 96.6774C26.6686 96.6646 26.4816 96.2422 26.265 96.2154L26.5517 92.5894L26.8892 90.0627C27.7672 90.0627 28.4791 90.7746 28.4791 91.6526Z" fill="#423F46"/>
<path d="M24.8592 95.9578C24.5518 95.8732 24.2062 96.1526 23.9114 96.0402C23.7228 95.9683 23.537 95.8908 23.3541 95.8081C23.2609 95.7658 23.1685 95.7223 23.0768 95.6776V93.8633C22.6237 93.5829 22.3214 93.082 22.3214 92.5099V91.6526C22.3214 90.7747 23.0334 90.0627 23.9114 90.0627L24.2008 92.4488L24.8592 95.9578Z" fill="#423F46"/>
<path d="M26.8902 91.9711V96.6771C26.6693 96.6645 26.4508 96.6446 26.2343 96.6179C25.7498 96.5576 25.276 96.4629 24.8158 96.336C24.7328 96.3133 24.6502 96.2894 24.568 96.2643C24.3459 96.1969 24.127 96.1222 23.912 96.0403V91.9711H26.8902Z" fill="#FAF7EB"/>
<path d="M25.4928 92.5584H25.3076C24.8986 92.5584 24.567 92.89 24.567 93.299C24.567 93.708 24.8986 94.0396 25.3076 94.0396H25.4928C25.9018 94.0396 26.2333 93.708 26.2333 93.299C26.2333 92.89 25.9018 92.5584 25.4928 92.5584Z" fill="#9D6B6B"/>
<path d="M26.2333 94.7697V96.6177C25.7489 96.5574 25.2751 96.4627 24.8149 96.3358C24.7319 96.3131 24.6493 96.2892 24.567 96.2641V94.7697C24.567 94.31 24.9402 93.9368 25.4004 93.9368C25.8605 93.9368 26.2333 94.31 26.2333 94.7697Z" fill="#9D6B6B"/>
<path d="M26.8904 91.313V93.4246C26.6287 93.42 26.3686 93.3174 26.1686 93.1175L25.401 92.3499L24.6334 93.1175C24.4335 93.3174 24.174 93.4197 23.912 93.4246V91.313H26.8904Z" fill="#D9D3C8"/>
<path d="M20.6422 88.0637C21.61 88.0637 22.3946 87.2791 22.3946 86.3113C22.3946 85.3435 21.61 84.5589 20.6422 84.5589C19.6743 84.5589 18.8897 85.3435 18.8897 86.3113C18.8897 87.2791 19.6743 88.0637 20.6422 88.0637Z" fill="#EBB99A"/>
<path d="M19.8603 86.3112C19.8603 86.5356 19.9547 86.7381 20.1064 86.8804C20.1271 86.6893 20.2891 86.5405 20.4858 86.5405C20.6964 86.5405 20.8671 86.7113 20.8671 86.9222C20.8671 86.9739 20.8568 87.0234 20.838 87.0687C21.1751 86.9813 21.4238 86.6754 21.4238 86.3112C21.4238 85.8794 21.0738 85.5294 20.642 85.5294C20.2102 85.5294 19.8603 85.8794 19.8603 86.3112Z" fill="#DC9E80"/>
<path d="M23.912 89.3327V91.5664C23.912 92.3888 24.5785 93.0553 25.4009 93.0553C26.2233 93.0553 26.8901 92.3889 26.8901 91.5664V89.3327H23.912Z" fill="#F0CFBA"/>
<path d="M25.8636 92.9817C25.718 93.0294 25.5623 93.0552 25.4009 93.0552C24.5785 93.0552 23.912 92.3887 23.912 91.5663V89.3327H24.8371V91.5663C24.8371 92.2273 25.2676 92.7876 25.8636 92.9817Z" fill="#EBB99A"/>
<path d="M23.912 89.3327V91.313C24.3322 91.4216 24.7732 91.4795 25.2274 91.4795H26.8902V89.3327H23.912Z" fill="#EBB99A"/>
<path d="M33.023 85.9926C33.023 87.2716 32.5045 88.4292 31.6664 89.2672C30.8284 90.1053 29.6704 90.6234 28.3918 90.6234H25.3243C22.7666 90.6234 20.6934 88.5502 20.6934 85.9926C20.6934 84.7136 21.2115 83.5559 22.0496 82.7179C22.8876 81.8798 24.0453 81.3613 25.3243 81.3613H28.3918C29.8024 81.3613 31.0657 81.9918 31.9147 82.9869C32.4414 83.6033 32.8092 84.3595 32.9537 85.1921C32.9995 85.4521 33.023 85.7196 33.023 85.9926Z" fill="#F0CFBA"/>
<path d="M32.9545 85.1921H22.5412V82.9869H31.9156C32.4423 83.6033 32.81 84.3595 32.9545 85.1921Z" fill="#EBB99A"/>
<path d="M25.056 89.2671C25.8943 90.105 27.0519 90.6234 28.331 90.6234H25.3243C24.0456 90.6234 22.8879 90.105 22.0497 89.2671C21.2119 88.4289 20.6934 87.2713 20.6934 85.9925C20.6934 83.435 22.7668 81.3616 25.3243 81.3616H28.331C25.7731 81.3616 23.6997 83.435 23.6997 85.9925C23.6997 87.2713 24.2182 88.4289 25.056 89.2671Z" fill="#EBB99A"/>
<path d="M32.1345 85.0266C32.1345 85.0826 32.1318 85.1378 32.1267 85.1923C32.0969 85.5177 31.979 85.8177 31.7969 86.0683C31.6489 85.8647 31.459 85.6939 31.2397 85.5682C31.1128 85.4958 31.0403 85.3172 30.9412 85.1923C30.888 85.1249 30.8269 85.0728 30.745 85.0623C30.5535 84.9264 30.1181 84.9749 30.019 84.9749C29.8815 84.9749 29.8134 85.0717 29.7586 85.1923C29.7131 85.2906 29.6775 85.4053 29.6199 85.4962C29.3407 85.6242 29.1007 85.8228 28.9225 86.0683C28.7404 85.8177 28.6221 85.5177 28.5924 85.1923C28.5873 85.1378 28.5845 85.0826 28.5845 85.0266C28.5845 84.046 29.3791 83.2514 30.3593 83.2514C31.3399 83.2514 32.1345 84.046 32.1345 85.0266Z" fill="#FAF7EB"/>
<path d="M32.1345 85.0266C32.1345 85.0826 32.1318 85.1378 32.1267 85.1923H28.5924C28.5873 85.1378 28.5845 85.0826 28.5845 85.0266C28.5845 84.046 29.3791 83.2514 30.3593 83.2514C31.3399 83.2514 32.1345 84.046 32.1345 85.0266Z" fill="#EBE6DB"/>
<path d="M31.2538 85.4183C31.2538 85.4696 31.2491 85.5197 31.2397 85.5683C30.9805 85.4199 30.6797 85.3353 30.3598 85.3353C30.1002 85.3353 29.8538 85.3909 29.6314 85.4911C29.629 85.4672 29.6279 85.443 29.6279 85.4183C29.6279 85.34 29.6388 85.264 29.66 85.1923C29.7575 84.8528 30.07 84.6049 30.4409 84.6049C30.8117 84.6049 31.1242 84.8528 31.2217 85.1923C31.2429 85.264 31.2538 85.34 31.2538 85.4183Z" fill="#545058"/>
<path d="M27.2637 85.0262C27.2637 85.0822 27.261 85.1374 27.2555 85.1923C27.2257 85.5204 27.1059 85.8228 26.9211 86.0746C26.8404 85.9645 26.7472 85.8639 26.6438 85.7754C26.4421 85.6023 26.3266 85.3485 26.1492 85.1923C26.0536 85.1073 25.9401 85.0513 25.7854 85.0513C25.7188 85.0513 25.5904 85.1175 25.458 85.1923C25.3021 85.2804 25.1404 85.3806 25.0676 85.3983C24.6552 85.4985 24.2996 85.7425 24.0564 86.0746C23.8716 85.8228 23.7517 85.5204 23.722 85.1923C23.7165 85.1374 23.7138 85.0822 23.7138 85.0262C23.7138 84.0464 24.5083 83.2514 25.4886 83.2514C26.4691 83.2514 27.2637 84.0464 27.2637 85.0262Z" fill="#FAF7EB"/>
<path d="M27.2637 85.0262C27.2637 85.0822 27.261 85.1374 27.2555 85.1923H23.722C23.7165 85.1374 23.7138 85.0822 23.7138 85.0262C23.7138 84.0464 24.5083 83.2514 25.4886 83.2514C26.4691 83.2514 27.2637 84.0464 27.2637 85.0262Z" fill="#EBE6DB"/>
<path d="M26.6938 85.4178C26.6938 85.5384 26.6675 85.6527 26.6201 85.7553C26.3131 85.5008 25.9188 85.3481 25.4888 85.3481C25.3439 85.3481 25.2025 85.3653 25.0678 85.3986C25.0693 85.3269 25.0803 85.258 25.0995 85.1922C25.1974 84.8531 25.5099 84.6052 25.8804 84.6052C26.2512 84.6052 26.5641 84.8531 26.662 85.1922C26.6828 85.2639 26.6938 85.3395 26.6938 85.4178Z" fill="#545058"/>
<path d="M29.5993 86.3932C29.145 86.8474 28.4085 86.8474 27.9542 86.3932L27.7525 86.1914L28.575 85.3689C28.8579 85.086 29.3164 85.086 29.5993 85.3689C29.8821 85.6518 29.8821 86.1103 29.5993 86.3932Z" fill="#EBB99A"/>
<path d="M29.1815 76.8162C28.0527 76.8162 27.082 77.4905 26.6483 78.458C26.2147 77.4905 25.244 76.8162 24.1151 76.8162C22.5824 76.8162 21.3398 78.0587 21.3398 79.5916V82.8587H31.9568V79.5915C31.9569 78.0587 30.7143 76.8162 29.1815 76.8162Z" fill="#9D6B6B"/>
<path d="M25.4427 77.1545C25.2089 77.2822 24.9959 77.4424 24.8091 77.6292C24.3066 78.1312 23.9961 78.8252 23.9961 79.5916V82.8588H21.3398V79.5916C21.3398 78.8252 21.6503 78.1312 22.1528 77.6292C22.6548 77.1267 23.3487 76.8162 24.1151 76.8162C24.596 76.8162 25.0483 76.9388 25.4427 77.1545Z" fill="#8B5E5E"/>
<path d="M21.3398 81.1679H31.9568V82.6525H21.3398V81.1679Z" fill="#545058"/>
<path d="M21.3398 81.1679H23.9961V82.6525H21.3398V81.1679Z" fill="#423F46"/>
<path d="M34.9909 82.3921H18.478C18.478 83.5428 19.4109 84.4757 20.5617 84.4757H32.9072C34.058 84.4757 34.9909 83.5428 34.9909 82.3921Z" fill="#9D6B6B"/>
<path d="M25.2498 84.4758H20.5614C19.9861 84.4758 19.4653 84.2424 19.0882 83.8653C18.7114 83.4882 18.478 82.9673 18.478 82.3921H20.5269H23.166C23.166 82.9673 23.399 83.4882 23.7762 83.8653C24.1533 84.2424 24.6741 84.4758 25.2498 84.4758Z" fill="#8B5E5E"/>
<path d="M30.1195 87.8134C30.0443 87.8134 29.9691 87.7847 29.9118 87.7273C29.6556 87.4712 29.2389 87.4712 28.9827 87.7273C28.868 87.842 28.682 87.842 28.5674 87.7273C28.4526 87.6126 28.4526 87.4267 28.5674 87.312C29.0526 86.8268 29.842 86.8268 30.3272 87.312C30.4419 87.4267 30.4419 87.6126 30.3272 87.7273C30.2698 87.7847 30.1946 87.8134 30.1195 87.8134Z" fill="#EBB99A"/>
<path d="M32.3881 91.3279C32.1172 91.3279 31.8976 91.5475 31.8976 91.8184V93.445H32.8786V91.8184C32.8786 91.5475 32.659 91.3279 32.3881 91.3279Z" fill="#EBB99A"/>
<path d="M33.4343 94.6206L31.8976 95.2544V92.6088H33.4343V94.6206Z" fill="#F0CFBA"/>
<path d="M32.7506 95.0244L31.8976 95.2544V92.6088H32.7506V95.0244Z" fill="#EBB99A"/>
<path d="M33.5149 94.3257H33.1276C32.99 94.3257 32.8785 94.2141 32.8785 94.0766V90.1757H33.764V94.0766C33.764 94.2141 33.6525 94.3257 33.5149 94.3257Z" fill="#F5DD62"/>
<path d="M33.4401 94.3257H33.1275C32.9897 94.3257 32.8785 94.2144 32.8785 94.0766V90.1757H33.191V94.0766C33.191 94.2144 33.3022 94.3257 33.4401 94.3257Z" fill="#EEBE61"/>
<path d="M33.7097 94.0044H32.9244C32.3573 94.0044 31.8976 93.5447 31.8976 92.9776V92.609C31.8976 92.0419 32.3573 91.5822 32.9244 91.5822H33.7097C34.2768 91.5822 34.7366 92.0419 34.7366 92.609V92.9776C34.7366 93.5447 34.2768 94.0044 33.7097 94.0044Z" fill="#F0CFBA"/>
<path d="M33.7683 94.0027C33.7488 94.0039 33.7292 94.0043 33.7096 94.0043H32.9244C32.3574 94.0043 31.8976 93.5445 31.8976 92.9775V92.609C31.8976 92.0419 32.3574 91.5822 32.9244 91.5822H33.7096C33.7292 91.5822 33.7488 91.5826 33.7683 91.5837C33.2283 91.6139 32.7999 92.0615 32.7999 92.609V92.9775C32.7999 93.525 33.2283 93.9726 33.7683 94.0027Z" fill="#EBB99A"/>
<path d="M33.7428 94.4992C33.1753 94.9538 32.5574 95.3478 31.8987 95.6713V94.4992H33.7428Z" fill="#545058"/>
<path d="M33.8117 90.9516H33.1606C32.0161 90.9516 31.0883 90.0238 31.0883 88.8794V87.2613C31.0883 86.1168 32.0161 85.189 33.1606 85.189H33.8117V90.9516Z" fill="#EEBE61"/>
<path d="M33.8113 90.9516C32.6668 90.9516 31.7391 90.0238 31.7391 88.8793V87.2612C31.7391 86.1167 32.6668 85.189 33.8113 85.189C34.9558 85.189 35.8836 86.1167 35.8836 87.2612V88.8793C35.8836 90.0238 34.9558 90.9516 33.8113 90.9516Z" fill="#F5DD62"/>
<path d="M33.8124 90.1683C33.1016 90.1683 32.5233 89.5901 32.5233 88.8793V87.2612C32.5233 86.5504 33.1016 85.9722 33.8124 85.9722C34.5231 85.9722 35.1014 86.5504 35.1014 87.2612V88.8793C35.1014 89.5901 34.5231 90.1683 33.8124 90.1683Z" fill="#80B4FB"/>
<path d="M35.1012 87.2614V88.8795C35.1012 89.5899 34.5228 90.1683 33.8124 90.1683C33.7368 90.1683 33.6628 90.1617 33.5911 90.1495C34.1966 90.0438 34.6583 89.5143 34.6583 88.8795V87.2614C34.6583 86.6262 34.1966 86.0967 33.5911 85.991C33.6628 85.9788 33.7368 85.9722 33.8124 85.9722C34.5228 85.9722 35.1012 86.5506 35.1012 87.2614Z" fill="#61A2F9"/>
<path d="M31.2222 85.1923H29.6605C29.758 84.8528 30.0705 84.6049 30.4413 84.6049C30.8122 84.6049 31.1247 84.8528 31.2222 85.1923Z" fill="#423F46"/>
<path d="M26.6618 85.1922H25.0993C25.1972 84.8531 25.5097 84.6052 25.8802 84.6052C26.251 84.6052 26.5639 84.8531 26.6618 85.1922Z" fill="#423F46"/>
<path d="M33.1237 88.8214C32.9559 88.8214 32.8198 88.6853 32.8198 88.5175V87.1458C32.8198 86.978 32.9559 86.8419 33.1237 86.8419C33.2915 86.8419 33.4275 86.978 33.4275 87.1458V88.5175C33.4275 88.6853 33.2915 88.8214 33.1237 88.8214Z" fill="#A2D3FC"/>
<path d="M128.588 53.6042C128.239 53.2556 127.872 53.0578 127.767 53.1614C127.767 53.1614 127.647 53.2901 127.616 53.5068C127.584 53.7188 127.509 54.1144 127.305 54.3076C126.864 54.6954 126.433 55.0361 126.027 55.3281C126.075 55.1146 126.116 54.8979 126.138 54.6734C126.416 51.8362 124.342 49.313 121.505 49.0351C118.669 48.7572 116.144 50.8313 115.867 53.6685C115.854 53.7832 115.854 53.8962 115.851 54.0092C115.703 53.835 115.589 53.678 115.524 53.5508C115.064 52.6432 115.537 50.5518 115.537 50.5518L115.534 50.5534C115.562 50.3854 115.543 50.2441 115.465 50.1436C115.069 49.6365 113.372 50.3038 111.674 51.6305C109.974 52.9573 108.919 54.4442 109.314 54.9513C109.398 55.0581 109.542 55.1099 109.731 55.1178L109.726 55.1209C109.726 55.1209 110.875 55.0707 112.277 55.7254C112.971 56.0488 115.179 57.8027 116.532 58.3915C119.589 59.7229 121.29 59.3272 121.29 59.3272L121.283 59.321C122.257 59.2676 123.171 58.9441 123.937 58.4134L123.939 58.415C123.939 58.415 125.86 57.3363 128.048 54.8854C128.244 54.7362 128.531 54.653 128.701 54.6106C128.916 54.5572 129.032 54.4269 129.032 54.4269C129.136 54.3201 128.936 53.9527 128.588 53.6042ZM112.678 52.9761C111.654 53.769 110.72 54.2558 110.588 54.0642C110.458 53.8726 111.181 53.0735 112.207 52.2805C113.229 51.4876 114.163 51.0009 114.293 51.1925C114.425 51.384 113.7 52.1832 112.678 52.9761ZM120.679 57.4541C118.866 57.2767 117.54 55.6626 117.718 53.8491C117.895 52.0356 119.508 50.7104 121.323 50.8879C123.136 51.0653 124.461 52.6794 124.282 54.4928C124.105 56.3063 122.492 57.6315 120.679 57.4541Z" fill="#FCC21B"/>
<path d="M123.733 58.0963C123.727 57.9707 123.702 57.8403 123.664 57.7273C123.615 57.5781 123.543 57.385 123.444 57.2625C123.323 57.1134 123.174 56.9501 122.983 56.8779C122.87 56.8355 122.747 56.8417 122.639 56.8951C122.584 56.9218 122.532 56.9501 122.48 56.9799C121.949 57.2767 121.317 57.3096 120.723 57.261C120.547 57.2468 120.376 57.1997 120.2 57.195C120.15 57.1935 120.098 57.1935 120.048 57.2076C120.021 57.2154 119.933 57.25 119.959 57.2908C119.97 57.3081 120.001 57.3159 120.017 57.3285C120.149 57.4415 120.196 57.7069 120.221 57.867C120.295 58.3396 120.155 58.9504 119.747 59.2409C119.718 59.2613 119.687 59.2739 119.654 59.2864C119.607 59.3053 119.517 59.2786 119.552 59.3524C119.574 59.401 119.618 59.4419 119.66 59.4717C119.891 59.6334 120.244 59.6444 120.516 59.6585C121.113 59.6899 121.723 59.624 122.296 59.456C122.464 59.4073 122.629 59.3492 122.79 59.2817C123.228 59.0964 123.684 58.7369 123.732 58.2266C123.733 58.1858 123.735 58.1402 123.733 58.0963ZM120.054 60.5174C120.05 60.2944 119.94 60.0966 119.654 59.9914C119.305 59.8627 118.974 60.183 118.735 60.3918C118.572 60.5331 118.363 60.6697 118.272 60.8722C118.227 60.9712 118.235 61.0607 118.321 61.1313C118.341 61.147 118.396 61.1611 118.407 61.1831C118.421 61.213 118.388 61.2397 118.388 61.2711C118.39 61.3527 118.451 61.4202 118.52 61.4532C118.569 61.4767 118.615 61.4752 118.651 61.5144C118.68 61.5474 118.69 61.6102 118.728 61.6385C118.765 61.6667 118.825 61.6761 118.869 61.6856C118.919 61.6981 118.933 61.6981 118.979 61.7295C119.126 61.8269 119.447 61.896 119.58 61.7389C119.645 61.6636 119.687 61.5443 119.729 61.4532C119.863 61.1706 120.059 60.8377 120.054 60.5174Z" fill="#ED6C30"/>
<path d="M120.222 59.0635C120.217 59.1074 120.214 59.1482 120.21 59.1812C120.194 59.299 120.158 59.4199 120.103 59.5266C119.983 59.7574 119.819 59.9663 119.605 60.1154C119.539 60.161 119.338 60.2096 119.34 60.2897C119.34 60.3981 119.498 60.4985 119.589 60.4985C119.954 60.5001 120.199 60.2222 120.36 59.9302C120.503 59.6711 120.731 59.1985 120.557 58.908C120.502 58.8154 120.359 58.8436 120.283 58.9017C120.244 58.9316 120.23 58.9975 120.222 59.0635ZM123.582 60.5441C123.497 60.3368 123.524 60.1123 123.745 59.905C124.019 59.6507 124.449 59.8171 124.749 59.9176C124.953 59.9867 125.199 60.0306 125.361 60.1814C125.441 60.2552 125.468 60.3415 125.414 60.4389C125.402 60.4609 125.356 60.4954 125.356 60.519C125.355 60.5519 125.396 60.5645 125.407 60.5928C125.438 60.6665 125.408 60.7545 125.356 60.811C125.32 60.8518 125.278 60.8691 125.261 60.9178C125.245 60.9602 125.261 61.0214 125.237 61.0622C125.214 61.103 125.162 61.1344 125.124 61.1611C125.082 61.191 125.071 61.1972 125.039 61.2444C124.94 61.3919 124.672 61.5788 124.49 61.4861C124.4 61.4422 124.315 61.348 124.24 61.2805C124.011 61.0716 123.701 60.8408 123.582 60.5441Z" fill="#ED6C30"/>
<path d="M123.253 58.8107C123.254 58.8546 123.251 58.897 123.254 58.9284C123.26 59.0478 123.287 59.1718 123.333 59.2817C123.433 59.5204 123.579 59.7433 123.782 59.9082C123.843 59.9584 124.039 60.0244 124.031 60.1029C124.022 60.2112 123.855 60.2976 123.764 60.2913C123.402 60.263 123.182 59.9678 123.042 59.6632C122.92 59.3932 122.728 58.9033 122.926 58.6285C122.99 58.5406 123.128 58.5799 123.201 58.6442C123.24 58.6772 123.249 58.7447 123.253 58.8107Z" fill="#ED6C30"/>
<defs>
<linearGradient id="paint0_linear_124_9737" x1="82" y1="-3.20313" x2="85.907" y2="250.574" gradientUnits="userSpaceOnUse">
<stop stop-color="#A52EC2"/>
<stop offset="0.98388" stop-color="#F4C6FF"/>
</linearGradient>
</defs>
</svg>
