<svg width="29" height="29" viewBox="0 0 29 29" fill="none" xmlns="http://www.w3.org/2000/svg">
<path d="M23.3359 0H5.66406C2.53589 0 0 2.53589 0 5.66406V23.3359C0 26.4641 2.53589 29 5.66406 29H23.3359C26.4641 29 29 26.4641 29 23.3359V5.66406C29 2.53589 26.4641 0 23.3359 0Z" fill="#FFDA24"/>
<path d="M29 19.9375V23.3359C29 26.4642 26.4642 29 23.3359 29H5.66406C2.5358 29 0 26.4642 0 23.3359V19.9375C0 23.0658 2.5358 25.6016 5.66406 25.6016H23.3359C26.4642 25.6016 29 23.0658 29 19.9375Z" fill="#FFC024"/>
<path d="M8.84881 15.1451H20.1526C21.0192 15.1451 21.7227 15.8486 21.7227 16.7152V16.7429C21.7227 20.7134 18.4992 23.9369 14.5287 23.9369H14.501C10.5152 23.9369 7.2793 20.701 7.2793 16.7152C7.2793 15.8486 7.98277 15.1451 8.84938 15.1451H8.84881Z" fill="#473535"/>
<path d="M18.9631 22.4076C17.7408 23.3654 16.2013 23.9369 14.5276 23.9369H14.4999C12.8182 23.9369 11.2713 23.3625 10.0439 22.3985C11.0516 21.0335 12.6726 20.1476 14.4999 20.1476C16.3271 20.1476 17.9555 21.0369 18.9631 22.4076Z" fill="#FF7E27"/>
<path d="M20.9363 15.3558V15.7733C20.9363 16.8132 20.0929 17.6571 19.0524 17.6571H9.94686C8.90637 17.6571 8.06299 16.8132 8.06299 15.7733V15.3558C8.29408 15.2222 8.56199 15.1457 8.84803 15.1457H20.1518C20.4373 15.1457 20.7057 15.2222 20.9368 15.3558H20.9363Z" fill="white"/>
<path d="M21.0155 13.1718C20.8473 13.1718 20.6774 13.1293 20.5211 13.0392L17.0201 11.02C16.7131 10.8433 16.5239 10.5159 16.5239 10.1613C16.5239 9.80676 16.7131 9.47994 17.0201 9.30265L20.5211 7.28342C20.9951 7.00984 21.6018 7.17297 21.8748 7.64705C22.1483 8.12113 21.9858 8.72719 21.5111 9.00076L19.4993 10.1613L21.5111 11.3219C21.9852 11.5955 22.1483 12.2015 21.8748 12.6756C21.6912 12.9939 21.3576 13.1718 21.015 13.1718H21.0155Z" fill="#473535"/>
<path d="M7.98375 13.1718C8.15197 13.1718 8.32189 13.1293 8.47822 13.0392L11.9792 11.02C12.2862 10.8433 12.4754 10.5159 12.4754 10.1613C12.4754 9.80676 12.2862 9.47994 11.9792 9.30265L8.47822 7.28342C8.00414 7.00984 7.39752 7.17297 7.12451 7.64705C6.85094 8.12113 7.0135 8.72719 7.48815 9.00076L9.50002 10.1613L7.48815 11.3219C7.01406 11.5955 6.85094 12.2015 7.12451 12.6756C7.30803 12.9939 7.64164 13.1718 7.98432 13.1718H7.98375Z" fill="#473535"/>
<path d="M5.62442 5.16052C5.7377 5.80339 6.46837 6.12624 7.01835 5.7745C7.52018 5.45335 8.16532 5.14013 8.90505 5.00985C9.64477 4.87958 10.3584 4.95265 10.9396 5.08292C11.5768 5.22565 12.1528 4.67227 12.0395 4.0294C11.9874 3.73544 11.7965 3.48339 11.5252 3.35821C10.9906 3.11239 9.98065 2.8071 8.56124 3.05688C7.14182 3.30724 6.29731 3.93991 5.87874 4.35339C5.66633 4.56352 5.57288 4.86542 5.62499 5.15995L5.62442 5.16052Z" fill="#473535"/>
<path d="M23.3757 5.16052C23.2625 5.80339 22.5318 6.12624 21.9818 5.7745C21.48 5.45335 20.8348 5.14013 20.0951 5.00985C19.3554 4.87958 18.6417 4.95265 18.0606 5.08292C17.4234 5.22565 16.8473 4.67227 16.9606 4.0294C17.0127 3.73544 17.2036 3.48339 17.4749 3.35821C18.0096 3.11239 19.0195 2.8071 20.4389 3.05688C21.8583 3.30724 22.7028 3.93991 23.1214 4.35339C23.3338 4.56352 23.4273 4.86542 23.3752 5.15995L23.3757 5.16052Z" fill="#473535"/>
<path d="M28.3291 15.9347C29.347 17.1479 29.1889 18.9571 27.9757 19.9749C26.7624 20.9927 24.9533 20.8347 23.9355 19.6214C22.9177 18.4082 22.3003 13.2114 22.3003 13.2114C22.3003 13.2114 27.3107 14.7215 28.3291 15.9347Z" fill="#00C3FF"/>
<path d="M26.0604 15.5739C26.5441 16.1499 26.4688 17.0092 25.8927 17.4923C25.3167 17.976 24.4574 17.9007 23.9743 17.3247C23.4906 16.7486 23.1978 14.2808 23.1978 14.2808C23.1978 14.2808 25.5772 14.9979 26.0609 15.5739H26.0604Z" fill="#7BDAFF"/>
<path d="M0.671392 15.9347C-0.34644 17.1479 -0.188413 18.9571 1.02483 19.9749C2.23807 20.9927 4.04717 20.8347 5.06501 19.6214C6.08284 18.4082 6.70022 13.2114 6.70022 13.2114C6.70022 13.2114 1.68979 14.7215 0.671392 15.9347Z" fill="#00C3FF"/>
<path d="M2.93988 15.5739C2.45617 16.1499 2.5315 17.0092 3.10754 17.4923C3.68357 17.9755 4.54281 17.9007 5.02596 17.3247C5.50967 16.7486 5.8025 14.2808 5.8025 14.2808C5.8025 14.2808 3.42303 14.9979 2.93932 15.5739H2.93988Z" fill="#7BDAFF"/>
</svg>
