<svg width="34" height="35" viewBox="0 0 34 35" fill="none" xmlns="http://www.w3.org/2000/svg">
<path d="M24.2451 24.3289L1.15275 34.7446C1.00157 34.813 0.833135 34.8337 0.669892 34.804C0.506648 34.7742 0.35635 34.6954 0.239029 34.5781C0.121707 34.4607 0.0429339 34.3104 0.0132067 34.1472C-0.0165204 33.9839 0.00421041 33.8155 0.0726366 33.6643L10.4063 10.729L24.2451 24.3289Z" fill="#FFDF40"/>
<path d="M24.245 24.3289L1.15272 34.7446C0.983631 34.823 0.792637 34.8406 0.6121 34.7943C0.431563 34.748 0.272586 34.6407 0.162109 34.4906L23.0235 23.1284L24.245 24.3289Z" fill="#FFBE40"/>
<path d="M10.0962 30.7108L6.65235 32.2644C5.86457 31.8978 4.92093 31.3655 4.20527 30.6498C3.49873 29.9433 2.96893 29.0491 2.55273 28.1602L4.11134 24.7009C4.67349 26.0024 5.31318 27.4168 6.37576 28.4794C7.44826 29.5516 8.89183 30.2548 10.0962 30.7108Z" fill="#FF5959"/>
<path d="M8.84822 30.174C9.27582 30.3825 9.699 30.5606 10.0962 30.7109L6.65242 32.2646C6.34206 32.1202 6.00753 31.9496 5.67236 31.7527L8.84822 30.174Z" fill="#E63A57"/>
<path d="M4.91535 4.15027L5.94323 2.75651C5.99123 2.6914 6.05736 2.64188 6.13336 2.61414C6.20935 2.5864 6.29183 2.58168 6.37049 2.60056C6.44915 2.61944 6.52051 2.66109 6.57563 2.7203C6.63075 2.77951 6.66719 2.85366 6.68041 2.93347L6.96348 4.64201L8.60668 5.18884C8.68344 5.21438 8.75096 5.26198 8.80082 5.32569C8.85067 5.38939 8.88064 5.46638 8.88699 5.54703C8.89333 5.62767 8.87576 5.7084 8.83647 5.77912C8.79719 5.84983 8.73794 5.9074 8.66611 5.94463L7.12875 6.74182L7.11642 8.4736C7.11584 8.55449 7.09142 8.63342 7.04624 8.70051C7.00105 8.76761 6.93709 8.81991 6.86235 8.85086C6.78762 8.88182 6.70541 8.89006 6.62602 8.87456C6.54662 8.85907 6.47355 8.82051 6.41594 8.76372L5.18303 7.54791L3.53199 8.0713C3.45487 8.09577 3.37225 8.09697 3.29445 8.07474C3.21666 8.05251 3.14714 8.00784 3.09459 7.94632C3.04205 7.88479 3.00881 7.80914 2.99903 7.72882C2.98925 7.6485 3.00336 7.56709 3.03961 7.49475L3.81478 5.94619L2.80685 4.53796C2.75977 4.47218 2.73313 4.39397 2.73024 4.31313C2.72736 4.23228 2.74836 4.15238 2.79063 4.0834C2.8329 4.01443 2.89456 3.95944 2.96791 3.92531C3.04126 3.89118 3.12303 3.87942 3.20302 3.8915L4.91535 4.15027Z" fill="#FF5959"/>
<path d="M30.0476 27.3544C30.1238 27.3429 30.2017 27.3541 30.2715 27.3866C30.3414 27.4191 30.4001 27.4715 30.4404 27.5372C30.4806 27.6029 30.5006 27.679 30.4979 27.756C30.4951 27.833 30.4698 27.9074 30.4249 27.9701L29.4652 29.3116L30.2035 30.7868C30.2379 30.8557 30.2512 30.9332 30.2418 31.0096C30.2325 31.0861 30.2008 31.158 30.1508 31.2166C30.1007 31.2751 30.0346 31.3176 29.9605 31.3388C29.8865 31.3599 29.8079 31.3588 29.7345 31.3356L28.1623 30.8367L26.9877 31.9948C26.9329 32.0489 26.8633 32.0856 26.7876 32.1004C26.712 32.1151 26.6337 32.1073 26.5625 32.0778C26.4914 32.0483 26.4304 31.9985 26.3874 31.9346C26.3444 31.8707 26.3211 31.7955 26.3206 31.7184L26.3088 30.0691L24.8446 29.3098C24.7762 29.2743 24.7198 29.2195 24.6825 29.1521C24.6451 29.0847 24.6284 29.0078 24.6345 28.931C24.6406 28.8542 24.6692 28.7809 24.7167 28.7203C24.7642 28.6597 24.8285 28.6143 24.9016 28.59L26.4666 28.0692L26.7362 26.4421C26.7488 26.3661 26.7835 26.2954 26.836 26.2391C26.8885 26.1827 26.9565 26.143 27.0314 26.125C27.1063 26.107 27.1849 26.1115 27.2572 26.1379C27.3296 26.1643 27.3926 26.2115 27.4383 26.2734L28.417 27.6012L30.0476 27.3544Z" fill="#94E671"/>
<path d="M33.3713 4.33978C33.4227 4.33186 33.4752 4.3393 33.5224 4.36115C33.5695 4.38301 33.6092 4.4183 33.6363 4.46261C33.6635 4.50692 33.6769 4.55826 33.675 4.61018C33.6731 4.66211 33.6558 4.71231 33.6255 4.75448L32.6433 6.12665L33.3988 7.63565C33.4222 7.68205 33.4313 7.73432 33.4251 7.78592C33.4189 7.83751 33.3976 7.88612 33.3639 7.92563C33.3301 7.96515 33.2854 7.99382 33.2354 8.00803C33.1855 8.02224 33.1324 8.02137 33.0829 8.00552L31.4743 7.49547L30.2725 8.67992C30.2356 8.7165 30.1887 8.74137 30.1377 8.7514C30.0868 8.76142 30.0339 8.75616 29.9859 8.73628C29.9379 8.71639 29.8969 8.68276 29.8679 8.63962C29.839 8.59647 29.8234 8.54573 29.8232 8.49377L29.8112 6.80632L28.3131 6.02951C28.267 6.00569 28.2289 5.9688 28.2037 5.92344C28.1784 5.87808 28.1672 5.82629 28.1712 5.77454C28.1753 5.7228 28.1945 5.6734 28.2266 5.63255C28.2586 5.5917 28.302 5.56121 28.3512 5.5449L29.9524 5.01204L30.2282 3.34725C30.2366 3.29596 30.2599 3.24829 30.2953 3.21021C30.3306 3.17213 30.3764 3.14534 30.427 3.13322C30.4775 3.12109 30.5305 3.12416 30.5793 3.14204C30.628 3.15992 30.6705 3.19181 30.7012 3.23372L31.7028 4.59185L33.3713 4.33978Z" fill="#FFDF40"/>
<path d="M18.4356 22.3702L7.66453 29.5078C6.71925 28.8872 5.98977 28.1815 5.48584 27.3866L12.395 16.2904L18.4356 22.3702Z" fill="#FCA338"/>
<path d="M15.2124 19.6422C11.3541 15.7838 9.39259 11.4898 10.8312 10.0512C12.2699 8.61264 16.5639 10.5741 20.4222 14.4324C24.2805 18.2907 26.2418 22.5848 24.8034 24.0236C23.3651 25.4625 19.0708 23.5005 15.2124 19.6422Z" fill="#C47641"/>
<path d="M6.38665 2.60558L5.18274 7.54785L3.53199 8.0713C3.45488 8.09574 3.37227 8.09692 3.29449 8.07468C3.21671 8.05243 3.14721 8.00777 3.09468 7.94625C3.04214 7.88473 3.0089 7.8091 2.99911 7.7288C2.98931 7.6485 3.0034 7.56709 3.03961 7.49476L3.81478 5.9462L2.80685 4.53797C2.75977 4.47218 2.73313 4.39398 2.73024 4.31313C2.72736 4.23229 2.74836 4.15238 2.79063 4.08341C2.8329 4.01443 2.89456 3.95944 2.96791 3.92531C3.04126 3.89118 3.12303 3.87943 3.20302 3.89151L4.91535 4.15028L5.94323 2.75652C5.99244 2.68857 6.06152 2.63757 6.14094 2.61053C6.22035 2.5835 6.3062 2.58177 6.38665 2.60558Z" fill="#E63A57"/>
<path d="M31.4743 7.49546L30.2726 8.67992C30.2356 8.71635 30.1887 8.74109 30.1378 8.75104C30.0869 8.76098 30.0341 8.75569 29.9862 8.73583C29.9382 8.71597 29.8972 8.68241 29.8682 8.63936C29.8392 8.59631 29.8235 8.54567 29.8232 8.49377L29.8112 6.80632L28.3131 6.02951C28.267 6.00569 28.2289 5.96879 28.2037 5.92344C28.1784 5.87808 28.1672 5.82628 28.1712 5.77454C28.1753 5.72279 28.1945 5.6734 28.2266 5.63255C28.2586 5.5917 28.302 5.56121 28.3512 5.5449L29.9524 5.01203L30.2282 3.34724C30.2361 3.2967 30.2587 3.24961 30.2933 3.21188C30.3278 3.17415 30.3727 3.14746 30.4224 3.13515L31.4743 7.49546Z" fill="#FFBE40"/>
<path d="M27.022 26.1277L28.1623 30.8368L26.9877 31.9948C26.9329 32.0489 26.8633 32.0856 26.7876 32.1004C26.712 32.1151 26.6337 32.1073 26.5625 32.0778C26.4914 32.0483 26.4304 31.9985 26.3874 31.9346C26.3444 31.8707 26.3211 31.7955 26.3206 31.7184L26.3089 30.0691L24.8446 29.3099C24.7762 29.2744 24.7198 29.2195 24.6825 29.1522C24.6451 29.0848 24.6284 29.0079 24.6345 28.9311C24.6406 28.8543 24.6692 28.781 24.7167 28.7204C24.7642 28.6597 24.8285 28.6144 24.9016 28.5901L26.4666 28.0693L26.7362 26.4421C26.7478 26.3675 26.7811 26.2979 26.8319 26.242C26.8827 26.1861 26.9488 26.1464 27.022 26.1277Z" fill="#52CC7B"/>
<path d="M14.6176 5.69064C14.6176 5.53943 14.6777 5.39441 14.7846 5.28749C14.8915 5.18057 15.0365 5.1205 15.1877 5.1205H15.8011V4.50718C15.8011 4.35597 15.8611 4.21096 15.9681 4.10404C16.075 3.99712 16.22 3.93705 16.3712 3.93705C16.5224 3.93705 16.6674 3.99712 16.7743 4.10404C16.8813 4.21096 16.9413 4.35597 16.9413 4.50718V5.1205H17.5542C17.7054 5.1205 17.8505 5.18057 17.9574 5.28749C18.0643 5.39441 18.1244 5.53943 18.1244 5.69064C18.1244 5.84185 18.0643 5.98686 17.9574 6.09378C17.8505 6.2007 17.7054 6.26077 17.5542 6.26077H16.9413V6.87409C16.9413 7.0253 16.8813 7.17032 16.7743 7.27724C16.6674 7.38416 16.5224 7.44423 16.3712 7.44423C16.22 7.44423 16.075 7.38416 15.9681 7.27724C15.8611 7.17032 15.8011 7.0253 15.8011 6.87409V6.26077H15.1877C15.0365 6.26077 14.8915 6.2007 14.7846 6.09378C14.6777 5.98686 14.6176 5.84185 14.6176 5.69064ZM4.06815 14.232V13.6187H3.4549C3.30369 13.6187 3.15867 13.5586 3.05175 13.4517C2.94483 13.3448 2.88477 13.1998 2.88477 13.0486C2.88477 12.8974 2.94483 12.7523 3.05175 12.6454C3.15867 12.5385 3.30369 12.4784 3.4549 12.4784H4.06815V11.8655C4.06815 11.7143 4.12822 11.5693 4.23514 11.4624C4.34206 11.3555 4.48707 11.2954 4.63828 11.2954C4.78949 11.2954 4.93451 11.3555 5.04143 11.4624C5.14835 11.5693 5.20842 11.7143 5.20842 11.8655V12.4784H5.82174C5.97295 12.4784 6.11796 12.5385 6.22488 12.6454C6.3318 12.7523 6.39187 12.8974 6.39187 13.0486C6.39187 13.1998 6.3318 13.3448 6.22488 13.4517C6.11796 13.5586 5.97295 13.6187 5.82174 13.6187H5.20842V14.2319C5.20842 14.3832 5.14835 14.5282 5.04143 14.6351C4.93451 14.742 4.78949 14.8021 4.63828 14.8021C4.48707 14.8021 4.34206 14.742 4.23514 14.6351C4.12822 14.5282 4.06815 14.3832 4.06815 14.2319V14.232Z" fill="#80EAFF"/>
<path d="M17.8779 19.4107C17.8779 19.2595 17.938 19.1145 18.0449 19.0076C18.1518 18.9007 18.2968 18.8406 18.448 18.8406H19.0614V18.2273C19.0614 18.0761 19.1214 17.9311 19.2283 17.8242C19.3353 17.7172 19.4803 17.6572 19.6315 17.6572C19.7827 17.6572 19.9277 17.7172 20.0346 17.8242C20.1416 17.9311 20.2016 18.0761 20.2016 18.2273V18.8406H20.8149C20.9661 18.8406 21.1111 18.9007 21.218 19.0076C21.3249 19.1145 21.385 19.2595 21.385 19.4107C21.385 19.562 21.3249 19.707 21.218 19.8139C21.1111 19.9208 20.9661 19.9809 20.8149 19.9809H20.2016V20.5942C20.2016 20.7454 20.1416 20.8904 20.0346 20.9973C19.9277 21.1043 19.7827 21.1643 19.6315 21.1643C19.4803 21.1643 19.3353 21.1043 19.2283 20.9973C19.1214 20.8904 19.0614 20.7454 19.0614 20.5942V19.9809H18.448C18.2968 19.9809 18.1518 19.9208 18.0449 19.8139C17.938 19.707 17.8779 19.562 17.8779 19.4107ZM13.75 13.4645C13.75 13.3133 13.8101 13.1682 13.917 13.0613C14.0239 12.9544 14.1689 12.8943 14.3201 12.8943H14.9335V12.281C14.9335 12.1298 14.9935 11.9848 15.1004 11.8779C15.2074 11.771 15.3524 11.7109 15.5036 11.7109C15.6548 11.7109 15.7998 11.771 15.9067 11.8779C16.0137 11.9848 16.0737 12.1298 16.0737 12.281V12.8943H16.6866C16.8378 12.8943 16.9828 12.9544 17.0898 13.0613C17.1967 13.1682 17.2567 13.3133 17.2567 13.4645C17.2567 13.6157 17.1967 13.7607 17.0898 13.8676C16.9828 13.9745 16.8378 14.0346 16.6866 14.0346H16.0737V14.6479C16.0737 14.7991 16.0137 14.9442 15.9067 15.0511C15.7998 15.158 15.6548 15.2181 15.5036 15.2181C15.3524 15.2181 15.2074 15.158 15.1004 15.0511C14.9935 14.9442 14.9335 14.7991 14.9335 14.6479V14.0346H14.3201C14.1689 14.0346 14.0239 13.9745 13.917 13.8676C13.8101 13.7607 13.75 13.6157 13.75 13.4645Z" fill="#CBF3F9"/>
<path d="M27.3165 16.6452V17.2585H27.9298C28.081 17.2585 28.2261 17.3186 28.333 17.4255C28.4399 17.5324 28.5 17.6774 28.5 17.8286C28.5 17.9798 28.4399 18.1249 28.333 18.2318C28.2261 18.3387 28.081 18.3988 27.9298 18.3988H27.3165V19.0121C27.3165 19.1633 27.2564 19.3083 27.1495 19.4152C27.0426 19.5222 26.8976 19.5822 26.7464 19.5822C26.5952 19.5822 26.4501 19.5222 26.3432 19.4152C26.2363 19.3083 26.1762 19.1633 26.1762 19.0121V18.3988H25.5629C25.4117 18.3988 25.2667 18.3387 25.1598 18.2318C25.0528 18.1249 24.9928 17.9798 24.9928 17.8286C24.9928 17.6774 25.0528 17.5324 25.1598 17.4255C25.2667 17.3186 25.4117 17.2585 25.5629 17.2585H26.1762V16.6452C26.1762 16.494 26.2363 16.349 26.3432 16.242C26.4501 16.1351 26.5952 16.075 26.7464 16.075C26.8976 16.075 27.0426 16.1351 27.1495 16.242C27.2564 16.349 27.3165 16.494 27.3165 16.6452ZM20.8749 31.2572C20.8749 31.4084 20.8148 31.5534 20.7079 31.6603C20.6009 31.7673 20.4559 31.8273 20.3047 31.8273H19.6914V32.4406C19.6914 32.5918 19.6313 32.7368 19.5244 32.8437C19.4175 32.9506 19.2725 33.0107 19.1213 33.0107C18.9701 33.0107 18.825 32.9506 18.7181 32.8437C18.6112 32.7368 18.5511 32.5918 18.5511 32.4406V31.8273H17.9378C17.7866 31.8273 17.6416 31.7673 17.5347 31.6603C17.4277 31.5534 17.3677 31.4084 17.3677 31.2572C17.3677 31.106 17.4277 30.961 17.5347 30.8541C17.6416 30.7471 17.7866 30.6871 17.9378 30.6871H18.5511V30.0742C18.5511 29.923 18.6112 29.7779 18.7181 29.671C18.825 29.5641 18.9701 29.504 19.1213 29.504C19.2725 29.504 19.4175 29.5641 19.5244 29.671C19.6313 29.7779 19.6914 29.923 19.6914 30.0742V30.6871H20.3047C20.4559 30.6871 20.6009 30.7471 20.7079 30.8541C20.8148 30.961 20.8749 31.106 20.8749 31.2572Z" fill="#94E671"/>
<path d="M30.4459 20.8689C30.4103 20.9353 30.3618 20.9939 30.3034 21.0414C30.2449 21.0889 30.1776 21.1244 30.1054 21.1458C30.0331 21.1671 29.9574 21.1739 29.8825 21.1658C29.8076 21.1577 29.735 21.1349 29.669 21.0986C29.603 21.0623 29.5449 21.0132 29.4979 20.9543C29.451 20.8954 29.4161 20.8278 29.3955 20.7553C29.3748 20.6829 29.3687 20.6071 29.3775 20.5323C29.3864 20.4575 29.4099 20.3851 29.4469 20.3195C30.5046 18.3961 30.2956 16.5443 28.8881 15.3658C27.6043 14.291 25.306 13.903 23.5754 15.3012C23.4578 15.3963 23.3072 15.4407 23.1569 15.4247C23.0065 15.4087 22.8686 15.3337 22.7736 15.216C22.6786 15.0984 22.6342 14.9479 22.6502 14.7975C22.6661 14.6471 22.7412 14.5093 22.8588 14.4142C23.8473 13.621 25.0891 13.2114 26.3555 13.2609C27.5499 13.2986 28.698 13.7315 29.62 14.4916C31.0544 15.6926 32.0246 17.9984 30.4459 20.8689Z" fill="#DF6B57"/>
<path d="M17.8852 3.50232C17.9004 3.35188 17.9747 3.21363 18.0918 3.11799C18.209 3.02235 18.3593 2.97715 18.5097 2.99234C20.8602 3.22952 22.62 4.62321 23.1023 6.62944C23.5793 8.61357 22.633 10.6467 20.6328 11.9356C20.5057 12.0165 20.3518 12.0439 20.2046 12.0116C20.0574 11.9794 19.929 11.8902 19.8473 11.7635C19.7657 11.6369 19.7376 11.4831 19.769 11.3357C19.8005 11.1884 19.8889 11.0594 20.0152 10.9771C21.6198 9.94312 22.3593 8.41752 21.9936 6.89597C21.6278 5.37443 20.2491 4.31391 18.3951 4.12683C18.2447 4.11163 18.1065 4.03729 18.0108 3.92018C17.9152 3.80306 17.87 3.65276 17.8852 3.50232Z" fill="#CBF3F9"/>
<path d="M33.995 10.7395C33.985 10.8137 33.9604 10.8852 33.9228 10.9499C33.8851 11.0146 33.8351 11.0713 33.7755 11.1167C33.7159 11.162 33.648 11.1952 33.5756 11.2144C33.5032 11.2335 33.4278 11.2382 33.3536 11.2281C30.201 10.802 27.0779 11.246 24.0716 12.548C24.0029 12.5777 23.929 12.5937 23.8541 12.5949C23.7793 12.5961 23.7049 12.5825 23.6353 12.5549C23.5657 12.5274 23.5022 12.4864 23.4484 12.4343C23.3946 12.3822 23.3516 12.32 23.3218 12.2513C23.2921 12.1826 23.2762 12.1087 23.275 12.0339C23.2738 11.959 23.2873 11.8846 23.3149 11.815C23.3424 11.7454 23.3834 11.6819 23.4355 11.6281C23.4876 11.5743 23.5498 11.5313 23.6185 11.5016C26.8184 10.116 30.145 9.64387 33.5064 10.0982C33.6562 10.1185 33.7919 10.1974 33.8835 10.3177C33.9751 10.4379 34.0152 10.5897 33.995 10.7395Z" fill="#FFDF40"/>
<path d="M24.0031 9.22974C26.0534 6.87651 26.716 4.08094 26.0286 0.683227C25.9986 0.535014 26.0287 0.38096 26.1123 0.254954C26.1959 0.128948 26.3262 0.0413118 26.4744 0.0113252C26.6226 -0.0186614 26.7767 0.0114576 26.9027 0.0950563C27.0287 0.178655 27.1163 0.308885 27.1463 0.457098C27.898 4.17337 27.1298 7.37709 24.8628 9.97882C24.7635 10.0928 24.6229 10.1627 24.4721 10.1731C24.3212 10.1835 24.1724 10.1335 24.0584 10.0342C23.9444 9.93483 23.8745 9.79427 23.8641 9.64341C23.8538 9.49255 23.9037 9.34375 24.0031 9.22974Z" fill="#80EAFF"/>
</svg>
