<svg width="35" height="35" viewBox="0 0 35 35" fill="none" xmlns="http://www.w3.org/2000/svg">
<path d="M31.7188 11.5938C33.8516 10.1719 33.9062 8.09375 33.9062 8.09375C31.7734 7.98438 31.8281 5.79688 29.8594 3.82812C27.2344 1.20312 23.8984 2.84375 23.8984 2.84375C24.0625 2.02344 23.625 1.53125 23.9531 1.09375C19.4688 1.09375 17.5 3.00781 17.5 3.00781C17.5 3.00781 15.5312 1.09375 11.0469 1.09375C11.3203 1.53125 10.9375 2.02344 11.1016 2.84375C11.1016 2.84375 7.71094 1.14844 5.14062 3.82812C3.17187 5.85156 3.22656 8.03906 1.09375 8.09375C1.09375 8.09375 1.14844 10.1719 3.28125 11.5938C3.28125 11.5938 1.03906 13.7266 1.42187 18.2109C1.42187 18.2109 2.29688 17.1172 4.42969 16.7344C1.96875 18.8125 3.39062 21.875 1.58594 23.9531C1.58594 23.9531 4.10156 24.5 5.14062 23.7891C4.75781 27.0156 6.72656 28.2734 6.72656 29.8594C8.96875 29.1484 9.29688 26.9062 9.29688 26.9062C9.29688 31.0078 10.7188 30.8438 10.7188 33.0312C10.7188 33.0312 13.1797 32.6484 14.2188 30.5703C14.6016 32.4844 16.5703 32.7031 17.6094 33.9062C18.6484 32.7031 20.5625 32.4844 21 30.5703C22.0391 32.5938 24.5 33.0312 24.5 33.0312C24.5 30.8438 25.9219 31.0078 25.9219 26.9062C25.9219 26.9062 26.25 29.0938 28.4922 29.8594C28.4922 28.2734 30.4609 27.0156 30.0781 23.7891C31.1172 24.5 33.6328 23.9531 33.6328 23.9531C31.8281 21.8203 33.25 18.7578 30.7891 16.7344C32.8672 17.1719 33.7969 18.2109 33.7969 18.2109C33.9609 13.6719 31.7188 11.5938 31.7188 11.5938Z" fill="#8F6B51"/>
<path d="M30.4604 3.88282C29.0386 2.73438 24.937 3.99219 23.3511 5.96094C25.2651 6.61719 27.5073 8.25782 29.2026 12.1953C32.7573 10.4453 31.937 5.08594 30.4604 3.88282Z" fill="#E5BC5E"/>
<path d="M28.438 10.6641C30.5161 9.78905 30.0786 6.83593 29.2583 6.17968C28.5474 5.57812 26.4692 6.17968 25.5942 7.16405C26.5786 7.92968 27.563 9.07812 28.438 10.6641Z" fill="#3E4347"/>
<path d="M11.6482 5.96094C10.0623 3.99219 5.96074 2.73438 4.53886 3.88282C3.0623 5.08594 2.1873 10.4453 5.79667 12.1953C7.54667 8.31251 9.73417 6.61719 11.6482 5.96094Z" fill="#E5BC5E"/>
<path d="M6.56293 10.6641C7.43793 9.07812 8.4223 7.92968 9.40668 7.16405C8.47699 6.17968 6.45355 5.57812 5.74261 6.17968C4.9223 6.83593 4.4848 9.78905 6.56293 10.6641Z" fill="#3E4347"/>
<path d="M26.7425 15.6953C27.016 14.4922 25.8675 11.7031 24.8285 11.1563C24.6644 11.0469 24.0082 11.1563 24.0082 11.1563C23.7894 10.8828 22.7504 7.87501 20.016 7.32814C18.3754 7.0547 17.5004 8.42189 17.5004 8.42189C17.5004 8.42189 16.6254 7.00001 14.9847 7.32814C12.2504 7.82032 11.1566 10.8828 10.9925 11.1563C10.9925 11.1563 10.3363 11.0469 10.1722 11.1563C9.13317 11.7578 8.03942 14.4922 8.25817 15.6953C8.5863 17.1719 11.1566 18.6484 11.1566 21.1641H23.9535C23.8988 18.6484 26.4691 17.1719 26.7425 15.6953Z" fill="#E5BC5E"/>
<path d="M17.4995 8.96877L16.7886 10.3906L17.4995 14.8203L18.2104 10.3906L17.4995 8.96877Z" fill="white"/>
<path d="M23.4609 14.2188C23.4609 15.1484 22.8594 15.8594 22.1484 15.8594C21.4375 15.8594 20.8359 15.1484 20.8359 14.2188C20.8359 13.2891 21.4375 12.5781 22.1484 12.5781C22.8594 12.5781 23.4609 13.3438 23.4609 14.2188ZM11.5391 14.2188C11.5391 15.1484 12.1406 15.8594 12.8516 15.8594C13.5625 15.8594 14.1641 15.1484 14.1641 14.2188C14.1641 13.2891 13.5625 12.5781 12.8516 12.5781C12.1406 12.5781 11.5391 13.3438 11.5391 14.2188Z" fill="#3E4347"/>
<path d="M11.2109 22.8594C11.2109 26.3594 15.4219 29.0391 15.4219 29.0391C15.3672 28.3281 15.5859 27.7812 15.5859 27.7812C15.75 28.8203 16.2422 29.5859 16.2422 29.5859C16.2422 28.7109 16.6797 28.3281 16.6797 28.3281C17.1172 29.5312 17.5547 30.0234 17.5547 30.0234C17.5547 30.0234 17.9922 29.5312 18.4297 28.3281C18.4297 28.3281 18.8672 28.7109 18.8672 29.5859C18.8672 29.5859 19.3594 28.8203 19.5234 27.7812C19.5234 27.7812 19.7422 28.3828 19.6875 29.0391C19.6875 29.0391 23.8984 26.3594 23.8984 22.8594H11.2109Z" fill="white"/>
<path d="M23.6804 19.9609C23.5163 19.6328 20.7273 17.3906 20.7273 17.3906H14.2741C14.2741 17.3906 11.5398 19.5781 11.321 19.9609C11.0476 20.5078 10.9929 22.2578 11.2116 22.8047C11.2116 22.8047 13.8913 26.8516 17.5007 23.3516C21.1101 26.8516 23.7898 22.8047 23.7898 22.8047C24.0085 22.2578 23.9538 20.5078 23.6804 19.9609Z" fill="#FFDA87"/>
<path d="M18.0469 23.3516V20.125L20.125 19.25C20.4531 19.086 20.7266 18.7031 20.7266 18.375V17.4453H14.2734V18.375C14.2734 18.7031 14.5469 19.086 14.875 19.25L16.9531 20.125V23.3516C14.2187 25.8672 11.5391 23.1328 11.2656 22.8594C11.5938 23.3516 14.2187 27.7266 17.5547 24.2813C20.8359 27.7266 23.5156 23.2969 23.8437 22.8594C23.5156 23.1875 20.7812 25.9219 18.0469 23.3516Z" fill="#3E4347"/>
<path d="M20.7261 17.4453C19.8511 15.8594 19.7417 15.75 18.9761 15.3672C18.3198 15.0937 16.7339 15.0937 16.0776 15.3672C15.312 15.6953 15.2026 15.8594 14.3276 17.4453H20.7261Z" fill="#FFDA87"/>
<path d="M17.5 16.5703C15.4219 16.5703 14.2734 17.4453 14.2734 17.4453C14.2734 17.4453 14.3828 17.3906 15.5312 18.2109C16.2422 18.7578 16.8437 20.1797 17.5 20.1797C18.1562 20.1797 18.7578 18.7578 19.4687 18.2109C20.6172 17.3359 20.7266 17.4453 20.7266 17.4453C20.7266 17.4453 19.5781 16.5703 17.5 16.5703Z" fill="#AF7751"/>
</svg>
