<svg width="36" height="35" viewBox="0 0 36 35" fill="none" xmlns="http://www.w3.org/2000/svg">
<path d="M28.7046 6.97376L27.8296 6.53954C27.1734 6.21251 26.6265 5.88657 26.189 5.34188L24.5473 3.7111C23.2348 2.51454 21.3743 2.07923 19.7326 2.62282C18.6388 2.94876 17.4357 2.94876 16.342 2.62282C14.8096 1.86157 13.0596 2.18751 11.8554 3.27579L9.88665 5.34298C9.33978 5.7772 8.7929 6.21251 8.24603 6.53954L7.36993 6.97376C5.83868 7.7361 4.96368 9.47626 5.18243 11.2175L6.38556 17.418C6.49493 18.0699 7.04181 18.5052 7.69806 18.5052C14.172 18.5052 21.2813 18.6145 28.3765 18.6145C29.0327 18.6145 29.4702 18.1792 29.5796 17.5263L30.7827 11.3247C31.1109 9.47626 30.2359 7.7361 28.7046 6.97376Z" fill="#212121"/>
<path d="M28.5244 16.4774C28.4423 17.488 28.3767 18.6145 28.3767 18.6145C29.0329 18.6145 29.4704 18.1792 29.5798 17.5263L29.687 16.9728C30.3614 17.4309 30.8412 18.1237 31.0328 18.9161C31.2243 19.7086 31.114 20.544 30.7234 21.2595C30.3327 21.9751 29.6896 22.5196 28.9194 22.787C28.1492 23.0543 27.307 23.0254 26.557 22.7058C25.807 22.3861 25.2028 21.7987 24.8622 21.058C24.5216 20.3173 24.4689 19.4763 24.7145 18.6989C24.9601 17.9214 25.4863 17.2633 26.1906 16.8526C26.8949 16.4419 27.7268 16.3082 28.5244 16.4774ZM6.30045 16.9816L6.38576 17.4169C6.49513 18.0699 7.04201 18.5052 7.69826 18.5052C7.69826 18.5052 7.63373 17.4792 7.55388 16.461C7.75003 16.4245 7.95091 16.4063 8.15654 16.4063C8.94165 16.4067 9.70059 16.6886 10.2956 17.2008C10.8906 17.7131 11.2822 18.4217 11.3993 19.198C11.5164 19.9743 11.3513 20.7669 10.934 21.4319C10.5166 22.0969 9.8746 22.5901 9.12456 22.8222C8.37452 23.0542 7.56614 23.0096 6.84617 22.6965C6.1262 22.3834 5.54236 21.8225 5.20064 21.1157C4.85892 20.4088 4.78198 19.6029 4.98377 18.8441C5.18557 18.0854 5.65273 17.4242 6.30045 16.9805" fill="#F4C6AD"/>
<path d="M7.59847 18.5019C7.63128 18.5041 7.66446 18.5052 7.698 18.5052C7.698 18.5052 7.58862 16.765 7.47925 15.5684C7.47925 15.0238 7.698 14.3719 8.1355 14.0448L8.46362 13.7189C9.0105 13.2836 9.22925 12.6306 9.22925 11.9788V10.2375C9.22925 9.69391 9.55737 9.2586 10.1042 9.15032C11.4178 8.82329 14.1533 8.27969 18.0919 8.27969C22.0305 8.27969 24.766 8.82329 26.0785 9.15032C26.516 9.2586 26.9535 9.69391 26.9535 10.2375V11.9788C26.9535 12.6306 27.2816 13.2836 27.7191 13.7178L27.9378 14.1542C28.3753 14.5884 28.5941 15.1331 28.5941 15.6767C28.4847 16.765 28.3753 18.6134 28.3753 18.6134H28.4125L27.8711 26.6875C27.543 30.2969 24.7058 32.8125 21.3228 32.8125H14.7735C11.2811 32.8125 8.55222 30.2969 8.22519 26.6875L7.59847 18.5019Z" fill="#FFD7C2"/>
<path d="M17.2202 19.1702L16.1373 22.6374C16.086 22.8028 16.0744 22.978 16.1036 23.1487C16.1328 23.3195 16.202 23.4809 16.3054 23.6198C16.4088 23.7587 16.5436 23.8712 16.6988 23.9482C16.8539 24.0251 17.0251 24.0643 17.1983 24.0626H18.8017C19.5542 24.0626 20.0847 23.3385 19.8627 22.6363L18.7798 19.1691C18.5469 18.4024 17.4641 18.4024 17.2202 19.1691" fill="#E5AF93"/>
<path d="M18 26.1352C17.0182 26.1417 16.0493 25.9121 15.1748 25.4658C14.8959 25.3236 14.5951 25.6386 14.7712 25.8924C15.1247 26.4246 15.6047 26.8607 16.1682 27.1617C16.7317 27.4628 17.3611 27.6193 18 27.6172C18.6388 27.6193 19.2683 27.4628 19.8318 27.1617C20.3953 26.8607 20.8753 26.4246 21.2287 25.8924C21.4037 25.6288 21.104 25.3236 20.8251 25.4658C19.9507 25.9121 18.9817 26.1417 18 26.1352Z" fill="#990838"/>
<path d="M10.3601 18.9952C10.5182 18.3674 10.8852 17.8121 11.4008 17.4205C11.9163 17.029 12.5498 16.8246 13.197 16.8409C13.8441 16.8572 14.4665 17.0932 14.9617 17.5102C15.4569 17.9271 15.7955 18.5002 15.9218 19.1352C15.9342 19.203 15.9315 19.2728 15.9138 19.3394C15.8961 19.4061 15.8639 19.468 15.8195 19.5208C15.7751 19.5736 15.7196 19.6159 15.6569 19.6447C15.5942 19.6735 15.526 19.6881 15.457 19.6875H10.9103C10.825 19.6884 10.7406 19.6698 10.6635 19.6332C10.5865 19.5965 10.5189 19.5427 10.4658 19.4759C10.4127 19.4091 10.3756 19.3311 10.3573 19.2478C10.339 19.1645 10.3399 19.078 10.3601 18.9952ZM25.6398 18.9952C25.4818 18.3814 25.1249 17.8373 24.6248 17.448C24.1247 17.0588 23.5096 16.8462 22.8759 16.8437C22.2162 16.8421 21.5764 17.07 21.0662 17.4882C20.556 17.9064 20.2071 18.489 20.0792 19.1362C20.067 19.2039 20.0698 19.2735 20.0875 19.3399C20.1052 19.4064 20.1374 19.4681 20.1816 19.5207C20.2259 19.5734 20.2812 19.6156 20.3437 19.6444C20.4061 19.6732 20.4741 19.6879 20.5429 19.6875H25.0896C25.1749 19.6884 25.2593 19.6698 25.3364 19.6332C25.4134 19.5965 25.481 19.5427 25.5341 19.4759C25.5872 19.4091 25.6243 19.3311 25.6426 19.2478C25.6609 19.1645 25.66 19.078 25.6398 18.9952Z" fill="white"/>
<path d="M11.7211 19.203C11.7211 18.9433 11.7767 18.6867 11.8841 18.4503C11.9915 18.214 12.1482 18.0033 12.3438 17.8325C12.5393 17.6617 12.7691 17.5347 13.0178 17.46C13.2665 17.3854 13.5283 17.3648 13.7855 17.3997C14.0428 17.4346 14.2897 17.5241 14.5095 17.6622C14.7293 17.8004 14.9171 17.984 15.0601 18.2007C15.2031 18.4174 15.2981 18.6622 15.3387 18.9186C15.3793 19.1751 15.3645 19.4372 15.2954 19.6875H11.7856C11.7425 19.5296 11.7215 19.3667 11.7211 19.203ZM24.2795 19.203C24.2795 18.1902 23.4592 17.3819 22.4551 17.3819C22.2159 17.3806 21.9788 17.4268 21.7577 17.518C21.5365 17.6091 21.3356 17.7433 21.1668 17.9128C20.998 18.0822 20.8645 18.2835 20.7742 18.505C20.6838 18.7265 20.6384 18.9638 20.6406 19.203C20.6406 19.3751 20.6625 19.5366 20.7062 19.6875H24.215C24.2587 19.5256 24.2806 19.3747 24.2806 19.203" fill="#7D4533"/>
<path d="M13.545 18.1683C13.7237 18.1678 13.8995 18.2136 14.0553 18.3012C14.211 18.3888 14.3415 18.5152 14.434 18.6681C14.5265 18.821 14.5778 18.9953 14.583 19.1739C14.5882 19.3525 14.5471 19.5295 14.4637 19.6875H12.6273C12.5439 19.5295 12.5028 19.3525 12.508 19.1739C12.5132 18.9953 12.5646 18.821 12.657 18.6681C12.7495 18.5152 12.88 18.3888 13.0358 18.3012C13.1916 18.2136 13.3673 18.1678 13.5461 18.1683M22.4437 18.1683C22.265 18.1678 22.0892 18.2136 21.9334 18.3012C21.7776 18.3888 21.6472 18.5152 21.5547 18.6681C21.4622 18.821 21.4109 18.9953 21.4057 19.1739C21.4005 19.3525 21.4416 19.5295 21.525 19.6875H23.3614C23.4448 19.5295 23.4859 19.3525 23.4807 19.1739C23.4755 18.9953 23.4241 18.821 23.3316 18.6681C23.2392 18.5152 23.1087 18.3888 22.9529 18.3012C22.7971 18.2136 22.6224 18.1678 22.4437 18.1683Z" fill="black"/>
<path d="M13.2424 18.5063C13.2424 18.6878 13.098 18.8344 12.9197 18.8344C12.8334 18.8333 12.7511 18.7982 12.6905 18.7368C12.6299 18.6754 12.5959 18.5926 12.5959 18.5063C12.5959 18.3247 12.7403 18.1782 12.9197 18.1782C13.0991 18.1782 13.2434 18.3247 13.2434 18.5063M22.2067 18.5063C22.2067 18.6878 22.0613 18.8344 21.8819 18.8344C21.7956 18.8333 21.7133 18.7982 21.6527 18.7368C21.5921 18.6754 21.5581 18.5926 21.5581 18.5063C21.5581 18.3247 21.7036 18.1782 21.8819 18.1782C22.0613 18.1782 22.2067 18.3247 22.2067 18.5063Z" fill="white"/>
<path d="M10.3033 14.2046L10.3055 14.2024L10.3088 14.2002L10.3186 14.1925L10.3427 14.1729L10.416 14.1182C10.4765 14.0737 10.5574 14.019 10.6588 13.9541C10.8622 13.8261 11.151 13.6675 11.5152 13.5232C12.4826 13.1448 13.5339 13.0334 14.5591 13.2005C14.7003 13.2228 14.8358 13.2726 14.9578 13.3473C15.0798 13.4219 15.1859 13.5198 15.2701 13.6355C15.3542 13.7511 15.4148 13.8822 15.4483 14.0212C15.4817 14.1602 15.4875 14.3045 15.4653 14.4457C15.443 14.587 15.3931 14.7225 15.3185 14.8445C15.2439 14.9665 15.1459 15.0726 15.0303 15.1567C14.9147 15.2409 14.7836 15.3014 14.6446 15.3349C14.5056 15.3684 14.3613 15.3742 14.22 15.3519C13.5788 15.2447 12.9205 15.3128 12.3147 15.5488C12.0989 15.6335 11.8934 15.7425 11.7022 15.8736L11.6869 15.8857C11.5766 15.9766 11.4495 16.0449 11.3127 16.0867C11.176 16.1285 11.0324 16.1429 10.8901 16.1292C10.7479 16.1155 10.6097 16.0739 10.4834 16.0068C10.3572 15.9396 10.2455 15.8483 10.1546 15.738C10.0636 15.6277 9.99533 15.5006 9.95355 15.3639C9.91176 15.2271 9.89731 15.0835 9.91102 14.9413C9.93872 14.6539 10.0794 14.3893 10.3022 14.2057M25.5852 14.2046L25.583 14.2024L25.5797 14.2002L25.5699 14.1925L25.5458 14.1729L25.4725 14.1182C25.3934 14.0608 25.3125 14.0061 25.2297 13.9541C24.9574 13.7857 24.6708 13.6415 24.3733 13.5232C23.4059 13.1448 22.3546 13.0334 21.3294 13.2005C21.1881 13.2228 21.0526 13.2726 20.9307 13.3473C20.8087 13.4219 20.7026 13.5198 20.6184 13.6355C20.5343 13.7511 20.4737 13.8822 20.4402 14.0212C20.4067 14.1602 20.401 14.3045 20.4232 14.4457C20.4455 14.587 20.4954 14.7225 20.57 14.8445C20.6446 14.9665 20.7425 15.0726 20.8582 15.1567C20.9738 15.2409 21.1049 15.3014 21.2439 15.3349C21.3829 15.3684 21.5272 15.3742 21.6685 15.3519C22.3097 15.2447 22.968 15.3128 23.5738 15.5488C23.7888 15.6351 23.9942 15.744 24.1863 15.8736L24.2016 15.8857C24.4245 16.0691 24.7112 16.1565 24.9986 16.1286C25.2859 16.1008 25.5505 15.9598 25.7339 15.7369C25.9174 15.514 26.0048 15.2273 25.9769 14.9399C25.949 14.6526 25.8081 14.388 25.5852 14.2046Z" fill="#212121"/>
</svg>
