<svg width="34" height="34" viewBox="0 0 34 34" fill="none" xmlns="http://www.w3.org/2000/svg">
<path d="M10.25 11.6C10.25 9.80979 10.9612 8.09291 12.227 6.82704C13.4929 5.56116 15.2098 4.85001 17 4.85001C18.7902 4.85001 20.5071 5.56116 21.773 6.82704C23.0388 8.09291 23.75 9.80979 23.75 11.6V15.65C23.75 17.4402 23.0388 19.1571 21.773 20.423C20.5071 21.6888 18.7902 22.4 17 22.4C15.2098 22.4 13.4929 21.6888 12.227 20.423C10.9612 19.1571 10.25 17.4402 10.25 15.65V11.6Z" stroke="black" stroke-width="2.025"/>
<path d="M18.35 11.6H23.75M18.35 15.65H23.75M17 26.45V30.5" stroke="black" stroke-width="2.025" stroke-linecap="round"/>
<path d="M28.8125 14.3C28.8125 14.0315 28.7058 13.7739 28.5159 13.5841C28.3261 13.3942 28.0685 13.2875 27.8 13.2875C27.5315 13.2875 27.2739 13.3942 27.0841 13.5841C26.8942 13.7739 26.7875 14.0315 26.7875 14.3H28.8125ZM7.2125 14.3C7.2125 14.0315 7.10583 13.7739 6.91595 13.5841C6.72607 13.3942 6.46853 13.2875 6.2 13.2875C5.93147 13.2875 5.67393 13.3942 5.48405 13.5841C5.29417 13.7739 5.1875 14.0315 5.1875 14.3H7.2125ZM21.7412 24.2144C21.5063 24.3447 21.3328 24.563 21.2589 24.8213C21.185 25.0795 21.2167 25.3565 21.347 25.5914C21.4773 25.8263 21.6956 25.9998 21.9539 26.0737C22.2121 26.1476 22.4891 26.1159 22.724 25.9856L21.7412 24.2144ZM26.7875 14.3V15.65H28.8125V14.3H26.7875ZM7.2125 15.65V14.3H5.1875V15.65H7.2125ZM17 25.4375C14.4042 25.4375 11.9147 24.4063 10.0792 22.5708C8.24368 20.7353 7.2125 18.2458 7.2125 15.65H5.1875C5.1875 18.7829 6.43203 21.7874 8.6473 24.0027C10.8626 26.218 13.8671 27.4625 17 27.4625V25.4375ZM26.7875 15.65C26.7878 17.3981 26.32 19.1144 25.4326 20.6205C24.5451 22.1266 23.2705 23.3676 21.7412 24.2144L22.724 25.9856C24.5693 24.9634 26.1071 23.4657 27.1778 21.6482C28.2485 19.8306 28.813 17.7595 28.8125 15.65H26.7875Z" fill="black"/>
</svg>
