<svg width="29" height="29" viewBox="0 0 29 29" fill="none" xmlns="http://www.w3.org/2000/svg">
<path fill-rule="evenodd" clip-rule="evenodd" d="M14.5001 1.69553C12.0498 1.69543 9.65083 2.39841 7.5881 3.72103C5.52536 5.04364 3.88545 6.93036 2.86301 9.1572C1.84058 11.384 1.47857 13.8575 1.81995 16.2839C2.16134 18.7104 3.19178 20.9879 4.78897 22.8462L3.1843 24.4509C3.09197 24.54 3.01833 24.6467 2.96767 24.7646C2.91701 24.8826 2.89034 25.0094 2.88922 25.1378C2.88811 25.2661 2.91257 25.3934 2.96117 25.5122C3.00978 25.631 3.08155 25.739 3.17232 25.8297C3.26308 25.9205 3.37101 25.9923 3.48981 26.0409C3.60861 26.0895 3.7359 26.1139 3.86425 26.1128C3.99261 26.1117 4.11945 26.085 4.23739 26.0344C4.35533 25.9837 4.46199 25.9101 4.55117 25.8177L6.15583 24.2131C8.60441 26.3194 11.7585 27.4225 14.9861 27.3014C18.2137 27.1803 21.2763 25.8439 23.5601 23.56C25.844 21.2762 27.1804 18.2136 27.3015 14.986C27.4226 11.7584 26.3194 8.60431 24.2132 6.15573L25.8178 4.55107C25.9077 4.46119 25.979 4.35449 26.0276 4.23706C26.0763 4.11963 26.1013 3.99377 26.1013 3.86667C26.1013 3.73956 26.0763 3.6137 26.0276 3.49627C25.979 3.37884 25.9077 3.27214 25.8178 3.18227C25.728 3.09239 25.6213 3.0211 25.5038 2.97246C25.3864 2.92381 25.2605 2.89878 25.1334 2.89878C25.0063 2.89878 24.8805 2.92381 24.763 2.97246C24.6456 3.0211 24.5389 3.09239 24.449 3.18227L22.8444 4.78693C20.5237 2.78928 17.5621 1.69274 14.5001 1.69747M21.5413 6.09387C19.4396 4.33191 16.7541 3.42127 14.0142 3.54149C11.2743 3.66171 8.67884 4.80407 6.73957 6.74334C4.80031 8.68261 3.65795 11.2781 3.53772 14.018C3.4175 16.7579 4.32814 19.4434 6.0901 21.5451L21.5413 6.09387ZM7.4589 22.91C9.56057 24.672 12.2461 25.5826 14.986 25.4624C17.7259 25.3422 20.3214 24.1998 22.2606 22.2605C24.1999 20.3213 25.3423 17.7258 25.4625 14.9859C25.5827 12.246 24.6721 9.56047 22.9101 7.4588L7.4589 22.91Z" fill="black" fill-opacity="0.63"/>
</svg>
