<svg width="27" height="27" viewBox="0 0 27 27" fill="none" xmlns="http://www.w3.org/2000/svg">
<path d="M3.55281 15.6713C3.15913 15.0154 2.95117 14.2649 2.95117 13.5C2.95117 12.7351 3.15913 11.9846 3.55281 11.3288C3.67379 11.1268 3.83568 10.9525 4.02807 10.8168C4.22046 10.6812 4.4391 10.5873 4.66993 10.5413L6.57456 10.1599C6.68814 10.1374 6.79059 10.0766 6.86481 9.98775L9.19131 7.19438C10.5211 5.59688 11.1871 4.79925 11.7799 5.01413C12.3728 5.229 12.3751 6.2685 12.3751 8.3475V18.6548C12.3751 20.7326 12.3751 21.771 11.7811 21.987C11.1882 22.2008 10.5222 21.4031 9.19243 19.8068L6.86256 17.0123C6.78863 16.9236 6.68661 16.8629 6.57343 16.8401L4.66881 16.4588C4.43797 16.4127 4.21934 16.3188 4.02695 16.1832C3.83456 16.0475 3.67379 15.8732 3.55281 15.6713Z" stroke="black" stroke-opacity="0.63" stroke-width="1.125"/>
<path d="M17.478 9.522C18.5277 10.5716 19.1199 11.9936 19.1256 13.478C19.1313 14.9624 18.55 16.3889 17.5084 17.4465M22.1142 7.13587C23.7936 8.81512 24.7412 11.0901 24.7505 13.4651C24.7597 15.84 23.8299 18.1223 22.1637 19.8146" stroke="black" stroke-opacity="0.63" stroke-width="1.125" stroke-linecap="round"/>
</svg>
