<svg width="318" height="191" viewBox="0 0 318 191" fill="none" xmlns="http://www.w3.org/2000/svg">
<path d="M305.438 189.527H6.36584V190.591H305.438V189.527Z" fill="#181820"/>
<path d="M274.106 189.696C274.106 189.696 287.031 164.315 295.247 166.188C300.313 167.342 295.815 178.832 295.815 178.832C295.815 178.832 301.638 174.581 304.385 176.899C307.432 179.472 301.355 189.696 301.355 189.696H274.106Z" fill="#181820"/>
<path d="M22.484 189.696C22.484 189.696 1.74187 166.51 7.9407 160.161C17.3512 150.523 46.9862 177.932 46.9862 177.932C46.9862 177.932 38.0211 162.839 42.886 159.398C52.3007 152.737 71.5993 180.74 71.5993 180.74C71.5993 180.74 64.6801 167.376 73.7864 167.318C82.8927 167.26 99.7498 189.697 99.7498 189.697L22.484 189.696Z" stroke="black" stroke-width="0.465937" stroke-miterlimit="10" stroke-linecap="round" stroke-linejoin="round"/>
<path d="M10.9612 189.696C10.9612 189.696 -0.353127 179.611 3.5859 176.048C9.14546 171.018 29.4305 189.757 29.4305 189.757L10.9612 189.696Z" fill="#181820"/>
<path d="M222.709 189.527C222.709 189.527 227.973 178.335 234.397 176.784C240.821 175.233 236.731 184.327 236.731 184.327C236.731 184.327 239.572 180.225 241.713 180.76C243.855 181.295 241.713 185.129 241.713 185.129C241.713 185.129 250.903 175.082 255.275 176.45C259.647 177.818 252.776 189.527 252.776 189.527H222.709V189.527Z" fill="#4B8590"/>
<path d="M152.04 168.213C151.139 168.325 151.519 168.658 151.396 168.749C152.889 168.42 151.982 168.119 152.04 168.213Z" fill="#1F1F1F"/>
<path d="M166.458 164.712L166.232 164.918L168.297 164.118L166.458 164.712Z" fill="#1F1F1F"/>
<path d="M180.009 161.947C178.593 161.576 175.131 163.098 172.667 163.355L172.239 163.287L171.255 164.032C174.177 163.36 177.91 162.213 180.009 161.947Z" fill="#1F1F1F"/>
<path d="M187.529 161.748C187.026 161.597 189.039 161.176 185.83 162.051C185.999 162.042 186.049 162.048 186.149 162.047C186.44 161.977 186.842 161.885 187.529 161.748Z" fill="#1F1F1F"/>
<path d="M186.149 162.046C184.729 162.386 187.13 162.048 186.149 162.046V162.046Z" fill="#1F1F1F"/>
<path d="M192.685 160.374L190.866 161.043C191.292 161.1 192.967 160.738 192.374 160.993C194.266 160.411 193.834 160.357 192.685 160.374Z" fill="#1F1F1F"/>
<path d="M194.344 159.476L193.398 159.806C193.583 159.827 193.845 159.786 194.344 159.476Z" fill="#1F1F1F"/>
<path d="M191.391 160.496L193.398 159.805C193.103 159.766 193.024 159.563 192.473 160.104C192.595 159.871 192.233 160.154 191.391 160.496Z" fill="#1F1F1F"/>
<path d="M190.203 160.672C189.12 160.777 187.743 161.001 189.569 160.341C186.01 161.257 186.641 161.594 190.203 160.672Z" fill="#1F1F1F"/>
<path d="M180.553 161.126L179.108 161.239L177.938 161.717C178.523 161.48 180.685 161.311 180.553 161.126Z" fill="#1F1F1F"/>
<path d="M204.4 157.787C204.48 157.619 203.678 157.588 203.493 157.448L202.158 157.965C202.89 157.876 204.253 157.61 204.4 157.787Z" fill="#1F1F1F"/>
<path d="M203.493 157.449L205.487 156.669C203.644 157.131 203.337 157.328 203.493 157.449Z" fill="#1F1F1F"/>
<path d="M194.502 158.678L191.231 159.987L195.153 158.513L194.502 158.678Z" fill="#1F1F1F"/>
<path d="M212.253 155.649L211.179 156.294L213.115 155.228L212.253 155.649Z" fill="#1F1F1F"/>
<path d="M217.422 154.074C216.643 154.591 218.731 154.158 217.873 154.592C219.267 154.118 220.399 153.525 221.414 152.984C220.304 153.458 219.07 153.808 217.422 154.074Z" fill="#1F1F1F"/>
<path d="M223.13 152.117C222.579 152.364 222.023 152.664 221.414 152.985C222.004 152.734 222.575 152.458 223.13 152.117Z" fill="#1F1F1F"/>
<path d="M209.001 155.785C209.182 155.823 209.548 155.957 210.723 155.724L209.809 155.567C209.563 155.633 209.283 155.709 209.001 155.785Z" fill="#1F1F1F"/>
<path d="M209.777 155.562L209.809 155.567C210.686 155.331 211.295 155.168 211.556 155.098C211.331 155.157 210.796 155.297 209.777 155.562Z" fill="#1F1F1F"/>
<path d="M208.796 155.84C208.871 155.82 208.926 155.805 209 155.785C208.912 155.769 208.862 155.769 208.796 155.84Z" fill="#1F1F1F"/>
<path d="M199.989 157.685C201.144 157.162 203.597 156.277 201.079 156.579C200.28 157.066 201.724 156.896 199.989 157.685Z" fill="#1F1F1F"/>
<path d="M207.663 155.635L205.462 156.137C205.532 156.227 205.965 156.269 205.396 156.537L207.663 155.635Z" fill="#1F1F1F"/>
<path d="M208.695 155.22L207.663 155.635L208.479 155.446L208.695 155.22Z" fill="#1F1F1F"/>
<path d="M219.316 152.93C220.198 152.476 221.215 152.143 222.357 151.748C221.1 152.068 219.81 152.428 218.596 152.8C218.461 152.972 217.993 153.351 219.316 152.93Z" fill="#1F1F1F"/>
<path d="M214.677 154.209C214.74 154.183 214.82 154.149 214.879 154.125C214.741 154.131 214.635 154.151 214.677 154.209Z" fill="#1F1F1F"/>
<path d="M233.62 147.873C233.549 147.873 233.487 147.872 233.415 147.872C233.409 147.899 233.407 147.924 233.397 147.952L233.62 147.873Z" fill="#1F1F1F"/>
<path d="M218.367 152.792C217.415 153.004 216.887 153.262 216.391 153.54C217.076 153.293 217.806 153.046 218.596 152.8C218.657 152.722 218.66 152.682 218.367 152.792Z" fill="#1F1F1F"/>
<path d="M226.231 150.903C225.723 150.984 225.155 151.102 224.56 151.227C225.071 151.195 226.093 151.058 226.231 150.903Z" fill="#1F1F1F"/>
<path d="M215.225 154.138C215.179 154.157 215.139 154.175 215.09 154.196C215.42 154.188 215.37 154.159 215.225 154.138Z" fill="#1F1F1F"/>
<path d="M215.225 154.138C215.688 153.941 216.038 153.737 216.391 153.539C215.834 153.739 215.319 153.934 214.879 154.126C215.002 154.119 215.13 154.126 215.225 154.138Z" fill="#1F1F1F"/>
<path d="M236.062 144.202C236.043 144.611 233.791 145.853 231.593 146.233C229.658 147.223 231.392 147.899 233.415 147.872C233.422 147.696 233.374 147.564 235.388 146.562C234.585 146.667 230.577 147.855 232.229 146.889C234.93 145.685 234.54 146.163 235.954 145.831C234.656 145.856 239.202 143.824 238.343 143.43L236.039 144.608C235.955 144.528 236.762 144.03 236.062 144.202Z" fill="#1F1F1F"/>
<path d="M229.385 149.286L228.529 149.631C229.543 149.348 230.302 149.239 231.706 149.039C233.091 148.347 233.34 148.102 233.397 147.952C231.971 148.465 230.539 148.957 229.106 149.441L229.385 149.286Z" fill="#1F1F1F"/>
<path d="M224.611 150.954C225.17 150.35 227.206 149.486 225.786 149.503C223.24 150.378 224.101 150.416 222.621 151.078C226.73 149.637 221.501 151.682 224.564 150.921C223.772 151.254 223.044 151.51 222.357 151.748C223.12 151.555 223.859 151.379 224.56 151.226C224.519 151.229 224.49 151.231 224.457 151.234L224.438 151.241C224.437 151.238 224.44 151.237 224.439 151.234C224.245 151.245 224.177 151.235 224.387 151.196C224.399 151.187 224.449 151.169 224.471 151.16C224.482 151.098 224.543 151.027 224.611 150.955C225.836 150.638 224.833 150.993 224.471 151.16C224.464 151.183 224.437 151.212 224.439 151.233C224.444 151.234 224.45 151.234 224.457 151.233C225.819 150.71 227.176 150.176 228.529 149.629C227.637 149.882 226.546 150.267 224.611 150.954Z" fill="#1F1F1F"/>
<path d="M203.101 155.16C203.24 155.16 203.242 155.19 203.259 155.215C203.517 155.096 203.612 155.037 203.101 155.16Z" fill="#1F1F1F"/>
<path d="M204.888 154.937C204.597 155.072 204.384 155.296 203.382 155.518C202.491 155.627 203.337 155.331 203.258 155.215C202.688 155.475 201.238 156.042 203.164 155.74L203.447 155.609C205.171 155.298 207.472 155.19 207.192 155.323C206.605 155.11 206.102 154.978 204.888 154.937Z" fill="#1F1F1F"/>
<path d="M214.852 152.956L218.264 151.725L216.399 151.927L216.549 152.1C214.554 152.613 215.052 152.728 214.852 152.956Z" fill="#1F1F1F"/>
<path d="M234.081 147.914L233.775 148.481L235.538 147.174L234.081 147.914Z" fill="#1F1F1F"/>
<path d="M238.489 146.146L238.464 146.554L239.545 145.875L238.489 146.146Z" fill="#1F1F1F"/>
<path d="M52.3065 124.183C52.1868 123.989 52.0559 123.799 51.9478 123.597L51.6351 122.983C51.7744 123.279 51.8905 123.52 51.999 123.715C52.1178 123.907 52.2185 124.058 52.3065 124.183Z" fill="#1F1F1F"/>
<path d="M59.4115 129.801L59.6706 129.702C59.2671 129.662 59.0863 129.674 59.4115 129.801Z" fill="#1F1F1F"/>
<path d="M199.506 106.096C197.92 106.015 196.119 105.785 196.375 106.162L196.913 106.478C197.969 106.224 198.796 106.127 199.506 106.096Z" fill="#1F1F1F"/>
<path d="M122.492 123.693C122.644 123.704 122.802 123.717 122.959 123.729C123.302 123.522 123.624 123.328 123.912 123.154C123.485 123.316 123 123.5 122.492 123.693Z" fill="#1F1F1F"/>
<path d="M121.729 125.536L119.674 125.654C120.142 125.66 120.803 125.627 121.729 125.536Z" fill="#1F1F1F"/>
<path d="M73.7821 88.3797L74.5714 87.3201C72.9625 88.4496 73.7942 88.1281 73.7821 88.3797Z" fill="#1F1F1F"/>
<path d="M266.244 111.041C266.058 110.716 265.873 110.413 265.682 110.14C265.494 109.864 265.316 109.596 265.127 109.363C264.941 109.124 264.766 108.9 264.584 108.683C264.378 108.458 264.176 108.244 263.978 108.041C264.627 108.834 264.99 109.486 265.346 110.032C265.693 110.565 265.97 110.946 266.244 111.041Z" fill="#1F1F1F"/>
<path d="M57.5074 123.861C57.0717 123.586 56.8793 123.474 56.8215 123.549C57.2334 123.884 57.5335 124.002 57.5074 123.861Z" fill="#1F1F1F"/>
<path d="M260.288 105.452C260.508 105.602 260.725 105.763 260.946 105.926C261.94 106.432 262.942 107.032 263.977 108.041C263.062 106.917 261.739 105.89 260.288 105.452Z" fill="#1F1F1F"/>
<path d="M123.674 5.55384C123.566 5.53567 123.437 5.51377 123.339 5.497C123.306 5.55105 123.455 5.55477 123.674 5.55384Z" fill="#1F1F1F"/>
<path d="M79.4943 7.30903C79.9145 7.17857 80.6116 7.0099 81.2681 6.84822C80.9415 6.89854 80.4038 7.02621 79.4943 7.30903Z" fill="#1F1F1F"/>
<path d="M255.869 137.793C255.004 138.357 255.754 137.917 255.869 137.793V137.793Z" fill="#1F1F1F"/>
<path d="M250.785 138.896C250.952 138.756 251.065 138.624 251.044 138.531C251.018 138.657 250.925 138.78 250.785 138.896Z" fill="#1F1F1F"/>
<path d="M249.669 104.918C249.64 104.913 249.617 104.91 249.584 104.905C249.865 105.023 249.817 105.001 249.669 104.918Z" fill="#1F1F1F"/>
<path d="M254.449 138.443C254.808 138.292 255.208 138.092 255.637 137.861C255.438 137.943 255.08 138.131 254.449 138.443Z" fill="#1F1F1F"/>
<path d="M254.727 138.5C254.414 138.668 254.167 138.8 253.933 138.926C253.855 139.05 253.976 139.028 254.727 138.5Z" fill="#1F1F1F"/>
<path d="M257.072 136.996C256.577 137.322 256.105 137.611 255.637 137.861C255.824 137.778 255.908 137.753 255.869 137.793C256.123 137.626 256.48 137.388 257.072 136.996Z" fill="#1F1F1F"/>
<path d="M134.113 51.6141C134.173 51.5866 134.24 51.5493 134.308 51.5218C135.015 50.8005 134.68 51.082 134.113 51.6141Z" fill="#1F1F1F"/>
<path d="M174.804 114.964C174.848 114.951 174.87 114.936 174.911 114.923C174.865 114.928 174.806 114.934 174.764 114.938L174.804 114.964Z" fill="#1F1F1F"/>
<path d="M171.363 115.96C172.754 115.168 173.614 115.058 174.765 114.938L173.378 114.026L171.363 115.96Z" fill="#1F1F1F"/>
<path d="M55.9214 104.689C55.5892 104.988 55.2947 105.335 54.9788 105.661C54.6722 105.997 54.3461 106.314 54.0534 106.672C54.3829 105.9 54.7635 105.233 55.0794 104.657C55.4121 104.102 55.7099 103.673 55.8878 103.377C56.2475 102.791 56.1655 102.77 55.1619 103.613C55.3488 103.884 55.03 104.529 54.5198 105.426C54.2603 105.869 53.9332 106.353 53.622 106.913C53.307 107.469 52.9338 108.021 52.6361 108.647C51.3212 111.046 50.5729 113.886 51.2108 114.224C51.0067 114.829 50.75 115.428 50.6311 116.078C50.6628 115.799 50.6624 115.634 50.6628 115.471C50.6782 115.312 50.6936 115.152 50.7537 114.884C50.6726 115.109 50.5934 115.316 50.5435 115.515C50.5021 115.716 50.4699 115.903 50.4457 116.077C50.3972 116.426 50.3814 116.724 50.3875 116.987C50.3847 117.25 50.4331 117.482 50.5002 117.7C50.5626 117.918 50.6367 118.121 50.7145 118.329C50.8636 118.736 51.0249 119.174 51.2541 119.799C51.358 120.107 51.4591 120.462 51.5542 120.885C51.6935 121.296 51.8384 121.773 51.9852 122.344C52.0085 122.445 52.0317 122.543 52.0541 122.64C52.0872 122.741 52.1193 122.839 52.1501 122.935C52.213 123.129 52.2722 123.31 52.3267 123.477C52.4525 123.805 52.5606 124.075 52.6184 124.266C52.6761 124.457 52.7069 124.556 52.6547 124.556C52.6044 124.555 52.4846 124.447 52.3062 124.183C53.0596 125.348 54.0451 126.31 55.0985 127.036C55.9666 127.718 55.6162 127.763 54.7524 127.025C56.296 128.299 58.02 129.105 59.7211 129.681L59.6708 129.702C60.4703 129.801 62.184 129.974 63.0008 130.001C64.2398 130.469 62.3303 129.986 62.6206 130.213C63.5786 130.339 64.5282 130.405 65.4712 130.449C66.5662 130.939 64.1918 130.955 62.2362 130.426C63.4146 131.347 64.0538 131.39 65.0477 131.399C66.0522 131.406 67.4161 131.413 70.2289 131.953C69.339 131.956 68.4444 131.941 67.5432 131.899C69.2118 132.79 71.3416 132.681 74.345 133.14C73.9876 133.024 72.4799 132.728 71.4548 132.388C70.4288 132.053 69.893 131.723 71.418 131.634C72.2688 131.77 73.3991 131.839 75.0257 131.587C75.0411 132.034 76.6365 131.925 78.6148 131.824L78.5012 132.425C80.6445 132.168 80.4572 131.865 81.6961 131.526C84.0714 131.435 84.5965 131.843 85.1883 132.187C88.9936 131.956 82.5101 131.68 86.9835 131.175C90.1477 131.106 92.3274 130.615 96.0055 129.778C98.2121 129.694 95.6723 130.191 96.4765 130.256L98.344 129.522C98.8179 129.468 98.6855 129.633 98.6184 129.717C100.217 129.301 98.6706 129.113 101.195 128.58C101.781 127.839 106.57 128.736 109.592 127.465C110.395 127.503 109.279 127.888 109.554 128.076C113.781 126.861 113.189 127.095 116.601 125.819L119.674 125.654C117.387 125.62 120.111 124.585 122.492 123.693C121.671 123.628 120.969 123.566 120.506 123.562L124.373 122.506C124.865 122.512 124.508 122.789 123.911 123.155C124.17 123.056 124.415 122.96 124.604 122.878C126.049 122.824 125.387 123.302 124.443 123.822C123.942 123.798 123.443 123.765 122.958 123.73C122.056 124.269 121.22 124.832 121.486 125.137C121.729 125.022 122.211 124.872 122.747 124.737C122.511 124.882 122.364 124.998 122.493 125.035C122.638 125.072 123.024 124.864 123.639 124.593L124.658 125.075L124.826 124.775L130.049 124.187C133.599 122.809 136.598 121.208 142.364 119.755C141.017 120.526 142.212 120.597 142.249 121.179C140.538 120.903 137.79 122.35 134.743 122.831C136.332 122.579 136.04 122.918 135.658 123.092L140.934 121.461C140.907 121.948 142.149 121.576 143.593 121.48C142.344 120.784 147.481 120.053 149.611 119.321C149.81 119.6 149.351 120.021 146.664 120.495C149.753 120.579 150.251 118.641 153.262 118.63C152.612 118.772 152.251 118.797 152.025 119.006C153.492 118.42 157.258 117.87 156.437 118.317L155.788 118.457C160.138 117.671 168.961 115.766 169.451 114.863C169.514 114.954 169.073 115.913 168.843 116.123L176.047 111.962C175.499 112.764 178.425 113.836 174.91 114.925C175.96 114.815 177.256 114.672 179.383 114.011C178.662 114.054 177.44 113.389 178.39 113.14C181.175 113.368 180.301 113.177 183.677 113.185C182.594 113.244 183.564 111.97 185.24 111.686C185.01 111.893 185.576 112.694 184.987 112.919L188.946 111.109C187.943 111.489 188.925 112.014 189.908 112.135C189.44 112.011 193.501 111.494 194.59 111.2L192.786 111.277C197.504 110.595 197.166 108.998 201.85 108.268C201.319 108.577 200.674 109.81 203.066 109.552C204.062 108.845 207.476 106.222 211.591 105.222L212.433 105.414L215.586 104.636C213.685 105.686 208.367 108.158 205.458 109.301C207.255 109.265 206.004 109.578 208.634 109.148C209.606 109.292 207.264 109.795 206.493 109.934C208.544 109.676 210.595 109.437 212.645 109.21C212.284 108.62 217.251 107.953 216.953 107.476C214.753 107.973 212.559 108.49 210.371 109.03C210.006 108.455 213.976 106.693 218.372 106.275C219.513 106.39 217.674 107.48 217.793 107.678C218.33 107.391 221.882 106.779 222.3 106.899L220.488 107.436C222.934 107.4 224.366 106.174 227.341 106.522C228.355 106.475 230.404 107.099 230.551 106.718C228.869 106.12 228.363 103.941 229.44 103.327C229.621 103.336 230.979 103.413 232.435 103.545C233.892 103.678 235.446 103.867 236.033 104.033C236.881 104.291 236.257 104.641 235.61 104.981C234.962 105.327 234.291 105.669 235.006 105.882C235.06 105.706 235.971 105.466 236.353 105.391C237.415 105.516 235.929 105.917 238.222 105.811C238.602 105.154 242.893 105.887 239.307 105.27C241.562 105.105 241.701 105.408 244.33 105.509C243.504 105.054 246.791 104.222 249.111 104.37C248.956 104.511 249.438 104.789 249.669 104.918C251.971 105.282 253.702 105.773 255.34 106.354C256.156 106.653 256.952 106.974 257.766 107.366C258.585 107.747 259.422 108.205 260.304 108.787C260.433 108.949 260.867 109.376 261.153 109.722C261.422 110.087 261.55 110.351 261.151 110.186C261.665 110.469 262.189 110.675 263.061 111.665C263.635 112.814 263.167 112.256 262.637 111.678C262.084 111.086 261.483 110.561 261.863 111.428C262.049 111.365 262.708 111.883 263.423 112.636C264.143 113.385 264.876 114.388 265.362 115.162C265.496 114.793 265.041 113.799 264.258 112.832C263.869 112.348 263.412 111.866 262.959 111.438C262.727 111.23 262.503 111.028 262.293 110.839C262.078 110.672 261.878 110.517 261.701 110.379C261.953 110.087 262.836 110.337 264.012 111.222C265.169 112.097 266.677 113.602 267.667 115.917C268.027 116.843 268.126 117.456 268.157 117.816C268.171 118.181 268.121 118.301 268.054 118.319C267.92 118.355 267.721 117.998 267.823 118.324C268.01 120.138 267.85 121.446 267.725 122.467C267.58 123.489 267.437 124.238 267.281 124.955C267.1 125.655 266.905 126.332 266.471 127.104C266.043 127.876 265.395 128.768 264.287 129.792C263.303 130.506 263.096 130.317 263.072 130.023C263.047 129.721 263.174 129.273 262.87 129.332C263.827 128.191 264.559 127.316 265.216 126.531C265.865 125.729 266.417 124.967 266.8 124C266.413 124.764 265.94 125.467 265.439 126.135C265.623 125.695 265.907 125.017 266.197 124.322C266.479 123.629 266.715 122.908 266.927 122.404C266.695 122.832 266.367 123.727 265.774 124.815C265.194 125.909 264.317 127.17 263.242 128.4C261.085 130.866 258.094 133.103 255.814 134.364C255.145 135.023 253.867 136.014 254.621 135.784C255.075 135.466 255.532 135.154 255.977 134.823C256.723 134.564 256.157 135.122 255.616 135.604C255.077 136.084 254.578 136.505 255.524 136.011C253.786 137.465 251.791 139.127 248.86 140.37L248.071 140.127C248.207 140.252 250.068 139.494 250.766 138.913C249.721 139.785 246.123 140.437 245.137 141.703C245.86 141.509 246.584 141.313 247.306 141.105C245.409 142.356 243.101 144.069 240.437 144.989C241.835 145.006 241.007 144.686 243.107 144.491C242.146 144.46 243.804 143.758 245.323 143.056C246.844 142.357 248.226 141.669 246.783 141.893C248.972 141.682 250.121 140.619 252.817 139.872C252.648 139.741 251.804 140.042 253.933 138.926C253.999 138.824 254.184 138.632 254.303 138.514C254.369 138.482 254.393 138.471 254.45 138.443C254.404 138.461 254.371 138.474 254.325 138.492C254.4 138.414 254.405 138.405 254.278 138.51C253.745 138.734 253.294 138.874 253.079 138.877C253.489 138.399 254.506 137.677 255.531 136.945C256.554 136.208 257.576 135.446 258.035 134.982C259.245 134.228 257.676 135.505 258.426 135.218C258.885 134.748 259.34 134.278 259.779 133.793C260.187 134.038 263.209 131.882 260.703 134.265C261.517 133.627 262.313 132.953 263.089 132.244C263.847 131.692 264.696 130.952 265.443 130.134C266.194 129.324 266.823 128.415 267.208 127.662C267.693 127.029 268.069 126.053 268.269 125.438C268.45 124.806 268.501 124.537 268.371 125.257C269.033 123.571 269.422 121.697 269.339 119.83L269.443 119.778C269.463 118.389 269.199 116.979 268.709 115.683C268.222 114.382 267.542 113.183 266.774 112.071C266.001 110.955 265.154 109.931 264.251 108.905C263.26 107.802 262.134 106.833 260.947 105.926C259.375 105.147 257.733 104.551 255.131 103.687L254.708 103.203C253.669 102.988 252.154 102.573 250.772 102.303C249.39 102.02 248.15 101.864 247.694 102.003C246.648 101.406 244.158 101.144 241.532 101.143C238.9 101.131 236.13 101.34 234.37 101.326L234.255 101.804C231.842 101.876 229.542 102.151 226.593 102.591L226.81 102.991C224.292 103.546 220.23 103.313 216.221 103.872C216.474 103.68 217.497 103.59 218.23 103.602C213.303 103.242 208.231 105.632 203.821 105.645C202.77 105.967 201.985 106.045 201.214 106.064C201.314 106.046 201.403 106.024 201.477 105.998C201.366 106.011 201.203 106.038 201.036 106.066C200.55 106.075 200.048 106.074 199.507 106.097C199.974 106.121 200.418 106.132 200.799 106.107C199.972 106.253 198.725 106.516 197.514 106.83L196.914 106.478C196.815 106.5 196.735 106.518 196.632 106.541C195.398 106.588 195.7 106.919 196.401 107.139C195.796 107.32 195.244 107.505 194.824 107.69C193.718 107.15 191.65 108.504 190.178 107.99C189.418 108.506 184.072 109.415 183.571 110.322C183.51 110.229 183.141 110.25 183.8 110.117C182.42 110.288 181.041 110.463 179.862 110.92L179.175 110.473L176.351 111.809C174.479 111.825 173.691 111.778 175.398 110.99C171.202 112.513 171.936 111.939 168.392 113.336L168.498 112.938C167.186 113.218 165.185 114.129 164.332 113.992C161.252 113.899 149.782 116.888 142.119 117.786C143.797 118.553 138.52 118.023 138.388 118.905C137.898 118.743 136.82 118.813 137.996 118.347C134.201 119.371 132.14 119.107 129.622 120.325C129.132 120.158 130.372 119.794 129.951 119.721C129.654 119.836 128.772 120.18 128.343 120.108C127.922 120.034 128.865 119.786 129.452 119.557C125.533 120.367 125.284 121.215 125.138 122.001C123.078 122.038 122.093 122.274 120.742 123.022C120.002 122.913 118.798 122.879 121.227 122.336C119.845 122.571 112.758 123.525 112.719 124.124C112.261 124.052 110.785 124.414 110.433 124.543C107.331 125.029 107.051 125.024 104.018 125.561L104.876 125.523C103.786 126.424 102.369 126.08 99.9259 126.527L99.9855 126.444C97.1307 126.593 96.532 126.727 95.9393 126.861C95.3476 126.989 94.7614 127.122 91.943 127.16L92.2985 127.568C91.8857 128.593 87.2938 127.579 84.098 128.186L85.2885 128.344C83.5333 128.832 80.2498 127.404 78.5025 127.339C78.1168 127.267 79.1022 127.186 79.6338 127.096C77.3242 126.912 77.1863 127.043 77.1881 127.281C77.1919 127.51 77.3447 127.844 75.6263 127.933C74.994 127.618 76.4254 127.135 74.1377 127.074C73.5687 126.947 71.9151 127.182 70.0132 127.272C68.115 127.373 65.9642 127.266 64.5463 126.671C65.1479 127.034 65.776 127.402 64.2155 127.289C63.0423 127.094 61.5369 126.479 60.236 125.765C58.9006 125.067 57.8657 124.285 56.9418 123.94C56.7973 123.714 56.7894 123.595 56.8225 123.548C56.7489 123.488 56.6697 123.422 56.5853 123.353C56.5103 123.277 56.4311 123.197 56.3482 123.112C56.1711 122.949 56.0262 122.74 55.8538 122.53C55.5468 122.079 55.2546 121.603 55.044 120.967C54.9336 120.667 54.7971 120.375 54.703 120.088C54.6261 119.797 54.5473 119.52 54.4677 119.265C54.2794 118.757 54.2314 118.322 54.1047 118.065C54.4509 117.651 54.6307 116.825 54.8129 115.793C54.9429 115.279 54.9937 114.703 55.1764 114.115C55.2495 113.817 55.3236 113.514 55.3981 113.211C55.4993 112.91 55.6008 112.607 55.7015 112.308C56.1008 111.106 56.6408 109.971 57.1468 109.2C57.2703 109.006 57.3886 108.833 57.5014 108.686C57.6239 108.545 57.7413 108.429 57.849 108.344C58.0652 108.173 58.2473 108.125 58.3895 108.232C58.895 107.462 59.4891 106.738 60.0603 106.001C60.3543 105.637 60.6711 105.287 60.9749 104.929C61.2792 104.571 61.5876 104.215 61.9185 103.875L61.9213 104.081C64.49 101.536 65.2858 100.478 66.0117 99.3438C66.7223 98.8605 66.3369 99.3666 66.3323 99.4676C68.4639 97.8235 69.6577 96.9496 70.6967 96.0481C71.2204 95.6021 71.6999 95.1434 72.2534 94.5945C72.8149 94.0539 73.4397 93.4113 74.2541 92.5956L74.9102 92.6929C75.3295 92.2217 77.0283 91.2239 79.1497 89.9462C81.2772 88.6741 83.8245 87.1185 85.9259 85.4511C85.91 85.5233 85.8657 85.6588 85.5457 85.9438C90.2959 82.2151 98.4251 79.4111 99.4385 76.8311L102.629 74.416C98.1544 76.9708 102.907 73.3944 100.95 74.2525C102.632 73.1192 105.696 71.9775 103.609 73.3385L103.232 73.468C102.902 74.6912 108.874 70.4238 109.064 71.003C117.718 65.7108 126.422 60.9275 134.291 55.4346L132.996 55.5081C133.92 54.8917 134.824 54.2426 135.738 53.6093C136.541 53.2252 137.009 53.3542 135.052 54.7212C136.308 54.3157 138.096 52.097 138.059 51.941C140.002 50.6396 139.758 51.0638 139.175 51.7264C138.594 52.3908 137.644 53.241 138.229 52.8238C138.744 52.4267 139.251 52.0155 139.757 51.603L139.359 51.8088C140.446 50.6205 140.381 50.3174 142.641 48.536C144.127 47.472 143.627 48.2566 144.196 47.8143C144.224 47.8538 144.425 47.7141 145.054 47.1163C146.132 46.1888 147.212 45.2622 148.253 44.2802L146.643 45.0606C147.24 44.317 147.969 43.6349 148.321 43.2531C148.659 42.8536 148.64 42.7893 147.721 43.2428C149.071 42.5886 151.982 39.8378 154.271 36.6585C155.39 35.0535 156.408 33.401 157.045 31.9516C157.405 31.2527 157.637 30.5901 157.849 30.0737C157.956 29.8153 158.05 29.5895 158.128 29.4009C158.195 29.2067 158.253 29.0526 158.302 28.9437C158.395 28.2364 158.529 27.5547 158.567 26.8386C158.602 26.4866 158.638 26.1323 158.674 25.7747C158.68 25.4143 158.688 25.0502 158.695 24.6809C158.753 23.9462 158.643 23.1905 158.61 22.405C158.583 22.0129 158.487 21.6209 158.427 21.2153C158.357 20.8112 158.303 20.3935 158.166 19.987C158.249 20.4075 158.126 20.78 157.949 20.6836C157.867 20.6342 157.754 20.4745 157.603 20.1621C157.449 19.8511 157.309 19.3692 157.08 18.7005C157.474 18.8286 157.577 18.5869 157.496 18.0887C157.409 17.597 157.18 16.826 156.771 16.046C156.013 14.4359 154.716 12.6512 154.204 11.4765C154.451 11.984 154.218 11.8364 153.75 11.4038C153.259 10.9936 152.531 10.2933 151.758 9.70991C150.224 8.51792 148.676 7.70868 149.799 8.93931C148.838 8.24414 148.867 8.12448 148.974 8.02577C149.074 7.93544 149.274 7.82927 148.555 7.23654C147.257 6.58281 145.883 5.97704 144.46 5.35405C143.025 4.76644 141.528 4.18907 139.967 3.6876C136.846 2.69397 133.477 1.94246 130.04 1.69335C129.92 1.84608 131.032 2.20879 129.549 2.30564C128.378 1.92384 127.193 1.56624 125.999 1.23705C125.318 1.23751 124.998 1.47312 124.543 1.61141C124.087 1.75156 123.501 1.80277 122.274 1.5099C122.621 1.65191 123.134 1.86563 122.233 1.90754C115.565 1.45449 108.772 2.20414 102.062 3.21081C95.3392 4.22632 88.6726 5.51189 81.95 6.31508C83.7979 6.21172 82.62 6.51483 81.2702 6.84635C82.1667 6.70993 81.3438 7.24492 81.5679 7.41953C79.6995 7.65141 77.8316 7.90424 75.9641 8.17942C75.1268 9.0166 70.1502 9.80024 69.7532 10.549L71.4348 9.95436C70.3915 10.6137 71.2964 10.7548 72.4416 10.86C73.5883 10.9652 74.9777 11.0425 74.9279 11.5184C77.2701 10.0647 81.895 10.9126 85.8317 8.88949C86.7981 8.86388 85.1035 9.34347 85.644 9.43659C86.6238 8.83129 87.8949 8.46438 90.3187 8.15009L90.0676 8.29769C93.4144 7.57831 95.8363 7.22304 98.3673 6.92597C100.9 6.63915 103.542 6.39098 107.355 6.09531L106.743 5.71863C108.386 5.59477 108.745 5.70047 109.521 5.73725C110.429 5.31447 109.278 5.41225 108.104 5.51515C106.932 5.62271 105.737 5.73446 106.551 5.26977C107.691 5.59151 110.575 5.28188 113.381 5.11286C116.185 4.9294 118.904 4.90519 119.642 5.40014C122.152 5.38478 118.898 4.89355 121.413 4.88144L122.078 5.16175L122.717 4.81346C124.368 4.89448 125.181 5.287 125.232 5.51562C124.836 5.47557 124.102 5.54542 123.677 5.55193C124.733 5.74191 126.221 5.77078 127.536 5.81222C128.851 5.84388 129.991 5.89091 130.346 5.97658C129.563 5.84248 128.779 5.69907 127.987 5.59105C131.385 5.70559 135.119 6.27132 138.669 7.21885C142.219 8.17849 145.529 9.57488 148.257 11.1477L147.974 10.7124C149.033 11.3098 149.714 11.8247 150.217 12.2694C150.742 12.6941 151.041 13.1005 151.384 13.4772C151.558 13.6644 151.697 13.887 151.874 14.1095C152.04 14.3409 152.252 14.57 152.454 14.8694C152.664 15.1604 152.905 15.492 153.188 15.8831C153.321 16.0838 153.464 16.2998 153.619 16.5335C153.699 16.6495 153.781 16.7696 153.867 16.8944C153.944 17.0248 154.023 17.1603 154.106 17.3009L153.972 17.1589C154.308 17.5658 154.7 18.0608 154.979 18.6484C155.129 18.9389 155.288 19.2421 155.426 19.5596C155.534 19.886 155.638 20.2222 155.736 20.5616C155.426 19.9735 155.5 20.5965 155.533 21.1474C155.507 21.7149 155.468 22.2025 155.196 21.4379C155.275 21.7285 155.346 21.9915 155.411 22.2304C155.445 22.3505 155.477 22.4646 155.508 22.5731C155.525 22.6834 155.541 22.7882 155.557 22.8874C155.617 23.2855 155.671 23.5984 155.718 23.8503C155.79 24.3545 155.797 24.6116 155.858 24.816C155.91 25.0218 155.976 25.1764 156.066 25.4967C156.119 25.8166 156.187 26.2999 156.219 27.1953L155.671 27.8788C155.673 28.1856 155.674 28.4226 155.675 28.648C155.655 28.871 155.63 29.0834 155.582 29.3385C155.534 29.5937 155.463 29.8921 155.349 30.2884C155.206 30.6748 155.002 31.153 154.729 31.7816C155.08 30.7023 154.77 31.0464 154.472 31.3374C154.172 31.6331 153.885 31.8724 154.229 30.6963C152.698 33.0034 151.602 34.7527 150.672 36.2241C150.172 36.9332 149.738 37.5762 149.241 38.1001C148.733 38.6164 148.203 39.0406 147.554 39.3293C146.963 40.5958 147.962 39.8256 148.918 38.8045C149.16 38.5526 149.406 38.2919 149.627 38.0475C149.838 37.7965 150.03 37.5669 150.18 37.3891C150.481 37.0343 150.618 36.8885 150.42 37.2056C150.938 36.8275 150.728 37.3583 150.225 38.1625C149.981 38.5708 149.618 39.0099 149.265 39.4518C148.907 39.8908 148.533 40.3117 148.186 40.6172C147.519 41.2774 146.751 41.6374 145.704 42.1966C145.184 42.4801 144.611 42.8293 143.927 43.2782C143.25 43.7345 142.494 44.3193 141.595 45.069C141.953 44.7724 141.931 44.6969 142.288 44.4008C140.802 45.3456 139.867 46.8625 137.916 47.8739C137.615 48.4708 137.053 48.8926 136.589 49.2637C136.119 49.6274 135.747 49.9417 135.826 50.3416C136.959 49.443 138.061 48.509 139.161 47.5787C137.355 49.2321 136.035 51.3427 132.466 53.3495C132.64 53.0459 133.508 52.1818 134.118 51.6118C133.027 52.124 132.349 53.0632 131.206 53.5768C131.082 52.7889 135.427 50.4078 137.155 48.3525C135.981 48.8824 133.495 51.7404 134.087 50.3188C133.143 52.2525 130.249 52.9202 128.027 55.34L127.955 54.8553C127.576 55.198 126.821 55.9579 126.033 56.4599L127.122 55.049C125.237 56.8952 122.72 57.4437 120.766 59.0017C125.142 56.174 122.039 58.8182 124.067 57.894C118.966 61.8736 120.342 58.9342 114.338 62.9236C115.136 62.3579 117.594 61.218 116.405 62.1972C115.189 62.843 113.558 63.6546 112.715 63.8953C108.685 66.4735 113.58 63.899 111.985 65.1949C110.313 65.5864 110.092 66.6062 108.385 67.8447L108.139 67.4685C103.317 70.0513 107.386 69.0195 102.994 71.267L104.452 69.6583L102.339 71.1231L102.528 70.4121C100.334 72.1805 99.5387 72.546 97.1218 73.8442C97.8305 73.7841 97.2393 74.7265 95.1756 75.9995C93.6255 76.636 95.7431 75.1512 92.8436 77.0029C93.3585 76.3585 93.8999 75.6103 95.3937 75.1842C95.4482 74.9794 95.9011 74.5454 95.9607 74.3401C94.2778 75.0031 92.0986 76.6156 91.0409 77.2772C91.4584 77.0393 91.9588 76.7566 92.2435 76.6579L88.3296 79.8209C87.5734 80.0951 88.03 79.6495 88.4834 79.209C87.6517 79.7887 87.1657 80.3303 85.9314 81.1642C86.0624 80.6525 85.7772 80.3736 87.4742 79.1094C86.1984 80.0653 84.9297 81.0366 83.6637 82.0083C83.3106 82.0479 81.3681 82.9745 81.8154 82.5247C79.4703 83.7959 76.7749 86.6981 73.7388 88.5121C73.6307 88.6769 73.3707 88.947 72.7916 89.427C70.063 91.3077 67.4095 92.7367 64.6866 95.6947C63.9704 96.0151 63.2515 96.3392 62.5437 96.6944C61.4213 97.8068 62.1374 97.4389 62.6607 97.2611C63.1905 97.0893 63.5064 97.0776 61.6869 98.9368C61.0583 99.6143 60.6586 99.9863 60.3944 100.179C60.1372 100.38 60.0104 100.392 59.9275 100.343C59.7612 100.243 59.7728 99.8895 59.2496 100.3C58.9873 100.694 58.676 101.161 58.327 101.684C57.9883 102.219 57.6039 102.798 57.172 103.398C56.7643 104.027 56.2923 104.657 55.79 105.313C55.3105 105.995 54.7291 106.626 54.1634 107.328C54.2953 107.063 54.4225 106.81 54.5674 106.586C54.7146 106.363 54.8637 106.153 55.0133 105.945C55.3143 105.538 55.598 105.117 55.9214 104.689ZM71.3444 131.622C70.5975 131.695 69.0739 131.882 68.5436 131.566C69.4419 131.125 70.0742 131.419 71.3444 131.622ZM128.08 123.5C127.577 123.749 126.742 123.837 125.783 123.847C126.449 123.682 127.213 123.552 128.08 123.5ZM264.621 130.314C264.638 130.284 264.65 130.263 264.662 130.237C265.318 129.641 265.511 129.416 265.453 129.487C265.388 129.549 265.067 129.896 264.621 130.314ZM261.906 132.692C261.676 132.971 261.735 133.003 261.892 132.952C262.007 132.704 262.605 132.176 263.286 131.554C263.02 131.648 262.636 131.913 261.906 132.692ZM144.377 47.4455L143.792 47.7854C144.857 46.7177 144.612 47.0777 144.377 47.4455Z" fill="#1F1F1F"/>
<path d="M121.838 125.319C121.621 125.282 121.55 125.21 121.487 125.136C121.219 125.263 121.229 125.35 121.838 125.319Z" fill="#1F1F1F"/>
<path d="M73.6377 88.576L73.7346 88.5127C73.7705 88.4535 73.7826 88.4116 73.7821 88.3785L73.6377 88.576Z" fill="#1F1F1F"/>
<path d="M236.331 106.073C235.647 106.024 235.263 105.956 235.006 105.881C234.972 105.995 235.287 106.068 236.331 106.073Z" fill="#1F1F1F"/>
<path d="M246.641 143.007C247.289 142.658 247.933 142.3 248.575 141.937C247.627 142.431 247.241 142.507 246.725 142.674C246.814 142.748 247.261 142.706 246.641 143.007Z" fill="#1F1F1F"/>
<path d="M228.096 147.465C227.817 147.62 227.467 147.69 227.192 147.844L227.341 148.014C228.607 147.561 229.437 147.093 228.096 147.465Z" fill="#1F1F1F"/>
<path d="M244.172 142.506C243.859 142.235 242.672 142.912 241.302 143.578C241.386 143.541 241.464 143.503 241.549 143.471C241.345 144.135 242.772 143.335 244.172 142.506Z" fill="#1F1F1F"/>
<path d="M240.983 143.727C240.558 143.926 240.122 144.125 239.69 144.281C239.608 144.546 240.235 144.105 240.983 143.727Z" fill="#1F1F1F"/>
<path d="M258.532 135.649C257.865 135.997 258.424 136.315 257.988 136.432C257.777 136.866 258.734 136.042 259.311 135.397C259.886 134.754 260.115 134.345 258.532 135.649Z" fill="#1F1F1F"/>
<path d="M242.541 141.874L243.226 142.079L243.844 141.386L242.541 141.874Z" fill="#1F1F1F"/>
<path d="M253.338 136.766C252.622 137.143 251.9 137.506 251.173 137.857C251.243 137.908 250.996 138.097 250.681 138.31C252.002 137.615 253.459 136.856 253.338 136.766Z" fill="#1F1F1F"/>
<path d="M250.681 138.31C249.992 138.671 249.344 139.027 248.993 139.291C249.367 139.097 250.159 138.656 250.681 138.31Z" fill="#1F1F1F"/>
<path d="M245.479 140.372L246.164 140.152L247.707 139.43C246.968 139.754 246.224 140.066 245.479 140.372Z" fill="#1F1F1F"/>
<path d="M267.079 116.468C266.764 115.613 266.358 114.802 265.896 114.035C265.617 113.88 265.909 114.543 266.348 115.426C266.536 115.692 266.696 116.068 266.842 116.313C266.974 116.562 267.061 116.693 267.079 116.468Z" fill="#1F1F1F"/>
<path d="M265.323 124C265.677 123.428 265.79 123.423 266.061 123.112L265.539 122.851C265.491 123.234 265.41 123.615 265.323 124Z" fill="#1F1F1F"/>
<path d="M265.799 117.135C265.696 117.037 265.328 116.246 265.046 115.87C264.914 115.678 264.829 115.58 264.852 115.699C264.872 115.818 265.025 116.148 265.271 116.842C265.522 116.992 266.17 119.297 265.799 117.135Z" fill="#1F1F1F"/>
<path d="M232.229 104.651L232.896 104.611L232.752 103.668L232.229 104.651Z" fill="#1F1F1F"/>
<path d="M197.96 111.265C201.061 110.967 198.588 110.559 201.406 110.375C202.09 110.033 199.103 110.525 199.809 110.211C197.997 110.76 197.004 110.797 197.96 111.265Z" fill="#1F1F1F"/>
<path d="M199.809 110.211C200.099 110.124 200.406 110.027 200.73 109.911C200.203 110.059 199.958 110.146 199.809 110.211Z" fill="#1F1F1F"/>
<path d="M72.1924 8.69067L70.1852 9.05363L71.5327 9.00098L72.1924 8.69067Z" fill="#1F1F1F"/>
<path d="M68.6485 10.444L68.0153 10.0033L66.9977 10.8913C67.444 10.7203 68.2734 10.4128 68.6485 10.444Z" fill="#1F1F1F"/>
<path d="M77.0791 132.88L77.2333 132.73C76.9099 132.581 76.4282 132.584 75.4572 132.565C75.9967 132.674 76.5386 132.783 77.0791 132.88Z" fill="#1F1F1F"/>
<path d="M50.652 121.435L50.7987 121.986C50.8817 121.592 50.9381 121.219 51.0564 120.841C50.9022 121.039 50.781 121.233 50.652 121.435Z" fill="#1F1F1F"/>
<path d="M60.0141 98.4335C59.2817 99.0826 58.573 100.026 57.8647 100.72C58.5795 99.9132 59.2733 99.3917 59.7206 99.0728C60.1674 98.7511 60.3468 98.5862 60.0141 98.4335Z" fill="#1F1F1F"/>
<path d="M134.553 152.806C137.968 152.806 140.736 150.039 140.736 146.626C140.736 143.214 137.968 140.447 134.553 140.447C131.138 140.447 128.369 143.214 128.369 146.626C128.369 150.039 131.138 152.806 134.553 152.806Z" fill="#C85342"/>
<path d="M61.8069 23.5476C66.2561 23.5476 69.8629 19.9433 69.8629 15.4971C69.8629 11.0509 66.2561 7.44656 61.8069 7.44656C57.3577 7.44656 53.7509 11.0509 53.7509 15.4971C53.7509 19.9433 57.3577 23.5476 61.8069 23.5476Z" fill="#8E80FA"/>
<path d="M281.448 110.77C280.71 111.088 280.329 111.91 280.564 112.679L285.522 128.909C283.794 128.695 281.739 129.445 280.145 130.773C277.659 132.844 276.362 136.388 278.461 138.859C280.689 141.481 284.808 140.597 287.123 138.089C288.77 136.305 289.227 133.411 288.694 131.665C288.682 131.628 288.666 131.599 288.654 131.563L288.662 131.56L283.955 116.154L300.239 109.138L303.792 120.769C302.064 120.555 300.009 121.305 298.414 122.633C295.929 124.704 294.632 128.248 296.731 130.72C298.959 133.341 303.077 132.457 305.393 129.949C307.04 128.164 307.497 125.271 306.963 123.524C306.952 123.488 306.936 123.458 306.924 123.422L306.932 123.42L301.067 104.223C300.793 103.324 299.797 102.864 298.933 103.236L281.448 110.77Z" fill="#ECB041"/>
<path d="M175.722 103.707C176.164 103.398 176.302 102.808 176.044 102.335L170.592 92.3581C171.755 92.265 173.001 91.4949 173.868 90.4077C175.218 88.7128 175.588 86.212 173.876 84.8752C172.06 83.4569 169.477 84.594 168.299 86.5523C167.46 87.9459 167.552 89.9057 168.139 90.9794C168.151 91.0018 168.166 91.019 168.178 91.0409L168.174 91.0432L173.349 100.513L163.617 107.319L159.71 100.169C160.873 100.076 162.119 99.3061 162.986 98.2189C164.336 96.524 164.706 94.0232 162.994 92.6864C161.178 91.2681 158.596 92.4052 157.417 94.3636C156.578 95.7572 156.67 97.7169 157.257 98.7907C157.269 98.813 157.284 98.8302 157.296 98.8521L157.292 98.8545L163.74 110.654C164.042 111.207 164.758 111.374 165.274 111.013L175.722 103.707Z" fill="#6FC4CE"/>
<path d="M203.423 14.1822C205.626 14.1822 207.412 12.3975 207.412 10.196C207.412 7.99453 205.626 6.20987 203.423 6.20987C201.22 6.20987 199.434 7.99453 199.434 10.196C199.434 12.3975 201.22 14.1822 203.423 14.1822Z" fill="#8E80FA"/>
<path d="M33.6544 57.8749L33.0794 57.63C32.8119 57.5159 32.5026 57.6402 32.3884 57.9075L27.1606 70.1551C26.2688 69.1941 24.7209 68.6307 23.1577 68.6237C20.7209 68.6125 18.2542 70.0266 18.2649 72.4674C18.2766 75.0571 21.0787 76.5434 23.6293 76.2198C25.4441 75.9898 27.1112 74.544 27.6512 73.279C27.6624 73.2524 27.6675 73.2277 27.6782 73.2012L27.6834 73.2035L33.9316 58.5654C34.0462 58.2977 33.9218 57.989 33.6544 57.8749Z" fill="#0F0E13"/>
<path d="M167.961 59.8473L167.579 59.9557C167.401 60.006 167.297 60.1914 167.348 60.3692L169.664 68.5208C168.838 68.4016 167.847 68.742 167.07 69.3631C165.859 70.3316 165.205 72.0181 166.187 73.2217C167.229 74.4989 169.211 74.1138 170.344 72.9344C171.15 72.0949 171.396 70.7129 171.157 69.8711C171.152 69.8534 171.145 69.839 171.139 69.8217L171.143 69.8208L168.375 60.0782C168.325 59.8999 168.139 59.797 167.961 59.8473Z" stroke="#0F0E13" stroke-width="0.465937" stroke-miterlimit="10"/>
<path d="M262.687 95.1663H292.293" stroke="#0F0E13" stroke-width="0.465937" stroke-miterlimit="10" stroke-linecap="round" stroke-linejoin="round"/>
<path d="M253.386 95.1663H259.043" stroke="#0F0E13" stroke-width="0.465937" stroke-miterlimit="10" stroke-linecap="round" stroke-linejoin="round"/>
<path d="M32.5099 138.558H56.7568" stroke="#0F0E13" stroke-width="0.465937" stroke-miterlimit="10" stroke-linecap="round" stroke-linejoin="round"/>
<path d="M12.5466 86.6655H34.3385" stroke="#0F0E13" stroke-width="0.465937" stroke-miterlimit="10" stroke-linecap="round" stroke-linejoin="round"/>
<path d="M252.235 12.8463H277.566" stroke="#0F0E13" stroke-width="0.465937" stroke-miterlimit="10" stroke-linecap="round" stroke-linejoin="round"/>
<path d="M61.7334 17.4308H87.6348" stroke="#0F0E13" stroke-width="0.465937" stroke-miterlimit="10" stroke-linecap="round" stroke-linejoin="round"/>
<path d="M37.0364 86.6655H44.4699" stroke="#0F0E13" stroke-width="0.465937" stroke-miterlimit="10" stroke-linecap="round" stroke-linejoin="round"/>
<path d="M283.407 34.2629L275.112 26.8726L266.814 34.2629L257.122 25.6303L259.912 22.5019L266.814 28.6494L275.112 21.2591L283.408 28.6494L291.706 21.2596L300.005 28.6499L308.306 21.2596L318 29.8917L315.211 33.0206L308.306 26.8722L300.005 34.2629L291.706 26.8726L283.407 34.2629Z" fill="#6FC4CE"/>
<path d="M33.9539 40.9254L29.8411 37.262L25.7273 40.9254L20.9221 36.6455L22.3055 35.0945L25.7273 38.1424L29.8411 34.4785L33.9544 38.1424L38.0681 34.479L42.1828 38.1429L46.298 34.479L51.1041 38.7585L49.7212 40.3099L46.298 37.2615L42.1828 40.9254L38.0681 37.2615L33.9539 40.9254Z" fill="#181820"/>
<path d="M20.6666 152.294L14.2437 146.572L7.81888 152.294L0 145.33L2.79003 142.201L7.81888 146.68L14.2442 140.958L20.6671 146.68L27.0919 140.959L33.5176 146.681L39.9438 140.959L47.7655 147.923L44.9759 151.052L39.9438 146.572L33.5176 152.294L27.0919 146.572L20.6666 152.294Z" fill="#C85342"/>
<path d="M180.554 159.362L171.244 178.064C171.244 178.064 178.867 181.723 182.977 181.2L193.937 162.75" fill="#181820"/>
<path d="M187.186 179.453C186.814 179.302 186.444 179.175 186.078 179.066C185.782 178.552 185.459 178.08 185.193 177.907C184.509 177.462 179.007 177.342 177.46 177.432C176.542 177.485 175.803 178.198 175.354 178.769L172.707 175.124C171.614 175.124 170.323 176.183 168.985 178.858C167.59 181.644 166.486 189.527 166.486 189.527H191.779C191.779 189.527 193.566 182.044 187.186 179.453Z" fill="#ECB041"/>
<path d="M175.354 178.769L174.353 180.761C174.353 180.761 178.457 177.774 186.078 179.067C186.078 179.067 185.729 177.64 184.807 177.224C183.885 176.808 177.491 176.659 176.866 176.897C176.242 177.135 175.354 178.769 175.354 178.769Z" fill="#40624A"/>
<path d="M166.249 189.527C166.249 189.527 166.249 187.92 166.755 187.741H192.009C192.009 187.741 193.029 188.427 192.213 189.527H166.249Z" fill="#40624A"/>
<path d="M258.029 167.268L273.493 179.988C273.493 179.988 280.043 176.694 281.187 172.715L267.605 157.282" fill="#181820"/>
<path d="M284.797 174.044C282.79 172.172 281.187 172.715 281.187 172.715C280.088 174.473 278.32 175.943 276.595 177.075C276.592 177.073 275.726 176.615 275.102 176.615C274.478 176.615 270.998 177.016 269.858 177.75C268.718 178.485 268.371 179.749 268.371 179.749C265.781 179.954 262.328 180.673 261.005 182.974C258.775 186.852 260.351 189.527 260.351 189.527H279.564L289.673 181.771C289.673 181.771 286.805 175.917 284.797 174.044Z" fill="#ECB041"/>
<path d="M268.371 179.749C268.371 179.749 268.786 177.816 269.824 177.397C271.81 176.596 274.61 176.37 275.376 176.474C276.736 176.659 278.104 178.294 278.104 178.294C276.438 178.1 271.62 179.602 268.371 179.749Z" fill="#40624A"/>
<path d="M259.627 189.527C259.627 189.527 259.038 187.922 259.846 187.741H278.609L288.711 179.904C288.711 179.904 289.873 180.307 289.672 181.771L279.563 189.527H259.627Z" fill="#40624A"/>
<path d="M207.173 35.21C207.173 35.21 205.983 34.2471 203.841 36.4313C201.7 38.6155 196.58 46.3783 200.132 47.8133C203.685 49.2484 210.148 38.2905 207.173 35.21Z" fill="#181820"/>
<path d="M293.911 54.494C296.498 54.9843 297.257 53.0352 295.472 52.2949C293.709 51.5634 291.49 51.2822 290.833 51.1951C289.263 50.987 287.085 51.1206 287.085 51.1206C287.085 51.1206 293.024 47.3365 293.836 45.7711C294.669 44.1661 293.643 43.8542 293.241 43.7396C292.84 43.6251 291.145 44.9242 289.494 45.9495C287.843 46.9748 284.458 48.9187 284.458 48.9187C284.458 48.9187 285.449 44.7011 284.23 43.7327C283.137 42.8643 282.357 44.3445 281.88 45.9495C281.405 47.5545 280.185 48.7432 279.65 50.4371C279.115 52.131 277.717 53.6997 277.717 53.6997C274.618 55.1007 262.762 60.4372 259.678 61.6967C258.957 61.9909 253.629 57.3548 253.629 57.3548L245.352 64.95C245.352 64.95 252.473 71.0067 255.896 72.2839C258.696 73.3292 275.702 62.7476 280.631 59.6508C281.398 59.3765 286.371 59.0268 287.212 58.5081C288.671 60.8558 289.643 61.7907 290.981 61.0774C291.243 60.9377 290.536 58.841 290.039 57.7492C290.944 58.0635 291.884 58.3941 292.468 58.6106C294.788 59.4724 295.546 57.8972 295.309 57.4516C295.071 57.006 292.558 55.5645 292.052 55.267C291.547 54.9699 288.067 54.0037 288.067 54.0037C288.067 54.0037 291.323 54.0037 293.911 54.494Z" fill="#AA5939"/>
<path d="M243.721 79.5415C243.721 79.5415 246.445 82.684 238.683 84.2443C230.92 85.8045 231.634 78.1367 231.634 78.1367L238.504 76.0862L243.721 79.5415Z" fill="black"/>
<path d="M241.256 89.8908C241.256 89.8908 227.417 95.7287 212.764 90.1869C214.515 86.2879 214.516 74.7293 214.017 73.3018L237.958 72.939C237.958 72.939 238.769 82.8232 241.256 89.8908Z" fill="#AA5939"/>
<path d="M239.376 82.7673C236.485 81.3127 229.317 85.2826 223.353 86.2129C216.821 87.2317 213.754 86.2129 213.754 86.2129H213.75C214.486 81.2401 214.393 74.3815 214.015 73.3013L237.96 72.9381C237.96 72.9381 238.342 77.5757 239.376 82.7673Z" fill="black"/>
<path d="M208.014 35.8888C207.879 36.2055 208.094 36.7554 208.014 37.167C206.62 44.3594 201.092 44.8124 200.647 44.4972C190.774 37.4887 182.489 28.1903 176.675 18.2186C175.273 18.1767 173.567 17.2827 172.677 15.9697C171.764 16.8544 171.461 15.6624 171.461 15.6624C171.461 15.6624 171.158 16.3189 170.473 16.3794C169.872 16.4306 169.635 15.6298 169.583 15.4342C169.579 15.4063 169.574 15.3923 169.574 15.3923C169.369 14.219 169.206 13.0456 169.243 12.7383C169.323 12.1097 170.334 11.5696 170.334 11.5696C170.334 11.5696 170.273 10.9177 170.366 10.508C170.539 9.78162 172.169 9.32531 172.169 9.32531C172.067 8.57101 172.132 8.34751 172.183 8.28233C172.612 7.74221 173.437 7.46284 173.437 7.46284C173.437 7.46284 170.413 2.84856 170.087 1.77298C169.761 0.692746 170.161 -0.112775 170.939 0.0129421C171.717 0.138659 177.225 7.72824 177.225 7.72824C177.174 6.73647 177.076 6.25689 177.029 4.71103C176.815 2.504 178.991 0.506498 179.741 3.51439C180.086 4.89262 180.454 6.04736 180.822 7.25331C182.178 11.6953 181.894 14.0886 181.894 14.0886C181.894 14.0886 193.761 26.6649 198.318 30.1664C200.512 31.4282 204.617 33.8634 208.014 35.8888Z" fill="#AA5939"/>
<path d="M245.117 69.3612C242.858 67.2501 240.124 63.8045 240.124 63.8045C240.384 69.8864 243.923 79.8446 243.923 79.8446C242.385 77.9137 231.617 83.1296 222.308 85.196C215.857 86.6278 210.402 85.196 210.402 85.196C210.92 72.3994 213.065 57.5457 213.065 57.5457C206.768 54.1653 199.766 47.6224 199.766 47.6224C204.154 49.4719 209.328 38.1704 207.173 35.2104C215.487 40.4947 225.754 43.451 225.754 43.451L242.858 48.184C245.633 48.942 256.93 59.7881 256.93 59.7881C256.038 65.2633 251.275 67.8359 245.117 69.3612Z" fill="#ECB041"/>
<path d="M233.733 24.7233L246.956 35.318C246.956 35.318 249.895 44.5847 239.47 45.3996C229.317 46.193 221.25 30.5733 221.25 30.5733C221.25 30.5733 213.615 30.1389 218.011 21.1916" fill="black"/>
<path d="M227.348 22.4697C217.561 21.7182 216.836 39.4825 223.758 40.6931C224.346 40.796 224.919 40.8388 225.478 40.8332C225.062 42.0075 224.539 43.4319 223.977 44.8418C224.195 45.272 226.392 47.14 227.998 47.3538C230.471 47.6834 232.444 46.8826 232.928 46.3061C233.552 38.995 233.832 35.9303 233.832 35.9303C233.832 35.9294 233.831 35.9284 233.831 35.9284C234.423 35.02 234.872 34.0599 235.153 33.1142C236.843 27.416 232.672 22.8781 227.348 22.4697Z" fill="#AA5939"/>
<path d="M243.045 40.5995C255.06 40.2941 252.461 26.738 251.425 24.5054C249.355 25.8757 242.787 26.4815 237.707 21.6488C236.693 20.6845 234.593 16.5689 230.184 15.4678C223.702 13.8488 219.897 16.0703 218.091 19.0679C216.321 22.0074 217.985 29.3632 227.256 27.2852C227.215 28.2085 227.992 29.4847 228.527 29.9392C229.598 30.8499 231.005 30.8807 232.05 30.5659C231.852 31.2052 231.832 31.9171 232.099 32.5313C232.365 33.1454 232.945 33.6399 233.611 33.7065C234.277 33.7735 234.988 33.3484 235.159 32.7012" fill="black"/>
<path d="M231.993 32.2296C232.368 31.5684 234.187 29.9108 235.537 31.0827C237.135 32.4712 235.455 35.7552 233.522 36.2306C231.902 36.6296 230.425 34.9939 231.993 32.2296Z" fill="#AA5939"/>
<path d="M248.819 19.0721C247.996 19.541 247.141 19.8311 246.238 20.1011C245.331 20.3721 244.392 20.5695 243.448 20.6492C241.354 20.8261 239.23 20.4773 237.318 19.5983C236.02 19.0013 234.86 18.186 233.75 17.2944C233.56 17.1412 233.308 17.3787 233.477 17.5672C236.581 21.0114 241.669 22.2551 246.035 20.7507C247.059 20.3982 248.026 19.8548 248.94 19.2793C249.07 19.1974 248.954 18.9953 248.819 19.0721Z" fill="black"/>
<path d="M234.675 31.5823C234.675 31.5823 233.694 32.0061 233.582 32.6747C233.471 33.3433 234.553 33.4094 234.553 33.4094C234.553 33.4094 232.467 33.9118 232.88 35.3832" stroke="#0F0E13" stroke-width="0.232968" stroke-miterlimit="10" stroke-linecap="round" stroke-linejoin="round"/>
<path d="M257.91 145.81C256.588 143.866 257.397 141.268 255.947 139.36C254.817 137.875 253.755 138.79 252.765 138.172C251.813 137.577 252.11 136.834 251.307 136.121C250.187 135.126 249.166 135.556 248.697 135.021C248.464 134.754 248.377 134.331 248.35 133.975C248.352 133.776 248.353 133.563 248.354 133.328V133.327C248.386 125.208 247.885 95.4852 240.843 88.5838C240.843 88.5838 224.639 91.8674 213.425 88.039C213.425 88.039 199.661 118.233 196.109 125.957C190.646 137.836 176.599 165.544 176.599 165.544C182.013 173.973 196.466 174.579 205.745 172.642L214.405 131.464L224.229 111.929L225.693 112.857C225.997 118.291 227.034 135.161 228.504 140.936C230.655 149.385 253.449 179.988 253.449 179.988C267.101 177.774 271.055 169.348 272.84 162.572L257.91 145.81Z" fill="#40624A"/>
<path d="M226.028 111.394L221.567 108.838C221.567 108.838 211.961 126.997 211.247 129.582C210.533 132.168 200.897 171.221 200.897 171.221" stroke="white" stroke-width="0.465937" stroke-miterlimit="10" stroke-linecap="round"/>
<path d="M213.75 90.7974C213.75 90.7974 224.749 94.9754 240.749 90.7084" stroke="white" stroke-width="0.465937" stroke-miterlimit="10" stroke-linecap="round"/>
<path d="M237.649 91.4367C237.649 91.4367 239.322 94.5424 240.184 102.061C240.863 107.981 242.504 131.662 242.742 134.872C242.979 138.082 246.548 136.418 247.262 138.201C247.976 139.984 247.143 140.579 248.214 141.768C249.285 142.957 250.593 140.698 252.14 143.551C253.687 146.404 268.914 164.712 268.914 164.712" stroke="white" stroke-width="0.465937" stroke-miterlimit="10" stroke-linecap="round"/>
<path d="M225.478 40.8332C225.478 40.8332 228.965 40.6 231.326 37.7024C231.326 37.7024 230.443 42.3716 224.57 43.3136L225.478 40.8332Z" fill="black"/>
<path d="M244.548 68.8081C242.419 66.6988 240.122 63.8027 240.122 63.8027C240.122 63.8027 240.037 60.0544 240.601 59.3979C241.164 58.7461 242.392 59.3556 242.712 62.2382C243.099 65.7136 243.946 68.0612 244.548 68.8081Z" fill="black"/>
<path d="M213.186 56.8878C213.186 56.8878 213.745 53.7956 214.101 52.4583" stroke="#0F0E13" stroke-width="0.232968" stroke-miterlimit="10" stroke-linecap="round" stroke-linejoin="round"/>
<path d="M289.643 57.4817C289.643 57.4817 288.825 57.0726 287.561 56.411" stroke="#0F0E13" stroke-width="0.232968" stroke-miterlimit="10" stroke-linecap="round" stroke-linejoin="round"/>
<path d="M170.539 12.4473C170.539 12.4473 171.254 15.5311 171.655 16.0358C172.237 16.7701 173.086 15.7006 173.413 14.6902" stroke="#0F0E13" stroke-width="0.232968" stroke-miterlimit="10" stroke-linecap="round" stroke-linejoin="round"/>
<path d="M172.323 10.3073C172.323 10.3073 173.215 14.8322 173.743 15.3672C174.123 15.7513 175.302 15.281 175.468 13.9852C175.565 13.2272 175.438 11.9635 174.978 10.196" stroke="#0F0E13" stroke-width="0.232968" stroke-miterlimit="10" stroke-linecap="round" stroke-linejoin="round"/>
<path d="M212.459 189.527H217.394L199.84 75.9339L197.885 76.2072L212.459 189.527Z" fill="#181820"/>
<path d="M207.782 48.8475C208.282 49.0142 208.63 49.3219 208.559 49.5343L196.555 85.4791C196.484 85.6914 196.021 85.7286 195.521 85.562C195.021 85.3953 194.673 85.088 194.744 84.8752L206.748 48.9304C206.819 48.718 207.282 48.6808 207.782 48.8475Z" fill="#181820"/>
<path d="M195.462 76.5457C195.725 78.4222 197.46 79.731 199.337 79.4684C201.215 79.2058 202.525 77.4718 202.262 75.5954C201.999 73.7189 200.264 72.4101 198.386 72.6727C196.509 72.9353 195.199 74.6693 195.462 76.5457Z" fill="#181820"/>
<path d="M197.113 76.3152C197.248 77.2809 198.141 77.9542 199.107 77.8192C200.073 77.6842 200.747 76.792 200.612 75.8263C200.477 74.8607 199.584 74.1874 198.618 74.3224C197.651 74.4574 196.978 75.3495 197.113 76.3152Z" fill="#40624A"/>
<path d="M215.614 49.9333C217.897 48.1016 218.261 44.7677 216.428 42.4876C214.595 40.207 211.258 39.8433 208.976 41.6751C207.427 42.9188 206.765 44.8539 207.071 46.6823L197.88 54.6319L198.44 55.3293L197.228 56.3779L198.714 58.2274L200 57.2705L200.56 57.968L210.31 50.7127C212.031 51.406 214.065 51.177 215.614 49.9333Z" fill="#181820"/>
<path d="M204.319 48.0494L200.887 51.0177L205.095 56.2527L208.735 53.5437L204.319 48.0494Z" fill="#40624A"/>
<path d="M39.4973 98.7459C39.4973 98.7459 51.3312 76.4424 64.9696 62.3551L67.6292 64.8517C67.6292 64.8517 52.3423 82.7436 45.6151 97.3686L39.4973 98.7459Z" fill="#181820"/>
<path d="M51.8816 162.427L62.368 139.836L78.6455 147.113L66.1225 168.555L51.8816 162.427Z" fill="#E2A687"/>
<path d="M51.8816 162.427L44.2952 178.799C44.2952 178.799 41.5918 185.406 59.6082 179.709L66.1224 168.555C63.7271 165.003 55.3416 161.99 51.8816 162.427Z" fill="#181820"/>
<path d="M40.5074 189.529H71.6586C71.6586 189.529 74.2068 180.557 60.7291 180.085C60.7291 180.085 60.9965 179.356 60.4663 178.779C60.4663 178.779 59.5927 177.935 57.16 177.15C55.5078 176.621 54.3206 176.5 53.4344 176.899C51.7645 177.652 49.3476 180.056 47.305 180.398C45.2628 180.744 44.2368 179.527 44.2946 178.8C44.0178 178.822 43.146 179.168 42.5179 179.866C40.3653 182.259 40.5074 189.529 40.5074 189.529Z" fill="#8E80FA"/>
<path d="M40.4134 189.529H71.8478C72.2001 189.304 72.2471 187.856 71.8478 187.71H40.5434C40.2601 187.744 40.0188 188.62 40.4134 189.529Z" fill="#5049D6"/>
<path d="M41.1099 183.119C41.1099 183.119 43.3352 184.032 43.4764 187.709H40.5433C40.5433 187.709 40.3453 185 41.1099 183.119Z" fill="#181820"/>
<path d="M51.8816 163.924C51.8816 163.924 60.1939 164.89 64.4172 169.467" stroke="white" stroke-width="0.465937" stroke-miterlimit="10" stroke-linecap="round"/>
<path d="M123.508 166.552L109.592 141.768L128.16 136.085L137.168 159.221L134.232 166.852L123.508 166.552Z" fill="#E2A687"/>
<path d="M122.766 165.231L131.616 182.672C131.616 182.672 138.672 197.096 145.416 179.455L136.734 158.107C134.813 162.423 124.077 165.396 122.766 165.231Z" fill="#181820"/>
<path d="M126.107 189.529H157.435C157.435 189.529 160.345 180.572 146.867 180.1C146.867 180.1 146.444 177.943 145.728 177.625C144.163 176.932 139.377 177.262 138.491 177.661C136.821 178.414 136.419 180.256 132.904 180.398C130.834 180.482 130.277 179.725 129.655 178.776C129.378 178.799 128.745 179.168 128.117 179.866C125.965 182.259 126.107 189.529 126.107 189.529Z" fill="#8E80FA"/>
<path d="M126.013 189.529H157.625C157.977 189.304 158.024 187.856 157.625 187.71H126.142C125.859 187.744 125.618 188.62 126.013 189.529Z" fill="#5049D6"/>
<path d="M126.709 183.119C126.709 183.119 128.934 184.032 129.075 187.709H126.142C126.142 187.709 125.944 185 126.709 183.119Z" fill="#181820"/>
<path d="M124.612 166.852C124.612 166.852 132.82 165.886 136.925 160.997" stroke="white" stroke-width="0.465937" stroke-miterlimit="10" stroke-linecap="round"/>
<path d="M114.198 70.3497L119.884 83.5458L108.961 86.7064L103.02 74.3052L114.198 70.3497Z" fill="#E2A687"/>
<path d="M129.341 137.607C124.037 141.647 112.121 145.364 104.626 147.325C104.336 146.241 102.137 138.224 101.087 134.112C100.911 133.424 100.554 132.796 100.049 132.296C99.3209 131.576 99.9532 129.906 99.6508 129.557C90.5743 123.56 83.6179 116.683 82.8351 116.031C85.4728 124.411 88.048 133.326 87.8523 136.656C87.7335 138.676 85.1163 144.858 81.6069 152.348C76.866 151.333 66.5087 146.434 60.0596 142.956C61.5357 139.129 63.1903 135.698 63.2229 135.195C63.2741 134.338 62.114 133.794 62.1186 132.937C62.0907 132.01 63.7867 131.442 64.3924 130.739C61.7557 125.035 58.6064 117.684 57.8609 115.999C54.8137 109.075 56.0903 99.7205 60.6938 91.209C67.0072 92.1169 80.5473 93.8909 90.1829 95.0596C96.029 100.191 109.35 110.398 118.991 119.596C121.047 121.558 127.36 132.9 129.341 137.607Z" fill="#8E80FA"/>
<path d="M105.407 144.473C105.407 144.473 105.732 144.4 106.311 144.258" stroke="white" stroke-width="0.465937" stroke-miterlimit="10" stroke-linecap="round"/>
<path d="M108.19 143.775C112.249 142.689 119.899 140.375 125.332 137.118" stroke="white" stroke-width="0.465937" stroke-miterlimit="10" stroke-linecap="round" stroke-dasharray="1.94 1.94"/>
<path d="M126.159 136.605C126.423 136.434 126.681 136.26 126.932 136.085" stroke="white" stroke-width="0.465937" stroke-miterlimit="10" stroke-linecap="round"/>
<path d="M61.756 141.154C61.756 141.154 72.0313 146.88 81.9497 149.376" stroke="white" stroke-width="0.465937" stroke-miterlimit="10" stroke-linecap="round" stroke-dasharray="1.86 1.86"/>
<path d="M76.345 111.091C76.345 111.091 65.922 112.548 60.382 121.777C59.1892 119.053 58.2293 116.832 57.8613 115.999C54.814 109.075 56.0907 99.7205 60.6941 91.209C63.9743 91.6793 69.2022 92.387 74.8167 93.118C73.2092 96.2283 72.1282 98.7473 72.1282 98.7473L76.345 111.091Z" fill="#181820"/>
<path d="M89.7734 122.173C85.8922 118.951 83.3109 116.427 82.8403 116.036C82.8356 116.031 82.8356 116.031 82.8356 116.031C82.8356 116.031 81.8749 112.196 81.2934 109.657C80.806 107.528 84.8638 105.977 85.8922 110.751C86.4583 113.379 85.2431 117.211 89.5032 121.777C89.615 121.897 89.6849 122.042 89.7734 122.173Z" fill="#181820"/>
<path d="M108.212 56.9027C107.793 55.9309 102.73 53.7015 97.2786 51.177C95.2108 50.2257 92.0667 49.4356 87.9403 48.9844C84.0605 48.5602 77.5401 47.6355 72.4023 47.4306C72.3818 47.4297 68.5238 47.8217 53.8645 56.35C54.6967 61.5752 57.1 66.8073 60.2744 70.7362C61.7127 70.0564 64.7739 68.0314 64.7739 68.0314C57.6763 80.9263 56.1341 89.455 54.8854 100.154C54.6198 102.429 69.1607 102.918 76.4443 97.8575C83.2623 93.1203 89.183 94.9358 91.8789 96.4006C92.4515 95.427 92.5223 95.6067 92.9981 82.5C93.1178 79.196 98.0018 75.506 100.106 72.8659C100.96 74.1985 101.806 75.4911 102.143 75.939C106.515 76.7348 112.901 73.3921 114.843 71.355C112.626 64.6729 108.212 56.9027 108.212 56.9027Z" fill="#C85342"/>
<path d="M104.753 75.9879C103.84 76.095 102.959 76.0903 102.144 75.9413C101.804 75.4897 100.961 74.1999 100.108 72.8683C100.108 72.8683 101.682 71.1152 102.961 68.7447C104.63 65.6521 103.053 74.0183 104.753 75.9879Z" fill="#181820"/>
<path d="M65.3103 67.5262C65.3103 67.5262 69.3537 65.0296 72.0901 63.7221" stroke="#0F0E13" stroke-width="0.232968" stroke-miterlimit="10" stroke-linecap="round" stroke-linejoin="round"/>
<path d="M147.877 74.3443L30.3542 100.805C29.0794 101.092 28.2789 102.357 28.5664 103.631L31.917 118.491C32.204 119.765 33.4704 120.565 34.7447 120.278L129.13 99.0272C130.405 98.7404 131.205 97.4749 130.918 96.2014L128.961 87.5223L147.483 83.3522C148.758 83.0654 149.558 81.7998 149.271 80.5263L147.877 74.3443Z" fill="#ECB041"/>
<path d="M125.727 83.6863L40.4277 102.893L43.6415 117.146L128.941 97.9394L125.727 83.6863Z" fill="white"/>
<path d="M45.1359 101.832L42.8279 102.352L44.8247 111.208L47.1328 110.689L45.1359 101.832Z" fill="#181820"/>
<path d="M48.6901 101.032L46.3821 101.552L48.3789 110.408L50.687 109.888L48.6901 101.032Z" fill="#181820"/>
<path d="M70.0152 96.2306L67.7072 96.7503L69.704 105.607L72.0121 105.087L70.0152 96.2306Z" fill="#181820"/>
<path d="M73.5692 95.4303L71.2611 95.95L73.258 104.806L75.566 104.286L73.5692 95.4303Z" fill="#181820"/>
<path d="M94.8941 90.6289L92.5861 91.1486L94.5829 100.005L96.891 99.4851L94.8941 90.6289Z" fill="#181820"/>
<path d="M98.4483 89.829L96.1403 90.3487L98.1371 99.2049L100.445 98.6852L98.4483 89.829Z" fill="#181820"/>
<path d="M119.773 85.0273L117.465 85.547L119.462 94.4032L121.77 93.8835L119.773 85.0273Z" fill="#181820"/>
<path d="M123.327 84.2273L121.019 84.747L123.016 93.6032L125.324 93.0836L123.327 84.2273Z" fill="#181820"/>
<path d="M55.7984 99.4318L53.4904 99.9515L55.4872 108.808L57.7953 108.288L55.7984 99.4318Z" fill="#181820"/>
<path d="M59.3529 98.6313L57.0448 99.151L59.0416 108.007L61.3497 107.487L59.3529 98.6313Z" fill="#181820"/>
<path d="M62.9068 97.8309L60.5988 98.3506L62.5956 107.207L64.9037 106.687L62.9068 97.8309Z" fill="#181820"/>
<path d="M80.6776 93.8299L78.3695 94.3496L80.3664 103.206L82.6744 102.686L80.6776 93.8299Z" fill="#181820"/>
<path d="M84.2318 93.0296L81.9237 93.5493L83.9206 102.406L86.2286 101.886L84.2318 93.0296Z" fill="#181820"/>
<path d="M87.7857 92.2297L85.4777 92.7494L87.4745 101.606L89.7826 101.086L87.7857 92.2297Z" fill="#181820"/>
<path d="M105.556 88.2282L103.248 88.7479L105.245 97.6041L107.553 97.0845L105.556 88.2282Z" fill="#181820"/>
<path d="M109.111 87.4279L106.803 87.9476L108.799 96.8038L111.108 96.2841L109.111 87.4279Z" fill="#181820"/>
<path d="M112.665 86.628L110.357 87.1477L112.353 96.0039L114.661 95.4842L112.665 86.628Z" fill="#181820"/>
<path d="M45.6146 109.329L47.1979 116.352" stroke="#181820" stroke-width="0.465937" stroke-miterlimit="10"/>
<path d="M49.1686 108.529L50.7523 115.552" stroke="#181820" stroke-width="0.465937" stroke-miterlimit="10"/>
<path d="M51.0929 100.498L54.3065 114.751" stroke="#181820" stroke-width="0.465937" stroke-miterlimit="10"/>
<path d="M56.2775 106.928L57.8607 113.951" stroke="#181820" stroke-width="0.465937" stroke-miterlimit="10"/>
<path d="M59.8317 106.128L61.4154 113.151" stroke="#181820" stroke-width="0.465937" stroke-miterlimit="10"/>
<path d="M61.756 98.0969L64.9695 112.35" stroke="#181820" stroke-width="0.465937" stroke-miterlimit="10"/>
<path d="M65.3099 97.2965L68.5235 111.55" stroke="#181820" stroke-width="0.465937" stroke-miterlimit="10"/>
<path d="M70.4945 103.727L72.0782 110.75" stroke="#181820" stroke-width="0.465937" stroke-miterlimit="10"/>
<path d="M74.0491 102.927L75.6323 109.95" stroke="#181820" stroke-width="0.465937" stroke-miterlimit="10"/>
<path d="M75.9731 94.8958L79.1867 109.149" stroke="#181820" stroke-width="0.465937" stroke-miterlimit="10"/>
<path d="M81.1575 101.326L82.7412 108.349" stroke="#181820" stroke-width="0.465937" stroke-miterlimit="10"/>
<path d="M84.7122 100.526L86.2954 107.549" stroke="#181820" stroke-width="0.465937" stroke-miterlimit="10"/>
<path d="M88.2664 99.7256L89.8496 106.749" stroke="#181820" stroke-width="0.465937" stroke-miterlimit="10"/>
<path d="M90.1904 91.6946L93.404 105.949" stroke="#181820" stroke-width="0.465937" stroke-miterlimit="10"/>
<path d="M95.375 98.1253L96.9583 105.148" stroke="#181820" stroke-width="0.465937" stroke-miterlimit="10"/>
<path d="M98.9292 97.3249L100.512 104.348" stroke="#181820" stroke-width="0.465937" stroke-miterlimit="10"/>
<path d="M100.853 89.2939L104.067 103.548" stroke="#181820" stroke-width="0.465937" stroke-miterlimit="10"/>
<path d="M106.038 95.7245L107.621 102.747" stroke="#181820" stroke-width="0.465937" stroke-miterlimit="10"/>
<path d="M109.592 94.9241L111.175 101.947" stroke="#181820" stroke-width="0.465937" stroke-miterlimit="10"/>
<path d="M113.146 94.1238L114.73 101.147" stroke="#181820" stroke-width="0.465937" stroke-miterlimit="10"/>
<path d="M115.071 86.0928L118.284 100.347" stroke="#181820" stroke-width="0.465937" stroke-miterlimit="10"/>
<path d="M120.255 92.5234L121.839 99.5463" stroke="#181820" stroke-width="0.465937" stroke-miterlimit="10"/>
<path d="M123.809 91.723L125.392 98.7459" stroke="#181820" stroke-width="0.465937" stroke-miterlimit="10"/>
<path d="M36.3702 107.834C37.4677 107.834 38.3574 106.945 38.3574 105.848C38.3574 104.751 37.4677 103.862 36.3702 103.862C35.2726 103.862 34.3829 104.751 34.3829 105.848C34.3829 106.945 35.2726 107.834 36.3702 107.834Z" fill="#181820"/>
<path d="M38.0005 115.064C39.098 115.064 39.9877 114.175 39.9877 113.079C39.9877 111.982 39.098 111.093 38.0005 111.093C36.903 111.093 36.0133 111.982 36.0133 113.079C36.0133 114.175 36.903 115.064 38.0005 115.064Z" fill="#181820"/>
<path d="M33.6973 111.546C34.353 111.546 34.8845 111.015 34.8845 110.36C34.8845 109.705 34.353 109.173 33.6973 109.173C33.0417 109.173 32.5101 109.705 32.5101 110.36C32.5101 111.015 33.0417 111.546 33.6973 111.546Z" fill="#181820"/>
<path d="M149.255 79.487L128.137 84.2419L126.967 79.0526L148.085 74.2977C148.697 74.1599 149.305 74.544 149.442 75.1554L150.113 78.1307C150.251 78.7416 149.867 79.3492 149.255 79.487Z" fill="#181820"/>
<path d="M130.573 82.0749C131.185 82.0749 131.681 81.5788 131.681 80.9668C131.681 80.3547 131.185 79.8586 130.573 79.8586C129.96 79.8586 129.464 80.3547 129.464 80.9668C129.464 81.5788 129.96 82.0749 130.573 82.0749Z" fill="#C85342"/>
<path d="M135.662 80.9291C136.274 80.9291 136.771 80.4329 136.771 79.8209C136.771 79.2089 136.274 78.7127 135.662 78.7127C135.049 78.7127 134.553 79.2089 134.553 79.8209C134.553 80.4329 135.049 80.9291 135.662 80.9291Z" fill="#C85342"/>
<path d="M140.751 79.7832C141.363 79.7832 141.86 79.287 141.86 78.675C141.86 78.063 141.363 77.5668 140.751 77.5668C140.139 77.5668 139.642 78.063 139.642 78.675C139.642 79.287 140.139 79.7832 140.751 79.7832Z" fill="#C85342"/>
<path d="M103.318 53.6471C103.318 53.6471 111.853 63.514 120.256 80.5635L115.619 81.6075C115.619 81.6075 106.479 61.3591 99.2408 52.3196C99.2408 52.3196 102.014 52.6548 103.318 53.6471Z" fill="#4B8590"/>
<path d="M69.2581 100.838C68.5219 99.5808 67.9534 99.064 67.6273 98.8684C67.3896 98.7194 66.2295 97.8208 65.7868 97.6485C64.855 97.2713 62.884 94.6406 62.3808 94.0958L61.0017 92.983L52.8944 70.9732L58.5042 68.2866C56.2771 64.8503 54.623 60.7715 53.9194 56.6741C50.5367 58.7274 42.5645 63.6909 40.7427 65.9445C38.5202 68.687 53.309 92.9411 54.7022 95.325C54.2083 97.425 54.0965 102.547 53.9148 103.031C53.8309 103.253 53.5499 103.792 53.1907 104.464C52.8827 105.041 52.9875 105.752 53.4484 106.216L55.5539 108.335C55.6984 109.329 55.7305 109.967 55.7939 110.324C55.9132 110.726 56.7966 111.518 57.8612 110.134C58.4097 109.421 58.4814 107.38 58.528 106.984C59.2549 108.153 60.1821 109.443 60.5036 109.834C61.0767 110.532 62.4186 109.578 62.0272 107.613C61.8827 106.891 60.5082 104.884 60.5082 104.884L61.0534 104.54C61.6451 105.429 61.9247 105.885 62.0924 106.053C62.7494 106.719 65.1629 107.836 65.997 108.288C67.008 108.837 67.7442 107.566 66.9242 106.616C66.0995 105.652 64.9905 104.796 64.3895 104.26C63.9655 103.59 63.602 102.519 63.411 101.811C63.3551 101.597 63.3877 100.968 63.4623 100.652C64.3522 100.954 65.2981 101.103 65.75 101.113C65.75 101.113 66.9801 102.058 67.9446 102.463C68.8993 102.863 70.0268 102.156 69.2581 100.838Z" fill="#E2A687"/>
<path d="M55.5097 107.749C55.5097 107.749 55.041 104.197 55.088 103.799C55.1351 103.4 55.9654 102.77 56.5031 102.172" stroke="#0F0E13" stroke-width="0.232968" stroke-miterlimit="10" stroke-linecap="round" stroke-linejoin="round"/>
<path d="M58.9971 102.149C58.9971 102.149 57.6212 103.119 57.1581 103.805C56.8198 104.306 57.8603 105.79 58.3793 106.678" stroke="#0F0E13" stroke-width="0.232968" stroke-miterlimit="10" stroke-linecap="round" stroke-linejoin="round"/>
<path d="M60.9995 104.318L60.0043 102.209" stroke="#0F0E13" stroke-width="0.232968" stroke-miterlimit="10" stroke-linecap="round" stroke-linejoin="round"/>
<path d="M136.586 93.7093C135.612 95.1621 133.362 95.9722 132.099 96.0328C130.552 96.1026 126.988 95.2505 126.433 93.5278C126.28 93.0435 126.895 91.4278 126.895 91.4278C126.895 91.4278 124.433 90.3443 124.302 89.9672C124.119 89.441 122.934 86.916 122.925 86.7158C122.901 85.9475 124.076 84.8719 125.315 86.3293C125.73 86.8182 126.042 87.5539 126.293 88.2756C126.839 88.4339 128.157 88.8902 128.157 88.8902C128.157 88.8902 126.294 86.8601 125.995 86.334C125.697 85.8078 125.767 82.7533 125.776 82.1294C125.795 81.0352 127.482 80.6162 128.106 82.1899L128.605 84.9837L130.51 87.1534L129.863 85.8823C129.863 85.8823 129.266 83.7544 128.684 82.4507C128.003 80.9141 129.746 80.2716 130.478 80.9235C131.675 81.9851 132.006 83.4145 132.206 83.8243C132.891 85.263 133.082 85.8451 133.082 85.8451L134.401 86.2967L136.008 85.9335C136.232 86.4457 136.511 87.1441 136.814 88.0335C137.201 89.1835 137.56 92.252 136.586 93.7093Z" fill="#E2A687"/>
<path d="M128.244 88.9773L129.892 90.5934" stroke="#0F0E13" stroke-width="0.232968" stroke-miterlimit="10" stroke-linecap="round" stroke-linejoin="round"/>
<path d="M127.012 91.5489L128.058 92.6499" stroke="#0F0E13" stroke-width="0.232968" stroke-miterlimit="10" stroke-linecap="round" stroke-linejoin="round"/>
<path d="M130.578 87.2941L131.597 89.1412" stroke="#0F0E13" stroke-width="0.232968" stroke-miterlimit="10" stroke-linecap="round" stroke-linejoin="round"/>
<path d="M108.757 37.7169C108.757 37.7169 108.941 41.0451 106.01 42.4569L106.541 37.2834L108.757 37.7169Z" fill="black"/>
<path d="M97.1477 32.3641C96.8639 32.447 96.5946 32.5373 96.3202 32.6528C94.9527 33.1585 93.7179 33.9561 92.814 35.0363C91.2699 36.883 91.2019 39.4462 91.6287 41.7584C91.4875 43.0179 91.3966 44.5061 91.1427 46.0528C89.9713 47.3487 87.9403 48.9839 87.9403 48.9839C87.9403 48.9839 91.644 57.2975 96.6999 54.8009L97.6681 51.8405C97.7772 51.9103 97.8857 51.9769 97.9938 52.0393C98.4574 52.3298 98.8959 52.5333 99.3213 52.693C101.297 53.418 102.691 52.964 102.691 52.964C105.8 51.8586 106.544 46.0906 107.06 42.509C107.277 41.0619 107.375 39.7791 107.431 38.8753C107.476 38.0577 107.473 37.5618 107.473 37.5618C107.475 37.526 107.479 37.5008 107.48 37.465C107.885 32.7687 101.951 30.9747 97.1477 32.3641Z" fill="#E2A687"/>
<path d="M112.701 31.5451C109.667 31.4338 108.285 30.5864 108.285 30.5864C110.805 30.3191 111.69 27.8448 109.906 28.2606C108.121 28.6769 104.379 27.7256 104.379 27.7256C106.883 28.0227 107.794 26.299 107.501 25.9423C107.208 25.5856 106.426 26.2692 104.79 25.8827C103.155 25.4962 99.5598 25.1037 97.8312 26.061C95.3627 27.4281 95.571 29.2263 95.571 29.2263C92.9729 29.1672 88.6602 30.1678 88.2101 34.8435C87.527 41.8469 91.1455 46.0468 91.1455 46.0468C91.2937 45.2334 91.4269 43.9827 91.6086 42.7409C91.7629 41.6863 91.4838 40.3593 91.7456 39.5914C92.007 38.8246 92.8098 38.616 93.2553 38.6802C94.6801 38.887 94.9177 40.9846 94.9177 40.9846C95.0007 41.5298 95.0794 41.9484 95.1647 42.2716L96.0965 42.0527C96.2377 41.5089 96.371 40.7825 96.4949 39.984C97.1011 39.8191 98.1942 39.4778 98.6545 39.0485C99.1894 38.5494 99.4774 37.7169 99.633 36.9449C101.51 38.4372 106.568 40.1488 109.837 37.8887L109.843 37.8915C114.597 36.6273 114.638 31.6163 112.701 31.5451Z" fill="black"/>
<path d="M97.6691 51.8409C97.6691 51.8409 93.9705 49.5133 92.7949 45.6817C92.7949 45.6817 92.7726 51.3879 97.0429 53.7556L97.6691 51.8409Z" fill="black"/>
<path d="M92.7944 39.7195C92.7944 39.7195 93.437 39.7134 93.6378 40.1432C93.9611 40.8342 92.7944 41.2579 92.7944 41.2579C92.7944 41.2579 93.5674 41.3226 93.7939 41.893C94.0949 42.651 92.9128 43.1413 92.9128 43.1413" stroke="#0F0E13" stroke-width="0.232968" stroke-miterlimit="10" stroke-linecap="round" stroke-linejoin="round"/>
</svg>
