<svg width="47" height="47" viewBox="0 0 47 47" fill="none" xmlns="http://www.w3.org/2000/svg">
<g filter="url(#filter0_i_61_2847)">
<path d="M36.6515 31.1229C37.2663 31.1338 37.8771 31.0222 38.4483 30.7945C39.0195 30.5668 39.5396 30.2276 39.9783 29.7967C40.4169 29.3658 40.7653 28.8518 41.0032 28.2848C41.241 27.7177 41.3635 27.109 41.3635 26.4941C41.3635 25.8792 41.241 25.2705 41.0032 24.7034C40.7653 24.1364 40.4169 23.6224 39.9783 23.1915C39.5396 22.7606 39.0195 22.4214 38.4483 22.1937C37.8771 21.966 37.2663 21.8544 36.6515 21.8653C35.4382 21.8869 34.2818 22.3841 33.4314 23.2498C32.581 24.1155 32.1045 25.2806 32.1045 26.4941C32.1045 27.7076 32.581 28.8727 33.4314 29.7384C34.2818 30.6041 35.4382 31.1012 36.6515 31.1229Z" fill="url(#paint0_linear_61_2847)"/>
<path d="M36.6515 31.1229C37.2663 31.1338 37.8771 31.0222 38.4483 30.7945C39.0195 30.5668 39.5396 30.2276 39.9783 29.7967C40.4169 29.3658 40.7653 28.8518 41.0032 28.2848C41.241 27.7177 41.3635 27.109 41.3635 26.4941C41.3635 25.8792 41.241 25.2705 41.0032 24.7034C40.7653 24.1364 40.4169 23.6224 39.9783 23.1915C39.5396 22.7606 39.0195 22.4214 38.4483 22.1937C37.8771 21.966 37.2663 21.8544 36.6515 21.8653C35.4382 21.8869 34.2818 22.3841 33.4314 23.2498C32.581 24.1155 32.1045 25.2806 32.1045 26.4941C32.1045 27.7076 32.581 28.8727 33.4314 29.7384C34.2818 30.6041 35.4382 31.1012 36.6515 31.1229Z" fill="url(#paint1_radial_61_2847)"/>
</g>
<g filter="url(#filter1_f_61_2847)">
<path d="M36.6513 29.425C37.4287 29.425 38.1742 29.1162 38.7238 28.5665C39.2735 28.0169 39.5822 27.2714 39.5822 26.4941C39.5822 25.7168 39.2735 24.9713 38.7238 24.4216C38.1742 23.872 37.4287 23.5632 36.6513 23.5632C35.8742 23.5632 35.1289 23.8719 34.5794 24.4214C34.0299 24.9709 33.7212 25.7162 33.7212 26.4934C33.7212 27.2705 34.0299 28.0158 34.5794 28.5653C35.1289 29.1148 35.8742 29.425 36.6513 29.425Z" fill="#E4AF9A"/>
<path d="M36.6513 29.425C37.4287 29.425 38.1742 29.1162 38.7238 28.5665C39.2735 28.0169 39.5822 27.2714 39.5822 26.4941C39.5822 25.7168 39.2735 24.9713 38.7238 24.4216C38.1742 23.872 37.4287 23.5632 36.6513 23.5632C35.8742 23.5632 35.1289 23.8719 34.5794 24.4214C34.0299 24.9709 33.7212 25.7162 33.7212 26.4934C33.7212 27.2705 34.0299 28.0158 34.5794 28.5653C35.1289 29.1148 35.8742 29.425 36.6513 29.425Z" fill="url(#paint2_radial_61_2847)"/>
<path d="M36.6513 29.425C37.4287 29.425 38.1742 29.1162 38.7238 28.5665C39.2735 28.0169 39.5822 27.2714 39.5822 26.4941C39.5822 25.7168 39.2735 24.9713 38.7238 24.4216C38.1742 23.872 37.4287 23.5632 36.6513 23.5632C35.8742 23.5632 35.1289 23.8719 34.5794 24.4214C34.0299 24.9709 33.7212 25.7162 33.7212 26.4934C33.7212 27.2705 34.0299 28.0158 34.5794 28.5653C35.1289 29.1148 35.8742 29.425 36.6513 29.425Z" fill="url(#paint3_radial_61_2847)"/>
</g>
<g filter="url(#filter2_i_61_2847)">
<path d="M10.6012 31.1229C11.216 31.1338 11.8269 31.0222 12.398 30.7945C12.9692 30.5668 13.4893 30.2276 13.928 29.7967C14.3666 29.3658 14.715 28.8518 14.9529 28.2848C15.1907 27.7177 15.3132 27.109 15.3132 26.4941C15.3132 25.8792 15.1907 25.2705 14.9529 24.7034C14.715 24.1364 14.3666 23.6224 13.928 23.1915C13.4893 22.7606 12.9692 22.4214 12.398 22.1937C11.8269 21.966 11.216 21.8544 10.6012 21.8653C9.3879 21.8869 8.23155 22.3841 7.38112 23.2498C6.5307 24.1155 6.0542 25.2806 6.0542 26.4941C6.0542 27.7076 6.5307 28.8727 7.38112 29.7384C8.23155 30.6041 9.3879 31.1012 10.6012 31.1229Z" fill="url(#paint4_radial_61_2847)"/>
</g>
<g filter="url(#filter3_i_61_2847)">
<path d="M10.6012 31.1229C11.216 31.1338 11.8269 31.0222 12.398 30.7945C12.9692 30.5668 13.4893 30.2276 13.928 29.7967C14.3666 29.3658 14.715 28.8518 14.9529 28.2848C15.1907 27.7177 15.3132 27.109 15.3132 26.4941C15.3132 25.8792 15.1907 25.2705 14.9529 24.7034C14.715 24.1364 14.3666 23.6224 13.928 23.1915C13.4893 22.7606 12.9692 22.4214 12.398 22.1937C11.8269 21.966 11.216 21.8544 10.6012 21.8653C9.3879 21.8869 8.23155 22.3841 7.38112 23.2498C6.5307 24.1155 6.0542 25.2806 6.0542 26.4941C6.0542 27.7076 6.5307 28.8727 7.38112 29.7384C8.23155 30.6041 9.3879 31.1012 10.6012 31.1229Z" fill="url(#paint5_radial_61_2847)"/>
</g>
<g filter="url(#filter4_f_61_2847)">
<path d="M10.6011 29.425C11.3784 29.425 12.1239 29.1162 12.6735 28.5665C13.2232 28.0169 13.5319 27.2714 13.5319 26.4941C13.5319 25.7168 13.2232 24.9713 12.6735 24.4216C12.1239 23.872 11.3784 23.5632 10.6011 23.5632C9.82393 23.5632 9.07863 23.8719 8.52912 24.4214C7.97961 24.9709 7.6709 25.7162 7.6709 26.4934C7.6709 27.2705 7.97961 28.0158 8.52912 28.5653C9.07863 29.1148 9.82393 29.425 10.6011 29.425Z" fill="url(#paint6_linear_61_2847)"/>
</g>
<g filter="url(#filter5_ii_61_2847)">
<path d="M22.4281 6.53595C14.7906 6.53595 8.91564 12.9984 9.35626 20.4891L10.5313 35.7641C10.9719 40.611 14.6438 43.9891 19.3438 43.9891H28.1563C32.7094 43.9891 36.5281 40.611 36.9688 35.7641L37.9969 20.4891C38.5844 12.8516 32.5625 6.53595 24.925 6.53595H22.4281Z" fill="url(#paint7_radial_61_2847)"/>
<path d="M22.4281 6.53595C14.7906 6.53595 8.91564 12.9984 9.35626 20.4891L10.5313 35.7641C10.9719 40.611 14.6438 43.9891 19.3438 43.9891H28.1563C32.7094 43.9891 36.5281 40.611 36.9688 35.7641L37.9969 20.4891C38.5844 12.8516 32.5625 6.53595 24.925 6.53595H22.4281Z" fill="url(#paint8_radial_61_2847)"/>
<path d="M22.4281 6.53595C14.7906 6.53595 8.91564 12.9984 9.35626 20.4891L10.5313 35.7641C10.9719 40.611 14.6438 43.9891 19.3438 43.9891H28.1563C32.7094 43.9891 36.5281 40.611 36.9688 35.7641L37.9969 20.4891C38.5844 12.8516 32.5625 6.53595 24.925 6.53595H22.4281Z" fill="url(#paint9_radial_61_2847)"/>
<path d="M22.4281 6.53595C14.7906 6.53595 8.91564 12.9984 9.35626 20.4891L10.5313 35.7641C10.9719 40.611 14.6438 43.9891 19.3438 43.9891H28.1563C32.7094 43.9891 36.5281 40.611 36.9688 35.7641L37.9969 20.4891C38.5844 12.8516 32.5625 6.53595 24.925 6.53595H22.4281Z" fill="url(#paint10_radial_61_2847)"/>
<path d="M22.4281 6.53595C14.7906 6.53595 8.91564 12.9984 9.35626 20.4891L10.5313 35.7641C10.9719 40.611 14.6438 43.9891 19.3438 43.9891H28.1563C32.7094 43.9891 36.5281 40.611 36.9688 35.7641L37.9969 20.4891C38.5844 12.8516 32.5625 6.53595 24.925 6.53595H22.4281Z" fill="url(#paint11_radial_61_2847)"/>
<path d="M22.4281 6.53595C14.7906 6.53595 8.91564 12.9984 9.35626 20.4891L10.5313 35.7641C10.9719 40.611 14.6438 43.9891 19.3438 43.9891H28.1563C32.7094 43.9891 36.5281 40.611 36.9688 35.7641L37.9969 20.4891C38.5844 12.8516 32.5625 6.53595 24.925 6.53595H22.4281Z" fill="url(#paint12_radial_61_2847)"/>
<path d="M22.4281 6.53595C14.7906 6.53595 8.91564 12.9984 9.35626 20.4891L10.5313 35.7641C10.9719 40.611 14.6438 43.9891 19.3438 43.9891H28.1563C32.7094 43.9891 36.5281 40.611 36.9688 35.7641L37.9969 20.4891C38.5844 12.8516 32.5625 6.53595 24.925 6.53595H22.4281Z" fill="url(#paint13_radial_61_2847)"/>
<path d="M22.4281 6.53595C14.7906 6.53595 8.91564 12.9984 9.35626 20.4891L10.5313 35.7641C10.9719 40.611 14.6438 43.9891 19.3438 43.9891H28.1563C32.7094 43.9891 36.5281 40.611 36.9688 35.7641L37.9969 20.4891C38.5844 12.8516 32.5625 6.53595 24.925 6.53595H22.4281Z" fill="url(#paint14_radial_61_2847)"/>
</g>
<path d="M22.4281 6.53595C14.7906 6.53595 8.91564 12.9984 9.35626 20.4891L10.5313 35.7641C10.9719 40.611 14.6438 43.9891 19.3438 43.9891H28.1563C32.7094 43.9891 36.5281 40.611 36.9688 35.7641L37.9969 20.4891C38.5844 12.8516 32.5625 6.53595 24.925 6.53595H22.4281Z" fill="url(#paint15_radial_61_2847)"/>
<g filter="url(#filter6_f_61_2847)">
<path d="M35.412 12.5123L26.9828 15.322C26.3063 15.5485 25.7385 16.0189 25.3901 16.6415C25.0418 17.2641 24.9379 17.9941 25.0988 18.6892C25.2597 19.3842 25.6739 19.9943 26.2604 20.4004C26.8469 20.8066 27.5637 20.9796 28.2709 20.8857L36.6516 19.7635L35.412 12.5123Z" fill="url(#paint16_linear_61_2847)"/>
</g>
<g filter="url(#filter7_f_61_2847)">
<path d="M22.9689 26.1923L20.6615 30.7454C20.3677 31.6266 21.1021 32.6548 21.9834 32.6548H24.0396C25.0677 32.6548 25.6552 31.7735 25.3615 30.7454L24.0396 26.1923C23.7062 25.2302 23.4095 25.1641 22.9689 26.1923Z" fill="#D89992"/>
</g>
<g filter="url(#filter8_f_61_2847)">
<path d="M22.8646 25.7869L21.3959 30.34C21.1021 31.2213 21.8365 32.2494 22.7177 32.2494H24.774C25.8021 32.2494 26.3896 31.3681 26.0959 30.34L24.6917 25.7869C24.3598 24.8263 23.3052 24.7588 22.8646 25.7869Z" fill="#FBC4B1"/>
<path d="M22.8646 25.7869L21.3959 30.34C21.1021 31.2213 21.8365 32.2494 22.7177 32.2494H24.774C25.8021 32.2494 26.3896 31.3681 26.0959 30.34L24.6917 25.7869C24.3598 24.8263 23.3052 24.7588 22.8646 25.7869Z" fill="url(#paint17_linear_61_2847)"/>
<path d="M22.8646 25.7869L21.3959 30.34C21.1021 31.2213 21.8365 32.2494 22.7177 32.2494H24.774C25.8021 32.2494 26.3896 31.3681 26.0959 30.34L24.6917 25.7869C24.3598 24.8263 23.3052 24.7588 22.8646 25.7869Z" fill="url(#paint18_linear_61_2847)"/>
<path d="M22.8646 25.7869L21.3959 30.34C21.1021 31.2213 21.8365 32.2494 22.7177 32.2494H24.774C25.8021 32.2494 26.3896 31.3681 26.0959 30.34L24.6917 25.7869C24.3598 24.8263 23.3052 24.7588 22.8646 25.7869Z" fill="url(#paint19_linear_61_2847)"/>
<path d="M22.8646 25.7869L21.3959 30.34C21.1021 31.2213 21.8365 32.2494 22.7177 32.2494H24.774C25.8021 32.2494 26.3896 31.3681 26.0959 30.34L24.6917 25.7869C24.3598 24.8263 23.3052 24.7588 22.8646 25.7869Z" fill="url(#paint20_radial_61_2847)"/>
</g>
<path d="M12.2724 16.8877C12.6699 16.5627 12.9753 16.1391 13.1582 15.6593C13.341 15.1794 13.3948 14.66 13.3142 14.1528C13.2337 13.6457 13.0216 13.1685 12.6991 12.7689C12.3766 12.3692 11.955 12.0611 11.4763 11.8752C10.9977 11.6894 10.4786 11.6322 9.97093 11.7095C9.46327 11.7868 8.98473 11.9958 8.58305 12.3158C8.18136 12.6357 7.87056 13.0553 7.68163 13.5328C7.4927 14.0103 7.43224 14.529 7.50628 15.0371L8.10407 23.4296C8.16282 24.255 8.85019 24.8836 9.67857 24.8836V19.7136C9.67864 19.4964 9.72689 19.2819 9.81985 19.0856C9.9128 18.8893 10.0481 18.716 10.2161 18.5783L12.2768 16.8892L12.2724 16.8877Z" fill="#7F7680"/>
<path d="M12.2724 16.8877C12.6699 16.5627 12.9753 16.1391 13.1582 15.6593C13.341 15.1794 13.3948 14.66 13.3142 14.1528C13.2337 13.6457 13.0216 13.1685 12.6991 12.7689C12.3766 12.3692 11.955 12.0611 11.4763 11.8752C10.9977 11.6894 10.4786 11.6322 9.97093 11.7095C9.46327 11.7868 8.98473 11.9958 8.58305 12.3158C8.18136 12.6357 7.87056 13.0553 7.68163 13.5328C7.4927 14.0103 7.43224 14.529 7.50628 15.0371L8.10407 23.4296C8.16282 24.255 8.85019 24.8836 9.67857 24.8836V19.7136C9.67864 19.4964 9.72689 19.2819 9.81985 19.0856C9.9128 18.8893 10.0481 18.716 10.2161 18.5783L12.2768 16.8892L12.2724 16.8877Z" fill="url(#paint21_radial_61_2847)"/>
<path d="M12.2724 16.8877C12.6699 16.5627 12.9753 16.1391 13.1582 15.6593C13.341 15.1794 13.3948 14.66 13.3142 14.1528C13.2337 13.6457 13.0216 13.1685 12.6991 12.7689C12.3766 12.3692 11.955 12.0611 11.4763 11.8752C10.9977 11.6894 10.4786 11.6322 9.97093 11.7095C9.46327 11.7868 8.98473 11.9958 8.58305 12.3158C8.18136 12.6357 7.87056 13.0553 7.68163 13.5328C7.4927 14.0103 7.43224 14.529 7.50628 15.0371L8.10407 23.4296C8.16282 24.255 8.85019 24.8836 9.67857 24.8836V19.7136C9.67864 19.4964 9.72689 19.2819 9.81985 19.0856C9.9128 18.8893 10.0481 18.716 10.2161 18.5783L12.2768 16.8892L12.2724 16.8877Z" fill="url(#paint22_radial_61_2847)"/>
<g filter="url(#filter9_i_61_2847)">
<path d="M35.1091 16.8877C34.7118 16.5626 34.4067 16.1389 34.2242 15.6591C34.0416 15.1792 33.988 14.6599 34.0687 14.1529C34.1494 13.6459 34.3616 13.1689 34.6841 12.7694C35.0066 12.3699 35.4281 12.062 35.9068 11.8762C36.3854 11.6904 36.9043 11.6333 37.4118 11.7106C37.9194 11.7879 38.3978 11.9968 38.7995 12.3166C39.2011 12.6364 39.5119 13.0558 39.7009 13.5332C39.8899 14.0105 39.9505 14.5291 39.8767 15.0371L39.276 23.4296C39.2172 24.255 38.5298 24.8939 37.7029 24.8939V19.7151C37.7031 19.4976 37.6549 19.2828 37.562 19.0862C37.469 18.8896 37.3335 18.7161 37.1654 18.5783L35.1032 16.8907L35.1091 16.8877Z" fill="#9F9AA1"/>
<path d="M35.1091 16.8877C34.7118 16.5626 34.4067 16.1389 34.2242 15.6591C34.0416 15.1792 33.988 14.6599 34.0687 14.1529C34.1494 13.6459 34.3616 13.1689 34.6841 12.7694C35.0066 12.3699 35.4281 12.062 35.9068 11.8762C36.3854 11.6904 36.9043 11.6333 37.4118 11.7106C37.9194 11.7879 38.3978 11.9968 38.7995 12.3166C39.2011 12.6364 39.5119 13.0558 39.7009 13.5332C39.8899 14.0105 39.9505 14.5291 39.8767 15.0371L39.276 23.4296C39.2172 24.255 38.5298 24.8939 37.7029 24.8939V19.7151C37.7031 19.4976 37.6549 19.2828 37.562 19.0862C37.469 18.8896 37.3335 18.7161 37.1654 18.5783L35.1032 16.8907L35.1091 16.8877Z" fill="url(#paint23_radial_61_2847)"/>
<path d="M35.1091 16.8877C34.7118 16.5626 34.4067 16.1389 34.2242 15.6591C34.0416 15.1792 33.988 14.6599 34.0687 14.1529C34.1494 13.6459 34.3616 13.1689 34.6841 12.7694C35.0066 12.3699 35.4281 12.062 35.9068 11.8762C36.3854 11.6904 36.9043 11.6333 37.4118 11.7106C37.9194 11.7879 38.3978 11.9968 38.7995 12.3166C39.2011 12.6364 39.5119 13.0558 39.7009 13.5332C39.8899 14.0105 39.9505 14.5291 39.8767 15.0371L39.276 23.4296C39.2172 24.255 38.5298 24.8939 37.7029 24.8939V19.7151C37.7031 19.4976 37.6549 19.2828 37.562 19.0862C37.469 18.8896 37.3335 18.7161 37.1654 18.5783L35.1032 16.8907L35.1091 16.8877Z" fill="url(#paint24_radial_61_2847)"/>
<path d="M35.1091 16.8877C34.7118 16.5626 34.4067 16.1389 34.2242 15.6591C34.0416 15.1792 33.988 14.6599 34.0687 14.1529C34.1494 13.6459 34.3616 13.1689 34.6841 12.7694C35.0066 12.3699 35.4281 12.062 35.9068 11.8762C36.3854 11.6904 36.9043 11.6333 37.4118 11.7106C37.9194 11.7879 38.3978 11.9968 38.7995 12.3166C39.2011 12.6364 39.5119 13.0558 39.7009 13.5332C39.8899 14.0105 39.9505 14.5291 39.8767 15.0371L39.276 23.4296C39.2172 24.255 38.5298 24.8939 37.7029 24.8939V19.7151C37.7031 19.4976 37.6549 19.2828 37.562 19.0862C37.469 18.8896 37.3335 18.7161 37.1654 18.5783L35.1032 16.8907L35.1091 16.8877Z" fill="url(#paint25_radial_61_2847)"/>
</g>
<path d="M19.9894 33.9663C19.8939 33.9166 19.7847 33.8996 19.6786 33.9179C19.5724 33.9362 19.4753 33.9888 19.4019 34.0677C19.327 34.1423 19.2808 34.2411 19.2717 34.3464C19.2626 34.4518 19.291 34.557 19.352 34.6434C19.8333 35.3684 20.487 35.9627 21.2544 36.3728C22.0219 36.783 22.8792 36.9962 23.7494 36.9934C24.6196 36.9962 25.4769 36.783 26.2444 36.3728C27.0119 35.9627 27.6656 35.3684 28.1469 34.6434C28.208 34.556 28.2365 34.4499 28.2274 34.3436C28.2182 34.2373 28.1721 34.1376 28.0969 34.0618C28.0224 33.9847 27.925 33.9337 27.8192 33.9162C27.7134 33.8988 27.6048 33.9158 27.5094 33.9649C26.3467 34.5619 25.0564 34.8678 23.7494 34.8564C22.4427 34.8655 21.153 34.5611 19.9894 33.9663Z" fill="#88024E" stroke="url(#paint26_linear_61_2847)" stroke-width="0.146875"/>
<path d="M26.5998 27.5141C26.7449 27.3842 26.9357 27.3173 27.1301 27.328C27.3246 27.3387 27.5068 27.4263 27.6367 27.5714C27.9232 27.8916 28.1905 28.1148 28.5356 28.2676C28.8881 28.4233 29.3802 28.5319 30.1439 28.5319C30.3387 28.5319 30.5255 28.6093 30.6632 28.747C30.8009 28.8848 30.8783 29.0715 30.8783 29.2663C30.8783 29.4611 30.8009 29.6479 30.6632 29.7856C30.5255 29.9233 30.3387 30.0007 30.1439 30.0007C29.245 30.0007 28.5371 29.8729 27.9422 29.61C27.3415 29.3456 26.9127 28.9638 26.5411 28.551C26.4768 28.4791 26.4274 28.3952 26.3956 28.3042C26.3638 28.2131 26.3502 28.1167 26.3557 28.0204C26.3611 27.9241 26.3855 27.8298 26.4274 27.743C26.4693 27.6561 26.5279 27.5783 26.5998 27.5141Z" fill="#FFBCAE"/>
<path d="M19.5851 27.5537C19.7195 27.4127 19.9044 27.3309 20.0991 27.3262C20.2938 27.3215 20.4825 27.3944 20.6235 27.5288C20.7645 27.6632 20.8463 27.8481 20.851 28.0428C20.8557 28.2375 20.7828 28.4262 20.6485 28.5672L20.647 28.5687L20.644 28.5716L20.6382 28.5775L20.622 28.5951L20.5662 28.648C20.5202 28.693 20.4565 28.7493 20.3753 28.8169C19.4411 29.5821 18.2708 30.0004 17.0632 30.0007C16.8685 30.0009 16.6816 29.9237 16.5437 29.7861C16.4059 29.6485 16.3283 29.4618 16.3281 29.267C16.3279 29.0723 16.4051 28.8854 16.5427 28.7475C16.6803 28.6097 16.867 28.5321 17.0618 28.5319C17.9951 28.5304 18.8945 28.1817 19.5851 27.5537Z" fill="#E09B93"/>
<path d="M27.4214 10.4179H20.0776C19.6721 10.4179 19.3433 10.7467 19.3433 11.1523C19.3433 11.5578 19.6721 11.8866 20.0776 11.8866H27.4214C27.827 11.8866 28.1558 11.5578 28.1558 11.1523C28.1558 10.7467 27.827 10.4179 27.4214 10.4179Z" fill="url(#paint27_linear_61_2847)"/>
<path d="M30.2944 13.912H17.0757C16.6701 13.912 16.3413 14.2408 16.3413 14.6464C16.3413 15.0519 16.6701 15.3807 17.0757 15.3807H30.2944C30.7 15.3807 31.0288 15.0519 31.0288 14.6464C31.0288 14.2408 30.7 13.912 30.2944 13.912Z" fill="url(#paint28_linear_61_2847)"/>
<path d="M17.085 22.8244C15.296 22.8244 13.7862 24.0582 13.3749 25.7237C13.3468 25.8348 13.3446 25.9509 13.3684 26.0629C13.3922 26.175 13.4414 26.2801 13.5121 26.3702C13.5829 26.4603 13.6734 26.5329 13.7767 26.5825C13.88 26.6322 13.9932 26.6574 14.1078 26.6564H20.2178C20.3103 26.6564 20.4017 26.6361 20.4855 26.5968C20.5693 26.5576 20.6434 26.5005 20.7027 26.4294C20.7619 26.3584 20.8049 26.2752 20.8285 26.1858C20.852 26.0963 20.8557 26.0028 20.8391 25.9117C20.6666 25.0425 20.1983 24.2599 19.5139 23.697C18.8294 23.1342 17.9711 22.8258 17.085 22.8244Z" fill="white"/>
<path d="M17.6505 23.5676C17.2747 23.5678 16.9039 23.6547 16.5672 23.8216C16.2304 23.9884 15.9367 24.2306 15.7087 24.5294C15.4808 24.8282 15.3249 25.1756 15.2531 25.5445C15.1812 25.9134 15.1954 26.2939 15.2946 26.6564H20.0166C20.074 26.4462 20.1036 26.2294 20.1048 26.0116C20.1005 25.3629 19.8402 24.7422 19.3806 24.2845C18.9209 23.8268 18.2991 23.5691 17.6505 23.5676Z" fill="url(#paint29_radial_61_2847)"/>
<path d="M19.049 26.0116C19.0493 25.8278 19.0134 25.6458 18.9433 25.476C18.8732 25.3062 18.7702 25.1519 18.6403 25.022C18.5104 24.8921 18.3561 24.7891 18.1862 24.719C18.0164 24.6488 17.8344 24.6129 17.6507 24.6133C17.4667 24.6127 17.2845 24.6485 17.1144 24.7187C16.9443 24.7888 16.7897 24.8919 16.6597 25.022C16.5296 25.1521 16.4265 25.3066 16.3563 25.4767C16.2862 25.6468 16.2504 25.8291 16.251 26.013C16.251 26.2451 16.3053 26.4684 16.4067 26.6564H18.883C18.9898 26.4585 19.0473 26.2378 19.0504 26.013" fill="black"/>
<g filter="url(#filter10_f_61_2847)">
<path d="M19.8842 25.7252C19.8842 24.935 19.2423 24.4092 19.0675 24.2491L18.2788 25.0128L18.7635 26.0028L19.8842 25.7252Z" fill="url(#paint30_linear_61_2847)"/>
</g>
<g filter="url(#filter11_f_61_2847)">
<path d="M17.1671 25.091C17.6875 24.8153 17.996 24.3779 17.8563 24.1142C17.7165 23.8504 17.1814 23.86 16.661 24.1357C16.1406 24.4114 15.832 24.8488 15.9718 25.1125C16.1115 25.3763 16.6467 25.3667 17.1671 25.091Z" fill="#C7A7A3" fill-opacity="0.9"/>
<path d="M17.1671 25.091C17.6875 24.8153 17.996 24.3779 17.8563 24.1142C17.7165 23.8504 17.1814 23.86 16.661 24.1357C16.1406 24.4114 15.832 24.8488 15.9718 25.1125C16.1115 25.3763 16.6467 25.3667 17.1671 25.091Z" fill="url(#paint31_radial_61_2847)"/>
</g>
<path d="M30.1789 22.8244C31.9678 22.8244 33.4792 24.0582 33.8889 25.7237C33.917 25.8348 33.9193 25.9509 33.8955 26.0629C33.8717 26.175 33.8225 26.2801 33.7517 26.3702C33.6809 26.4603 33.5904 26.5329 33.4871 26.5825C33.3839 26.6322 33.2706 26.6574 33.156 26.6564H27.046C26.9535 26.6564 26.8622 26.6361 26.7784 26.5968C26.6946 26.5576 26.6204 26.5005 26.5612 26.4294C26.5019 26.3584 26.459 26.2752 26.4354 26.1858C26.4118 26.0963 26.4082 26.0028 26.4248 25.9117C26.5962 25.042 27.0642 24.2588 27.7489 23.6957C28.4335 23.1327 29.2924 22.8247 30.1789 22.8244Z" fill="white"/>
<path d="M29.6135 23.569C29.989 23.5696 30.3594 23.6566 30.6958 23.8234C31.0322 23.9903 31.3257 24.2324 31.5534 24.531C31.7812 24.8296 31.937 25.1767 32.0089 25.5453C32.0807 25.9139 32.0667 26.2941 31.9679 26.6563H27.2473C27.1899 26.4462 27.1603 26.2294 27.1592 26.0116C27.1619 25.3628 27.4215 24.7416 27.8812 24.2838C28.3409 23.826 28.9632 23.569 29.612 23.569" fill="url(#paint32_radial_61_2847)"/>
<path d="M28.2135 26.0116C28.2135 25.2346 28.8348 24.6133 29.6132 24.6133C30.3917 24.6133 31.013 25.2346 31.013 26.013C31.014 26.2369 30.9606 26.4577 30.8573 26.6563H28.3795C28.2675 26.4601 28.2102 26.2375 28.2135 26.0116Z" fill="black"/>
<g filter="url(#filter12_f_61_2847)">
<path d="M29.4343 24.0846C29.6076 24.3181 29.2433 24.6016 28.8291 24.9115C28.4149 25.2214 28.1094 25.4387 27.9347 25.2052C27.7599 24.9717 27.9552 24.5325 28.3694 24.2241C28.7836 23.9156 29.2595 23.8525 29.4328 24.0846" fill="#C7A7A3"/>
<path d="M29.4343 24.0846C29.6076 24.3181 29.2433 24.6016 28.8291 24.9115C28.4149 25.2214 28.1094 25.4387 27.9347 25.2052C27.7599 24.9717 27.9552 24.5325 28.3694 24.2241C28.7836 23.9156 29.2595 23.8525 29.4328 24.0846" fill="url(#paint33_radial_61_2847)"/>
</g>
<g filter="url(#filter13_f_61_2847)">
<path d="M31.7887 25.69C31.7153 25.2118 31.4933 24.7689 31.1542 24.4239L30.4434 25.2038L30.7635 25.8295L31.7887 25.69Z" fill="url(#paint34_linear_61_2847)"/>
</g>
<g filter="url(#filter14_i_61_2847)">
<path d="M28.4771 19.0203C29.5199 18.8808 31.5409 18.9043 33.1242 20.2129" stroke="#8A8A8A" stroke-width="2.57031" stroke-linecap="round"/>
</g>
<g filter="url(#filter15_f_61_2847)">
<path d="M28.4771 18.5724C29.774 18.4695 31.701 18.6296 33.2622 19.8105" stroke="url(#paint35_linear_61_2847)" stroke-width="0.5875" stroke-linecap="round"/>
</g>
<g filter="url(#filter16_i_61_2847)">
<path d="M19.0221 19.0203C17.9793 18.8808 15.9583 18.9043 14.375 20.2129" stroke="#8A8A8A" stroke-width="2.57031" stroke-linecap="round"/>
</g>
<g filter="url(#filter17_f_61_2847)">
<path d="M19.0225 18.5724C17.7256 18.4695 15.7986 18.6296 14.2373 19.8105" stroke="url(#paint36_linear_61_2847)" stroke-width="0.5875" stroke-linecap="round"/>
</g>
<defs>
<filter id="filter0_i_61_2847" x="32.1045" y="21.4974" width="9.62598" height="9.62619" filterUnits="userSpaceOnUse" color-interpolation-filters="sRGB">
<feFlood flood-opacity="0" result="BackgroundImageFix"/>
<feBlend mode="normal" in="SourceGraphic" in2="BackgroundImageFix" result="shape"/>
<feColorMatrix in="SourceAlpha" type="matrix" values="0 0 0 0 0 0 0 0 0 0 0 0 0 0 0 0 0 0 127 0" result="hardAlpha"/>
<feOffset dx="0.367188" dy="-0.367188"/>
<feGaussianBlur stdDeviation="0.367188"/>
<feComposite in2="hardAlpha" operator="arithmetic" k2="-1" k3="1"/>
<feColorMatrix type="matrix" values="0 0 0 0 0.843137 0 0 0 0 0.623529 0 0 0 0 0.580392 0 0 0 1 0"/>
<feBlend mode="normal" in2="shape" result="effect1_innerShadow_61_2847"/>
</filter>
<filter id="filter1_f_61_2847" x="32.9868" y="22.8288" width="7.32959" height="7.33054" filterUnits="userSpaceOnUse" color-interpolation-filters="sRGB">
<feFlood flood-opacity="0" result="BackgroundImageFix"/>
<feBlend mode="normal" in="SourceGraphic" in2="BackgroundImageFix" result="shape"/>
<feGaussianBlur stdDeviation="0.367188" result="effect1_foregroundBlur_61_2847"/>
</filter>
<filter id="filter2_i_61_2847" x="6.0542" y="21.8646" width="9.55254" height="9.259" filterUnits="userSpaceOnUse" color-interpolation-filters="sRGB">
<feFlood flood-opacity="0" result="BackgroundImageFix"/>
<feBlend mode="normal" in="SourceGraphic" in2="BackgroundImageFix" result="shape"/>
<feColorMatrix in="SourceAlpha" type="matrix" values="0 0 0 0 0 0 0 0 0 0 0 0 0 0 0 0 0 0 127 0" result="hardAlpha"/>
<feOffset dx="0.29375"/>
<feGaussianBlur stdDeviation="0.220313"/>
<feComposite in2="hardAlpha" operator="arithmetic" k2="-1" k3="1"/>
<feColorMatrix type="matrix" values="0 0 0 0 0.619608 0 0 0 0 0.470588 0 0 0 0 0.407843 0 0 0 1 0"/>
<feBlend mode="normal" in2="shape" result="effect1_innerShadow_61_2847"/>
</filter>
<filter id="filter3_i_61_2847" x="6.0542" y="21.8646" width="9.55254" height="9.259" filterUnits="userSpaceOnUse" color-interpolation-filters="sRGB">
<feFlood flood-opacity="0" result="BackgroundImageFix"/>
<feBlend mode="normal" in="SourceGraphic" in2="BackgroundImageFix" result="shape"/>
<feColorMatrix in="SourceAlpha" type="matrix" values="0 0 0 0 0 0 0 0 0 0 0 0 0 0 0 0 0 0 127 0" result="hardAlpha"/>
<feOffset dx="0.29375"/>
<feGaussianBlur stdDeviation="0.220313"/>
<feComposite in2="hardAlpha" operator="arithmetic" k2="-1" k3="1"/>
<feColorMatrix type="matrix" values="0 0 0 0 0.917647 0 0 0 0 0.694118 0 0 0 0 0.607843 0 0 0 1 0"/>
<feBlend mode="normal" in2="shape" result="effect1_innerShadow_61_2847"/>
</filter>
<filter id="filter4_f_61_2847" x="6.93652" y="22.8288" width="7.32959" height="7.33054" filterUnits="userSpaceOnUse" color-interpolation-filters="sRGB">
<feFlood flood-opacity="0" result="BackgroundImageFix"/>
<feBlend mode="normal" in="SourceGraphic" in2="BackgroundImageFix" result="shape"/>
<feGaussianBlur stdDeviation="0.367188" result="effect1_foregroundBlur_61_2847"/>
</filter>
<filter id="filter5_ii_61_2847" x="8.96582" y="6.53595" width="30.5396" height="37.4531" filterUnits="userSpaceOnUse" color-interpolation-filters="sRGB">
<feFlood flood-opacity="0" result="BackgroundImageFix"/>
<feBlend mode="normal" in="SourceGraphic" in2="BackgroundImageFix" result="shape"/>
<feColorMatrix in="SourceAlpha" type="matrix" values="0 0 0 0 0 0 0 0 0 0 0 0 0 0 0 0 0 0 127 0" result="hardAlpha"/>
<feOffset dx="1.46875"/>
<feGaussianBlur stdDeviation="1.10156"/>
<feComposite in2="hardAlpha" operator="arithmetic" k2="-1" k3="1"/>
<feColorMatrix type="matrix" values="0 0 0 0 0.909804 0 0 0 0 0.678431 0 0 0 0 0.592157 0 0 0 1 0"/>
<feBlend mode="normal" in2="shape" result="effect1_innerShadow_61_2847"/>
<feColorMatrix in="SourceAlpha" type="matrix" values="0 0 0 0 0 0 0 0 0 0 0 0 0 0 0 0 0 0 127 0" result="hardAlpha"/>
<feOffset dx="-0.367188"/>
<feGaussianBlur stdDeviation="0.550781"/>
<feComposite in2="hardAlpha" operator="arithmetic" k2="-1" k3="1"/>
<feColorMatrix type="matrix" values="0 0 0 0 1 0 0 0 0 0.870588 0 0 0 0 0.745098 0 0 0 1 0"/>
<feBlend mode="normal" in2="effect1_innerShadow_61_2847" result="effect2_innerShadow_61_2847"/>
</filter>
<filter id="filter6_f_61_2847" x="22.0874" y="9.57483" width="17.5015" height="14.2733" filterUnits="userSpaceOnUse" color-interpolation-filters="sRGB">
<feFlood flood-opacity="0" result="BackgroundImageFix"/>
<feBlend mode="normal" in="SourceGraphic" in2="BackgroundImageFix" result="shape"/>
<feGaussianBlur stdDeviation="1.46875" result="effect1_foregroundBlur_61_2847"/>
</filter>
<filter id="filter7_f_61_2847" x="19.4941" y="24.3442" width="7.04443" height="9.41214" filterUnits="userSpaceOnUse" color-interpolation-filters="sRGB">
<feFlood flood-opacity="0" result="BackgroundImageFix"/>
<feBlend mode="normal" in="SourceGraphic" in2="BackgroundImageFix" result="shape"/>
<feGaussianBlur stdDeviation="0.550781" result="effect1_foregroundBlur_61_2847"/>
</filter>
<filter id="filter8_f_61_2847" x="20.9629" y="24.6737" width="5.57568" height="7.94284" filterUnits="userSpaceOnUse" color-interpolation-filters="sRGB">
<feFlood flood-opacity="0" result="BackgroundImageFix"/>
<feBlend mode="normal" in="SourceGraphic" in2="BackgroundImageFix" result="shape"/>
<feGaussianBlur stdDeviation="0.183594" result="effect1_foregroundBlur_61_2847"/>
</filter>
<filter id="filter9_i_61_2847" x="34.0322" y="11.3834" width="6.31563" height="13.5105" filterUnits="userSpaceOnUse" color-interpolation-filters="sRGB">
<feFlood flood-opacity="0" result="BackgroundImageFix"/>
<feBlend mode="normal" in="SourceGraphic" in2="BackgroundImageFix" result="shape"/>
<feColorMatrix in="SourceAlpha" type="matrix" values="0 0 0 0 0 0 0 0 0 0 0 0 0 0 0 0 0 0 127 0" result="hardAlpha"/>
<feOffset dx="0.440625" dy="-0.29375"/>
<feGaussianBlur stdDeviation="0.367188"/>
<feComposite in2="hardAlpha" operator="arithmetic" k2="-1" k3="1"/>
<feColorMatrix type="matrix" values="0 0 0 0 0.580392 0 0 0 0 0.568627 0 0 0 0 0.556863 0 0 0 1 0"/>
<feBlend mode="normal" in2="shape" result="effect1_innerShadow_61_2847"/>
</filter>
<filter id="filter10_f_61_2847" x="17.9851" y="23.9553" width="2.19297" height="2.34119" filterUnits="userSpaceOnUse" color-interpolation-filters="sRGB">
<feFlood flood-opacity="0" result="BackgroundImageFix"/>
<feBlend mode="normal" in="SourceGraphic" in2="BackgroundImageFix" result="shape"/>
<feGaussianBlur stdDeviation="0.146875" result="effect1_foregroundBlur_61_2847"/>
</filter>
<filter id="filter11_f_61_2847" x="15.7911" y="23.7756" width="2.2459" height="1.67552" filterUnits="userSpaceOnUse" color-interpolation-filters="sRGB">
<feFlood flood-opacity="0" result="BackgroundImageFix"/>
<feBlend mode="normal" in="SourceGraphic" in2="BackgroundImageFix" result="shape"/>
<feGaussianBlur stdDeviation="0.0734375" result="effect1_foregroundBlur_61_2847"/>
</filter>
<filter id="filter12_f_61_2847" x="27.7237" y="23.7977" width="1.90166" height="1.65258" filterUnits="userSpaceOnUse" color-interpolation-filters="sRGB">
<feFlood flood-opacity="0" result="BackgroundImageFix"/>
<feBlend mode="normal" in="SourceGraphic" in2="BackgroundImageFix" result="shape"/>
<feGaussianBlur stdDeviation="0.0734375" result="effect1_foregroundBlur_61_2847"/>
</filter>
<filter id="filter13_f_61_2847" x="30.1496" y="24.1301" width="1.93271" height="1.99311" filterUnits="userSpaceOnUse" color-interpolation-filters="sRGB">
<feFlood flood-opacity="0" result="BackgroundImageFix"/>
<feBlend mode="normal" in="SourceGraphic" in2="BackgroundImageFix" result="shape"/>
<feGaussianBlur stdDeviation="0.146875" result="effect1_foregroundBlur_61_2847"/>
</filter>
<filter id="filter14_i_61_2847" x="27.1919" y="17.0913" width="7.65791" height="4.40684" filterUnits="userSpaceOnUse" color-interpolation-filters="sRGB">
<feFlood flood-opacity="0" result="BackgroundImageFix"/>
<feBlend mode="normal" in="SourceGraphic" in2="BackgroundImageFix" result="shape"/>
<feColorMatrix in="SourceAlpha" type="matrix" values="0 0 0 0 0 0 0 0 0 0 0 0 0 0 0 0 0 0 127 0" result="hardAlpha"/>
<feOffset dx="0.440625" dy="-0.5875"/>
<feGaussianBlur stdDeviation="0.440625"/>
<feComposite in2="hardAlpha" operator="arithmetic" k2="-1" k3="1"/>
<feColorMatrix type="matrix" values="0 0 0 0 0.345098 0 0 0 0 0.305882 0 0 0 0 0.368627 0 0 0 1 0"/>
<feBlend mode="normal" in2="shape" result="effect1_innerShadow_61_2847"/>
</filter>
<filter id="filter15_f_61_2847" x="27.5956" y="17.6651" width="6.54805" height="3.02668" filterUnits="userSpaceOnUse" color-interpolation-filters="sRGB">
<feFlood flood-opacity="0" result="BackgroundImageFix"/>
<feBlend mode="normal" in="SourceGraphic" in2="BackgroundImageFix" result="shape"/>
<feGaussianBlur stdDeviation="0.29375" result="effect1_foregroundBlur_61_2847"/>
</filter>
<filter id="filter16_i_61_2847" x="13.0898" y="17.0913" width="7.6584" height="4.40684" filterUnits="userSpaceOnUse" color-interpolation-filters="sRGB">
<feFlood flood-opacity="0" result="BackgroundImageFix"/>
<feBlend mode="normal" in="SourceGraphic" in2="BackgroundImageFix" result="shape"/>
<feColorMatrix in="SourceAlpha" type="matrix" values="0 0 0 0 0 0 0 0 0 0 0 0 0 0 0 0 0 0 127 0" result="hardAlpha"/>
<feOffset dx="0.440625" dy="-0.5875"/>
<feGaussianBlur stdDeviation="0.440625"/>
<feComposite in2="hardAlpha" operator="arithmetic" k2="-1" k3="1"/>
<feColorMatrix type="matrix" values="0 0 0 0 0.345098 0 0 0 0 0.305882 0 0 0 0 0.368627 0 0 0 1 0"/>
<feBlend mode="normal" in2="shape" result="effect1_innerShadow_61_2847"/>
</filter>
<filter id="filter17_f_61_2847" x="13.3559" y="17.6651" width="6.54805" height="3.02668" filterUnits="userSpaceOnUse" color-interpolation-filters="sRGB">
<feFlood flood-opacity="0" result="BackgroundImageFix"/>
<feBlend mode="normal" in="SourceGraphic" in2="BackgroundImageFix" result="shape"/>
<feGaussianBlur stdDeviation="0.29375" result="effect1_foregroundBlur_61_2847"/>
</filter>
<linearGradient id="paint0_linear_61_2847" x1="39.6639" y1="23.4677" x2="37.3933" y2="30.5001" gradientUnits="userSpaceOnUse">
<stop stop-color="#FBD3BD"/>
<stop offset="1" stop-color="#F0B8A4"/>
</linearGradient>
<radialGradient id="paint1_radial_61_2847" cx="0" cy="0" r="1" gradientUnits="userSpaceOnUse" gradientTransform="translate(37.6823 25.7589) rotate(-36.06) scale(2.83545 3.23629)">
<stop offset="0.543" stop-color="#D9AA94"/>
<stop offset="1" stop-color="#D9AA94" stop-opacity="0"/>
</radialGradient>
<radialGradient id="paint2_radial_61_2847" cx="0" cy="0" r="1" gradientUnits="userSpaceOnUse" gradientTransform="translate(36.528 28.9124) rotate(-61.4676) scale(5.0642 2.96409)">
<stop offset="0.755" stop-color="#D6A38D" stop-opacity="0"/>
<stop offset="0.916" stop-color="#D6A38D"/>
</radialGradient>
<radialGradient id="paint3_radial_61_2847" cx="0" cy="0" r="1" gradientUnits="userSpaceOnUse" gradientTransform="translate(36.6513 26.4934) rotate(44.7082) scale(1.07458 1.38527)">
<stop stop-color="#D5A58E"/>
<stop offset="1" stop-color="#D5A58E" stop-opacity="0"/>
</radialGradient>
<radialGradient id="paint4_radial_61_2847" cx="0" cy="0" r="1" gradientUnits="userSpaceOnUse" gradientTransform="translate(5.97321 26.4934) scale(4.86563 8.5149)">
<stop offset="0.351" stop-color="#865D5F"/>
<stop offset="1" stop-color="#76594A"/>
</radialGradient>
<radialGradient id="paint5_radial_61_2847" cx="0" cy="0" r="1" gradientUnits="userSpaceOnUse" gradientTransform="translate(5.97321 26.4934) scale(4.86563 8.5149)">
<stop offset="0.351" stop-color="#CF9888"/>
<stop offset="1" stop-color="#BE8C77"/>
</radialGradient>
<linearGradient id="paint6_linear_61_2847" x1="10.6011" y1="27.3144" x2="8.71518" y2="27.3144" gradientUnits="userSpaceOnUse">
<stop stop-color="#BA7C6B"/>
<stop offset="1" stop-color="#BE8474"/>
</linearGradient>
<radialGradient id="paint7_radial_61_2847" cx="0" cy="0" r="1" gradientUnits="userSpaceOnUse" gradientTransform="translate(32.9058 21.9571) rotate(152.026) scale(25.0498 46.009)">
<stop offset="0.15" stop-color="#FFDCC1"/>
<stop offset="0.84" stop-color="#D6A195"/>
</radialGradient>
<radialGradient id="paint8_radial_61_2847" cx="0" cy="0" r="1" gradientUnits="userSpaceOnUse" gradientTransform="translate(38.6895 12.5005) rotate(158.66) scale(14.6311 18.7905)">
<stop stop-color="#FFE0BF"/>
<stop offset="1" stop-color="#FFE0BF" stop-opacity="0"/>
</radialGradient>
<radialGradient id="paint9_radial_61_2847" cx="0" cy="0" r="1" gradientUnits="userSpaceOnUse" gradientTransform="translate(30.7486 23.1034) rotate(-90) scale(3.85547 4.54395)">
<stop stop-color="#F4B7A7"/>
<stop offset="1" stop-color="#F4B7A7" stop-opacity="0"/>
</radialGradient>
<radialGradient id="paint10_radial_61_2847" cx="0" cy="0" r="1" gradientUnits="userSpaceOnUse" gradientTransform="translate(17.2581 23.5147) rotate(-90) scale(4.86523)">
<stop offset="0.172" stop-color="#D0958E"/>
<stop offset="1" stop-color="#D0958E" stop-opacity="0"/>
</radialGradient>
<radialGradient id="paint11_radial_61_2847" cx="0" cy="0" r="1" gradientUnits="userSpaceOnUse" gradientTransform="translate(36.6765 15.1223) rotate(-145.257) scale(4.20592 3.32453)">
<stop offset="0.584" stop-color="#EFB699"/>
<stop offset="1" stop-color="#EFB699" stop-opacity="0"/>
</radialGradient>
<radialGradient id="paint12_radial_61_2847" cx="0" cy="0" r="1" gradientUnits="userSpaceOnUse" gradientTransform="translate(9.8691 15.5921) rotate(127.136) scale(4.21047 3.66339)">
<stop offset="0.476" stop-color="#C38C7C"/>
<stop offset="1" stop-color="#C38C7C" stop-opacity="0"/>
</radialGradient>
<radialGradient id="paint13_radial_61_2847" cx="0" cy="0" r="1" gradientUnits="userSpaceOnUse" gradientTransform="translate(25.9796 5.9837) rotate(90) scale(2.57031 6.80785)">
<stop stop-color="#EEC5A9"/>
<stop offset="1" stop-color="#EEC5A9" stop-opacity="0"/>
</radialGradient>
<radialGradient id="paint14_radial_61_2847" cx="0" cy="0" r="1" gradientUnits="userSpaceOnUse" gradientTransform="translate(13.905 9.07836) rotate(46.9533) scale(8.55471 15.1854)">
<stop stop-color="#D5A68B"/>
<stop offset="1" stop-color="#D5A68B" stop-opacity="0"/>
</radialGradient>
<radialGradient id="paint15_radial_61_2847" cx="0" cy="0" r="1" gradientUnits="userSpaceOnUse" gradientTransform="translate(23.6839 43.9891) rotate(-90) scale(8.53711 38.3206)">
<stop stop-color="#B57997"/>
<stop offset="1" stop-color="#D49B9D" stop-opacity="0"/>
</radialGradient>
<linearGradient id="paint16_linear_61_2847" x1="23.0994" y1="20.8093" x2="45.4068" y2="12.8222" gradientUnits="userSpaceOnUse">
<stop stop-color="#FCC7A6"/>
<stop offset="1" stop-color="#FCC7A6" stop-opacity="0"/>
</linearGradient>
<linearGradient id="paint17_linear_61_2847" x1="21.5207" y1="29.3868" x2="23.9412" y2="29.3868" gradientUnits="userSpaceOnUse">
<stop stop-color="#DFA790"/>
<stop offset="1" stop-color="#DFA790" stop-opacity="0"/>
</linearGradient>
<linearGradient id="paint18_linear_61_2847" x1="26.1708" y1="30.2548" x2="23.5256" y2="30.2181" gradientUnits="userSpaceOnUse">
<stop stop-color="#FFDFC4"/>
<stop offset="1" stop-color="#FFDFC4" stop-opacity="0"/>
</linearGradient>
<linearGradient id="paint19_linear_61_2847" x1="24.2526" y1="32.2494" x2="24.2526" y2="30.7101" gradientUnits="userSpaceOnUse">
<stop stop-color="#DC9C96"/>
<stop offset="1" stop-color="#DC9C96" stop-opacity="0"/>
</linearGradient>
<radialGradient id="paint20_radial_61_2847" cx="0" cy="0" r="1" gradientUnits="userSpaceOnUse" gradientTransform="translate(24.5948 30.8879) rotate(90) scale(0.529396 1.63181)">
<stop stop-color="#FFD7C1"/>
<stop offset="1" stop-color="#FFD7C1" stop-opacity="0"/>
</radialGradient>
<radialGradient id="paint21_radial_61_2847" cx="0" cy="0" r="1" gradientUnits="userSpaceOnUse" gradientTransform="translate(12.1131 13.1435) rotate(139.273) scale(6.12015 11.7459)">
<stop stop-color="#BBB6B3"/>
<stop offset="1" stop-color="#807680" stop-opacity="0"/>
</radialGradient>
<radialGradient id="paint22_radial_61_2847" cx="0" cy="0" r="1" gradientUnits="userSpaceOnUse" gradientTransform="translate(10.4129 21.7273) rotate(90) scale(4.4751 1.39766)">
<stop offset="0.237" stop-color="#735551"/>
<stop offset="1" stop-color="#735551" stop-opacity="0"/>
</radialGradient>
<radialGradient id="paint23_radial_61_2847" cx="0" cy="0" r="1" gradientUnits="userSpaceOnUse" gradientTransform="translate(36.1637 19.4316) rotate(-46.5362) scale(4.23692 1.47393)">
<stop offset="0.231" stop-color="#8F8286"/>
<stop offset="1" stop-color="#8F8286" stop-opacity="0"/>
</radialGradient>
<radialGradient id="paint24_radial_61_2847" cx="0" cy="0" r="1" gradientUnits="userSpaceOnUse" gradientTransform="translate(38.0466 13.3275) rotate(119.228) scale(4.41795 3.38883)">
<stop offset="0.18" stop-color="#C0BFC0"/>
<stop offset="1" stop-color="#C0BFC0" stop-opacity="0"/>
</radialGradient>
<radialGradient id="paint25_radial_61_2847" cx="0" cy="0" r="1" gradientUnits="userSpaceOnUse" gradientTransform="translate(39.4228 23.9759) rotate(-85.8632) scale(6.69566 1.26279)">
<stop stop-color="#B1ADB0"/>
<stop offset="1" stop-color="#B1ADB0" stop-opacity="0"/>
</radialGradient>
<linearGradient id="paint26_linear_61_2847" x1="20.9089" y1="36.569" x2="22.1" y2="34.686" gradientUnits="userSpaceOnUse">
<stop stop-color="#E5AFA6"/>
<stop offset="0.663" stop-color="#E5AFA6" stop-opacity="0"/>
</linearGradient>
<linearGradient id="paint27_linear_61_2847" x1="19.3433" y1="11.8866" x2="26.3463" y2="11.8866" gradientUnits="userSpaceOnUse">
<stop stop-color="#E1A592"/>
<stop offset="1" stop-color="#F5B6A1"/>
</linearGradient>
<linearGradient id="paint28_linear_61_2847" x1="19.5535" y1="15.3807" x2="27.0705" y2="15.3807" gradientUnits="userSpaceOnUse">
<stop stop-color="#DA9D8E"/>
<stop offset="1" stop-color="#F7B9A7"/>
</linearGradient>
<radialGradient id="paint29_radial_61_2847" cx="0" cy="0" r="1" gradientUnits="userSpaceOnUse" gradientTransform="translate(17.6549 25.7883) rotate(90) scale(2.47386 2.92722)">
<stop offset="0.75" stop-color="#7F584B"/>
<stop offset="1" stop-color="#5D4139"/>
</radialGradient>
<linearGradient id="paint30_linear_61_2847" x1="19.6932" y1="25.0216" x2="18.834" y2="25.5519" gradientUnits="userSpaceOnUse">
<stop stop-color="#B4948D"/>
<stop offset="1" stop-color="#B4948D" stop-opacity="0"/>
</linearGradient>
<radialGradient id="paint31_radial_61_2847" cx="0" cy="0" r="1" gradientUnits="userSpaceOnUse" gradientTransform="translate(17.2796 25.3945) rotate(-118.811) scale(1.35314 1.62654)">
<stop offset="0.766" stop-color="#FFE6E2" stop-opacity="0"/>
<stop offset="0.966" stop-color="#FFE6E2"/>
</radialGradient>
<radialGradient id="paint32_radial_61_2847" cx="0" cy="0" r="1" gradientUnits="userSpaceOnUse" gradientTransform="translate(29.6076 25.7883) rotate(90) scale(2.47373 2.92707)">
<stop offset="0.75" stop-color="#7F584B"/>
<stop offset="1" stop-color="#5D4139"/>
</radialGradient>
<radialGradient id="paint33_radial_61_2847" cx="0" cy="0" r="1" gradientUnits="userSpaceOnUse" gradientTransform="translate(28.983 25.1045) rotate(-127.812) scale(1.03588 1.42617)">
<stop offset="0.766" stop-color="#FFE6E2" stop-opacity="0"/>
<stop offset="0.966" stop-color="#FFE6E2"/>
</radialGradient>
<linearGradient id="paint34_linear_61_2847" x1="31.7359" y1="25.0217" x2="30.8766" y2="25.5519" gradientUnits="userSpaceOnUse">
<stop stop-color="#B4948D"/>
<stop offset="1" stop-color="#B4948D" stop-opacity="0"/>
</linearGradient>
<linearGradient id="paint35_linear_61_2847" x1="33.2608" y1="19.8105" x2="28.1319" y2="19.8105" gradientUnits="userSpaceOnUse">
<stop stop-color="#A8A7A9"/>
<stop offset="1" stop-color="#A8A7A9" stop-opacity="0"/>
</linearGradient>
<linearGradient id="paint36_linear_61_2847" x1="19.3104" y1="18.5459" x2="14.2373" y2="20.5184" gradientUnits="userSpaceOnUse">
<stop stop-color="#A8A7A9"/>
<stop offset="1" stop-color="#A8A7A9" stop-opacity="0"/>
</linearGradient>
</defs>
</svg>
