<svg width="34" height="34" viewBox="0 0 34 34" fill="none" xmlns="http://www.w3.org/2000/svg">
<path d="M12.3959 7.79166C11.7384 7.79166 11.1078 8.05285 10.6429 8.51779C10.1779 8.98272 9.91675 9.61331 9.91675 10.2708V23.7292C9.91675 24.3867 10.1779 25.0173 10.6429 25.4822C11.1078 25.9471 11.7384 26.2083 12.3959 26.2083C13.0534 26.2083 13.684 25.9471 14.149 25.4822C14.6139 25.0173 14.8751 24.3867 14.8751 23.7292V10.2708C14.8751 9.61331 14.6139 8.98272 14.149 8.51779C13.684 8.05285 13.0534 7.79166 12.3959 7.79166ZM21.6042 7.79166C20.9467 7.79166 20.3161 8.05285 19.8512 8.51779C19.3863 8.98272 19.1251 9.61331 19.1251 10.2708V23.7292C19.1251 24.3867 19.3863 25.0173 19.8512 25.4822C20.3161 25.9471 20.9467 26.2083 21.6042 26.2083C22.2618 26.2083 22.8923 25.9471 23.3573 25.4822C23.8222 25.0173 24.0834 24.3867 24.0834 23.7292V10.2708C24.0834 9.61331 23.8222 8.98272 23.3573 8.51779C22.8923 8.05285 22.2618 7.79166 21.6042 7.79166Z" fill="black"/>
</svg>
