<svg width="24" height="24" viewBox="0 0 24 24" fill="none" xmlns="http://www.w3.org/2000/svg">
<path d="M12 16.23C12.1427 16.23 12.2617 16.1823 12.357 16.087C12.4523 15.9917 12.5 15.873 12.5 15.731V11.077C12.5 10.935 12.452 10.8163 12.356 10.721C12.26 10.6257 12.141 10.5777 11.999 10.577C11.857 10.5763 11.7383 10.6243 11.643 10.721C11.5477 10.8177 11.5 10.9363 11.5 11.077V15.731C11.5 15.8723 11.548 15.991 11.644 16.087C11.74 16.183 11.859 16.231 12.001 16.231M12 9C12.1747 9 12.321 8.941 12.439 8.823C12.5563 8.705 12.615 8.559 12.615 8.385C12.615 8.21034 12.556 8.064 12.438 7.946C12.32 7.828 12.174 7.76934 12 7.77C11.826 7.77067 11.68 7.82967 11.562 7.947C11.444 8.06434 11.385 8.21067 11.385 8.386C11.385 8.56134 11.444 8.70734 11.562 8.824C11.68 8.94067 11.826 8.99934 12 9ZM12 20.842C11.9093 20.842 11.8137 20.8337 11.713 20.817C11.6123 20.8003 11.519 20.7753 11.433 20.742C9.46433 19.992 7.9 18.72 6.74 16.926C5.58 15.132 5 13.19 5 11.1V6.817C5 6.47434 5.09767 6.16567 5.293 5.891C5.48767 5.61634 5.74 5.41734 6.05 5.294L11.435 3.294C11.6297 3.22334 11.818 3.188 12 3.188C12.182 3.188 12.3707 3.22334 12.566 3.294L17.95 5.294C18.2593 5.418 18.5117 5.617 18.707 5.891C18.9023 6.16567 19 6.47434 19 6.817V11.1C19 13.19 18.42 15.132 17.26 16.926C16.1 18.72 14.536 19.992 12.568 20.742C12.4807 20.7753 12.387 20.8003 12.287 20.817C12.187 20.8337 12.0913 20.842 12 20.842ZM12 19.9C13.7333 19.35 15.1667 18.25 16.3 16.6C17.4333 14.95 18 13.1167 18 11.1V6.798C18 6.67 17.9647 6.55467 17.894 6.452C17.824 6.34934 17.7247 6.27267 17.596 6.222L12.212 4.222C12.148 4.19534 12.0773 4.182 12 4.182C11.9227 4.182 11.852 4.19534 11.788 4.222L6.404 6.222C6.27533 6.27267 6.176 6.34934 6.106 6.452C6.03533 6.55467 6 6.67 6 6.798V11.1C6 13.1167 6.56667 14.95 7.7 16.6C8.83333 18.25 10.2667 19.35 12 19.9Z" fill="black"/>
</svg>
