<svg width="40" height="40" viewBox="0 0 40 40" fill="none" xmlns="http://www.w3.org/2000/svg">
<path d="M33.6309 14.4656C33.6309 14.4656 34.1684 4.36561 26.1653 2.36561C16.9122 0.0531098 15.0903 8.90311 15.0903 8.90311C15.0903 8.90311 11.4809 8.21873 9.23407 10.6594C7.34969 12.7062 7.52782 14.7094 7.52782 14.7094C7.52782 14.7094 5.04032 14.1719 3.08719 15.8812C1.13407 17.5906 1.42782 19.1969 1.42782 19.1969L7.23407 21.4406C7.23407 21.4406 36.5559 21.5875 36.7028 21.4906C36.8497 21.3937 38.6559 18.5625 38.6559 18.5625C38.6559 18.5625 38.3622 16.1219 36.6559 15.1469C34.9466 14.1719 33.6309 14.4656 33.6309 14.4656Z" fill="#E2EBEE"/>
<path d="M4.45326 22.9531C5.91576 23.0031 15.4814 23.1968 21.2845 23.1468C27.0876 23.0968 35.9126 23.1906 37.1376 22.6125C38.097 22.1593 38.6689 21.4093 38.7595 20.3593C38.847 19.3562 38.6533 18.5625 38.6533 18.5625C38.6533 18.5625 37.2876 19.55 34.7001 19.5875C33.0908 19.6093 29.822 19.3437 30.4564 18.7593C30.6345 18.5937 33.1626 16.6781 33.0408 14.9062C33.0126 14.4875 30.747 16.5656 28.6001 17.4437C26.4533 18.3218 24.4158 19 21.5783 18.8187C19.1876 18.6625 18.1501 17.6906 18.1501 17.6906C18.1501 17.6906 16.997 19.0437 13.5314 19.3343C10.0658 19.6281 9.31888 18.325 9.31888 18.325C9.31888 18.325 7.64076 19.5937 4.82201 19.5562C2.00951 19.5125 1.45638 18.5 1.45638 18.5C1.45638 18.5 1.19076 20.3031 1.77826 21.3562C2.37826 22.4281 3.46888 22.9218 4.45326 22.9531Z" fill="#B9CED2"/>
<path d="M21.871 25.4907C21.3367 25.3032 19.4304 26.8125 18.571 28.3032C17.7085 29.8 18.271 30.8938 19.1929 31.3438C20.2304 31.85 21.7242 31.5375 22.1492 30.0625C22.5679 28.6032 22.446 25.6938 21.871 25.4907ZM11.7679 24.7469C11.2835 24.575 9.71166 26.0344 9.00541 26.8219C8.05854 27.8813 7.32729 29.8563 9.12416 30.6563C10.9335 31.4594 12.1085 30.1438 12.1992 28.325C12.2867 26.6313 12.1679 24.8907 11.7679 24.7469ZM15.5835 31.7657C15.0679 31.4875 12.9023 33.4094 12.2117 34.5563C11.5242 35.7032 11.5679 37.175 12.9742 37.7782C14.3804 38.3813 15.621 37.6094 15.8804 35.6C16.0617 34.175 16.0804 32.0344 15.5835 31.7657ZM26.0554 31.9313C25.6835 31.7219 23.1085 33.7094 22.5304 35.1563C21.3835 38.0282 25.3023 39.3094 26.1929 36.6094C26.7117 35.0344 26.5148 32.1907 26.0554 31.9313ZM32.4585 25.7407C31.9492 25.4282 29.8085 27.1907 29.096 28.5157C28.196 30.1907 28.896 31.4532 29.8773 31.8532C30.896 32.2657 32.2054 31.8688 32.6492 30.3594C33.2898 28.1844 32.9523 26.0469 32.4585 25.7407Z" fill="#4FC4F8"/>
<path d="M30.1244 28.4657C29.7869 28.5063 29.3681 28.9875 29.3025 29.8094C29.2369 30.6313 29.7556 31.0469 30.2806 30.8375C30.7744 30.6407 30.8556 29.9375 30.8556 29.4938C30.8556 29.05 30.6462 28.4 30.1244 28.4657ZM19.6869 28.2063C19.3306 28.1063 18.6681 28.6563 18.5525 29.5469C18.4619 30.2344 18.7275 30.65 19.2619 30.6907C20.0056 30.7469 20.24 29.8313 20.2212 29.2719C20.2087 28.9532 20.1525 28.3375 19.6869 28.2063ZM13.265 34.3094C12.9337 34.2844 12.3775 34.8407 12.3775 35.7063C12.3775 36.5719 12.8275 36.9469 13.3587 36.8313C13.89 36.7125 13.9962 35.6969 13.9619 35.2938C13.9275 34.8907 13.7556 34.3469 13.265 34.3094ZM9.65874 27.6375C9.21187 27.5094 8.63999 28.075 8.57124 28.7125C8.49937 29.35 8.79624 29.8125 9.26812 29.8844C9.73999 29.9563 10.1431 29.3875 10.19 28.725C10.24 28.0625 10.0744 27.7532 9.65874 27.6375ZM23.8744 34.6782C23.4619 34.6438 22.8712 35.2532 22.8869 36.175C22.9025 37.0969 23.3806 37.2532 23.6962 37.2719C24.1494 37.3 24.465 36.7657 24.5056 35.9282C24.54 35.225 24.3806 34.7188 23.8744 34.6782Z" fill="#AEE6FD"/>
</svg>
