<svg width="34" height="34" viewBox="0 0 34 34" fill="none" xmlns="http://www.w3.org/2000/svg">
<path d="M20.7184 18.0147L14.6542 19.0692C14.6542 19.0692 12.6355 24.2117 12.5106 24.5597C12.3858 24.9077 12.3911 25.4575 12.9409 25.4575C13.6395 25.4575 17.1856 25.4389 17.1856 25.4389C17.1856 25.4389 16.325 29.5906 16.2745 29.9625C16.2241 30.3344 16.6225 30.6611 16.9731 30.2866C17.3238 29.912 22.1555 23.7017 22.3653 23.3989C22.7398 22.857 22.3786 22.3577 21.9536 22.3338C21.5286 22.3099 18.6811 22.3709 18.6811 22.3709L20.7184 18.0147Z" fill="#FECA18"/>
<path d="M19.1043 18.7372C19.1043 18.7372 17.7523 21.7281 17.7018 21.8981C17.553 22.4028 18.2065 22.6073 18.3924 22.1983C18.5784 21.7866 20.188 18.4583 20.188 18.4583L19.1043 18.7372ZM13.2791 24.4826C13.6351 24.472 16.7588 24.4641 17.0191 24.4455C17.5052 24.4083 17.5796 25.0803 17.0191 25.0803C16.4374 25.0803 13.3721 25.0909 13.1862 25.0989C12.7559 25.1201 12.6974 24.5012 13.2791 24.4826Z" fill="#FDB900"/>
<path d="M15.7834 18.3308C15.7834 18.3308 14.1897 22.3311 14.0993 22.6312C13.7248 23.885 15.0715 23.8478 15.4275 23.1359C15.6028 22.7826 17.3161 19.1542 17.3904 18.4981C17.4648 17.8447 15.7834 18.3308 15.7834 18.3308ZM16.2057 22.9951C15.9773 22.8384 15.7011 22.9766 15.5337 23.2395C15.3664 23.5025 15.122 23.9301 15.4965 24.1559C15.8339 24.3578 16.1314 23.9514 16.2642 23.7628C16.3943 23.5742 16.5617 23.2369 16.2057 22.9951ZM18.9497 23.8531C18.3414 23.723 18.1448 24.2276 18.0147 24.8253C17.8845 25.423 17.3957 27.3567 17.3054 27.8348C17.1753 28.5069 17.7915 28.6025 18.0545 27.9836C18.2511 27.5214 19.1037 25.4362 19.2126 25.1042C19.38 24.6022 19.5659 23.9859 18.9497 23.8531Z" fill="#FFE36A"/>
<path d="M28.6663 12.2878C28.6663 12.2878 29.3569 2.99625 21.412 1.81688C14.2694 0.757035 12.8669 7.53844 12.8669 7.53844C12.8669 7.53844 10.1681 6.90891 8.22907 8.64078C6.30329 10.362 6.45204 12.3994 6.45204 12.3994C6.45204 12.3994 1.70267 11.6503 1.21657 15.7277C0.762353 19.5367 6.37767 18.5884 6.37767 18.5884L33.0411 16.6255C33.0411 16.6255 33.6733 14.6227 31.6572 13.1113C30.4592 12.2108 28.6663 12.2878 28.6663 12.2878Z" fill="#E4EAEE"/>
<path d="M14.2932 14.3942C14.5163 14.3198 15.7887 15.4063 19.4543 15.4408C24.4906 15.4913 28.3049 12.5242 28.3049 12.5242C28.3049 12.5242 28.4324 13.4273 28.0314 14.0702C27.532 14.867 26.759 15.0184 26.759 15.0184C26.759 15.0184 28.1562 15.9906 30.074 15.8419C31.8032 15.7064 33.0543 15.1194 33.0543 15.1194C33.0543 15.1194 33.2217 15.972 33.1287 16.8034C32.9428 18.4609 31.9706 19.1356 30.8974 19.2578C30.1085 19.3481 23.3696 19.38 20.6018 19.4066C18.1076 19.4305 5.39744 19.7492 4.09854 19.6058C2.75182 19.457 1.72916 18.6469 1.35729 17.4861C1.07307 16.6069 1.20854 16.0411 1.20854 16.0411C1.20854 16.0411 3.68416 16.6972 5.07338 16.5405C6.81854 16.3413 7.98994 15.2442 7.98994 15.2442C7.98994 15.2442 9.03651 15.8419 11.3554 15.6427C13.3503 15.4673 14.2932 14.3942 14.2932 14.3942Z" fill="url(#paint0_radial_57_950)"/>
<path d="M27.5984 19.7094C27.3274 19.558 26.3632 20.4585 25.8213 21.0003C25.4893 21.3324 24.4321 22.201 24.2887 23.0377C23.9327 25.0936 26.2888 25.5611 27.2238 24.6075C27.9304 23.8877 27.8029 22.4825 27.8029 22.0097C27.8055 21.3536 27.9357 19.8953 27.5984 19.7094ZM8.2396 20.8144C7.98195 20.6656 7.05757 21.5369 6.53695 22.0655C6.2182 22.3869 5.20617 23.2289 5.06273 24.047C4.7121 26.0525 6.95663 26.5227 7.85445 25.5983C8.53179 24.8997 8.42023 23.5264 8.42288 23.0642C8.42554 22.4241 8.55835 21.0003 8.2396 20.8144ZM12.5241 26.7591C12.2346 26.6502 11.2598 27.5374 10.7179 28.0792C10.3859 28.4113 9.40304 29.2613 9.2596 30.098C8.90367 32.1539 11.1854 32.64 12.1204 31.6864C12.8269 30.9666 12.7101 29.5614 12.6994 29.0886C12.6729 27.8561 12.7234 26.8335 12.5241 26.7591Z" fill="#52C0EE"/>
<path d="M25.9727 22.3709C25.6008 22.177 25.1493 22.2594 24.8624 22.857C24.5755 23.4547 24.8119 23.9302 25.1121 24.0656C25.4574 24.225 25.8851 24.0789 26.1719 23.5928C26.4588 23.1067 26.2835 22.533 25.9727 22.3709ZM10.6276 29.4658C10.2451 29.333 9.82537 29.4737 9.63412 30.0873C9.44287 30.7009 9.73771 31.1206 10.0432 31.2109C10.3965 31.3145 10.7843 31.1153 10.9915 30.608C11.196 30.1006 10.9463 29.5773 10.6276 29.4658ZM6.39349 23.367C5.98974 23.2555 5.56475 23.4281 5.41068 24.0736C5.25662 24.7191 5.58599 25.1334 5.9074 25.2025C6.27928 25.2848 6.66443 25.0537 6.84506 24.5172C7.02303 23.9859 6.73349 23.46 6.39349 23.367Z" fill="#B2E6FE"/>
<defs>
<radialGradient id="paint0_radial_57_950" cx="0" cy="0" r="1" gradientUnits="userSpaceOnUse" gradientTransform="translate(17.4806 19.9953) rotate(-88.3497) scale(7.81852 11.7129)">
<stop offset="0.193" stop-color="#FFE366"/>
<stop offset="0.331" stop-color="#EDDD82"/>
<stop offset="0.571" stop-color="#D0D4AD"/>
<stop offset="0.759" stop-color="#BFCFC7"/>
<stop offset="0.87" stop-color="#B8CDD1"/>
</radialGradient>
</defs>
</svg>
