<svg width="30" height="30" viewBox="0 0 30 30" fill="none" xmlns="http://www.w3.org/2000/svg">
<path d="M20.2671 12.9512C20.2671 15.031 19.0443 16.8254 17.2776 17.6541C17.2776 17.6541 9.88265 13.3559 13.3207 8.0631C13.8684 7.86599 14.4592 7.75894 15.0749 7.75894C17.9426 7.75894 20.2671 10.084 20.2671 12.9512Z" fill="#FCE3A0"/>
<path d="M17.8459 15.1823L17.2778 17.6541C16.6095 17.9678 15.8629 18.1434 15.0751 18.1434C12.2073 18.1434 9.88281 15.8189 9.88281 12.9512C9.88281 10.6997 11.3164 8.78243 13.3209 8.0631C13.1 11.0141 14.3336 13.922 17.8459 15.1823Z" fill="#FFCE71"/>
<path d="M29.1502 17.905V19.1731L28.8554 19.5063L29.1502 20.2555V22.085L28.7982 22.3349L29.1502 23.1674V26.4775C26.0621 26.0012 22.956 25.6823 19.8436 25.522C19.8436 25.522 11.9164 22.1631 14.8201 15.6337C15.2126 15.6931 15.6216 15.6144 15.971 15.3975C16.1449 15.2893 16.3188 15.1822 16.4927 15.0752C17.8317 14.2522 19.5309 14.3003 20.8229 15.1953C21.0324 15.3408 21.242 15.487 21.4521 15.6337C21.98 16.003 22.6716 16.042 23.238 15.7345C23.3768 15.6592 23.5156 15.5838 23.6543 15.5096C25.0318 14.7676 26.718 14.9081 27.9545 15.8665C28.0621 15.9503 28.1703 16.0341 28.2779 16.1179C28.8285 16.5473 29.1502 17.2066 29.1502 17.905Z" fill="#A4E7FF"/>
<path d="M20.1802 24.0578L19.8438 25.522C13.5544 25.1963 7.24066 25.5152 1 26.4781V23.1674L1.40181 22.4306L1 22.085V20.2555L1.35752 19.6071L1 19.1731V17.905C1 17.2066 1.32172 16.5473 1.87227 16.1179C1.97988 16.0341 2.08807 15.9503 2.19568 15.8665C3.43215 14.9081 5.11834 14.7676 6.49584 15.5096C6.63461 15.5838 6.77338 15.6592 6.91215 15.7345C7.47855 16.042 8.17014 16.003 8.69803 15.6337C8.90816 15.487 9.11773 15.3408 9.32731 15.1953C10.6193 14.3003 12.3185 14.2522 13.6575 15.0752C13.8314 15.1822 14.0053 15.2893 14.1791 15.3975C14.3779 15.5215 14.5966 15.6003 14.8203 15.6337C14.5615 19.1267 16.0245 22.5665 20.1802 24.0578Z" fill="#5AD6FF"/>
<path d="M29.1502 26.4775V27.4512C29.1502 28.3897 28.3895 29.1504 27.4509 29.1504H17.485C12.6823 28.2671 10.5899 25.8304 13.8753 23.7231C14.2735 23.7106 14.6734 23.7044 15.075 23.7044C20.1284 23.7044 24.9066 24.7018 29.1502 26.4775Z" fill="#FFEBCE"/>
<path d="M17.4853 29.1504H2.69922C1.76068 29.1504 1 28.3897 1 27.4512V26.4781C4.9065 24.8434 9.26613 23.8681 13.8755 23.7231C13.8138 25.9825 14.8305 28.1546 17.4853 29.1504Z" fill="#FFD9A0"/>
<path d="M26.7764 12.2305C27.3238 12.2305 27.7676 11.7867 27.7676 11.2393C27.7676 10.6919 27.3238 10.2481 26.7764 10.2481C26.2289 10.2481 25.7852 10.6919 25.7852 11.2393C25.7852 11.7867 26.2289 12.2305 26.7764 12.2305Z" fill="#FFF4E5"/>
<path d="M28.4178 4.58218C28.2675 3.99261 27.7883 3.53472 27.1871 3.4151C27.0277 3.38338 26.889 3.28658 26.8067 3.14645C26.4906 2.60786 25.9057 2.24609 25.236 2.24609C24.5664 2.24609 23.9814 2.60786 23.6653 3.14645C23.5831 3.28658 23.4443 3.38338 23.285 3.4151C22.6838 3.53472 22.2046 3.99261 22.0543 4.58218C22.0215 4.71064 21.9476 4.82319 21.8434 4.90514C21.5259 5.1551 21.3218 5.54275 21.3218 5.97831C21.3218 6.73243 21.9331 7.34375 22.6872 7.34375H27.7849C28.539 7.34375 29.1503 6.73243 29.1503 5.97831C29.1503 5.5428 28.9462 5.1551 28.6286 4.90514C28.5245 4.82319 28.4506 4.71064 28.4178 4.58218Z" fill="#FFF4E5"/>
<path d="M10.0625 4.58082C10.0625 3.76276 9.48646 3.07933 8.71785 2.91389C8.53456 2.87446 8.38854 2.73773 8.3259 2.56102C8.0035 1.65148 7.13554 1 6.11544 1C5.46872 1 4.88311 1.26185 4.45893 1.68535C4.34695 1.79716 4.19527 1.85658 4.03713 1.85165C3.10199 1.82248 2.26275 2.50607 2.09588 3.41952C2.06201 3.60496 1.9395 3.75936 1.7668 3.83492C1.31543 4.03231 1 4.48289 1 5.0071C1 5.71341 1.57258 6.28599 2.27889 6.28599H8.46008L8.46042 6.28287C9.35415 6.22957 10.0625 5.48792 10.0625 4.58082Z" fill="#FFEBCE"/>
<path d="M9.88295 12.9512H7.99512" stroke="black" stroke-width="0.849609" stroke-miterlimit="10" stroke-linecap="round" stroke-linejoin="round"/>
<path d="M22.1554 12.9512H20.2676" stroke="black" stroke-width="0.849609" stroke-miterlimit="10" stroke-linecap="round" stroke-linejoin="round"/>
<path d="M11.4039 9.27972L10.0688 7.9447" stroke="black" stroke-width="0.849609" stroke-miterlimit="10" stroke-linecap="round" stroke-linejoin="round"/>
<path d="M20.0816 7.9447L18.7466 9.27972" stroke="black" stroke-width="0.849609" stroke-miterlimit="10" stroke-linecap="round" stroke-linejoin="round"/>
<path d="M15.0752 7.75893V5.87109" stroke="black" stroke-width="0.849609" stroke-miterlimit="10" stroke-linecap="round" stroke-linejoin="round"/>
<path d="M10.1989 14.7393C9.99439 14.182 9.88281 13.5799 9.88281 12.9512C9.88281 10.084 12.2073 7.75893 15.0751 7.75893C15.4251 7.75893 15.7666 7.79348 16.0974 7.85975" stroke="black" stroke-width="0.849609" stroke-miterlimit="10" stroke-linecap="round" stroke-linejoin="round"/>
<path d="M17.9312 8.61476C19.3387 9.5431 20.2676 11.1387 20.2676 12.9512C20.2676 13.5799 20.156 14.182 19.9515 14.7393" stroke="black" stroke-width="0.849609" stroke-miterlimit="10" stroke-linecap="round" stroke-linejoin="round"/>
<path d="M29.1504 26.4775V17.905C29.1504 17.2066 28.8287 16.5473 28.2781 16.1179C28.1705 16.0341 28.0623 15.9503 27.9547 15.8665C26.7182 14.9081 25.0321 14.7676 23.6546 15.5096C23.5158 15.5838 23.377 15.6592 23.2382 15.7345C22.6718 16.042 21.9803 16.003 21.4524 15.6337C21.2422 15.487 21.0327 15.3408 20.8231 15.1953C19.5311 14.3003 17.8319 14.2522 16.4929 15.0752C16.319 15.1822 16.1451 15.2893 15.9713 15.3975C15.4224 15.7379 14.728 15.7379 14.1791 15.3975C14.0053 15.2893 13.8314 15.1822 13.6575 15.0752C12.3185 14.2522 10.6193 14.3003 9.3273 15.1953C9.11773 15.3408 8.90816 15.487 8.69803 15.6337C8.17014 16.003 7.47855 16.042 6.91215 15.7345C6.77338 15.6592 6.63461 15.5838 6.49584 15.5096C5.11834 14.7676 3.43215 14.9081 2.19568 15.8665C2.08807 15.9503 1.97988 16.0341 1.87227 16.1179C1.32172 16.5473 1 17.2066 1 17.905V26.4781" stroke="black" stroke-width="0.849609" stroke-miterlimit="10" stroke-linecap="round" stroke-linejoin="round"/>
<path d="M14.7325 23.7061C14.8464 23.705 14.9608 23.7044 15.0752 23.7044C20.1287 23.7044 24.9069 24.7018 29.1504 26.4775V27.4512C29.1504 28.3897 28.3897 29.1504 27.4512 29.1504H2.69922C1.76068 29.1504 1 28.3897 1 27.4512V26.4781C4.58705 24.9771 8.55643 24.0318 12.7512 23.7758" stroke="black" stroke-width="0.849609" stroke-miterlimit="10" stroke-linecap="round" stroke-linejoin="round"/>
<path d="M28.4178 4.58218C28.2675 3.99261 27.7883 3.53472 27.1871 3.4151C27.0277 3.38338 26.889 3.28658 26.8067 3.14645C26.4906 2.60786 25.9057 2.24609 25.236 2.24609C24.5664 2.24609 23.9814 2.60786 23.6653 3.14645C23.5831 3.28658 23.4443 3.38338 23.285 3.4151C22.6838 3.53472 22.2046 3.99261 22.0543 4.58218C22.0215 4.71064 21.9476 4.82319 21.8434 4.90514C21.5259 5.1551 21.3218 5.54275 21.3218 5.97831C21.3218 6.73243 21.9331 7.34375 22.6872 7.34375H27.7849C28.539 7.34375 29.1503 6.73243 29.1503 5.97831C29.1503 5.5428 28.9462 5.1551 28.6286 4.90514C28.5245 4.82319 28.4506 4.71064 28.4178 4.58218Z" stroke="black" stroke-width="0.849609" stroke-miterlimit="10" stroke-linecap="round" stroke-linejoin="round"/>
<path d="M4.72119 10.759C4.72119 10.0233 5.77544 9.07141 6.9867 9.42632" stroke="black" stroke-width="0.849609" stroke-miterlimit="10" stroke-linecap="round" stroke-linejoin="round"/>
<path d="M4.72108 10.759C4.72108 10.0233 3.66683 9.07141 2.45557 9.42632" stroke="black" stroke-width="0.849609" stroke-miterlimit="10" stroke-linecap="round" stroke-linejoin="round"/>
<path d="M17.9507 3.48512C17.9507 2.74947 19.0049 1.79757 20.2162 2.15248" stroke="black" stroke-width="0.849609" stroke-miterlimit="10" stroke-linecap="round" stroke-linejoin="round"/>
<path d="M17.9506 3.48511C17.9506 2.74946 16.8963 1.79756 15.6851 2.15247" stroke="black" stroke-width="0.849609" stroke-miterlimit="10" stroke-linecap="round" stroke-linejoin="round"/>
<path d="M1 19.7141C1.37779 19.4161 1.75502 19.121 2.13281 18.8276C3.40553 17.8398 5.14213 17.692 6.55984 18.4561C6.66916 18.515 6.77791 18.5739 6.88666 18.6328C7.46893 18.9488 8.1792 18.9086 8.72182 18.5291C8.90363 18.4023 9.08545 18.2754 9.2667 18.1496C10.5949 17.2281 12.3434 17.1788 13.7204 18.0256C13.8648 18.1145 14.0098 18.204 14.1548 18.2941C14.7184 18.6436 15.432 18.6436 15.9956 18.2941C16.1406 18.204 16.2856 18.1145 16.43 18.0256C17.807 17.1788 19.5555 17.2281 20.8837 18.1496C21.0649 18.2754 21.2468 18.4023 21.4286 18.5291C21.9712 18.9086 22.6815 18.9488 23.2637 18.6328C23.3725 18.5739 23.4812 18.515 23.5905 18.4561C25.0083 17.692 26.7449 17.8398 28.0176 18.8276C28.3954 19.121 28.7726 19.4161 29.1504 19.7141" stroke="black" stroke-width="0.849609" stroke-miterlimit="10" stroke-linecap="round" stroke-linejoin="round"/>
<path d="M1 22.626C1.37779 22.328 1.75502 22.0329 2.13281 21.7395C3.40553 20.7517 5.14213 20.6039 6.55984 21.368C6.66916 21.4269 6.77791 21.4858 6.88666 21.5447C7.46893 21.8607 8.1792 21.8205 8.72182 21.441C8.90363 21.3142 9.08545 21.1873 9.2667 21.0615C10.5949 20.14 12.3434 20.0907 13.7204 20.9375C13.8648 21.0264 14.0098 21.1159 14.1548 21.206C14.7184 21.5554 15.432 21.5554 15.9956 21.206C16.1406 21.1159 16.2856 21.0264 16.43 20.9375C17.807 20.0907 19.5555 20.14 20.8837 21.0615C21.0649 21.1873 21.2468 21.3142 21.4286 21.441C21.9712 21.8205 22.6815 21.8607 23.2637 21.5447C23.3725 21.4858 23.4812 21.4269 23.5905 21.368C25.0083 20.6039 26.7449 20.7517 28.0176 21.7395C28.3954 22.0329 28.7726 22.328 29.1504 22.626" stroke="black" stroke-width="0.849609" stroke-miterlimit="10" stroke-linecap="round" stroke-linejoin="round"/>
<circle cx="23.2764" cy="26.8216" r="0.424805" fill="black"/>
<circle cx="17.8091" cy="26.2552" r="0.424805" fill="black"/>
<circle cx="12.3413" cy="27.0264" r="0.424805" fill="black"/>
<circle cx="6.87402" cy="26.7998" r="0.424805" fill="black"/>
<path d="M6.70541 6.2857H8.46014V6.28287C9.35393 6.22963 10.0625 5.4882 10.0625 4.58082C10.0625 3.76293 9.48646 3.07928 8.71785 2.91389C8.53434 2.87424 8.38877 2.73773 8.3259 2.56102C8.00361 1.65137 7.13531 1 6.11521 1C5.46895 1 4.88328 1.26168 4.45904 1.68535C4.34689 1.79693 4.1951 1.85641 4.03707 1.85188C3.10193 1.82242 2.26252 2.50607 2.096 3.41969C2.06201 3.6049 1.93967 3.75953 1.76691 3.83486C1.31549 4.03254 1 4.48283 1 5.00732C1 5.3602 1.1433 5.68021 1.37439 5.91131C1.60605 6.14297 1.92551 6.2857 2.27895 6.2857H4.72299" stroke="black" stroke-width="0.849609" stroke-miterlimit="10" stroke-linecap="round" stroke-linejoin="round"/>
<path d="M26.7764 12.2305C27.3238 12.2305 27.7676 11.7867 27.7676 11.2393C27.7676 10.6919 27.3238 10.2481 26.7764 10.2481C26.2289 10.2481 25.7852 10.6919 25.7852 11.2393C25.7852 11.7867 26.2289 12.2305 26.7764 12.2305Z" stroke="black" stroke-width="0.849609" stroke-miterlimit="10" stroke-linecap="round" stroke-linejoin="round"/>
</svg>
