<svg width="24" height="24" viewBox="0 0 24 24" fill="none" xmlns="http://www.w3.org/2000/svg">
<path d="M6.616 22C6.15533 22 5.771 21.846 5.463 21.538C5.155 21.23 5.00067 20.8457 5 20.385V10.615C5 10.155 5.15433 9.77099 5.463 9.46299C5.77167 9.15499 6.156 9.00065 6.616 8.99999H8.73V9.99999H6.616C6.462 9.99999 6.32067 10.064 6.192 10.192C6.06333 10.32 5.99933 10.4613 6 10.616V20.385C6 20.5383 6.064 20.6793 6.192 20.808C6.32 20.9367 6.461 21.0007 6.615 21H17.385C17.5383 21 17.6793 20.936 17.808 20.808C17.9367 20.68 18.0007 20.539 18 20.385V10.615C18 10.4617 17.936 10.3207 17.808 10.192C17.68 10.0633 17.5387 9.99932 17.384 9.99999H15.27V8.99999H17.385C17.8457 8.99999 18.23 9.15432 18.538 9.46299C18.846 9.77165 19 10.156 19 10.616V20.385C19 20.845 18.8457 21.2293 18.537 21.538C18.2283 21.8467 17.8443 22.0007 17.385 22H6.616ZM11.5 15.5V4.61399L9.4 6.71399L8.692 5.99999L12 2.69199L15.308 5.99999L14.6 6.71399L12.5 4.61399V15.5H11.5Z" fill="black"/>
</svg>
