<svg width="42" height="26" viewBox="0 0 42 26" fill="none" xmlns="http://www.w3.org/2000/svg">
<path fill-rule="evenodd" clip-rule="evenodd" d="M1.65063 10.9839C1.65063 10.9839 1.65554 7.03028 2.98224 3.53109C4.1247 0.720704 5.17667 -0.269231 5.77209 0.0610237C6.69665 0.573659 5.48122 1.77509 5.03804 0.792264C1.91921 4.26319 2.26258 9.1939 1.92467 10.8048C1.82399 11.2855 1.69573 11.2095 1.65063 10.9839Z" fill="#E3C476"/>
<path fill-rule="evenodd" clip-rule="evenodd" d="M5.60428 0.588433C5.79795 0.805988 6.05447 0.619049 5.97165 0.404842C5.93307 0.304229 5.85305 0.215734 5.77339 0.167643C5.52886 0.0200873 5.43532 0.398686 5.60428 0.588433Z" fill="#F8E9C2"/>
<path fill-rule="evenodd" clip-rule="evenodd" d="M0.51525 11.8533C0.799646 11.8533 1.03053 12.084 1.03053 12.3685C1.03053 12.653 0.799646 12.8837 0.51525 12.8837C0.230853 12.8837 3.30316e-09 12.653 3.30316e-09 12.3685C-3.18869e-05 12.084 0.230853 11.8533 0.51525 11.8533Z" fill="black"/>
<path fill-rule="evenodd" clip-rule="evenodd" d="M12.5682 14.6105C12.5682 14.6105 9.0431 15.7582 6.50219 12.9711C3.87408 10.089 -0.215102 9.29767 0.252982 13.7929C0.461226 15.7946 2.01109 18.19 4.69867 20.2667C8.30539 23.0538 11.9942 23.9556 11.9942 23.9556C11.9942 23.9556 10.7335 24.8765 11.9121 25.3492C13.9617 26.005 40.1111 25.3492 40.1111 25.3492C46.0458 25.8058 36.2948 19.7477 34.1272 19.5289C34.1272 19.5289 26.4215 10.5119 12.5682 14.6105Z" fill="#F2D68E"/>
<path fill-rule="evenodd" clip-rule="evenodd" d="M12.5683 14.6106C12.5683 14.6106 10.5311 15.2733 8.43769 14.367C8.68787 17.1581 11.6093 19.8505 12.57 20.2775C13.8069 20.8273 14.8611 23.8516 9.54578 22.2478C4.73798 20.7971 1.54214 16.7976 0.97583 16.047C1.70832 17.4588 2.96744 18.9289 4.69869 20.2667C8.30541 23.0538 11.9942 23.9556 11.9942 23.9556C11.9942 23.9556 10.7335 24.8765 11.9122 25.3492C13.9617 26.005 40.1112 25.3492 40.1112 25.3492C46.0458 25.8058 36.2948 19.7477 34.1272 19.5289C34.1272 19.5289 26.4215 10.5119 12.5683 14.6106Z" fill="#E3C476"/>
<path fill-rule="evenodd" clip-rule="evenodd" d="M11.9613 23.9473L11.9941 23.9556C11.9941 23.9556 10.7334 24.8765 11.9121 25.3491C13.6672 25.9108 33.0987 25.5104 38.6412 25.3839C38.4598 25.3416 38.206 25.3179 37.8635 25.3179C33.4301 25.3179 15.4535 25.2166 11.9794 23.9431L11.9613 23.9473Z" fill="#D1AE56"/>
<path fill-rule="evenodd" clip-rule="evenodd" d="M11.9614 23.9473L11.9942 23.9556C11.9942 23.9556 11.8214 24.082 11.6633 24.2651C12.5126 24.4293 15.3215 24.8749 21.4743 25.0452C21.8445 25.0554 22.1786 25.0492 22.48 25.0295C17.7722 24.8312 13.4953 24.4988 11.9795 23.9432L11.9614 23.9473Z" fill="#9E7C28"/>
<path fill-rule="evenodd" clip-rule="evenodd" d="M0.531463 14.7805C0.514976 14.7412 0.533221 14.6957 0.572159 14.6791C0.611448 14.6624 0.65708 14.6807 0.673568 14.7199C0.791466 14.9948 0.942688 15.1632 1.09847 15.2469C1.19953 15.3013 1.30285 15.3195 1.39916 15.3079C1.49496 15.2964 1.5855 15.255 1.66092 15.1901C1.766 15.0997 1.84267 14.9632 1.86761 14.7974C1.87357 14.7552 1.91305 14.7258 1.95533 14.7321C1.99762 14.7382 2.02673 14.7775 2.02058 14.8198C1.99006 15.0239 1.89391 15.1936 1.76147 15.3074C1.66306 15.3921 1.54427 15.4464 1.41725 15.4616C1.29058 15.4769 1.15584 15.4535 1.02512 15.3831C0.841116 15.284 0.664637 15.0909 0.531463 14.7805Z" fill="#AB6739"/>
<path fill-rule="evenodd" clip-rule="evenodd" d="M3.1875 12.2153C3.54646 12.2153 3.83752 12.5062 3.83752 12.8652C3.83752 13.2239 3.54646 13.5148 3.1875 13.5148C2.82874 13.5148 2.53784 13.2239 2.53784 12.8652C2.53784 12.5062 2.82871 12.2153 3.1875 12.2153Z" fill="#D1AE56"/>
<path fill-rule="evenodd" clip-rule="evenodd" d="M3.12035 12.3588C3.44789 12.3588 3.71335 12.6242 3.71335 12.9518C3.71335 13.2793 3.44789 13.5447 3.12035 13.5447C2.79296 13.5447 2.52734 13.2793 2.52734 12.9518C2.52734 12.6242 2.79296 12.3588 3.12035 12.3588Z" fill="black"/>
<path fill-rule="evenodd" clip-rule="evenodd" d="M2.80544 12.6946C2.90088 12.6946 2.97841 12.7718 2.97841 12.8673C2.97841 12.9626 2.90085 13.04 2.80544 13.04C2.71034 13.04 2.63281 12.9626 2.63281 12.8673C2.63278 12.7719 2.71034 12.6946 2.80544 12.6946ZM3.06614 12.4896C3.12963 12.4896 3.18158 12.5413 3.18158 12.605C3.18158 12.6689 3.12967 12.7206 3.06614 12.7206C3.0023 12.7206 2.95069 12.6689 2.95069 12.605C2.95069 12.5413 3.00226 12.4896 3.06614 12.4896Z" fill="#FEFEFE"/>
<path fill-rule="evenodd" clip-rule="evenodd" d="M3.00207 11.2569C3.00207 11.2569 4.14102 7.47096 6.41578 4.49943C8.31615 2.13474 9.60793 1.48823 10.0837 1.97536C10.8222 2.7317 9.31336 3.53405 9.17056 2.46535C5.18699 4.89564 4.1017 9.71766 3.31609 11.1641C3.08154 11.5956 2.98067 11.4861 3.00207 11.2569Z" fill="#F2D68E"/>
<path fill-rule="evenodd" clip-rule="evenodd" d="M9.7717 2.43247C9.89486 2.69643 10.1938 2.59096 10.1766 2.36212C10.1682 2.25459 10.1172 2.14686 10.0543 2.07782C9.86275 1.86642 9.66433 2.20222 9.7717 2.43247Z" fill="#F8E9C2"/>
<path fill-rule="evenodd" clip-rule="evenodd" d="M10.8285 13.2209C10.8285 13.2209 10.0954 12.5795 9.22485 12.9918C8.35415 13.4042 8.67484 15.4662 11.1037 18.0781C14.7016 21.9475 20.4129 22.8586 25.4 22.2478C25.4 22.2478 29.249 23.8974 35.0226 21.1023C40.796 18.3071 42.1708 8.08882 35.8015 3.36917C30.0204 -0.914678 19.1034 0.85089 15.7204 7.53275C14.3121 10.3138 13.4072 13.5139 10.8285 13.2209Z" fill="#AB5742"/>
<path fill-rule="evenodd" clip-rule="evenodd" d="M24.9141 22.3021C25.0769 22.2856 25.2387 22.2675 25.4001 22.2478C25.4001 22.2478 29.2491 23.8974 35.0226 21.1023C38.4072 19.4636 40.2788 15.2739 39.966 11.1364C39.9352 11.2641 39.9048 11.3924 39.8795 11.5255C37.8065 22.5077 20.9098 20.1844 20.9421 11.2966C20.9542 7.9816 23.316 6.89756 23.3381 6.89746C24.0712 6.30175 18.1143 7.67641 18.2519 13.3583C18.3892 19.0402 25.0334 22.2019 25.0334 22.2019L24.9141 22.3021Z" fill="#8F402C"/>
<path fill-rule="evenodd" clip-rule="evenodd" d="M10.8285 13.2209C10.8285 13.2209 10.0954 12.5795 9.22485 12.9918C8.35415 13.4041 8.67484 15.4662 11.1037 18.0781C14.6818 21.9262 20.3498 22.8481 25.3172 22.2575C25.2832 22.2214 25.2625 22.2019 25.2625 22.2019C25.2625 22.2019 20.268 19.9568 18.6183 15.4662C16.9687 10.9756 21.0928 7.58482 21.3677 7.53902C21.3677 7.53902 19.9359 7.82763 18.1887 9.77204C16.5153 11.6342 15.3402 10.601 15.1262 8.77133C14.0107 11.1775 13.0286 13.471 10.8285 13.2209Z" fill="#8F402C"/>
<path fill-rule="evenodd" clip-rule="evenodd" d="M22.8809 22.4189C23.7034 22.4081 24.5192 22.3524 25.3171 22.2575C25.2831 22.2214 25.2624 22.2019 25.2624 22.2019C25.2624 22.2019 20.2679 19.9568 18.6182 15.4662C17.4159 12.1935 19.2802 9.50551 20.4863 8.27005C19.893 8.13758 18.4051 10.7484 18.2244 11.1461C17.6717 12.3651 17.4092 13.8573 17.7019 15.5121C18.3989 19.4556 20.4533 21.2639 22.8809 22.4189Z" fill="#7D3422"/>
<path fill-rule="evenodd" clip-rule="evenodd" d="M11.5983 13.1999C11.3618 13.2427 11.1097 13.2518 10.8386 13.2219C11.6004 16.7448 13.8516 19.5273 17.5643 20.0484C17.5643 20.0484 12.1643 18.5609 11.5983 13.1999Z" fill="#7D3422"/>
<path fill-rule="evenodd" clip-rule="evenodd" d="M26.2783 10.0257C24.4127 10.8642 24.9313 12.8243 26.2255 13.6463C27.399 14.3921 29.0863 13.7583 29.8757 12.8981C30.9172 11.7632 31.1307 9.6631 31.1307 9.6631C31.1307 9.6631 31.8279 12.5354 29.4017 14.2086C26.9755 15.882 24.3264 14.5155 24.2702 12.5354C24.2148 10.5555 25.3857 9.63523 26.2783 10.0257Z" fill="#8F402C"/>
<path fill-rule="evenodd" clip-rule="evenodd" d="M24.661 10.5555C24.661 10.5555 23.5735 11.5316 23.7685 13.4C23.9636 15.2683 26.6968 16.5234 28.7604 15.1289C30.8241 13.7346 31.075 11.922 31.075 11.922C31.075 11.922 29.9874 14.8223 26.8361 14.9617C23.6847 15.1011 23.9917 10.9459 24.661 10.5555Z" fill="#7D3422"/>
<path fill-rule="evenodd" clip-rule="evenodd" d="M25.0538 22.2873C25.1696 22.275 25.285 22.2618 25.4001 22.2478C25.6356 22.3482 18.7477 19.0326 18.4428 13.556C18.2004 10.5181 19.8176 8.25257 22.4406 7.18518C23.435 6.72105 24.5761 6.43314 25.8184 6.36394C27.1963 6.28737 28.5053 6.55034 29.4697 7.16684C31.7954 8.72652 31.529 12.2367 29.5834 13.7162C28.9092 14.3223 28.0851 14.6833 27.2897 14.7668C26.9827 14.7991 26.6809 14.79 26.3944 14.7382C26.1142 14.6873 25.8654 14.6015 25.6468 14.4877C23.6054 13.429 23.9366 9.93644 26.2591 10.0272C26.4537 10.0285 26.6409 10.0654 26.8054 10.1344C28.0939 10.6747 27.2398 12.6804 26.2633 11.9034C26.1728 11.831 26.1091 11.7365 26.0918 11.6395C26.0707 11.5236 26.1219 11.3956 26.2844 11.291C26.3562 11.2448 26.377 11.1491 26.3311 11.0774C26.2849 11.0055 26.1891 10.9847 26.1174 11.0308C25.8321 11.2146 25.7458 11.4607 25.7879 11.6938C25.8189 11.8662 25.9233 12.027 26.0695 12.1443C26.2125 12.259 26.3979 12.3345 26.5942 12.34C27.4948 12.3652 28 10.9285 27.4413 10.229C27.3088 10.0629 27.1307 9.93494 26.9255 9.84887C26.7254 9.765 26.4977 9.72035 26.2604 9.71869C25.584 9.71388 24.8277 10.0618 24.4188 10.8483C24.2872 11.1013 24.1924 11.3853 24.1382 11.6837C24.036 12.2476 24.0809 12.8611 24.2977 13.41C24.5168 13.9644 24.9107 14.4538 25.5041 14.7624C25.7476 14.8889 26.0255 14.9849 26.34 15.0419C26.656 15.0993 26.9869 15.1094 27.3213 15.0742C28.1797 14.9841 29.0669 14.5965 29.7905 13.9461C30.5129 13.2968 31.0735 12.3848 31.2803 11.2447C31.3706 10.7469 31.3933 10.2059 31.3322 9.6258C31.2041 8.40498 30.5671 7.502 29.6353 6.90671C28.615 6.25433 27.2411 5.97545 25.8014 6.05556C24.5195 6.12681 23.3398 6.42495 22.31 6.90566C20.9742 7.52908 19.8901 8.46005 19.1599 9.60261C18.4284 10.7472 18.0526 12.1028 18.1343 13.5729C18.1887 14.5513 18.4462 15.5806 18.9368 16.6314C20.5172 20.018 23.9713 21.7898 25.0538 22.2873Z" fill="#662413"/>
<path fill-rule="evenodd" clip-rule="evenodd" d="M21.928 2.99802C21.928 2.99802 28.8162 0.571938 32.9992 3.02602C37.1822 5.4801 37.4891 10.5834 38.4649 10.3324C39.4411 10.0815 36.4849 -2.60717 21.928 2.99802Z" fill="#C7745F"/>
<path fill-rule="evenodd" clip-rule="evenodd" d="M25.1072 7.09748C25.1072 7.09748 28.5651 6.90232 29.2623 8.79864C30.0606 10.9702 31.0469 9.62989 29.8353 8.19151C29.1508 7.37879 27.7635 6.56957 25.1072 7.09748Z" fill="#C7745F"/>
<path fill-rule="evenodd" clip-rule="evenodd" d="M12.6547 18.7403C12.4503 18.7509 11.1655 17.865 10.318 16.5764C9.79777 15.7855 9.56883 15.3525 9.35112 14.4758C9.04708 13.2514 9.49533 13.2693 9.76094 14.0697C10.316 15.7405 10.1658 16.0542 11.4271 17.5168C12.0427 18.2312 12.6483 18.7464 12.6547 18.7403Z" fill="#AB5742"/>
</svg>
