<svg width="24" height="24" viewBox="0 0 24 24" fill="none" xmlns="http://www.w3.org/2000/svg">
<g clip-path="url(#clip0_85_1649)">
<path d="M12 24C18.6274 24 24 18.6274 24 12C24 5.37258 18.6274 0 12 0C5.37258 0 0 5.37258 0 12C0 18.6274 5.37258 24 12 24Z" fill="#F0F0F0"/>
<path d="M5.66698 16.6149L5.06787 17.0143L6.1329 18.6119L6.73201 18.2125L5.66698 16.6149Z" fill="black"/>
<path d="M5.187 13.8647L4.58789 14.2641L7.07295 17.9919L7.67206 17.5926L5.187 13.8647Z" fill="black"/>
<path d="M4.26562 14.4435L3.6665 14.8429L4.73153 16.4406L5.33064 16.0412L4.26562 14.4435Z" fill="black"/>
<path d="M3.32519 15.0642L2.72607 15.4636L5.21113 19.1914L5.81024 18.792L3.32519 15.0642Z" fill="black"/>
<path d="M17.8481 5.46481L17.249 5.8642L19.7341 9.592L20.3332 9.19262L17.8481 5.46481Z" fill="black"/>
<path d="M16.9267 6.04404L16.3276 6.44342L17.3927 8.04105L17.9918 7.64167L16.9267 6.04404Z" fill="black"/>
<path d="M18.2817 8.14816L17.6826 8.54755L18.7476 10.145L19.3467 9.7456L18.2817 8.14816Z" fill="black"/>
<path d="M18.7881 4.84451L18.189 5.2439L19.254 6.84153L19.8531 6.44214L18.7881 4.84451Z" fill="black"/>
<path d="M20.2114 6.90445L19.6123 7.30383L20.6773 8.90147L21.2764 8.50208L20.2114 6.90445Z" fill="black"/>
<path d="M18.3057 16.5752L17.2407 18.1728L17.8398 18.5722L18.9049 16.9745L18.3057 16.5752Z" fill="black"/>
<path d="M19.7423 14.4526L18.6772 16.0502L19.2764 16.4496L20.3414 14.852L19.7423 14.4526Z" fill="black"/>
<path d="M19.2696 17.1757L18.2046 18.7733L18.8037 19.1727L19.8687 17.5751L19.2696 17.1757Z" fill="black"/>
<path d="M20.6617 15.1215L19.5967 16.7191L20.1958 17.1185L21.2608 15.5208L20.6617 15.1215Z" fill="black"/>
<path d="M17.3424 15.9743L16.2773 17.572L16.8765 17.9713L17.9415 16.3737L17.3424 15.9743Z" fill="black"/>
<path d="M18.7784 13.8521L17.7134 15.4497L18.3125 15.8491L19.3775 14.2515L18.7784 13.8521Z" fill="black"/>
<path d="M6.15303 5.42295L3.66797 9.15076L4.26708 9.55014L6.75214 5.82233L6.15303 5.42295Z" fill="black"/>
<path d="M7.11738 6.025L4.63232 9.75281L5.23144 10.1522L7.71649 6.42438L7.11738 6.025Z" fill="black"/>
<path d="M5.23359 4.75596L2.74854 8.48376L3.34765 8.88315L5.8327 5.15534L5.23359 4.75596Z" fill="black"/>
<path d="M11.9995 16.48C14.4738 16.48 16.4795 14.4742 16.4795 12C16.4795 9.52575 14.4738 7.51999 11.9995 7.51999C9.5253 7.51999 7.51953 9.52575 7.51953 12C7.51953 14.4742 9.5253 16.48 11.9995 16.48Z" fill="#ED1C24"/>
<path d="M15.1198 12C14.2398 11.12 12.8798 11.12 11.9998 12C11.1198 12.88 9.75984 12.88 8.87984 12C8.07984 11.2 7.99984 9.91998 8.71984 9.03998C7.03984 10.88 7.19984 13.68 9.03984 15.36C10.7998 16.96 13.5198 16.88 15.1998 15.2C15.9998 14.24 15.9998 12.88 15.1198 12Z" fill="#0071BC"/>
</g>
<defs>
<clipPath id="clip0_85_1649">
<rect width="24" height="24" fill="white"/>
</clipPath>
</defs>
</svg>
