<svg width="30" height="30" viewBox="0 0 30 30" fill="none" xmlns="http://www.w3.org/2000/svg">
<path d="M6.86725 24.7875C6.86725 24.7875 6.78053 25.0476 6.77819 25.2516C6.77585 25.4555 6.80632 25.8703 7.17194 25.8703C7.64538 25.8703 12.9985 25.8539 15.579 25.8703C18.1594 25.8867 22.9102 25.8375 23.243 25.8187C23.5758 25.8023 23.4844 25.0641 23.4633 24.8109L6.86725 24.7875Z" fill="#543529"/>
<path d="M23.9603 27.1922L24.6376 27.6586C24.6376 27.6586 25.0759 28.0406 25.1345 28.2703C25.1931 28.5 25.0572 28.936 24.8626 29.0274L14.7048 29.0625L5.23138 29.0344C5.08372 28.9969 4.90559 28.8539 4.86106 28.5914C4.81653 28.3289 4.96184 28.0359 5.05325 27.8531C5.14466 27.6703 7.02903 27.1945 7.02903 27.1945L23.9603 27.1922Z" fill="#874D36"/>
<path d="M6.06808 26.7047C5.88526 26.707 5.75167 26.925 5.64151 27.068C5.35558 27.4359 5.17511 27.668 5.05558 27.8531C4.89151 28.1086 5.21964 28.3289 5.51261 28.3289C5.80558 28.3289 25.0571 28.357 25.104 28.2328C25.1673 28.0688 24.7923 27.5086 24.4829 26.993C24.3751 26.8125 24.1407 26.5664 23.9298 26.5688L6.06808 26.7047Z" fill="#B88956"/>
<path d="M7.55137 23.6297L6.89981 24.6914C6.78731 24.8742 6.91856 25.1086 7.13418 25.1086L23.1936 25.0992C23.4068 25.0992 23.5381 24.8672 23.4303 24.6844L22.7998 23.6273H7.55137V23.6297Z" fill="#A06841"/>
<path d="M11.0743 23.8008L9.16411 29.0485H8.0063L7.34302 27.7852L9.46177 23.2266C9.46177 23.2242 11.1797 23.461 11.0743 23.8008Z" fill="#88857C"/>
<path d="M6.75269 29.0555C6.78081 28.957 8.73315 24.8508 8.73315 24.8508C8.85503 24.5953 9.88394 24.7102 9.71753 25.193C9.55112 25.6758 8.37222 29.0461 8.37222 29.0461L6.75269 29.0555Z" fill="#C8C9C6"/>
<path d="M18.7476 23.8008L20.6671 29.0414L21.8132 29.0391L22.4788 27.7852L20.3601 23.2266C20.3624 23.2242 18.6421 23.461 18.7476 23.8008Z" fill="#88857C"/>
<path d="M23.0668 29.0344C23.0387 28.9359 21.0816 24.8367 21.0816 24.8367C20.9598 24.5813 19.9309 24.6961 20.0973 25.1789L21.4473 29.0391L23.0668 29.0344Z" fill="#C8C9C6"/>
<path d="M23.4843 22.9875C23.5171 23.3883 23.2733 23.7469 22.9312 23.8031C21.7944 23.9836 19.078 24.3281 14.8358 24.3281C10.6241 24.3281 7.96865 23.9883 6.846 23.8055C6.49912 23.7492 6.25771 23.3836 6.29521 22.9781L6.29053 18.9609H23.489L23.4843 22.9875Z" fill="#82AEC0"/>
<path d="M6.29053 18.9609V20.3812C6.29053 20.3812 10.364 20.5922 14.8874 20.5922C19.4108 20.5922 23.4866 20.3484 23.4866 20.3484V18.9609H6.29053Z" fill="#546E7A"/>
<path d="M14.8548 19.8727L14.8876 14.2359L6.05166 12.5578L5.89697 18.0469V19.357C5.89697 19.5656 6.05869 19.7367 6.26494 19.7484C7.00791 19.793 9.13604 19.8727 14.8548 19.8727Z" fill="#E0E0E0"/>
<path d="M22.6783 1.87734C21.5439 1.41563 19.2799 0.9375 14.89 0.9375C10.5002 0.9375 8.23379 1.41563 7.09941 1.87734C6.63301 2.06719 6.32832 2.80313 6.32832 3.31406L6.05176 12.5555L8.51973 16.2141L14.8268 19.2633C22.6971 19.2633 23.9275 19.1953 23.9275 19.1953L23.4471 3.31406C23.4494 2.80313 23.1447 2.06719 22.6783 1.87734Z" fill="#2167A1"/>
<path d="M22.1462 2.20781C21.0845 1.77656 18.9962 1.34531 14.89 1.34531C10.7837 1.34531 8.69312 1.77656 7.63374 2.20781C7.1978 2.38593 6.91187 2.91796 6.91187 3.39609L6.94937 9.11249C6.9564 10.3828 7.78608 11.5031 8.9978 11.8852L15.0587 13.9359L20.8759 11.9039C22.09 11.5125 22.9103 10.3781 22.9033 9.10312L22.8658 3.41953C22.8658 2.9414 22.5822 2.38593 22.1462 2.20781Z" fill="#2686C6"/>
<path d="M21.9164 7.37813H15.5273L15.6117 3.4711H21.4406L21.9164 7.37813Z" fill="#BAE2FD"/>
<path d="M21.4784 3.03516H15.7175C15.5018 3.03516 15.3307 3.26719 15.3448 3.54141L15.4526 7.33594C15.4643 7.58672 15.6284 7.78125 15.8253 7.78125H21.7667C22.0526 7.78125 22.2636 7.44375 22.2026 7.0875L21.8393 3.40781C21.8042 3.18984 21.6518 3.03516 21.4784 3.03516ZM16.2261 3.68438H21.019C21.1901 3.68438 21.3378 3.83203 21.38 4.04297L21.6026 6.53672C21.6636 6.83906 21.4854 7.13203 21.2417 7.13203H16.2893C16.0948 7.13203 15.9331 6.93984 15.919 6.69141L15.8581 4.19766C15.8393 3.92109 16.0104 3.68438 16.2261 3.68438Z" fill="#37474F"/>
<path d="M8.08374 7.37813H14.4728L14.3884 3.4711H8.55952L8.08374 7.37813Z" fill="#BAE2FD"/>
<path d="M8.15849 3.40781L7.79521 7.0875C7.73427 7.44375 7.94521 7.78125 8.23114 7.78125H14.1726C14.3694 7.78125 14.5311 7.58672 14.5452 7.33594L14.653 3.54141C14.6671 3.26719 14.496 3.03516 14.2804 3.03516H8.52177C8.34833 3.03516 8.19599 3.18984 8.15849 3.40781ZM14.1444 4.19766L14.0835 6.69141C14.0694 6.93984 13.9077 7.13203 13.7132 7.13203H8.75615C8.5124 7.13203 8.33427 6.83906 8.39521 6.53672L8.61786 4.04297C8.66005 3.83203 8.80771 3.68438 8.9788 3.68438H13.7718C13.9897 3.68438 14.1608 3.92109 14.1444 4.19766Z" fill="#37474F"/>
<path d="M19.6899 10.2867C19.4204 9.68435 18.9587 9.45701 18.4735 9.57654C17.9883 9.69607 17.7376 10.1742 17.8102 10.6687C17.9063 11.3414 18.5274 12.0047 19.3149 11.6344C19.8258 11.3953 19.9571 10.882 19.6899 10.2867Z" fill="#01579B"/>
<path d="M18.6867 11.1867C19.0919 11.1867 19.4203 10.8583 19.4203 10.4531C19.4203 10.048 19.0919 9.71951 18.6867 9.71951C18.2816 9.71951 17.9531 10.048 17.9531 10.4531C17.9531 10.8583 18.2816 11.1867 18.6867 11.1867Z" fill="#F44336"/>
<path d="M10.3104 10.2867C10.5799 9.68435 11.0416 9.45701 11.5268 9.57654C12.012 9.69607 12.2627 10.1742 12.1901 10.6687C12.094 11.3414 11.4729 12.0047 10.6854 11.6344C10.1745 11.3953 10.0432 10.882 10.3104 10.2867Z" fill="#01579B"/>
<path d="M11.3137 11.1867C11.7188 11.1867 12.0473 10.8583 12.0473 10.4531C12.0473 10.048 11.7188 9.71951 11.3137 9.71951C10.9085 9.71951 10.5801 10.048 10.5801 10.4531C10.5801 10.8583 10.9085 11.1867 11.3137 11.1867Z" fill="#F44336"/>
<path d="M14.8899 14.2336L6.054 12.5555L5.89697 18.0469V19.357C5.89697 19.5656 6.05869 19.7367 6.26494 19.7484C7.00791 19.793 9.13604 19.8726 14.8548 19.8726H14.8876C14.8876 19.8726 15.3915 18.8508 15.3915 17.1304C15.3915 15.4101 14.8899 14.2336 14.8899 14.2336Z" fill="#E0E0E0"/>
<path d="M14.8899 14.2336L23.7258 12.5555L23.8805 18.0469V19.357C23.8805 19.5656 23.7188 19.7367 23.5125 19.7484C22.7696 19.793 20.6415 19.8726 14.9227 19.8726H14.8899V14.2336Z" fill="#BDBDBD"/>
<path opacity="0.2" d="M5.89697 19.357C5.89697 19.5656 6.05869 19.7367 6.26494 19.7484C7.00791 19.793 9.13604 19.8727 14.8548 19.8727H14.9204C20.6392 19.8727 22.7673 19.793 23.5103 19.7484C23.7165 19.7367 23.8782 19.5656 23.8782 19.357V18.0586H5.89697V19.357Z" fill="#424242"/>
<path d="M7.42999 21.0352C7.35357 21.0276 7.27641 21.0362 7.20352 21.0604C7.13063 21.0845 7.06362 21.1237 7.00684 21.1754C6.95006 21.2271 6.90477 21.2902 6.8739 21.3605C6.84303 21.4308 6.82727 21.5068 6.82764 21.5836C6.82764 22.3148 6.83936 23.1117 7.34561 23.2688C7.90342 23.4422 11.0323 23.6156 12.5183 23.6625C12.8417 23.6719 13.1019 23.4023 13.0831 23.0813L13.0128 21.8859C13.0046 21.748 12.9449 21.6182 12.8455 21.5223C12.746 21.4263 12.6142 21.3713 12.4761 21.368C10.6315 21.3375 8.46592 21.1406 7.42999 21.0352Z" fill="#94D1E0"/>
<path d="M20.1003 16.9008C20.8614 16.9008 21.4784 16.2838 21.4784 15.5227C21.4784 14.7615 20.8614 14.1445 20.1003 14.1445C19.3392 14.1445 18.7222 14.7615 18.7222 15.5227C18.7222 16.2838 19.3392 16.9008 20.1003 16.9008Z" fill="#757575"/>
<path d="M20.0997 16.6734C20.6588 16.6734 21.1122 16.2201 21.1122 15.6609C21.1122 15.1017 20.6588 14.6484 20.0997 14.6484C19.5405 14.6484 19.0872 15.1017 19.0872 15.6609C19.0872 16.2201 19.5405 16.6734 20.0997 16.6734Z" fill="#FFFDE7"/>
<path d="M9.89961 16.9008C10.6607 16.9008 11.2777 16.2838 11.2777 15.5227C11.2777 14.7615 10.6607 14.1445 9.89961 14.1445C9.13849 14.1445 8.52148 14.7615 8.52148 15.5227C8.52148 16.2838 9.13849 16.9008 9.89961 16.9008Z" fill="#9E9E9E"/>
<path d="M9.89995 16.6734C10.4591 16.6734 10.9125 16.2201 10.9125 15.6609C10.9125 15.1017 10.4591 14.6484 9.89995 14.6484C9.34076 14.6484 8.88745 15.1017 8.88745 15.6609C8.88745 16.2201 9.34076 16.6734 9.89995 16.6734Z" fill="#FFFDE7"/>
<path d="M13.4882 7.12967H11.7703L9.5437 3.68436H11.264L13.4882 7.12967ZM20.4562 7.12967H18.7359L16.5117 3.68436H18.2296L20.4562 7.12967Z" fill="white"/>
</svg>
