<svg width="35" height="36" viewBox="0 0 35 36" fill="none" xmlns="http://www.w3.org/2000/svg">
<path d="M18.9566 17.5479C19.2432 17.8345 19.2432 18.2962 18.9566 18.5827L17.0383 20.5011L14.5229 17.9857L16.4413 16.0674C16.7278 15.7808 17.1895 15.7808 17.4761 16.0674L18.9566 17.5479Z" fill="#FF8596"/>
<path d="M34.6297 11.4029L31.8677 16.1549L25.6987 18.8374L16.1787 9.32535L18.8692 3.15643L23.6212 0.394348L24.8789 1.65201L21.4163 5.11456C21.0263 5.5046 20.9467 6.06179 21.2332 6.35631L28.6678 13.7908C28.9623 14.0774 29.5195 13.9978 29.9095 13.6078L33.3721 10.1373L34.6297 11.4029Z" fill="#7981E3"/>
<path d="M23.5413 21.0025L17.5395 27.0043L16.8311 26.2958C16.4411 25.9058 16.4411 25.2611 16.8311 24.871L21.408 20.2941C21.7981 19.904 22.4428 19.904 22.8329 20.2941L23.5413 21.0025Z" fill="#7981E3"/>
<path d="M17.0382 20.501L15.1199 22.4194C14.8333 22.7059 14.3717 22.7059 14.0851 22.4194L12.6046 20.9388C12.318 20.6523 12.318 20.1906 12.6046 19.9041L14.5229 17.9857L17.0382 20.501Z" fill="#E3F5FF"/>
<path d="M14.7375 12.1909C15.1276 12.5809 15.1276 13.2257 14.7375 13.6157L10.1606 18.1927C9.77056 18.5827 9.12581 18.5827 8.73577 18.1927L8.02734 17.4842L14.0291 11.4825L14.7375 12.1909Z" fill="#7981E3"/>
<path d="M12.5807 26.3595L10.4395 30.0609L11.2912 33.2448L10.8773 33.6588C9.58779 34.9483 7.47046 34.9483 6.18096 33.6588L1.35726 28.8351C0.067761 27.5456 0.067761 25.4282 1.35726 24.1387L1.77118 23.7248L4.95514 24.5765L8.65649 22.4353L12.5807 26.3595Z" fill="#7981E3"/>
<path d="M25.6988 18.8454L23.5416 21.0025L22.8332 20.2941C22.4432 19.904 21.7984 19.904 21.4084 20.2941L16.8315 24.871C16.4414 25.261 16.4414 25.9058 16.8315 26.2958L17.5399 27.0042L11.2993 33.2448L10.4476 30.0608L12.5888 26.3595L8.6646 22.4432L4.96325 24.5844L1.7793 23.7327L8.01985 17.4922L8.72828 18.2006C9.11832 18.5906 9.76307 18.5906 10.1531 18.2006L14.73 13.6237C15.1201 13.2336 15.1201 12.5889 14.73 12.1988L14.0216 11.4904L16.1787 9.33328L25.6988 18.8454ZM18.9567 18.5827C19.2433 18.2961 19.2433 17.8344 18.9567 17.5479L17.4762 16.0674C17.1896 15.7808 16.728 15.7808 16.4414 16.0674L14.5231 17.9857L12.6048 19.904C12.3182 20.1906 12.3182 20.6523 12.6048 20.9388L14.0853 22.4193C14.3718 22.7059 14.8335 22.7059 15.1201 22.4193L17.0384 20.501L18.9567 18.5827Z" fill="#B2B6ED"/>
<path d="M8.53698 35.0278C7.5818 35.0278 6.63457 34.6617 5.91022 33.9453L1.08653 29.1216C-0.362175 27.6729 -0.362175 25.3168 1.08653 23.8681L15.8999 9.0547C16.0591 8.8955 16.3058 8.8955 16.465 9.0547L25.9851 18.5747C26.1443 18.7339 26.1443 18.9807 25.9851 19.1399L11.1637 33.9373C10.4394 34.6617 9.49217 35.0278 8.53698 35.0278ZM16.1785 9.89049L1.65168 24.4173C0.513413 25.5556 0.513413 27.4102 1.65168 28.5485L6.47537 33.3722C7.61364 34.5104 9.46829 34.5104 10.6066 33.3722L25.1413 18.8374L16.1785 9.89049Z" fill="black"/>
<path d="M11.2989 33.6428C11.1238 33.6428 10.9646 33.5234 10.9168 33.3483L10.0651 30.1643C10.0412 30.0608 10.0492 29.9574 10.1049 29.8618L12.0869 26.4232L8.60051 22.9367L5.16183 24.9188C5.07428 24.9745 4.96284 24.9824 4.85936 24.9586L1.6754 24.1068C1.46048 24.0511 1.33313 23.8282 1.39681 23.6213C1.45252 23.4064 1.6754 23.279 1.88236 23.3427L4.90712 24.1546L8.46519 22.1009C8.62439 22.0134 8.81543 22.0373 8.94278 22.1646L12.867 26.0889C12.9944 26.2162 13.0182 26.4152 12.9307 26.5664L10.877 30.1245L11.6889 33.1493C11.7447 33.3642 11.6173 33.5791 11.4104 33.6348C11.3626 33.6348 11.3308 33.6428 11.2989 33.6428Z" fill="black"/>
<path d="M25.6981 19.2434C25.5468 19.2434 25.3956 19.1558 25.3319 19.0046C25.2444 18.8056 25.3399 18.5668 25.5389 18.4792L31.5884 15.8445L34.1356 11.4666L33.3714 10.7024L30.1875 13.8864C29.6382 14.4356 28.8343 14.5152 28.3885 14.0694L20.954 6.63491C20.5082 6.18915 20.5878 5.37724 21.1371 4.83597L24.321 1.65201L23.5569 0.887864L19.1789 3.43503L16.5442 9.48455C16.4566 9.68355 16.2258 9.77907 16.0188 9.69151C15.8198 9.60395 15.7243 9.37311 15.8119 9.16615L18.4944 2.99724C18.5262 2.91764 18.5819 2.85396 18.6615 2.81416L23.4136 0.052075C23.5728 -0.0354838 23.7638 -0.0116041 23.8912 0.115754L25.1488 1.37342C25.2205 1.44506 25.2682 1.54853 25.2682 1.65201C25.2682 1.75549 25.2284 1.85897 25.1488 1.93061L21.6783 5.39316C21.4395 5.63196 21.3838 5.95832 21.4953 6.06975L28.9298 13.5043C29.0412 13.6157 29.3676 13.568 29.6064 13.3212L33.0689 9.85866C33.1406 9.78702 33.2441 9.73927 33.3475 9.73927C33.451 9.73927 33.5545 9.77906 33.6261 9.85866L34.8838 11.1163C35.0112 11.2437 35.035 11.4427 34.9475 11.5939L32.1854 16.346C32.1456 16.4176 32.0739 16.4733 32.0023 16.5131L25.8334 19.1956C25.8095 19.2275 25.7538 19.2434 25.6981 19.2434Z" fill="black"/>
<path d="M27.983 13.5043C27.8795 13.5043 27.776 13.4645 27.7044 13.3849C27.5452 13.2257 27.5452 12.9789 27.7044 12.8197C29.0973 11.4267 30.4903 10.0337 31.8833 8.64076C32.0425 8.48156 32.2893 8.48156 32.4485 8.64076C32.6077 8.79996 32.6077 9.04672 32.4485 9.20591C31.0555 10.5989 29.6625 11.9919 28.2695 13.3849C28.1899 13.4645 28.0864 13.5043 27.983 13.5043Z" fill="black"/>
<path d="M26.773 12.2944C26.6695 12.2944 26.566 12.2546 26.4944 12.175C26.3352 12.0158 26.3352 11.769 26.4944 11.6098L30.6733 7.43089C30.8325 7.27169 31.0793 7.27169 31.2385 7.43089C31.3977 7.59009 31.3977 7.83685 31.2385 7.99604L27.0516 12.175C26.972 12.2546 26.8685 12.2944 26.773 12.2944Z" fill="black"/>
<path d="M25.5557 11.0765C25.4522 11.0765 25.3488 11.0367 25.2771 10.9571C25.1179 10.7979 25.1179 10.5512 25.2771 10.392L29.4561 6.22099C29.6153 6.06179 29.862 6.06179 30.0212 6.22099C30.1804 6.38019 30.1804 6.62695 30.0212 6.78614L25.8423 10.9651C25.7627 11.0367 25.6592 11.0765 25.5557 11.0765Z" fill="black"/>
<path d="M24.3453 9.86663C24.2418 9.86663 24.1383 9.82683 24.0667 9.74723C23.9075 9.58803 23.9075 9.34127 24.0667 9.18208L28.2376 5.01109C28.3968 4.85189 28.6436 4.85189 28.8028 5.01109C28.962 5.17029 28.962 5.41705 28.8028 5.57624L24.6239 9.75519C24.5443 9.82683 24.4487 9.86663 24.3453 9.86663Z" fill="black"/>
<path d="M23.1275 8.64877C23.024 8.64877 22.9205 8.60897 22.8489 8.52937C22.6897 8.37018 22.6897 8.12342 22.8489 7.96422L27.0278 3.78528C27.187 3.62608 27.4338 3.62608 27.593 3.78528C27.7522 3.94447 27.7522 4.19123 27.593 4.35043L23.414 8.52937C23.3344 8.60897 23.231 8.64877 23.1275 8.64877Z" fill="black"/>
<path d="M21.918 7.43885C21.8145 7.43885 21.7111 7.39905 21.6394 7.31945C21.4802 7.16025 21.4802 6.91349 21.6394 6.7543L21.8464 6.54734C23.1677 5.226 24.4891 3.90465 25.8104 2.58331C25.9696 2.42411 26.2164 2.42411 26.3756 2.58331C26.5348 2.74251 26.5348 2.98927 26.3756 3.14846C25.0542 4.46981 23.7329 5.79115 22.4115 7.11249L22.2046 7.31945C22.125 7.39905 22.0215 7.43885 21.918 7.43885Z" fill="black"/>
<path d="M5.16997 28.4928C5.06649 28.4928 4.96301 28.453 4.89137 28.3734C4.73217 28.2142 4.73217 27.9674 4.89137 27.8082L7.19178 25.4998C7.35098 25.3406 7.59773 25.3406 7.75693 25.4998C7.91613 25.659 7.91613 25.9058 7.75693 26.065L5.45652 28.3734C5.37692 28.4609 5.27345 28.4928 5.16997 28.4928Z" fill="black"/>
<path d="M6.92876 30.2519C6.82528 30.2519 6.7218 30.2121 6.65016 30.1325C6.49096 29.9733 6.49096 29.7266 6.65016 29.5674L8.95853 27.259C9.11773 27.0998 9.36448 27.0998 9.52368 27.259C9.68288 27.4182 9.68288 27.6649 9.52368 27.8241L7.22327 30.1325C7.12775 30.2121 7.02428 30.2519 6.92876 30.2519Z" fill="black"/>
<path d="M14.6024 23.0243C14.3159 23.0243 14.0214 22.9129 13.8064 22.6979L12.3259 21.2174C11.8881 20.7796 11.8881 20.0632 12.3259 19.6254L16.1626 15.7888C16.3775 15.5738 16.6561 15.4624 16.9586 15.4624C17.261 15.4624 17.5396 15.5818 17.7546 15.7888L19.2351 17.2693C19.45 17.4842 19.5614 17.7628 19.5614 18.0653C19.5614 18.3678 19.442 18.6543 19.2351 18.8613L15.3984 22.6979C15.1835 22.9129 14.889 23.0243 14.6024 23.0243ZM16.9586 16.2504C16.871 16.2504 16.7834 16.2823 16.7277 16.3459L14.8094 18.2643L12.8911 20.1826C12.7637 20.31 12.7637 20.5249 12.8911 20.6523L14.3716 22.1328C14.499 22.2602 14.7139 22.2602 14.8412 22.1328L18.6779 18.2961C18.7416 18.2324 18.7734 18.1528 18.7734 18.0573C18.7734 17.9698 18.7416 17.8822 18.6779 17.8265L17.1974 16.3539C17.1337 16.2902 17.0461 16.2504 16.9586 16.2504Z" fill="black"/>
<path d="M17.0382 20.8991C16.9347 20.8991 16.8312 20.8593 16.7596 20.7797L14.2522 18.2723C14.093 18.1131 14.093 17.8663 14.2522 17.7071C14.4114 17.5479 14.6582 17.5479 14.8174 17.7071L17.3247 20.2145C17.4839 20.3737 17.4839 20.6205 17.3247 20.7797C17.2372 20.8593 17.1417 20.8991 17.0382 20.8991Z" fill="black"/>
<path d="M9.44436 18.8852C9.08617 18.8852 8.72797 18.7498 8.44937 18.4792L7.74094 17.7708C7.58175 17.6116 7.58971 17.3648 7.74094 17.2056C7.90014 17.0464 8.1469 17.0544 8.3061 17.2056L9.01453 17.9141C9.25332 18.1529 9.6354 18.1529 9.8742 17.9141L14.4511 13.3371C14.5626 13.2257 14.6263 13.0665 14.6263 12.9073C14.6263 12.7481 14.5626 12.5889 14.4511 12.4774L13.7427 11.769C13.5835 11.6098 13.5915 11.3631 13.7427 11.2039C13.9019 11.0447 14.1487 11.0526 14.3079 11.2039L15.0163 11.9123C15.279 12.175 15.4302 12.5252 15.4302 12.9073C15.4302 13.2814 15.2869 13.6396 15.0163 13.9023L10.4393 18.4792C10.1608 18.7498 9.80256 18.8852 9.44436 18.8852Z" fill="black"/>
<path d="M17.5401 27.4023C17.4366 27.4023 17.3331 27.3625 17.2615 27.2829L16.5531 26.5745C16.2904 26.3118 16.1392 25.9536 16.1392 25.5795C16.1392 25.2054 16.2824 24.8472 16.5531 24.5845L21.13 20.0075C21.3927 19.7449 21.7429 19.5936 22.125 19.5936C22.4991 19.5936 22.8573 19.7369 23.12 20.0075L23.8284 20.716C23.9876 20.8752 23.9876 21.1219 23.8284 21.2811C23.6692 21.4403 23.4225 21.4403 23.2633 21.2811L22.5548 20.5727C22.4434 20.4613 22.2842 20.3976 22.125 20.3976C21.9658 20.3976 21.8066 20.4613 21.6952 20.5727L17.1103 25.1496C16.8715 25.3884 16.8715 25.7705 17.1103 26.0093L17.8187 26.7177C17.9779 26.8769 17.9779 27.1237 17.8187 27.2829C17.7471 27.3625 17.6436 27.4023 17.5401 27.4023Z" fill="black"/>
<path d="M26.1128 15.6375C26.0093 15.6375 25.9059 15.5977 25.8342 15.5181L19.5061 9.19001C19.3469 9.03082 19.3469 8.78406 19.5061 8.62486C19.6653 8.46566 19.9121 8.46566 20.0713 8.62486L26.3994 14.953C26.5586 15.1122 26.5586 15.3589 26.3994 15.5181C26.3118 15.5977 26.2163 15.6375 26.1128 15.6375Z" fill="black"/>
</svg>
