<svg width="168" height="137" viewBox="0 0 168 137" fill="none" xmlns="http://www.w3.org/2000/svg">
<path fill-rule="evenodd" clip-rule="evenodd" d="M133.667 -44.4787C134.15 -50.1391 129.685 -55 124.004 -55C118.323 -55 113.859 -50.1394 114.341 -44.4791L124.001 68.9969L124 69L124 68.9999L75.6317 -34.1118C73.2188 -39.2556 66.921 -41.233 62.0009 -38.3915C57.082 -35.5507 55.6466 -29.1096 58.8937 -24.449L124 68.9999L30.5605 3.88683C25.8984 0.638096 19.4549 2.07421 16.6137 6.99522C13.7726 11.916 15.7503 18.2141 20.8944 20.6275L124 69L10.5213 59.3343C4.86091 58.8522 0 63.3166 0 68.9976C0 74.6783 4.86062 79.1427 10.5209 78.6609L124 69.0001L124 69.0001L124.001 69.0001L124 69.0006L124.001 69.0001L124.002 69.0002L237.479 78.6658C243.139 79.148 248 74.6835 248 69.0026C248 63.3218 243.14 58.8574 237.479 59.3393L124.002 68.9999L227.112 20.6324C232.256 18.2195 234.233 11.9217 231.391 7.00162C228.551 2.08273 222.11 0.647278 217.449 3.89439L124.002 68.9994L124.002 68.9972L189.111 -24.4433C192.358 -29.104 190.923 -35.5454 186.004 -38.3863C181.084 -41.2277 174.786 -39.2506 172.373 -34.1071L124.002 68.9956L133.667 -44.4787ZM124.001 68.9978L124.002 68.9994L124.001 69L124 69.0001L124 69L124.001 68.9978ZM124 69.0007L124 69.0009L124 69.0004L123.999 69.0012L20.8891 117.369C15.7453 119.781 13.768 126.079 16.6095 130.999C19.4503 135.918 25.8913 137.354 30.552 134.107L123.999 69.0019L58.886 162.441C55.6372 167.103 57.0734 173.546 61.9944 176.387C66.9152 179.229 73.2133 177.251 75.6266 172.107L123.999 69.0016L124 69.0012L114.334 182.479C113.852 188.14 118.316 193.001 123.997 193.001C129.678 193.001 134.142 188.14 133.66 182.48L124 69.0011L124 69.0007ZM124 69.0007L217.443 134.111C222.104 137.359 228.545 135.923 231.386 131.004C234.228 126.084 232.251 119.787 227.107 117.374L124 69.0007ZM124 69.0007L189.106 162.449C192.353 167.11 190.918 173.551 185.999 176.392C181.079 179.233 174.781 177.256 172.368 172.112L124 69.0007ZM124 69.0004L124 69.001L123.999 69.0011L124 69.0004Z" fill="url(#paint0_radial_38_509)"/>
<defs>
<radialGradient id="paint0_radial_38_509" cx="0" cy="0" r="1" gradientUnits="userSpaceOnUse" gradientTransform="translate(124.693 68.3069) rotate(90) scale(94.3027 94.3025)">
<stop stop-color="white" stop-opacity="0"/>
<stop offset="0.438021" stop-color="white"/>
<stop offset="1" stop-color="white" stop-opacity="0"/>
</radialGradient>
</defs>
</svg>
