<svg width="360" height="344" viewBox="0 0 360 344" fill="none" xmlns="http://www.w3.org/2000/svg">
<path opacity="0.7" d="M333.849 68.7188C331.342 64.804 328.572 61.0041 325.504 57.337C300.807 27.8266 268.517 15.3436 231.626 6.97713C193.525 -1.66448 148.915 -4.38311 112.337 11.2397C103.727 14.9172 95.5641 19.8428 89.0674 26.5155C64.5978 51.6484 56.2083 93.7648 28.9414 127.05C1.67461 160.335 -11.6081 201.771 12.8614 241.17C23.2171 257.844 36.4204 271.599 52.044 283.667C71.2808 298.526 87.8729 318.568 110.103 330.168C133.468 342.361 164.586 346.608 190.442 341.025C219.942 334.655 237.245 309.328 259.764 292.053C277.517 278.436 298.754 269.523 316.15 255.477C342.803 233.959 363.009 199.371 359.631 165.089C356.354 131.834 352.11 97.2377 333.849 68.7188Z" fill="#F9DDFF"/>
</svg>
