<svg width="18" height="14" viewBox="0 0 18 14" fill="none" xmlns="http://www.w3.org/2000/svg">
<path fill-rule="evenodd" clip-rule="evenodd" d="M0.819773 1.1489C0.889205 0.981434 1.00673 0.83832 1.1575 0.737648C1.30826 0.636976 1.48549 0.583267 1.66677 0.583313H10.8334C11.6761 0.583313 12.5105 0.749285 13.289 1.07175C14.0675 1.39422 14.7749 1.86687 15.3707 2.46271C15.9666 3.05855 16.4392 3.76592 16.7617 4.54443C17.0841 5.32293 17.2501 6.15733 17.2501 6.99998C17.2501 7.84263 17.0841 8.67703 16.7617 9.45553C16.4392 10.234 15.9666 10.9414 15.3707 11.5372C14.7749 12.1331 14.0675 12.6057 13.289 12.9282C12.5105 13.2507 11.6761 13.4166 10.8334 13.4166H2.58344C2.34032 13.4166 2.10717 13.3201 1.93526 13.1482C1.76335 12.9763 1.66677 12.7431 1.66677 12.5C1.66677 12.2569 1.76335 12.0237 1.93526 11.8518C2.10717 11.6799 2.34032 11.5833 2.58344 11.5833H10.8334C12.049 11.5833 13.2148 11.1004 14.0743 10.2409C14.9339 9.38134 15.4168 8.21555 15.4168 6.99998C15.4168 5.7844 14.9339 4.61862 14.0743 3.75907C13.2148 2.89953 12.049 2.41665 10.8334 2.41665H3.87961L5.52319 4.06023C5.69017 4.23311 5.78256 4.46467 5.78047 4.70501C5.77839 4.94536 5.68198 5.17527 5.51202 5.34523C5.34207 5.51519 5.11215 5.61159 4.87181 5.61368C4.63146 5.61577 4.39991 5.52337 4.22702 5.3564L1.01869 2.14806C0.890418 2.01987 0.803051 1.85651 0.767643 1.67866C0.732235 1.5008 0.750377 1.31644 0.819773 1.1489Z" fill="black"/>
</svg>
