<svg width="27" height="27" viewBox="0 0 27 27" fill="none" xmlns="http://www.w3.org/2000/svg">
<path d="M17.5257 17.9643C16.9742 18.5159 16.3194 18.9534 15.5988 19.2519C14.8782 19.5504 14.1058 19.704 13.3258 19.704C12.5458 19.704 11.7735 19.5504 11.0529 19.2519C10.3322 18.9534 9.67747 18.5159 9.12593 17.9643M25.2049 13.7644C25.2049 15.3244 24.8976 16.8691 24.3007 18.3104C23.7037 19.7516 22.8287 21.0611 21.7256 22.1642C20.6225 23.2673 19.313 24.1423 17.8718 24.7393C16.4305 25.3362 14.8858 25.6435 13.3258 25.6435C11.7659 25.6435 10.2212 25.3362 8.77992 24.7393C7.33868 24.1423 6.02915 23.2673 4.92607 22.1642C3.823 21.0611 2.948 19.7516 2.35102 18.3104C1.75404 16.8691 1.44678 15.3244 1.44678 13.7644C1.44678 10.6139 2.69832 7.59243 4.92607 5.36467C7.15383 3.13692 10.1753 1.88538 13.3258 1.88538C16.4764 1.88538 19.4978 3.13692 21.7256 5.36467C23.9534 7.59243 25.2049 10.6139 25.2049 13.7644ZM10.3561 10.7947C10.3561 11.3411 10.1343 11.7846 9.86111 11.7846C9.58789 11.7846 9.36615 11.3411 9.36615 10.7947C9.36615 10.2482 9.58789 9.80475 9.86111 9.80475C10.1343 9.80475 10.3561 10.2482 10.3561 10.7947ZM9.86111 10.7947H9.87167V10.8145H9.86111V10.7947ZM17.2855 10.7947C17.2855 11.3411 17.0638 11.7846 16.7906 11.7846C16.5173 11.7846 16.2956 11.3411 16.2956 10.7947C16.2956 10.2482 16.5173 9.80475 16.7906 9.80475C17.0638 9.80475 17.2855 10.2482 17.2855 10.7947ZM16.7906 10.7947H16.8011V10.8145H16.7906V10.7947Z" stroke="black" stroke-width="1.97984" stroke-linecap="round" stroke-linejoin="round"/>
</svg>
