<svg width="361" height="344" viewBox="0 0 361 344" fill="none" xmlns="http://www.w3.org/2000/svg">
<path opacity="0.7" d="M334.399 68.6581C331.889 64.7468 329.113 60.9503 326.04 57.2864C301.302 27.8021 268.959 15.3301 232.007 6.97098C193.844 -1.66301 149.16 -4.37924 112.522 11.2298C103.898 14.9041 95.7215 19.8253 89.2141 26.4921C64.7043 51.6028 56.3009 93.6821 28.9891 126.938C1.67737 160.193 -11.6272 201.593 12.8826 240.957C23.2554 257.616 36.4805 271.359 52.1298 283.416C71.3982 298.262 88.0177 318.287 110.285 329.877C133.688 342.058 164.857 346.302 190.756 340.724C220.304 334.359 237.636 309.055 260.192 291.796C277.974 278.19 299.246 269.285 316.671 255.252C343.367 233.752 363.607 199.195 360.223 164.943C356.941 131.717 352.691 97.1518 334.399 68.6581Z" fill="#F9DDFF"/>
</svg>
