<svg width="360" height="343" viewBox="0 0 360 343" fill="none" xmlns="http://www.w3.org/2000/svg">
<path opacity="0.7" d="M333.849 68.5936C331.342 64.6886 328.572 60.8984 325.504 57.2406C300.807 27.8047 268.517 15.3533 231.626 7.00789C193.525 -1.61189 148.915 -4.32365 112.337 11.2597C103.727 14.9279 95.5641 19.841 89.0674 26.4969C64.5978 51.5663 56.2083 93.5764 28.9414 126.777C1.67461 159.978 -11.6081 201.31 12.8614 240.609C23.2171 257.241 36.4204 270.961 52.044 282.999C71.2808 297.82 87.8729 317.811 110.103 329.383C133.468 341.544 164.586 345.781 190.442 340.212C219.942 333.858 237.245 308.595 259.764 291.364C277.517 277.781 298.754 268.89 316.15 254.88C342.803 233.416 363.009 198.916 359.631 164.72C356.354 131.549 352.11 97.0404 333.849 68.5936Z" fill="#F9DDFF"/>
</svg>
