<svg width="16" height="21" viewBox="0 0 16 21" fill="none" xmlns="http://www.w3.org/2000/svg">
<path d="M10 0.5H2C1.46957 0.5 0.960859 0.710714 0.585786 1.08579C0.210714 1.46086 0 1.96957 0 2.5V18.5C0 19.0304 0.210714 19.5391 0.585786 19.9142C0.960859 20.2893 1.46957 20.5 2 20.5H14C14.5304 20.5 15.0391 20.2893 15.4142 19.9142C15.7893 19.5391 16 19.0304 16 18.5V6.5L10 0.5ZM9 11.5H7V16.5C7 17.0304 6.78929 17.5391 6.41421 17.9142C6.03914 18.2893 5.53043 18.5 5 18.5C4.46957 18.5 3.96086 18.2893 3.58579 17.9142C3.21071 17.5391 3 17.0304 3 16.5C3 15.9696 3.21071 15.4609 3.58579 15.0858C3.96086 14.7107 4.46957 14.5 5 14.5C5.4 14.5 5.7 14.6 6 14.8V9.5H9V11.5ZM9 7.5V2L14.5 7.5H9Z" fill="#181820"/>
</svg>
