<svg width="34" height="34" viewBox="0 0 34 34" fill="none" xmlns="http://www.w3.org/2000/svg">
<path d="M26.7485 18.9869C26.2943 18.8727 25.6249 20.2141 23.1944 20.137C20.764 20.06 16.0385 18.4237 12.511 21.4412C9.1349 24.3286 10.9013 27.8056 10.1841 28.1137C9.46959 28.4192 8.52396 28.1137 8.16537 27.8587C7.80677 27.6037 7.09224 27.1681 6.96474 27.1681C6.83724 27.1681 6.06959 27.6781 6.12006 28.3953C6.17052 29.1098 6.68318 29.3675 6.83459 29.418C6.98865 29.4684 7.95818 29.0859 8.93037 29.2905C9.90255 29.495 10.4391 29.7766 10.6171 29.9545C10.7951 30.1325 13.0954 33.0225 16.9044 32.895C20.7135 32.7675 24.0869 30.5681 25.8241 26.2491C27.4285 22.2673 27.1576 19.0878 26.7485 18.9869Z" fill="#8BC12D"/>
<path d="M20.3123 23.9621C18.6123 24.5092 16.6201 24.7855 15.207 25.5399C13.7992 26.2916 12.0965 27.6781 12.827 28.3714C13.5627 29.07 14.7607 26.945 17.4037 26.1003C20.0493 25.2556 21.1384 24.8439 22.076 24.225C23.0137 23.6061 23.9327 22.3125 23.6698 22.1611C23.3723 21.9885 22.5276 23.2475 20.3123 23.9621Z" fill="#599724"/>
<path d="M24.3155 10.7472C24.2995 10.7392 23.9728 10.4284 23.3752 10.0937C22.658 9.68999 21.6698 9.31014 20.363 9.07374C18.5541 8.74702 16.2192 8.66733 14.1155 10.4895C12.0091 12.3117 12.0941 15.037 13.0689 16.7583C13.7569 17.9722 15.0398 19.2684 14.8327 19.4544C14.5272 19.7306 12.9308 19.0506 11.7753 17.5976C10.5986 16.1208 9.2386 12.6065 11.9931 9.51999C14.3572 6.86905 18.1078 6.77874 20.3364 7.16124C23.6647 7.73233 25.5586 9.49874 25.5586 9.49874C25.5586 9.49874 24.3208 10.7498 24.3155 10.7472Z" fill="#B1E4FE"/>
<path d="M25.3405 9.30749C26.9104 10.3142 28.1827 12.0328 27.6807 14.025C26.9768 16.8247 20.4636 15.81 18.7424 15.3531C17.0211 14.8962 9.67926 13.0103 9.57567 6.95406C9.46942 0.897806 18.2324 0.579056 18.0969 1.18734C17.9721 1.74781 13.2625 1.91249 12.5799 4.92202C11.8972 7.93156 14.5721 9.54656 16.5005 10.6462C18.4289 11.7459 22.1822 12.4923 23.6564 12.5348C24.4852 12.5587 24.9527 12.3383 25.0005 11.9505C25.0377 11.6476 24.9129 11.3103 24.3046 10.7392L25.3405 9.30749Z" fill="url(#paint0_radial_57_952)"/>
<path d="M24.3153 10.2584L23.1758 8.02983C23.1758 8.02983 23.8292 8.27421 24.9634 8.98608C25.4841 9.3128 25.9542 9.74842 25.9542 9.74842L24.3153 10.2584Z" fill="#B1E4FE"/>
<defs>
<radialGradient id="paint0_radial_57_952" cx="0" cy="0" r="1" gradientUnits="userSpaceOnUse" gradientTransform="translate(8.88159 7.34506) scale(16.1532 16.1532)">
<stop offset="0.367" stop-color="#D9F3FB"/>
<stop offset="0.558" stop-color="#D4F1FB"/>
<stop offset="0.781" stop-color="#C6ECFC"/>
<stop offset="1" stop-color="#B1E4FE"/>
</radialGradient>
</defs>
</svg>
