<svg width="29" height="33" viewBox="0 0 29 33" fill="none" xmlns="http://www.w3.org/2000/svg">
<path d="M18.0146 14.4218L21.1997 11.9312L20.3919 26.9887L13.4104 22.196L18.0146 14.4218Z" fill="#49272E"/>
<path d="M10.9304 14.4218L7.74512 11.9312L8.5529 26.9887L15.5346 22.196L10.9304 14.4218Z" fill="#49272E"/>
<path d="M27.0643 27.0927C26.892 26.6416 26.5369 26.2847 26.0866 26.1099C25.4901 25.8785 24.8817 25.6731 24.269 25.4885C19.5287 24.0599 18.4692 22.6664 18.2783 22.1952C18.0207 21.56 17.3418 17.3882 17.3418 17.3882H15.1273H13.8721H11.6577C11.6577 17.3882 10.9786 21.56 10.7212 22.1952C10.53 22.6664 9.47074 24.0601 4.73047 25.4885C4.11782 25.6731 3.5094 25.8785 2.91289 26.1099C2.4628 26.2844 2.10749 26.6416 1.93513 27.0927L0 32.1589H13.8724H15.1276H29L27.0643 27.0927Z" fill="#E2C19F"/>
<path d="M15.2183 20.7194C16.0909 20.3731 16.9368 19.8721 17.6278 19.3733C17.4658 18.452 17.3419 17.6902 17.3419 17.6902H15.1275H13.8722H11.6578C11.6578 17.6902 11.5339 18.452 11.3718 19.3733C12.0629 19.8724 12.9088 20.3731 13.7814 20.7194C14.2408 20.9018 14.7586 20.9018 15.2183 20.7194Z" fill="#D59E81"/>
<path d="M18.5898 2.91689C16.2801 0.866854 12.7196 0.866854 10.4101 2.91689C8.5554 4.56291 7.08095 7.72785 8.60279 13.8023C8.60279 13.8023 9.31606 16.3527 9.93427 17.1409C10.4765 17.8322 12.0796 19.0943 13.781 19.7697C14.2406 19.9521 14.7585 19.9521 15.2184 19.7697C16.9197 19.0945 18.5228 17.8324 19.0651 17.1409C19.6833 16.3527 20.3965 13.8023 20.3965 13.8023C21.9187 7.72759 20.4445 4.56291 18.5898 2.91689Z" fill="#E2C19F"/>
<path d="M8.70741 13.493C8.70741 13.493 7.81093 13.2195 7.39367 12.269C6.9764 11.3185 5.92531 7.56024 8.18186 9.77788C8.18186 9.77788 8.08337 11.2544 8.70741 13.493Z" fill="#E2C19F"/>
<path d="M20.2917 13.493C20.2917 13.493 21.1882 13.2195 21.6055 12.269C22.0228 11.3185 23.0739 7.56024 20.8173 9.77788C20.8173 9.77788 20.9158 11.2544 20.2917 13.493Z" fill="#E2C19F"/>
<path d="M27.0583 27.0927C26.8854 26.6416 26.529 26.2847 26.0774 26.1099C25.479 25.8785 24.8682 25.6731 24.2537 25.4885C23.7239 25.3294 23.241 25.1708 22.7988 25.0135C20.7059 26.4954 17.7628 27.4194 14.4999 27.4194C11.237 27.4194 8.29393 26.4954 6.20099 25.0135C5.75885 25.1706 5.27592 25.3294 4.74614 25.4885C4.13163 25.6731 3.52083 25.8785 2.92247 26.1099C2.47079 26.2844 2.11442 26.6416 1.94153 27.0927L1.25342 28.8886C2.27539 29.9344 3.04505 31.058 3.62408 32.1592H13.919H14.452H14.5489H15.0819H25.3768C25.9556 31.058 26.7255 29.9344 27.7472 28.8886L27.0583 27.0927Z" fill="#E17676"/>
<path d="M14.4995 28.5264C18.4812 28.5264 21.9898 27.296 24.0539 25.4271C23.6022 25.2883 23.1839 25.1501 22.7984 25.0132C20.7055 26.4951 17.7624 27.4191 14.4995 27.4191C11.2366 27.4191 8.29349 26.4951 6.20056 25.0132C5.81507 25.1501 5.39648 25.2883 4.94507 25.4271C7.00914 27.2963 10.5177 28.5264 14.4995 28.5264Z" fill="#C95C5B"/>
<path d="M6.78248 17.3882C7.74488 22.498 7.74488 24.1584 6.78274 26.3927C8.85449 25.6302 10.1571 19.1848 9.53387 16.0069C7.91115 7.73078 8.18173 9.7779 11.3713 6.87428C14.4168 4.10171 14.4984 3.45887 14.4994 3.40645V0.00586344C14.4994 0.00586344 3.35171 -0.827869 6.78248 17.3882Z" fill="#5D353A"/>
<path d="M22.162 17.3882C21.1996 22.498 21.1996 24.1584 22.1618 26.3927C20.09 25.6302 18.7877 19.1848 19.4106 16.0069C21.0334 7.73078 20.7628 9.7779 17.5732 6.87428C14.5277 4.10171 14.4461 3.45887 14.4451 3.40645V0.00586344C14.4451 0.00586344 25.5931 -0.827869 22.162 17.3882Z" fill="#5D353A"/>
</svg>
