<svg width="33" height="33" viewBox="0 0 33 33" fill="none" xmlns="http://www.w3.org/2000/svg">
<path d="M29.9062 31.1953C29.9062 26.8898 23.1258 24.75 16.5258 24.75H16.5C9.92578 24.75 3.09375 26.632 3.09375 31.2211V31.9945H29.5195V31.9688H29.9062V31.1953Z" fill="url(#paint0_linear_41_995)"/>
<path d="M18.8461 23.2289H14.1539V25.8071C14.1539 26.9672 15.1078 27.9211 16.2937 27.9211H16.732C17.918 27.9211 18.8719 26.9672 18.8719 25.8071L18.8461 23.2289ZM23.5383 12.9938H9.46172C7.94063 12.9938 6.70312 14.3086 6.70312 15.9328C6.70312 17.5571 7.94063 18.8719 9.46172 18.8719H23.5641C25.0852 18.8719 26.3227 17.5571 26.3227 15.9328C26.2969 14.3344 25.0594 12.9938 23.5383 12.9938Z" fill="#709921"/>
<path d="M16.5 2.86169C12.0141 2.86169 7.86328 7.65701 7.86328 14.5664C7.86328 21.4242 12.143 24.8273 16.5 24.8273C20.857 24.8273 25.1367 21.4242 25.1367 14.5664C25.1367 7.65701 20.9859 2.86169 16.5 2.86169Z" fill="#82CC2B"/>
<path d="M26.4002 9.51331C26.2455 9.3844 26.065 9.22971 25.8588 9.12659C25.8072 8.84299 25.7814 8.58518 25.7041 8.30159C26.2713 7.7344 26.8127 7.14143 27.3025 6.4969C27.0189 6.85784 26.5033 7.06409 25.9361 7.06409C25.7557 7.06409 25.5494 7.03831 25.3432 6.98674H25.3174C24.8791 5.64612 24.183 4.33127 23.0744 3.30002C23.3838 3.1969 23.6932 3.09377 24.0025 2.96487C23.9252 2.99065 22.0947 2.50081 22.0432 2.47502C22.4041 2.06252 22.6619 1.5469 22.7393 1.00549C22.5072 1.5469 21.9143 1.83049 21.3729 2.03674C21.3471 2.03674 21.3213 2.06252 21.3213 2.06252C20.0838 1.44377 18.4854 1.05706 16.5002 1.03127C13.226 1.05706 11.0604 2.11409 9.64238 3.6094C9.59082 3.58362 8.3791 2.99065 7.88926 2.60393C8.04395 3.22268 8.1677 3.82338 8.86895 4.20237C7.37363 4.58909 6.93535 5.18206 6.67754 5.62034C7.21895 5.41409 7.78613 5.36252 8.35332 5.36252C7.70879 6.54846 7.34785 7.83752 7.16738 9.04924C6.49707 9.43596 6.00723 10.1321 5.85254 10.8797C6.1877 10.5961 6.6002 10.3641 7.0127 10.2352C6.83223 12.5813 7.16738 14.4375 7.16738 14.4375C7.16738 14.4375 7.99496 16.7063 8.02074 16.7063C7.96918 14.85 9.17832 11.5242 9.71973 10.1321C9.95176 9.5133 10.5447 9.12659 11.1893 9.12659C11.2924 9.12659 11.3697 9.12659 11.4729 9.15237C12.6072 9.35862 14.4377 9.61643 16.4744 9.61643H16.526C18.5369 9.61643 20.3674 9.35862 21.5275 9.15237C21.6307 9.12659 21.708 9.12659 21.8111 9.12659C22.4557 9.12659 23.0486 9.5133 23.2807 10.1321C23.8221 11.55 25.0389 14.85 24.9874 16.7063C25.0132 16.7063 25.833 14.4375 25.833 14.4375C25.833 14.4375 26.1424 12.7617 26.0135 10.5961C26.3229 10.6735 26.7096 10.8024 27.1479 11.086C27.1221 10.6477 27.0189 10.0547 26.4002 9.51331Z" fill="url(#paint1_radial_41_995)"/>
<path d="M20.2638 20.5477C20.1607 20.4446 20.0576 20.2899 20.0576 20.1352C20.0833 19.8774 20.3154 19.7227 20.5474 19.6196C20.9857 19.4133 21.424 19.1813 21.9138 19.1297C22.0943 19.1039 22.3005 19.1039 22.4552 19.2071C22.6357 19.336 22.7388 19.568 22.713 19.8C22.6872 20.0321 22.5841 20.2383 22.4294 20.393C21.8107 21.1407 20.9599 21.218 20.2638 20.5477ZM20.9857 21.6563C21.063 21.7336 21.0888 21.8625 21.063 21.9914C21.0372 22.1461 20.9083 22.2493 20.7794 22.3782C20.6763 22.4555 20.599 22.5328 20.4701 22.5844C20.3411 22.636 20.2122 22.5844 20.1349 22.4813C20.1091 22.4039 20.1091 22.3266 20.1091 22.275C20.0833 21.9141 20.1865 21.3985 20.6505 21.45C20.7794 21.4758 20.9083 21.5532 20.9857 21.6563ZM10.9568 20.0578C10.8536 20.0836 10.7247 20.0578 10.6216 19.9547C10.4927 19.8516 10.4669 19.6969 10.4154 19.5422C10.3896 19.4133 10.3638 19.2844 10.3896 19.1813C10.4154 19.0782 10.5185 18.9493 10.6474 18.9493C10.699 18.9493 10.7763 18.975 10.8279 19.0008C11.1372 19.1555 11.5755 19.4907 11.2919 19.8516C11.1888 19.9547 11.0857 20.0321 10.9568 20.0578ZM12.1685 10.4157C12.3747 10.3899 12.6326 10.4157 12.7872 10.5446C12.9935 10.725 12.9935 11.086 12.813 11.318C12.6583 11.55 12.3747 11.6789 12.1169 11.7563C11.9622 11.8078 11.7818 11.8594 11.6271 11.8078C11.3951 11.7563 11.2146 11.5758 11.1115 11.3696C10.7247 10.5703 11.4724 10.4672 12.1685 10.4157Z" fill="#709921"/>
<path d="M15.4946 18.3563C15.5204 18.3563 15.5462 18.3821 15.5719 18.3821H17.4024C17.4282 18.3821 17.454 18.3821 17.4798 18.3563C17.6344 18.2789 17.7376 18.1242 17.6602 17.9438C17.5829 17.7633 17.2219 17.2477 16.5001 17.2477C15.7782 17.2477 15.4173 17.7633 15.3399 17.9438C15.2626 18.0985 15.3399 18.2789 15.4946 18.3563Z" fill="#597718"/>
<path d="M19.207 21.3984C19.207 22.2234 17.9953 22.3781 16.5 22.3781C15.0047 22.3781 13.793 22.2234 13.793 21.3984C13.793 20.5734 15.0047 19.3875 16.5 19.3875C17.9953 19.3875 19.207 20.5734 19.207 21.3984Z" fill="#333333"/>
<path d="M16.4999 22.3781C17.4022 22.3781 18.2272 22.3266 18.7171 22.0945C18.6655 21.3469 17.6858 20.7539 16.4999 20.7539C15.314 20.7539 14.3343 21.3469 14.2827 22.0945C14.7726 22.3266 15.5976 22.3781 16.4999 22.3781Z" fill="#F05455"/>
<path d="M12.0915 17.8149C10.8282 17.8149 9.82275 16.6547 9.82275 15.211C9.82275 13.7672 10.854 12.6071 12.0915 12.6071C13.3548 12.6071 14.3603 13.7672 14.3603 15.211C14.3603 16.6547 13.3548 17.8149 12.0915 17.8149Z" fill="#4E6B17"/>
<path d="M12.0916 12.9679C13.1744 12.9679 14.2366 14.0224 14.2366 15.2857C14.2366 16.549 13.4554 17.6601 12.1251 17.6601C10.7948 17.6601 9.96723 16.4665 9.96723 15.2032C9.96723 13.9399 11.0346 12.9679 12.0916 12.9679ZM12.0916 12.2719C10.6479 12.2719 9.46191 13.5867 9.46191 15.2109C9.46191 16.8351 10.6221 18.15 12.0916 18.15C13.5354 18.15 14.7213 16.8351 14.7213 15.2109C14.7213 13.5867 13.5354 12.2719 12.0916 12.2719Z" fill="#709921"/>
<path d="M12.1432 16.7578C13.268 16.7578 14.1799 15.8113 14.1799 14.6437C14.1799 13.4762 13.268 12.5297 12.1432 12.5297C11.0183 12.5297 10.1064 13.4762 10.1064 14.6437C10.1064 15.8113 11.0183 16.7578 12.1432 16.7578Z" fill="white"/>
<path d="M12.1431 12.8133C13.097 12.8133 13.8962 13.6383 13.8962 14.6438C13.8962 15.6492 13.1228 16.4742 12.1431 16.4742C11.1634 16.4742 10.3899 15.6492 10.3899 14.6438C10.3899 13.6383 11.1892 12.8133 12.1431 12.8133ZM12.1431 12.2461C10.854 12.2461 9.82275 13.3289 9.82275 14.6438C9.82275 15.9586 10.854 17.0414 12.1431 17.0414C13.4321 17.0414 14.4634 15.9586 14.4634 14.6438C14.4634 13.3289 13.4321 12.2461 12.1431 12.2461Z" fill="#709921"/>
<path d="M20.8054 17.8149C19.5421 17.8149 18.5366 16.6547 18.5366 15.211C18.5366 13.7672 19.5679 12.6071 20.8054 12.6071C22.0687 12.6071 23.0741 13.7672 23.0741 15.211C23.0741 16.6547 22.0687 17.8149 20.8054 17.8149Z" fill="#4E6B17"/>
<path d="M20.8055 12.9679C21.8883 12.9679 22.9505 14.0224 22.9505 15.2857C22.9505 16.549 22.1693 17.6601 20.839 17.6601C19.5113 17.6601 18.6811 16.4665 18.6811 15.2032C18.6811 13.9399 19.7484 12.9679 20.8055 12.9679ZM20.8055 12.2719C19.3617 12.2719 18.1758 13.5867 18.1758 15.2109C18.1758 16.8351 19.3359 18.15 20.8055 18.15C22.2492 18.15 23.4352 16.8351 23.4352 15.2109C23.4352 13.5867 22.2492 12.2719 20.8055 12.2719Z" fill="#709921"/>
<path d="M20.857 16.7578C21.9819 16.7578 22.8938 15.8113 22.8938 14.6437C22.8938 13.4762 21.9819 12.5297 20.857 12.5297C19.7322 12.5297 18.8203 13.4762 18.8203 14.6437C18.8203 15.8113 19.7322 16.7578 20.857 16.7578Z" fill="white"/>
<path d="M20.8569 12.8133C21.8108 12.8133 22.6101 13.6383 22.6101 14.6438C22.6101 15.6492 21.8366 16.4742 20.8569 16.4742C19.8772 16.4742 19.1038 15.6492 19.1038 14.6438C19.1038 13.6383 19.903 12.8133 20.8569 12.8133ZM20.8569 12.2461C19.5679 12.2461 18.5366 13.3289 18.5366 14.6438C18.5366 15.9586 19.5679 17.0414 20.8569 17.0414C22.146 17.0414 23.1772 15.9586 23.1772 14.6438C23.1772 13.3289 22.146 12.2461 20.8569 12.2461Z" fill="#709921"/>
<path d="M10.4725 26.8795C10.3178 26.699 10.1348 26.6449 9.9569 26.6217C9.6862 26.5856 9.45417 26.6501 9.32268 26.846C9.09323 27.1889 9.01331 27.8489 8.3662 27.9211C7.94339 27.9675 7.86862 26.5083 7.86347 25.9437C7.84542 23.943 7.96659 23.0381 8.01557 22.8654C8.06714 22.6901 8.10581 22.3781 8.21667 22.1976C8.62401 22.1899 8.91792 21.8573 8.95143 21.45C8.98495 21.0091 8.19604 20.2898 7.32206 20.9112C6.88378 21.2231 6.36815 22.1229 6.31659 24.701C6.31659 24.701 6.21862 25.0903 6.02784 24.6108C5.83706 24.1312 5.51479 23.2444 5.92214 22.2131C6.18768 22.2183 6.47128 21.9759 6.48417 21.5608C6.50221 21.0401 6.03042 20.8106 5.69011 20.8467C5.34979 20.8828 4.67432 21.0426 4.43198 22.0069C4.29276 22.5586 4.31081 23.1258 4.31081 23.1258C4.31081 23.1258 3.67659 23.2727 3.60956 23.3294C3.43425 23.4815 2.98565 23.7626 3.03979 24.8015C3.063 25.263 3.22542 25.838 3.22542 25.838C3.22542 25.838 2.86706 26.0236 2.72784 26.1937C2.51901 26.4464 2.34885 26.73 2.26635 27.0445C2.12198 27.6091 2.17612 28.184 2.34628 28.7358C2.45198 29.0812 2.59893 29.4164 2.76651 29.7387C2.87737 29.9526 3.03979 30.1512 3.10682 30.3883C3.13776 30.4992 3.1326 30.5972 3.11198 30.6977C3.09135 30.806 2.89542 31.698 2.83096 32.0229H6.46096C6.48675 31.912 6.53057 31.778 6.55893 31.6671C6.61823 31.4428 7.09261 31.3165 7.28081 31.2133C8.46675 30.5714 9.71198 29.5788 10.4081 28.3026C10.6427 27.8747 10.7819 27.2405 10.4725 26.8795ZM4.55573 25.6884L4.35464 24.6005L4.62792 24.4999C4.62792 24.4999 4.76456 24.8557 4.84706 25.3481C4.92956 25.8405 4.55573 25.6884 4.55573 25.6884Z" fill="#82CC2B"/>
<path d="M5.67968 30.2646C5.64358 30.2723 5.90655 29.5143 5.29554 28.8028C4.7696 28.1917 4.00905 28.4418 4.00905 28.4418C4.00905 28.4418 4.62522 28.5501 5.07897 29.0554C5.53272 29.5633 5.67968 30.2646 5.67968 30.2646ZM3.99616 26.07C4.18437 26.2221 4.3339 26.4541 4.30296 26.6939C4.26687 26.9775 3.98327 27.1785 3.6971 27.2095C3.41093 27.2404 3.13249 27.1425 2.86694 27.0316C3.06288 27.4132 3.44702 27.4157 3.44702 27.4157C3.44702 27.4157 3.66874 28.3516 3.78476 28.3954L3.80796 27.4725C3.80796 27.4725 4.34937 27.5575 4.57108 26.8331C4.7103 26.3742 4.47312 26.021 4.14054 25.8689C3.80796 25.7167 3.33616 25.856 3.33616 25.856C3.33616 25.856 3.80538 25.9153 3.99616 26.07ZM4.45249 23.3294C4.65874 23.4042 4.84694 23.5279 4.86757 23.7703C4.89335 24.0539 4.65874 24.3117 4.38804 24.4045C4.11733 24.4973 3.82085 24.4612 3.53983 24.4096C3.7796 24.6803 4.09929 24.652 4.13022 24.7164C4.17147 24.8041 4.14827 25.281 4.32616 25.5517C4.4164 25.6884 4.64843 25.7116 4.64843 25.7116C4.64843 25.7116 4.38546 25.3017 4.43444 24.701C4.43444 24.701 4.65101 24.6417 4.80569 24.5437C5.04288 24.3942 5.14085 24.1132 5.16147 23.8476C5.19757 23.3681 4.7464 23.167 4.41897 23.1335C3.92913 23.0819 3.60944 23.332 3.60944 23.332C3.60944 23.332 4.22046 23.2443 4.45249 23.3294ZM3.11187 30.7054C3.48569 30.9503 4.06062 31.0483 4.45765 31.0071C3.96007 30.8859 3.27944 30.4192 2.94429 30.0325C3.01132 30.146 3.07577 30.2594 3.10929 30.3857C3.14022 30.4966 3.13507 30.5946 3.11444 30.6951C3.11444 30.6977 3.11187 30.7028 3.11187 30.7054ZM5.29554 31.4144C5.54046 31.631 6.09991 31.7573 6.54335 31.7186L6.55882 31.6645C6.59749 31.5175 6.81147 31.4144 7.00999 31.3293C6.57429 31.4789 5.75187 31.4814 5.29554 31.4144ZM5.15374 22.0146C5.14858 22.0223 5.14858 22.0326 5.15116 22.0403C5.17437 22.2234 5.27749 22.3961 5.42702 22.5044C5.5353 22.5817 5.66421 22.623 5.79569 22.6282C5.82405 22.4915 5.86272 22.3549 5.91944 22.2105C5.66936 22.2182 5.41929 22.1512 5.21046 22.0146C5.19499 22.0068 5.16663 21.9965 5.15374 22.0146ZM7.44312 21.8367C7.44054 22.079 7.57202 22.3059 7.74991 22.4709C7.84015 22.556 7.94843 22.6282 8.06702 22.672C8.10312 22.5121 8.14436 22.3291 8.21913 22.2002C8.10311 22.1976 7.9871 22.1692 7.8814 22.1228C7.71897 22.0532 7.57976 21.945 7.44312 21.8367ZM9.18851 27.0986C9.03382 27.4415 8.87655 27.8617 8.36608 27.9185C8.30937 27.9236 8.26038 27.903 8.21397 27.8617C8.24491 28.2742 8.29905 28.7718 8.22171 29.1534C8.75796 28.6068 9.16788 27.9649 9.18851 27.0986Z" fill="#709921"/>
<path d="M22.6773 28.3001C23.3734 29.5762 24.6186 30.5688 25.8046 31.2108C25.9928 31.3139 26.4697 31.4402 26.5264 31.6645C26.5548 31.7754 26.5986 31.9094 26.6244 32.0203H30.2544C30.1874 31.6955 29.994 30.8034 29.9734 30.6952C29.9554 30.5972 29.9502 30.4966 29.9786 30.3858C30.043 30.1486 30.2054 29.9527 30.3189 29.7361C30.4864 29.4138 30.6334 29.0812 30.7391 28.7332C30.9093 28.1815 30.9634 27.604 30.819 27.0419C30.7365 26.7248 30.5664 26.4412 30.3575 26.1912C30.2183 26.0236 29.86 25.8354 29.86 25.8354C29.86 25.8354 30.0224 25.2605 30.0456 24.799C30.0997 23.76 29.6511 23.479 29.4758 23.3269C29.4088 23.2676 28.7746 23.1232 28.7746 23.1232C28.7746 23.1232 28.7926 22.556 28.6534 22.0043C28.4111 21.0401 27.7356 20.8802 27.3953 20.8441C27.055 20.808 26.5832 21.0375 26.6012 21.5583C26.6167 21.9708 26.8977 22.2157 27.1632 22.2105C27.5706 23.2418 27.2509 24.1312 27.0575 24.6082C26.8668 25.0852 26.7688 24.6984 26.7688 24.6984C26.7172 22.1203 26.2016 21.2205 25.7633 20.9086C24.8893 20.2873 24.1004 21.0066 24.1339 21.4474C24.1649 21.8548 24.4614 22.1873 24.8687 22.1951C24.9821 22.3755 25.0208 22.6875 25.0698 22.8628C25.1188 23.033 25.24 23.9405 25.2219 25.9411C25.2168 26.5057 25.142 27.9675 24.7192 27.9185C24.0721 27.8463 23.9947 27.1863 23.7627 26.8434C23.6312 26.6475 23.3992 26.5856 23.1285 26.6191C22.9506 26.6423 22.7675 26.6965 22.6129 26.8769C22.3061 27.2405 22.4427 27.8747 22.6773 28.3001ZM28.2409 25.3481C28.3234 24.8557 28.46 24.4999 28.46 24.4999L28.7333 24.6005L28.5322 25.6884C28.5322 25.6884 28.1558 25.838 28.2409 25.3481Z" fill="#82CC2B"/>
<path d="M27.4056 30.2646C27.4417 30.2723 27.1787 29.5143 27.7897 28.8028C28.3156 28.1917 29.0762 28.4418 29.0762 28.4418C29.0762 28.4418 28.46 28.5501 28.0063 29.0554C27.5551 29.5633 27.4056 30.2646 27.4056 30.2646ZM29.0891 26.07C28.9009 26.2221 28.7513 26.4541 28.7823 26.6939C28.8184 26.9775 29.102 27.1785 29.3881 27.2095C29.6717 27.243 29.9527 27.1425 30.2183 27.0316C30.0224 27.4132 29.6382 27.4157 29.6382 27.4157C29.6382 27.4157 29.4165 28.3516 29.3005 28.3954L29.2773 27.4725C29.2773 27.4725 28.7359 27.5575 28.5141 26.8331C28.3749 26.3742 28.6121 26.021 28.9447 25.8689C29.2773 25.7167 29.7491 25.856 29.7491 25.856C29.7491 25.856 29.2824 25.9153 29.0891 26.07ZM28.6327 23.3294C28.4265 23.4042 28.2383 23.5279 28.2177 23.7703C28.1919 24.0539 28.4265 24.3117 28.6972 24.4045C28.9679 24.4973 29.2644 24.4612 29.5454 24.4096C29.3056 24.6803 28.9859 24.652 28.955 24.7164C28.9138 24.8041 28.937 25.281 28.7591 25.5517C28.6688 25.6884 28.4368 25.7116 28.4368 25.7116C28.4368 25.7116 28.6998 25.3017 28.6508 24.701C28.6508 24.701 28.4342 24.6417 28.2795 24.5437C28.0424 24.3942 27.9444 24.1132 27.9238 23.8476C27.8877 23.3681 28.3388 23.167 28.6663 23.1335C29.1561 23.0819 29.4758 23.332 29.4758 23.332C29.4758 23.332 28.8648 23.2443 28.6327 23.3294ZM29.9759 30.7054C29.6021 30.9503 29.0272 31.0483 28.6302 31.0071C29.1277 30.8859 29.8084 30.4192 30.1435 30.0325C30.0765 30.146 30.012 30.2594 29.9785 30.3857C29.9476 30.4966 29.9527 30.5946 29.9734 30.6951C29.9734 30.6977 29.9734 30.7028 29.9759 30.7054ZM27.7897 31.4144C27.5448 31.631 26.9853 31.7573 26.5419 31.7186L26.5264 31.6645C26.4877 31.5175 26.2738 31.4144 26.0752 31.3293C26.5109 31.4789 27.3334 31.4814 27.7897 31.4144ZM27.9315 22.0146C27.9366 22.0223 27.9366 22.0326 27.9341 22.0403C27.9109 22.2234 27.8077 22.3961 27.6582 22.5044C27.5499 22.5817 27.421 22.623 27.2895 22.6282C27.2612 22.4915 27.2225 22.3549 27.1658 22.2105C27.4159 22.2182 27.6659 22.1512 27.8748 22.0146C27.8928 22.0068 27.9212 21.9965 27.9315 22.0146ZM25.6447 21.8367C25.6473 22.079 25.5158 22.3059 25.3379 22.4709C25.2477 22.556 25.1394 22.6282 25.0208 22.672C24.9847 22.5121 24.9434 22.3291 24.8687 22.2002C24.9847 22.1976 25.1007 22.1692 25.2064 22.1228C25.3663 22.0532 25.5081 21.945 25.6447 21.8367ZM23.8967 27.0986C24.0514 27.4415 24.2087 27.8617 24.7191 27.9185C24.7759 27.9236 24.8249 27.903 24.8713 27.8617C24.8403 28.2742 24.7862 28.7718 24.8635 29.1534C24.3299 28.6068 23.9174 27.9649 23.8967 27.0986Z" fill="#709921"/>
<defs>
<linearGradient id="paint0_linear_41_995" x1="16.5" y1="24.75" x2="16.5" y2="33.7376" gradientUnits="userSpaceOnUse">
<stop offset="0.004" stop-color="#00BFA5"/>
<stop offset="1" stop-color="#009E89"/>
</linearGradient>
<radialGradient id="paint1_radial_41_995" cx="0" cy="0" r="1" gradientUnits="userSpaceOnUse" gradientTransform="translate(16.7474 11.4768) scale(10.3293)">
<stop offset="0.594" stop-color="#802828"/>
<stop offset="1" stop-color="#BD5151"/>
</radialGradient>
</defs>
</svg>
